<?xml version="1.0" encoding="utf-8"?>
<svg version="1.1" xmlns:xlink="http://www.w3.org/1999/xlink" width="943px" height="42px" xmlns="http://www.w3.org/2000/svg">
  <g transform="matrix(1 0 0 1 -471 -567 )">
    <path d="M 472 573  A 5 5 0 0 1 477 568 L 1408 568  A 5 5 0 0 1 1413 573 L 1413 603  A 5 5 0 0 1 1408 608 L 477 608  A 5 5 0 0 1 472 603 L 472 573  Z " fill-rule="nonzero" fill="#ffffff" stroke="none" />
    <path d="M 471.5 573  A 5.5 5.5 0 0 1 477 567.5 L 1408 567.5  A 5.5 5.5 0 0 1 1413.5 573 L 1413.5 603  A 5.5 5.5 0 0 1 1408 608.5 L 477 608.5  A 5.5 5.5 0 0 1 471.5 603 L 471.5 573  Z " stroke-width="1" stroke="#d7d7d7" fill="none" stroke-opacity="0.780392156862745" />
  </g>
</svg>