<?xml version="1.0" encoding="utf-8"?>
<svg version="1.1" xmlns:xlink="http://www.w3.org/1999/xlink" width="10px" height="10px" xmlns="http://www.w3.org/2000/svg">
  <g transform="matrix(1 0 0 1 -1854 -711 )">
    <path d="M 1859 712  C 1861.24 712  1863 713.76  1863 716  C 1863 718.24  1861.24 720  1859 720  C 1856.76 720  1855 718.24  1855 716  C 1855 713.76  1856.76 712  1859 712  Z " fill-rule="nonzero" fill="#ffffff" stroke="none" />
    <path d="M 1859 712  C 1861.24 712  1863 713.76  1863 716  C 1863 718.24  1861.24 720  1859 720  C 1856.76 720  1855 718.24  1855 716  C 1855 713.76  1856.76 712  1859 712  Z " stroke-width="2" stroke="#409eff" fill="none" />
  </g>
</svg>