<?xml version="1.0" encoding="utf-8"?>
<svg version="1.1" xmlns:xlink="http://www.w3.org/1999/xlink" width="10px" height="10px" xmlns="http://www.w3.org/2000/svg">
  <g transform="matrix(1 0 0 1 -1698 -740 )">
    <path d="M 1703 741  C 1705.24 741  1707 742.76  1707 745  C 1707 747.24  1705.24 749  1703 749  C 1700.76 749  1699 747.24  1699 745  C 1699 742.76  1700.76 741  1703 741  Z " fill-rule="nonzero" fill="#ffffff" stroke="none" />
    <path d="M 1703 741  C 1705.24 741  1707 742.76  1707 745  C 1707 747.24  1705.24 749  1703 749  C 1700.76 749  1699 747.24  1699 745  C 1699 742.76  1700.76 741  1703 741  Z " stroke-width="2" stroke="#409eff" fill="none" />
  </g>
</svg>