<?xml version="1.0" encoding="utf-8"?>
<svg version="1.1" xmlns:xlink="http://www.w3.org/1999/xlink" width="12px" height="12px" xmlns="http://www.w3.org/2000/svg">
  <g transform="matrix(1 0 0 1 -946 -394 )">
    <path d="M 952 394  C 955.36 394  958 396.64  958 400  C 958 403.36  955.36 406  952 406  C 948.64 406  946 403.36  946 400  C 946 396.64  948.64 394  952 394  Z " fill-rule="nonzero" fill="#f90421" stroke="none" fill-opacity="0.996078431372549" />
    <path d="M 952 394.5  C 955.08 394.5  957.5 396.92  957.5 400  C 957.5 403.08  955.08 405.5  952 405.5  C 948.92 405.5  946.5 403.08  946.5 400  C 946.5 396.92  948.92 394.5  952 394.5  Z " stroke-width="1" stroke="#d9001b" fill="none" />
  </g>
</svg>