<?xml version="1.0" encoding="utf-8"?>
<svg version="1.1" xmlns:xlink="http://www.w3.org/1999/xlink" width="12px" height="12px" xmlns="http://www.w3.org/2000/svg">
  <g transform="matrix(1 0 0 1 -946 -478 )">
    <path d="M 952 478.5  C 955.08 478.5  957.5 480.92  957.5 484  C 957.5 487.08  955.08 489.5  952 489.5  C 948.92 489.5  946.5 487.08  946.5 484  C 946.5 480.92  948.92 478.5  952 478.5  Z " fill-rule="nonzero" fill="#96ee07" stroke="none" fill-opacity="0.996078431372549" />
    <path d="M 952 478.5  C 955.08 478.5  957.5 480.92  957.5 484  C 957.5 487.08  955.08 489.5  952 489.5  C 948.92 489.5  946.5 487.08  946.5 484  C 946.5 480.92  948.92 478.5  952 478.5  Z " stroke-width="1" stroke="#96ee07" fill="none" stroke-opacity="0.996078431372549" />
  </g>
</svg>