<?xml version="1.0" encoding="utf-8"?>
<svg version="1.1" xmlns:xlink="http://www.w3.org/1999/xlink" width="144px" height="76px" xmlns="http://www.w3.org/2000/svg">
  <g transform="matrix(1 0 0 1 -368 -94 )">
    <path d="M 369 98  A 3 3 0 0 1 372 95 L 508 95  A 3 3 0 0 1 511 98 L 511 166  A 3 3 0 0 1 508 169 L 372 169  A 3 3 0 0 1 369 166 L 369 98  Z " fill-rule="nonzero" fill="#ff3399" stroke="none" fill-opacity="0.0980392156862745" />
    <path d="M 368.5 98  A 3.5 3.5 0 0 1 372 94.5 L 508 94.5  A 3.5 3.5 0 0 1 511.5 98 L 511.5 166  A 3.5 3.5 0 0 1 508 169.5 L 372 169.5  A 3.5 3.5 0 0 1 368.5 166 L 368.5 98  Z " stroke-width="1" stroke-dasharray="9,4" stroke="#ff3399" fill="none" stroke-dashoffset="0.5" />
  </g>
</svg>