<?xml version="1.0" encoding="utf-8"?>
<svg version="1.1" xmlns:xlink="http://www.w3.org/1999/xlink" width="37px" height="23px" xmlns="http://www.w3.org/2000/svg">
  <defs>
    <mask fill="white" id="clip325">
      <path d="M 34.1381215469613 0.674486803519062  L 33.865561694291 0.674486803519062  C 33.865561694291 0.674486803519062  33.7292817679558 0.741935483870964  33.7292817679558 0.741935483870964  C 33.7292817679558 1.0791788856305  33.524861878453 1.28152492668622  33.1841620626151 1.28152492668622  C 33.1841620626151 1.28152492668622  30.5267034990792 1.01173020527859  30.5267034990792 1.01173020527859  C 28.6869244935543 0.674486803519062  27.4604051565378 0.404692082111433  26.8471454880294 0.0674486803519024  C 26.8471454880294 0.0674486803519024  23.0994475138121 3.57478005865104  23.0994475138121 3.57478005865104  L 23.2357274401473 5.05865102639296  L 23.2357274401473 5.19354838709677  C 23.2357274401473 5.19354838709677  22.8950276243094 5.26099706744869  22.8950276243094 5.26099706744869  C 19.9650092081031 5.66568914956012  18.3977900552486 5.3958944281525  18.1933701657458 4.4516129032258  C 18.1933701657458 4.4516129032258  17.8526703499079 0.269794721407629  17.8526703499079 0.269794721407629  L 14.4456721915285 0.0674486803519024  L 13.0147329650092 3.03519061583578  C 13.0147329650092 3.03519061583578  12.878453038674 1.75366568914956  12.878453038674 1.75366568914956  C 12.8103130755064 0.741935483870964  12.6058931860037 0.134897360703805  12.4014732965009 0  C 12.4014732965009 0  10.902394106814 0.741935483870964  10.902394106814 0.741935483870964  L 10.2209944751381 1.61876832844575  L 10.1528545119705 1.68621700879765  L 10.0847145488029 1.68621700879765  C 10.0847145488029 1.68621700879765  8.7219152854512 2.15835777126099  8.7219152854512 2.15835777126099  C 7.22283609576425 3.37243401759531  5.9281767955801 4.65395894428153  4.76979742173112 6.00293255131965  C 4.76979742173112 6.00293255131965  1.15837937384898 10.8592375366569  1.15837937384898 10.8592375366569  L 1.90791896869246 12.5454545454545  L 1.90791896869246 12.8152492668622  C 1.90791896869246 12.8152492668622  1.83977900552485 12.8826979472141  1.83977900552485 12.8826979472141  C 1.56721915285452 13.2873900293255  1.70349907918969 13.8944281524927  2.11233885819519 14.5689149560117  C 2.58931860036833 15.4457478005865  2.93001841620627 16.3900293255132  2.93001841620627 17.4692082111437  C 2.93001841620627 17.4692082111437  2.93001841620627 17.6715542521994  2.93001841620627 17.6715542521994  L 0 19.3577712609971  L 0 20.0322580645161  C 0 20.0322580645161  1.36279926335175 20.6392961876833  1.36279926335175 20.6392961876833  C 1.49907918968692 20.7067448680352  1.56721915285452 20.841642228739  1.56721915285452 20.9090909090909  C 1.56721915285452 20.9090909090909  1.56721915285452 21.0439882697947  1.56721915285452 21.0439882697947  C 1.49907918968692 21.3812316715543  2.04419889502762 21.8533724340176  3.06629834254144 22.3255131964809  C 3.06629834254144 22.3255131964809  5.58747697974216 23  5.58747697974216 23  L 6.33701657458564 22.5278592375367  L 7.15469613259668 21.3812316715543  L 7.83609576427256 19.425219941349  L 9.81215469613258 20.16715542522  L 10.0847145488029 20.3695014662757  L 10.0847145488029 20.5043988269795  C 10.0847145488029 20.5043988269795  10.0847145488029 20.5718475073314  10.0847145488029 20.5718475073314  C 9.74401473296501 21.3812316715543  9.94843462246774 21.9208211143695  10.5616942909761 22.258064516129  C 10.5616942909761 22.258064516129  12.7421731123388 22.3255131964809  12.7421731123388 22.3255131964809  C 13.4917127071823 22.1906158357771  14.1049723756906 21.9208211143695  14.5138121546961 21.58357771261  C 14.7863720073665 21.2463343108505  15.195211786372 21.1788856304985  15.8084714548803 21.2463343108505  C 16.5580110497238 21.3812316715543  17.2394106813996 21.6510263929619  17.7163904235727 22.258064516129  C 17.7163904235727 22.258064516129  18.1933701657458 21.1114369501466  18.1933701657458 21.1114369501466  L 18.329650092081 20.9090909090909  C 18.329650092081 20.9090909090909  18.3977900552486 20.9090909090909  18.3977900552486 20.9090909090909  C 18.7384898710866 20.7067448680352  18.9429097605893 20.3695014662757  19.2154696132597 19.8973607038123  C 19.4198895027624 19.425219941349  19.7605893186004 18.9530791788856  20.3057090239411 18.6158357771261  C 20.3057090239411 18.6158357771261  21.2596685082873 18.0762463343109  21.2596685082873 18.0762463343109  L 21.3278084714549 18.0087976539589  L 21.3959484346224 18.0762463343109  L 21.46408839779 18.0762463343109  L 22.0092081031308 18.2111436950147  L 22.1454880294659 18.2785923753666  L 22.8950276243094 14.9061583577713  L 22.8950276243094 14.8387096774194  C 22.8950276243094 14.8387096774194  23.9852670349908 14.6363636363636  23.9852670349908 14.6363636363636  C 25.0755064456722 13.8944281524927  25.6206261510129 13.2873900293255  25.5524861878453 12.7478005865103  C 25.5524861878453 12.7478005865103  25.3480662983425 11.7360703812317  25.3480662983425 11.7360703812317  C 25.0755064456722 11.0615835777126  25.0755064456722 10.5894428152493  25.2117863720074 10.3870967741936  C 25.4162062615101 10.1847507331378  25.5524861878453 10.1173020527859  25.7569060773481 10.1173020527859  C 26.2338858195212 10.1173020527859  26.7790055248619 10.2521994134897  27.3241252302025 10.5219941348974  C 27.3241252302025 10.5219941348974  27.4604051565378 9.44281524926686  27.4604051565378 9.44281524926686  L 27.4604051565378 9.30791788856306  L 27.5285451197053 9.24046920821114  L 28.6869244935543 8.7008797653959  L 28.8232044198895 8.09384164222874  L 28.1418047882136 8.09384164222874  L 28.0055248618784 8.02639296187684  L 28.073664825046 7.68914956011731  L 28.073664825046 7.48680351906158  L 28.1418047882136 7.35190615835778  L 28.3462246777164 7.35190615835778  C 28.3462246777164 7.35190615835778  28.4825046040516 7.35190615835778  28.4825046040516 7.35190615835778  C 28.9594843462247 7.35190615835778  29.5046040515654 7.08211143695015  30.1178637200736 6.54252199413489  C 30.1178637200736 6.54252199413489  34.4106813996317 3.50733137829911  34.4106813996317 3.50733137829911  L 34.5469613259668 3.50733137829911  L 35.9097605893186 4.11436950146627  L 36.4548802946593 4.04692082111437  L 36.1141804788214 2.63049853372435  L 36.1141804788214 2.49560117302052  L 36.1823204419889 2.42815249266862  L 36.2504604051565 2.36070381231672  L 37 1.1466275659824  L 36.7955801104972 1.01173020527859  L 36.3186003683241 1.1466275659824  L 36.3186003683241 1.21407624633432  L 36.2504604051565 1.21407624633432  L 34.8876611418048 1.41642228739003  L 34.5469613259668 1.41642228739003  L 34.4788213627992 1.41642228739003  L 34.4788213627992 1.34897360703812  L 34.4106813996317 1.1466275659824  L 34.1381215469613 0.674486803519062  Z " fill-rule="evenodd" />
    </mask>
  </defs>
  <g transform="matrix(1 0 0 1 -2029 -1870 )">
    <path d="M 34.1381215469613 0.674486803519062  L 33.865561694291 0.674486803519062  C 33.865561694291 0.674486803519062  33.7292817679558 0.741935483870964  33.7292817679558 0.741935483870964  C 33.7292817679558 1.0791788856305  33.524861878453 1.28152492668622  33.1841620626151 1.28152492668622  C 33.1841620626151 1.28152492668622  30.5267034990792 1.01173020527859  30.5267034990792 1.01173020527859  C 28.6869244935543 0.674486803519062  27.4604051565378 0.404692082111433  26.8471454880294 0.0674486803519024  C 26.8471454880294 0.0674486803519024  23.0994475138121 3.57478005865104  23.0994475138121 3.57478005865104  L 23.2357274401473 5.05865102639296  L 23.2357274401473 5.19354838709677  C 23.2357274401473 5.19354838709677  22.8950276243094 5.26099706744869  22.8950276243094 5.26099706744869  C 19.9650092081031 5.66568914956012  18.3977900552486 5.3958944281525  18.1933701657458 4.4516129032258  C 18.1933701657458 4.4516129032258  17.8526703499079 0.269794721407629  17.8526703499079 0.269794721407629  L 14.4456721915285 0.0674486803519024  L 13.0147329650092 3.03519061583578  C 13.0147329650092 3.03519061583578  12.878453038674 1.75366568914956  12.878453038674 1.75366568914956  C 12.8103130755064 0.741935483870964  12.6058931860037 0.134897360703805  12.4014732965009 0  C 12.4014732965009 0  10.902394106814 0.741935483870964  10.902394106814 0.741935483870964  L 10.2209944751381 1.61876832844575  L 10.1528545119705 1.68621700879765  L 10.0847145488029 1.68621700879765  C 10.0847145488029 1.68621700879765  8.7219152854512 2.15835777126099  8.7219152854512 2.15835777126099  C 7.22283609576425 3.37243401759531  5.9281767955801 4.65395894428153  4.76979742173112 6.00293255131965  C 4.76979742173112 6.00293255131965  1.15837937384898 10.8592375366569  1.15837937384898 10.8592375366569  L 1.90791896869246 12.5454545454545  L 1.90791896869246 12.8152492668622  C 1.90791896869246 12.8152492668622  1.83977900552485 12.8826979472141  1.83977900552485 12.8826979472141  C 1.56721915285452 13.2873900293255  1.70349907918969 13.8944281524927  2.11233885819519 14.5689149560117  C 2.58931860036833 15.4457478005865  2.93001841620627 16.3900293255132  2.93001841620627 17.4692082111437  C 2.93001841620627 17.4692082111437  2.93001841620627 17.6715542521994  2.93001841620627 17.6715542521994  L 0 19.3577712609971  L 0 20.0322580645161  C 0 20.0322580645161  1.36279926335175 20.6392961876833  1.36279926335175 20.6392961876833  C 1.49907918968692 20.7067448680352  1.56721915285452 20.841642228739  1.56721915285452 20.9090909090909  C 1.56721915285452 20.9090909090909  1.56721915285452 21.0439882697947  1.56721915285452 21.0439882697947  C 1.49907918968692 21.3812316715543  2.04419889502762 21.8533724340176  3.06629834254144 22.3255131964809  C 3.06629834254144 22.3255131964809  5.58747697974216 23  5.58747697974216 23  L 6.33701657458564 22.5278592375367  L 7.15469613259668 21.3812316715543  L 7.83609576427256 19.425219941349  L 9.81215469613258 20.16715542522  L 10.0847145488029 20.3695014662757  L 10.0847145488029 20.5043988269795  C 10.0847145488029 20.5043988269795  10.0847145488029 20.5718475073314  10.0847145488029 20.5718475073314  C 9.74401473296501 21.3812316715543  9.94843462246774 21.9208211143695  10.5616942909761 22.258064516129  C 10.5616942909761 22.258064516129  12.7421731123388 22.3255131964809  12.7421731123388 22.3255131964809  C 13.4917127071823 22.1906158357771  14.1049723756906 21.9208211143695  14.5138121546961 21.58357771261  C 14.7863720073665 21.2463343108505  15.195211786372 21.1788856304985  15.8084714548803 21.2463343108505  C 16.5580110497238 21.3812316715543  17.2394106813996 21.6510263929619  17.7163904235727 22.258064516129  C 17.7163904235727 22.258064516129  18.1933701657458 21.1114369501466  18.1933701657458 21.1114369501466  L 18.329650092081 20.9090909090909  C 18.329650092081 20.9090909090909  18.3977900552486 20.9090909090909  18.3977900552486 20.9090909090909  C 18.7384898710866 20.7067448680352  18.9429097605893 20.3695014662757  19.2154696132597 19.8973607038123  C 19.4198895027624 19.425219941349  19.7605893186004 18.9530791788856  20.3057090239411 18.6158357771261  C 20.3057090239411 18.6158357771261  21.2596685082873 18.0762463343109  21.2596685082873 18.0762463343109  L 21.3278084714549 18.0087976539589  L 21.3959484346224 18.0762463343109  L 21.46408839779 18.0762463343109  L 22.0092081031308 18.2111436950147  L 22.1454880294659 18.2785923753666  L 22.8950276243094 14.9061583577713  L 22.8950276243094 14.8387096774194  C 22.8950276243094 14.8387096774194  23.9852670349908 14.6363636363636  23.9852670349908 14.6363636363636  C 25.0755064456722 13.8944281524927  25.6206261510129 13.2873900293255  25.5524861878453 12.7478005865103  C 25.5524861878453 12.7478005865103  25.3480662983425 11.7360703812317  25.3480662983425 11.7360703812317  C 25.0755064456722 11.0615835777126  25.0755064456722 10.5894428152493  25.2117863720074 10.3870967741936  C 25.4162062615101 10.1847507331378  25.5524861878453 10.1173020527859  25.7569060773481 10.1173020527859  C 26.2338858195212 10.1173020527859  26.7790055248619 10.2521994134897  27.3241252302025 10.5219941348974  C 27.3241252302025 10.5219941348974  27.4604051565378 9.44281524926686  27.4604051565378 9.44281524926686  L 27.4604051565378 9.30791788856306  L 27.5285451197053 9.24046920821114  L 28.6869244935543 8.7008797653959  L 28.8232044198895 8.09384164222874  L 28.1418047882136 8.09384164222874  L 28.0055248618784 8.02639296187684  L 28.073664825046 7.68914956011731  L 28.073664825046 7.48680351906158  L 28.1418047882136 7.35190615835778  L 28.3462246777164 7.35190615835778  C 28.3462246777164 7.35190615835778  28.4825046040516 7.35190615835778  28.4825046040516 7.35190615835778  C 28.9594843462247 7.35190615835778  29.5046040515654 7.08211143695015  30.1178637200736 6.54252199413489  C 30.1178637200736 6.54252199413489  34.4106813996317 3.50733137829911  34.4106813996317 3.50733137829911  L 34.5469613259668 3.50733137829911  L 35.9097605893186 4.11436950146627  L 36.4548802946593 4.04692082111437  L 36.1141804788214 2.63049853372435  L 36.1141804788214 2.49560117302052  L 36.1823204419889 2.42815249266862  L 36.2504604051565 2.36070381231672  L 37 1.1466275659824  L 36.7955801104972 1.01173020527859  L 36.3186003683241 1.1466275659824  L 36.3186003683241 1.21407624633432  L 36.2504604051565 1.21407624633432  L 34.8876611418048 1.41642228739003  L 34.5469613259668 1.41642228739003  L 34.4788213627992 1.41642228739003  L 34.4788213627992 1.34897360703812  L 34.4106813996317 1.1466275659824  L 34.1381215469613 0.674486803519062  Z " fill-rule="nonzero" fill="#4a9eff" stroke="none" transform="matrix(1 0 0 1 2029 1870 )" />
    <path d="M 34.1381215469613 0.674486803519062  L 33.865561694291 0.674486803519062  C 33.865561694291 0.674486803519062  33.7292817679558 0.741935483870964  33.7292817679558 0.741935483870964  C 33.7292817679558 1.0791788856305  33.524861878453 1.28152492668622  33.1841620626151 1.28152492668622  C 33.1841620626151 1.28152492668622  30.5267034990792 1.01173020527859  30.5267034990792 1.01173020527859  C 28.6869244935543 0.674486803519062  27.4604051565378 0.404692082111433  26.8471454880294 0.0674486803519024  C 26.8471454880294 0.0674486803519024  23.0994475138121 3.57478005865104  23.0994475138121 3.57478005865104  L 23.2357274401473 5.05865102639296  L 23.2357274401473 5.19354838709677  C 23.2357274401473 5.19354838709677  22.8950276243094 5.26099706744869  22.8950276243094 5.26099706744869  C 19.9650092081031 5.66568914956012  18.3977900552486 5.3958944281525  18.1933701657458 4.4516129032258  C 18.1933701657458 4.4516129032258  17.8526703499079 0.269794721407629  17.8526703499079 0.269794721407629  L 14.4456721915285 0.0674486803519024  L 13.0147329650092 3.03519061583578  C 13.0147329650092 3.03519061583578  12.878453038674 1.75366568914956  12.878453038674 1.75366568914956  C 12.8103130755064 0.741935483870964  12.6058931860037 0.134897360703805  12.4014732965009 0  C 12.4014732965009 0  10.902394106814 0.741935483870964  10.902394106814 0.741935483870964  L 10.2209944751381 1.61876832844575  L 10.1528545119705 1.68621700879765  L 10.0847145488029 1.68621700879765  C 10.0847145488029 1.68621700879765  8.7219152854512 2.15835777126099  8.7219152854512 2.15835777126099  C 7.22283609576425 3.37243401759531  5.9281767955801 4.65395894428153  4.76979742173112 6.00293255131965  C 4.76979742173112 6.00293255131965  1.15837937384898 10.8592375366569  1.15837937384898 10.8592375366569  L 1.90791896869246 12.5454545454545  L 1.90791896869246 12.8152492668622  C 1.90791896869246 12.8152492668622  1.83977900552485 12.8826979472141  1.83977900552485 12.8826979472141  C 1.56721915285452 13.2873900293255  1.70349907918969 13.8944281524927  2.11233885819519 14.5689149560117  C 2.58931860036833 15.4457478005865  2.93001841620627 16.3900293255132  2.93001841620627 17.4692082111437  C 2.93001841620627 17.4692082111437  2.93001841620627 17.6715542521994  2.93001841620627 17.6715542521994  L 0 19.3577712609971  L 0 20.0322580645161  C 0 20.0322580645161  1.36279926335175 20.6392961876833  1.36279926335175 20.6392961876833  C 1.49907918968692 20.7067448680352  1.56721915285452 20.841642228739  1.56721915285452 20.9090909090909  C 1.56721915285452 20.9090909090909  1.56721915285452 21.0439882697947  1.56721915285452 21.0439882697947  C 1.49907918968692 21.3812316715543  2.04419889502762 21.8533724340176  3.06629834254144 22.3255131964809  C 3.06629834254144 22.3255131964809  5.58747697974216 23  5.58747697974216 23  L 6.33701657458564 22.5278592375367  L 7.15469613259668 21.3812316715543  L 7.83609576427256 19.425219941349  L 9.81215469613258 20.16715542522  L 10.0847145488029 20.3695014662757  L 10.0847145488029 20.5043988269795  C 10.0847145488029 20.5043988269795  10.0847145488029 20.5718475073314  10.0847145488029 20.5718475073314  C 9.74401473296501 21.3812316715543  9.94843462246774 21.9208211143695  10.5616942909761 22.258064516129  C 10.5616942909761 22.258064516129  12.7421731123388 22.3255131964809  12.7421731123388 22.3255131964809  C 13.4917127071823 22.1906158357771  14.1049723756906 21.9208211143695  14.5138121546961 21.58357771261  C 14.7863720073665 21.2463343108505  15.195211786372 21.1788856304985  15.8084714548803 21.2463343108505  C 16.5580110497238 21.3812316715543  17.2394106813996 21.6510263929619  17.7163904235727 22.258064516129  C 17.7163904235727 22.258064516129  18.1933701657458 21.1114369501466  18.1933701657458 21.1114369501466  L 18.329650092081 20.9090909090909  C 18.329650092081 20.9090909090909  18.3977900552486 20.9090909090909  18.3977900552486 20.9090909090909  C 18.7384898710866 20.7067448680352  18.9429097605893 20.3695014662757  19.2154696132597 19.8973607038123  C 19.4198895027624 19.425219941349  19.7605893186004 18.9530791788856  20.3057090239411 18.6158357771261  C 20.3057090239411 18.6158357771261  21.2596685082873 18.0762463343109  21.2596685082873 18.0762463343109  L 21.3278084714549 18.0087976539589  L 21.3959484346224 18.0762463343109  L 21.46408839779 18.0762463343109  L 22.0092081031308 18.2111436950147  L 22.1454880294659 18.2785923753666  L 22.8950276243094 14.9061583577713  L 22.8950276243094 14.8387096774194  C 22.8950276243094 14.8387096774194  23.9852670349908 14.6363636363636  23.9852670349908 14.6363636363636  C 25.0755064456722 13.8944281524927  25.6206261510129 13.2873900293255  25.5524861878453 12.7478005865103  C 25.5524861878453 12.7478005865103  25.3480662983425 11.7360703812317  25.3480662983425 11.7360703812317  C 25.0755064456722 11.0615835777126  25.0755064456722 10.5894428152493  25.2117863720074 10.3870967741936  C 25.4162062615101 10.1847507331378  25.5524861878453 10.1173020527859  25.7569060773481 10.1173020527859  C 26.2338858195212 10.1173020527859  26.7790055248619 10.2521994134897  27.3241252302025 10.5219941348974  C 27.3241252302025 10.5219941348974  27.4604051565378 9.44281524926686  27.4604051565378 9.44281524926686  L 27.4604051565378 9.30791788856306  L 27.5285451197053 9.24046920821114  L 28.6869244935543 8.7008797653959  L 28.8232044198895 8.09384164222874  L 28.1418047882136 8.09384164222874  L 28.0055248618784 8.02639296187684  L 28.073664825046 7.68914956011731  L 28.073664825046 7.48680351906158  L 28.1418047882136 7.35190615835778  L 28.3462246777164 7.35190615835778  C 28.3462246777164 7.35190615835778  28.4825046040516 7.35190615835778  28.4825046040516 7.35190615835778  C 28.9594843462247 7.35190615835778  29.5046040515654 7.08211143695015  30.1178637200736 6.54252199413489  C 30.1178637200736 6.54252199413489  34.4106813996317 3.50733137829911  34.4106813996317 3.50733137829911  L 34.5469613259668 3.50733137829911  L 35.9097605893186 4.11436950146627  L 36.4548802946593 4.04692082111437  L 36.1141804788214 2.63049853372435  L 36.1141804788214 2.49560117302052  L 36.1823204419889 2.42815249266862  L 36.2504604051565 2.36070381231672  L 37 1.1466275659824  L 36.7955801104972 1.01173020527859  L 36.3186003683241 1.1466275659824  L 36.3186003683241 1.21407624633432  L 36.2504604051565 1.21407624633432  L 34.8876611418048 1.41642228739003  L 34.5469613259668 1.41642228739003  L 34.4788213627992 1.41642228739003  L 34.4788213627992 1.34897360703812  L 34.4106813996317 1.1466275659824  L 34.1381215469613 0.674486803519062  Z " stroke-width="2" stroke="#ffffff" fill="none" transform="matrix(1 0 0 1 2029 1870 )" mask="url(#clip325)" />
  </g>
</svg>