<?xml version="1.0" encoding="utf-8"?>
<svg version="1.1" xmlns:xlink="http://www.w3.org/1999/xlink" width="33px" height="26px" xmlns="http://www.w3.org/2000/svg">
  <defs>
    <mask fill="white" id="clip832">
      <path d="M 22.3728813559322 7.26027397260274  C 21.6271186440678 6.64383561643835  21.0169491525424 5.54794520547945  20.406779661017 3.83561643835616  C 18.4406779661017 3.83561643835616  17.2881355932203 3.4931506849315  16.7457627118644 2.80821917808219  C 16.3389830508475 2.1917808219178  15.5254237288135 1.78082191780822  14.3728813559322 1.43835616438356  C 14.3728813559322 1.43835616438356  14.0338983050847 1.36986301369863  14.0338983050847 1.36986301369863  L 14.3728813559322 0.205479452054783  L 14.1694915254237 0.0684931506849276  C 14.1694915254237 0.0684931506849276  13.8305084745763 0  13.8305084745763 0  C 13.0169491525424 0.410958904109585  12.4745762711864 0.82191780821917  12.271186440678 1.36986301369863  C 12 1.91780821917807  11.6610169491525 2.3972602739726  11.2542372881356 2.73972602739726  C 10.9152542372882 3.83561643835616  10.5762711864407 4.38356164383562  10.2372881355932 4.38356164383562  C 10.0338983050848 4.45205479452055  9.89830508474578 4.31506849315067  9.76271186440676 4.10958904109589  C 9.76271186440676 4.10958904109589  9.22033898305086 3.63013698630136  9.22033898305086 3.63013698630136  C 8.8135593220339 3.42465753424658  8.40677966101693 3.21917808219177  8.06779661016948 3.21917808219177  C 8.06779661016948 3.21917808219177  7.38983050847456 3.35616438356165  7.38983050847456 3.35616438356165  C 6.91525423728813 3.83561643835616  6.23728813559321 4.17808219178082  5.22033898305084 4.31506849315067  C 5.22033898305084 4.31506849315067  2.64406779661015 4.17808219178082  2.64406779661015 4.17808219178082  C 1.83050847457626 3.76712328767123  1.49152542372881 2.94520547945204  1.69491525423729 1.91780821917807  C 1.69491525423729 1.91780821917807  0.745762711864422 1.57534246575341  0.745762711864422 1.57534246575341  L 0.271186440677951 2.94520547945204  L 0.271186440677951 3.01369863013699  L 0.203389830508482 3.08219178082192  L 0 3.35616438356165  L 0.610169491525408 3.4931506849315  L 0.745762711864422 3.4931506849315  L 0.813559322033891 3.56164383561643  C 0.813559322033891 3.56164383561643  0.813559322033891 3.63013698630136  0.813559322033891 3.63013698630136  C 1.96610169491524 5.20547945205479  2.84745762711864 6.23287671232876  3.32203389830507 6.50684931506849  C 3.59322033898306 6.64383561643835  4.40677966101695 6.91780821917808  5.83050847457629 7.32876712328766  C 5.83050847457629 7.32876712328766  8.27118644067796 8.21917808219178  8.27118644067796 8.21917808219178  C 9.01694915254238 8.56164383561644  9.76271186440676 10.0684931506849  10.5762711864407 12.7397260273973  C 11.6610169491525 13.4931506849315  12.3389830508475 13.8356164383562  12.8135593220339 13.7671232876712  C 13.2881355932204 13.5616438356164  14.1016949152542 13.0821917808219  15.2542372881356 12.3287671232877  C 15.2542372881356 12.3287671232877  15.3220338983051 12.2602739726027  15.3220338983051 12.2602739726027  L 15.3898305084746 12.1917808219178  L 15.5254237288135 12.2602739726027  L 16.7457627118644 12.5342465753425  L 16.8813559322034 12.5342465753425  L 16.8813559322034 12.7397260273973  C 16.8813559322034 12.7397260273973  16.8135593220339 12.9452054794521  16.8135593220339 12.9452054794521  C 16.4067796610169 14.5890410958904  16.0677966101695 15.5479452054794  15.7966101694915 15.8219178082192  C 15.7966101694915 15.8219178082192  14.1694915254237 15.8904109589041  14.1694915254237 15.8904109589041  C 14.1694915254237 15.8904109589041  14.1694915254237 15.958904109589  14.1694915254237 15.958904109589  C 14.1694915254237 16.6438356164383  13.6949152542373 17.6712328767123  12.8135593220339 18.972602739726  C 12.5423728813559 19.3835616438356  12.4745762711864 19.7260273972603  12.4745762711864 19.9315068493151  C 12.4745762711864 19.9315068493151  14.0338983050847 21.027397260274  14.0338983050847 21.027397260274  C 14.4406779661017 21.5068493150685  14.7118644067797 21.6438356164384  15.0508474576271 21.6438356164384  C 15.0508474576271 21.6438356164384  15.3898305084746 21.6438356164384  15.3898305084746 21.6438356164384  L 15.728813559322 22.8082191780822  L 16.4745762711865 23.0821917808219  C 16.4745762711865 23.0821917808219  16.8813559322034 22.6712328767123  16.8813559322034 22.6712328767123  C 17.0847457627119 22.4657534246575  17.3559322033899 22.3287671232877  17.5593220338983 22.3972602739726  C 18.2372881355932 22.3972602739726  18.7796610169491 22.8082191780822  19.4576271186441 23.6986301369863  C 19.4576271186441 23.6986301369863  20.0677966101695 24.5205479452055  20.0677966101695 24.5205479452055  C 20.0677966101695 24.5205479452055  20.135593220339 24.4520547945205  20.135593220339 24.4520547945205  C 20.5423728813559 24.1780821917808  21.2881355932203 24.2465753424658  22.3728813559322 24.5890410958904  C 22.3728813559322 24.5890410958904  24.135593220339 25  24.135593220339 25  L 25.7627118644068 24.4520547945205  L 26.4406779661017 24.1095890410959  L 26.9152542372881 23.7671232876712  C 26.9152542372881 23.7671232876712  26.5084745762712 23.2876712328767  26.5084745762712 23.2876712328767  C 26.3728813559322 23.013698630137  26.5084745762712 22.6712328767123  26.8474576271187 22.3287671232877  C 27.2542372881356 21.986301369863  27.5254237288136 21.6438356164384  27.5254237288136 21.2328767123288  C 27.5254237288136 21.2328767123288  27.5254237288136 20.4109589041096  27.5254237288136 20.4109589041096  C 27.3898305084746 20  27.4576271186441 19.7260273972603  27.593220338983 19.5890410958904  C 27.728813559322 19.3150684931507  28.2033898305085 19.1780821917808  28.7457627118644 19.0410958904109  C 29.6271186440678 18.9041095890411  30.7118644067797 19.3150684931507  32 20.4109589041096  C 32 20.4109589041096  31.5254237288136 19.0410958904109  31.5254237288136 19.0410958904109  L 30.7796610169491 18.013698630137  L 30.6440677966102 16.7808219178082  L 29.4915254237288 16.5753424657534  L 29.4237288135593 16.5753424657534  L 29.4237288135593 16.5068493150685  L 26.3728813559322 14.7260273972603  L 24.8813559322034 14.4520547945205  L 24.8813559322034 14.1095890410959  C 24.8813559322034 14.1095890410959  24.8135593220339 12.5342465753425  24.8135593220339 12.5342465753425  C 23.7966101694915 9.65753424657534  22.9830508474576 7.87671232876712  22.3728813559322 7.26027397260274  Z " fill-rule="evenodd" />
    </mask>
  </defs>
  <g transform="matrix(1 0 0 1 -2037 -1888 )">
    <path d="M 22.3728813559322 7.26027397260274  C 21.6271186440678 6.64383561643835  21.0169491525424 5.54794520547945  20.406779661017 3.83561643835616  C 18.4406779661017 3.83561643835616  17.2881355932203 3.4931506849315  16.7457627118644 2.80821917808219  C 16.3389830508475 2.1917808219178  15.5254237288135 1.78082191780822  14.3728813559322 1.43835616438356  C 14.3728813559322 1.43835616438356  14.0338983050847 1.36986301369863  14.0338983050847 1.36986301369863  L 14.3728813559322 0.205479452054783  L 14.1694915254237 0.0684931506849276  C 14.1694915254237 0.0684931506849276  13.8305084745763 0  13.8305084745763 0  C 13.0169491525424 0.410958904109585  12.4745762711864 0.82191780821917  12.271186440678 1.36986301369863  C 12 1.91780821917807  11.6610169491525 2.3972602739726  11.2542372881356 2.73972602739726  C 10.9152542372882 3.83561643835616  10.5762711864407 4.38356164383562  10.2372881355932 4.38356164383562  C 10.0338983050848 4.45205479452055  9.89830508474578 4.31506849315067  9.76271186440676 4.10958904109589  C 9.76271186440676 4.10958904109589  9.22033898305086 3.63013698630136  9.22033898305086 3.63013698630136  C 8.8135593220339 3.42465753424658  8.40677966101693 3.21917808219177  8.06779661016948 3.21917808219177  C 8.06779661016948 3.21917808219177  7.38983050847456 3.35616438356165  7.38983050847456 3.35616438356165  C 6.91525423728813 3.83561643835616  6.23728813559321 4.17808219178082  5.22033898305084 4.31506849315067  C 5.22033898305084 4.31506849315067  2.64406779661015 4.17808219178082  2.64406779661015 4.17808219178082  C 1.83050847457626 3.76712328767123  1.49152542372881 2.94520547945204  1.69491525423729 1.91780821917807  C 1.69491525423729 1.91780821917807  0.745762711864422 1.57534246575341  0.745762711864422 1.57534246575341  L 0.271186440677951 2.94520547945204  L 0.271186440677951 3.01369863013699  L 0.203389830508482 3.08219178082192  L 0 3.35616438356165  L 0.610169491525408 3.4931506849315  L 0.745762711864422 3.4931506849315  L 0.813559322033891 3.56164383561643  C 0.813559322033891 3.56164383561643  0.813559322033891 3.63013698630136  0.813559322033891 3.63013698630136  C 1.96610169491524 5.20547945205479  2.84745762711864 6.23287671232876  3.32203389830507 6.50684931506849  C 3.59322033898306 6.64383561643835  4.40677966101695 6.91780821917808  5.83050847457629 7.32876712328766  C 5.83050847457629 7.32876712328766  8.27118644067796 8.21917808219178  8.27118644067796 8.21917808219178  C 9.01694915254238 8.56164383561644  9.76271186440676 10.0684931506849  10.5762711864407 12.7397260273973  C 11.6610169491525 13.4931506849315  12.3389830508475 13.8356164383562  12.8135593220339 13.7671232876712  C 13.2881355932204 13.5616438356164  14.1016949152542 13.0821917808219  15.2542372881356 12.3287671232877  C 15.2542372881356 12.3287671232877  15.3220338983051 12.2602739726027  15.3220338983051 12.2602739726027  L 15.3898305084746 12.1917808219178  L 15.5254237288135 12.2602739726027  L 16.7457627118644 12.5342465753425  L 16.8813559322034 12.5342465753425  L 16.8813559322034 12.7397260273973  C 16.8813559322034 12.7397260273973  16.8135593220339 12.9452054794521  16.8135593220339 12.9452054794521  C 16.4067796610169 14.5890410958904  16.0677966101695 15.5479452054794  15.7966101694915 15.8219178082192  C 15.7966101694915 15.8219178082192  14.1694915254237 15.8904109589041  14.1694915254237 15.8904109589041  C 14.1694915254237 15.8904109589041  14.1694915254237 15.958904109589  14.1694915254237 15.958904109589  C 14.1694915254237 16.6438356164383  13.6949152542373 17.6712328767123  12.8135593220339 18.972602739726  C 12.5423728813559 19.3835616438356  12.4745762711864 19.7260273972603  12.4745762711864 19.9315068493151  C 12.4745762711864 19.9315068493151  14.0338983050847 21.027397260274  14.0338983050847 21.027397260274  C 14.4406779661017 21.5068493150685  14.7118644067797 21.6438356164384  15.0508474576271 21.6438356164384  C 15.0508474576271 21.6438356164384  15.3898305084746 21.6438356164384  15.3898305084746 21.6438356164384  L 15.728813559322 22.8082191780822  L 16.4745762711865 23.0821917808219  C 16.4745762711865 23.0821917808219  16.8813559322034 22.6712328767123  16.8813559322034 22.6712328767123  C 17.0847457627119 22.4657534246575  17.3559322033899 22.3287671232877  17.5593220338983 22.3972602739726  C 18.2372881355932 22.3972602739726  18.7796610169491 22.8082191780822  19.4576271186441 23.6986301369863  C 19.4576271186441 23.6986301369863  20.0677966101695 24.5205479452055  20.0677966101695 24.5205479452055  C 20.0677966101695 24.5205479452055  20.135593220339 24.4520547945205  20.135593220339 24.4520547945205  C 20.5423728813559 24.1780821917808  21.2881355932203 24.2465753424658  22.3728813559322 24.5890410958904  C 22.3728813559322 24.5890410958904  24.135593220339 25  24.135593220339 25  L 25.7627118644068 24.4520547945205  L 26.4406779661017 24.1095890410959  L 26.9152542372881 23.7671232876712  C 26.9152542372881 23.7671232876712  26.5084745762712 23.2876712328767  26.5084745762712 23.2876712328767  C 26.3728813559322 23.013698630137  26.5084745762712 22.6712328767123  26.8474576271187 22.3287671232877  C 27.2542372881356 21.986301369863  27.5254237288136 21.6438356164384  27.5254237288136 21.2328767123288  C 27.5254237288136 21.2328767123288  27.5254237288136 20.4109589041096  27.5254237288136 20.4109589041096  C 27.3898305084746 20  27.4576271186441 19.7260273972603  27.593220338983 19.5890410958904  C 27.728813559322 19.3150684931507  28.2033898305085 19.1780821917808  28.7457627118644 19.0410958904109  C 29.6271186440678 18.9041095890411  30.7118644067797 19.3150684931507  32 20.4109589041096  C 32 20.4109589041096  31.5254237288136 19.0410958904109  31.5254237288136 19.0410958904109  L 30.7796610169491 18.013698630137  L 30.6440677966102 16.7808219178082  L 29.4915254237288 16.5753424657534  L 29.4237288135593 16.5753424657534  L 29.4237288135593 16.5068493150685  L 26.3728813559322 14.7260273972603  L 24.8813559322034 14.4520547945205  L 24.8813559322034 14.1095890410959  C 24.8813559322034 14.1095890410959  24.8135593220339 12.5342465753425  24.8135593220339 12.5342465753425  C 23.7966101694915 9.65753424657534  22.9830508474576 7.87671232876712  22.3728813559322 7.26027397260274  Z " fill-rule="nonzero" fill="#4a9eff" stroke="none" transform="matrix(1 0 0 1 2037 1888 )" />
    <path d="M 22.3728813559322 7.26027397260274  C 21.6271186440678 6.64383561643835  21.0169491525424 5.54794520547945  20.406779661017 3.83561643835616  C 18.4406779661017 3.83561643835616  17.2881355932203 3.4931506849315  16.7457627118644 2.80821917808219  C 16.3389830508475 2.1917808219178  15.5254237288135 1.78082191780822  14.3728813559322 1.43835616438356  C 14.3728813559322 1.43835616438356  14.0338983050847 1.36986301369863  14.0338983050847 1.36986301369863  L 14.3728813559322 0.205479452054783  L 14.1694915254237 0.0684931506849276  C 14.1694915254237 0.0684931506849276  13.8305084745763 0  13.8305084745763 0  C 13.0169491525424 0.410958904109585  12.4745762711864 0.82191780821917  12.271186440678 1.36986301369863  C 12 1.91780821917807  11.6610169491525 2.3972602739726  11.2542372881356 2.73972602739726  C 10.9152542372882 3.83561643835616  10.5762711864407 4.38356164383562  10.2372881355932 4.38356164383562  C 10.0338983050848 4.45205479452055  9.89830508474578 4.31506849315067  9.76271186440676 4.10958904109589  C 9.76271186440676 4.10958904109589  9.22033898305086 3.63013698630136  9.22033898305086 3.63013698630136  C 8.8135593220339 3.42465753424658  8.40677966101693 3.21917808219177  8.06779661016948 3.21917808219177  C 8.06779661016948 3.21917808219177  7.38983050847456 3.35616438356165  7.38983050847456 3.35616438356165  C 6.91525423728813 3.83561643835616  6.23728813559321 4.17808219178082  5.22033898305084 4.31506849315067  C 5.22033898305084 4.31506849315067  2.64406779661015 4.17808219178082  2.64406779661015 4.17808219178082  C 1.83050847457626 3.76712328767123  1.49152542372881 2.94520547945204  1.69491525423729 1.91780821917807  C 1.69491525423729 1.91780821917807  0.745762711864422 1.57534246575341  0.745762711864422 1.57534246575341  L 0.271186440677951 2.94520547945204  L 0.271186440677951 3.01369863013699  L 0.203389830508482 3.08219178082192  L 0 3.35616438356165  L 0.610169491525408 3.4931506849315  L 0.745762711864422 3.4931506849315  L 0.813559322033891 3.56164383561643  C 0.813559322033891 3.56164383561643  0.813559322033891 3.63013698630136  0.813559322033891 3.63013698630136  C 1.96610169491524 5.20547945205479  2.84745762711864 6.23287671232876  3.32203389830507 6.50684931506849  C 3.59322033898306 6.64383561643835  4.40677966101695 6.91780821917808  5.83050847457629 7.32876712328766  C 5.83050847457629 7.32876712328766  8.27118644067796 8.21917808219178  8.27118644067796 8.21917808219178  C 9.01694915254238 8.56164383561644  9.76271186440676 10.0684931506849  10.5762711864407 12.7397260273973  C 11.6610169491525 13.4931506849315  12.3389830508475 13.8356164383562  12.8135593220339 13.7671232876712  C 13.2881355932204 13.5616438356164  14.1016949152542 13.0821917808219  15.2542372881356 12.3287671232877  C 15.2542372881356 12.3287671232877  15.3220338983051 12.2602739726027  15.3220338983051 12.2602739726027  L 15.3898305084746 12.1917808219178  L 15.5254237288135 12.2602739726027  L 16.7457627118644 12.5342465753425  L 16.8813559322034 12.5342465753425  L 16.8813559322034 12.7397260273973  C 16.8813559322034 12.7397260273973  16.8135593220339 12.9452054794521  16.8135593220339 12.9452054794521  C 16.4067796610169 14.5890410958904  16.0677966101695 15.5479452054794  15.7966101694915 15.8219178082192  C 15.7966101694915 15.8219178082192  14.1694915254237 15.8904109589041  14.1694915254237 15.8904109589041  C 14.1694915254237 15.8904109589041  14.1694915254237 15.958904109589  14.1694915254237 15.958904109589  C 14.1694915254237 16.6438356164383  13.6949152542373 17.6712328767123  12.8135593220339 18.972602739726  C 12.5423728813559 19.3835616438356  12.4745762711864 19.7260273972603  12.4745762711864 19.9315068493151  C 12.4745762711864 19.9315068493151  14.0338983050847 21.027397260274  14.0338983050847 21.027397260274  C 14.4406779661017 21.5068493150685  14.7118644067797 21.6438356164384  15.0508474576271 21.6438356164384  C 15.0508474576271 21.6438356164384  15.3898305084746 21.6438356164384  15.3898305084746 21.6438356164384  L 15.728813559322 22.8082191780822  L 16.4745762711865 23.0821917808219  C 16.4745762711865 23.0821917808219  16.8813559322034 22.6712328767123  16.8813559322034 22.6712328767123  C 17.0847457627119 22.4657534246575  17.3559322033899 22.3287671232877  17.5593220338983 22.3972602739726  C 18.2372881355932 22.3972602739726  18.7796610169491 22.8082191780822  19.4576271186441 23.6986301369863  C 19.4576271186441 23.6986301369863  20.0677966101695 24.5205479452055  20.0677966101695 24.5205479452055  C 20.0677966101695 24.5205479452055  20.135593220339 24.4520547945205  20.135593220339 24.4520547945205  C 20.5423728813559 24.1780821917808  21.2881355932203 24.2465753424658  22.3728813559322 24.5890410958904  C 22.3728813559322 24.5890410958904  24.135593220339 25  24.135593220339 25  L 25.7627118644068 24.4520547945205  L 26.4406779661017 24.1095890410959  L 26.9152542372881 23.7671232876712  C 26.9152542372881 23.7671232876712  26.5084745762712 23.2876712328767  26.5084745762712 23.2876712328767  C 26.3728813559322 23.013698630137  26.5084745762712 22.6712328767123  26.8474576271187 22.3287671232877  C 27.2542372881356 21.986301369863  27.5254237288136 21.6438356164384  27.5254237288136 21.2328767123288  C 27.5254237288136 21.2328767123288  27.5254237288136 20.4109589041096  27.5254237288136 20.4109589041096  C 27.3898305084746 20  27.4576271186441 19.7260273972603  27.593220338983 19.5890410958904  C 27.728813559322 19.3150684931507  28.2033898305085 19.1780821917808  28.7457627118644 19.0410958904109  C 29.6271186440678 18.9041095890411  30.7118644067797 19.3150684931507  32 20.4109589041096  C 32 20.4109589041096  31.5254237288136 19.0410958904109  31.5254237288136 19.0410958904109  L 30.7796610169491 18.013698630137  L 30.6440677966102 16.7808219178082  L 29.4915254237288 16.5753424657534  L 29.4237288135593 16.5753424657534  L 29.4237288135593 16.5068493150685  L 26.3728813559322 14.7260273972603  L 24.8813559322034 14.4520547945205  L 24.8813559322034 14.1095890410959  C 24.8813559322034 14.1095890410959  24.8135593220339 12.5342465753425  24.8135593220339 12.5342465753425  C 23.7966101694915 9.65753424657534  22.9830508474576 7.87671232876712  22.3728813559322 7.26027397260274  Z " stroke-width="2" stroke="#ffffff" fill="none" transform="matrix(1 0 0 1 2037 1888 )" mask="url(#clip832)" />
  </g>
</svg>