<?xml version="1.0" encoding="utf-8"?>
<svg version="1.1" xmlns:xlink="http://www.w3.org/1999/xlink" width="14px" height="12px" xmlns="http://www.w3.org/2000/svg">
  <defs>
    <mask fill="white" id="clip1422">
      <path d="M 10.0152912862711 1.17241379310344  L 6.23803411046368 1.17241379310344  L 6.02818648958548 1.51724137931034  L 6.02818648958548 1.58620689655173  L 5.95823728262611 1.72413793103448  L 3.09031979729081 2.41379310344827  L 3.2302182112096 2.75862068965517  C 3.2302182112096 2.75862068965517  4.13955790168177 3.79310344827586  4.13955790168177 3.79310344827586  C 4.06960869472235 3.79310344827586  3.92971028080357 3.86206896551725  3.85976107384419 3.86206896551725  C 3.85976107384419 3.86206896551725  2.53072614161562 4.55172413793104  2.53072614161562 4.55172413793104  C 2.53072614161562 4.55172413793104  0.43224993283371 6.13793103448277  0.43224993283371 6.13793103448277  C -0.267242136760261 6.96551724137931  -0.127343722841455 8.48275862068965  0.921894381549482 10.7586206896552  C 0.921894381549482 10.7586206896552  3.0203705903314 10.9655172413793  3.0203705903314 10.9655172413793  L 3.09031979729081 10.9655172413793  L 3.09031979729081 11.0344827586207  L 5.18879600607272 12  C 5.18879600607272 12  7.42717062877342 11.6551724137931  7.42717062877342 11.6551724137931  C 8.33651031924559 11.448275862069  9.38574842363655 10.6206896551724  10.7147833558651 9.03448275862069  C 10.7147833558651 9.03448275862069  10.7847325628245 9.03448275862069  10.7847325628245 9.03448275862069  L 10.9246309767433 8.89655172413794  L 11.9039198741749 8.6206896551724  L 11.6241230463373 5.72413793103448  L 11.6241230463373 5.58620689655173  L 12.8832087716064 3.79310344827586  L 12.8832087716064 3.7241379310345  L 12.9531579785658 3.7241379310345  C 12.9531579785658 3.7241379310345  13.9324468759974 2.96551724137931  13.9324468759974 2.96551724137931  C 14.0723452899162 2.13793103448277  14.0023960829568 1.37931034482758  13.6526500481598 0.758620689655187  C 13.3728532203222 0.206896551724146  13.0231071855252 0  12.6733611507282 0  C 12.6733611507282 0  12.813259564647 1.03448275862069  12.813259564647 1.03448275862069  L 10.9246309767433 0.689655172413792  L 10.0852404932305 1.17241379310344  L 10.0152912862711 1.17241379310344  Z " fill-rule="evenodd" />
    </mask>
  </defs>
  <g transform="matrix(1 0 0 1 -2000 -1987 )">
    <path d="M 10.0152912862711 1.17241379310344  L 6.23803411046368 1.17241379310344  L 6.02818648958548 1.51724137931034  L 6.02818648958548 1.58620689655173  L 5.95823728262611 1.72413793103448  L 3.09031979729081 2.41379310344827  L 3.2302182112096 2.75862068965517  C 3.2302182112096 2.75862068965517  4.13955790168177 3.79310344827586  4.13955790168177 3.79310344827586  C 4.06960869472235 3.79310344827586  3.92971028080357 3.86206896551725  3.85976107384419 3.86206896551725  C 3.85976107384419 3.86206896551725  2.53072614161562 4.55172413793104  2.53072614161562 4.55172413793104  C 2.53072614161562 4.55172413793104  0.43224993283371 6.13793103448277  0.43224993283371 6.13793103448277  C -0.267242136760261 6.96551724137931  -0.127343722841455 8.48275862068965  0.921894381549482 10.7586206896552  C 0.921894381549482 10.7586206896552  3.0203705903314 10.9655172413793  3.0203705903314 10.9655172413793  L 3.09031979729081 10.9655172413793  L 3.09031979729081 11.0344827586207  L 5.18879600607272 12  C 5.18879600607272 12  7.42717062877342 11.6551724137931  7.42717062877342 11.6551724137931  C 8.33651031924559 11.448275862069  9.38574842363655 10.6206896551724  10.7147833558651 9.03448275862069  C 10.7147833558651 9.03448275862069  10.7847325628245 9.03448275862069  10.7847325628245 9.03448275862069  L 10.9246309767433 8.89655172413794  L 11.9039198741749 8.6206896551724  L 11.6241230463373 5.72413793103448  L 11.6241230463373 5.58620689655173  L 12.8832087716064 3.79310344827586  L 12.8832087716064 3.7241379310345  L 12.9531579785658 3.7241379310345  C 12.9531579785658 3.7241379310345  13.9324468759974 2.96551724137931  13.9324468759974 2.96551724137931  C 14.0723452899162 2.13793103448277  14.0023960829568 1.37931034482758  13.6526500481598 0.758620689655187  C 13.3728532203222 0.206896551724146  13.0231071855252 0  12.6733611507282 0  C 12.6733611507282 0  12.813259564647 1.03448275862069  12.813259564647 1.03448275862069  L 10.9246309767433 0.689655172413792  L 10.0852404932305 1.17241379310344  L 10.0152912862711 1.17241379310344  Z " fill-rule="nonzero" fill="#4a9eff" stroke="none" transform="matrix(1 0 0 1 2000 1987 )" />
    <path d="M 10.0152912862711 1.17241379310344  L 6.23803411046368 1.17241379310344  L 6.02818648958548 1.51724137931034  L 6.02818648958548 1.58620689655173  L 5.95823728262611 1.72413793103448  L 3.09031979729081 2.41379310344827  L 3.2302182112096 2.75862068965517  C 3.2302182112096 2.75862068965517  4.13955790168177 3.79310344827586  4.13955790168177 3.79310344827586  C 4.06960869472235 3.79310344827586  3.92971028080357 3.86206896551725  3.85976107384419 3.86206896551725  C 3.85976107384419 3.86206896551725  2.53072614161562 4.55172413793104  2.53072614161562 4.55172413793104  C 2.53072614161562 4.55172413793104  0.43224993283371 6.13793103448277  0.43224993283371 6.13793103448277  C -0.267242136760261 6.96551724137931  -0.127343722841455 8.48275862068965  0.921894381549482 10.7586206896552  C 0.921894381549482 10.7586206896552  3.0203705903314 10.9655172413793  3.0203705903314 10.9655172413793  L 3.09031979729081 10.9655172413793  L 3.09031979729081 11.0344827586207  L 5.18879600607272 12  C 5.18879600607272 12  7.42717062877342 11.6551724137931  7.42717062877342 11.6551724137931  C 8.33651031924559 11.448275862069  9.38574842363655 10.6206896551724  10.7147833558651 9.03448275862069  C 10.7147833558651 9.03448275862069  10.7847325628245 9.03448275862069  10.7847325628245 9.03448275862069  L 10.9246309767433 8.89655172413794  L 11.9039198741749 8.6206896551724  L 11.6241230463373 5.72413793103448  L 11.6241230463373 5.58620689655173  L 12.8832087716064 3.79310344827586  L 12.8832087716064 3.7241379310345  L 12.9531579785658 3.7241379310345  C 12.9531579785658 3.7241379310345  13.9324468759974 2.96551724137931  13.9324468759974 2.96551724137931  C 14.0723452899162 2.13793103448277  14.0023960829568 1.37931034482758  13.6526500481598 0.758620689655187  C 13.3728532203222 0.206896551724146  13.0231071855252 0  12.6733611507282 0  C 12.6733611507282 0  12.813259564647 1.03448275862069  12.813259564647 1.03448275862069  L 10.9246309767433 0.689655172413792  L 10.0852404932305 1.17241379310344  L 10.0152912862711 1.17241379310344  Z " stroke-width="2" stroke="#ffffff" fill="none" transform="matrix(1 0 0 1 2000 1987 )" mask="url(#clip1422)" />
  </g>
</svg>