<?xml version="1.0" encoding="utf-8"?>
<svg version="1.1" xmlns:xlink="http://www.w3.org/1999/xlink" width="48px" height="51px" xmlns="http://www.w3.org/2000/svg">
  <defs>
    <mask fill="white" id="clip1057">
      <path d="M 0.878873239436628 30.4898785425101  L 0.270422535211271 31.246963562753  C 0.270422535211271 31.246963562753  0 32.1417004048583  0 32.1417004048583  C 0.405633802816917 32.1417004048583  0.94647887323944 31.8663967611336  1.48732394366198 31.4534412955465  C 1.48732394366198 31.4534412955465  1.5549295774648 31.3846153846154  1.5549295774648 31.3846153846154  L 1.69014084507042 31.3846153846154  L 4.3943661971831 31.0404858299595  L 6.15211267605635 30.1457489878543  L 6.82816901408452 31.1093117408907  L 6.96338028169015 31.1781376518219  L 6.15211267605635 32.4858299595142  L 7.09859154929578 33.4493927125506  L 7.09859154929578 33.5182186234818  L 7.09859154929578 33.7246963562753  L 6.4225352112676 36.6153846153846  L 8.18028169014086 37.9230769230769  L 11.3577464788732 38.0607287449393  C 11.3577464788732 38.0607287449393  10.8845070422535 38.6801619433198  10.8845070422535 38.6801619433198  C 8.85633802816903 41.2267206477733  7.90985915492959 42.7408906882591  7.9774647887324 43.2226720647773  C 7.9774647887324 43.2226720647773  9.19436619718311 43.497975708502  9.19436619718311 43.497975708502  C 10.8169014084507 43.6356275303644  11.7633802816901 44.1174089068826  12.1014084507042 44.7368421052632  C 12.5070422535211 45.5627530364372  12.912676056338 46.3886639676113  13.2507042253521 47.3522267206478  C 13.2507042253521 47.3522267206478  15.0760563380282 48.3846153846154  15.0760563380282 48.3846153846154  L 16.2253521126761 48.5910931174089  L 18.5915492957746 46.5263157894737  L 19.8084507042254 48.3846153846154  L 19.8084507042254 48.4534412955465  L 19.8760563380282 48.5222672064777  L 20.2816901408451 50.2429149797571  L 21.2957746478873 50.4493927125506  L 22.8507042253521 51  L 23.256338028169 50.8623481781376  L 23.256338028169 50.7935222672065  L 22.9859154929577 49.0040485829959  L 22.9183098591549 48.9352226720648  L 22.0394366197183 44.8744939271255  L 22.0394366197183 44.7368421052632  L 22.5802816901409 41.914979757085  L 22.7154929577465 41.9838056680162  L 22.9183098591549 41.9838056680162  L 24.743661971831 42.1214574898785  L 27.0422535211268 40.4008097165992  C 27.0422535211268 40.4008097165992  27.2450704225352 40.5384615384615  27.2450704225352 40.5384615384615  C 28.4619718309859 41.502024291498  29.2732394366197 42.2591093117409  29.6788732394366 42.8097165991903  C 30.0845070422535 42.6720647773279  30.8281690140845 41.914979757085  31.8422535211268 40.7449392712551  C 31.8422535211268 40.7449392712551  31.9098591549296 40.6761133603239  31.9098591549296 40.6761133603239  L 32.0450704225352 40.5384615384615  L 35.4253521126761 41.4331983805668  L 36.912676056338 40.1943319838057  L 36.9802816901409 40.1255060728745  L 37.0478873239437 40.0566801619433  L 37.1154929577465 40.0566801619433  L 37.1830985915493 40.1255060728745  L 38.6028169014085 40.4008097165992  L 43.2 36.2712550607287  L 44.6197183098592 36.6842105263158  L 44.687323943662 36.7530364372469  L 44.7549295774648 36.8218623481781  L 44.8225352112676 36.8906882591093  L 45.1605633802817 37.5101214574899  L 45.4985915492958 37.0971659919028  L 45.5661971830986 37.0971659919028  L 45.5661971830986 37.0283400809717  L 45.6338028169014 37.0283400809717  L 46.9859154929577 36.2712550607287  L 48 35.3076923076923  L 47.7295774647887 33.1740890688259  L 47.5267605633803 32.8987854251012  C 47.5267605633803 32.8987854251012  46.2422535211268 33.4493927125506  46.2422535211268 33.4493927125506  C 45.8366197183099 33.587044534413  45.4985915492958 33.7246963562753  45.0253521126761 33.7246963562753  C 45.0253521126761 33.7246963562753  43.5380281690141 33.7246963562753  43.5380281690141 33.7246963562753  C 43.0647887323944 33.6558704453441  42.7943661971831 33.5182186234818  42.5915492957746 33.2429149797571  C 42.5915492957746 33.2429149797571  42.456338028169 31.0404858299595  42.456338028169 31.0404858299595  C 41.9830985915493 30.7651821862348  41.7802816901409 30.6275303643725  41.5774647887324 30.6275303643725  C 41.5774647887324 30.6275303643725  41.2394366197183 30.7651821862348  41.2394366197183 30.7651821862348  L 40.7661971830986 31.0404858299595  L 39.8197183098592 31.246963562753  L 39.5492957746479 31.246963562753  L 39.4816901408451 31.1093117408907  L 38.9408450704226 30.1457489878543  L 38.8732394366197 29.251012145749  L 39.4140845070423 26.6356275303644  L 39.4816901408451 26.6356275303644  L 39.4816901408451 26.5668016194332  L 40.0901408450704 25.2591093117409  L 38.1971830985916 23.5384615384615  L 38.1295774647887 23.4696356275304  L 38.0619718309859 23.4008097165992  L 38.0619718309859 21.4048582995952  L 38.1295774647887 21.336032388664  L 39.2112676056338 18.1700404858299  L 38.5352112676056 16.4493927125506  L 37.9267605633803 16.3117408906882  L 37.1830985915493 16.3805668016194  L 36.4394366197183 17.5506072874494  L 35.4929577464789 16.8623481781377  L 34.5464788732395 16.3117408906882  L 33.8028169014084 14.3846153846154  L 33.5323943661972 13.0080971659919  L 33.5323943661972 12.8704453441296  L 33.4647887323944 12.8016194331984  L 33.6676056338028 12.663967611336  L 34.5464788732395 11.4251012145749  L 34.7492957746479 11.2874493927126  L 34.8169014084507 11.2874493927126  L 35.4929577464789 11.1497975708502  L 36.2366197183099 10.9433198380567  L 39.7521126760563 10.8056680161943  L 39.8197183098592 10.8056680161943  L 40.2929577464789 11.0121457489879  L 40.4281690140845 11.080971659919  L 40.9690140845071 11.2874493927126  L 41.9154929577465 10.8744939271255  L 42.7267605633803 10.2550607287449  L 43.1323943661972 9.5668016194332  L 43.2 9.22267206477733  L 43.1323943661972 7.70850202429151  L 42.3887323943662 7.57085020242915  C 42.3887323943662 7.57085020242915  40.9690140845071 8.05263157894738  40.9690140845071 8.05263157894738  C 40.5633802816901 8.53441295546559  40.0901408450704 8.87854251012146  39.6169014084507 8.87854251012146  C 39.143661971831 8.87854251012146  38.7380281690141 8.46558704453442  38.3323943661972 7.70850202429151  C 38.3323943661972 7.70850202429151  38.2647887323944 7.70850202429151  38.2647887323944 7.70850202429151  L 38.2647887323944 7.63967611336032  L 38.1971830985916 6.6761133603239  L 38.1971830985916 6.53846153846154  L 38.2647887323944 5.64372469635629  L 37.5211267605634 3.78542510121457  L 36.1014084507042 4.19838056680161  L 35.4929577464789 4.74898785425102  L 35.6957746478873 6.81376518218624  L 33.4647887323944 5.78137651821863  L 34.0056338028169 7.02024291497977  L 34.0732394366197 7.08906882591094  L 34.0732394366197 7.22672064777328  L 33.8704225352113 8.60323886639676  L 33.8704225352113 8.74089068825912  L 33.8028169014084 8.74089068825912  L 32.5183098591549 10.5991902834008  L 30.4225352112676 11.9068825910931  C 30.4225352112676 11.9068825910931  30.2197183098592 13.1457489878542  30.2197183098592 13.1457489878542  C 30.1521126760564 13.3522267206478  30.4225352112676 13.9028340080972  30.7605633802817 14.5910931174089  C 30.7605633802817 14.5910931174089  30.8281690140845 14.6599190283401  30.8281690140845 14.6599190283401  L 30.8281690140845 14.7287449392712  L 30.9633802816901 16.5182186234818  L 30.9633802816901 16.7246963562753  L 30.8957746478873 16.7935222672065  L 30.0845070422535 17.8947368421053  L 30.0169014084507 17.9635627530365  L 29.9492957746479 17.9635627530365  L 29.3408450704225 18.3765182186235  L 29.2732394366197 18.3765182186235  L 29.2056338028169 18.3765182186235  L 29.1380281690141 18.3765182186235  L 29.0704225352113 18.3765182186235  C 29.0704225352113 18.3765182186235  27.5154929577465 18.0323886639676  27.5154929577465 18.0323886639676  C 27.2450704225352 18.0323886639676  26.9070422535211 18.1700404858299  26.569014084507 18.4453441295547  C 26.569014084507 18.4453441295547  25.8929577464789 19.2024291497976  25.8929577464789 19.2024291497976  C 25.8929577464789 19.2024291497976  25.3521126760563 19.8906882591093  25.3521126760563 19.8906882591093  C 25.0140845070423 20.5101214574899  24.5408450704225 20.6477732793522  23.7971830985916 20.5101214574899  C 23.3239436619718 20.4412955465587  23.1887323943662 19.9595141700405  23.3239436619718 19.3400809716599  C 23.3239436619718 19.3400809716599  23.3239436619718 18.8582995951417  23.3239436619718 18.8582995951417  L 23.256338028169 18.3765182186235  C 23.256338028169 18.3765182186235  22.9859154929577 18.7206477732793  22.9859154929577 18.7206477732793  C 22.7830985915493 18.9959514170041  22.5802816901409 19.0647773279352  22.3098591549296 19.0647773279352  C 22.0394366197183 18.9959514170041  21.8366197183099 18.7206477732793  21.7014084507042 18.2388663967611  C 21.7014084507042 18.2388663967611  21.7014084507042 18.1700404858299  21.7014084507042 18.1700404858299  L 21.5661971830986 16.587044534413  L 21.2281690140845 15.0728744939271  L 20.5521126760563 14.3846153846154  L 20.4845070422535 14.3157894736842  L 19.0647887323944 11.0121457489879  L 18.9971830985916 10.9433198380567  L 18.5915492957746 9.97975708502024  L 18.5915492957746 9.91093117408907  L 18.5239436619718 9.91093117408907  L 18.5239436619718 9.8421052631579  L 18.2535211267606 8.05263157894738  L 18.0507042253521 7.77732793522268  C 18.0507042253521 7.77732793522268  17.7802816901409 7.98380566801619  17.7802816901409 7.98380566801619  C 17.3070422535211 8.53441295546559  16.9690140845071 8.87854251012146  16.8338028169014 8.87854251012146  C 16.630985915493 8.87854251012146  16.2929577464789 8.60323886639676  15.7521126760563 8.19028340080972  C 15.7521126760563 8.19028340080972  14.7380281690141 7.70850202429151  14.7380281690141 7.70850202429151  L 14.6028169014085 7.63967611336032  L 14.5352112676056 7.57085020242915  L 14.5352112676056 7.50202429149798  L 14.4676056338028 7.36437246963564  L 14.4 5.98785425101216  L 14.1971830985915 4.95546558704455  L 13.656338028169 3.57894736842106  C 13.656338028169 3.57894736842106  13.1154929577465 3.57894736842106  13.1154929577465 3.57894736842106  C 13.1830985915493 4.12955465587044  13.1154929577465 4.61133603238867  12.9802816901409 4.95546558704455  C 12.8450704225352 5.36842105263159  12.574647887324 5.64372469635629  12.169014084507 5.98785425101216  C 12.0338028169014 6.46963562753037  11.830985915493 6.81376518218624  11.5605633802817 7.08906882591094  C 11.1549295774648 7.50202429149798  10.8169014084507 7.50202429149798  10.4112676056338 7.22672064777328  C 10.4112676056338 7.22672064777328  10.2084507042254 7.15789473684211  10.2084507042254 7.15789473684211  C 9.80281690140845 7.02024291497977  9.73521126760564 6.53846153846154  9.80281690140845 5.64372469635629  C 9.80281690140845 5.64372469635629  9.80281690140845 5.29959514170042  9.80281690140845 5.29959514170042  C 9.80281690140845 5.29959514170042  8.92394366197184 4.74898785425102  8.92394366197184 4.74898785425102  C 8.58591549295776 4.61133603238867  8.3830985915493 4.19838056680161  8.31549295774649 3.57894736842106  C 8.31549295774649 3.57894736842106  8.65352112676057 0.48178137651823  8.65352112676057 0.48178137651823  L 8.51830985915495 0  L 7.43661971830986 1.23886639676114  L 6.69295774647888 1.78947368421052  C 6.69295774647888 1.78947368421052  6.49014084507044 2.27125506072875  6.49014084507044 2.27125506072875  C 6.76056338028169 2.89068825910932  6.89577464788734 3.37246963562753  6.89577464788734 3.7165991902834  C 6.89577464788734 4.40485829959515  6.55774647887325 4.95546558704455  5.94929577464789 5.16194331983806  C 5.94929577464789 5.16194331983806  4.73239436619718 5.64372469635629  4.73239436619718 5.64372469635629  L 4.3943661971831 5.8502024291498  L 4.32676056338028 6.33198380566803  C 4.32676056338028 6.33198380566803  4.32676056338028 8.25910931174089  4.32676056338028 8.25910931174089  C 4.3943661971831 8.87854251012146  4.46197183098593 9.22267206477733  4.66478873239437 9.22267206477733  C 5.07042253521127 9.42914979757086  5.543661971831 9.42914979757086  5.94929577464789 9.08502024291499  C 5.94929577464789 9.08502024291499  6.35492957746479 8.87854251012146  6.35492957746479 8.87854251012146  L 7.63943661971832 11.9068825910931  L 7.63943661971832 11.9757085020243  C 7.63943661971832 11.9757085020243  7.63943661971832 12.1133603238866  7.63943661971832 12.1133603238866  C 7.16619718309861 17.5506072874494  6.69295774647888 20.6477732793522  6.08450704225352 21.4736842105263  C 5.81408450704227 21.748987854251  5.61126760563381 21.8866396761134  5.20563380281691 21.9554655870445  C 4.73239436619718 21.9554655870445  4.3943661971831 21.8866396761134  3.92112676056339 21.6113360323886  C 2.16338028169015 25.1902834008097  1.01408450704225 27.0485829959514  0.47323943661973 27.3238866396761  C 0.47323943661973 27.3238866396761  0.540845070422543 27.3238866396761  0.540845070422543 27.3238866396761  C 0.270422535211271 27.3927125506073  0.135211267605645 28.2874493927126  0.202816901408458 29.8704453441295  C 0.202816901408458 29.8704453441295  0.608450704225356 30.2145748987854  0.608450704225356 30.2145748987854  L 0.743661971831001 30.3522267206478  L 0.878873239436628 30.4898785425101  Z " fill-rule="evenodd" />
    </mask>
  </defs>
  <g transform="matrix(1 0 0 1 -1936 -1931 )">
    <path d="M 0.878873239436628 30.4898785425101  L 0.270422535211271 31.246963562753  C 0.270422535211271 31.246963562753  0 32.1417004048583  0 32.1417004048583  C 0.405633802816917 32.1417004048583  0.94647887323944 31.8663967611336  1.48732394366198 31.4534412955465  C 1.48732394366198 31.4534412955465  1.5549295774648 31.3846153846154  1.5549295774648 31.3846153846154  L 1.69014084507042 31.3846153846154  L 4.3943661971831 31.0404858299595  L 6.15211267605635 30.1457489878543  L 6.82816901408452 31.1093117408907  L 6.96338028169015 31.1781376518219  L 6.15211267605635 32.4858299595142  L 7.09859154929578 33.4493927125506  L 7.09859154929578 33.5182186234818  L 7.09859154929578 33.7246963562753  L 6.4225352112676 36.6153846153846  L 8.18028169014086 37.9230769230769  L 11.3577464788732 38.0607287449393  C 11.3577464788732 38.0607287449393  10.8845070422535 38.6801619433198  10.8845070422535 38.6801619433198  C 8.85633802816903 41.2267206477733  7.90985915492959 42.7408906882591  7.9774647887324 43.2226720647773  C 7.9774647887324 43.2226720647773  9.19436619718311 43.497975708502  9.19436619718311 43.497975708502  C 10.8169014084507 43.6356275303644  11.7633802816901 44.1174089068826  12.1014084507042 44.7368421052632  C 12.5070422535211 45.5627530364372  12.912676056338 46.3886639676113  13.2507042253521 47.3522267206478  C 13.2507042253521 47.3522267206478  15.0760563380282 48.3846153846154  15.0760563380282 48.3846153846154  L 16.2253521126761 48.5910931174089  L 18.5915492957746 46.5263157894737  L 19.8084507042254 48.3846153846154  L 19.8084507042254 48.4534412955465  L 19.8760563380282 48.5222672064777  L 20.2816901408451 50.2429149797571  L 21.2957746478873 50.4493927125506  L 22.8507042253521 51  L 23.256338028169 50.8623481781376  L 23.256338028169 50.7935222672065  L 22.9859154929577 49.0040485829959  L 22.9183098591549 48.9352226720648  L 22.0394366197183 44.8744939271255  L 22.0394366197183 44.7368421052632  L 22.5802816901409 41.914979757085  L 22.7154929577465 41.9838056680162  L 22.9183098591549 41.9838056680162  L 24.743661971831 42.1214574898785  L 27.0422535211268 40.4008097165992  C 27.0422535211268 40.4008097165992  27.2450704225352 40.5384615384615  27.2450704225352 40.5384615384615  C 28.4619718309859 41.502024291498  29.2732394366197 42.2591093117409  29.6788732394366 42.8097165991903  C 30.0845070422535 42.6720647773279  30.8281690140845 41.914979757085  31.8422535211268 40.7449392712551  C 31.8422535211268 40.7449392712551  31.9098591549296 40.6761133603239  31.9098591549296 40.6761133603239  L 32.0450704225352 40.5384615384615  L 35.4253521126761 41.4331983805668  L 36.912676056338 40.1943319838057  L 36.9802816901409 40.1255060728745  L 37.0478873239437 40.0566801619433  L 37.1154929577465 40.0566801619433  L 37.1830985915493 40.1255060728745  L 38.6028169014085 40.4008097165992  L 43.2 36.2712550607287  L 44.6197183098592 36.6842105263158  L 44.687323943662 36.7530364372469  L 44.7549295774648 36.8218623481781  L 44.8225352112676 36.8906882591093  L 45.1605633802817 37.5101214574899  L 45.4985915492958 37.0971659919028  L 45.5661971830986 37.0971659919028  L 45.5661971830986 37.0283400809717  L 45.6338028169014 37.0283400809717  L 46.9859154929577 36.2712550607287  L 48 35.3076923076923  L 47.7295774647887 33.1740890688259  L 47.5267605633803 32.8987854251012  C 47.5267605633803 32.8987854251012  46.2422535211268 33.4493927125506  46.2422535211268 33.4493927125506  C 45.8366197183099 33.587044534413  45.4985915492958 33.7246963562753  45.0253521126761 33.7246963562753  C 45.0253521126761 33.7246963562753  43.5380281690141 33.7246963562753  43.5380281690141 33.7246963562753  C 43.0647887323944 33.6558704453441  42.7943661971831 33.5182186234818  42.5915492957746 33.2429149797571  C 42.5915492957746 33.2429149797571  42.456338028169 31.0404858299595  42.456338028169 31.0404858299595  C 41.9830985915493 30.7651821862348  41.7802816901409 30.6275303643725  41.5774647887324 30.6275303643725  C 41.5774647887324 30.6275303643725  41.2394366197183 30.7651821862348  41.2394366197183 30.7651821862348  L 40.7661971830986 31.0404858299595  L 39.8197183098592 31.246963562753  L 39.5492957746479 31.246963562753  L 39.4816901408451 31.1093117408907  L 38.9408450704226 30.1457489878543  L 38.8732394366197 29.251012145749  L 39.4140845070423 26.6356275303644  L 39.4816901408451 26.6356275303644  L 39.4816901408451 26.5668016194332  L 40.0901408450704 25.2591093117409  L 38.1971830985916 23.5384615384615  L 38.1295774647887 23.4696356275304  L 38.0619718309859 23.4008097165992  L 38.0619718309859 21.4048582995952  L 38.1295774647887 21.336032388664  L 39.2112676056338 18.1700404858299  L 38.5352112676056 16.4493927125506  L 37.9267605633803 16.3117408906882  L 37.1830985915493 16.3805668016194  L 36.4394366197183 17.5506072874494  L 35.4929577464789 16.8623481781377  L 34.5464788732395 16.3117408906882  L 33.8028169014084 14.3846153846154  L 33.5323943661972 13.0080971659919  L 33.5323943661972 12.8704453441296  L 33.4647887323944 12.8016194331984  L 33.6676056338028 12.663967611336  L 34.5464788732395 11.4251012145749  L 34.7492957746479 11.2874493927126  L 34.8169014084507 11.2874493927126  L 35.4929577464789 11.1497975708502  L 36.2366197183099 10.9433198380567  L 39.7521126760563 10.8056680161943  L 39.8197183098592 10.8056680161943  L 40.2929577464789 11.0121457489879  L 40.4281690140845 11.080971659919  L 40.9690140845071 11.2874493927126  L 41.9154929577465 10.8744939271255  L 42.7267605633803 10.2550607287449  L 43.1323943661972 9.5668016194332  L 43.2 9.22267206477733  L 43.1323943661972 7.70850202429151  L 42.3887323943662 7.57085020242915  C 42.3887323943662 7.57085020242915  40.9690140845071 8.05263157894738  40.9690140845071 8.05263157894738  C 40.5633802816901 8.53441295546559  40.0901408450704 8.87854251012146  39.6169014084507 8.87854251012146  C 39.143661971831 8.87854251012146  38.7380281690141 8.46558704453442  38.3323943661972 7.70850202429151  C 38.3323943661972 7.70850202429151  38.2647887323944 7.70850202429151  38.2647887323944 7.70850202429151  L 38.2647887323944 7.63967611336032  L 38.1971830985916 6.6761133603239  L 38.1971830985916 6.53846153846154  L 38.2647887323944 5.64372469635629  L 37.5211267605634 3.78542510121457  L 36.1014084507042 4.19838056680161  L 35.4929577464789 4.74898785425102  L 35.6957746478873 6.81376518218624  L 33.4647887323944 5.78137651821863  L 34.0056338028169 7.02024291497977  L 34.0732394366197 7.08906882591094  L 34.0732394366197 7.22672064777328  L 33.8704225352113 8.60323886639676  L 33.8704225352113 8.74089068825912  L 33.8028169014084 8.74089068825912  L 32.5183098591549 10.5991902834008  L 30.4225352112676 11.9068825910931  C 30.4225352112676 11.9068825910931  30.2197183098592 13.1457489878542  30.2197183098592 13.1457489878542  C 30.1521126760564 13.3522267206478  30.4225352112676 13.9028340080972  30.7605633802817 14.5910931174089  C 30.7605633802817 14.5910931174089  30.8281690140845 14.6599190283401  30.8281690140845 14.6599190283401  L 30.8281690140845 14.7287449392712  L 30.9633802816901 16.5182186234818  L 30.9633802816901 16.7246963562753  L 30.8957746478873 16.7935222672065  L 30.0845070422535 17.8947368421053  L 30.0169014084507 17.9635627530365  L 29.9492957746479 17.9635627530365  L 29.3408450704225 18.3765182186235  L 29.2732394366197 18.3765182186235  L 29.2056338028169 18.3765182186235  L 29.1380281690141 18.3765182186235  L 29.0704225352113 18.3765182186235  C 29.0704225352113 18.3765182186235  27.5154929577465 18.0323886639676  27.5154929577465 18.0323886639676  C 27.2450704225352 18.0323886639676  26.9070422535211 18.1700404858299  26.569014084507 18.4453441295547  C 26.569014084507 18.4453441295547  25.8929577464789 19.2024291497976  25.8929577464789 19.2024291497976  C 25.8929577464789 19.2024291497976  25.3521126760563 19.8906882591093  25.3521126760563 19.8906882591093  C 25.0140845070423 20.5101214574899  24.5408450704225 20.6477732793522  23.7971830985916 20.5101214574899  C 23.3239436619718 20.4412955465587  23.1887323943662 19.9595141700405  23.3239436619718 19.3400809716599  C 23.3239436619718 19.3400809716599  23.3239436619718 18.8582995951417  23.3239436619718 18.8582995951417  L 23.256338028169 18.3765182186235  C 23.256338028169 18.3765182186235  22.9859154929577 18.7206477732793  22.9859154929577 18.7206477732793  C 22.7830985915493 18.9959514170041  22.5802816901409 19.0647773279352  22.3098591549296 19.0647773279352  C 22.0394366197183 18.9959514170041  21.8366197183099 18.7206477732793  21.7014084507042 18.2388663967611  C 21.7014084507042 18.2388663967611  21.7014084507042 18.1700404858299  21.7014084507042 18.1700404858299  L 21.5661971830986 16.587044534413  L 21.2281690140845 15.0728744939271  L 20.5521126760563 14.3846153846154  L 20.4845070422535 14.3157894736842  L 19.0647887323944 11.0121457489879  L 18.9971830985916 10.9433198380567  L 18.5915492957746 9.97975708502024  L 18.5915492957746 9.91093117408907  L 18.5239436619718 9.91093117408907  L 18.5239436619718 9.8421052631579  L 18.2535211267606 8.05263157894738  L 18.0507042253521 7.77732793522268  C 18.0507042253521 7.77732793522268  17.7802816901409 7.98380566801619  17.7802816901409 7.98380566801619  C 17.3070422535211 8.53441295546559  16.9690140845071 8.87854251012146  16.8338028169014 8.87854251012146  C 16.630985915493 8.87854251012146  16.2929577464789 8.60323886639676  15.7521126760563 8.19028340080972  C 15.7521126760563 8.19028340080972  14.7380281690141 7.70850202429151  14.7380281690141 7.70850202429151  L 14.6028169014085 7.63967611336032  L 14.5352112676056 7.57085020242915  L 14.5352112676056 7.50202429149798  L 14.4676056338028 7.36437246963564  L 14.4 5.98785425101216  L 14.1971830985915 4.95546558704455  L 13.656338028169 3.57894736842106  C 13.656338028169 3.57894736842106  13.1154929577465 3.57894736842106  13.1154929577465 3.57894736842106  C 13.1830985915493 4.12955465587044  13.1154929577465 4.61133603238867  12.9802816901409 4.95546558704455  C 12.8450704225352 5.36842105263159  12.574647887324 5.64372469635629  12.169014084507 5.98785425101216  C 12.0338028169014 6.46963562753037  11.830985915493 6.81376518218624  11.5605633802817 7.08906882591094  C 11.1549295774648 7.50202429149798  10.8169014084507 7.50202429149798  10.4112676056338 7.22672064777328  C 10.4112676056338 7.22672064777328  10.2084507042254 7.15789473684211  10.2084507042254 7.15789473684211  C 9.80281690140845 7.02024291497977  9.73521126760564 6.53846153846154  9.80281690140845 5.64372469635629  C 9.80281690140845 5.64372469635629  9.80281690140845 5.29959514170042  9.80281690140845 5.29959514170042  C 9.80281690140845 5.29959514170042  8.92394366197184 4.74898785425102  8.92394366197184 4.74898785425102  C 8.58591549295776 4.61133603238867  8.3830985915493 4.19838056680161  8.31549295774649 3.57894736842106  C 8.31549295774649 3.57894736842106  8.65352112676057 0.48178137651823  8.65352112676057 0.48178137651823  L 8.51830985915495 0  L 7.43661971830986 1.23886639676114  L 6.69295774647888 1.78947368421052  C 6.69295774647888 1.78947368421052  6.49014084507044 2.27125506072875  6.49014084507044 2.27125506072875  C 6.76056338028169 2.89068825910932  6.89577464788734 3.37246963562753  6.89577464788734 3.7165991902834  C 6.89577464788734 4.40485829959515  6.55774647887325 4.95546558704455  5.94929577464789 5.16194331983806  C 5.94929577464789 5.16194331983806  4.73239436619718 5.64372469635629  4.73239436619718 5.64372469635629  L 4.3943661971831 5.8502024291498  L 4.32676056338028 6.33198380566803  C 4.32676056338028 6.33198380566803  4.32676056338028 8.25910931174089  4.32676056338028 8.25910931174089  C 4.3943661971831 8.87854251012146  4.46197183098593 9.22267206477733  4.66478873239437 9.22267206477733  C 5.07042253521127 9.42914979757086  5.543661971831 9.42914979757086  5.94929577464789 9.08502024291499  C 5.94929577464789 9.08502024291499  6.35492957746479 8.87854251012146  6.35492957746479 8.87854251012146  L 7.63943661971832 11.9068825910931  L 7.63943661971832 11.9757085020243  C 7.63943661971832 11.9757085020243  7.63943661971832 12.1133603238866  7.63943661971832 12.1133603238866  C 7.16619718309861 17.5506072874494  6.69295774647888 20.6477732793522  6.08450704225352 21.4736842105263  C 5.81408450704227 21.748987854251  5.61126760563381 21.8866396761134  5.20563380281691 21.9554655870445  C 4.73239436619718 21.9554655870445  4.3943661971831 21.8866396761134  3.92112676056339 21.6113360323886  C 2.16338028169015 25.1902834008097  1.01408450704225 27.0485829959514  0.47323943661973 27.3238866396761  C 0.47323943661973 27.3238866396761  0.540845070422543 27.3238866396761  0.540845070422543 27.3238866396761  C 0.270422535211271 27.3927125506073  0.135211267605645 28.2874493927126  0.202816901408458 29.8704453441295  C 0.202816901408458 29.8704453441295  0.608450704225356 30.2145748987854  0.608450704225356 30.2145748987854  L 0.743661971831001 30.3522267206478  L 0.878873239436628 30.4898785425101  Z " fill-rule="nonzero" fill="#4a9eff" stroke="none" transform="matrix(1 0 0 1 1936 1931 )" />
    <path d="M 0.878873239436628 30.4898785425101  L 0.270422535211271 31.246963562753  C 0.270422535211271 31.246963562753  0 32.1417004048583  0 32.1417004048583  C 0.405633802816917 32.1417004048583  0.94647887323944 31.8663967611336  1.48732394366198 31.4534412955465  C 1.48732394366198 31.4534412955465  1.5549295774648 31.3846153846154  1.5549295774648 31.3846153846154  L 1.69014084507042 31.3846153846154  L 4.3943661971831 31.0404858299595  L 6.15211267605635 30.1457489878543  L 6.82816901408452 31.1093117408907  L 6.96338028169015 31.1781376518219  L 6.15211267605635 32.4858299595142  L 7.09859154929578 33.4493927125506  L 7.09859154929578 33.5182186234818  L 7.09859154929578 33.7246963562753  L 6.4225352112676 36.6153846153846  L 8.18028169014086 37.9230769230769  L 11.3577464788732 38.0607287449393  C 11.3577464788732 38.0607287449393  10.8845070422535 38.6801619433198  10.8845070422535 38.6801619433198  C 8.85633802816903 41.2267206477733  7.90985915492959 42.7408906882591  7.9774647887324 43.2226720647773  C 7.9774647887324 43.2226720647773  9.19436619718311 43.497975708502  9.19436619718311 43.497975708502  C 10.8169014084507 43.6356275303644  11.7633802816901 44.1174089068826  12.1014084507042 44.7368421052632  C 12.5070422535211 45.5627530364372  12.912676056338 46.3886639676113  13.2507042253521 47.3522267206478  C 13.2507042253521 47.3522267206478  15.0760563380282 48.3846153846154  15.0760563380282 48.3846153846154  L 16.2253521126761 48.5910931174089  L 18.5915492957746 46.5263157894737  L 19.8084507042254 48.3846153846154  L 19.8084507042254 48.4534412955465  L 19.8760563380282 48.5222672064777  L 20.2816901408451 50.2429149797571  L 21.2957746478873 50.4493927125506  L 22.8507042253521 51  L 23.256338028169 50.8623481781376  L 23.256338028169 50.7935222672065  L 22.9859154929577 49.0040485829959  L 22.9183098591549 48.9352226720648  L 22.0394366197183 44.8744939271255  L 22.0394366197183 44.7368421052632  L 22.5802816901409 41.914979757085  L 22.7154929577465 41.9838056680162  L 22.9183098591549 41.9838056680162  L 24.743661971831 42.1214574898785  L 27.0422535211268 40.4008097165992  C 27.0422535211268 40.4008097165992  27.2450704225352 40.5384615384615  27.2450704225352 40.5384615384615  C 28.4619718309859 41.502024291498  29.2732394366197 42.2591093117409  29.6788732394366 42.8097165991903  C 30.0845070422535 42.6720647773279  30.8281690140845 41.914979757085  31.8422535211268 40.7449392712551  C 31.8422535211268 40.7449392712551  31.9098591549296 40.6761133603239  31.9098591549296 40.6761133603239  L 32.0450704225352 40.5384615384615  L 35.4253521126761 41.4331983805668  L 36.912676056338 40.1943319838057  L 36.9802816901409 40.1255060728745  L 37.0478873239437 40.0566801619433  L 37.1154929577465 40.0566801619433  L 37.1830985915493 40.1255060728745  L 38.6028169014085 40.4008097165992  L 43.2 36.2712550607287  L 44.6197183098592 36.6842105263158  L 44.687323943662 36.7530364372469  L 44.7549295774648 36.8218623481781  L 44.8225352112676 36.8906882591093  L 45.1605633802817 37.5101214574899  L 45.4985915492958 37.0971659919028  L 45.5661971830986 37.0971659919028  L 45.5661971830986 37.0283400809717  L 45.6338028169014 37.0283400809717  L 46.9859154929577 36.2712550607287  L 48 35.3076923076923  L 47.7295774647887 33.1740890688259  L 47.5267605633803 32.8987854251012  C 47.5267605633803 32.8987854251012  46.2422535211268 33.4493927125506  46.2422535211268 33.4493927125506  C 45.8366197183099 33.587044534413  45.4985915492958 33.7246963562753  45.0253521126761 33.7246963562753  C 45.0253521126761 33.7246963562753  43.5380281690141 33.7246963562753  43.5380281690141 33.7246963562753  C 43.0647887323944 33.6558704453441  42.7943661971831 33.5182186234818  42.5915492957746 33.2429149797571  C 42.5915492957746 33.2429149797571  42.456338028169 31.0404858299595  42.456338028169 31.0404858299595  C 41.9830985915493 30.7651821862348  41.7802816901409 30.6275303643725  41.5774647887324 30.6275303643725  C 41.5774647887324 30.6275303643725  41.2394366197183 30.7651821862348  41.2394366197183 30.7651821862348  L 40.7661971830986 31.0404858299595  L 39.8197183098592 31.246963562753  L 39.5492957746479 31.246963562753  L 39.4816901408451 31.1093117408907  L 38.9408450704226 30.1457489878543  L 38.8732394366197 29.251012145749  L 39.4140845070423 26.6356275303644  L 39.4816901408451 26.6356275303644  L 39.4816901408451 26.5668016194332  L 40.0901408450704 25.2591093117409  L 38.1971830985916 23.5384615384615  L 38.1295774647887 23.4696356275304  L 38.0619718309859 23.4008097165992  L 38.0619718309859 21.4048582995952  L 38.1295774647887 21.336032388664  L 39.2112676056338 18.1700404858299  L 38.5352112676056 16.4493927125506  L 37.9267605633803 16.3117408906882  L 37.1830985915493 16.3805668016194  L 36.4394366197183 17.5506072874494  L 35.4929577464789 16.8623481781377  L 34.5464788732395 16.3117408906882  L 33.8028169014084 14.3846153846154  L 33.5323943661972 13.0080971659919  L 33.5323943661972 12.8704453441296  L 33.4647887323944 12.8016194331984  L 33.6676056338028 12.663967611336  L 34.5464788732395 11.4251012145749  L 34.7492957746479 11.2874493927126  L 34.8169014084507 11.2874493927126  L 35.4929577464789 11.1497975708502  L 36.2366197183099 10.9433198380567  L 39.7521126760563 10.8056680161943  L 39.8197183098592 10.8056680161943  L 40.2929577464789 11.0121457489879  L 40.4281690140845 11.080971659919  L 40.9690140845071 11.2874493927126  L 41.9154929577465 10.8744939271255  L 42.7267605633803 10.2550607287449  L 43.1323943661972 9.5668016194332  L 43.2 9.22267206477733  L 43.1323943661972 7.70850202429151  L 42.3887323943662 7.57085020242915  C 42.3887323943662 7.57085020242915  40.9690140845071 8.05263157894738  40.9690140845071 8.05263157894738  C 40.5633802816901 8.53441295546559  40.0901408450704 8.87854251012146  39.6169014084507 8.87854251012146  C 39.143661971831 8.87854251012146  38.7380281690141 8.46558704453442  38.3323943661972 7.70850202429151  C 38.3323943661972 7.70850202429151  38.2647887323944 7.70850202429151  38.2647887323944 7.70850202429151  L 38.2647887323944 7.63967611336032  L 38.1971830985916 6.6761133603239  L 38.1971830985916 6.53846153846154  L 38.2647887323944 5.64372469635629  L 37.5211267605634 3.78542510121457  L 36.1014084507042 4.19838056680161  L 35.4929577464789 4.74898785425102  L 35.6957746478873 6.81376518218624  L 33.4647887323944 5.78137651821863  L 34.0056338028169 7.02024291497977  L 34.0732394366197 7.08906882591094  L 34.0732394366197 7.22672064777328  L 33.8704225352113 8.60323886639676  L 33.8704225352113 8.74089068825912  L 33.8028169014084 8.74089068825912  L 32.5183098591549 10.5991902834008  L 30.4225352112676 11.9068825910931  C 30.4225352112676 11.9068825910931  30.2197183098592 13.1457489878542  30.2197183098592 13.1457489878542  C 30.1521126760564 13.3522267206478  30.4225352112676 13.9028340080972  30.7605633802817 14.5910931174089  C 30.7605633802817 14.5910931174089  30.8281690140845 14.6599190283401  30.8281690140845 14.6599190283401  L 30.8281690140845 14.7287449392712  L 30.9633802816901 16.5182186234818  L 30.9633802816901 16.7246963562753  L 30.8957746478873 16.7935222672065  L 30.0845070422535 17.8947368421053  L 30.0169014084507 17.9635627530365  L 29.9492957746479 17.9635627530365  L 29.3408450704225 18.3765182186235  L 29.2732394366197 18.3765182186235  L 29.2056338028169 18.3765182186235  L 29.1380281690141 18.3765182186235  L 29.0704225352113 18.3765182186235  C 29.0704225352113 18.3765182186235  27.5154929577465 18.0323886639676  27.5154929577465 18.0323886639676  C 27.2450704225352 18.0323886639676  26.9070422535211 18.1700404858299  26.569014084507 18.4453441295547  C 26.569014084507 18.4453441295547  25.8929577464789 19.2024291497976  25.8929577464789 19.2024291497976  C 25.8929577464789 19.2024291497976  25.3521126760563 19.8906882591093  25.3521126760563 19.8906882591093  C 25.0140845070423 20.5101214574899  24.5408450704225 20.6477732793522  23.7971830985916 20.5101214574899  C 23.3239436619718 20.4412955465587  23.1887323943662 19.9595141700405  23.3239436619718 19.3400809716599  C 23.3239436619718 19.3400809716599  23.3239436619718 18.8582995951417  23.3239436619718 18.8582995951417  L 23.256338028169 18.3765182186235  C 23.256338028169 18.3765182186235  22.9859154929577 18.7206477732793  22.9859154929577 18.7206477732793  C 22.7830985915493 18.9959514170041  22.5802816901409 19.0647773279352  22.3098591549296 19.0647773279352  C 22.0394366197183 18.9959514170041  21.8366197183099 18.7206477732793  21.7014084507042 18.2388663967611  C 21.7014084507042 18.2388663967611  21.7014084507042 18.1700404858299  21.7014084507042 18.1700404858299  L 21.5661971830986 16.587044534413  L 21.2281690140845 15.0728744939271  L 20.5521126760563 14.3846153846154  L 20.4845070422535 14.3157894736842  L 19.0647887323944 11.0121457489879  L 18.9971830985916 10.9433198380567  L 18.5915492957746 9.97975708502024  L 18.5915492957746 9.91093117408907  L 18.5239436619718 9.91093117408907  L 18.5239436619718 9.8421052631579  L 18.2535211267606 8.05263157894738  L 18.0507042253521 7.77732793522268  C 18.0507042253521 7.77732793522268  17.7802816901409 7.98380566801619  17.7802816901409 7.98380566801619  C 17.3070422535211 8.53441295546559  16.9690140845071 8.87854251012146  16.8338028169014 8.87854251012146  C 16.630985915493 8.87854251012146  16.2929577464789 8.60323886639676  15.7521126760563 8.19028340080972  C 15.7521126760563 8.19028340080972  14.7380281690141 7.70850202429151  14.7380281690141 7.70850202429151  L 14.6028169014085 7.63967611336032  L 14.5352112676056 7.57085020242915  L 14.5352112676056 7.50202429149798  L 14.4676056338028 7.36437246963564  L 14.4 5.98785425101216  L 14.1971830985915 4.95546558704455  L 13.656338028169 3.57894736842106  C 13.656338028169 3.57894736842106  13.1154929577465 3.57894736842106  13.1154929577465 3.57894736842106  C 13.1830985915493 4.12955465587044  13.1154929577465 4.61133603238867  12.9802816901409 4.95546558704455  C 12.8450704225352 5.36842105263159  12.574647887324 5.64372469635629  12.169014084507 5.98785425101216  C 12.0338028169014 6.46963562753037  11.830985915493 6.81376518218624  11.5605633802817 7.08906882591094  C 11.1549295774648 7.50202429149798  10.8169014084507 7.50202429149798  10.4112676056338 7.22672064777328  C 10.4112676056338 7.22672064777328  10.2084507042254 7.15789473684211  10.2084507042254 7.15789473684211  C 9.80281690140845 7.02024291497977  9.73521126760564 6.53846153846154  9.80281690140845 5.64372469635629  C 9.80281690140845 5.64372469635629  9.80281690140845 5.29959514170042  9.80281690140845 5.29959514170042  C 9.80281690140845 5.29959514170042  8.92394366197184 4.74898785425102  8.92394366197184 4.74898785425102  C 8.58591549295776 4.61133603238867  8.3830985915493 4.19838056680161  8.31549295774649 3.57894736842106  C 8.31549295774649 3.57894736842106  8.65352112676057 0.48178137651823  8.65352112676057 0.48178137651823  L 8.51830985915495 0  L 7.43661971830986 1.23886639676114  L 6.69295774647888 1.78947368421052  C 6.69295774647888 1.78947368421052  6.49014084507044 2.27125506072875  6.49014084507044 2.27125506072875  C 6.76056338028169 2.89068825910932  6.89577464788734 3.37246963562753  6.89577464788734 3.7165991902834  C 6.89577464788734 4.40485829959515  6.55774647887325 4.95546558704455  5.94929577464789 5.16194331983806  C 5.94929577464789 5.16194331983806  4.73239436619718 5.64372469635629  4.73239436619718 5.64372469635629  L 4.3943661971831 5.8502024291498  L 4.32676056338028 6.33198380566803  C 4.32676056338028 6.33198380566803  4.32676056338028 8.25910931174089  4.32676056338028 8.25910931174089  C 4.3943661971831 8.87854251012146  4.46197183098593 9.22267206477733  4.66478873239437 9.22267206477733  C 5.07042253521127 9.42914979757086  5.543661971831 9.42914979757086  5.94929577464789 9.08502024291499  C 5.94929577464789 9.08502024291499  6.35492957746479 8.87854251012146  6.35492957746479 8.87854251012146  L 7.63943661971832 11.9068825910931  L 7.63943661971832 11.9757085020243  C 7.63943661971832 11.9757085020243  7.63943661971832 12.1133603238866  7.63943661971832 12.1133603238866  C 7.16619718309861 17.5506072874494  6.69295774647888 20.6477732793522  6.08450704225352 21.4736842105263  C 5.81408450704227 21.748987854251  5.61126760563381 21.8866396761134  5.20563380281691 21.9554655870445  C 4.73239436619718 21.9554655870445  4.3943661971831 21.8866396761134  3.92112676056339 21.6113360323886  C 2.16338028169015 25.1902834008097  1.01408450704225 27.0485829959514  0.47323943661973 27.3238866396761  C 0.47323943661973 27.3238866396761  0.540845070422543 27.3238866396761  0.540845070422543 27.3238866396761  C 0.270422535211271 27.3927125506073  0.135211267605645 28.2874493927126  0.202816901408458 29.8704453441295  C 0.202816901408458 29.8704453441295  0.608450704225356 30.2145748987854  0.608450704225356 30.2145748987854  L 0.743661971831001 30.3522267206478  L 0.878873239436628 30.4898785425101  Z " stroke-width="2" stroke="#ffffff" fill="none" transform="matrix(1 0 0 1 1936 1931 )" mask="url(#clip1057)" />
  </g>
</svg>