<?xml version="1.0" encoding="utf-8"?>
<svg version="1.1" xmlns:xlink="http://www.w3.org/1999/xlink" width="111px" height="84px" xmlns="http://www.w3.org/2000/svg">
  <defs>
    <mask fill="white" id="clip1399">
      <path d="M 110.863803680982 45.2674230145867  L 110.863803680982 45.1993517017828  L 110.931901840491 45.1312803889789  L 111 45.1312803889789  L 111 45.063209076175  L 108.820858895706 38.868719611021  L 107.458895705521 37.7795786061588  L 107.458895705521 37.643435980551  L 107.118404907975 35.1247974068071  L 104.258282208589 34.7163695299838  L 104.19018404908 34.7163695299838  L 104.053987730061 34.7163695299838  L 104.053987730061 34.6482982171799  L 103.985889570552 34.5121555915721  C 103.985889570552 34.5121555915721  103.985889570552 34.4440842787682  103.985889570552 34.4440842787682  C 103.645398773006 33.4910858995138  102.760122699387 32.4700162074554  101.398159509202 31.3808752025932  C 100.649079754601 30.7682333873582  99.9 30.3598055105348  99.2871165644172 30.223662884927  C 98.8104294478528 29.9513776337115  98.3337423312883 29.7471636952998  97.9932515337423 29.4748784440843  C 97.1079754601227 28.8622366288492  94.0435582822086 28.385737439222  88.6638036809816 28.2495948136143  C 88.6638036809816 28.2495948136143  88.459509202454 28.2495948136143  88.459509202454 28.2495948136143  C 88.459509202454 28.2495948136143  87.8466257668712 27.2965964343598  87.8466257668712 27.2965964343598  C 87.5742331288344 26.6839546191248  87.3699386503068 26.1393841166937  87.3018404907976 25.5267423014587  C 87.3018404907976 24.7779578606159  88.1871165644172 22.3273905996758  90.0938650306749 18.3111831442463  C 90.0938650306749 18.3111831442463  89.140490797546 15.3160453808752  89.140490797546 15.3160453808752  C 89.140490797546 15.3160453808752  88.119018404908 10.5510534846029  88.119018404908 10.5510534846029  C 87.9828220858896 9.87034035656401  86.8251533742331 9.25769854132901  84.7822085889571 8.645056726094  C 84.3736196319018 8.50891410048622  83.9650306748466 8.37277147487844  83.5564417177914 8.10048622366288  C 82.8073619631902 7.76012965964343  82.2625766871166 7.14748784440842  81.9901840490798 6.39870340356563  C 81.5815950920245 5.51377633711507  80.9006134969325 4.76499189627228  79.9472392638037 4.35656401944894  C 79.9472392638037 4.35656401944894  79.8791411042945 4.28849270664505  79.8791411042945 4.28849270664505  L 79.8110429447853 4.22042139384117  L 78.9938650306748 0  L 75.7251533742331 0.340356564019449  C 75.7251533742331 0.340356564019449  75.3846625766871 1.22528363047002  75.3846625766871 1.22528363047002  C 74.9760736196319 2.6547811993517  74.5674846625767 3.3354943273906  74.0907975460123 3.3354943273906  C 74.0907975460123 3.3354943273906  71.979754601227 4.0162074554295  71.979754601227 4.0162074554295  C 70.6858895705522 4.49270664505672  69.8687116564417 5.03727714748784  69.4601226993865 5.64991896272285  C 69.2558282208589 5.92220421393841  69.0515337423313 6.73905996758508  68.9153374233129 7.82820097244732  C 68.7110429447853 9.05348460291734  68.5067484662577 9.93841166936791  68.2343558282209 10.482982171799  C 67.8257668711656 11.3679092382496  67.2128834355828 12.0486223662885  66.259509202454 12.3889789303079  C 64.4889570552147 13.0696920583468  61.4926380368098 11.9124797406807  57.3386503067485 8.98541329011345  C 57.3386503067485 8.98541329011345  51.7546012269939 16.1329011345219  51.7546012269939 16.1329011345219  L 52.4355828220859 19.0599675850891  L 52.5036809815951 19.0599675850891  L 52.5717791411043 19.1961102106969  L 52.4355828220859 19.2641815235008  C 52.4355828220859 19.2641815235008  52.4355828220859 19.3322528363047  52.4355828220859 19.3322528363047  C 52.1631901840491 19.740680713128  51.7546012269939 20.0129659643436  51.2785950920245 20.0810372771475  C 50.7331288343558 20.2171799027553  50.1883435582822 20.0129659643436  49.5761411042945 19.6045380875203  C 49.0306748466258 19.1961102106969  47.4644171779141 18.8557536466775  44.9447852760736 18.7196110210697  C 44.9447852760736 18.7196110210697  43.7877975460123 18.6515397082658  43.7877975460123 18.6515397082658  L 42.0853435582822 18.515397082658  L 40.2460122699386 18.8557536466775  C 40.2460122699386 18.8557536466775  41.0638711656442 20.0129659643436  41.0638711656442 20.0129659643436  C 41.7448527607362 20.8978930307942  42.0165644171779 21.4424635332253  41.9484662576687 21.7828200972447  C 41.9484662576687 21.7828200972447  41.1993865030675 26.2074554294976  41.1993865030675 26.2074554294976  L 41.5398773006135 28.5899513776337  L 41.6079754601227 28.5899513776337  L 41.6079754601227 28.6580226904376  L 41.5398773006135 28.7260940032415  C 41.5398773006135 28.7260940032415  40.1779141104294 33.1507293354943  40.1779141104294 33.1507293354943  C 40.1098159509202 33.5591572123177  39.9736196319018 33.7633711507293  39.8374233128834 33.6952998379254  C 39.8374233128834 33.6952998379254  39.7019079754601 33.6952998379254  39.7019079754601 33.6952998379254  L 39.7019079754601 33.6272285251215  C 39.7019079754601 33.6272285251215  39.4969325153374 33.2188006482982  39.4969325153374 33.2188006482982  C 39.2245398773006 32.6742301458671  39.0883435582822 32.4700162074554  38.8840490797546 32.5380875202593  C 38.7478527607362 32.6061588330632  38.5435582822086 32.8784440842788  38.4754601226994 33.4910858995138  C 38.2030674846626 34.7163695299838  37.4539877300614 35.7374392220421  36.297 36.8265802269044  C 36.297 36.8265802269044  35.0705521472393 37.7795786061588  35.0705521472393 37.7795786061588  L 34.4576687116564 38.1199351701783  L 34.3895705521472 38.1199351701783  L 29.9631901840491 38.1880064829822  L 28.260736196319 39.8217179902755  L 28.1926380368098 39.8217179902755  L 28.0564417177914 39.8217179902755  L 27.9883435582822 39.8217179902755  C 27.9883435582822 39.8217179902755  23.2895705521472 39.1410048622366  23.2895705521472 39.1410048622366  C 22.540490797546 39.9578606158833  21.7914110429448 40.2301458670988  21.0423312883436 40.0940032414911  C 20.3613496932515 39.8897893030794  19.2036809815951 40.162074554295  17.5700061349693 40.77471636953  C 17.5700061349693 40.77471636953  15.6625766871166 43.0210696920583  15.6625766871166 43.0210696920583  L 15.5944785276074 43.1572123176661  L 12.5981595092025 43.22528363047  L 12.5981595092025 40.7066450567261  L 10.6914110429448 40.7066450567261  L 10.3509202453988 41.7957860615883  L 8.92085889570552 42.1361426256078  L 8.78466257668712 42.1361426256078  L 8.71724539877301 42.0680713128039  C 8.71724539877301 42.0680713128039  8.64846625766871 42.0680713128039  8.64846625766871 42.0680713128039  C 7.76319018404908 41.5235008103728  6.67430061349693 41.1150729335494  5.5840490797546 40.9789303079416  C 4.97184662576687 40.9108589951377  4.22208588957055 41.3192868719611  3.13251533742331 42.2722852512155  C 1.97484662576687 43.22528363047  1.15766871165644 44.1102106969206  0.749079754601227 44.9270664505672  C 0.953374233128834 45.063209076175  1.08957055214724 45.3354943273906  1.08957055214724 45.7439222042139  C 1.22644785276074 46.2204213938411  1.29386503067485 46.6288492706645  1.29386503067485 47.1734197730956  C 1.22644785276074 47.7179902755267  1.02147239263804 48.0583468395462  0.749079754601227 48.3306320907617  C 0.408588957055215 48.5348460291734  0.204975460122699 49.1474878444084  0 50.2366288492706  C 0 50.2366288492706  1.08957055214724 50.9854132901134  1.08957055214724 50.9854132901134  L 2.58841104294479 49.419773095624  L 4.49447852760736 51.5299837925445  L 4.49447852760736 51.6661264181523  L 4.90306748466258 55.4100486223663  L 4.90306748466258 55.4781199351701  L 4.83496932515337 55.4781199351701  L 3.74539877300613 60.6515397082658  C 3.74539877300613 60.6515397082658  3.47300613496933 60.6515397082658  3.47300613496933 60.6515397082658  C 1.90742944785276 60.6515397082658  0.885957055214724 60.7196110210697  0.476687116564417 60.9918962722852  C 0.545466257668711 61.3322528363047  1.22644785276074 61.8768233387358  2.38343558282209 62.6256077795786  C 2.38343558282209 62.6256077795786  3.33680981595092 62.4894651539708  3.33680981595092 62.4894651539708  L 3.54110429447853 62.4894651539708  L 3.60988343558282 62.5575364667747  C 3.60988343558282 62.5575364667747  5.85644171779141 64.7358184764991  5.85644171779141 64.7358184764991  C 6.74171779141104 65.4846029173419  6.67430061349693 66.7779578606158  5.5159509202454 68.6839546191247  C 5.5159509202454 68.6839546191247  5.85644171779141 70.7941653160453  5.85644171779141 70.7941653160453  L 6.74171779141104 70.998379254457  L 10.2147239263804 70.998379254457  L 8.4441717791411 72.6320907617504  L 9.46564417177914 73.1766612641815  L 10.8276073619632 73.9254457050243  L 14.5055889570552 75.4910858995137  L 14.5730061349693 75.5591572123176  L 14.7092024539877 75.5591572123176  C 14.7092024539877 75.5591572123176  15.0496932515337 81.1410048622366  15.0496932515337 81.1410048622366  C 15.1177914110429 82.2301458670988  15.9349693251534 83.0470016207455  17.5700061349693 83.5915721231766  C 17.5700061349693 83.5915721231766  17.841717791411 83.4554294975688  17.841717791411 83.4554294975688  L 17.9104969325153 83.4554294975688  L 17.9779141104294 83.4554294975688  L 21.7914110429448 83.9999999999999  L 22.0638036809816 83.9999999999999  L 22.0638036809816 83.931928687196  C 22.0638036809816 83.931928687196  22.1319018404908 83.7957860615883  22.1319018404908 83.7957860615883  C 22.540490797546 83.0470016207455  22.8128834355828 82.5024311183144  22.8128834355828 82.3662884927066  C 22.8128834355828 82.3662884927066  22.8128834355828 82.2301458670988  22.8128834355828 82.2301458670988  C 22.7447852760736 81.6175040518638  23.0178588957055 81.0729335494327  23.561963190184 80.6645056726094  C 24.1067484662577 80.256077795786  24.4472392638037 79.8476499189627  24.6515337423313 79.3711507293354  C 24.6515337423313 79.3711507293354  24.7203128834356 79.3030794165315  24.7203128834356 79.3030794165315  C 24.9239263803681 78.7585089141004  25.6049079754601 78.6223662884927  26.7632576687117 78.9627228525121  C 26.7632576687117 78.9627228525121  26.8306748466258 78.9627228525121  26.8306748466258 78.9627228525121  L 28.1252208588957 79.7115072933549  L 32.4147239263804 80.5283630470016  L 35.0705521472393 80.3241491085899  C 35.0705521472393 80.3241491085899  36.977981595092 79.5072933549432  36.977981595092 79.5072933549432  C 37.318472392638 79.030794165316  37.5901840490798 78.8265802269043  37.7944785276074 78.6904376012966  C 38.1349693251534 78.6223662884927  38.6116564417178 78.7585089141004  39.1564417177914 79.2350081037277  C 39.1564417177914 79.2350081037277  39.4288343558282 79.3711507293354  39.4288343558282 79.3711507293354  C 39.7019079754601 79.5753646677471  39.9055214723927 79.9837925445704  40.1779141104294 80.7325769854132  C 40.1779141104294 80.7325769854132  41.5398773006135 81.7536466774716  41.5398773006135 81.7536466774716  L 42.5613496932515 81.7536466774716  L 42.6294478527607 81.7536466774716  L 42.7663251533742 81.7536466774716  L 42.8337423312883 81.7536466774716  L 44.2638036809816 82.3662884927066  L 46.9196319018405 82.1620745542949  L 48.4177914110429 81.6855753646677  L 52.3000674846626 82.0259319286871  L 54.0025214723927 81.5494327390599  C 54.0025214723927 81.5494327390599  55.9766871165644 80.7325769854132  55.9766871165644 80.7325769854132  C 56.3852760736196 80.4602917341977  56.8619631901841 80.256077795786  57.5429447852761 80.0518638573743  C 57.5429447852761 80.0518638573743  61.2883435582822 80.0518638573743  61.2883435582822 80.0518638573743  C 61.2883435582822 80.0518638573743  62.6503067484663 79.5753646677471  62.6503067484663 79.5753646677471  C 63.1950920245399 79.2350081037277  63.6717791411043 79.030794165316  64.0803680981595 79.030794165316  C 64.0803680981595 79.030794165316  66.259509202454 79.030794165316  66.259509202454 79.030794165316  L 67.280981595092 79.7795786061588  C 67.280981595092 79.7795786061588  70.2092024539877 80.3922204213938  70.2092024539877 80.3922204213938  C 70.6177914110429 80.3922204213938  71.0263803680982 80.7325769854132  71.7073619631902 81.3452188006483  C 71.7073619631902 81.3452188006483  72.9331288343558 82.1620745542949  72.9331288343558 82.1620745542949  L 73.0693251533742 82.2982171799027  L 75.8613496932515 82.3662884927066  L 75.9294478527607 82.3662884927066  L 77.2233128834356 83.0470016207455  L 78.9257668711656 83.3873581847649  L 78.9938650306748 83.3873581847649  L 80.4239263803681 83.5915721231766  L 80.8325153374233 82.7747163695299  L 80.2196319018405 81.4132901134521  L 79.9472392638037 80.0518638573743  L 79.9472392638037 79.9837925445704  L 79.8791411042945 79.9837925445704  L 80.0834355828221 79.7795786061588  L 81.0368098159509 78.4862236628849  L 81.0368098159509 78.418152350081  L 81.1049079754601 78.418152350081  L 81.1049079754601 78.3500810372771  L 82.0582822085889 77.6693679092382  L 81.8539877300614 77.2609400324149  C 81.8539877300614 77.2609400324149  81.4453987730061 75.8995137763371  81.4453987730061 75.8995137763371  C 81.4453987730061 75.6952998379254  81.2411042944785 75.5591572123176  80.8325153374233 75.2868719611021  C 80.8325153374233 75.2868719611021  79.8110429447853 74.1977309562398  79.8110429447853 74.1977309562398  L 78.5171779141104 73.1085899513776  L 78.4490797546012 72.9724473257698  L 78.3128834355828 72.9043760129659  L 78.380981595092 72.836304700162  L 78.380981595092 72.7001620745543  L 78.5852760736196 71.4068071312803  L 78.5852760736196 70.4538087520259  L 77.9723926380368 68.8200972447325  L 79.5386503067485 68.4797406807131  L 80.2877300613497 67.7309562398703  L 82.1944785276074 67.7309562398703  L 84.101226993865 67.4586709886547  L 84.1693251533742 67.4586709886547  L 85.4631901840491 67.5948136142625  L 86.9613496932515 67.0502431118314  L 88.6638036809816 66.8460291734197  L 89.7533742331289 66.3695299837925  L 89.821472392638 66.3695299837925  L 92.7496932515338 65.8249594813614  L 93.2263803680982 65.3484602917342  L 93.0901840490798 64.803889789303  L 92.5453987730061 63.8508914100486  L 92.5453987730061 63.7828200972447  L 92.4773006134969 63.7147487844408  L 92.4773006134969 63.6466774716369  L 92.6134969325153 62.6256077795786  L 92.6815950920245 62.5575364667747  L 92.6815950920245 61.128038897893  L 92.4092024539877 59.902755267423  L 92.4092024539877 59.8346839546191  C 92.4092024539877 59.8346839546191  93.0901840490798 58.4732576985413  93.0901840490798 58.4732576985413  C 93.3625766871166 57.8606158833063  93.7030674846626 57.5202593192868  94.1116564417178 57.5202593192868  C 94.1116564417178 57.5202593192868  95.8822085889571 57.6564019448946  95.8822085889571 57.6564019448946  C 96.1546012269939 57.6564019448946  96.4950920245399 57.5202593192868  96.8355828220859 57.2479740680713  C 96.8355828220859 57.2479740680713  99.4914110429448 53.6401944894651  99.4914110429448 53.6401944894651  L 99.4914110429448 53.5721231766612  L 99.559509202454 53.5040518638573  L 100.989570552147 52.3468395461912  C 100.989570552147 52.3468395461912  101.125766871166 52.2106969205834  101.125766871166 52.2106969205834  C 101.670552147239 52.0745542949757  102.011042944785 51.870340356564  102.215337423313 51.7341977309562  C 102.215337423313 51.7341977309562  102.555828220859 51.3938411669368  102.555828220859 51.3938411669368  C 103.032515337423 50.7811993517017  103.441104294479 50.5089141004862  103.713496932515 50.5089141004862  C 103.713496932515 50.5089141004862  106.028834355828 50.9854132901134  106.028834355828 50.9854132901134  L 108.003680981595 50.032414910859  L 108.071779141104 50.032414910859  L 108.139877300614 50.032414910859  L 109.29754601227 49.8962722852512  L 110.250920245399 49.4878444084278  L 110.250920245399 47.9222042139384  L 110.523312883436 45.9481361426256  L 110.523312883436 45.8800648298217  L 110.523312883436 45.8119935170178  L 110.863803680982 45.2674230145867  Z " fill-rule="evenodd" />
    </mask>
  </defs>
  <g transform="matrix(1 0 0 1 -1826 -1798 )">
    <path d="M 110.863803680982 45.2674230145867  L 110.863803680982 45.1993517017828  L 110.931901840491 45.1312803889789  L 111 45.1312803889789  L 111 45.063209076175  L 108.820858895706 38.868719611021  L 107.458895705521 37.7795786061588  L 107.458895705521 37.643435980551  L 107.118404907975 35.1247974068071  L 104.258282208589 34.7163695299838  L 104.19018404908 34.7163695299838  L 104.053987730061 34.7163695299838  L 104.053987730061 34.6482982171799  L 103.985889570552 34.5121555915721  C 103.985889570552 34.5121555915721  103.985889570552 34.4440842787682  103.985889570552 34.4440842787682  C 103.645398773006 33.4910858995138  102.760122699387 32.4700162074554  101.398159509202 31.3808752025932  C 100.649079754601 30.7682333873582  99.9 30.3598055105348  99.2871165644172 30.223662884927  C 98.8104294478528 29.9513776337115  98.3337423312883 29.7471636952998  97.9932515337423 29.4748784440843  C 97.1079754601227 28.8622366288492  94.0435582822086 28.385737439222  88.6638036809816 28.2495948136143  C 88.6638036809816 28.2495948136143  88.459509202454 28.2495948136143  88.459509202454 28.2495948136143  C 88.459509202454 28.2495948136143  87.8466257668712 27.2965964343598  87.8466257668712 27.2965964343598  C 87.5742331288344 26.6839546191248  87.3699386503068 26.1393841166937  87.3018404907976 25.5267423014587  C 87.3018404907976 24.7779578606159  88.1871165644172 22.3273905996758  90.0938650306749 18.3111831442463  C 90.0938650306749 18.3111831442463  89.140490797546 15.3160453808752  89.140490797546 15.3160453808752  C 89.140490797546 15.3160453808752  88.119018404908 10.5510534846029  88.119018404908 10.5510534846029  C 87.9828220858896 9.87034035656401  86.8251533742331 9.25769854132901  84.7822085889571 8.645056726094  C 84.3736196319018 8.50891410048622  83.9650306748466 8.37277147487844  83.5564417177914 8.10048622366288  C 82.8073619631902 7.76012965964343  82.2625766871166 7.14748784440842  81.9901840490798 6.39870340356563  C 81.5815950920245 5.51377633711507  80.9006134969325 4.76499189627228  79.9472392638037 4.35656401944894  C 79.9472392638037 4.35656401944894  79.8791411042945 4.28849270664505  79.8791411042945 4.28849270664505  L 79.8110429447853 4.22042139384117  L 78.9938650306748 0  L 75.7251533742331 0.340356564019449  C 75.7251533742331 0.340356564019449  75.3846625766871 1.22528363047002  75.3846625766871 1.22528363047002  C 74.9760736196319 2.6547811993517  74.5674846625767 3.3354943273906  74.0907975460123 3.3354943273906  C 74.0907975460123 3.3354943273906  71.979754601227 4.0162074554295  71.979754601227 4.0162074554295  C 70.6858895705522 4.49270664505672  69.8687116564417 5.03727714748784  69.4601226993865 5.64991896272285  C 69.2558282208589 5.92220421393841  69.0515337423313 6.73905996758508  68.9153374233129 7.82820097244732  C 68.7110429447853 9.05348460291734  68.5067484662577 9.93841166936791  68.2343558282209 10.482982171799  C 67.8257668711656 11.3679092382496  67.2128834355828 12.0486223662885  66.259509202454 12.3889789303079  C 64.4889570552147 13.0696920583468  61.4926380368098 11.9124797406807  57.3386503067485 8.98541329011345  C 57.3386503067485 8.98541329011345  51.7546012269939 16.1329011345219  51.7546012269939 16.1329011345219  L 52.4355828220859 19.0599675850891  L 52.5036809815951 19.0599675850891  L 52.5717791411043 19.1961102106969  L 52.4355828220859 19.2641815235008  C 52.4355828220859 19.2641815235008  52.4355828220859 19.3322528363047  52.4355828220859 19.3322528363047  C 52.1631901840491 19.740680713128  51.7546012269939 20.0129659643436  51.2785950920245 20.0810372771475  C 50.7331288343558 20.2171799027553  50.1883435582822 20.0129659643436  49.5761411042945 19.6045380875203  C 49.0306748466258 19.1961102106969  47.4644171779141 18.8557536466775  44.9447852760736 18.7196110210697  C 44.9447852760736 18.7196110210697  43.7877975460123 18.6515397082658  43.7877975460123 18.6515397082658  L 42.0853435582822 18.515397082658  L 40.2460122699386 18.8557536466775  C 40.2460122699386 18.8557536466775  41.0638711656442 20.0129659643436  41.0638711656442 20.0129659643436  C 41.7448527607362 20.8978930307942  42.0165644171779 21.4424635332253  41.9484662576687 21.7828200972447  C 41.9484662576687 21.7828200972447  41.1993865030675 26.2074554294976  41.1993865030675 26.2074554294976  L 41.5398773006135 28.5899513776337  L 41.6079754601227 28.5899513776337  L 41.6079754601227 28.6580226904376  L 41.5398773006135 28.7260940032415  C 41.5398773006135 28.7260940032415  40.1779141104294 33.1507293354943  40.1779141104294 33.1507293354943  C 40.1098159509202 33.5591572123177  39.9736196319018 33.7633711507293  39.8374233128834 33.6952998379254  C 39.8374233128834 33.6952998379254  39.7019079754601 33.6952998379254  39.7019079754601 33.6952998379254  L 39.7019079754601 33.6272285251215  C 39.7019079754601 33.6272285251215  39.4969325153374 33.2188006482982  39.4969325153374 33.2188006482982  C 39.2245398773006 32.6742301458671  39.0883435582822 32.4700162074554  38.8840490797546 32.5380875202593  C 38.7478527607362 32.6061588330632  38.5435582822086 32.8784440842788  38.4754601226994 33.4910858995138  C 38.2030674846626 34.7163695299838  37.4539877300614 35.7374392220421  36.297 36.8265802269044  C 36.297 36.8265802269044  35.0705521472393 37.7795786061588  35.0705521472393 37.7795786061588  L 34.4576687116564 38.1199351701783  L 34.3895705521472 38.1199351701783  L 29.9631901840491 38.1880064829822  L 28.260736196319 39.8217179902755  L 28.1926380368098 39.8217179902755  L 28.0564417177914 39.8217179902755  L 27.9883435582822 39.8217179902755  C 27.9883435582822 39.8217179902755  23.2895705521472 39.1410048622366  23.2895705521472 39.1410048622366  C 22.540490797546 39.9578606158833  21.7914110429448 40.2301458670988  21.0423312883436 40.0940032414911  C 20.3613496932515 39.8897893030794  19.2036809815951 40.162074554295  17.5700061349693 40.77471636953  C 17.5700061349693 40.77471636953  15.6625766871166 43.0210696920583  15.6625766871166 43.0210696920583  L 15.5944785276074 43.1572123176661  L 12.5981595092025 43.22528363047  L 12.5981595092025 40.7066450567261  L 10.6914110429448 40.7066450567261  L 10.3509202453988 41.7957860615883  L 8.92085889570552 42.1361426256078  L 8.78466257668712 42.1361426256078  L 8.71724539877301 42.0680713128039  C 8.71724539877301 42.0680713128039  8.64846625766871 42.0680713128039  8.64846625766871 42.0680713128039  C 7.76319018404908 41.5235008103728  6.67430061349693 41.1150729335494  5.5840490797546 40.9789303079416  C 4.97184662576687 40.9108589951377  4.22208588957055 41.3192868719611  3.13251533742331 42.2722852512155  C 1.97484662576687 43.22528363047  1.15766871165644 44.1102106969206  0.749079754601227 44.9270664505672  C 0.953374233128834 45.063209076175  1.08957055214724 45.3354943273906  1.08957055214724 45.7439222042139  C 1.22644785276074 46.2204213938411  1.29386503067485 46.6288492706645  1.29386503067485 47.1734197730956  C 1.22644785276074 47.7179902755267  1.02147239263804 48.0583468395462  0.749079754601227 48.3306320907617  C 0.408588957055215 48.5348460291734  0.204975460122699 49.1474878444084  0 50.2366288492706  C 0 50.2366288492706  1.08957055214724 50.9854132901134  1.08957055214724 50.9854132901134  L 2.58841104294479 49.419773095624  L 4.49447852760736 51.5299837925445  L 4.49447852760736 51.6661264181523  L 4.90306748466258 55.4100486223663  L 4.90306748466258 55.4781199351701  L 4.83496932515337 55.4781199351701  L 3.74539877300613 60.6515397082658  C 3.74539877300613 60.6515397082658  3.47300613496933 60.6515397082658  3.47300613496933 60.6515397082658  C 1.90742944785276 60.6515397082658  0.885957055214724 60.7196110210697  0.476687116564417 60.9918962722852  C 0.545466257668711 61.3322528363047  1.22644785276074 61.8768233387358  2.38343558282209 62.6256077795786  C 2.38343558282209 62.6256077795786  3.33680981595092 62.4894651539708  3.33680981595092 62.4894651539708  L 3.54110429447853 62.4894651539708  L 3.60988343558282 62.5575364667747  C 3.60988343558282 62.5575364667747  5.85644171779141 64.7358184764991  5.85644171779141 64.7358184764991  C 6.74171779141104 65.4846029173419  6.67430061349693 66.7779578606158  5.5159509202454 68.6839546191247  C 5.5159509202454 68.6839546191247  5.85644171779141 70.7941653160453  5.85644171779141 70.7941653160453  L 6.74171779141104 70.998379254457  L 10.2147239263804 70.998379254457  L 8.4441717791411 72.6320907617504  L 9.46564417177914 73.1766612641815  L 10.8276073619632 73.9254457050243  L 14.5055889570552 75.4910858995137  L 14.5730061349693 75.5591572123176  L 14.7092024539877 75.5591572123176  C 14.7092024539877 75.5591572123176  15.0496932515337 81.1410048622366  15.0496932515337 81.1410048622366  C 15.1177914110429 82.2301458670988  15.9349693251534 83.0470016207455  17.5700061349693 83.5915721231766  C 17.5700061349693 83.5915721231766  17.841717791411 83.4554294975688  17.841717791411 83.4554294975688  L 17.9104969325153 83.4554294975688  L 17.9779141104294 83.4554294975688  L 21.7914110429448 83.9999999999999  L 22.0638036809816 83.9999999999999  L 22.0638036809816 83.931928687196  C 22.0638036809816 83.931928687196  22.1319018404908 83.7957860615883  22.1319018404908 83.7957860615883  C 22.540490797546 83.0470016207455  22.8128834355828 82.5024311183144  22.8128834355828 82.3662884927066  C 22.8128834355828 82.3662884927066  22.8128834355828 82.2301458670988  22.8128834355828 82.2301458670988  C 22.7447852760736 81.6175040518638  23.0178588957055 81.0729335494327  23.561963190184 80.6645056726094  C 24.1067484662577 80.256077795786  24.4472392638037 79.8476499189627  24.6515337423313 79.3711507293354  C 24.6515337423313 79.3711507293354  24.7203128834356 79.3030794165315  24.7203128834356 79.3030794165315  C 24.9239263803681 78.7585089141004  25.6049079754601 78.6223662884927  26.7632576687117 78.9627228525121  C 26.7632576687117 78.9627228525121  26.8306748466258 78.9627228525121  26.8306748466258 78.9627228525121  L 28.1252208588957 79.7115072933549  L 32.4147239263804 80.5283630470016  L 35.0705521472393 80.3241491085899  C 35.0705521472393 80.3241491085899  36.977981595092 79.5072933549432  36.977981595092 79.5072933549432  C 37.318472392638 79.030794165316  37.5901840490798 78.8265802269043  37.7944785276074 78.6904376012966  C 38.1349693251534 78.6223662884927  38.6116564417178 78.7585089141004  39.1564417177914 79.2350081037277  C 39.1564417177914 79.2350081037277  39.4288343558282 79.3711507293354  39.4288343558282 79.3711507293354  C 39.7019079754601 79.5753646677471  39.9055214723927 79.9837925445704  40.1779141104294 80.7325769854132  C 40.1779141104294 80.7325769854132  41.5398773006135 81.7536466774716  41.5398773006135 81.7536466774716  L 42.5613496932515 81.7536466774716  L 42.6294478527607 81.7536466774716  L 42.7663251533742 81.7536466774716  L 42.8337423312883 81.7536466774716  L 44.2638036809816 82.3662884927066  L 46.9196319018405 82.1620745542949  L 48.4177914110429 81.6855753646677  L 52.3000674846626 82.0259319286871  L 54.0025214723927 81.5494327390599  C 54.0025214723927 81.5494327390599  55.9766871165644 80.7325769854132  55.9766871165644 80.7325769854132  C 56.3852760736196 80.4602917341977  56.8619631901841 80.256077795786  57.5429447852761 80.0518638573743  C 57.5429447852761 80.0518638573743  61.2883435582822 80.0518638573743  61.2883435582822 80.0518638573743  C 61.2883435582822 80.0518638573743  62.6503067484663 79.5753646677471  62.6503067484663 79.5753646677471  C 63.1950920245399 79.2350081037277  63.6717791411043 79.030794165316  64.0803680981595 79.030794165316  C 64.0803680981595 79.030794165316  66.259509202454 79.030794165316  66.259509202454 79.030794165316  L 67.280981595092 79.7795786061588  C 67.280981595092 79.7795786061588  70.2092024539877 80.3922204213938  70.2092024539877 80.3922204213938  C 70.6177914110429 80.3922204213938  71.0263803680982 80.7325769854132  71.7073619631902 81.3452188006483  C 71.7073619631902 81.3452188006483  72.9331288343558 82.1620745542949  72.9331288343558 82.1620745542949  L 73.0693251533742 82.2982171799027  L 75.8613496932515 82.3662884927066  L 75.9294478527607 82.3662884927066  L 77.2233128834356 83.0470016207455  L 78.9257668711656 83.3873581847649  L 78.9938650306748 83.3873581847649  L 80.4239263803681 83.5915721231766  L 80.8325153374233 82.7747163695299  L 80.2196319018405 81.4132901134521  L 79.9472392638037 80.0518638573743  L 79.9472392638037 79.9837925445704  L 79.8791411042945 79.9837925445704  L 80.0834355828221 79.7795786061588  L 81.0368098159509 78.4862236628849  L 81.0368098159509 78.418152350081  L 81.1049079754601 78.418152350081  L 81.1049079754601 78.3500810372771  L 82.0582822085889 77.6693679092382  L 81.8539877300614 77.2609400324149  C 81.8539877300614 77.2609400324149  81.4453987730061 75.8995137763371  81.4453987730061 75.8995137763371  C 81.4453987730061 75.6952998379254  81.2411042944785 75.5591572123176  80.8325153374233 75.2868719611021  C 80.8325153374233 75.2868719611021  79.8110429447853 74.1977309562398  79.8110429447853 74.1977309562398  L 78.5171779141104 73.1085899513776  L 78.4490797546012 72.9724473257698  L 78.3128834355828 72.9043760129659  L 78.380981595092 72.836304700162  L 78.380981595092 72.7001620745543  L 78.5852760736196 71.4068071312803  L 78.5852760736196 70.4538087520259  L 77.9723926380368 68.8200972447325  L 79.5386503067485 68.4797406807131  L 80.2877300613497 67.7309562398703  L 82.1944785276074 67.7309562398703  L 84.101226993865 67.4586709886547  L 84.1693251533742 67.4586709886547  L 85.4631901840491 67.5948136142625  L 86.9613496932515 67.0502431118314  L 88.6638036809816 66.8460291734197  L 89.7533742331289 66.3695299837925  L 89.821472392638 66.3695299837925  L 92.7496932515338 65.8249594813614  L 93.2263803680982 65.3484602917342  L 93.0901840490798 64.803889789303  L 92.5453987730061 63.8508914100486  L 92.5453987730061 63.7828200972447  L 92.4773006134969 63.7147487844408  L 92.4773006134969 63.6466774716369  L 92.6134969325153 62.6256077795786  L 92.6815950920245 62.5575364667747  L 92.6815950920245 61.128038897893  L 92.4092024539877 59.902755267423  L 92.4092024539877 59.8346839546191  C 92.4092024539877 59.8346839546191  93.0901840490798 58.4732576985413  93.0901840490798 58.4732576985413  C 93.3625766871166 57.8606158833063  93.7030674846626 57.5202593192868  94.1116564417178 57.5202593192868  C 94.1116564417178 57.5202593192868  95.8822085889571 57.6564019448946  95.8822085889571 57.6564019448946  C 96.1546012269939 57.6564019448946  96.4950920245399 57.5202593192868  96.8355828220859 57.2479740680713  C 96.8355828220859 57.2479740680713  99.4914110429448 53.6401944894651  99.4914110429448 53.6401944894651  L 99.4914110429448 53.5721231766612  L 99.559509202454 53.5040518638573  L 100.989570552147 52.3468395461912  C 100.989570552147 52.3468395461912  101.125766871166 52.2106969205834  101.125766871166 52.2106969205834  C 101.670552147239 52.0745542949757  102.011042944785 51.870340356564  102.215337423313 51.7341977309562  C 102.215337423313 51.7341977309562  102.555828220859 51.3938411669368  102.555828220859 51.3938411669368  C 103.032515337423 50.7811993517017  103.441104294479 50.5089141004862  103.713496932515 50.5089141004862  C 103.713496932515 50.5089141004862  106.028834355828 50.9854132901134  106.028834355828 50.9854132901134  L 108.003680981595 50.032414910859  L 108.071779141104 50.032414910859  L 108.139877300614 50.032414910859  L 109.29754601227 49.8962722852512  L 110.250920245399 49.4878444084278  L 110.250920245399 47.9222042139384  L 110.523312883436 45.9481361426256  L 110.523312883436 45.8800648298217  L 110.523312883436 45.8119935170178  L 110.863803680982 45.2674230145867  Z " fill-rule="nonzero" fill="#4a9eff" stroke="none" transform="matrix(1 0 0 1 1826 1798 )" />
    <path d="M 110.863803680982 45.2674230145867  L 110.863803680982 45.1993517017828  L 110.931901840491 45.1312803889789  L 111 45.1312803889789  L 111 45.063209076175  L 108.820858895706 38.868719611021  L 107.458895705521 37.7795786061588  L 107.458895705521 37.643435980551  L 107.118404907975 35.1247974068071  L 104.258282208589 34.7163695299838  L 104.19018404908 34.7163695299838  L 104.053987730061 34.7163695299838  L 104.053987730061 34.6482982171799  L 103.985889570552 34.5121555915721  C 103.985889570552 34.5121555915721  103.985889570552 34.4440842787682  103.985889570552 34.4440842787682  C 103.645398773006 33.4910858995138  102.760122699387 32.4700162074554  101.398159509202 31.3808752025932  C 100.649079754601 30.7682333873582  99.9 30.3598055105348  99.2871165644172 30.223662884927  C 98.8104294478528 29.9513776337115  98.3337423312883 29.7471636952998  97.9932515337423 29.4748784440843  C 97.1079754601227 28.8622366288492  94.0435582822086 28.385737439222  88.6638036809816 28.2495948136143  C 88.6638036809816 28.2495948136143  88.459509202454 28.2495948136143  88.459509202454 28.2495948136143  C 88.459509202454 28.2495948136143  87.8466257668712 27.2965964343598  87.8466257668712 27.2965964343598  C 87.5742331288344 26.6839546191248  87.3699386503068 26.1393841166937  87.3018404907976 25.5267423014587  C 87.3018404907976 24.7779578606159  88.1871165644172 22.3273905996758  90.0938650306749 18.3111831442463  C 90.0938650306749 18.3111831442463  89.140490797546 15.3160453808752  89.140490797546 15.3160453808752  C 89.140490797546 15.3160453808752  88.119018404908 10.5510534846029  88.119018404908 10.5510534846029  C 87.9828220858896 9.87034035656401  86.8251533742331 9.25769854132901  84.7822085889571 8.645056726094  C 84.3736196319018 8.50891410048622  83.9650306748466 8.37277147487844  83.5564417177914 8.10048622366288  C 82.8073619631902 7.76012965964343  82.2625766871166 7.14748784440842  81.9901840490798 6.39870340356563  C 81.5815950920245 5.51377633711507  80.9006134969325 4.76499189627228  79.9472392638037 4.35656401944894  C 79.9472392638037 4.35656401944894  79.8791411042945 4.28849270664505  79.8791411042945 4.28849270664505  L 79.8110429447853 4.22042139384117  L 78.9938650306748 0  L 75.7251533742331 0.340356564019449  C 75.7251533742331 0.340356564019449  75.3846625766871 1.22528363047002  75.3846625766871 1.22528363047002  C 74.9760736196319 2.6547811993517  74.5674846625767 3.3354943273906  74.0907975460123 3.3354943273906  C 74.0907975460123 3.3354943273906  71.979754601227 4.0162074554295  71.979754601227 4.0162074554295  C 70.6858895705522 4.49270664505672  69.8687116564417 5.03727714748784  69.4601226993865 5.64991896272285  C 69.2558282208589 5.92220421393841  69.0515337423313 6.73905996758508  68.9153374233129 7.82820097244732  C 68.7110429447853 9.05348460291734  68.5067484662577 9.93841166936791  68.2343558282209 10.482982171799  C 67.8257668711656 11.3679092382496  67.2128834355828 12.0486223662885  66.259509202454 12.3889789303079  C 64.4889570552147 13.0696920583468  61.4926380368098 11.9124797406807  57.3386503067485 8.98541329011345  C 57.3386503067485 8.98541329011345  51.7546012269939 16.1329011345219  51.7546012269939 16.1329011345219  L 52.4355828220859 19.0599675850891  L 52.5036809815951 19.0599675850891  L 52.5717791411043 19.1961102106969  L 52.4355828220859 19.2641815235008  C 52.4355828220859 19.2641815235008  52.4355828220859 19.3322528363047  52.4355828220859 19.3322528363047  C 52.1631901840491 19.740680713128  51.7546012269939 20.0129659643436  51.2785950920245 20.0810372771475  C 50.7331288343558 20.2171799027553  50.1883435582822 20.0129659643436  49.5761411042945 19.6045380875203  C 49.0306748466258 19.1961102106969  47.4644171779141 18.8557536466775  44.9447852760736 18.7196110210697  C 44.9447852760736 18.7196110210697  43.7877975460123 18.6515397082658  43.7877975460123 18.6515397082658  L 42.0853435582822 18.515397082658  L 40.2460122699386 18.8557536466775  C 40.2460122699386 18.8557536466775  41.0638711656442 20.0129659643436  41.0638711656442 20.0129659643436  C 41.7448527607362 20.8978930307942  42.0165644171779 21.4424635332253  41.9484662576687 21.7828200972447  C 41.9484662576687 21.7828200972447  41.1993865030675 26.2074554294976  41.1993865030675 26.2074554294976  L 41.5398773006135 28.5899513776337  L 41.6079754601227 28.5899513776337  L 41.6079754601227 28.6580226904376  L 41.5398773006135 28.7260940032415  C 41.5398773006135 28.7260940032415  40.1779141104294 33.1507293354943  40.1779141104294 33.1507293354943  C 40.1098159509202 33.5591572123177  39.9736196319018 33.7633711507293  39.8374233128834 33.6952998379254  C 39.8374233128834 33.6952998379254  39.7019079754601 33.6952998379254  39.7019079754601 33.6952998379254  L 39.7019079754601 33.6272285251215  C 39.7019079754601 33.6272285251215  39.4969325153374 33.2188006482982  39.4969325153374 33.2188006482982  C 39.2245398773006 32.6742301458671  39.0883435582822 32.4700162074554  38.8840490797546 32.5380875202593  C 38.7478527607362 32.6061588330632  38.5435582822086 32.8784440842788  38.4754601226994 33.4910858995138  C 38.2030674846626 34.7163695299838  37.4539877300614 35.7374392220421  36.297 36.8265802269044  C 36.297 36.8265802269044  35.0705521472393 37.7795786061588  35.0705521472393 37.7795786061588  L 34.4576687116564 38.1199351701783  L 34.3895705521472 38.1199351701783  L 29.9631901840491 38.1880064829822  L 28.260736196319 39.8217179902755  L 28.1926380368098 39.8217179902755  L 28.0564417177914 39.8217179902755  L 27.9883435582822 39.8217179902755  C 27.9883435582822 39.8217179902755  23.2895705521472 39.1410048622366  23.2895705521472 39.1410048622366  C 22.540490797546 39.9578606158833  21.7914110429448 40.2301458670988  21.0423312883436 40.0940032414911  C 20.3613496932515 39.8897893030794  19.2036809815951 40.162074554295  17.5700061349693 40.77471636953  C 17.5700061349693 40.77471636953  15.6625766871166 43.0210696920583  15.6625766871166 43.0210696920583  L 15.5944785276074 43.1572123176661  L 12.5981595092025 43.22528363047  L 12.5981595092025 40.7066450567261  L 10.6914110429448 40.7066450567261  L 10.3509202453988 41.7957860615883  L 8.92085889570552 42.1361426256078  L 8.78466257668712 42.1361426256078  L 8.71724539877301 42.0680713128039  C 8.71724539877301 42.0680713128039  8.64846625766871 42.0680713128039  8.64846625766871 42.0680713128039  C 7.76319018404908 41.5235008103728  6.67430061349693 41.1150729335494  5.5840490797546 40.9789303079416  C 4.97184662576687 40.9108589951377  4.22208588957055 41.3192868719611  3.13251533742331 42.2722852512155  C 1.97484662576687 43.22528363047  1.15766871165644 44.1102106969206  0.749079754601227 44.9270664505672  C 0.953374233128834 45.063209076175  1.08957055214724 45.3354943273906  1.08957055214724 45.7439222042139  C 1.22644785276074 46.2204213938411  1.29386503067485 46.6288492706645  1.29386503067485 47.1734197730956  C 1.22644785276074 47.7179902755267  1.02147239263804 48.0583468395462  0.749079754601227 48.3306320907617  C 0.408588957055215 48.5348460291734  0.204975460122699 49.1474878444084  0 50.2366288492706  C 0 50.2366288492706  1.08957055214724 50.9854132901134  1.08957055214724 50.9854132901134  L 2.58841104294479 49.419773095624  L 4.49447852760736 51.5299837925445  L 4.49447852760736 51.6661264181523  L 4.90306748466258 55.4100486223663  L 4.90306748466258 55.4781199351701  L 4.83496932515337 55.4781199351701  L 3.74539877300613 60.6515397082658  C 3.74539877300613 60.6515397082658  3.47300613496933 60.6515397082658  3.47300613496933 60.6515397082658  C 1.90742944785276 60.6515397082658  0.885957055214724 60.7196110210697  0.476687116564417 60.9918962722852  C 0.545466257668711 61.3322528363047  1.22644785276074 61.8768233387358  2.38343558282209 62.6256077795786  C 2.38343558282209 62.6256077795786  3.33680981595092 62.4894651539708  3.33680981595092 62.4894651539708  L 3.54110429447853 62.4894651539708  L 3.60988343558282 62.5575364667747  C 3.60988343558282 62.5575364667747  5.85644171779141 64.7358184764991  5.85644171779141 64.7358184764991  C 6.74171779141104 65.4846029173419  6.67430061349693 66.7779578606158  5.5159509202454 68.6839546191247  C 5.5159509202454 68.6839546191247  5.85644171779141 70.7941653160453  5.85644171779141 70.7941653160453  L 6.74171779141104 70.998379254457  L 10.2147239263804 70.998379254457  L 8.4441717791411 72.6320907617504  L 9.46564417177914 73.1766612641815  L 10.8276073619632 73.9254457050243  L 14.5055889570552 75.4910858995137  L 14.5730061349693 75.5591572123176  L 14.7092024539877 75.5591572123176  C 14.7092024539877 75.5591572123176  15.0496932515337 81.1410048622366  15.0496932515337 81.1410048622366  C 15.1177914110429 82.2301458670988  15.9349693251534 83.0470016207455  17.5700061349693 83.5915721231766  C 17.5700061349693 83.5915721231766  17.841717791411 83.4554294975688  17.841717791411 83.4554294975688  L 17.9104969325153 83.4554294975688  L 17.9779141104294 83.4554294975688  L 21.7914110429448 83.9999999999999  L 22.0638036809816 83.9999999999999  L 22.0638036809816 83.931928687196  C 22.0638036809816 83.931928687196  22.1319018404908 83.7957860615883  22.1319018404908 83.7957860615883  C 22.540490797546 83.0470016207455  22.8128834355828 82.5024311183144  22.8128834355828 82.3662884927066  C 22.8128834355828 82.3662884927066  22.8128834355828 82.2301458670988  22.8128834355828 82.2301458670988  C 22.7447852760736 81.6175040518638  23.0178588957055 81.0729335494327  23.561963190184 80.6645056726094  C 24.1067484662577 80.256077795786  24.4472392638037 79.8476499189627  24.6515337423313 79.3711507293354  C 24.6515337423313 79.3711507293354  24.7203128834356 79.3030794165315  24.7203128834356 79.3030794165315  C 24.9239263803681 78.7585089141004  25.6049079754601 78.6223662884927  26.7632576687117 78.9627228525121  C 26.7632576687117 78.9627228525121  26.8306748466258 78.9627228525121  26.8306748466258 78.9627228525121  L 28.1252208588957 79.7115072933549  L 32.4147239263804 80.5283630470016  L 35.0705521472393 80.3241491085899  C 35.0705521472393 80.3241491085899  36.977981595092 79.5072933549432  36.977981595092 79.5072933549432  C 37.318472392638 79.030794165316  37.5901840490798 78.8265802269043  37.7944785276074 78.6904376012966  C 38.1349693251534 78.6223662884927  38.6116564417178 78.7585089141004  39.1564417177914 79.2350081037277  C 39.1564417177914 79.2350081037277  39.4288343558282 79.3711507293354  39.4288343558282 79.3711507293354  C 39.7019079754601 79.5753646677471  39.9055214723927 79.9837925445704  40.1779141104294 80.7325769854132  C 40.1779141104294 80.7325769854132  41.5398773006135 81.7536466774716  41.5398773006135 81.7536466774716  L 42.5613496932515 81.7536466774716  L 42.6294478527607 81.7536466774716  L 42.7663251533742 81.7536466774716  L 42.8337423312883 81.7536466774716  L 44.2638036809816 82.3662884927066  L 46.9196319018405 82.1620745542949  L 48.4177914110429 81.6855753646677  L 52.3000674846626 82.0259319286871  L 54.0025214723927 81.5494327390599  C 54.0025214723927 81.5494327390599  55.9766871165644 80.7325769854132  55.9766871165644 80.7325769854132  C 56.3852760736196 80.4602917341977  56.8619631901841 80.256077795786  57.5429447852761 80.0518638573743  C 57.5429447852761 80.0518638573743  61.2883435582822 80.0518638573743  61.2883435582822 80.0518638573743  C 61.2883435582822 80.0518638573743  62.6503067484663 79.5753646677471  62.6503067484663 79.5753646677471  C 63.1950920245399 79.2350081037277  63.6717791411043 79.030794165316  64.0803680981595 79.030794165316  C 64.0803680981595 79.030794165316  66.259509202454 79.030794165316  66.259509202454 79.030794165316  L 67.280981595092 79.7795786061588  C 67.280981595092 79.7795786061588  70.2092024539877 80.3922204213938  70.2092024539877 80.3922204213938  C 70.6177914110429 80.3922204213938  71.0263803680982 80.7325769854132  71.7073619631902 81.3452188006483  C 71.7073619631902 81.3452188006483  72.9331288343558 82.1620745542949  72.9331288343558 82.1620745542949  L 73.0693251533742 82.2982171799027  L 75.8613496932515 82.3662884927066  L 75.9294478527607 82.3662884927066  L 77.2233128834356 83.0470016207455  L 78.9257668711656 83.3873581847649  L 78.9938650306748 83.3873581847649  L 80.4239263803681 83.5915721231766  L 80.8325153374233 82.7747163695299  L 80.2196319018405 81.4132901134521  L 79.9472392638037 80.0518638573743  L 79.9472392638037 79.9837925445704  L 79.8791411042945 79.9837925445704  L 80.0834355828221 79.7795786061588  L 81.0368098159509 78.4862236628849  L 81.0368098159509 78.418152350081  L 81.1049079754601 78.418152350081  L 81.1049079754601 78.3500810372771  L 82.0582822085889 77.6693679092382  L 81.8539877300614 77.2609400324149  C 81.8539877300614 77.2609400324149  81.4453987730061 75.8995137763371  81.4453987730061 75.8995137763371  C 81.4453987730061 75.6952998379254  81.2411042944785 75.5591572123176  80.8325153374233 75.2868719611021  C 80.8325153374233 75.2868719611021  79.8110429447853 74.1977309562398  79.8110429447853 74.1977309562398  L 78.5171779141104 73.1085899513776  L 78.4490797546012 72.9724473257698  L 78.3128834355828 72.9043760129659  L 78.380981595092 72.836304700162  L 78.380981595092 72.7001620745543  L 78.5852760736196 71.4068071312803  L 78.5852760736196 70.4538087520259  L 77.9723926380368 68.8200972447325  L 79.5386503067485 68.4797406807131  L 80.2877300613497 67.7309562398703  L 82.1944785276074 67.7309562398703  L 84.101226993865 67.4586709886547  L 84.1693251533742 67.4586709886547  L 85.4631901840491 67.5948136142625  L 86.9613496932515 67.0502431118314  L 88.6638036809816 66.8460291734197  L 89.7533742331289 66.3695299837925  L 89.821472392638 66.3695299837925  L 92.7496932515338 65.8249594813614  L 93.2263803680982 65.3484602917342  L 93.0901840490798 64.803889789303  L 92.5453987730061 63.8508914100486  L 92.5453987730061 63.7828200972447  L 92.4773006134969 63.7147487844408  L 92.4773006134969 63.6466774716369  L 92.6134969325153 62.6256077795786  L 92.6815950920245 62.5575364667747  L 92.6815950920245 61.128038897893  L 92.4092024539877 59.902755267423  L 92.4092024539877 59.8346839546191  C 92.4092024539877 59.8346839546191  93.0901840490798 58.4732576985413  93.0901840490798 58.4732576985413  C 93.3625766871166 57.8606158833063  93.7030674846626 57.5202593192868  94.1116564417178 57.5202593192868  C 94.1116564417178 57.5202593192868  95.8822085889571 57.6564019448946  95.8822085889571 57.6564019448946  C 96.1546012269939 57.6564019448946  96.4950920245399 57.5202593192868  96.8355828220859 57.2479740680713  C 96.8355828220859 57.2479740680713  99.4914110429448 53.6401944894651  99.4914110429448 53.6401944894651  L 99.4914110429448 53.5721231766612  L 99.559509202454 53.5040518638573  L 100.989570552147 52.3468395461912  C 100.989570552147 52.3468395461912  101.125766871166 52.2106969205834  101.125766871166 52.2106969205834  C 101.670552147239 52.0745542949757  102.011042944785 51.870340356564  102.215337423313 51.7341977309562  C 102.215337423313 51.7341977309562  102.555828220859 51.3938411669368  102.555828220859 51.3938411669368  C 103.032515337423 50.7811993517017  103.441104294479 50.5089141004862  103.713496932515 50.5089141004862  C 103.713496932515 50.5089141004862  106.028834355828 50.9854132901134  106.028834355828 50.9854132901134  L 108.003680981595 50.032414910859  L 108.071779141104 50.032414910859  L 108.139877300614 50.032414910859  L 109.29754601227 49.8962722852512  L 110.250920245399 49.4878444084278  L 110.250920245399 47.9222042139384  L 110.523312883436 45.9481361426256  L 110.523312883436 45.8800648298217  L 110.523312883436 45.8119935170178  L 110.863803680982 45.2674230145867  Z " stroke-width="2" stroke="#ffffff" fill="none" transform="matrix(1 0 0 1 1826 1798 )" mask="url(#clip1399)" />
  </g>
</svg>