<?xml version="1.0" encoding="utf-8"?>
<svg version="1.1" xmlns:xlink="http://www.w3.org/1999/xlink" width="13px" height="13px" xmlns="http://www.w3.org/2000/svg">
  <g transform="matrix(1 0 0 1 -220 -1162 )">
    <path d="M 0.997927458916591 2.77791935886228  C 0.997927458916591 2.77791935886228  5.33126079224992 0.269147429037745  5.33126079224992 0.269147429037745  C 5.95111547730656 -0.0897158096792471  6.71555118936011 -0.0897158096792471  7.33540587441675 0.269147429037745  C 7.33540587441675 0.269147429037745  11.6687392077501 2.77791935886228  11.6687392077501 2.77791935886228  C 12.2863731405692 3.13549689891542  12.6666666666667 3.79509597246009  12.6666666666667 4.50877192982451  C 12.6666666666667 4.50877192982451  12.6666666666667 10.3556668350771  12.6666666666667 10.3556668350771  C 12.6666666666667 11.4602363347386  11.7712361663283 12.355666835077  10.6666666666667 12.355666835077  C 10.6666666666667 12.355666835077  2 12.355666835077  2 12.355666835077  C 0.895430500338414 12.355666835077  0 11.4602363347386  0 10.3556668350771  C 0 10.3556668350771  0 4.50877192982451  0 4.50877192982451  C 0 3.7950959724601  0.380293526097512 3.13549689891542  0.997927458916591 2.77791935886228  Z M 5.66666666666666 7.81400016841089  L 5.66666666666666 11.0223335017442  L 6.99999999999999 11.0223335017442  L 6.99999999999999 7.81400016841089  C 6.99999999999999 7.55733350174423  6.70666666666666 7.35566683507756  6.33333333333333 7.35566683507756  C 5.95999999999999 7.35566683507756  5.66666666666666 7.55733350174423  5.66666666666666 7.81400016841089  Z " fill-rule="nonzero" fill="#237ffa" stroke="none" transform="matrix(1 0 0 1 220 1162 )" />
  </g>
</svg>