<?xml version="1.0" encoding="utf-8"?>
<svg version="1.1" xmlns:xlink="http://www.w3.org/1999/xlink" width="7px" height="6px" xmlns="http://www.w3.org/2000/svg">
  <g transform="matrix(1 0 0 1 -472 -2409 )">
    <path d="M 5.32627824465594 0.308507725175753  C 5.14311767097019 0.110986865796107  4.89460446435672 0  4.63555998868888 0  C 4.63555998868888 0  2.36447094014828 0  2.36447094014828 0  C 2.10539553564328 0  1.85688232902981 0.111002550768663  1.67367536208831 0.308523410148309  C 1.67367536208831 0.308523410148309  0.109140134142785 1.99566179800762  0.109140134142785 1.99566179800762  C -0.036380044714262 2.15258994841605  -0.036380044714262 2.40707862811388  0.109140134142785 2.56403814846741  C 0.109140134142785 2.56403814846741  3.15079023178954 5.84400118421543  3.15079023178954 5.84400118421543  C 3.34367792476339 6.05199960526153  3.65632207523661 6.05199960526153  3.84916337495471 5.84400118421543  C 3.84916337495471 5.84400118421543  6.89081347260147 2.56403814846741  6.89081347260147 2.56403814846741  C 7.03639550913284 2.40707862811388  7.03639550913284 2.1526056333886  6.89081347260147 1.99566179800762  C 6.89081347260147 1.99566179800762  5.32627824465594 0.308507725175753  5.32627824465594 0.308507725175753  Z " fill-rule="nonzero" fill="#ffffff" stroke="none" transform="matrix(1 0 0 1 472 2409 )" />
  </g>
</svg>