<?xml version="1.0" encoding="utf-8"?>
<svg version="1.1" xmlns:xlink="http://www.w3.org/1999/xlink" width="31px" height="31px" xmlns="http://www.w3.org/2000/svg">
  <defs>
    <mask fill="white" id="clip120">
      <path d="M 6.85544768069042 10.2405036217527  L 6.78856526429342 10.2405036217527  L 6.72168284789642 10.2405036217527  L 1.638619201726 12.3428586699271  C 1.638619201726 12.3428586699271  0.100323624595463 13.8348525750831  0.100323624595463 13.8348525750831  C -0.16720604099244 16.140661337597  0.100323624595463 17.4970194331933  0.90291262135921 17.9039268618723  C 0.90291262135921 17.9039268618723  2.37432578209275 18.8533775287897  2.37432578209275 18.8533775287897  L 2.44120819848975 18.8533775287897  L 2.44120819848975 18.9211954335695  C 2.44120819848975 18.9211954335695  2.84250269687164 21.4304579104229  2.84250269687164 21.4304579104229  C 4.11326860841424 23.1259055299183  4.98274002157498 24.007538292056  5.45091693635383 24.2109920063955  C 5.45091693635383 24.2109920063955  6.92233009708737 24.5500815302945  6.92233009708737 24.5500815302945  L 7.12297734627832 24.6178994350744  C 7.12297734627832 24.6178994350744  7.12297734627832 24.6857173398542  7.12297734627832 24.6857173398542  C 7.32362459546926 24.9569889589735  7.79180151024812 25.2282605780927  8.66127292340885 25.499532197212  C 8.66127292340885 25.499532197212  12.6742179072276 25.7029859115515  12.6742179072276 25.7029859115515  C 15.6170442286947 25.7029859115515  17.2891046386192 25.9064396258909  17.6235167206041 26.24552914979  C 17.957928802589 26.5168007689093  18.024811218986 27.1949798167075  17.957928802589 28.2122483884048  C 17.891046386192 28.890427436203  17.957928802589 29.2973348648819  18.024811218986 29.3651527696617  C 18.024811218986 29.3651527696617  19.4962243797195 29.0260632457626  19.4962243797195 29.0260632457626  C 20.6332254584682 28.6191558170837  21.302049622438 28.6191558170837  21.6364617044229 28.9582453409828  C 21.6364617044229 28.9582453409828  22.1715210355987 29.636424388781  22.1715210355987 29.636424388781  C 22.9741100323625 30.6536929604783  23.5091693635383 31.0606003891572  23.6429341963323 30.9927824843774  C 24.0442286947142 30.8571466748177  24.512405609493 30.4502392461388  24.9805825242718 29.7720601983406  C 24.9805825242718 29.7720601983406  25.1143473570658 29.5686064840012  25.1143473570658 29.5686064840012  L 26.3182308522114 30.3146034365792  C 26.3182308522114 30.3146034365792  27.0539374325782 29.7042422935608  27.0539374325782 29.7042422935608  C 27.2545846817692 28.7547916266433  27.722761596548 28.2800662931846  28.5253505933118 28.2122483884048  C 28.5253505933118 28.2122483884048  28.8597626752967 28.0766125788451  28.8597626752967 28.0766125788451  L 28.7259978425027 27.8053409597259  L 28.5922330097088 27.6697051501662  L 28.6591154261057 27.6018872453864  C 28.6591154261057 27.6018872453864  28.7259978425027 25.9064396258909  28.7259978425027 25.9064396258909  C 28.1909385113269 25.0926247685331  27.5221143473571 24.8213531494138  26.7864077669903 24.9569889589735  C 26.0507011866235 25.1604426733129  25.5156418554477 25.1604426733129  25.3149946062568 24.8891710541936  C 25.1812297734628 24.6857173398542  25.1812297734628 24.5500815302945  25.1812297734628 24.2788099111753  C 24.713052858684 23.4649950538174  24.2448759439051 22.7868160060193  23.6429341963323 22.1764548630009  C 22.8403451995685 21.4982758152027  22.6396979503776 20.8879146721843  22.8403451995685 20.2775535291659  C 22.8403451995685 20.2775535291659  22.9741100323625 20.0740998148265  22.9741100323625 20.0740998148265  L 24.8468176914779 20.4131893387256  C 24.8468176914779 20.4131893387256  24.713052858684 19.2602849574686  24.713052858684 19.2602849574686  C 24.646170442287 18.5821059096704  24.713052858684 18.1073805762117  25.0474649406688 17.7682910523126  C 25.1812297734628 17.4970194331933  25.5156418554477 17.3613836236337  25.8500539374326 17.2935657188539  C 25.8500539374326 17.2935657188539  26.6526429341963 17.0222940997346  26.6526429341963 17.0222940997346  C 26.6526429341963 17.0222940997346  26.6526429341963 16.6832045758355  26.6526429341963 16.6832045758355  C 26.0507011866235 15.394664385019  25.8500539374326 14.4452137181015  26.1175836030205 14.0383062894226  C 26.1175836030205 14.0383062894226  26.5188781014024 13.6992167655235  26.5188781014024 13.6992167655235  C 26.7195253505933 13.6313988607437  27.3883495145631 13.7670346703033  28.3247033441208 14.1061241942024  C 28.3247033441208 14.1061241942024  28.3915857605178 14.1739420989822  28.3915857605178 14.1739420989822  C 28.3915857605178 14.1739420989822  28.3915857605178 14.3095779085418  28.3915857605178 14.3095779085418  C 29.1272923408846 15.1912106706795  29.5285868392665 15.733753908918  29.7292340884574 15.8693897184777  C 29.7292340884574 15.8693897184777  31 13.7670346703033  31 13.7670346703033  C 29.8629989212514 12.3428586699271  29.2610571736786 11.3255900982298  29.0604099244876 10.9186826695509  C 29.0604099244876 10.9186826695509  28.0571736785329 11.5968617173491  28.0571736785329 11.5968617173491  L 27.923408845739 11.4612259077894  L 25.2481121898598 10.7830468599912  L 25.1812297734628 10.7830468599912  C 25.1812297734628 10.7830468599912  25.1812297734628 10.7152289552114  25.1812297734628 10.7152289552114  C 24.0442286947142 10.1726857169729  23.3754045307444 9.5623245739545  23.3085221143474 8.95196343093613  C 23.3085221143474 8.95196343093613  21.7033441208199 8.20596647835812  21.7033441208199 8.20596647835812  L 21.7033441208199 6.64615466842227  C 21.7033441208199 6.64615466842227  24.646170442287 4.88288914414698  24.646170442287 4.88288914414698  C 24.512405609493 4.06907428678915  24.3117583603021 3.25525942943131  23.9773462783172 2.57708038163312  C 23.9773462783172 2.57708038163312  23.5091693635383 1.62762971471565  23.5091693635383 1.62762971471565  C 23.5091693635383 1.62762971471565  21.5026968716289 1.83108342905511  21.5026968716289 1.83108342905511  C 20.5663430420712 2.23799085773402  19.6968716289105 2.44144457207349  18.8274002157497 2.44144457207349  C 18.8274002157497 2.44144457207349  16.7540453074434 1.96671923861474  16.7540453074434 1.96671923861474  L 16.7540453074434 1.22072228603673  L 16.4196332254585 1.15290438125692  L 15.8176914778857 0.949450666917454  L 15.6839266450917 0.542543238238542  L 15.6839266450917 0.474725333458727  L 15.6170442286947 0.271271619119261  L 15.6170442286947 0.203453714339446  L 15.6170442286947 0  L 15.4832793959008 0.0678179047798153  L 15.3495145631068 1.83108342905511  C 15.3495145631068 1.83108342905511  15.2826321467098 2.44144457207349  15.2826321467098 2.44144457207349  C 15.1488673139159 2.78053409597258  15.0151024811219 2.98398781031203  15.1488673139159 3.11962361987168  C 15.4832793959008 3.59434895333041  15.4163969795038 4.13689219156897  15.0819848975189 4.6116175250277  C 15.0819848975189 4.6116175250277  15.3495145631068 5.76452190628463  15.3495145631068 5.76452190628463  L 15.2826321467098 5.83233981106445  L 15.1488673139159 5.90015771584426  L 14.3462783171521 6.64615466842227  L 14.3462783171521 8.20596647835812  C 14.3462783171521 8.20596647835812  14.1456310679612 8.27378438313794  14.1456310679612 8.27378438313794  C 12.6742179072276 8.95196343093613  11.6709816612729 9.29105295483522  11.0690399137001 9.29105295483522  C 11.0690399137001 9.29105295483522  8.12621359223301 9.08759924049576  8.12621359223301 9.08759924049576  L 6.85544768069042 10.2405036217527  Z " fill-rule="evenodd" />
    </mask>
  </defs>
  <g transform="matrix(1 0 0 1 -2007 -1882 )">
    <path d="M 6.85544768069042 10.2405036217527  L 6.78856526429342 10.2405036217527  L 6.72168284789642 10.2405036217527  L 1.638619201726 12.3428586699271  C 1.638619201726 12.3428586699271  0.100323624595463 13.8348525750831  0.100323624595463 13.8348525750831  C -0.16720604099244 16.140661337597  0.100323624595463 17.4970194331933  0.90291262135921 17.9039268618723  C 0.90291262135921 17.9039268618723  2.37432578209275 18.8533775287897  2.37432578209275 18.8533775287897  L 2.44120819848975 18.8533775287897  L 2.44120819848975 18.9211954335695  C 2.44120819848975 18.9211954335695  2.84250269687164 21.4304579104229  2.84250269687164 21.4304579104229  C 4.11326860841424 23.1259055299183  4.98274002157498 24.007538292056  5.45091693635383 24.2109920063955  C 5.45091693635383 24.2109920063955  6.92233009708737 24.5500815302945  6.92233009708737 24.5500815302945  L 7.12297734627832 24.6178994350744  C 7.12297734627832 24.6178994350744  7.12297734627832 24.6857173398542  7.12297734627832 24.6857173398542  C 7.32362459546926 24.9569889589735  7.79180151024812 25.2282605780927  8.66127292340885 25.499532197212  C 8.66127292340885 25.499532197212  12.6742179072276 25.7029859115515  12.6742179072276 25.7029859115515  C 15.6170442286947 25.7029859115515  17.2891046386192 25.9064396258909  17.6235167206041 26.24552914979  C 17.957928802589 26.5168007689093  18.024811218986 27.1949798167075  17.957928802589 28.2122483884048  C 17.891046386192 28.890427436203  17.957928802589 29.2973348648819  18.024811218986 29.3651527696617  C 18.024811218986 29.3651527696617  19.4962243797195 29.0260632457626  19.4962243797195 29.0260632457626  C 20.6332254584682 28.6191558170837  21.302049622438 28.6191558170837  21.6364617044229 28.9582453409828  C 21.6364617044229 28.9582453409828  22.1715210355987 29.636424388781  22.1715210355987 29.636424388781  C 22.9741100323625 30.6536929604783  23.5091693635383 31.0606003891572  23.6429341963323 30.9927824843774  C 24.0442286947142 30.8571466748177  24.512405609493 30.4502392461388  24.9805825242718 29.7720601983406  C 24.9805825242718 29.7720601983406  25.1143473570658 29.5686064840012  25.1143473570658 29.5686064840012  L 26.3182308522114 30.3146034365792  C 26.3182308522114 30.3146034365792  27.0539374325782 29.7042422935608  27.0539374325782 29.7042422935608  C 27.2545846817692 28.7547916266433  27.722761596548 28.2800662931846  28.5253505933118 28.2122483884048  C 28.5253505933118 28.2122483884048  28.8597626752967 28.0766125788451  28.8597626752967 28.0766125788451  L 28.7259978425027 27.8053409597259  L 28.5922330097088 27.6697051501662  L 28.6591154261057 27.6018872453864  C 28.6591154261057 27.6018872453864  28.7259978425027 25.9064396258909  28.7259978425027 25.9064396258909  C 28.1909385113269 25.0926247685331  27.5221143473571 24.8213531494138  26.7864077669903 24.9569889589735  C 26.0507011866235 25.1604426733129  25.5156418554477 25.1604426733129  25.3149946062568 24.8891710541936  C 25.1812297734628 24.6857173398542  25.1812297734628 24.5500815302945  25.1812297734628 24.2788099111753  C 24.713052858684 23.4649950538174  24.2448759439051 22.7868160060193  23.6429341963323 22.1764548630009  C 22.8403451995685 21.4982758152027  22.6396979503776 20.8879146721843  22.8403451995685 20.2775535291659  C 22.8403451995685 20.2775535291659  22.9741100323625 20.0740998148265  22.9741100323625 20.0740998148265  L 24.8468176914779 20.4131893387256  C 24.8468176914779 20.4131893387256  24.713052858684 19.2602849574686  24.713052858684 19.2602849574686  C 24.646170442287 18.5821059096704  24.713052858684 18.1073805762117  25.0474649406688 17.7682910523126  C 25.1812297734628 17.4970194331933  25.5156418554477 17.3613836236337  25.8500539374326 17.2935657188539  C 25.8500539374326 17.2935657188539  26.6526429341963 17.0222940997346  26.6526429341963 17.0222940997346  C 26.6526429341963 17.0222940997346  26.6526429341963 16.6832045758355  26.6526429341963 16.6832045758355  C 26.0507011866235 15.394664385019  25.8500539374326 14.4452137181015  26.1175836030205 14.0383062894226  C 26.1175836030205 14.0383062894226  26.5188781014024 13.6992167655235  26.5188781014024 13.6992167655235  C 26.7195253505933 13.6313988607437  27.3883495145631 13.7670346703033  28.3247033441208 14.1061241942024  C 28.3247033441208 14.1061241942024  28.3915857605178 14.1739420989822  28.3915857605178 14.1739420989822  C 28.3915857605178 14.1739420989822  28.3915857605178 14.3095779085418  28.3915857605178 14.3095779085418  C 29.1272923408846 15.1912106706795  29.5285868392665 15.733753908918  29.7292340884574 15.8693897184777  C 29.7292340884574 15.8693897184777  31 13.7670346703033  31 13.7670346703033  C 29.8629989212514 12.3428586699271  29.2610571736786 11.3255900982298  29.0604099244876 10.9186826695509  C 29.0604099244876 10.9186826695509  28.0571736785329 11.5968617173491  28.0571736785329 11.5968617173491  L 27.923408845739 11.4612259077894  L 25.2481121898598 10.7830468599912  L 25.1812297734628 10.7830468599912  C 25.1812297734628 10.7830468599912  25.1812297734628 10.7152289552114  25.1812297734628 10.7152289552114  C 24.0442286947142 10.1726857169729  23.3754045307444 9.5623245739545  23.3085221143474 8.95196343093613  C 23.3085221143474 8.95196343093613  21.7033441208199 8.20596647835812  21.7033441208199 8.20596647835812  L 21.7033441208199 6.64615466842227  C 21.7033441208199 6.64615466842227  24.646170442287 4.88288914414698  24.646170442287 4.88288914414698  C 24.512405609493 4.06907428678915  24.3117583603021 3.25525942943131  23.9773462783172 2.57708038163312  C 23.9773462783172 2.57708038163312  23.5091693635383 1.62762971471565  23.5091693635383 1.62762971471565  C 23.5091693635383 1.62762971471565  21.5026968716289 1.83108342905511  21.5026968716289 1.83108342905511  C 20.5663430420712 2.23799085773402  19.6968716289105 2.44144457207349  18.8274002157497 2.44144457207349  C 18.8274002157497 2.44144457207349  16.7540453074434 1.96671923861474  16.7540453074434 1.96671923861474  L 16.7540453074434 1.22072228603673  L 16.4196332254585 1.15290438125692  L 15.8176914778857 0.949450666917454  L 15.6839266450917 0.542543238238542  L 15.6839266450917 0.474725333458727  L 15.6170442286947 0.271271619119261  L 15.6170442286947 0.203453714339446  L 15.6170442286947 0  L 15.4832793959008 0.0678179047798153  L 15.3495145631068 1.83108342905511  C 15.3495145631068 1.83108342905511  15.2826321467098 2.44144457207349  15.2826321467098 2.44144457207349  C 15.1488673139159 2.78053409597258  15.0151024811219 2.98398781031203  15.1488673139159 3.11962361987168  C 15.4832793959008 3.59434895333041  15.4163969795038 4.13689219156897  15.0819848975189 4.6116175250277  C 15.0819848975189 4.6116175250277  15.3495145631068 5.76452190628463  15.3495145631068 5.76452190628463  L 15.2826321467098 5.83233981106445  L 15.1488673139159 5.90015771584426  L 14.3462783171521 6.64615466842227  L 14.3462783171521 8.20596647835812  C 14.3462783171521 8.20596647835812  14.1456310679612 8.27378438313794  14.1456310679612 8.27378438313794  C 12.6742179072276 8.95196343093613  11.6709816612729 9.29105295483522  11.0690399137001 9.29105295483522  C 11.0690399137001 9.29105295483522  8.12621359223301 9.08759924049576  8.12621359223301 9.08759924049576  L 6.85544768069042 10.2405036217527  Z " fill-rule="nonzero" fill="#4a9eff" stroke="none" transform="matrix(1 0 0 1 2007 1882 )" />
    <path d="M 6.85544768069042 10.2405036217527  L 6.78856526429342 10.2405036217527  L 6.72168284789642 10.2405036217527  L 1.638619201726 12.3428586699271  C 1.638619201726 12.3428586699271  0.100323624595463 13.8348525750831  0.100323624595463 13.8348525750831  C -0.16720604099244 16.140661337597  0.100323624595463 17.4970194331933  0.90291262135921 17.9039268618723  C 0.90291262135921 17.9039268618723  2.37432578209275 18.8533775287897  2.37432578209275 18.8533775287897  L 2.44120819848975 18.8533775287897  L 2.44120819848975 18.9211954335695  C 2.44120819848975 18.9211954335695  2.84250269687164 21.4304579104229  2.84250269687164 21.4304579104229  C 4.11326860841424 23.1259055299183  4.98274002157498 24.007538292056  5.45091693635383 24.2109920063955  C 5.45091693635383 24.2109920063955  6.92233009708737 24.5500815302945  6.92233009708737 24.5500815302945  L 7.12297734627832 24.6178994350744  C 7.12297734627832 24.6178994350744  7.12297734627832 24.6857173398542  7.12297734627832 24.6857173398542  C 7.32362459546926 24.9569889589735  7.79180151024812 25.2282605780927  8.66127292340885 25.499532197212  C 8.66127292340885 25.499532197212  12.6742179072276 25.7029859115515  12.6742179072276 25.7029859115515  C 15.6170442286947 25.7029859115515  17.2891046386192 25.9064396258909  17.6235167206041 26.24552914979  C 17.957928802589 26.5168007689093  18.024811218986 27.1949798167075  17.957928802589 28.2122483884048  C 17.891046386192 28.890427436203  17.957928802589 29.2973348648819  18.024811218986 29.3651527696617  C 18.024811218986 29.3651527696617  19.4962243797195 29.0260632457626  19.4962243797195 29.0260632457626  C 20.6332254584682 28.6191558170837  21.302049622438 28.6191558170837  21.6364617044229 28.9582453409828  C 21.6364617044229 28.9582453409828  22.1715210355987 29.636424388781  22.1715210355987 29.636424388781  C 22.9741100323625 30.6536929604783  23.5091693635383 31.0606003891572  23.6429341963323 30.9927824843774  C 24.0442286947142 30.8571466748177  24.512405609493 30.4502392461388  24.9805825242718 29.7720601983406  C 24.9805825242718 29.7720601983406  25.1143473570658 29.5686064840012  25.1143473570658 29.5686064840012  L 26.3182308522114 30.3146034365792  C 26.3182308522114 30.3146034365792  27.0539374325782 29.7042422935608  27.0539374325782 29.7042422935608  C 27.2545846817692 28.7547916266433  27.722761596548 28.2800662931846  28.5253505933118 28.2122483884048  C 28.5253505933118 28.2122483884048  28.8597626752967 28.0766125788451  28.8597626752967 28.0766125788451  L 28.7259978425027 27.8053409597259  L 28.5922330097088 27.6697051501662  L 28.6591154261057 27.6018872453864  C 28.6591154261057 27.6018872453864  28.7259978425027 25.9064396258909  28.7259978425027 25.9064396258909  C 28.1909385113269 25.0926247685331  27.5221143473571 24.8213531494138  26.7864077669903 24.9569889589735  C 26.0507011866235 25.1604426733129  25.5156418554477 25.1604426733129  25.3149946062568 24.8891710541936  C 25.1812297734628 24.6857173398542  25.1812297734628 24.5500815302945  25.1812297734628 24.2788099111753  C 24.713052858684 23.4649950538174  24.2448759439051 22.7868160060193  23.6429341963323 22.1764548630009  C 22.8403451995685 21.4982758152027  22.6396979503776 20.8879146721843  22.8403451995685 20.2775535291659  C 22.8403451995685 20.2775535291659  22.9741100323625 20.0740998148265  22.9741100323625 20.0740998148265  L 24.8468176914779 20.4131893387256  C 24.8468176914779 20.4131893387256  24.713052858684 19.2602849574686  24.713052858684 19.2602849574686  C 24.646170442287 18.5821059096704  24.713052858684 18.1073805762117  25.0474649406688 17.7682910523126  C 25.1812297734628 17.4970194331933  25.5156418554477 17.3613836236337  25.8500539374326 17.2935657188539  C 25.8500539374326 17.2935657188539  26.6526429341963 17.0222940997346  26.6526429341963 17.0222940997346  C 26.6526429341963 17.0222940997346  26.6526429341963 16.6832045758355  26.6526429341963 16.6832045758355  C 26.0507011866235 15.394664385019  25.8500539374326 14.4452137181015  26.1175836030205 14.0383062894226  C 26.1175836030205 14.0383062894226  26.5188781014024 13.6992167655235  26.5188781014024 13.6992167655235  C 26.7195253505933 13.6313988607437  27.3883495145631 13.7670346703033  28.3247033441208 14.1061241942024  C 28.3247033441208 14.1061241942024  28.3915857605178 14.1739420989822  28.3915857605178 14.1739420989822  C 28.3915857605178 14.1739420989822  28.3915857605178 14.3095779085418  28.3915857605178 14.3095779085418  C 29.1272923408846 15.1912106706795  29.5285868392665 15.733753908918  29.7292340884574 15.8693897184777  C 29.7292340884574 15.8693897184777  31 13.7670346703033  31 13.7670346703033  C 29.8629989212514 12.3428586699271  29.2610571736786 11.3255900982298  29.0604099244876 10.9186826695509  C 29.0604099244876 10.9186826695509  28.0571736785329 11.5968617173491  28.0571736785329 11.5968617173491  L 27.923408845739 11.4612259077894  L 25.2481121898598 10.7830468599912  L 25.1812297734628 10.7830468599912  C 25.1812297734628 10.7830468599912  25.1812297734628 10.7152289552114  25.1812297734628 10.7152289552114  C 24.0442286947142 10.1726857169729  23.3754045307444 9.5623245739545  23.3085221143474 8.95196343093613  C 23.3085221143474 8.95196343093613  21.7033441208199 8.20596647835812  21.7033441208199 8.20596647835812  L 21.7033441208199 6.64615466842227  C 21.7033441208199 6.64615466842227  24.646170442287 4.88288914414698  24.646170442287 4.88288914414698  C 24.512405609493 4.06907428678915  24.3117583603021 3.25525942943131  23.9773462783172 2.57708038163312  C 23.9773462783172 2.57708038163312  23.5091693635383 1.62762971471565  23.5091693635383 1.62762971471565  C 23.5091693635383 1.62762971471565  21.5026968716289 1.83108342905511  21.5026968716289 1.83108342905511  C 20.5663430420712 2.23799085773402  19.6968716289105 2.44144457207349  18.8274002157497 2.44144457207349  C 18.8274002157497 2.44144457207349  16.7540453074434 1.96671923861474  16.7540453074434 1.96671923861474  L 16.7540453074434 1.22072228603673  L 16.4196332254585 1.15290438125692  L 15.8176914778857 0.949450666917454  L 15.6839266450917 0.542543238238542  L 15.6839266450917 0.474725333458727  L 15.6170442286947 0.271271619119261  L 15.6170442286947 0.203453714339446  L 15.6170442286947 0  L 15.4832793959008 0.0678179047798153  L 15.3495145631068 1.83108342905511  C 15.3495145631068 1.83108342905511  15.2826321467098 2.44144457207349  15.2826321467098 2.44144457207349  C 15.1488673139159 2.78053409597258  15.0151024811219 2.98398781031203  15.1488673139159 3.11962361987168  C 15.4832793959008 3.59434895333041  15.4163969795038 4.13689219156897  15.0819848975189 4.6116175250277  C 15.0819848975189 4.6116175250277  15.3495145631068 5.76452190628463  15.3495145631068 5.76452190628463  L 15.2826321467098 5.83233981106445  L 15.1488673139159 5.90015771584426  L 14.3462783171521 6.64615466842227  L 14.3462783171521 8.20596647835812  C 14.3462783171521 8.20596647835812  14.1456310679612 8.27378438313794  14.1456310679612 8.27378438313794  C 12.6742179072276 8.95196343093613  11.6709816612729 9.29105295483522  11.0690399137001 9.29105295483522  C 11.0690399137001 9.29105295483522  8.12621359223301 9.08759924049576  8.12621359223301 9.08759924049576  L 6.85544768069042 10.2405036217527  Z " stroke-width="2" stroke="#ffffff" fill="none" transform="matrix(1 0 0 1 2007 1882 )" mask="url(#clip120)" />
  </g>
</svg>