<?xml version="1.0" encoding="utf-8"?>
<svg version="1.1" xmlns:xlink="http://www.w3.org/1999/xlink" width="78px" height="66px" xmlns="http://www.w3.org/2000/svg">
  <defs>
    <mask fill="white" id="clip73">
      <path d="M 48.5789473684211 24.6901554404145  C 48.5789473684211 24.6901554404145  46.3210526315789 23.8694300518135  46.3210526315789 23.8694300518135  L 45.2263157894737 23.8694300518135  L 44.8842105263158 24.6217616580311  L 45.5 25.2373056994819  L 45.5 25.3056994818653  L 45.5 25.3740932642487  L 45.7736842105263 26.2632124352332  L 45.8421052631579 26.3316062176166  L 45.8421052631579 26.5367875647668  L 45.7052631578947 26.6051813471503  L 44.2 27.3575129533679  L 44.1315789473684 27.4259067357513  L 44.0631578947368 27.4259067357513  C 44.0631578947368 27.4259067357513  43.9947368421053 27.4259067357513  43.9947368421053 27.4259067357513  C 42.8315789473684 27.2891191709845  42.2157894736842 26.9471502590674  42.0105263157895 26.4683937823834  C 42.0105263157895 26.4683937823834  41.6 25.6476683937824  41.6 25.6476683937824  L 39.5473684210526 25.2373056994819  C 39.5473684210526 25.2373056994819  39 22.6383419689119  39 22.6383419689119  C 38.5894736842105 22.5699481865285  38.2473684210526 22.3647668393783  38.0421052631579 22.0911917098446  C 38.0421052631579 22.0911917098446  37.9736842105263 21.9544041450777  37.9736842105263 21.9544041450777  C 37.6315789473684 21.4756476683938  37.3578947368421 21.2020725388601  36.9473684210526 21.1336787564767  C 36.4 20.9284974093264  35.9210526315789 20.5181347150259  35.5105263157895 19.9025906735751  C 35.5105263157895 19.9025906735751  34.6894736842105 19.4238341968912  34.6894736842105 19.4238341968912  L 34.6210526315789 19.4238341968912  L 33.5263157894737 18.3295336787565  L 33.2526315789474 17.3720207253886  L 33.2526315789474 17.3036269430052  C 33.2526315789474 17.3036269430052  35.4421052631579 14.2943005181347  35.4421052631579 14.2943005181347  C 35.5105263157895 14.0891191709845  35.5789473684211 13.9523316062176  35.5105263157895 13.8839378238342  C 35.5105263157895 13.8839378238342  35.1 12.9264248704663  35.1 12.9264248704663  L 33.9368421052632 13.4051813471503  L 33.8684210526316 13.4051813471503  L 33.8684210526316 13.4735751295337  L 33.8 13.4735751295337  L 30.7894736842105 13.6787564766839  L 29.6263157894737 13.9523316062176  L 29.2157894736842 14.3626943005181  C 29.2157894736842 14.3626943005181  29.0105263157895 14.7730569948187  29.0105263157895 14.7730569948187  C 28.7368421052632 15.1150259067357  28.3263157894737 15.320207253886  27.7105263157895 15.1834196891192  C 27.7105263157895 15.1834196891192  27.6421052631579 15.1150259067357  27.6421052631579 15.1150259067357  L 26.6157894736842 14.3626943005181  C 26.6157894736842 14.3626943005181  26.5473684210526 12.6528497409326  26.5473684210526 12.6528497409326  C 26 12.2424870466321  25.6578947368421 11.8321243523316  25.5210526315789 11.4901554404145  C 25.5210526315789 11.4901554404145  25.2473684210526 9.98549222797928  25.2473684210526 9.98549222797928  L 24.5631578947368 9.16476683937824  L 23.8105263157895 8.54922279792746  L 23.4684210526316 8.34404145077721  L 24.7 6.77098445595855  L 24.9736842105263 5.8818652849741  L 23.6052631578947 4.17202072538861  L 23.5368421052631 4.17202072538861  L 23.5368421052631 4.10362694300518  L 22.9210526315789 2.73575129533679  L 22.9210526315789 2.66735751295337  L 22.7842105263158 1.98341968911917  L 21.8947368421053 1.29948186528498  L 21.8947368421053 1.23108808290156  L 20.9368421052632 0.205181347150267  L 19.7052631578947 0  L 18.3368421052631 0.410362694300524  L 18.1315789473684 0.683937823834197  L 17.9263157894737 2.59896373056996  L 17.9263157894737 4.71917098445596  L 17.7210526315789 4.78756476683938  L 16.4210526315789 5.26632124352332  L 16.4210526315789 5.33471502590674  C 16.4210526315789 5.33471502590674  15.1894736842105 5.40310880829016  15.1894736842105 5.40310880829016  C 14.5736842105263 5.74507772020726  13.8894736842105 6.08704663212436  13.1368421052632 6.36062176165804  C 13.1368421052632 6.36062176165804  13 6.42901554404146  13 6.42901554404146  L 12.9315789473684 6.42901554404146  L 10.6052631578947 5.8818652849741  C 10.6052631578947 5.8818652849741  9.64736842105262 6.90777202072539  9.64736842105262 6.90777202072539  C 9.44210526315788 7.18134715025907  8.96315789473683 7.45492227979275  8.34736842105262 7.59170984455959  C 8.34736842105262 7.59170984455959  6.91052631578947 8.75440414507773  6.91052631578947 8.75440414507773  L 6.15789473684211 9.91709844559586  L 6.15789473684211 9.98549222797928  C 6.15789473684211 9.98549222797928  6.08947368421051 10.0538860103627  6.08947368421051 10.0538860103627  C 5.67894736842104 10.6694300518135  5.33684210526315 11.1481865284974  5.06315789473683 11.3533678756477  C 5.06315789473683 11.3533678756477  4.24210526315789 12.379274611399  4.24210526315789 12.379274611399  L 4.24210526315789 12.4476683937824  L 4.17368421052631 12.5160621761658  C 4.17368421052631 12.5160621761658  3.69473684210525 12.8580310880829  3.69473684210525 12.8580310880829  C 3.35263157894735 12.9948186528497  3.01052631578946 13.0632124352332  2.73684210526316 13.0632124352332  C 2.73684210526316 13.0632124352332  1.02631578947368 12.9264248704663  1.02631578947368 12.9264248704663  L 0.615789473684195 13.5419689119171  L 0 14.6362694300518  L 0.2736842105263 15.7305699481865  L 0.13684210526315 18.3979274611399  L 0.615789473684195 19.2186528497409  L 0.615789473684195 19.2870466321244  L 0.82105263157894 19.9025906735751  L 1.77894736842105 19.9025906735751  L 3.42105263157895 20.2445595854922  L 5.54210526315789 20.3813471502591  L 6.5 20.2445595854922  L 6.63684210526315 20.2445595854922  L 6.70526315789473 20.2445595854922  L 8.55263157894736 20.9284974093264  L 8.62105263157894 20.9284974093264  L 9.57894736842105 21.6808290155441  L 11.6315789473684 22.4331606217617  L 11.7 22.4331606217617  L 13.0684210526316 23.2538860103627  L 16.4210526315789 26.3316062176166  L 17.9263157894737 27.0155440414508  L 18.5421052631579 26.7419689119171  L 19.1578947368421 25.579274611399  C 19.1578947368421 25.579274611399  18.8157894736842 23.7326424870466  18.8157894736842 23.7326424870466  C 18.8157894736842 23.1854922279793  19.2263157894737 22.8435233160622  20.0473684210526 22.5015544041451  C 20.0473684210526 22.5015544041451  20.1842105263158 22.4331606217617  20.1842105263158 22.4331606217617  L 24.3578947368421 24.8953367875648  L 24.8368421052631 24.7585492227979  L 25.7947368421053 24.2113989637306  L 25.9315789473684 24.2113989637306  L 26.478947368421 24.279792746114  L 27.3 23.5958549222798  L 27.4368421052632 23.5274611398964  L 27.6421052631579 23.6642487046632  L 30.1052631578947 25.3740932642487  L 30.1736842105263 25.4424870466321  C 30.1736842105263 25.4424870466321  31.7473684210526 26.7419689119171  31.7473684210526 26.7419689119171  C 32.1578947368421 27.0155440414508  32.7052631578947 27.4943005181347  33.1842105263158 28.1782383419689  C 33.1842105263158 28.1782383419689  33.9368421052632 28.99896373057  33.9368421052632 28.99896373057  L 34.5526315789474 28.9305699481865  L 35.2368421052632 27.6310880829016  L 36.6736842105263 28.6569948186529  L 36.7421052631579 28.6569948186529  L 36.8105263157895 28.6569948186529  L 37.9736842105263 30.0932642487047  L 41.0526315789474 32.4186528497409  L 41.9421052631579 33.4445595854922  L 44.6105263157895 32.6922279792746  L 44.7473684210526 34.6756476683938  L 45.9105263157895 35.8383419689119  L 45.9105263157895 35.9067357512953  L 46.8684210526316 37.3430051813471  L 46.8684210526316 37.4113989637306  L 46.8684210526316 37.479792746114  L 46.8684210526316 37.5481865284974  L 47.8947368421053 42.2673575129534  L 48.9210526315789 44.1823834196891  L 47.5526315789474 47.6704663212435  L 47.5526315789474 47.8756476683938  L 46.3894736842105 48.1492227979275  L 46.3894736842105 49.1751295336788  L 46.3210526315789 49.2435233160622  L 45.1578947368421 51.1585492227979  L 45.0210526315789 51.1585492227979  L 43.378947368421 51.2953367875648  C 43.378947368421 51.2953367875648  41.7368421052632 52.6632124352332  41.7368421052632 52.6632124352332  C 41.9421052631579 52.8683937823834  42.2157894736842 53.0051813471503  42.6947368421053 53.2103626943005  C 43.378947368421 53.4155440414508  43.4473684210526 53.9626943005181  43.1052631578947 54.920207253886  C 43.1052631578947 54.920207253886  43.1052631578947 54.9886010362694  43.1052631578947 54.9886010362694  L 41.9421052631579 56.1512953367876  L 41.8736842105263 56.1512953367876  L 41.8052631578947 56.2880829015544  L 41.7368421052632 56.2880829015544  L 41.6684210526316 56.2880829015544  L 38.3842105263158 55.8093264248705  L 38.3157894736842 56.9720207253886  L 38.6578947368421 59.4341968911917  L 41.3947368421053 60.5968911917098  L 41.3947368421053 60.7336787564767  L 42.421052631579 60.3917098445596  L 42.4894736842105 60.3233160621762  L 42.6263157894737 60.2549222797927  L 42.6947368421053 60.3917098445596  L 42.7631578947368 60.3917098445596  L 43.5157894736842 60.8020725388601  L 44.678947368421 60.8020725388601  L 45.0894736842105 60.7336787564767  L 44.678947368421 59.4341968911917  L 44.4052631578947 58.0663212435233  L 44.4052631578947 57.9979274611399  L 44.4052631578947 57.8611398963731  L 44.4736842105263 57.7927461139896  L 44.4736842105263 57.7243523316062  L 44.8842105263158 57.2455958549223  L 45.0210526315789 57.1088082901554  L 45.0894736842105 57.040414507772  L 45.8421052631579 56.0145077720207  L 45.9105263157895 55.9461139896373  L 47.1421052631579 54.9886010362694  L 47.2105263157895 54.9886010362694  L 47.2105263157895 54.920207253886  L 47.2789473684211 54.920207253886  L 48.7842105263158 54.7150259067357  C 48.7842105263158 54.7150259067357  48.7842105263158 55.1253886010363  48.7842105263158 55.1253886010363  C 48.7842105263158 55.6041450777202  48.8526315789474 55.9461139896373  48.9210526315789 56.1512953367876  C 48.9210526315789 56.1512953367876  49.1947368421053 56.7668393782383  49.1947368421053 56.7668393782383  L 49.6052631578947 57.6559585492228  L 50.9736842105263 58.4082901554404  L 54.7368421052632 58.7502590673575  L 54.8736842105263 58.7502590673575  L 55.078947368421 58.7502590673575  L 55.078947368421 58.9554404145078  L 55.078947368421 59.0922279792746  L 54.9421052631579 60.3233160621762  L 56.0368421052631 61.4860103626943  L 56.8578947368421 61.8279792746114  L 56.9947368421052 61.8963730569948  L 56.9947368421052 61.9647668393782  L 57.0631578947368 62.1015544041451  L 57.0631578947368 62.580310880829  L 57.0631578947368 63.2642487046632  L 56.7210526315789 64.6321243523316  C 56.7210526315789 64.6321243523316  57.2 64.9740932642487  57.2 64.9740932642487  C 57.7473684210526 64.9056994818653  58.2263157894737 64.9056994818653  58.7052631578947 65.2476683937824  C 58.7052631578947 65.2476683937824  60.2789473684211 66  60.2789473684211 66  L 61.2368421052632 65.2476683937824  L 62.2631578947368 64.1533678756477  L 62.3315789473684 63.6746113989637  L 62.4 63.5378238341969  L 62.5368421052631 63.4694300518135  L 62.6736842105263 63.3326424870466  L 62.6736842105263 63.1958549222798  L 62.3315789473684 61.759585492228  L 62.2631578947368 61.0072538860104  L 62.1947368421053 60.9388601036269  L 62.1947368421053 60.8704663212435  L 62.2631578947368 60.8020725388601  L 62.2631578947368 60.7336787564767  L 62.8105263157895 59.8445595854922  L 62.878947368421 59.7761658031088  L 63.9736842105263 59.0238341968912  L 64.0421052631579 59.0238341968912  L 66.3 59.0238341968912  L 66.6421052631579 58.8870466321244  L 66.5736842105263 57.7243523316062  L 66.2315789473684 56.6984455958549  L 65.478947368421 55.4673575129534  L 65.4105263157895 55.3989637305699  L 65.4105263157895 55.3305699481865  L 65.4105263157895 53.620725388601  L 65.4105263157895 53.5523316062176  L 65.8210526315789 52.5264248704663  L 65.8894736842105 52.4580310880829  L 67.7368421052632 49.7906735751295  L 67.8052631578947 49.7222797927461  L 67.8736842105263 49.7222797927461  L 68.0105263157895 49.6538860103627  L 68.4210526315789 49.6538860103627  L 69.1052631578947 49.7222797927461  L 70.678947368421 50.6113989637306  L 71.7052631578947 50.8849740932642  L 71.8421052631579 50.4062176165803  L 71.6368421052631 50.2694300518135  C 71.6368421052631 50.2694300518135  71.6368421052631 50.0642487046632  71.6368421052631 50.0642487046632  C 71.6368421052631 49.6538860103627  71.8421052631579 49.3119170984456  72.2526315789474 48.9699481865285  C 72.2526315789474 48.9699481865285  73.4842105263158 48.0808290155441  73.4842105263158 48.0808290155441  L 73.5526315789474 48.0124352331606  C 73.5526315789474 48.0124352331606  73.5526315789474 47.9440414507772  73.5526315789474 47.9440414507772  C 74.2368421052632 47.738860103627  74.6473684210526 47.6020725388601  74.9210526315789 47.6020725388601  C 74.9210526315789 47.6020725388601  76.0157894736842 47.4652849740933  76.0157894736842 47.4652849740933  L 76.1526315789474 47.4652849740933  L 76.8368421052631 47.6020725388601  L 77.3157894736842 45.8922279792746  C 77.3157894736842 45.8922279792746  77.3157894736842 44.7295336787565  77.3157894736842 44.7295336787565  C 77.3157894736842 43.9772020725389  77.3157894736842 43.4984455958549  77.5210526315789 43.3616580310881  C 77.5210526315789 43.3616580310881  78 42.4725388601036  78 42.4725388601036  L 77.3842105263158 41.6518134715026  L 76.5631578947368 41.1046632124352  C 76.5631578947368 41.1046632124352  74.8526315789474 40.6259067357513  74.8526315789474 40.6259067357513  C 74.5105263157894 40.6259067357513  73.8947368421053 40.2839378238342  72.8684210526316 39.3948186528497  C 72.8684210526316 39.3948186528497  71.8421052631579 38.9160621761658  71.8421052631579 38.9160621761658  L 71.7736842105263 38.9160621761658  L 71.7052631578947 38.8476683937824  L 70.4736842105263 37.3430051813471  L 69.3105263157895 37.3430051813471  L 69.2421052631579 37.2746113989637  L 69.1736842105263 37.2746113989637  L 68.1473684210526 36.7274611398964  L 67.5315789473684 37.5481865284974  L 67.3947368421053 40.7626943005181  L 67.6 41.9937823834197  L 68.0789473684211 41.9937823834197  L 68.1473684210526 42.0621761658031  L 69.1052631578947 42.3357512953368  L 69.1052631578947 42.4041450777202  L 69.1052631578947 42.4725388601036  L 69.5842105263158 43.6352331606218  L 69.6526315789474 43.6352331606218  L 69.6526315789474 43.7036269430052  L 69.6526315789474 43.7720207253886  L 69.378947368421 45.8922279792746  L 69.378947368421 46.0290155440415  L 69.378947368421 46.0974093264249  C 69.378947368421 46.0974093264249  69.3105263157895 46.1658031088083  69.3105263157895 46.1658031088083  C 68.9684210526316 46.3709844559586  68.6947368421053 46.5077720207254  68.3526315789474 46.7129533678757  C 68.3526315789474 46.7129533678757  68.2157894736842 46.7813471502591  68.2157894736842 46.7813471502591  L 68.1473684210526 46.7129533678757  L 68.0789473684211 46.7129533678757  L 67.6 46.5761658031088  L 66.5052631578947 46.9865284974093  L 66.4368421052632 46.9865284974093  L 66.5052631578947 47.1917098445596  L 66.5736842105263 47.260103626943  C 66.5736842105263 47.260103626943  66.7789473684211 49.1067357512953  66.7789473684211 49.1067357512953  C 66.7789473684211 49.380310880829  66.6421052631579 49.5170984455959  66.3684210526316 49.5854922279793  C 66.3684210526316 49.5854922279793  65.5473684210526 49.5854922279793  65.5473684210526 49.5854922279793  C 65.1368421052632 49.5170984455959  64.9315789473684 49.380310880829  64.7263157894737 49.1751295336788  C 64.7263157894737 49.1751295336788  63.9052631578947 48.559585492228  63.9052631578947 48.559585492228  L 63.8368421052632 48.4911917098446  L 63.7684210526316 48.4911917098446  L 63.7684210526316 48.4227979274611  C 63.7684210526316 48.4227979274611  63.2894736842105 47.260103626943  63.2894736842105 47.260103626943  C 63.1526315789474 47.1233160621762  62.8105263157895 46.9181347150259  62.1263157894737 46.7129533678757  C 62.1263157894737 46.7129533678757  62.0578947368421 46.7129533678757  62.0578947368421 46.7129533678757  L 61.9894736842105 46.7129533678757  L 61.0315789473684 46.0290155440415  L 60.8947368421053 46.0290155440415  L 60.8947368421053 45.8922279792746  L 60.6210526315789 44.7295336787565  L 60.7578947368421 43.840414507772  L 60.8263157894737 43.840414507772  L 60.8263157894737 43.7720207253886  L 61.2368421052632 43.2932642487047  L 61.2368421052632 42.9512953367876  L 60.8263157894737 41.720207253886  L 59.8684210526316 40.8310880829016  L 59.8684210526316 40.6943005181347  L 59.5947368421053 37.8901554404145  L 58.9105263157895 37.2062176165803  L 58.8421052631579 37.2062176165803  L 58.7736842105263 37.1378238341969  L 58.2263157894737 35.8383419689119  C 58.2263157894737 35.8383419689119  55.7631578947368 35.5647668393782  55.7631578947368 35.5647668393782  C 55.1473684210526 35.359585492228  54.7368421052632 34.9492227979275  54.4631578947368 34.4020725388601  C 54.4631578947368 34.4020725388601  53.3684210526316 34.4020725388601  53.3684210526316 34.4020725388601  C 52.9578947368421 34.2652849740933  52.5473684210526 33.9917098445596  52.0684210526316 33.5129533678757  C 52.0684210526316 33.5129533678757  51.9315789473684 33.3761658031088  51.9315789473684 33.3761658031088  C 51.6578947368421 33.1025906735751  51.3842105263158 32.6922279792746  51.1105263157895 32.1450777202073  C 51.1105263157895 32.1450777202073  51.0421052631579 32.0766839378238  51.0421052631579 32.0766839378238  L 50.8368421052631 30.9823834196891  L 50.8368421052631 30.9139896373057  L 50.8368421052631 30.8455958549223  L 51.2473684210526 28.7253886010363  L 51.2473684210526 28.6569948186529  L 51.6578947368421 27.7678756476684  L 51.6578947368421 27.699481865285  L 51.6578947368421 27.6310880829016  L 51.7263157894737 27.6310880829016  L 54.3263157894737 26.5367875647668  L 55.3526315789474 25.3056994818653  L 55.5578947368421 24.279792746114  C 55.5578947368421 24.279792746114  55.4210526315789 23.5274611398964  55.4210526315789 23.5274611398964  C 55.0105263157895 22.6383419689119  54.7368421052632 22.0911917098446  54.7368421052632 21.7492227979275  C 54.7368421052632 21.7492227979275  54.1894736842105 21.8176165803109  54.1894736842105 21.8176165803109  C 54.1894736842105 21.8176165803109  53.2315789473684 21.7492227979275  53.2315789473684 21.7492227979275  C 53.0263157894737 21.8176165803109  52.478947368421 22.4331606217617  51.7263157894737 23.3222797927461  C 51.7263157894737 23.3222797927461  50.5631578947368 24.4165803108808  50.5631578947368 24.4165803108808  L 50.4947368421053 24.4165803108808  C 50.4947368421053 24.4165803108808  50.4263157894737 24.4849740932643  50.4263157894737 24.4849740932643  C 49.5368421052631 24.6901554404145  48.9210526315789 24.8269430051814  48.5789473684211 24.6901554404145  Z " fill-rule="evenodd" />
    </mask>
  </defs>
  <g transform="matrix(1 0 0 1 -1919 -1843 )">
    <path d="M 48.5789473684211 24.6901554404145  C 48.5789473684211 24.6901554404145  46.3210526315789 23.8694300518135  46.3210526315789 23.8694300518135  L 45.2263157894737 23.8694300518135  L 44.8842105263158 24.6217616580311  L 45.5 25.2373056994819  L 45.5 25.3056994818653  L 45.5 25.3740932642487  L 45.7736842105263 26.2632124352332  L 45.8421052631579 26.3316062176166  L 45.8421052631579 26.5367875647668  L 45.7052631578947 26.6051813471503  L 44.2 27.3575129533679  L 44.1315789473684 27.4259067357513  L 44.0631578947368 27.4259067357513  C 44.0631578947368 27.4259067357513  43.9947368421053 27.4259067357513  43.9947368421053 27.4259067357513  C 42.8315789473684 27.2891191709845  42.2157894736842 26.9471502590674  42.0105263157895 26.4683937823834  C 42.0105263157895 26.4683937823834  41.6 25.6476683937824  41.6 25.6476683937824  L 39.5473684210526 25.2373056994819  C 39.5473684210526 25.2373056994819  39 22.6383419689119  39 22.6383419689119  C 38.5894736842105 22.5699481865285  38.2473684210526 22.3647668393783  38.0421052631579 22.0911917098446  C 38.0421052631579 22.0911917098446  37.9736842105263 21.9544041450777  37.9736842105263 21.9544041450777  C 37.6315789473684 21.4756476683938  37.3578947368421 21.2020725388601  36.9473684210526 21.1336787564767  C 36.4 20.9284974093264  35.9210526315789 20.5181347150259  35.5105263157895 19.9025906735751  C 35.5105263157895 19.9025906735751  34.6894736842105 19.4238341968912  34.6894736842105 19.4238341968912  L 34.6210526315789 19.4238341968912  L 33.5263157894737 18.3295336787565  L 33.2526315789474 17.3720207253886  L 33.2526315789474 17.3036269430052  C 33.2526315789474 17.3036269430052  35.4421052631579 14.2943005181347  35.4421052631579 14.2943005181347  C 35.5105263157895 14.0891191709845  35.5789473684211 13.9523316062176  35.5105263157895 13.8839378238342  C 35.5105263157895 13.8839378238342  35.1 12.9264248704663  35.1 12.9264248704663  L 33.9368421052632 13.4051813471503  L 33.8684210526316 13.4051813471503  L 33.8684210526316 13.4735751295337  L 33.8 13.4735751295337  L 30.7894736842105 13.6787564766839  L 29.6263157894737 13.9523316062176  L 29.2157894736842 14.3626943005181  C 29.2157894736842 14.3626943005181  29.0105263157895 14.7730569948187  29.0105263157895 14.7730569948187  C 28.7368421052632 15.1150259067357  28.3263157894737 15.320207253886  27.7105263157895 15.1834196891192  C 27.7105263157895 15.1834196891192  27.6421052631579 15.1150259067357  27.6421052631579 15.1150259067357  L 26.6157894736842 14.3626943005181  C 26.6157894736842 14.3626943005181  26.5473684210526 12.6528497409326  26.5473684210526 12.6528497409326  C 26 12.2424870466321  25.6578947368421 11.8321243523316  25.5210526315789 11.4901554404145  C 25.5210526315789 11.4901554404145  25.2473684210526 9.98549222797928  25.2473684210526 9.98549222797928  L 24.5631578947368 9.16476683937824  L 23.8105263157895 8.54922279792746  L 23.4684210526316 8.34404145077721  L 24.7 6.77098445595855  L 24.9736842105263 5.8818652849741  L 23.6052631578947 4.17202072538861  L 23.5368421052631 4.17202072538861  L 23.5368421052631 4.10362694300518  L 22.9210526315789 2.73575129533679  L 22.9210526315789 2.66735751295337  L 22.7842105263158 1.98341968911917  L 21.8947368421053 1.29948186528498  L 21.8947368421053 1.23108808290156  L 20.9368421052632 0.205181347150267  L 19.7052631578947 0  L 18.3368421052631 0.410362694300524  L 18.1315789473684 0.683937823834197  L 17.9263157894737 2.59896373056996  L 17.9263157894737 4.71917098445596  L 17.7210526315789 4.78756476683938  L 16.4210526315789 5.26632124352332  L 16.4210526315789 5.33471502590674  C 16.4210526315789 5.33471502590674  15.1894736842105 5.40310880829016  15.1894736842105 5.40310880829016  C 14.5736842105263 5.74507772020726  13.8894736842105 6.08704663212436  13.1368421052632 6.36062176165804  C 13.1368421052632 6.36062176165804  13 6.42901554404146  13 6.42901554404146  L 12.9315789473684 6.42901554404146  L 10.6052631578947 5.8818652849741  C 10.6052631578947 5.8818652849741  9.64736842105262 6.90777202072539  9.64736842105262 6.90777202072539  C 9.44210526315788 7.18134715025907  8.96315789473683 7.45492227979275  8.34736842105262 7.59170984455959  C 8.34736842105262 7.59170984455959  6.91052631578947 8.75440414507773  6.91052631578947 8.75440414507773  L 6.15789473684211 9.91709844559586  L 6.15789473684211 9.98549222797928  C 6.15789473684211 9.98549222797928  6.08947368421051 10.0538860103627  6.08947368421051 10.0538860103627  C 5.67894736842104 10.6694300518135  5.33684210526315 11.1481865284974  5.06315789473683 11.3533678756477  C 5.06315789473683 11.3533678756477  4.24210526315789 12.379274611399  4.24210526315789 12.379274611399  L 4.24210526315789 12.4476683937824  L 4.17368421052631 12.5160621761658  C 4.17368421052631 12.5160621761658  3.69473684210525 12.8580310880829  3.69473684210525 12.8580310880829  C 3.35263157894735 12.9948186528497  3.01052631578946 13.0632124352332  2.73684210526316 13.0632124352332  C 2.73684210526316 13.0632124352332  1.02631578947368 12.9264248704663  1.02631578947368 12.9264248704663  L 0.615789473684195 13.5419689119171  L 0 14.6362694300518  L 0.2736842105263 15.7305699481865  L 0.13684210526315 18.3979274611399  L 0.615789473684195 19.2186528497409  L 0.615789473684195 19.2870466321244  L 0.82105263157894 19.9025906735751  L 1.77894736842105 19.9025906735751  L 3.42105263157895 20.2445595854922  L 5.54210526315789 20.3813471502591  L 6.5 20.2445595854922  L 6.63684210526315 20.2445595854922  L 6.70526315789473 20.2445595854922  L 8.55263157894736 20.9284974093264  L 8.62105263157894 20.9284974093264  L 9.57894736842105 21.6808290155441  L 11.6315789473684 22.4331606217617  L 11.7 22.4331606217617  L 13.0684210526316 23.2538860103627  L 16.4210526315789 26.3316062176166  L 17.9263157894737 27.0155440414508  L 18.5421052631579 26.7419689119171  L 19.1578947368421 25.579274611399  C 19.1578947368421 25.579274611399  18.8157894736842 23.7326424870466  18.8157894736842 23.7326424870466  C 18.8157894736842 23.1854922279793  19.2263157894737 22.8435233160622  20.0473684210526 22.5015544041451  C 20.0473684210526 22.5015544041451  20.1842105263158 22.4331606217617  20.1842105263158 22.4331606217617  L 24.3578947368421 24.8953367875648  L 24.8368421052631 24.7585492227979  L 25.7947368421053 24.2113989637306  L 25.9315789473684 24.2113989637306  L 26.478947368421 24.279792746114  L 27.3 23.5958549222798  L 27.4368421052632 23.5274611398964  L 27.6421052631579 23.6642487046632  L 30.1052631578947 25.3740932642487  L 30.1736842105263 25.4424870466321  C 30.1736842105263 25.4424870466321  31.7473684210526 26.7419689119171  31.7473684210526 26.7419689119171  C 32.1578947368421 27.0155440414508  32.7052631578947 27.4943005181347  33.1842105263158 28.1782383419689  C 33.1842105263158 28.1782383419689  33.9368421052632 28.99896373057  33.9368421052632 28.99896373057  L 34.5526315789474 28.9305699481865  L 35.2368421052632 27.6310880829016  L 36.6736842105263 28.6569948186529  L 36.7421052631579 28.6569948186529  L 36.8105263157895 28.6569948186529  L 37.9736842105263 30.0932642487047  L 41.0526315789474 32.4186528497409  L 41.9421052631579 33.4445595854922  L 44.6105263157895 32.6922279792746  L 44.7473684210526 34.6756476683938  L 45.9105263157895 35.8383419689119  L 45.9105263157895 35.9067357512953  L 46.8684210526316 37.3430051813471  L 46.8684210526316 37.4113989637306  L 46.8684210526316 37.479792746114  L 46.8684210526316 37.5481865284974  L 47.8947368421053 42.2673575129534  L 48.9210526315789 44.1823834196891  L 47.5526315789474 47.6704663212435  L 47.5526315789474 47.8756476683938  L 46.3894736842105 48.1492227979275  L 46.3894736842105 49.1751295336788  L 46.3210526315789 49.2435233160622  L 45.1578947368421 51.1585492227979  L 45.0210526315789 51.1585492227979  L 43.378947368421 51.2953367875648  C 43.378947368421 51.2953367875648  41.7368421052632 52.6632124352332  41.7368421052632 52.6632124352332  C 41.9421052631579 52.8683937823834  42.2157894736842 53.0051813471503  42.6947368421053 53.2103626943005  C 43.378947368421 53.4155440414508  43.4473684210526 53.9626943005181  43.1052631578947 54.920207253886  C 43.1052631578947 54.920207253886  43.1052631578947 54.9886010362694  43.1052631578947 54.9886010362694  L 41.9421052631579 56.1512953367876  L 41.8736842105263 56.1512953367876  L 41.8052631578947 56.2880829015544  L 41.7368421052632 56.2880829015544  L 41.6684210526316 56.2880829015544  L 38.3842105263158 55.8093264248705  L 38.3157894736842 56.9720207253886  L 38.6578947368421 59.4341968911917  L 41.3947368421053 60.5968911917098  L 41.3947368421053 60.7336787564767  L 42.421052631579 60.3917098445596  L 42.4894736842105 60.3233160621762  L 42.6263157894737 60.2549222797927  L 42.6947368421053 60.3917098445596  L 42.7631578947368 60.3917098445596  L 43.5157894736842 60.8020725388601  L 44.678947368421 60.8020725388601  L 45.0894736842105 60.7336787564767  L 44.678947368421 59.4341968911917  L 44.4052631578947 58.0663212435233  L 44.4052631578947 57.9979274611399  L 44.4052631578947 57.8611398963731  L 44.4736842105263 57.7927461139896  L 44.4736842105263 57.7243523316062  L 44.8842105263158 57.2455958549223  L 45.0210526315789 57.1088082901554  L 45.0894736842105 57.040414507772  L 45.8421052631579 56.0145077720207  L 45.9105263157895 55.9461139896373  L 47.1421052631579 54.9886010362694  L 47.2105263157895 54.9886010362694  L 47.2105263157895 54.920207253886  L 47.2789473684211 54.920207253886  L 48.7842105263158 54.7150259067357  C 48.7842105263158 54.7150259067357  48.7842105263158 55.1253886010363  48.7842105263158 55.1253886010363  C 48.7842105263158 55.6041450777202  48.8526315789474 55.9461139896373  48.9210526315789 56.1512953367876  C 48.9210526315789 56.1512953367876  49.1947368421053 56.7668393782383  49.1947368421053 56.7668393782383  L 49.6052631578947 57.6559585492228  L 50.9736842105263 58.4082901554404  L 54.7368421052632 58.7502590673575  L 54.8736842105263 58.7502590673575  L 55.078947368421 58.7502590673575  L 55.078947368421 58.9554404145078  L 55.078947368421 59.0922279792746  L 54.9421052631579 60.3233160621762  L 56.0368421052631 61.4860103626943  L 56.8578947368421 61.8279792746114  L 56.9947368421052 61.8963730569948  L 56.9947368421052 61.9647668393782  L 57.0631578947368 62.1015544041451  L 57.0631578947368 62.580310880829  L 57.0631578947368 63.2642487046632  L 56.7210526315789 64.6321243523316  C 56.7210526315789 64.6321243523316  57.2 64.9740932642487  57.2 64.9740932642487  C 57.7473684210526 64.9056994818653  58.2263157894737 64.9056994818653  58.7052631578947 65.2476683937824  C 58.7052631578947 65.2476683937824  60.2789473684211 66  60.2789473684211 66  L 61.2368421052632 65.2476683937824  L 62.2631578947368 64.1533678756477  L 62.3315789473684 63.6746113989637  L 62.4 63.5378238341969  L 62.5368421052631 63.4694300518135  L 62.6736842105263 63.3326424870466  L 62.6736842105263 63.1958549222798  L 62.3315789473684 61.759585492228  L 62.2631578947368 61.0072538860104  L 62.1947368421053 60.9388601036269  L 62.1947368421053 60.8704663212435  L 62.2631578947368 60.8020725388601  L 62.2631578947368 60.7336787564767  L 62.8105263157895 59.8445595854922  L 62.878947368421 59.7761658031088  L 63.9736842105263 59.0238341968912  L 64.0421052631579 59.0238341968912  L 66.3 59.0238341968912  L 66.6421052631579 58.8870466321244  L 66.5736842105263 57.7243523316062  L 66.2315789473684 56.6984455958549  L 65.478947368421 55.4673575129534  L 65.4105263157895 55.3989637305699  L 65.4105263157895 55.3305699481865  L 65.4105263157895 53.620725388601  L 65.4105263157895 53.5523316062176  L 65.8210526315789 52.5264248704663  L 65.8894736842105 52.4580310880829  L 67.7368421052632 49.7906735751295  L 67.8052631578947 49.7222797927461  L 67.8736842105263 49.7222797927461  L 68.0105263157895 49.6538860103627  L 68.4210526315789 49.6538860103627  L 69.1052631578947 49.7222797927461  L 70.678947368421 50.6113989637306  L 71.7052631578947 50.8849740932642  L 71.8421052631579 50.4062176165803  L 71.6368421052631 50.2694300518135  C 71.6368421052631 50.2694300518135  71.6368421052631 50.0642487046632  71.6368421052631 50.0642487046632  C 71.6368421052631 49.6538860103627  71.8421052631579 49.3119170984456  72.2526315789474 48.9699481865285  C 72.2526315789474 48.9699481865285  73.4842105263158 48.0808290155441  73.4842105263158 48.0808290155441  L 73.5526315789474 48.0124352331606  C 73.5526315789474 48.0124352331606  73.5526315789474 47.9440414507772  73.5526315789474 47.9440414507772  C 74.2368421052632 47.738860103627  74.6473684210526 47.6020725388601  74.9210526315789 47.6020725388601  C 74.9210526315789 47.6020725388601  76.0157894736842 47.4652849740933  76.0157894736842 47.4652849740933  L 76.1526315789474 47.4652849740933  L 76.8368421052631 47.6020725388601  L 77.3157894736842 45.8922279792746  C 77.3157894736842 45.8922279792746  77.3157894736842 44.7295336787565  77.3157894736842 44.7295336787565  C 77.3157894736842 43.9772020725389  77.3157894736842 43.4984455958549  77.5210526315789 43.3616580310881  C 77.5210526315789 43.3616580310881  78 42.4725388601036  78 42.4725388601036  L 77.3842105263158 41.6518134715026  L 76.5631578947368 41.1046632124352  C 76.5631578947368 41.1046632124352  74.8526315789474 40.6259067357513  74.8526315789474 40.6259067357513  C 74.5105263157894 40.6259067357513  73.8947368421053 40.2839378238342  72.8684210526316 39.3948186528497  C 72.8684210526316 39.3948186528497  71.8421052631579 38.9160621761658  71.8421052631579 38.9160621761658  L 71.7736842105263 38.9160621761658  L 71.7052631578947 38.8476683937824  L 70.4736842105263 37.3430051813471  L 69.3105263157895 37.3430051813471  L 69.2421052631579 37.2746113989637  L 69.1736842105263 37.2746113989637  L 68.1473684210526 36.7274611398964  L 67.5315789473684 37.5481865284974  L 67.3947368421053 40.7626943005181  L 67.6 41.9937823834197  L 68.0789473684211 41.9937823834197  L 68.1473684210526 42.0621761658031  L 69.1052631578947 42.3357512953368  L 69.1052631578947 42.4041450777202  L 69.1052631578947 42.4725388601036  L 69.5842105263158 43.6352331606218  L 69.6526315789474 43.6352331606218  L 69.6526315789474 43.7036269430052  L 69.6526315789474 43.7720207253886  L 69.378947368421 45.8922279792746  L 69.378947368421 46.0290155440415  L 69.378947368421 46.0974093264249  C 69.378947368421 46.0974093264249  69.3105263157895 46.1658031088083  69.3105263157895 46.1658031088083  C 68.9684210526316 46.3709844559586  68.6947368421053 46.5077720207254  68.3526315789474 46.7129533678757  C 68.3526315789474 46.7129533678757  68.2157894736842 46.7813471502591  68.2157894736842 46.7813471502591  L 68.1473684210526 46.7129533678757  L 68.0789473684211 46.7129533678757  L 67.6 46.5761658031088  L 66.5052631578947 46.9865284974093  L 66.4368421052632 46.9865284974093  L 66.5052631578947 47.1917098445596  L 66.5736842105263 47.260103626943  C 66.5736842105263 47.260103626943  66.7789473684211 49.1067357512953  66.7789473684211 49.1067357512953  C 66.7789473684211 49.380310880829  66.6421052631579 49.5170984455959  66.3684210526316 49.5854922279793  C 66.3684210526316 49.5854922279793  65.5473684210526 49.5854922279793  65.5473684210526 49.5854922279793  C 65.1368421052632 49.5170984455959  64.9315789473684 49.380310880829  64.7263157894737 49.1751295336788  C 64.7263157894737 49.1751295336788  63.9052631578947 48.559585492228  63.9052631578947 48.559585492228  L 63.8368421052632 48.4911917098446  L 63.7684210526316 48.4911917098446  L 63.7684210526316 48.4227979274611  C 63.7684210526316 48.4227979274611  63.2894736842105 47.260103626943  63.2894736842105 47.260103626943  C 63.1526315789474 47.1233160621762  62.8105263157895 46.9181347150259  62.1263157894737 46.7129533678757  C 62.1263157894737 46.7129533678757  62.0578947368421 46.7129533678757  62.0578947368421 46.7129533678757  L 61.9894736842105 46.7129533678757  L 61.0315789473684 46.0290155440415  L 60.8947368421053 46.0290155440415  L 60.8947368421053 45.8922279792746  L 60.6210526315789 44.7295336787565  L 60.7578947368421 43.840414507772  L 60.8263157894737 43.840414507772  L 60.8263157894737 43.7720207253886  L 61.2368421052632 43.2932642487047  L 61.2368421052632 42.9512953367876  L 60.8263157894737 41.720207253886  L 59.8684210526316 40.8310880829016  L 59.8684210526316 40.6943005181347  L 59.5947368421053 37.8901554404145  L 58.9105263157895 37.2062176165803  L 58.8421052631579 37.2062176165803  L 58.7736842105263 37.1378238341969  L 58.2263157894737 35.8383419689119  C 58.2263157894737 35.8383419689119  55.7631578947368 35.5647668393782  55.7631578947368 35.5647668393782  C 55.1473684210526 35.359585492228  54.7368421052632 34.9492227979275  54.4631578947368 34.4020725388601  C 54.4631578947368 34.4020725388601  53.3684210526316 34.4020725388601  53.3684210526316 34.4020725388601  C 52.9578947368421 34.2652849740933  52.5473684210526 33.9917098445596  52.0684210526316 33.5129533678757  C 52.0684210526316 33.5129533678757  51.9315789473684 33.3761658031088  51.9315789473684 33.3761658031088  C 51.6578947368421 33.1025906735751  51.3842105263158 32.6922279792746  51.1105263157895 32.1450777202073  C 51.1105263157895 32.1450777202073  51.0421052631579 32.0766839378238  51.0421052631579 32.0766839378238  L 50.8368421052631 30.9823834196891  L 50.8368421052631 30.9139896373057  L 50.8368421052631 30.8455958549223  L 51.2473684210526 28.7253886010363  L 51.2473684210526 28.6569948186529  L 51.6578947368421 27.7678756476684  L 51.6578947368421 27.699481865285  L 51.6578947368421 27.6310880829016  L 51.7263157894737 27.6310880829016  L 54.3263157894737 26.5367875647668  L 55.3526315789474 25.3056994818653  L 55.5578947368421 24.279792746114  C 55.5578947368421 24.279792746114  55.4210526315789 23.5274611398964  55.4210526315789 23.5274611398964  C 55.0105263157895 22.6383419689119  54.7368421052632 22.0911917098446  54.7368421052632 21.7492227979275  C 54.7368421052632 21.7492227979275  54.1894736842105 21.8176165803109  54.1894736842105 21.8176165803109  C 54.1894736842105 21.8176165803109  53.2315789473684 21.7492227979275  53.2315789473684 21.7492227979275  C 53.0263157894737 21.8176165803109  52.478947368421 22.4331606217617  51.7263157894737 23.3222797927461  C 51.7263157894737 23.3222797927461  50.5631578947368 24.4165803108808  50.5631578947368 24.4165803108808  L 50.4947368421053 24.4165803108808  C 50.4947368421053 24.4165803108808  50.4263157894737 24.4849740932643  50.4263157894737 24.4849740932643  C 49.5368421052631 24.6901554404145  48.9210526315789 24.8269430051814  48.5789473684211 24.6901554404145  Z " fill-rule="nonzero" fill="#4a9eff" stroke="none" transform="matrix(1 0 0 1 1919 1843 )" />
    <path d="M 48.5789473684211 24.6901554404145  C 48.5789473684211 24.6901554404145  46.3210526315789 23.8694300518135  46.3210526315789 23.8694300518135  L 45.2263157894737 23.8694300518135  L 44.8842105263158 24.6217616580311  L 45.5 25.2373056994819  L 45.5 25.3056994818653  L 45.5 25.3740932642487  L 45.7736842105263 26.2632124352332  L 45.8421052631579 26.3316062176166  L 45.8421052631579 26.5367875647668  L 45.7052631578947 26.6051813471503  L 44.2 27.3575129533679  L 44.1315789473684 27.4259067357513  L 44.0631578947368 27.4259067357513  C 44.0631578947368 27.4259067357513  43.9947368421053 27.4259067357513  43.9947368421053 27.4259067357513  C 42.8315789473684 27.2891191709845  42.2157894736842 26.9471502590674  42.0105263157895 26.4683937823834  C 42.0105263157895 26.4683937823834  41.6 25.6476683937824  41.6 25.6476683937824  L 39.5473684210526 25.2373056994819  C 39.5473684210526 25.2373056994819  39 22.6383419689119  39 22.6383419689119  C 38.5894736842105 22.5699481865285  38.2473684210526 22.3647668393783  38.0421052631579 22.0911917098446  C 38.0421052631579 22.0911917098446  37.9736842105263 21.9544041450777  37.9736842105263 21.9544041450777  C 37.6315789473684 21.4756476683938  37.3578947368421 21.2020725388601  36.9473684210526 21.1336787564767  C 36.4 20.9284974093264  35.9210526315789 20.5181347150259  35.5105263157895 19.9025906735751  C 35.5105263157895 19.9025906735751  34.6894736842105 19.4238341968912  34.6894736842105 19.4238341968912  L 34.6210526315789 19.4238341968912  L 33.5263157894737 18.3295336787565  L 33.2526315789474 17.3720207253886  L 33.2526315789474 17.3036269430052  C 33.2526315789474 17.3036269430052  35.4421052631579 14.2943005181347  35.4421052631579 14.2943005181347  C 35.5105263157895 14.0891191709845  35.5789473684211 13.9523316062176  35.5105263157895 13.8839378238342  C 35.5105263157895 13.8839378238342  35.1 12.9264248704663  35.1 12.9264248704663  L 33.9368421052632 13.4051813471503  L 33.8684210526316 13.4051813471503  L 33.8684210526316 13.4735751295337  L 33.8 13.4735751295337  L 30.7894736842105 13.6787564766839  L 29.6263157894737 13.9523316062176  L 29.2157894736842 14.3626943005181  C 29.2157894736842 14.3626943005181  29.0105263157895 14.7730569948187  29.0105263157895 14.7730569948187  C 28.7368421052632 15.1150259067357  28.3263157894737 15.320207253886  27.7105263157895 15.1834196891192  C 27.7105263157895 15.1834196891192  27.6421052631579 15.1150259067357  27.6421052631579 15.1150259067357  L 26.6157894736842 14.3626943005181  C 26.6157894736842 14.3626943005181  26.5473684210526 12.6528497409326  26.5473684210526 12.6528497409326  C 26 12.2424870466321  25.6578947368421 11.8321243523316  25.5210526315789 11.4901554404145  C 25.5210526315789 11.4901554404145  25.2473684210526 9.98549222797928  25.2473684210526 9.98549222797928  L 24.5631578947368 9.16476683937824  L 23.8105263157895 8.54922279792746  L 23.4684210526316 8.34404145077721  L 24.7 6.77098445595855  L 24.9736842105263 5.8818652849741  L 23.6052631578947 4.17202072538861  L 23.5368421052631 4.17202072538861  L 23.5368421052631 4.10362694300518  L 22.9210526315789 2.73575129533679  L 22.9210526315789 2.66735751295337  L 22.7842105263158 1.98341968911917  L 21.8947368421053 1.29948186528498  L 21.8947368421053 1.23108808290156  L 20.9368421052632 0.205181347150267  L 19.7052631578947 0  L 18.3368421052631 0.410362694300524  L 18.1315789473684 0.683937823834197  L 17.9263157894737 2.59896373056996  L 17.9263157894737 4.71917098445596  L 17.7210526315789 4.78756476683938  L 16.4210526315789 5.26632124352332  L 16.4210526315789 5.33471502590674  C 16.4210526315789 5.33471502590674  15.1894736842105 5.40310880829016  15.1894736842105 5.40310880829016  C 14.5736842105263 5.74507772020726  13.8894736842105 6.08704663212436  13.1368421052632 6.36062176165804  C 13.1368421052632 6.36062176165804  13 6.42901554404146  13 6.42901554404146  L 12.9315789473684 6.42901554404146  L 10.6052631578947 5.8818652849741  C 10.6052631578947 5.8818652849741  9.64736842105262 6.90777202072539  9.64736842105262 6.90777202072539  C 9.44210526315788 7.18134715025907  8.96315789473683 7.45492227979275  8.34736842105262 7.59170984455959  C 8.34736842105262 7.59170984455959  6.91052631578947 8.75440414507773  6.91052631578947 8.75440414507773  L 6.15789473684211 9.91709844559586  L 6.15789473684211 9.98549222797928  C 6.15789473684211 9.98549222797928  6.08947368421051 10.0538860103627  6.08947368421051 10.0538860103627  C 5.67894736842104 10.6694300518135  5.33684210526315 11.1481865284974  5.06315789473683 11.3533678756477  C 5.06315789473683 11.3533678756477  4.24210526315789 12.379274611399  4.24210526315789 12.379274611399  L 4.24210526315789 12.4476683937824  L 4.17368421052631 12.5160621761658  C 4.17368421052631 12.5160621761658  3.69473684210525 12.8580310880829  3.69473684210525 12.8580310880829  C 3.35263157894735 12.9948186528497  3.01052631578946 13.0632124352332  2.73684210526316 13.0632124352332  C 2.73684210526316 13.0632124352332  1.02631578947368 12.9264248704663  1.02631578947368 12.9264248704663  L 0.615789473684195 13.5419689119171  L 0 14.6362694300518  L 0.2736842105263 15.7305699481865  L 0.13684210526315 18.3979274611399  L 0.615789473684195 19.2186528497409  L 0.615789473684195 19.2870466321244  L 0.82105263157894 19.9025906735751  L 1.77894736842105 19.9025906735751  L 3.42105263157895 20.2445595854922  L 5.54210526315789 20.3813471502591  L 6.5 20.2445595854922  L 6.63684210526315 20.2445595854922  L 6.70526315789473 20.2445595854922  L 8.55263157894736 20.9284974093264  L 8.62105263157894 20.9284974093264  L 9.57894736842105 21.6808290155441  L 11.6315789473684 22.4331606217617  L 11.7 22.4331606217617  L 13.0684210526316 23.2538860103627  L 16.4210526315789 26.3316062176166  L 17.9263157894737 27.0155440414508  L 18.5421052631579 26.7419689119171  L 19.1578947368421 25.579274611399  C 19.1578947368421 25.579274611399  18.8157894736842 23.7326424870466  18.8157894736842 23.7326424870466  C 18.8157894736842 23.1854922279793  19.2263157894737 22.8435233160622  20.0473684210526 22.5015544041451  C 20.0473684210526 22.5015544041451  20.1842105263158 22.4331606217617  20.1842105263158 22.4331606217617  L 24.3578947368421 24.8953367875648  L 24.8368421052631 24.7585492227979  L 25.7947368421053 24.2113989637306  L 25.9315789473684 24.2113989637306  L 26.478947368421 24.279792746114  L 27.3 23.5958549222798  L 27.4368421052632 23.5274611398964  L 27.6421052631579 23.6642487046632  L 30.1052631578947 25.3740932642487  L 30.1736842105263 25.4424870466321  C 30.1736842105263 25.4424870466321  31.7473684210526 26.7419689119171  31.7473684210526 26.7419689119171  C 32.1578947368421 27.0155440414508  32.7052631578947 27.4943005181347  33.1842105263158 28.1782383419689  C 33.1842105263158 28.1782383419689  33.9368421052632 28.99896373057  33.9368421052632 28.99896373057  L 34.5526315789474 28.9305699481865  L 35.2368421052632 27.6310880829016  L 36.6736842105263 28.6569948186529  L 36.7421052631579 28.6569948186529  L 36.8105263157895 28.6569948186529  L 37.9736842105263 30.0932642487047  L 41.0526315789474 32.4186528497409  L 41.9421052631579 33.4445595854922  L 44.6105263157895 32.6922279792746  L 44.7473684210526 34.6756476683938  L 45.9105263157895 35.8383419689119  L 45.9105263157895 35.9067357512953  L 46.8684210526316 37.3430051813471  L 46.8684210526316 37.4113989637306  L 46.8684210526316 37.479792746114  L 46.8684210526316 37.5481865284974  L 47.8947368421053 42.2673575129534  L 48.9210526315789 44.1823834196891  L 47.5526315789474 47.6704663212435  L 47.5526315789474 47.8756476683938  L 46.3894736842105 48.1492227979275  L 46.3894736842105 49.1751295336788  L 46.3210526315789 49.2435233160622  L 45.1578947368421 51.1585492227979  L 45.0210526315789 51.1585492227979  L 43.378947368421 51.2953367875648  C 43.378947368421 51.2953367875648  41.7368421052632 52.6632124352332  41.7368421052632 52.6632124352332  C 41.9421052631579 52.8683937823834  42.2157894736842 53.0051813471503  42.6947368421053 53.2103626943005  C 43.378947368421 53.4155440414508  43.4473684210526 53.9626943005181  43.1052631578947 54.920207253886  C 43.1052631578947 54.920207253886  43.1052631578947 54.9886010362694  43.1052631578947 54.9886010362694  L 41.9421052631579 56.1512953367876  L 41.8736842105263 56.1512953367876  L 41.8052631578947 56.2880829015544  L 41.7368421052632 56.2880829015544  L 41.6684210526316 56.2880829015544  L 38.3842105263158 55.8093264248705  L 38.3157894736842 56.9720207253886  L 38.6578947368421 59.4341968911917  L 41.3947368421053 60.5968911917098  L 41.3947368421053 60.7336787564767  L 42.421052631579 60.3917098445596  L 42.4894736842105 60.3233160621762  L 42.6263157894737 60.2549222797927  L 42.6947368421053 60.3917098445596  L 42.7631578947368 60.3917098445596  L 43.5157894736842 60.8020725388601  L 44.678947368421 60.8020725388601  L 45.0894736842105 60.7336787564767  L 44.678947368421 59.4341968911917  L 44.4052631578947 58.0663212435233  L 44.4052631578947 57.9979274611399  L 44.4052631578947 57.8611398963731  L 44.4736842105263 57.7927461139896  L 44.4736842105263 57.7243523316062  L 44.8842105263158 57.2455958549223  L 45.0210526315789 57.1088082901554  L 45.0894736842105 57.040414507772  L 45.8421052631579 56.0145077720207  L 45.9105263157895 55.9461139896373  L 47.1421052631579 54.9886010362694  L 47.2105263157895 54.9886010362694  L 47.2105263157895 54.920207253886  L 47.2789473684211 54.920207253886  L 48.7842105263158 54.7150259067357  C 48.7842105263158 54.7150259067357  48.7842105263158 55.1253886010363  48.7842105263158 55.1253886010363  C 48.7842105263158 55.6041450777202  48.8526315789474 55.9461139896373  48.9210526315789 56.1512953367876  C 48.9210526315789 56.1512953367876  49.1947368421053 56.7668393782383  49.1947368421053 56.7668393782383  L 49.6052631578947 57.6559585492228  L 50.9736842105263 58.4082901554404  L 54.7368421052632 58.7502590673575  L 54.8736842105263 58.7502590673575  L 55.078947368421 58.7502590673575  L 55.078947368421 58.9554404145078  L 55.078947368421 59.0922279792746  L 54.9421052631579 60.3233160621762  L 56.0368421052631 61.4860103626943  L 56.8578947368421 61.8279792746114  L 56.9947368421052 61.8963730569948  L 56.9947368421052 61.9647668393782  L 57.0631578947368 62.1015544041451  L 57.0631578947368 62.580310880829  L 57.0631578947368 63.2642487046632  L 56.7210526315789 64.6321243523316  C 56.7210526315789 64.6321243523316  57.2 64.9740932642487  57.2 64.9740932642487  C 57.7473684210526 64.9056994818653  58.2263157894737 64.9056994818653  58.7052631578947 65.2476683937824  C 58.7052631578947 65.2476683937824  60.2789473684211 66  60.2789473684211 66  L 61.2368421052632 65.2476683937824  L 62.2631578947368 64.1533678756477  L 62.3315789473684 63.6746113989637  L 62.4 63.5378238341969  L 62.5368421052631 63.4694300518135  L 62.6736842105263 63.3326424870466  L 62.6736842105263 63.1958549222798  L 62.3315789473684 61.759585492228  L 62.2631578947368 61.0072538860104  L 62.1947368421053 60.9388601036269  L 62.1947368421053 60.8704663212435  L 62.2631578947368 60.8020725388601  L 62.2631578947368 60.7336787564767  L 62.8105263157895 59.8445595854922  L 62.878947368421 59.7761658031088  L 63.9736842105263 59.0238341968912  L 64.0421052631579 59.0238341968912  L 66.3 59.0238341968912  L 66.6421052631579 58.8870466321244  L 66.5736842105263 57.7243523316062  L 66.2315789473684 56.6984455958549  L 65.478947368421 55.4673575129534  L 65.4105263157895 55.3989637305699  L 65.4105263157895 55.3305699481865  L 65.4105263157895 53.620725388601  L 65.4105263157895 53.5523316062176  L 65.8210526315789 52.5264248704663  L 65.8894736842105 52.4580310880829  L 67.7368421052632 49.7906735751295  L 67.8052631578947 49.7222797927461  L 67.8736842105263 49.7222797927461  L 68.0105263157895 49.6538860103627  L 68.4210526315789 49.6538860103627  L 69.1052631578947 49.7222797927461  L 70.678947368421 50.6113989637306  L 71.7052631578947 50.8849740932642  L 71.8421052631579 50.4062176165803  L 71.6368421052631 50.2694300518135  C 71.6368421052631 50.2694300518135  71.6368421052631 50.0642487046632  71.6368421052631 50.0642487046632  C 71.6368421052631 49.6538860103627  71.8421052631579 49.3119170984456  72.2526315789474 48.9699481865285  C 72.2526315789474 48.9699481865285  73.4842105263158 48.0808290155441  73.4842105263158 48.0808290155441  L 73.5526315789474 48.0124352331606  C 73.5526315789474 48.0124352331606  73.5526315789474 47.9440414507772  73.5526315789474 47.9440414507772  C 74.2368421052632 47.738860103627  74.6473684210526 47.6020725388601  74.9210526315789 47.6020725388601  C 74.9210526315789 47.6020725388601  76.0157894736842 47.4652849740933  76.0157894736842 47.4652849740933  L 76.1526315789474 47.4652849740933  L 76.8368421052631 47.6020725388601  L 77.3157894736842 45.8922279792746  C 77.3157894736842 45.8922279792746  77.3157894736842 44.7295336787565  77.3157894736842 44.7295336787565  C 77.3157894736842 43.9772020725389  77.3157894736842 43.4984455958549  77.5210526315789 43.3616580310881  C 77.5210526315789 43.3616580310881  78 42.4725388601036  78 42.4725388601036  L 77.3842105263158 41.6518134715026  L 76.5631578947368 41.1046632124352  C 76.5631578947368 41.1046632124352  74.8526315789474 40.6259067357513  74.8526315789474 40.6259067357513  C 74.5105263157894 40.6259067357513  73.8947368421053 40.2839378238342  72.8684210526316 39.3948186528497  C 72.8684210526316 39.3948186528497  71.8421052631579 38.9160621761658  71.8421052631579 38.9160621761658  L 71.7736842105263 38.9160621761658  L 71.7052631578947 38.8476683937824  L 70.4736842105263 37.3430051813471  L 69.3105263157895 37.3430051813471  L 69.2421052631579 37.2746113989637  L 69.1736842105263 37.2746113989637  L 68.1473684210526 36.7274611398964  L 67.5315789473684 37.5481865284974  L 67.3947368421053 40.7626943005181  L 67.6 41.9937823834197  L 68.0789473684211 41.9937823834197  L 68.1473684210526 42.0621761658031  L 69.1052631578947 42.3357512953368  L 69.1052631578947 42.4041450777202  L 69.1052631578947 42.4725388601036  L 69.5842105263158 43.6352331606218  L 69.6526315789474 43.6352331606218  L 69.6526315789474 43.7036269430052  L 69.6526315789474 43.7720207253886  L 69.378947368421 45.8922279792746  L 69.378947368421 46.0290155440415  L 69.378947368421 46.0974093264249  C 69.378947368421 46.0974093264249  69.3105263157895 46.1658031088083  69.3105263157895 46.1658031088083  C 68.9684210526316 46.3709844559586  68.6947368421053 46.5077720207254  68.3526315789474 46.7129533678757  C 68.3526315789474 46.7129533678757  68.2157894736842 46.7813471502591  68.2157894736842 46.7813471502591  L 68.1473684210526 46.7129533678757  L 68.0789473684211 46.7129533678757  L 67.6 46.5761658031088  L 66.5052631578947 46.9865284974093  L 66.4368421052632 46.9865284974093  L 66.5052631578947 47.1917098445596  L 66.5736842105263 47.260103626943  C 66.5736842105263 47.260103626943  66.7789473684211 49.1067357512953  66.7789473684211 49.1067357512953  C 66.7789473684211 49.380310880829  66.6421052631579 49.5170984455959  66.3684210526316 49.5854922279793  C 66.3684210526316 49.5854922279793  65.5473684210526 49.5854922279793  65.5473684210526 49.5854922279793  C 65.1368421052632 49.5170984455959  64.9315789473684 49.380310880829  64.7263157894737 49.1751295336788  C 64.7263157894737 49.1751295336788  63.9052631578947 48.559585492228  63.9052631578947 48.559585492228  L 63.8368421052632 48.4911917098446  L 63.7684210526316 48.4911917098446  L 63.7684210526316 48.4227979274611  C 63.7684210526316 48.4227979274611  63.2894736842105 47.260103626943  63.2894736842105 47.260103626943  C 63.1526315789474 47.1233160621762  62.8105263157895 46.9181347150259  62.1263157894737 46.7129533678757  C 62.1263157894737 46.7129533678757  62.0578947368421 46.7129533678757  62.0578947368421 46.7129533678757  L 61.9894736842105 46.7129533678757  L 61.0315789473684 46.0290155440415  L 60.8947368421053 46.0290155440415  L 60.8947368421053 45.8922279792746  L 60.6210526315789 44.7295336787565  L 60.7578947368421 43.840414507772  L 60.8263157894737 43.840414507772  L 60.8263157894737 43.7720207253886  L 61.2368421052632 43.2932642487047  L 61.2368421052632 42.9512953367876  L 60.8263157894737 41.720207253886  L 59.8684210526316 40.8310880829016  L 59.8684210526316 40.6943005181347  L 59.5947368421053 37.8901554404145  L 58.9105263157895 37.2062176165803  L 58.8421052631579 37.2062176165803  L 58.7736842105263 37.1378238341969  L 58.2263157894737 35.8383419689119  C 58.2263157894737 35.8383419689119  55.7631578947368 35.5647668393782  55.7631578947368 35.5647668393782  C 55.1473684210526 35.359585492228  54.7368421052632 34.9492227979275  54.4631578947368 34.4020725388601  C 54.4631578947368 34.4020725388601  53.3684210526316 34.4020725388601  53.3684210526316 34.4020725388601  C 52.9578947368421 34.2652849740933  52.5473684210526 33.9917098445596  52.0684210526316 33.5129533678757  C 52.0684210526316 33.5129533678757  51.9315789473684 33.3761658031088  51.9315789473684 33.3761658031088  C 51.6578947368421 33.1025906735751  51.3842105263158 32.6922279792746  51.1105263157895 32.1450777202073  C 51.1105263157895 32.1450777202073  51.0421052631579 32.0766839378238  51.0421052631579 32.0766839378238  L 50.8368421052631 30.9823834196891  L 50.8368421052631 30.9139896373057  L 50.8368421052631 30.8455958549223  L 51.2473684210526 28.7253886010363  L 51.2473684210526 28.6569948186529  L 51.6578947368421 27.7678756476684  L 51.6578947368421 27.699481865285  L 51.6578947368421 27.6310880829016  L 51.7263157894737 27.6310880829016  L 54.3263157894737 26.5367875647668  L 55.3526315789474 25.3056994818653  L 55.5578947368421 24.279792746114  C 55.5578947368421 24.279792746114  55.4210526315789 23.5274611398964  55.4210526315789 23.5274611398964  C 55.0105263157895 22.6383419689119  54.7368421052632 22.0911917098446  54.7368421052632 21.7492227979275  C 54.7368421052632 21.7492227979275  54.1894736842105 21.8176165803109  54.1894736842105 21.8176165803109  C 54.1894736842105 21.8176165803109  53.2315789473684 21.7492227979275  53.2315789473684 21.7492227979275  C 53.0263157894737 21.8176165803109  52.478947368421 22.4331606217617  51.7263157894737 23.3222797927461  C 51.7263157894737 23.3222797927461  50.5631578947368 24.4165803108808  50.5631578947368 24.4165803108808  L 50.4947368421053 24.4165803108808  C 50.4947368421053 24.4165803108808  50.4263157894737 24.4849740932643  50.4263157894737 24.4849740932643  C 49.5368421052631 24.6901554404145  48.9210526315789 24.8269430051814  48.5789473684211 24.6901554404145  Z " stroke-width="2" stroke="#ffffff" fill="none" transform="matrix(1 0 0 1 1919 1843 )" mask="url(#clip73)" />
  </g>
</svg>