<?xml version="1.0" encoding="utf-8"?>
<svg version="1.1" xmlns:xlink="http://www.w3.org/1999/xlink" width="106px" height="65px" xmlns="http://www.w3.org/2000/svg">
  <defs>
    <mask fill="white" id="clip78">
      <path d="M 14.0345924880014 0.204402515723278  L 12.8875467079855 0.204402515723278  C 12.8875467079855 0.204402515723278  12.8875467079855 0.272536687631031  12.8875467079855 0.272536687631031  C 12.6176535832758 0.885744234800846  12.1446658822222 1.29454926624738  11.6055543656147 1.77148846960169  C 11.2007146785502 1.97589098532495  11.0657681161954 2.31656184486374  11.0657681161954 2.72536687631027  C 11.0657681161954 2.72536687631027  11.0657681161954 2.92976939203355  11.0657681161954 2.92976939203355  C 11.0657681161954 3.27044025157233  10.8633482726632 3.8155136268344  10.3235620232439 4.63312368972747  C 10.3235620232439 4.63312368972747  10.2560887420665 4.97379454926625  10.2560887420665 4.97379454926625  C 10.1204674468999 5.17819706498953  9.851249055002 5.31446540880504  9.37893608676013 5.31446540880504  C 9.37893608676013 5.31446540880504  5.53295905964774 4.83752620545075  5.53295905964774 4.83752620545075  L 5.53295905964774 4.9056603773585  L 5.2630659349381 5.79140461215933  L 5.2630659349381 5.8595387840671  C 5.2630659349381 5.8595387840671  5.19559265376069 5.92767295597485  5.19559265376069 5.92767295597485  C 4.18349343609953 7.35849056603774  3.50876062432543 8.3805031446541  3.44128734314801 9.06184486373166  C 3.37313932915883 9.40251572327045  3.77865374903507 10.6289308176101  4.6558064043414 12.7410901467505  C 4.6558064043414 12.7410901467505  5.2630659349381 14.1719077568134  5.2630659349381 14.1719077568134  C 5.53295905964774 14.853249475891  5.33053921611551 15.6708595387841  4.72260495270704 16.5566037735849  C 4.72260495270704 16.5566037735849  3.50876062432543 17.7830188679245  3.50876062432543 17.7830188679245  L 1.48456218900312 17.7830188679245  L 1.07972250193865 15.5345911949686  L 0.539936252519368 18.3280922431866  C 0.539936252519368 18.3280922431866  1.4170889078257 19.6907756813417  1.4170889078257 19.6907756813417  C 1.48456218900312 19.895178197065  1.48456218900312 20.0314465408805  1.4170889078257 20.0995807127883  C 1.4170889078257 20.0995807127883  1.28214234547088 20.2358490566038  1.28214234547088 20.2358490566038  C 1.01157448794947 20.440251572327  0.60740953369678 21.1215932914046  0.202569846632316 22.2798742138365  C -0.202269840432144 23.3018867924528  -0.000524729711687754 24.3238993710692  0.809829377229011 25.4140461215933  C 0.809829377229011 25.4140461215933  2.42918812548686 25.4140461215933  2.42918812548686 25.4140461215933  C 2.96897437490614 25.5503144654088  3.77865374903507 26.4360587002097  4.92569952905104 28.0031446540881  C 4.92569952905104 28.0031446540881  4.99317281022845 28.1394129979036  4.99317281022845 28.1394129979036  C 4.99317281022845 28.6163522012579  5.19559265376069 28.9570230607966  5.53295905964774 29.2295597484277  C 5.53295905964774 29.2295597484277  9.10836822923871 32.5681341719078  9.10836822923871 32.5681341719078  L 9.10836822923871 32.6362683438155  L 10.7284017103083 34.6802935010482  L 11.6730276467921 34.6802935010482  L 12.6851268644532 32.8406708595388  L 12.8193986939963 32.7044025157233  L 12.8875467079855 32.6362683438155  L 15.3840581115496 33.2494758909853  L 15.3840581115496 33.3176100628931  L 15.3840581115496 33.4538784067086  L 15.7214245174367 35.1572327044025  L 18.6902488892428 38.6320754716981  L 19.7023481069039 39.0408805031447  L 19.7698213880813 39.1090146750524  L 20.2414596235114 39.3815513626834  L 20.3096076375006 39.4496855345912  L 22.5362259163552 42.7882599580713  L 24.3580045081452 42.5157232704402  L 24.4929510705001 42.5157232704402  L 24.5604243516775 42.5157232704402  L 24.6953709140323 42.6519916142558  L 24.7628441952097 42.7882599580713  L 26.3140549294784 46.0587002096436  L 28.2039815352576 47.2169811320755  L 29.7558670023381 47.625786163522  L 30.4980730952896 49.7379454926625  L 31.6451188753056 49.7379454926625  L 31.7119174236712 49.8060796645702  L 34.1416302788697 51.1687631027254  L 34.1416302788697 51.2368972746331  L 34.2091035600471 51.3050314465409  L 35.9634088706598 53.4853249475891  L 38.5273935554014 53.0083857442348  L 38.6623401177562 53.0083857442348  L 39.60696605424 53.4171907756813  L 39.6744393354174 53.4171907756813  L 41.2937980836752 54.8480083857442  L 44.1951491743039 55.0524109014675  C 44.1951491743039 55.0524109014675  45.9494544849165 54.7798742138365  45.9494544849165 54.7798742138365  C 48.3110193261259 54.3710691823899  49.7954315120289 54.5754716981132  50.3352177614482 55.188679245283  C 50.6725841673353 55.7337526205451  50.4701643238031 56.2788259958071  49.6604849496741 56.9601677148847  C 49.6604849496741 56.9601677148847  48.9857521379 57.6415094339623  48.9857521379 57.6415094339623  C 48.7833322943678 57.9821802935011  49.0532254190774 58.5272536687631  49.9303780743838 59.3448637316562  C 49.9303780743838 59.3448637316562  49.9978513555612 59.4811320754717  49.9978513555612 59.4811320754717  L 49.9303780743838 59.4811320754717  L 50.4701643238031 59.8899371069182  C 50.4701643238031 59.8899371069182  50.6725841673353 59.685534591195  50.6725841673353 59.685534591195  C 52.3594161967705 56.4832285115304  53.7088818203187 54.7117400419287  54.6535077568025 54.3710691823899  C 55.6656069744636 54.0303983228512  57.7572786909634 54.916142557652  61.0634694686565 56.9601677148847  C 61.0634694686565 56.9601677148847  65.1118663393011 57.70964360587  65.1118663393011 57.70964360587  L 65.0443930581237 57.8459119496855  L 65.0443930581237 57.9821802935011  L 64.8419732145915 59.8899371069182  L 66.8661716499138 60.1624737945493  C 66.8661716499138 60.1624737945493  66.7986983687364 62.751572327044  66.7986983687364 62.751572327044  C 67.4059578993331 63.9098532494759  67.8782708675749 64.5911949685535  68.1481639922846 64.7955974842767  C 68.553003679349 65.0681341719078  70.5772021146713 65.0681341719078  74.1532860170741 64.7955974842767  C 74.1532860170741 64.7955974842767  76.2449577335738 63.7054507337526  76.2449577335738 63.7054507337526  L 78.2691561688961 60.8438155136268  L 80.6307210101055 60.7756813417191  L 81.7777667901215 60.4350104821803  L 86.2310033478306 57.8459119496855  L 86.298476629008 57.8459119496855  C 86.298476629008 57.8459119496855  86.3659499101854 57.7777777777778  86.3659499101854 57.7777777777778  C 88.929934594927 57.5052410901467  90.41434678083 57.437106918239  90.8185117350827 57.7777777777778  C 90.8185117350827 57.7777777777778  93.7205375585231 60.230607966457  93.7205375585231 60.230607966457  L 94.5976902138294 60.5712788259958  L 94.7326367761843 60.7075471698113  L 95.8790078233884 61.1844863731656  L 95.9471558373776 61.2526205450734  L 95.9471558373776 61.0482180293501  L 95.9471558373776 60.9800838574423  L 95.9471558373776 60.9119496855346  L 95.9471558373776 60.8438155136268  C 95.9471558373776 60.8438155136268  96.4194688056195 58.7997903563941  96.4194688056195 58.7997903563941  C 96.2163742292755 58.1865828092243  96.2163742292755 57.70964360587  96.4194688056195 57.3008385744235  C 96.5537406351625 56.9601677148847  96.8911070410496 56.7557651991614  97.4315680232807 56.6194968553459  C 98.4436672409418 56.4150943396226  99.3882931774256 57.3008385744235  100.332919113909 59.2085953878407  C 100.332919113909 59.2085953878407  100.467865676264 59.2767295597484  100.467865676264 59.2767295597484  L 100.535338957442 59.2767295597484  C 100.535338957442 59.2767295597484  102.222170986877 58.5272536687631  102.222170986877 58.5272536687631  C 102.559537392764 58.4591194968554  102.694483955119 58.1184486373166  102.694483955119 57.7777777777778  C 102.694483955119 57.7777777777778  102.357117549232 56.5513626834382  102.357117549232 56.5513626834382  C 102.357117549232 56.5513626834382  102.357117549232 56.4832285115304  102.357117549232 56.4832285115304  C 102.222170986877 55.9381551362684  102.357117549232 55.461215932914  102.896903798651 55.2568134171908  C 102.896903798651 55.2568134171908  103.504163329248 54.7798742138365  103.504163329248 54.7798742138365  L 104.987900782339 53.1446540880503  C 104.987900782339 53.1446540880503  106 50.8962264150943  106 50.8962264150943  C 105.123522077505 49.4654088050315  104.853628952796 48.4433962264151  105.123522077505 47.7620545073375  C 105.123522077505 47.7620545073375  105.325267188226 45.8542976939203  105.325267188226 45.8542976939203  C 104.921102233973 45.0366876310273  104.718682390441 44.4916142557652  104.718682390441 44.0146750524109  C 104.718682390441 43.8102725366876  104.448789265731 43.1970649895178  103.909003016312 42.3794549266247  C 103.909003016312 42.3794549266247  103.841529735135 42.3794549266247  103.841529735135 42.3794549266247  L 103.841529735135 42.1750524109015  C 103.841529735135 42.1750524109015  103.638435158791 39.7222222222222  103.638435158791 39.7222222222222  C 103.571636610425 39.3134171907757  103.504163329248 38.7683438155136  103.638435158791 38.0870020964361  C 103.031850361006 37.6100628930818  102.626335941129 37.1331236897275  102.357117549232 36.6561844863732  C 102.357117549232 36.6561844863732  101.34501833157 35.293501048218  101.34501833157 35.293501048218  L 101.276870317581 35.2253668763103  L 101.276870317581 35.0890985324948  L 101.276870317581 35.020964360587  L 100.939503911694 33.3176100628931  L 99.9274046940331 32.5  L 99.9274046940331 32.5681341719078  L 97.9713542726999 31.0010482180294  L 97.9713542726999 31.1373165618449  L 98.2405726645978 33.2494758909853  L 98.2405726645978 33.3176100628931  L 98.2405726645978 33.5220125786164  L 97.2284734469367 33.9989517819707  L 97.0942016173936 35.293501048218  L 97.0942016173936 35.4979035639413  L 94.7326367761843 36.4517819706499  L 93.9229574020553 34.5440251572327  L 93.4506444338135 34.4077568134172  L 92.708438340862 35.1572327044025  L 92.2361253726201 36.5199161425577  L 90.5492933431848 36.996855345912  L 89.6046674067011 36.3155136268344  L 88.2552017831529 35.9067085953878  L 87.8503620960884 33.9989517819707  L 87.3105758466691 32.8406708595388  L 86.5008964725402 32.5  L 86.432748458551 32.3637316561845  L 85.8261636607661 31.6142557651992  L 85.2189041301694 30.5241090146751  L 84.2742781936856 29.2976939203354  L 83.4645988195567 29.2976939203354  L 82.1151331960085 29.7746331236897  L 82.0469851820193 29.8427672955975  L 78.6065225747832 29.6383647798742  C 78.6065225747832 29.6383647798742  75.9743898760524 29.0932914046122  75.9743898760524 29.0932914046122  C 75.7726447653319 28.9570230607966  75.2996570642783 28.7526205450734  74.5581257041386 28.2756813417191  C 74.5581257041386 28.2756813417191  72.5339272688162 27.5943396226415  72.5339272688162 27.5943396226415  C 70.9820418017358 27.185534591195  70.1048891464295 26.8448637316562  69.9024693028972 26.4360587002097  C 69.9024693028972 26.4360587002097  69.5651028970102 26.2316561844864  69.5651028970102 26.2316561844864  L 69.0927899287683 26.0953878406709  L 67.8782708675749 25.4140461215933  C 67.8782708675749 25.4140461215933  67.7433243052201 25.3459119496855  67.7433243052201 25.3459119496855  C 67.5409044616879 25.0733752620545  67.3384846181556 24.8689727463312  67.2035380558008 24.5964360587002  C 67.2035380558008 24.5964360587002  66.9336449310912 23.9832285115304  66.9336449310912 23.9832285115304  L 66.3938586816719 23.1656184486373  L 65.5167060263656 22.7568134171908  L 65.1793396204785 22.9612159329141  L 64.8419732145915 23.2337526205451  C 64.8419732145915 23.2337526205451  64.6395533710592 23.3700209643606  64.6395533710592 23.3700209643606  C 64.3021869651722 23.6425576519916  63.9648205592851 23.7788259958071  63.6949274345755 23.8469601677149  C 63.1551411851562 23.9832285115304  62.6153549357369 23.7106918238994  62.0080954051402 23.0293501048218  C 62.0080954051402 23.0293501048218  60.7261030627694 21.6666666666667  60.7261030627694 21.6666666666667  C 60.2537900945276 21.0534591194969  59.9164236886405 20.5765199161426  59.7814771262857 20.2358490566038  C 59.7814771262857 20.2358490566038  59.4441107203986 19.6907756813417  59.4441107203986 19.6907756813417  C 58.9717977521568 19.2138364779874  58.6344313462697 18.7368972746331  58.4320115027375 18.3280922431866  C 58.2295916592052 17.7148846960168  58.1621183780278 17.1698113207547  58.3645382215601 16.6247379454927  C 58.3645382215601 16.6247379454927  58.3645382215601 16.5566037735849  58.3645382215601 16.5566037735849  L 59.2416908768664 15.0576519916143  L 59.7140038451083 13.4905660377359  L 59.9164236886405 12.4685534591195  L 59.5790572827534 10.9014675052411  L 58.5669580650923 10.0157232704403  C 58.5669580650923 10.0157232704403  58.7693779086245 8.72117400419288  58.7693779086245 8.72117400419288  C 58.7693779086245 7.76729559748428  59.1067443145116 7.29035639412999  59.7814771262857 7.15408805031446  C 59.9838969698179 7.08595387840671  60.1188435321727 6.94968553459121  60.0513702509953 6.67714884696018  C 60.0513702509953 6.67714884696018  60.0513702509953 6.60901467505242  60.0513702509953 6.60901467505242  L 60.1188435321727 5.24633123689729  L 60.1188435321727 5.17819706498953  L 60.1188435321727 3.61111111111112  L 59.9838969698179 3.61111111111112  L 59.9164236886405 3.54297693920337  L 59.6465305639309 3.40670859538784  L 59.6465305639309 3.33857442348009  L 59.5790572827534 3.33857442348009  L 58.3645382215601 2.52096436058701  L 58.2970649403827 2.52096436058701  L 57.3524390038989 1.70335429769392  L 54.1811947885606 1.09014675052412  L 53.1690955708995 0.340670859538784  C 53.1690955708995 0.340670859538784  51.279843697932 0.340670859538784  51.279843697932 0.340670859538784  C 51.0099505732223 0.340670859538784  50.6725841673353 0.545073375262062  50.2002711990934 0.817610062893094  C 50.2002711990934 0.817610062893094  50.132797917916 0.817610062893094  50.132797917916 0.817610062893094  L 48.648385732013 1.36268343815514  C 48.648385732013 1.36268343815514  44.9373552672554 1.36268343815514  44.9373552672554 1.36268343815514  C 44.3975690178361 1.49895178197066  43.9252560495942 1.63522012578617  43.6553629248846 1.9077568134172  C 43.2505232378201 2.24842767295598  42.5076424120568 2.52096436058701  41.4955431943957 2.8616352201258  C 41.4955431943957 2.8616352201258  39.7419126165948 3.27044025157233  39.7419126165948 3.27044025157233  L 39.7419126165948 3.33857442348009  L 39.60696605424 3.33857442348009  L 37.109779917864 3.06603773584906  L 36.9080348071436 2.9979035639413  L 36.975508088321 3.06603773584906  L 36.9080348071436 2.9979035639413  L 36.0308821518372 2.92976939203355  L 34.5464699659342 3.40670859538784  L 31.5776455941281 3.67924528301887  L 31.5101723129507 3.67924528301887  L 31.4426990317733 3.61111111111112  L 29.9582868458703 3.06603773584906  C 29.9582868458703 3.06603773584906  28.7437677846769 3.06603773584906  28.7437677846769 3.06603773584906  C 28.2039815352576 2.92976939203355  27.5967220046609 2.52096436058701  26.9219891928868 1.70335429769392  C 26.9219891928868 1.70335429769392  26.8545159117094 1.56708595387841  26.8545159117094 1.56708595387841  C 26.7195693493546 0.953878406708599  26.5171495058224 0.681341719077568  26.449676224645 0.545073375262062  C 26.449676224645 0.545073375262062  26.1123098187579 0.340670859538784  26.1123098187579 0.340670859538784  L 25.5050502881612 0  L 24.9645893059302 0.545073375262062  L 24.8977907575645 0.681341719077568  L 22.7386457598874 1.56708595387841  L 22.67117247871 1.56708595387841  L 22.5362259163552 1.56708595387841  C 22.5362259163552 1.56708595387841  19.9040932176244 1.83962264150945  19.9040932176244 1.83962264150945  C 19.4999282633717 1.83962264150945  18.7577221704202 1.63522012578617  17.745622952759 1.36268343815514  C 17.745622952759 1.36268343815514  15.4515313927271 0.953878406708599  15.4515313927271 0.953878406708599  L 15.3840581115496 0.953878406708599  L 14.0345924880014 0.204402515723278  Z " fill-rule="evenodd" />
    </mask>
  </defs>
  <g transform="matrix(1 0 0 1 -1839 -1877 )">
    <path d="M 14.0345924880014 0.204402515723278  L 12.8875467079855 0.204402515723278  C 12.8875467079855 0.204402515723278  12.8875467079855 0.272536687631031  12.8875467079855 0.272536687631031  C 12.6176535832758 0.885744234800846  12.1446658822222 1.29454926624738  11.6055543656147 1.77148846960169  C 11.2007146785502 1.97589098532495  11.0657681161954 2.31656184486374  11.0657681161954 2.72536687631027  C 11.0657681161954 2.72536687631027  11.0657681161954 2.92976939203355  11.0657681161954 2.92976939203355  C 11.0657681161954 3.27044025157233  10.8633482726632 3.8155136268344  10.3235620232439 4.63312368972747  C 10.3235620232439 4.63312368972747  10.2560887420665 4.97379454926625  10.2560887420665 4.97379454926625  C 10.1204674468999 5.17819706498953  9.851249055002 5.31446540880504  9.37893608676013 5.31446540880504  C 9.37893608676013 5.31446540880504  5.53295905964774 4.83752620545075  5.53295905964774 4.83752620545075  L 5.53295905964774 4.9056603773585  L 5.2630659349381 5.79140461215933  L 5.2630659349381 5.8595387840671  C 5.2630659349381 5.8595387840671  5.19559265376069 5.92767295597485  5.19559265376069 5.92767295597485  C 4.18349343609953 7.35849056603774  3.50876062432543 8.3805031446541  3.44128734314801 9.06184486373166  C 3.37313932915883 9.40251572327045  3.77865374903507 10.6289308176101  4.6558064043414 12.7410901467505  C 4.6558064043414 12.7410901467505  5.2630659349381 14.1719077568134  5.2630659349381 14.1719077568134  C 5.53295905964774 14.853249475891  5.33053921611551 15.6708595387841  4.72260495270704 16.5566037735849  C 4.72260495270704 16.5566037735849  3.50876062432543 17.7830188679245  3.50876062432543 17.7830188679245  L 1.48456218900312 17.7830188679245  L 1.07972250193865 15.5345911949686  L 0.539936252519368 18.3280922431866  C 0.539936252519368 18.3280922431866  1.4170889078257 19.6907756813417  1.4170889078257 19.6907756813417  C 1.48456218900312 19.895178197065  1.48456218900312 20.0314465408805  1.4170889078257 20.0995807127883  C 1.4170889078257 20.0995807127883  1.28214234547088 20.2358490566038  1.28214234547088 20.2358490566038  C 1.01157448794947 20.440251572327  0.60740953369678 21.1215932914046  0.202569846632316 22.2798742138365  C -0.202269840432144 23.3018867924528  -0.000524729711687754 24.3238993710692  0.809829377229011 25.4140461215933  C 0.809829377229011 25.4140461215933  2.42918812548686 25.4140461215933  2.42918812548686 25.4140461215933  C 2.96897437490614 25.5503144654088  3.77865374903507 26.4360587002097  4.92569952905104 28.0031446540881  C 4.92569952905104 28.0031446540881  4.99317281022845 28.1394129979036  4.99317281022845 28.1394129979036  C 4.99317281022845 28.6163522012579  5.19559265376069 28.9570230607966  5.53295905964774 29.2295597484277  C 5.53295905964774 29.2295597484277  9.10836822923871 32.5681341719078  9.10836822923871 32.5681341719078  L 9.10836822923871 32.6362683438155  L 10.7284017103083 34.6802935010482  L 11.6730276467921 34.6802935010482  L 12.6851268644532 32.8406708595388  L 12.8193986939963 32.7044025157233  L 12.8875467079855 32.6362683438155  L 15.3840581115496 33.2494758909853  L 15.3840581115496 33.3176100628931  L 15.3840581115496 33.4538784067086  L 15.7214245174367 35.1572327044025  L 18.6902488892428 38.6320754716981  L 19.7023481069039 39.0408805031447  L 19.7698213880813 39.1090146750524  L 20.2414596235114 39.3815513626834  L 20.3096076375006 39.4496855345912  L 22.5362259163552 42.7882599580713  L 24.3580045081452 42.5157232704402  L 24.4929510705001 42.5157232704402  L 24.5604243516775 42.5157232704402  L 24.6953709140323 42.6519916142558  L 24.7628441952097 42.7882599580713  L 26.3140549294784 46.0587002096436  L 28.2039815352576 47.2169811320755  L 29.7558670023381 47.625786163522  L 30.4980730952896 49.7379454926625  L 31.6451188753056 49.7379454926625  L 31.7119174236712 49.8060796645702  L 34.1416302788697 51.1687631027254  L 34.1416302788697 51.2368972746331  L 34.2091035600471 51.3050314465409  L 35.9634088706598 53.4853249475891  L 38.5273935554014 53.0083857442348  L 38.6623401177562 53.0083857442348  L 39.60696605424 53.4171907756813  L 39.6744393354174 53.4171907756813  L 41.2937980836752 54.8480083857442  L 44.1951491743039 55.0524109014675  C 44.1951491743039 55.0524109014675  45.9494544849165 54.7798742138365  45.9494544849165 54.7798742138365  C 48.3110193261259 54.3710691823899  49.7954315120289 54.5754716981132  50.3352177614482 55.188679245283  C 50.6725841673353 55.7337526205451  50.4701643238031 56.2788259958071  49.6604849496741 56.9601677148847  C 49.6604849496741 56.9601677148847  48.9857521379 57.6415094339623  48.9857521379 57.6415094339623  C 48.7833322943678 57.9821802935011  49.0532254190774 58.5272536687631  49.9303780743838 59.3448637316562  C 49.9303780743838 59.3448637316562  49.9978513555612 59.4811320754717  49.9978513555612 59.4811320754717  L 49.9303780743838 59.4811320754717  L 50.4701643238031 59.8899371069182  C 50.4701643238031 59.8899371069182  50.6725841673353 59.685534591195  50.6725841673353 59.685534591195  C 52.3594161967705 56.4832285115304  53.7088818203187 54.7117400419287  54.6535077568025 54.3710691823899  C 55.6656069744636 54.0303983228512  57.7572786909634 54.916142557652  61.0634694686565 56.9601677148847  C 61.0634694686565 56.9601677148847  65.1118663393011 57.70964360587  65.1118663393011 57.70964360587  L 65.0443930581237 57.8459119496855  L 65.0443930581237 57.9821802935011  L 64.8419732145915 59.8899371069182  L 66.8661716499138 60.1624737945493  C 66.8661716499138 60.1624737945493  66.7986983687364 62.751572327044  66.7986983687364 62.751572327044  C 67.4059578993331 63.9098532494759  67.8782708675749 64.5911949685535  68.1481639922846 64.7955974842767  C 68.553003679349 65.0681341719078  70.5772021146713 65.0681341719078  74.1532860170741 64.7955974842767  C 74.1532860170741 64.7955974842767  76.2449577335738 63.7054507337526  76.2449577335738 63.7054507337526  L 78.2691561688961 60.8438155136268  L 80.6307210101055 60.7756813417191  L 81.7777667901215 60.4350104821803  L 86.2310033478306 57.8459119496855  L 86.298476629008 57.8459119496855  C 86.298476629008 57.8459119496855  86.3659499101854 57.7777777777778  86.3659499101854 57.7777777777778  C 88.929934594927 57.5052410901467  90.41434678083 57.437106918239  90.8185117350827 57.7777777777778  C 90.8185117350827 57.7777777777778  93.7205375585231 60.230607966457  93.7205375585231 60.230607966457  L 94.5976902138294 60.5712788259958  L 94.7326367761843 60.7075471698113  L 95.8790078233884 61.1844863731656  L 95.9471558373776 61.2526205450734  L 95.9471558373776 61.0482180293501  L 95.9471558373776 60.9800838574423  L 95.9471558373776 60.9119496855346  L 95.9471558373776 60.8438155136268  C 95.9471558373776 60.8438155136268  96.4194688056195 58.7997903563941  96.4194688056195 58.7997903563941  C 96.2163742292755 58.1865828092243  96.2163742292755 57.70964360587  96.4194688056195 57.3008385744235  C 96.5537406351625 56.9601677148847  96.8911070410496 56.7557651991614  97.4315680232807 56.6194968553459  C 98.4436672409418 56.4150943396226  99.3882931774256 57.3008385744235  100.332919113909 59.2085953878407  C 100.332919113909 59.2085953878407  100.467865676264 59.2767295597484  100.467865676264 59.2767295597484  L 100.535338957442 59.2767295597484  C 100.535338957442 59.2767295597484  102.222170986877 58.5272536687631  102.222170986877 58.5272536687631  C 102.559537392764 58.4591194968554  102.694483955119 58.1184486373166  102.694483955119 57.7777777777778  C 102.694483955119 57.7777777777778  102.357117549232 56.5513626834382  102.357117549232 56.5513626834382  C 102.357117549232 56.5513626834382  102.357117549232 56.4832285115304  102.357117549232 56.4832285115304  C 102.222170986877 55.9381551362684  102.357117549232 55.461215932914  102.896903798651 55.2568134171908  C 102.896903798651 55.2568134171908  103.504163329248 54.7798742138365  103.504163329248 54.7798742138365  L 104.987900782339 53.1446540880503  C 104.987900782339 53.1446540880503  106 50.8962264150943  106 50.8962264150943  C 105.123522077505 49.4654088050315  104.853628952796 48.4433962264151  105.123522077505 47.7620545073375  C 105.123522077505 47.7620545073375  105.325267188226 45.8542976939203  105.325267188226 45.8542976939203  C 104.921102233973 45.0366876310273  104.718682390441 44.4916142557652  104.718682390441 44.0146750524109  C 104.718682390441 43.8102725366876  104.448789265731 43.1970649895178  103.909003016312 42.3794549266247  C 103.909003016312 42.3794549266247  103.841529735135 42.3794549266247  103.841529735135 42.3794549266247  L 103.841529735135 42.1750524109015  C 103.841529735135 42.1750524109015  103.638435158791 39.7222222222222  103.638435158791 39.7222222222222  C 103.571636610425 39.3134171907757  103.504163329248 38.7683438155136  103.638435158791 38.0870020964361  C 103.031850361006 37.6100628930818  102.626335941129 37.1331236897275  102.357117549232 36.6561844863732  C 102.357117549232 36.6561844863732  101.34501833157 35.293501048218  101.34501833157 35.293501048218  L 101.276870317581 35.2253668763103  L 101.276870317581 35.0890985324948  L 101.276870317581 35.020964360587  L 100.939503911694 33.3176100628931  L 99.9274046940331 32.5  L 99.9274046940331 32.5681341719078  L 97.9713542726999 31.0010482180294  L 97.9713542726999 31.1373165618449  L 98.2405726645978 33.2494758909853  L 98.2405726645978 33.3176100628931  L 98.2405726645978 33.5220125786164  L 97.2284734469367 33.9989517819707  L 97.0942016173936 35.293501048218  L 97.0942016173936 35.4979035639413  L 94.7326367761843 36.4517819706499  L 93.9229574020553 34.5440251572327  L 93.4506444338135 34.4077568134172  L 92.708438340862 35.1572327044025  L 92.2361253726201 36.5199161425577  L 90.5492933431848 36.996855345912  L 89.6046674067011 36.3155136268344  L 88.2552017831529 35.9067085953878  L 87.8503620960884 33.9989517819707  L 87.3105758466691 32.8406708595388  L 86.5008964725402 32.5  L 86.432748458551 32.3637316561845  L 85.8261636607661 31.6142557651992  L 85.2189041301694 30.5241090146751  L 84.2742781936856 29.2976939203354  L 83.4645988195567 29.2976939203354  L 82.1151331960085 29.7746331236897  L 82.0469851820193 29.8427672955975  L 78.6065225747832 29.6383647798742  C 78.6065225747832 29.6383647798742  75.9743898760524 29.0932914046122  75.9743898760524 29.0932914046122  C 75.7726447653319 28.9570230607966  75.2996570642783 28.7526205450734  74.5581257041386 28.2756813417191  C 74.5581257041386 28.2756813417191  72.5339272688162 27.5943396226415  72.5339272688162 27.5943396226415  C 70.9820418017358 27.185534591195  70.1048891464295 26.8448637316562  69.9024693028972 26.4360587002097  C 69.9024693028972 26.4360587002097  69.5651028970102 26.2316561844864  69.5651028970102 26.2316561844864  L 69.0927899287683 26.0953878406709  L 67.8782708675749 25.4140461215933  C 67.8782708675749 25.4140461215933  67.7433243052201 25.3459119496855  67.7433243052201 25.3459119496855  C 67.5409044616879 25.0733752620545  67.3384846181556 24.8689727463312  67.2035380558008 24.5964360587002  C 67.2035380558008 24.5964360587002  66.9336449310912 23.9832285115304  66.9336449310912 23.9832285115304  L 66.3938586816719 23.1656184486373  L 65.5167060263656 22.7568134171908  L 65.1793396204785 22.9612159329141  L 64.8419732145915 23.2337526205451  C 64.8419732145915 23.2337526205451  64.6395533710592 23.3700209643606  64.6395533710592 23.3700209643606  C 64.3021869651722 23.6425576519916  63.9648205592851 23.7788259958071  63.6949274345755 23.8469601677149  C 63.1551411851562 23.9832285115304  62.6153549357369 23.7106918238994  62.0080954051402 23.0293501048218  C 62.0080954051402 23.0293501048218  60.7261030627694 21.6666666666667  60.7261030627694 21.6666666666667  C 60.2537900945276 21.0534591194969  59.9164236886405 20.5765199161426  59.7814771262857 20.2358490566038  C 59.7814771262857 20.2358490566038  59.4441107203986 19.6907756813417  59.4441107203986 19.6907756813417  C 58.9717977521568 19.2138364779874  58.6344313462697 18.7368972746331  58.4320115027375 18.3280922431866  C 58.2295916592052 17.7148846960168  58.1621183780278 17.1698113207547  58.3645382215601 16.6247379454927  C 58.3645382215601 16.6247379454927  58.3645382215601 16.5566037735849  58.3645382215601 16.5566037735849  L 59.2416908768664 15.0576519916143  L 59.7140038451083 13.4905660377359  L 59.9164236886405 12.4685534591195  L 59.5790572827534 10.9014675052411  L 58.5669580650923 10.0157232704403  C 58.5669580650923 10.0157232704403  58.7693779086245 8.72117400419288  58.7693779086245 8.72117400419288  C 58.7693779086245 7.76729559748428  59.1067443145116 7.29035639412999  59.7814771262857 7.15408805031446  C 59.9838969698179 7.08595387840671  60.1188435321727 6.94968553459121  60.0513702509953 6.67714884696018  C 60.0513702509953 6.67714884696018  60.0513702509953 6.60901467505242  60.0513702509953 6.60901467505242  L 60.1188435321727 5.24633123689729  L 60.1188435321727 5.17819706498953  L 60.1188435321727 3.61111111111112  L 59.9838969698179 3.61111111111112  L 59.9164236886405 3.54297693920337  L 59.6465305639309 3.40670859538784  L 59.6465305639309 3.33857442348009  L 59.5790572827534 3.33857442348009  L 58.3645382215601 2.52096436058701  L 58.2970649403827 2.52096436058701  L 57.3524390038989 1.70335429769392  L 54.1811947885606 1.09014675052412  L 53.1690955708995 0.340670859538784  C 53.1690955708995 0.340670859538784  51.279843697932 0.340670859538784  51.279843697932 0.340670859538784  C 51.0099505732223 0.340670859538784  50.6725841673353 0.545073375262062  50.2002711990934 0.817610062893094  C 50.2002711990934 0.817610062893094  50.132797917916 0.817610062893094  50.132797917916 0.817610062893094  L 48.648385732013 1.36268343815514  C 48.648385732013 1.36268343815514  44.9373552672554 1.36268343815514  44.9373552672554 1.36268343815514  C 44.3975690178361 1.49895178197066  43.9252560495942 1.63522012578617  43.6553629248846 1.9077568134172  C 43.2505232378201 2.24842767295598  42.5076424120568 2.52096436058701  41.4955431943957 2.8616352201258  C 41.4955431943957 2.8616352201258  39.7419126165948 3.27044025157233  39.7419126165948 3.27044025157233  L 39.7419126165948 3.33857442348009  L 39.60696605424 3.33857442348009  L 37.109779917864 3.06603773584906  L 36.9080348071436 2.9979035639413  L 36.975508088321 3.06603773584906  L 36.9080348071436 2.9979035639413  L 36.0308821518372 2.92976939203355  L 34.5464699659342 3.40670859538784  L 31.5776455941281 3.67924528301887  L 31.5101723129507 3.67924528301887  L 31.4426990317733 3.61111111111112  L 29.9582868458703 3.06603773584906  C 29.9582868458703 3.06603773584906  28.7437677846769 3.06603773584906  28.7437677846769 3.06603773584906  C 28.2039815352576 2.92976939203355  27.5967220046609 2.52096436058701  26.9219891928868 1.70335429769392  C 26.9219891928868 1.70335429769392  26.8545159117094 1.56708595387841  26.8545159117094 1.56708595387841  C 26.7195693493546 0.953878406708599  26.5171495058224 0.681341719077568  26.449676224645 0.545073375262062  C 26.449676224645 0.545073375262062  26.1123098187579 0.340670859538784  26.1123098187579 0.340670859538784  L 25.5050502881612 0  L 24.9645893059302 0.545073375262062  L 24.8977907575645 0.681341719077568  L 22.7386457598874 1.56708595387841  L 22.67117247871 1.56708595387841  L 22.5362259163552 1.56708595387841  C 22.5362259163552 1.56708595387841  19.9040932176244 1.83962264150945  19.9040932176244 1.83962264150945  C 19.4999282633717 1.83962264150945  18.7577221704202 1.63522012578617  17.745622952759 1.36268343815514  C 17.745622952759 1.36268343815514  15.4515313927271 0.953878406708599  15.4515313927271 0.953878406708599  L 15.3840581115496 0.953878406708599  L 14.0345924880014 0.204402515723278  Z " fill-rule="nonzero" fill="#4a9eff" stroke="none" transform="matrix(1 0 0 1 1839 1877 )" />
    <path d="M 14.0345924880014 0.204402515723278  L 12.8875467079855 0.204402515723278  C 12.8875467079855 0.204402515723278  12.8875467079855 0.272536687631031  12.8875467079855 0.272536687631031  C 12.6176535832758 0.885744234800846  12.1446658822222 1.29454926624738  11.6055543656147 1.77148846960169  C 11.2007146785502 1.97589098532495  11.0657681161954 2.31656184486374  11.0657681161954 2.72536687631027  C 11.0657681161954 2.72536687631027  11.0657681161954 2.92976939203355  11.0657681161954 2.92976939203355  C 11.0657681161954 3.27044025157233  10.8633482726632 3.8155136268344  10.3235620232439 4.63312368972747  C 10.3235620232439 4.63312368972747  10.2560887420665 4.97379454926625  10.2560887420665 4.97379454926625  C 10.1204674468999 5.17819706498953  9.851249055002 5.31446540880504  9.37893608676013 5.31446540880504  C 9.37893608676013 5.31446540880504  5.53295905964774 4.83752620545075  5.53295905964774 4.83752620545075  L 5.53295905964774 4.9056603773585  L 5.2630659349381 5.79140461215933  L 5.2630659349381 5.8595387840671  C 5.2630659349381 5.8595387840671  5.19559265376069 5.92767295597485  5.19559265376069 5.92767295597485  C 4.18349343609953 7.35849056603774  3.50876062432543 8.3805031446541  3.44128734314801 9.06184486373166  C 3.37313932915883 9.40251572327045  3.77865374903507 10.6289308176101  4.6558064043414 12.7410901467505  C 4.6558064043414 12.7410901467505  5.2630659349381 14.1719077568134  5.2630659349381 14.1719077568134  C 5.53295905964774 14.853249475891  5.33053921611551 15.6708595387841  4.72260495270704 16.5566037735849  C 4.72260495270704 16.5566037735849  3.50876062432543 17.7830188679245  3.50876062432543 17.7830188679245  L 1.48456218900312 17.7830188679245  L 1.07972250193865 15.5345911949686  L 0.539936252519368 18.3280922431866  C 0.539936252519368 18.3280922431866  1.4170889078257 19.6907756813417  1.4170889078257 19.6907756813417  C 1.48456218900312 19.895178197065  1.48456218900312 20.0314465408805  1.4170889078257 20.0995807127883  C 1.4170889078257 20.0995807127883  1.28214234547088 20.2358490566038  1.28214234547088 20.2358490566038  C 1.01157448794947 20.440251572327  0.60740953369678 21.1215932914046  0.202569846632316 22.2798742138365  C -0.202269840432144 23.3018867924528  -0.000524729711687754 24.3238993710692  0.809829377229011 25.4140461215933  C 0.809829377229011 25.4140461215933  2.42918812548686 25.4140461215933  2.42918812548686 25.4140461215933  C 2.96897437490614 25.5503144654088  3.77865374903507 26.4360587002097  4.92569952905104 28.0031446540881  C 4.92569952905104 28.0031446540881  4.99317281022845 28.1394129979036  4.99317281022845 28.1394129979036  C 4.99317281022845 28.6163522012579  5.19559265376069 28.9570230607966  5.53295905964774 29.2295597484277  C 5.53295905964774 29.2295597484277  9.10836822923871 32.5681341719078  9.10836822923871 32.5681341719078  L 9.10836822923871 32.6362683438155  L 10.7284017103083 34.6802935010482  L 11.6730276467921 34.6802935010482  L 12.6851268644532 32.8406708595388  L 12.8193986939963 32.7044025157233  L 12.8875467079855 32.6362683438155  L 15.3840581115496 33.2494758909853  L 15.3840581115496 33.3176100628931  L 15.3840581115496 33.4538784067086  L 15.7214245174367 35.1572327044025  L 18.6902488892428 38.6320754716981  L 19.7023481069039 39.0408805031447  L 19.7698213880813 39.1090146750524  L 20.2414596235114 39.3815513626834  L 20.3096076375006 39.4496855345912  L 22.5362259163552 42.7882599580713  L 24.3580045081452 42.5157232704402  L 24.4929510705001 42.5157232704402  L 24.5604243516775 42.5157232704402  L 24.6953709140323 42.6519916142558  L 24.7628441952097 42.7882599580713  L 26.3140549294784 46.0587002096436  L 28.2039815352576 47.2169811320755  L 29.7558670023381 47.625786163522  L 30.4980730952896 49.7379454926625  L 31.6451188753056 49.7379454926625  L 31.7119174236712 49.8060796645702  L 34.1416302788697 51.1687631027254  L 34.1416302788697 51.2368972746331  L 34.2091035600471 51.3050314465409  L 35.9634088706598 53.4853249475891  L 38.5273935554014 53.0083857442348  L 38.6623401177562 53.0083857442348  L 39.60696605424 53.4171907756813  L 39.6744393354174 53.4171907756813  L 41.2937980836752 54.8480083857442  L 44.1951491743039 55.0524109014675  C 44.1951491743039 55.0524109014675  45.9494544849165 54.7798742138365  45.9494544849165 54.7798742138365  C 48.3110193261259 54.3710691823899  49.7954315120289 54.5754716981132  50.3352177614482 55.188679245283  C 50.6725841673353 55.7337526205451  50.4701643238031 56.2788259958071  49.6604849496741 56.9601677148847  C 49.6604849496741 56.9601677148847  48.9857521379 57.6415094339623  48.9857521379 57.6415094339623  C 48.7833322943678 57.9821802935011  49.0532254190774 58.5272536687631  49.9303780743838 59.3448637316562  C 49.9303780743838 59.3448637316562  49.9978513555612 59.4811320754717  49.9978513555612 59.4811320754717  L 49.9303780743838 59.4811320754717  L 50.4701643238031 59.8899371069182  C 50.4701643238031 59.8899371069182  50.6725841673353 59.685534591195  50.6725841673353 59.685534591195  C 52.3594161967705 56.4832285115304  53.7088818203187 54.7117400419287  54.6535077568025 54.3710691823899  C 55.6656069744636 54.0303983228512  57.7572786909634 54.916142557652  61.0634694686565 56.9601677148847  C 61.0634694686565 56.9601677148847  65.1118663393011 57.70964360587  65.1118663393011 57.70964360587  L 65.0443930581237 57.8459119496855  L 65.0443930581237 57.9821802935011  L 64.8419732145915 59.8899371069182  L 66.8661716499138 60.1624737945493  C 66.8661716499138 60.1624737945493  66.7986983687364 62.751572327044  66.7986983687364 62.751572327044  C 67.4059578993331 63.9098532494759  67.8782708675749 64.5911949685535  68.1481639922846 64.7955974842767  C 68.553003679349 65.0681341719078  70.5772021146713 65.0681341719078  74.1532860170741 64.7955974842767  C 74.1532860170741 64.7955974842767  76.2449577335738 63.7054507337526  76.2449577335738 63.7054507337526  L 78.2691561688961 60.8438155136268  L 80.6307210101055 60.7756813417191  L 81.7777667901215 60.4350104821803  L 86.2310033478306 57.8459119496855  L 86.298476629008 57.8459119496855  C 86.298476629008 57.8459119496855  86.3659499101854 57.7777777777778  86.3659499101854 57.7777777777778  C 88.929934594927 57.5052410901467  90.41434678083 57.437106918239  90.8185117350827 57.7777777777778  C 90.8185117350827 57.7777777777778  93.7205375585231 60.230607966457  93.7205375585231 60.230607966457  L 94.5976902138294 60.5712788259958  L 94.7326367761843 60.7075471698113  L 95.8790078233884 61.1844863731656  L 95.9471558373776 61.2526205450734  L 95.9471558373776 61.0482180293501  L 95.9471558373776 60.9800838574423  L 95.9471558373776 60.9119496855346  L 95.9471558373776 60.8438155136268  C 95.9471558373776 60.8438155136268  96.4194688056195 58.7997903563941  96.4194688056195 58.7997903563941  C 96.2163742292755 58.1865828092243  96.2163742292755 57.70964360587  96.4194688056195 57.3008385744235  C 96.5537406351625 56.9601677148847  96.8911070410496 56.7557651991614  97.4315680232807 56.6194968553459  C 98.4436672409418 56.4150943396226  99.3882931774256 57.3008385744235  100.332919113909 59.2085953878407  C 100.332919113909 59.2085953878407  100.467865676264 59.2767295597484  100.467865676264 59.2767295597484  L 100.535338957442 59.2767295597484  C 100.535338957442 59.2767295597484  102.222170986877 58.5272536687631  102.222170986877 58.5272536687631  C 102.559537392764 58.4591194968554  102.694483955119 58.1184486373166  102.694483955119 57.7777777777778  C 102.694483955119 57.7777777777778  102.357117549232 56.5513626834382  102.357117549232 56.5513626834382  C 102.357117549232 56.5513626834382  102.357117549232 56.4832285115304  102.357117549232 56.4832285115304  C 102.222170986877 55.9381551362684  102.357117549232 55.461215932914  102.896903798651 55.2568134171908  C 102.896903798651 55.2568134171908  103.504163329248 54.7798742138365  103.504163329248 54.7798742138365  L 104.987900782339 53.1446540880503  C 104.987900782339 53.1446540880503  106 50.8962264150943  106 50.8962264150943  C 105.123522077505 49.4654088050315  104.853628952796 48.4433962264151  105.123522077505 47.7620545073375  C 105.123522077505 47.7620545073375  105.325267188226 45.8542976939203  105.325267188226 45.8542976939203  C 104.921102233973 45.0366876310273  104.718682390441 44.4916142557652  104.718682390441 44.0146750524109  C 104.718682390441 43.8102725366876  104.448789265731 43.1970649895178  103.909003016312 42.3794549266247  C 103.909003016312 42.3794549266247  103.841529735135 42.3794549266247  103.841529735135 42.3794549266247  L 103.841529735135 42.1750524109015  C 103.841529735135 42.1750524109015  103.638435158791 39.7222222222222  103.638435158791 39.7222222222222  C 103.571636610425 39.3134171907757  103.504163329248 38.7683438155136  103.638435158791 38.0870020964361  C 103.031850361006 37.6100628930818  102.626335941129 37.1331236897275  102.357117549232 36.6561844863732  C 102.357117549232 36.6561844863732  101.34501833157 35.293501048218  101.34501833157 35.293501048218  L 101.276870317581 35.2253668763103  L 101.276870317581 35.0890985324948  L 101.276870317581 35.020964360587  L 100.939503911694 33.3176100628931  L 99.9274046940331 32.5  L 99.9274046940331 32.5681341719078  L 97.9713542726999 31.0010482180294  L 97.9713542726999 31.1373165618449  L 98.2405726645978 33.2494758909853  L 98.2405726645978 33.3176100628931  L 98.2405726645978 33.5220125786164  L 97.2284734469367 33.9989517819707  L 97.0942016173936 35.293501048218  L 97.0942016173936 35.4979035639413  L 94.7326367761843 36.4517819706499  L 93.9229574020553 34.5440251572327  L 93.4506444338135 34.4077568134172  L 92.708438340862 35.1572327044025  L 92.2361253726201 36.5199161425577  L 90.5492933431848 36.996855345912  L 89.6046674067011 36.3155136268344  L 88.2552017831529 35.9067085953878  L 87.8503620960884 33.9989517819707  L 87.3105758466691 32.8406708595388  L 86.5008964725402 32.5  L 86.432748458551 32.3637316561845  L 85.8261636607661 31.6142557651992  L 85.2189041301694 30.5241090146751  L 84.2742781936856 29.2976939203354  L 83.4645988195567 29.2976939203354  L 82.1151331960085 29.7746331236897  L 82.0469851820193 29.8427672955975  L 78.6065225747832 29.6383647798742  C 78.6065225747832 29.6383647798742  75.9743898760524 29.0932914046122  75.9743898760524 29.0932914046122  C 75.7726447653319 28.9570230607966  75.2996570642783 28.7526205450734  74.5581257041386 28.2756813417191  C 74.5581257041386 28.2756813417191  72.5339272688162 27.5943396226415  72.5339272688162 27.5943396226415  C 70.9820418017358 27.185534591195  70.1048891464295 26.8448637316562  69.9024693028972 26.4360587002097  C 69.9024693028972 26.4360587002097  69.5651028970102 26.2316561844864  69.5651028970102 26.2316561844864  L 69.0927899287683 26.0953878406709  L 67.8782708675749 25.4140461215933  C 67.8782708675749 25.4140461215933  67.7433243052201 25.3459119496855  67.7433243052201 25.3459119496855  C 67.5409044616879 25.0733752620545  67.3384846181556 24.8689727463312  67.2035380558008 24.5964360587002  C 67.2035380558008 24.5964360587002  66.9336449310912 23.9832285115304  66.9336449310912 23.9832285115304  L 66.3938586816719 23.1656184486373  L 65.5167060263656 22.7568134171908  L 65.1793396204785 22.9612159329141  L 64.8419732145915 23.2337526205451  C 64.8419732145915 23.2337526205451  64.6395533710592 23.3700209643606  64.6395533710592 23.3700209643606  C 64.3021869651722 23.6425576519916  63.9648205592851 23.7788259958071  63.6949274345755 23.8469601677149  C 63.1551411851562 23.9832285115304  62.6153549357369 23.7106918238994  62.0080954051402 23.0293501048218  C 62.0080954051402 23.0293501048218  60.7261030627694 21.6666666666667  60.7261030627694 21.6666666666667  C 60.2537900945276 21.0534591194969  59.9164236886405 20.5765199161426  59.7814771262857 20.2358490566038  C 59.7814771262857 20.2358490566038  59.4441107203986 19.6907756813417  59.4441107203986 19.6907756813417  C 58.9717977521568 19.2138364779874  58.6344313462697 18.7368972746331  58.4320115027375 18.3280922431866  C 58.2295916592052 17.7148846960168  58.1621183780278 17.1698113207547  58.3645382215601 16.6247379454927  C 58.3645382215601 16.6247379454927  58.3645382215601 16.5566037735849  58.3645382215601 16.5566037735849  L 59.2416908768664 15.0576519916143  L 59.7140038451083 13.4905660377359  L 59.9164236886405 12.4685534591195  L 59.5790572827534 10.9014675052411  L 58.5669580650923 10.0157232704403  C 58.5669580650923 10.0157232704403  58.7693779086245 8.72117400419288  58.7693779086245 8.72117400419288  C 58.7693779086245 7.76729559748428  59.1067443145116 7.29035639412999  59.7814771262857 7.15408805031446  C 59.9838969698179 7.08595387840671  60.1188435321727 6.94968553459121  60.0513702509953 6.67714884696018  C 60.0513702509953 6.67714884696018  60.0513702509953 6.60901467505242  60.0513702509953 6.60901467505242  L 60.1188435321727 5.24633123689729  L 60.1188435321727 5.17819706498953  L 60.1188435321727 3.61111111111112  L 59.9838969698179 3.61111111111112  L 59.9164236886405 3.54297693920337  L 59.6465305639309 3.40670859538784  L 59.6465305639309 3.33857442348009  L 59.5790572827534 3.33857442348009  L 58.3645382215601 2.52096436058701  L 58.2970649403827 2.52096436058701  L 57.3524390038989 1.70335429769392  L 54.1811947885606 1.09014675052412  L 53.1690955708995 0.340670859538784  C 53.1690955708995 0.340670859538784  51.279843697932 0.340670859538784  51.279843697932 0.340670859538784  C 51.0099505732223 0.340670859538784  50.6725841673353 0.545073375262062  50.2002711990934 0.817610062893094  C 50.2002711990934 0.817610062893094  50.132797917916 0.817610062893094  50.132797917916 0.817610062893094  L 48.648385732013 1.36268343815514  C 48.648385732013 1.36268343815514  44.9373552672554 1.36268343815514  44.9373552672554 1.36268343815514  C 44.3975690178361 1.49895178197066  43.9252560495942 1.63522012578617  43.6553629248846 1.9077568134172  C 43.2505232378201 2.24842767295598  42.5076424120568 2.52096436058701  41.4955431943957 2.8616352201258  C 41.4955431943957 2.8616352201258  39.7419126165948 3.27044025157233  39.7419126165948 3.27044025157233  L 39.7419126165948 3.33857442348009  L 39.60696605424 3.33857442348009  L 37.109779917864 3.06603773584906  L 36.9080348071436 2.9979035639413  L 36.975508088321 3.06603773584906  L 36.9080348071436 2.9979035639413  L 36.0308821518372 2.92976939203355  L 34.5464699659342 3.40670859538784  L 31.5776455941281 3.67924528301887  L 31.5101723129507 3.67924528301887  L 31.4426990317733 3.61111111111112  L 29.9582868458703 3.06603773584906  C 29.9582868458703 3.06603773584906  28.7437677846769 3.06603773584906  28.7437677846769 3.06603773584906  C 28.2039815352576 2.92976939203355  27.5967220046609 2.52096436058701  26.9219891928868 1.70335429769392  C 26.9219891928868 1.70335429769392  26.8545159117094 1.56708595387841  26.8545159117094 1.56708595387841  C 26.7195693493546 0.953878406708599  26.5171495058224 0.681341719077568  26.449676224645 0.545073375262062  C 26.449676224645 0.545073375262062  26.1123098187579 0.340670859538784  26.1123098187579 0.340670859538784  L 25.5050502881612 0  L 24.9645893059302 0.545073375262062  L 24.8977907575645 0.681341719077568  L 22.7386457598874 1.56708595387841  L 22.67117247871 1.56708595387841  L 22.5362259163552 1.56708595387841  C 22.5362259163552 1.56708595387841  19.9040932176244 1.83962264150945  19.9040932176244 1.83962264150945  C 19.4999282633717 1.83962264150945  18.7577221704202 1.63522012578617  17.745622952759 1.36268343815514  C 17.745622952759 1.36268343815514  15.4515313927271 0.953878406708599  15.4515313927271 0.953878406708599  L 15.3840581115496 0.953878406708599  L 14.0345924880014 0.204402515723278  Z " stroke-width="2" stroke="#ffffff" fill="none" transform="matrix(1 0 0 1 1839 1877 )" mask="url(#clip78)" />
  </g>
</svg>