<?xml version="1.0" encoding="utf-8"?>
<svg version="1.1" xmlns:xlink="http://www.w3.org/1999/xlink" width="32px" height="29px" xmlns="http://www.w3.org/2000/svg">
  <defs>
    <mask fill="white" id="clip184">
      <path d="M 25.4 1.04819277108434  L 25.1333333333333 0.559036144578321  L 24.6666666666667 0.349397590361446  L 24.1333333333333 0.698795180722891  C 24.1333333333333 0.698795180722891  23.8 1.3277108433735  23.8 1.3277108433735  C 23.5333333333333 1.9566265060241  23.2666666666667 2.30602409638555  22.8 2.30602409638555  C 22.5333333333333 2.30602409638555  22.2 2.09638554216867  22 1.88674698795182  C 22 1.88674698795182  21.9333333333333 1.81686746987951  21.9333333333333 1.81686746987951  L 21.8666666666667 1.74698795180723  L 21.6666666666667 1.04819277108434  L 21.6666666666667 0.978313253012052  L 21.6 0.0698795180722851  L 21.2 0  L 21.1333333333333 0.0698795180722851  L 20.9333333333333 0.768674698795176  L 20.9333333333333 1.74698795180723  L 20.8666666666667 1.81686746987951  L 20.8 1.88674698795182  L 20 3.00481927710844  L 19.8666666666667 3.14457831325301  L 19.7333333333333 3.14457831325301  L 18.1333333333333 3.00481927710844  L 18 3.00481927710844  L 18 3.07469879518072  L 18 3.14457831325301  L 17.4666666666667 3.91325301204819  L 17.6666666666667 4.40240963855422  L 17.7333333333333 4.40240963855422  L 17.2666666666667 5.1710843373494  L 15.8 5.1710843373494  L 15.8 4.89156626506024  L 15.6666666666667 4.75180722891567  L 15.4666666666667 4.61204819277108  L 15.2 5.10120481927711  L 15.1333333333333 5.31084337349397  L 14.1333333333333 5.31084337349397  L 14.0666666666667 5.24096385542168  L 13.4666666666667 4.75180722891567  L 13.4 4.61204819277108  L 13.4 4.54216867469879  L 13.3333333333333 4.54216867469879  L 13.3333333333333 4.40240963855422  L 12.2666666666667 4.19277108433735  L 11.4666666666667 4.54216867469879  L 11 4.89156626506024  L 12.3333333333333 6.49879518072289  L 14.0666666666667 7.0578313253012  L 14.1333333333333 7.1277108433735  L 14.2 7.19759036144579  L 15.0666666666667 8.03614457831325  L 14.7333333333333 9.43373493975903  L 14.7333333333333 9.64337349397591  L 14.6666666666667 9.64337349397591  L 13.5333333333333 10.621686746988  L 13.5333333333333 10.6915662650602  L 13.4666666666667 10.6915662650602  L 11.6 11.2506024096385  L 11.5333333333333 11.2506024096385  L 10.4666666666667 11.3903614457831  L 10.4 11.3903614457831  L 10.3333333333333 11.3903614457831  L 9.6 11.110843373494  L 9.2 11.0409638554217  L 8.80000000000001 11.7397590361446  L 8.73333333333334 11.7397590361446  L 8.73333333333334 11.8096385542169  L 7.86666666666667 12.4385542168675  L 7.80000000000001 12.4385542168675  L 6.6 12.9975903614458  L 6.53333333333334 12.9975903614458  L 5.13333333333334 12.5084337349398  L 2.06666666666668 12.6481927710843  L 1.40000000000001 12.8578313253012  L 1.33333333333333 12.9277108433735  L 0.733333333333348 12.9277108433735  L 0 13.9759036144578  L 0.133333333333345 15.1638554216867  L 0.800000000000011 16.7710843373494  L 1.53333333333334 17.1903614457831  L 1.6 17.1903614457831  L 1.6 17.2602409638554  L 1.86666666666667 17.4698795180723  L 2.33333333333333 16.7710843373494  L 2.40000000000001 16.7012048192771  L 2.46666666666668 16.6313253012048  L 2.53333333333334 16.6313253012048  L 3.53333333333334 16.4915662650602  L 3.66666666666667 16.4915662650602  L 3.66666666666667 16.5614457831325  L 4.66666666666667 16.8409638554217  L 5.66666666666666 19.2168674698795  L 5.6 19.2168674698795  L 5.6 19.2867469879518  L 5.2 20.6144578313253  L 4.86666666666667 21.4530120481928  L 4.86666666666667 21.522891566265  L 4.40000000000001 22.710843373494  L 4.40000000000001 24.178313253012  L 5.2 25.0168674698795  L 5.26666666666667 25.0168674698795  L 6.33333333333333 25.9951807228916  L 6.46666666666667 26.0650602409638  L 6.53333333333334 26.1349397590361  L 5.73333333333334 28.0915662650602  L 5.53333333333334 29  L 5.80000000000001 28.8602409638554  L 5.86666666666667 28.8602409638554  L 6.53333333333334 28.5807228915663  L 7.73333333333334 27.8819277108434  L 7.80000000000001 27.8819277108434  L 9.13333333333334 28.0915662650602  L 9.2 28.0915662650602  L 11.2 28.9301204819277  L 13.4 28.9301204819277  L 14 28.0915662650602  L 14.0666666666667 28.0216867469879  L 14.1333333333333 27.9518072289157  L 15.2666666666667 27.3927710843373  L 16.3333333333333 26.4144578313253  L 16.4666666666667 26.344578313253  L 17.2666666666667 26.0650602409638  L 18.1333333333333 25.3662650602409  L 19.1333333333333 23.9686746987952  L 20.5333333333333 24.5277108433735  L 20.7333333333333 24.5975903614458  L 20.7333333333333 24.667469879518  C 20.7333333333333 24.667469879518  20.8 24.7373493975904  20.8 24.7373493975904  C 21 25.2963855421687  21.2 25.5759036144578  21.4 25.6457831325301  C 21.4 25.6457831325301  22.2666666666667 25.5060240963855  22.2666666666667 25.5060240963855  L 22.4666666666667 25.5060240963855  L 22.9333333333333 25.6457831325301  L 23 25.6457831325301  L 23 25.7156626506024  L 24.1333333333333 26.1349397590361  L 24.4666666666667 26.1349397590361  L 24.5333333333333 25.855421686747  L 24.6666666666667 25.4361445783132  L 24.6666666666667 25.3662650602409  L 24.7333333333333 25.2963855421687  L 24.8 25.2265060240964  L 24.8 25.1566265060241  L 25.2 24.8771084337349  L 25.2666666666667 24.8072289156627  L 26 24.178313253012  L 26.0666666666667 24.178313253012  L 26.1333333333333 24.1084337349398  L 26.2666666666667 24.1084337349398  C 26.2666666666667 24.1084337349398  26.9333333333333 24.178313253012  26.9333333333333 24.178313253012  C 26.9333333333333 23.7590361445783  27.1333333333333 23.3397590361446  27.5333333333333 22.9204819277108  C 28 22.5710843373494  28.3333333333333 22.3614457831325  28.5333333333333 22.4313253012048  C 28.5333333333333 22.4313253012048  28.9333333333333 22.1518072289157  28.9333333333333 22.1518072289157  L 29 22.1518072289157  L 29 22.0819277108434  L 29.3333333333333 21.7325301204819  L 29.3333333333333 21.6626506024096  L 29.4 21.6626506024096  L 29.4666666666667 21.5927710843373  L 29.5333333333333 21.5927710843373  L 30.6 21.3132530120482  L 31.2 21.3132530120482  L 31.4666666666667 21.1036144578313  L 31.6666666666667 20.6843373493976  L 32 19.9855421686747  C 32 19.9855421686747  31.8666666666667 19.9156626506024  31.8666666666667 19.9156626506024  C 31.4666666666667 19.4265060240964  31.2 18.8674698795181  31.0666666666666 18.0987951807229  C 31.0666666666666 18.0987951807229  31 18.0289156626506  31 18.0289156626506  L 31.0666666666666 18.0289156626506  L 31.0666666666666 17.9590361445783  C 31.0666666666666 17.9590361445783  31.3333333333333 16.421686746988  31.3333333333333 16.421686746988  C 31.3333333333333 15.9325301204819  31.4666666666667 15.5831325301205  31.8 15.233734939759  C 31.8 15.233734939759  31.6666666666667 13.9759036144578  31.6666666666667 13.9759036144578  C 31.6 13.8361445783133  31.4666666666667 13.6963855421687  31.1333333333333 13.6265060240964  C 31.1333333333333 13.6265060240964  29 14.5349397590361  29 14.5349397590361  C 29 14.5349397590361  29.1333333333333 12.2289156626506  29.1333333333333 12.2289156626506  C 29.2 11.8795180722891  29.8666666666667 11.2506024096385  31.1333333333333 10.4819277108434  C 31.1333333333333 10.4819277108434  30.5333333333333 8.03614457831325  30.5333333333333 8.03614457831325  C 30.4 7.19759036144579  30.6 6.56867469879518  31.1333333333333 6.00963855421686  C 31.1333333333333 6.00963855421686  31 5.59036144578313  31 5.59036144578313  L 30.3333333333333 5.59036144578313  L 30.1333333333333 5.66024096385541  C 30.1333333333333 5.66024096385541  29.8 6.63855421686747  29.8 6.63855421686747  C 29.5333333333333 6.98795180722891  29.2666666666667 7.19759036144579  29 7.19759036144579  C 29 7.19759036144579  28.8666666666667 7.19759036144579  28.8666666666667 7.19759036144579  L 28.2 6.70843373493975  L 28.1333333333333 6.70843373493975  L 28.0666666666667 6.70843373493975  L 28.0666666666667 6.63855421686747  L 28.0666666666667 6.49879518072289  L 27.8666666666667 6.00963855421686  L 27.8 5.31084337349397  L 27.8 5.24096385542168  L 27.7333333333333 5.38072289156627  L 27.6666666666667 5.59036144578313  L 26.4666666666667 5.59036144578313  L 26.3333333333333 5.31084337349397  L 26.1333333333333 4.54216867469879  L 26.1333333333333 3.49397590361446  L 25.4 2.16626506024096  L 25.4 1.04819277108434  Z " fill-rule="evenodd" />
    </mask>
  </defs>
  <g transform="matrix(1 0 0 1 -1970 -1930 )">
    <path d="M 25.4 1.04819277108434  L 25.1333333333333 0.559036144578321  L 24.6666666666667 0.349397590361446  L 24.1333333333333 0.698795180722891  C 24.1333333333333 0.698795180722891  23.8 1.3277108433735  23.8 1.3277108433735  C 23.5333333333333 1.9566265060241  23.2666666666667 2.30602409638555  22.8 2.30602409638555  C 22.5333333333333 2.30602409638555  22.2 2.09638554216867  22 1.88674698795182  C 22 1.88674698795182  21.9333333333333 1.81686746987951  21.9333333333333 1.81686746987951  L 21.8666666666667 1.74698795180723  L 21.6666666666667 1.04819277108434  L 21.6666666666667 0.978313253012052  L 21.6 0.0698795180722851  L 21.2 0  L 21.1333333333333 0.0698795180722851  L 20.9333333333333 0.768674698795176  L 20.9333333333333 1.74698795180723  L 20.8666666666667 1.81686746987951  L 20.8 1.88674698795182  L 20 3.00481927710844  L 19.8666666666667 3.14457831325301  L 19.7333333333333 3.14457831325301  L 18.1333333333333 3.00481927710844  L 18 3.00481927710844  L 18 3.07469879518072  L 18 3.14457831325301  L 17.4666666666667 3.91325301204819  L 17.6666666666667 4.40240963855422  L 17.7333333333333 4.40240963855422  L 17.2666666666667 5.1710843373494  L 15.8 5.1710843373494  L 15.8 4.89156626506024  L 15.6666666666667 4.75180722891567  L 15.4666666666667 4.61204819277108  L 15.2 5.10120481927711  L 15.1333333333333 5.31084337349397  L 14.1333333333333 5.31084337349397  L 14.0666666666667 5.24096385542168  L 13.4666666666667 4.75180722891567  L 13.4 4.61204819277108  L 13.4 4.54216867469879  L 13.3333333333333 4.54216867469879  L 13.3333333333333 4.40240963855422  L 12.2666666666667 4.19277108433735  L 11.4666666666667 4.54216867469879  L 11 4.89156626506024  L 12.3333333333333 6.49879518072289  L 14.0666666666667 7.0578313253012  L 14.1333333333333 7.1277108433735  L 14.2 7.19759036144579  L 15.0666666666667 8.03614457831325  L 14.7333333333333 9.43373493975903  L 14.7333333333333 9.64337349397591  L 14.6666666666667 9.64337349397591  L 13.5333333333333 10.621686746988  L 13.5333333333333 10.6915662650602  L 13.4666666666667 10.6915662650602  L 11.6 11.2506024096385  L 11.5333333333333 11.2506024096385  L 10.4666666666667 11.3903614457831  L 10.4 11.3903614457831  L 10.3333333333333 11.3903614457831  L 9.6 11.110843373494  L 9.2 11.0409638554217  L 8.80000000000001 11.7397590361446  L 8.73333333333334 11.7397590361446  L 8.73333333333334 11.8096385542169  L 7.86666666666667 12.4385542168675  L 7.80000000000001 12.4385542168675  L 6.6 12.9975903614458  L 6.53333333333334 12.9975903614458  L 5.13333333333334 12.5084337349398  L 2.06666666666668 12.6481927710843  L 1.40000000000001 12.8578313253012  L 1.33333333333333 12.9277108433735  L 0.733333333333348 12.9277108433735  L 0 13.9759036144578  L 0.133333333333345 15.1638554216867  L 0.800000000000011 16.7710843373494  L 1.53333333333334 17.1903614457831  L 1.6 17.1903614457831  L 1.6 17.2602409638554  L 1.86666666666667 17.4698795180723  L 2.33333333333333 16.7710843373494  L 2.40000000000001 16.7012048192771  L 2.46666666666668 16.6313253012048  L 2.53333333333334 16.6313253012048  L 3.53333333333334 16.4915662650602  L 3.66666666666667 16.4915662650602  L 3.66666666666667 16.5614457831325  L 4.66666666666667 16.8409638554217  L 5.66666666666666 19.2168674698795  L 5.6 19.2168674698795  L 5.6 19.2867469879518  L 5.2 20.6144578313253  L 4.86666666666667 21.4530120481928  L 4.86666666666667 21.522891566265  L 4.40000000000001 22.710843373494  L 4.40000000000001 24.178313253012  L 5.2 25.0168674698795  L 5.26666666666667 25.0168674698795  L 6.33333333333333 25.9951807228916  L 6.46666666666667 26.0650602409638  L 6.53333333333334 26.1349397590361  L 5.73333333333334 28.0915662650602  L 5.53333333333334 29  L 5.80000000000001 28.8602409638554  L 5.86666666666667 28.8602409638554  L 6.53333333333334 28.5807228915663  L 7.73333333333334 27.8819277108434  L 7.80000000000001 27.8819277108434  L 9.13333333333334 28.0915662650602  L 9.2 28.0915662650602  L 11.2 28.9301204819277  L 13.4 28.9301204819277  L 14 28.0915662650602  L 14.0666666666667 28.0216867469879  L 14.1333333333333 27.9518072289157  L 15.2666666666667 27.3927710843373  L 16.3333333333333 26.4144578313253  L 16.4666666666667 26.344578313253  L 17.2666666666667 26.0650602409638  L 18.1333333333333 25.3662650602409  L 19.1333333333333 23.9686746987952  L 20.5333333333333 24.5277108433735  L 20.7333333333333 24.5975903614458  L 20.7333333333333 24.667469879518  C 20.7333333333333 24.667469879518  20.8 24.7373493975904  20.8 24.7373493975904  C 21 25.2963855421687  21.2 25.5759036144578  21.4 25.6457831325301  C 21.4 25.6457831325301  22.2666666666667 25.5060240963855  22.2666666666667 25.5060240963855  L 22.4666666666667 25.5060240963855  L 22.9333333333333 25.6457831325301  L 23 25.6457831325301  L 23 25.7156626506024  L 24.1333333333333 26.1349397590361  L 24.4666666666667 26.1349397590361  L 24.5333333333333 25.855421686747  L 24.6666666666667 25.4361445783132  L 24.6666666666667 25.3662650602409  L 24.7333333333333 25.2963855421687  L 24.8 25.2265060240964  L 24.8 25.1566265060241  L 25.2 24.8771084337349  L 25.2666666666667 24.8072289156627  L 26 24.178313253012  L 26.0666666666667 24.178313253012  L 26.1333333333333 24.1084337349398  L 26.2666666666667 24.1084337349398  C 26.2666666666667 24.1084337349398  26.9333333333333 24.178313253012  26.9333333333333 24.178313253012  C 26.9333333333333 23.7590361445783  27.1333333333333 23.3397590361446  27.5333333333333 22.9204819277108  C 28 22.5710843373494  28.3333333333333 22.3614457831325  28.5333333333333 22.4313253012048  C 28.5333333333333 22.4313253012048  28.9333333333333 22.1518072289157  28.9333333333333 22.1518072289157  L 29 22.1518072289157  L 29 22.0819277108434  L 29.3333333333333 21.7325301204819  L 29.3333333333333 21.6626506024096  L 29.4 21.6626506024096  L 29.4666666666667 21.5927710843373  L 29.5333333333333 21.5927710843373  L 30.6 21.3132530120482  L 31.2 21.3132530120482  L 31.4666666666667 21.1036144578313  L 31.6666666666667 20.6843373493976  L 32 19.9855421686747  C 32 19.9855421686747  31.8666666666667 19.9156626506024  31.8666666666667 19.9156626506024  C 31.4666666666667 19.4265060240964  31.2 18.8674698795181  31.0666666666666 18.0987951807229  C 31.0666666666666 18.0987951807229  31 18.0289156626506  31 18.0289156626506  L 31.0666666666666 18.0289156626506  L 31.0666666666666 17.9590361445783  C 31.0666666666666 17.9590361445783  31.3333333333333 16.421686746988  31.3333333333333 16.421686746988  C 31.3333333333333 15.9325301204819  31.4666666666667 15.5831325301205  31.8 15.233734939759  C 31.8 15.233734939759  31.6666666666667 13.9759036144578  31.6666666666667 13.9759036144578  C 31.6 13.8361445783133  31.4666666666667 13.6963855421687  31.1333333333333 13.6265060240964  C 31.1333333333333 13.6265060240964  29 14.5349397590361  29 14.5349397590361  C 29 14.5349397590361  29.1333333333333 12.2289156626506  29.1333333333333 12.2289156626506  C 29.2 11.8795180722891  29.8666666666667 11.2506024096385  31.1333333333333 10.4819277108434  C 31.1333333333333 10.4819277108434  30.5333333333333 8.03614457831325  30.5333333333333 8.03614457831325  C 30.4 7.19759036144579  30.6 6.56867469879518  31.1333333333333 6.00963855421686  C 31.1333333333333 6.00963855421686  31 5.59036144578313  31 5.59036144578313  L 30.3333333333333 5.59036144578313  L 30.1333333333333 5.66024096385541  C 30.1333333333333 5.66024096385541  29.8 6.63855421686747  29.8 6.63855421686747  C 29.5333333333333 6.98795180722891  29.2666666666667 7.19759036144579  29 7.19759036144579  C 29 7.19759036144579  28.8666666666667 7.19759036144579  28.8666666666667 7.19759036144579  L 28.2 6.70843373493975  L 28.1333333333333 6.70843373493975  L 28.0666666666667 6.70843373493975  L 28.0666666666667 6.63855421686747  L 28.0666666666667 6.49879518072289  L 27.8666666666667 6.00963855421686  L 27.8 5.31084337349397  L 27.8 5.24096385542168  L 27.7333333333333 5.38072289156627  L 27.6666666666667 5.59036144578313  L 26.4666666666667 5.59036144578313  L 26.3333333333333 5.31084337349397  L 26.1333333333333 4.54216867469879  L 26.1333333333333 3.49397590361446  L 25.4 2.16626506024096  L 25.4 1.04819277108434  Z " fill-rule="nonzero" fill="#4a9eff" stroke="none" transform="matrix(1 0 0 1 1970 1930 )" />
    <path d="M 25.4 1.04819277108434  L 25.1333333333333 0.559036144578321  L 24.6666666666667 0.349397590361446  L 24.1333333333333 0.698795180722891  C 24.1333333333333 0.698795180722891  23.8 1.3277108433735  23.8 1.3277108433735  C 23.5333333333333 1.9566265060241  23.2666666666667 2.30602409638555  22.8 2.30602409638555  C 22.5333333333333 2.30602409638555  22.2 2.09638554216867  22 1.88674698795182  C 22 1.88674698795182  21.9333333333333 1.81686746987951  21.9333333333333 1.81686746987951  L 21.8666666666667 1.74698795180723  L 21.6666666666667 1.04819277108434  L 21.6666666666667 0.978313253012052  L 21.6 0.0698795180722851  L 21.2 0  L 21.1333333333333 0.0698795180722851  L 20.9333333333333 0.768674698795176  L 20.9333333333333 1.74698795180723  L 20.8666666666667 1.81686746987951  L 20.8 1.88674698795182  L 20 3.00481927710844  L 19.8666666666667 3.14457831325301  L 19.7333333333333 3.14457831325301  L 18.1333333333333 3.00481927710844  L 18 3.00481927710844  L 18 3.07469879518072  L 18 3.14457831325301  L 17.4666666666667 3.91325301204819  L 17.6666666666667 4.40240963855422  L 17.7333333333333 4.40240963855422  L 17.2666666666667 5.1710843373494  L 15.8 5.1710843373494  L 15.8 4.89156626506024  L 15.6666666666667 4.75180722891567  L 15.4666666666667 4.61204819277108  L 15.2 5.10120481927711  L 15.1333333333333 5.31084337349397  L 14.1333333333333 5.31084337349397  L 14.0666666666667 5.24096385542168  L 13.4666666666667 4.75180722891567  L 13.4 4.61204819277108  L 13.4 4.54216867469879  L 13.3333333333333 4.54216867469879  L 13.3333333333333 4.40240963855422  L 12.2666666666667 4.19277108433735  L 11.4666666666667 4.54216867469879  L 11 4.89156626506024  L 12.3333333333333 6.49879518072289  L 14.0666666666667 7.0578313253012  L 14.1333333333333 7.1277108433735  L 14.2 7.19759036144579  L 15.0666666666667 8.03614457831325  L 14.7333333333333 9.43373493975903  L 14.7333333333333 9.64337349397591  L 14.6666666666667 9.64337349397591  L 13.5333333333333 10.621686746988  L 13.5333333333333 10.6915662650602  L 13.4666666666667 10.6915662650602  L 11.6 11.2506024096385  L 11.5333333333333 11.2506024096385  L 10.4666666666667 11.3903614457831  L 10.4 11.3903614457831  L 10.3333333333333 11.3903614457831  L 9.6 11.110843373494  L 9.2 11.0409638554217  L 8.80000000000001 11.7397590361446  L 8.73333333333334 11.7397590361446  L 8.73333333333334 11.8096385542169  L 7.86666666666667 12.4385542168675  L 7.80000000000001 12.4385542168675  L 6.6 12.9975903614458  L 6.53333333333334 12.9975903614458  L 5.13333333333334 12.5084337349398  L 2.06666666666668 12.6481927710843  L 1.40000000000001 12.8578313253012  L 1.33333333333333 12.9277108433735  L 0.733333333333348 12.9277108433735  L 0 13.9759036144578  L 0.133333333333345 15.1638554216867  L 0.800000000000011 16.7710843373494  L 1.53333333333334 17.1903614457831  L 1.6 17.1903614457831  L 1.6 17.2602409638554  L 1.86666666666667 17.4698795180723  L 2.33333333333333 16.7710843373494  L 2.40000000000001 16.7012048192771  L 2.46666666666668 16.6313253012048  L 2.53333333333334 16.6313253012048  L 3.53333333333334 16.4915662650602  L 3.66666666666667 16.4915662650602  L 3.66666666666667 16.5614457831325  L 4.66666666666667 16.8409638554217  L 5.66666666666666 19.2168674698795  L 5.6 19.2168674698795  L 5.6 19.2867469879518  L 5.2 20.6144578313253  L 4.86666666666667 21.4530120481928  L 4.86666666666667 21.522891566265  L 4.40000000000001 22.710843373494  L 4.40000000000001 24.178313253012  L 5.2 25.0168674698795  L 5.26666666666667 25.0168674698795  L 6.33333333333333 25.9951807228916  L 6.46666666666667 26.0650602409638  L 6.53333333333334 26.1349397590361  L 5.73333333333334 28.0915662650602  L 5.53333333333334 29  L 5.80000000000001 28.8602409638554  L 5.86666666666667 28.8602409638554  L 6.53333333333334 28.5807228915663  L 7.73333333333334 27.8819277108434  L 7.80000000000001 27.8819277108434  L 9.13333333333334 28.0915662650602  L 9.2 28.0915662650602  L 11.2 28.9301204819277  L 13.4 28.9301204819277  L 14 28.0915662650602  L 14.0666666666667 28.0216867469879  L 14.1333333333333 27.9518072289157  L 15.2666666666667 27.3927710843373  L 16.3333333333333 26.4144578313253  L 16.4666666666667 26.344578313253  L 17.2666666666667 26.0650602409638  L 18.1333333333333 25.3662650602409  L 19.1333333333333 23.9686746987952  L 20.5333333333333 24.5277108433735  L 20.7333333333333 24.5975903614458  L 20.7333333333333 24.667469879518  C 20.7333333333333 24.667469879518  20.8 24.7373493975904  20.8 24.7373493975904  C 21 25.2963855421687  21.2 25.5759036144578  21.4 25.6457831325301  C 21.4 25.6457831325301  22.2666666666667 25.5060240963855  22.2666666666667 25.5060240963855  L 22.4666666666667 25.5060240963855  L 22.9333333333333 25.6457831325301  L 23 25.6457831325301  L 23 25.7156626506024  L 24.1333333333333 26.1349397590361  L 24.4666666666667 26.1349397590361  L 24.5333333333333 25.855421686747  L 24.6666666666667 25.4361445783132  L 24.6666666666667 25.3662650602409  L 24.7333333333333 25.2963855421687  L 24.8 25.2265060240964  L 24.8 25.1566265060241  L 25.2 24.8771084337349  L 25.2666666666667 24.8072289156627  L 26 24.178313253012  L 26.0666666666667 24.178313253012  L 26.1333333333333 24.1084337349398  L 26.2666666666667 24.1084337349398  C 26.2666666666667 24.1084337349398  26.9333333333333 24.178313253012  26.9333333333333 24.178313253012  C 26.9333333333333 23.7590361445783  27.1333333333333 23.3397590361446  27.5333333333333 22.9204819277108  C 28 22.5710843373494  28.3333333333333 22.3614457831325  28.5333333333333 22.4313253012048  C 28.5333333333333 22.4313253012048  28.9333333333333 22.1518072289157  28.9333333333333 22.1518072289157  L 29 22.1518072289157  L 29 22.0819277108434  L 29.3333333333333 21.7325301204819  L 29.3333333333333 21.6626506024096  L 29.4 21.6626506024096  L 29.4666666666667 21.5927710843373  L 29.5333333333333 21.5927710843373  L 30.6 21.3132530120482  L 31.2 21.3132530120482  L 31.4666666666667 21.1036144578313  L 31.6666666666667 20.6843373493976  L 32 19.9855421686747  C 32 19.9855421686747  31.8666666666667 19.9156626506024  31.8666666666667 19.9156626506024  C 31.4666666666667 19.4265060240964  31.2 18.8674698795181  31.0666666666666 18.0987951807229  C 31.0666666666666 18.0987951807229  31 18.0289156626506  31 18.0289156626506  L 31.0666666666666 18.0289156626506  L 31.0666666666666 17.9590361445783  C 31.0666666666666 17.9590361445783  31.3333333333333 16.421686746988  31.3333333333333 16.421686746988  C 31.3333333333333 15.9325301204819  31.4666666666667 15.5831325301205  31.8 15.233734939759  C 31.8 15.233734939759  31.6666666666667 13.9759036144578  31.6666666666667 13.9759036144578  C 31.6 13.8361445783133  31.4666666666667 13.6963855421687  31.1333333333333 13.6265060240964  C 31.1333333333333 13.6265060240964  29 14.5349397590361  29 14.5349397590361  C 29 14.5349397590361  29.1333333333333 12.2289156626506  29.1333333333333 12.2289156626506  C 29.2 11.8795180722891  29.8666666666667 11.2506024096385  31.1333333333333 10.4819277108434  C 31.1333333333333 10.4819277108434  30.5333333333333 8.03614457831325  30.5333333333333 8.03614457831325  C 30.4 7.19759036144579  30.6 6.56867469879518  31.1333333333333 6.00963855421686  C 31.1333333333333 6.00963855421686  31 5.59036144578313  31 5.59036144578313  L 30.3333333333333 5.59036144578313  L 30.1333333333333 5.66024096385541  C 30.1333333333333 5.66024096385541  29.8 6.63855421686747  29.8 6.63855421686747  C 29.5333333333333 6.98795180722891  29.2666666666667 7.19759036144579  29 7.19759036144579  C 29 7.19759036144579  28.8666666666667 7.19759036144579  28.8666666666667 7.19759036144579  L 28.2 6.70843373493975  L 28.1333333333333 6.70843373493975  L 28.0666666666667 6.70843373493975  L 28.0666666666667 6.63855421686747  L 28.0666666666667 6.49879518072289  L 27.8666666666667 6.00963855421686  L 27.8 5.31084337349397  L 27.8 5.24096385542168  L 27.7333333333333 5.38072289156627  L 27.6666666666667 5.59036144578313  L 26.4666666666667 5.59036144578313  L 26.3333333333333 5.31084337349397  L 26.1333333333333 4.54216867469879  L 26.1333333333333 3.49397590361446  L 25.4 2.16626506024096  L 25.4 1.04819277108434  Z " stroke-width="2" stroke="#ffffff" fill="none" transform="matrix(1 0 0 1 1970 1930 )" mask="url(#clip184)" />
  </g>
</svg>