<?xml version="1.0" encoding="utf-8"?>
<svg version="1.1" xmlns:xlink="http://www.w3.org/1999/xlink" width="10px" height="11px" xmlns="http://www.w3.org/2000/svg">
  <g transform="matrix(1 0 0 1 -2029 -1851 )">
    <path d="M 4.5 2.02440717727683  L 4.36567164179105 2.23429119892744  L 4.16417910447761 2.16432985837723  L 3.29104477611939 2.02440717727683  L 3.22388059701494 2.44417522057805  L 3.22388059701494 2.65405924222865  L 3.0223880597015 2.65405924222865  L 1.61194029850745 3.21374996663028  C 1.61194029850745 3.21374996663028  1.544776119403 3.42363398828089  1.544776119403 3.42363398828089  C 1.34328358208956 3.91336337213231  1.544776119403 4.33313141543353  2.01492537313433 4.89282213983516  C 2.01492537313433 4.89282213983516  2.14925373134328 5.03274482093556  2.14925373134328 5.03274482093556  C 2.14925373134328 5.03274482093556  2.01492537313433 5.24262884258617  2.01492537313433 5.24262884258617  C 1.61194029850745 5.9422422480882  1.00746268656717 6.64185565359024  0.335820895522389 7.13158503744165  C 0.0671641791044548 7.34146905909227  0 7.55135308074288  0 7.76123710239348  C 0 7.76123710239348  0.470149253731337 8.39088916734531  0.470149253731337 8.39088916734531  L 1.20895522388061 8.67073452954613  C 1.20895522388061 8.67073452954613  1.81343283582089 8.74069587009633  1.81343283582089 8.74069587009633  C 2.61940298507462 8.74069587009633  3.15671641791045 8.81065721064653  3.35820895522389 9.16046391339754  C 3.35820895522389 9.16046391339754  4.02985074626866 9.65019329724898  4.02985074626866 9.65019329724898  C 4.5 9.86007731889958  4.90298507462688 9.99999999999999  5.23880597014927 9.99999999999999  C 5.50746268656717 9.99999999999999  5.84328358208955 9.79011597834938  6.11194029850745 9.23042525394774  C 6.11194029850745 9.23042525394774  6.64925373134328 8.60077318899593  6.64925373134328 8.60077318899593  L 7.05223880597016 7.27150771854207  L 6.71641791044777 5.7323582264376  L 7.2537313432836 5.872280907538  L 8.12686567164178 5.9422422480882  L 8.52985074626867 5.66239688588739  L 8.66417910447761 5.31259018313637  L 7.99253731343284 3.28371130718049  C 7.99253731343284 3.28371130718049  8.19402985074628 2.58409790167845  8.19402985074628 2.58409790167845  C 8.39552238805972 2.16432985837723  8.66417910447761 2.02440717727683  8.93283582089555 1.95444583672662  C 8.93283582089555 1.95444583672662  9 1.95444583672662  9 1.95444583672662  L 8.86567164179105 1.4647164528752  L 7.2537313432836 1.53467779342541  L 7.2537313432836 1.4647164528752  C 7.2537313432836 1.4647164528752  5.77611940298506 0.415296344622151  5.77611940298506 0.415296344622151  C 5.17164179104478 -0.00447169867906372  4.56716417910449 -0.0744330392292629  4.02985074626866 0.0654896418711355  C 4.02985074626866 0.0654896418711355  3.82835820895522 0.205412322971544  3.82835820895522 0.205412322971544  C 3.69402985074628 0.48525768517236  3.82835820895522 0.765103047373167  4.2313432835821 0.905025728473575  C 4.56716417910449 1.18487109067439  4.70149253731344 1.53467779342541  4.5 2.02440717727683  Z " fill-rule="nonzero" fill="#4284f5" stroke="none" transform="matrix(1 0 0 1 2029 1851 )" />
  </g>
</svg>