<?xml version="1.0" encoding="utf-8"?>
<svg version="1.1" xmlns:xlink="http://www.w3.org/1999/xlink" width="26px" height="31px" xmlns="http://www.w3.org/2000/svg">
  <g transform="matrix(1 0 0 1 -2031 -1893 )">
    <path d="M 16.4712041884817 8.80982905982906  L 16.4031413612565 8.74358974358975  L 16.3350785340314 8.74358974358975  C 16.3350785340314 8.74358974358975  16.3350785340314 8.67735042735042  16.3350785340314 8.67735042735042  C 15.586387434555 6.16025641025641  14.9057591623037 4.76923076923078  14.4293193717278 4.57051282051282  C 14.4293193717278 4.57051282051282  12.0471204188482 3.77564102564103  12.0471204188482 3.77564102564103  C 10.6858638743456 3.37820512820512  9.73298429319371 3.11324786324787  9.32460732984295 2.8482905982906  C 8.64397905759165 2.45085470085471  7.75916230366494 1.52350427350428  6.73821989528797 0  C 6.73821989528797 0  6.32984293193717 0  6.32984293193717 0  C 6.32984293193717 0  6.39790575916232 0.0662393162393124  6.39790575916232 0.0662393162393124  C 6.53403141361257 0.596153846153849  7.07853403141363 1.52350427350428  8.23560209424084 2.8482905982906  C 8.23560209424084 2.8482905982906  8.30366492146599 2.91452991452992  8.30366492146599 2.91452991452992  L 8.3717277486911 3.04700854700854  C 8.3717277486911 3.04700854700854  7.28272251308903 4.96794871794872  7.28272251308903 4.96794871794872  C 6.87434554973823 5.69658119658119  6.46596858638743 6.02777777777777  6.05759162303667 5.89529914529915  C 5.78534031413612 5.76282051282052  5.2408376963351 5.16666666666667  4.35602094240839 4.04059829059829  C 4.35602094240839 4.04059829059829  3.19895287958118 3.7094017094017  3.19895287958118 3.7094017094017  C 3.19895287958118 4.04059829059829  3.40314136125654 4.70299145299145  3.87958115183249 5.76282051282052  C 3.87958115183249 5.76282051282052  3.87958115183249 5.82905982905983  3.87958115183249 5.82905982905983  L 3.87958115183249 5.89529914529915  L 3.87958115183249 5.96153846153846  L 3.87958115183249 6.02777777777777  L 3.67539267015709 6.75641025641026  L 2.45026178010472 7.28632478632478  C 2.45026178010472 7.28632478632478  2.04188481675392 7.41880341880343  2.04188481675392 7.41880341880343  C 1.83769633507856 7.61752136752136  1.83769633507856 7.94871794871794  1.90575916230367 8.34615384615384  C 2.04188481675392 9.33974358974358  1.97382198952882 9.93589743589743  1.76963350785342 10.2008547008547  C 1.63350785340316 10.3333333333333  1.56544502617802 10.3333333333333  1.42931937172776 10.3333333333333  C 1.42931937172776 10.3333333333333  1.36125654450262 10.3333333333333  1.36125654450262 10.3333333333333  C 1.36125654450262 10.3333333333333  0 10.0683760683761  0 10.0683760683761  C 0.0680628272251463 10.3333333333333  0.272251308900547 10.5982905982906  0.6125654450262 10.7970085470086  C 1.29319371727751 11.3931623931624  1.83769633507856 12.2542735042735  2.38219895287958 13.2478632478632  C 2.38219895287958 13.2478632478632  2.45026178010472 13.4465811965812  2.45026178010472 13.4465811965812  C 2.45026178010472 13.4465811965812  3.06282722513089 13.3141025641026  3.06282722513089 13.3141025641026  C 3.81151832460734 13.1816239316239  4.49214659685865 13.3141025641026  5.17277486910996 13.7777777777778  C 5.17277486910996 13.7777777777778  5.92146596858641 14.6388888888889  5.92146596858641 14.6388888888889  L 5.98952879581152 14.7051282051282  L 5.98952879581152 14.7713675213675  L 5.92146596858641 14.7713675213675  C 5.92146596858641 14.7713675213675  5.85340314136126 16.4935897435897  5.85340314136126 16.4935897435897  C 6.05759162303667 16.758547008547  6.19371727748692 17.0897435897436  6.05759162303667 17.3547008547009  C 5.92146596858641 17.6858974358974  5.64921465968586 17.8846153846154  5.17277486910996 17.9508547008547  C 4.6282722513089 17.9508547008547  4.35602094240839 18.2820512820513  4.21989528795814 18.9444444444444  C 4.21989528795814 18.9444444444444  4.21989528795814 19.0106837606838  4.21989528795814 19.0106837606838  L 3.67539267015709 20.1367521367521  L 4.49214659685865 20.9316239316239  L 6.26178010471206 21.2628205128205  L 6.39790575916232 21.2628205128205  L 7.28272251308903 22.1901709401709  L 6.19371727748692 23.7799145299145  L 8.71204188481675 29.0790598290598  L 8.7801047120419 29.2115384615384  L 8.3717277486911 29.6752136752137  L 8.50785340314135 30.0726495726496  L 8.5759162303665 30.0726495726496  L 13.2041884816754 27.224358974359  C 13.2041884816754 27.224358974359  12.4554973821989 28.5491452991453  12.4554973821989 28.5491452991453  C 11.8429319371728 29.542735042735  11.5026178010471 30.4038461538461  11.3664921465969 31  C 12.1832460732984 30.6688034188034  12.8638743455497 30.0726495726496  13.2722513089005 29.0128205128205  C 13.2722513089005 29.0128205128205  13.3403141361257 28.8803418803419  13.3403141361257 28.8803418803419  L 13.4083769633508 28.8803418803419  L 14.7015706806283 28.2179487179487  L 14.7696335078534 28.0854700854701  L 16.6073298429319 29.6752136752137  L 18.6492146596859 29.741452991453  L 18.717277486911 29.8076923076923  L 19.6701570680628 30.4038461538461  C 19.6701570680628 30.4038461538461  22.1884816753927 28.284188034188  22.1884816753927 28.284188034188  C 22.3926701570681 28.0854700854701  22.5968586387435 27.6880341880342  22.869109947644 27.025641025641  C 22.869109947644 27.025641025641  23.1413612565445 26.4957264957265  23.1413612565445 26.4957264957265  C 23.2094240837696 26.2307692307692  22.869109947644 25.5683760683761  22.1884816753927 24.4423076923077  C 22.1884816753927 24.4423076923077  21.5759162303665 23.5811965811966  21.5759162303665 23.5811965811966  L 24.5706806282722 24.5747863247863  L 25.4554973821989 24.1111111111111  L 24.5706806282722 22.2564102564102  L 24.5026178010471 22.1901709401709  L 26 20.2692307692308  C 26 20.2692307692308  25.3874345549738 19.3418803418803  25.3874345549738 19.3418803418803  C 24.7748691099476 18.6794871794872  24.3664921465968 18.3482905982906  24.0942408376963 18.3482905982906  C 24.0942408376963 18.3482905982906  23.9581151832461 18.4145299145299  23.9581151832461 18.4145299145299  L 23.2094240837696 19.1431623931624  L 23.0732984293194 19.0769230769231  L 22.9371727748691 19.0769230769231  L 21.7120418848168 18.6794871794872  C 21.7120418848168 18.6794871794872  21.3717277486911 17.6196581196581  21.3717277486911 17.6196581196581  C 20.8952879581152 17.5534188034188  20.4188481675392 17.2884615384615  20.0104712041885 16.8247863247863  C 20.0104712041885 16.8247863247863  19.261780104712 16.3611111111111  19.261780104712 16.3611111111111  C 18.6492146596859 16.0961538461538  18.3089005235602 15.7649572649573  18.3089005235602 15.4337606837607  C 18.17277486911 15.0363247863248  18.3089005235602 14.5726495726496  18.717277486911 13.9764957264957  C 19.4659685863874 12.9166666666667  19.8743455497382 12.0555555555556  19.8743455497382 11.3931623931624  C 19.8743455497382 11.3931623931624  19.8743455497382 10.5320512820513  19.8743455497382 10.5320512820513  L 20.3507853403141 10.5982905982906  C 20.3507853403141 10.5982905982906  21.9162303664922 10.6645299145299  21.9162303664922 10.6645299145299  C 22.0523560209424 10.5320512820513  22.2565445026178 9.86965811965812  22.5287958115183 8.67735042735042  C 22.5287958115183 8.67735042735042  22.0523560209424 8.61111111111111  22.0523560209424 8.61111111111111  C 20.9633507853403 9.33974358974358  20.1465968586387 9.8034188034188  19.5340314136126 10.0021367521367  C 18.7853403141361 10.2008547008547  17.8324607329843 9.8034188034188  16.4712041884817 8.87606837606837  C 16.4712041884817 8.87606837606837  16.4712041884817 8.80982905982906  16.4712041884817 8.80982905982906  Z " fill-rule="nonzero" fill="#237ffa" stroke="none" transform="matrix(1 0 0 1 2031 1893 )" />
  </g>
</svg>