<?xml version="1.0" encoding="utf-8"?>
<svg version="1.1" xmlns:xlink="http://www.w3.org/1999/xlink" width="20px" height="24px" xmlns="http://www.w3.org/2000/svg">
  <g transform="matrix(1 0 0 1 -2050 -1913 )">
    <path d="M 13.3993399339934 0  C 13.3993399339934 0  12.2112211221122 0.340909090909091  12.2112211221122 0.340909090909091  C 11.4851485148515 0.681818181818182  10.8910891089109 0.954545454545459  10.4290429042904 1.02272727272727  C 10.03300330033 1.02272727272727  9.37293729372936 0.886363636363644  8.44884488448846 0.545454545454553  C 8.44884488448846 0.545454545454553  6.93069306930693 0.340909090909091  6.93069306930693 0.340909090909091  C 6.46864686468647 0.545454545454553  5.94059405940594 1.22727272727274  5.2145214521452 2.38636363636364  C 5.2145214521452 2.38636363636364  6.20462046204619 4.56818181818181  6.20462046204619 4.56818181818181  L 4.55445544554454 5.52272727272727  L 4.48844884488449 5.52272727272727  C 4.48844884488449 5.52272727272727  3.16831683168317 5.11363636363637  3.16831683168317 5.11363636363637  C 3.69636963696371 6.13636363636364  3.82838283828383 6.75000000000001  3.63036303630363 7.02272727272728  C 3.63036303630363 7.02272727272728  3.4983498349835 7.56818181818182  3.4983498349835 7.56818181818182  C 3.16831683168317 8.38636363636365  2.90429042904289 8.86363636363637  2.64026402640264 9.13636363636364  C 2.64026402640264 9.13636363636364  0.330033003300329 11.25  0.330033003300329 11.25  L 0.924092409240907 11.5909090909091  C 0.924092409240907 11.5909090909091  0.528052805280534 11.9318181818182  0.528052805280534 11.9318181818182  C 0 12.4090909090909  -0.132013201320126 12.9545454545455  0.132013201320123 13.3636363636364  C 0.132013201320123 13.3636363636364  1.71617161716173 15.8863636363636  1.71617161716173 15.8863636363636  L 1.78217821782177 15.8863636363636  L 1.78217821782177 15.9545454545455  L 2.50825082508251 17.3181818181818  L 2.50825082508251 17.3863636363636  L 2.57425742574256 17.4545454545455  L 2.50825082508251 17.5909090909091  L 2.50825082508251 17.7272727272727  L 2.50825082508251 17.7954545454545  C 2.50825082508251 17.7954545454545  2.37623762376239 17.9318181818182  2.37623762376239 17.9318181818182  C 2.70627062706272 17.9318181818182  2.97029702970297 18.0681818181818  3.3003300330033 18.2727272727273  C 3.82838283828383 18.6136363636364  4.22442244224421 19.5681818181818  4.42244224422441 21  C 4.42244224422441 21  4.6864686468647 22.3636363636364  4.6864686468647 22.3636363636364  C 4.81848184818482 22.7045454545455  4.95049504950495 22.9090909090909  5.28052805280528 23.0454545454546  C 5.80858085808581 23.3181818181818  6.46864686468647 23.25  7.06270627062705 22.8409090909091  C 7.39273927392738 22.6363636363636  7.59075907590759 22.4318181818182  7.52475247524751 22.2272727272727  C 7.52475247524751 22.2272727272727  7.45874587458746 22.1590909090909  7.45874587458746 22.1590909090909  L 7.45874587458746 22.0227272727273  L 8.58085808580858 21.2045454545455  L 8.7128712871287 21.3409090909091  C 8.7128712871287 21.3409090909091  9.57095709570957 22.8409090909091  9.57095709570957 22.8409090909091  C 9.9009900990099 23.1136363636364  10.2310231023102 23.25  10.7590759075908 23.25  C 10.7590759075908 23.25  11.0891089108911 23.1818181818182  11.0891089108911 23.1818181818182  L 10.8250825082508 22.3636363636364  L 12.0792079207921 22.9090909090909  L 12.4092409240924 22.9090909090909  L 12.4752475247525 22.9090909090909  L 12.5412541254125 23.0454545454546  L 13.7293729372937 24  L 14.0594059405941 23.4545454545455  L 13.993399339934 21.1363636363636  L 14.0594059405941 21.0681818181818  C 14.0594059405941 21.0681818181818  14.8514851485148 20.0454545454546  14.8514851485148 20.0454545454546  C 14.9174917491749 19.9090909090909  14.8514851485148 19.6363636363637  14.5214521452145 19.2954545454546  C 14.5214521452145 19.2954545454546  14.3234323432343 19.0909090909091  14.3234323432343 19.0909090909091  L 14.4554455445544 18.9545454545455  L 14.5214521452145 18.8181818181818  L 14.7194719471947 18.75  L 16.3696369636964 15.9545454545455  L 16.5016501650165 16.0227272727273  L 16.8316831683168 16.0909090909091  L 16.9636963696369 16.1590909090909  L 16.9636963696369 16.2954545454546  L 16.8316831683168 17.3863636363636  L 16.9636963696369 17.3863636363636  L 18.8118811881188 15.6818181818182  L 18.6798679867987 14.7954545454545  L 18.3498349834984 14.7954545454545  L 17.6897689768977 14.8636363636364  L 18.8118811881188 11.7272727272727  L 17.8217821782178 11.5909090909091  L 17.6897689768977 11.5909090909091  L 17.6897689768977 11.4545454545455  C 17.6897689768977 11.4545454545455  17.3597359735974 11.0454545454545  17.3597359735974 11.0454545454545  C 17.1617161716172 10.6363636363636  17.1617161716172 10.2954545454545  17.4257425742574 9.95454545454545  C 17.4257425742574 9.95454545454545  19.009900990099 9.88636363636364  19.009900990099 9.88636363636364  C 19.009900990099 9.88636363636364  20 9.88636363636364  20 9.88636363636364  C 20 9.54545454545455  19.8019801980198 8.93181818181818  19.2079207920792 7.90909090909091  C 19.2079207920792 7.90909090909091  17.8217821782178 7.43181818181819  17.8217821782178 7.43181818181819  L 19.2739273927393 6.00000000000001  L 19.2739273927393 5.65909090909092  L 18.5478547854786 5.79545454545455  L 18.2838283828383 5.79545454545455  L 18.2838283828383 5.72727272727273  L 18.2178217821782 5.65909090909092  C 18.2178217821782 5.65909090909092  18.1518151815181 5.52272727272727  18.1518151815181 5.52272727272727  C 17.9537953795379 4.84090909090909  17.5577557755776 4.29545454545455  16.9636963696369 4.09090909090909  C 16.9636963696369 4.09090909090909  14.3234323432343 4.15909090909091  14.3234323432343 4.15909090909091  L 13.2013201320132 5.52272727272727  L 13.2013201320132 5.59090909090908  L 12.8712871287129 5.52272727272727  L 8.7128712871287 4.15909090909091  C 8.7128712871287 4.15909090909091  12.7392739273927 3.06818181818182  12.7392739273927 3.06818181818182  C 13.003300330033 3.06818181818182  13.6633663366337 2.38636363636364  14.7854785478548 1.02272727272727  C 14.7854785478548 1.02272727272727  13.3993399339934 0  13.3993399339934 0  Z " fill-rule="nonzero" fill="#1360d4" stroke="none" transform="matrix(1 0 0 1 2050 1913 )" />
  </g>
</svg>