<?xml version="1.0" encoding="utf-8"?>
<svg version="1.1" xmlns:xlink="http://www.w3.org/1999/xlink" width="13px" height="6px" xmlns="http://www.w3.org/2000/svg">
  <g transform="matrix(1 0 0 1 -220 -2333 )">
    <path d="M 0.833333333333291 2.99999999999955  C 1.3291058850917 1.41352783437287  2.79837663009983 0.33333333333303  4.46050910237333 0.33333333333303  C 4.46050910237333 0.33333333333303  8.20615756429326 0.33333333333303  8.20615756429326 0.33333333333303  C 9.86829003656674 0.33333333333303  11.3375607815749 1.41352783437287  11.8333333333333 2.99999999999955  C 11.8333333333333 2.99999999999955  12.3961927097633 4.80115000457567  12.3961927097633 4.80115000457567  C 12.5060145297399 5.15257982850062  12.3101525437556 5.52649816537973  11.9587227198306 5.63631998535629  C 11.8943557540956 5.65643466214851  11.8273094095297 5.66666666666629  11.7598727244066 5.66666666666629  C 11.7598727244066 5.66666666666629  0.906793942259966 5.66666666666629  0.906793942259966 5.66666666666629  C 0.538604109039438 5.66666666666629  0.2401272755933 5.36818983322019  0.2401272755933 4.99999999999955  C 0.2401272755933 4.93256331487669  0.250359280111091 4.86551697031064  0.270473956903281 4.80115000457567  C 0.270473956903281 4.80115000457567  0.833333333333291 2.99999999999955  0.833333333333291 2.99999999999955  Z M 10.5606933626199 3.3976999908482  C 10.2478083804242 2.39646804782205  9.33760906906381 1.70587551398103  8.29576961200853 1.66828181761252  C 8.29576961200853 1.66828181761252  4.46050910237333 1.66666666666697  4.46050910237333 1.66666666666697  C 3.41152749346893 1.66666666666697  2.48088105358883 2.32944720209071  2.13424396620288 3.31264884465054  C 2.13424396620288 3.31264884465054  2.10597330404666 3.3976999908482  2.10597330404666 3.3976999908482  L 1.81333333333329 4.33333333333371  L 10.853 4.33333333333371  C 10.853 4.33333333333371  10.5606933626199 3.3976999908482  10.5606933626199 3.3976999908482  Z " fill-rule="nonzero" fill="#979797" stroke="none" transform="matrix(1 0 0 1 220 2333 )" />
  </g>
</svg>