<?xml version="1.0" encoding="utf-8"?>
<svg version="1.1" xmlns:xlink="http://www.w3.org/1999/xlink" width="13px" height="13px" xmlns="http://www.w3.org/2000/svg">
  <g transform="matrix(1 0 0 1 -220 -2326 )">
    <path d="M 6.33333333333333 6.66666666666674  C 4.49238416733333 6.66666666666674  3 5.17428249933346  3 3.33333333333348  C 3 1.49238416733328  4.49238416733333 0  6.33333333333333 0  C 8.17428249933333 0  9.66666666666666 1.49238416733328  9.66666666666666 3.33333333333348  C 9.66666666666666 5.17428249933346  8.17428249933333 6.66666666666674  6.33333333333333 6.66666666666674  Z M 0 9.99999999999955  C 0 8.52724066711767  1.19390733378455 7.33333333333303  2.66666666666667 7.33333333333303  C 2.66666666666667 7.33333333333303  10 7.33333333333303  10 7.33333333333303  C 11.4727593328821 7.33333333333303  12.6666666666667 8.52724066711767  12.6666666666667 9.99999999999955  C 12.6666666666667 11.4727593328817  11.4727593328821 12.6666666666663  10 12.6666666666663  C 10 12.6666666666663  2.66666666666667 12.6666666666663  2.66666666666667 12.6666666666663  C 1.19390733378455 12.6666666666663  0 11.4727593328817  0 9.99999999999955  Z " fill-rule="nonzero" fill="#c9ced6" stroke="none" transform="matrix(1 0 0 1 220 2326 )" />
  </g>
</svg>