<?xml version="1.0" encoding="utf-8"?>
<svg version="1.1" xmlns:xlink="http://www.w3.org/1999/xlink" width="14px" height="14px" xmlns="http://www.w3.org/2000/svg">
  <g transform="matrix(1 0 0 1 -220 -1982 )">
    <path d="M 6.66666666666666 13.3333333333334  C 2.98476833466666 13.3333333333334  0 10.3485649986667  0 6.66666666666674  C 0 2.98476833466668  2.98476833466666 0  6.66666666666666 0  C 10.3485649986667 0  13.3333333333333 2.98476833466668  13.3333333333333 6.66666666666674  C 13.3333333333333 10.3485649986667  10.3485649986667 13.3333333333334  6.66666666666666 13.3333333333334  Z M 5.01232363376737 9.15976698146596  C 5.23841664478136 9.37900868911561  5.59759235953396 9.39054772636041  5.83769407620474 9.19438409320014  C 5.83769407620474 9.19438409320014  9.54323192189251 5.60421142591747  9.54323192189251 5.60421142591747  C 9.78188565574069 5.37278962339838  9.78188565574069 4.99758074703004  9.54323192189251 4.76615894451095  C 9.31713891087852 4.5469172368613  8.95796319612363 4.53537819961639  8.71786147945305 4.73154183277666  L 5.44444444449277 7.90251851854157  C 5.44444444449277 7.90251851854157  4.04323192188767 6.54393672228719  4.04323192188767 6.54393672228719  C 3.81713891087368 6.32469501463754  3.45796319612024 6.31315597739263  3.21786147944967 6.50931961055289  C 2.99176846843547 6.72856131820254  2.94099765726312 7.11147003211841  3.14329140395991 7.34429593919276  C 3.14329140395991 7.34429593919276  5.01232363376737 9.15976698146596  5.01232363376737 9.15976698146596  Z " fill-rule="nonzero" fill="#c9ced6" stroke="none" transform="matrix(1 0 0 1 220 1982 )" />
  </g>
</svg>