<?xml version="1.0" encoding="utf-8"?>
<svg version="1.1" xmlns:xlink="http://www.w3.org/1999/xlink" width="14px" height="13px" xmlns="http://www.w3.org/2000/svg">
  <g transform="matrix(1 0 0 1 -707 -484 )">
    <path d="M 0.66666666666697 2.33333333333303  C 0.66666666666697 1.22876383367111  1.5620971670055 0.33333333333303  2.66666666666697 0.33333333333303  C 2.66666666666697 0.33333333333303  11.3333333333335 0.33333333333303  11.3333333333335 0.33333333333303  C 12.437902832995 0.33333333333303  13.3333333333335 1.22876383367111  13.3333333333335 2.33333333333303  C 13.3333333333335 2.33333333333303  13.3333333333335 10.333333333333  13.3333333333335 10.333333333333  C 13.3333333333335 11.437902832995  12.437902832995 12.333333333333  11.3333333333335 12.333333333333  C 11.3333333333335 12.333333333333  2.66666666666697 12.333333333333  2.66666666666697 12.333333333333  C 1.5620971670055 12.333333333333  0.66666666666697 11.437902832995  0.66666666666697 10.333333333333  C 0.66666666666697 10.333333333333  0.66666666666697 2.33333333333303  0.66666666666697 2.33333333333303  Z M 12 2.33333333333303  C 12 1.98187940162188  11.7280407364674 1.69394495937559  11.383087448286 1.66849524547615  C 11.383087448286 1.66849524547615  2.66666666666652 1.66666666666606  2.66666666666652 1.66666666666606  C 2.31521273495628 1.66666666666606  2.02727829270953 1.93862593019821  2.00182857881055 2.2835792183796  C 2.00182857881055 2.2835792183796  2 10.3333333333321  2 10.3333333333321  C 2 10.6847872650433  2.27195926353261 10.9727217072896  2.61691255171399 10.998171421189  C 2.61691255171399 10.998171421189  11.3333333333335 10.9999999999991  11.3333333333335 10.9999999999991  C 11.6847872650437 10.9999999999991  11.9727217072905 10.7280407364669  11.9981714211895 10.3830874482856  C 11.9981714211895 10.3830874482856  12 2.33333333333303  12 2.33333333333303  Z " fill-rule="nonzero" fill="#929aa6" stroke="none" transform="matrix(1 0 0 1 707 484 )" />
  </g>
</svg>