<?xml version="1.0" encoding="utf-8"?>
<svg version="1.1" xmlns:xlink="http://www.w3.org/1999/xlink" width="45px" height="31px" xmlns="http://www.w3.org/2000/svg">
  <defs>
    <mask fill="white" id="clip95">
      <path d="M 10.0746268656716 3.54285714285715  L 8.73134328358209 1.43076923076924  L 8.46268656716419 0  L 7.79104477611942 0.408791208791215  L 7.72388059701492 0.408791208791215  L 6.11194029850748 1.02197802197802  L 6.04477611940298 0.885714285714284  L 5.77611940298509 0.81758241758242  L 5.77611940298509 1.56703296703297  L 5.7089552238806 1.63516483516484  L 4.90298507462687 2.86153846153846  L 4.83582089552238 2.86153846153846  L 4.83582089552238 2.92967032967033  L 4.76865671641793 2.92967032967033  L 3.55970149253732 3.95164835164835  L 3.42537313432837 3.95164835164835  L 3.42537313432837 4.08791208791209  C 3.42537313432837 4.08791208791209  3.22388059701493 3.95164835164835  3.22388059701493 3.95164835164835  C 2.41791044776121 3.61098901098901  1.88059701492538 3.20219780219781  1.74626865671643 2.86153846153846  C 1.61194029850745 2.72527472527473  1.54477611940299 2.72527472527473  1.41044776119405 2.65714285714286  C 1.41044776119405 2.65714285714286  0.537313432835829 2.7934065934066  0.537313432835829 2.7934065934066  L 0 3.33846153846154  L 1.41044776119405 4.56483516483517  L 2.55223880597016 5.04175824175825  L 2.61940298507461 5.10989010989011  L 2.6865671641791 5.10989010989011  L 2.7537313432836 5.24615384615385  L 2.7537313432836 5.31428571428571  L 2.955223880597 6.67692307692307  L 3.02238805970149 6.67692307692307  L 3.02238805970149 8.78901098901099  L 3.29104477611939 10.0153846153846  L 4.09701492537315 11.9230769230769  L 5.03731343283582 12.8087912087912  L 5.77611940298509 12.2637362637363  L 6.31343283582088 11.5824175824176  L 6.31343283582088 11.5142857142857  L 6.38059701492537 11.5142857142857  L 7.32089552238805 10.356043956044  L 8.12686567164181 11.1054945054945  L 8.12686567164181 11.1736263736264  L 8.12686567164181 11.2417582417582  L 8.93283582089553 12.8087912087912  L 9.9402985074627 13.2175824175824  L 10.4776119402985 14.8527472527473  L 10.4776119402985 14.9208791208791  L 10.4776119402985 14.989010989011  L 10.410447761194 16.4879120879121  L 10.410447761194 16.556043956044  L 10.3432835820895 16.556043956044  L 9.9402985074627 17.9186813186813  L 10.6791044776119 18.6  L 11.4850746268657 18.1912087912088  L 12.2910447761194 17.3736263736264  L 12.4925373134328 17.5098901098901  L 13.1641791044776 17.7142857142857  L 13.9701492537313 18.4637362637363  C 13.9701492537313 18.4637362637363  14.8432835820896 18.2593406593407  14.8432835820896 18.2593406593407  C 15.5149253731343 18.0549450549451  15.8507462686567 18.2593406593407  16.0522388059701 18.7362637362637  C 16.0522388059701 18.7362637362637  16.0522388059701 19.3494505494506  16.0522388059701 19.3494505494506  L 16.1865671641791 19.4175824175824  L 17.1268656716418 19.6901098901099  L 17.5298507462687 18.8043956043956  C 17.5298507462687 18.8043956043956  17.5298507462687 18.4637362637363  17.5298507462687 18.4637362637363  C 17.5298507462687 18.1912087912088  17.5970149253731 17.9186813186813  17.7985074626866 17.8505494505495  C 17.7985074626866 17.8505494505495  18.3358208955224 17.9186813186813  18.3358208955224 17.9186813186813  C 19.0746268656716 18.2593406593407  19.410447761194 18.7362637362637  19.410447761194 19.2813186813187  C 19.410447761194 19.2813186813187  19.3432835820896 19.7582417582418  19.3432835820896 19.7582417582418  L 19.3432835820896 20.5758241758242  L 20.0820895522388 21.6659340659341  C 20.0820895522388 21.6659340659341  20.955223880597 22.6197802197802  20.955223880597 22.6197802197802  C 21.2238805970149 22.9604395604396  21.5597014925373 23.0967032967033  21.8955223880597 23.232967032967  C 21.8955223880597 23.232967032967  22.0298507462687 23.232967032967  22.0298507462687 23.232967032967  C 22.2313432835821 23.3692307692308  22.3656716417911 23.7098901098901  22.3656716417911 24.4593406593407  C 22.3656716417911 24.4593406593407  22.3656716417911 27.5252747252747  22.3656716417911 27.5252747252747  C 22.5 27.7978021978022  22.7014925373134 28.0021978021978  22.9029850746269 28.0703296703297  C 22.9029850746269 28.0703296703297  23.0373134328358 28.0703296703297  23.0373134328358 28.0703296703297  C 23.4402985074627 27.8659340659341  23.7089552238806 27.9340659340659  24.044776119403 28.2747252747253  C 24.044776119403 28.2747252747253  24.2462686567164 28.410989010989  24.2462686567164 28.410989010989  C 24.5820895522388 28.4791208791209  24.8507462686567 28.7516483516484  24.9179104477612 29.2967032967033  C 24.9179104477612 29.2967032967033  25.0522388059702 31  25.0522388059702 31  C 25.0522388059702 31  26.5970149253731 27.7978021978022  26.5970149253731 27.7978021978022  C 27.0671641791045 26.0945054945055  27.6044776119403 25.0725274725275  28.3432835820895 24.9362637362637  C 28.9477611940299 24.7318681318681  29.8880597014925 25.0725274725275  31.0970149253731 25.7538461538462  C 31.0970149253731 25.7538461538462  35.4626865671642 26.0945054945055  35.4626865671642 26.0945054945055  L 35.5970149253731 25.1406593406593  C 35.5970149253731 25.1406593406593  33.5820895522388 23.1648351648352  33.5820895522388 23.1648351648352  C 32.6417910447761 22.6197802197802  32.2388059701493 22.210989010989  32.3731343283582 21.9384615384615  C 32.3731343283582 21.9384615384615  33.9179104477612 22.0065934065934  33.9179104477612 22.0065934065934  C 35.3283582089552 22.4835164835165  36.6716417910448 21.6659340659341  37.9477611940299 19.3494505494506  C 37.9477611940299 19.3494505494506  38.0149253731343 19.3494505494506  38.0149253731343 19.3494505494506  L 39.4925373134328 17.9186813186813  L 39.6940298507463 14.7846153846154  L 39.6940298507463 14.443956043956  L 39.8955223880597 14.443956043956  L 40.0298507462687 14.443956043956  L 41.1716417910448 14.1714285714286  L 41.3731343283582 14.1714285714286  L 41.5074626865672 14.2395604395604  L 41.5074626865672 14.3076923076923  L 43.8582089552239 16.8285714285714  L 44.5298507462687 16.556043956044  L 44.6641791044776 16.1472527472527  L 43.3880597014926 14.9208791208791  L 43.1865671641791 14.7846153846154  L 43.0522388059702 14.5802197802198  L 45 13.421978021978  L 44.8656716417911 10.5604395604396  L 44.0597014925373 10.6967032967033  L 43.9925373134328 10.6967032967033  C 43.9925373134328 10.6967032967033  42.9179104477612 10.1516483516484  42.9179104477612 10.1516483516484  C 42.5149253731343 10.0835164835165  41.9776119402985 9.81098901098901  41.1716417910448 9.33406593406593  C 40.7686567164179 9.12967032967033  40.5 8.92527472527473  40.5 8.65274725274725  C 40.5 8.65274725274725  40.5 8.72087912087912  40.5 8.72087912087912  C 40.5 8.9934065934066  40.4328358208955 9.12967032967033  40.2985074626866 9.1978021978022  C 40.0970149253731 9.33406593406593  39.8283582089552 9.4021978021978  39.3582089552239 9.4021978021978  C 39.3582089552239 9.4021978021978  39.2910447761194 9.4021978021978  39.2910447761194 9.4021978021978  L 39.2238805970149 9.33406593406593  L 39.1567164179105 9.33406593406593  L 38.2164179104477 8.65274725274725  C 38.2164179104477 8.65274725274725  37.410447761194 9.33406593406593  37.410447761194 9.33406593406593  C 37.0074626865672 9.67472527472527  36.7388059701492 9.94725274725275  36.7388059701492 10.2197802197802  C 36.7388059701492 10.2197802197802  37.1417910447761 11.1054945054945  37.1417910447761 11.1054945054945  C 37.3432835820896 11.378021978022  37.3432835820896 11.5142857142857  37.2761194029851 11.7186813186813  C 37.1417910447761 11.9230769230769  36.8059701492537 12.1274725274725  36.3358208955224 12.1956043956044  C 36.3358208955224 12.1956043956044  35.9328358208955 12.4  35.9328358208955 12.4  C 35.4626865671642 12.5362637362637  35.0597014925373 12.4681318681319  34.7910447761194 12.1274725274725  C 34.7910447761194 12.1274725274725  34.6567164179105 11.9230769230769  34.6567164179105 11.9230769230769  C 34.6567164179105 11.9230769230769  32.910447761194 10.0835164835165  32.910447761194 10.0835164835165  C 32.1044776119403 9.81098901098901  31.634328358209 9.47032967032967  31.4328358208955 9.06153846153846  C 31.2985074626866 8.85714285714286  31.2313432835821 8.65274725274725  31.2985074626866 8.51648351648351  C 31.2313432835821 7.90329670329671  31.0970149253731 7.4945054945055  30.9626865671642 7.29010989010989  C 30.9626865671642 7.29010989010989  30.6268656716418 7.4945054945055  30.6268656716418 7.4945054945055  C 30.6268656716418 7.4945054945055  30.5597014925373 7.63076923076923  30.5597014925373 7.63076923076923  C 30.5597014925373 7.83516483516483  30.6268656716418 8.03956043956044  30.8283582089552 8.31208791208791  C 30.8283582089552 8.31208791208791  30.8955223880597 8.44835164835165  30.8955223880597 8.44835164835165  L 30.9626865671642 8.51648351648351  L 30.8955223880597 8.65274725274725  L 29.955223880597 10.2197802197802  L 28.410447761194 9.87912087912088  L 28.0746268656717 9.67472527472527  C 28.0746268656717 9.67472527472527  28.0746268656717 9.47032967032967  28.0746268656717 9.47032967032967  C 28.2089552238806 9.1978021978022  28.2089552238806 8.85714285714286  28.0746268656717 8.51648351648351  C 28.0746268656717 8.51648351648351  27.8731343283582 7.97142857142857  27.8731343283582 7.97142857142857  L 26.5970149253731 7.01758241758241  C 26.5970149253731 7.01758241758241  26.5298507462687 6.94945054945055  26.5298507462687 6.94945054945055  C 26.3955223880597 7.15384615384616  26.2611940298508 7.15384615384616  26.1268656716418 7.22197802197803  C 26.1268656716418 7.22197802197803  24.9179104477612 7.08571428571429  24.9179104477612 7.08571428571429  C 24.5149253731343 7.01758241758241  24.2462686567164 6.94945054945055  24.1119402985074 6.67692307692307  C 24.044776119403 6.54065934065935  24.044776119403 6.26813186813187  24.1791044776119 5.92747252747253  C 24.1791044776119 5.92747252747253  24.2462686567164 5.72307692307693  24.2462686567164 5.72307692307693  L 23.7089552238806 4.76923076923077  C 23.7089552238806 4.76923076923077  21.3582089552239 4.90549450549451  21.3582089552239 4.90549450549451  C 21.4253731343283 5.24615384615385  21.3582089552239 5.45054945054945  21.2238805970149 5.72307692307693  C 21.1567164179104 5.92747252747253  20.8880597014926 5.9956043956044  20.6865671641791 5.9956043956044  C 20.3507462686567 6.13186813186813  19.9477611940298 5.9956043956044  19.6119402985075 5.65494505494505  C 19.6119402985075 5.65494505494505  19.6119402985075 5.58681318681319  19.6119402985075 5.58681318681319  C 19.6119402985075 5.58681318681319  19.544776119403 5.58681318681319  19.544776119403 5.58681318681319  C 19.0074626865672 4.97362637362637  18.8059701492537 4.4967032967033  18.8059701492537 4.08791208791209  C 18.8059701492537 4.08791208791209  18.3358208955224 3.40659340659341  18.3358208955224 3.40659340659341  C 18.3358208955224 3.40659340659341  17.6641791044776 3.88351648351648  17.6641791044776 3.88351648351648  C 17.0597014925373 4.22417582417583  16.6567164179105 4.22417582417583  16.455223880597 3.95164835164835  C 16.455223880597 3.95164835164835  16.1865671641791 3.88351648351648  16.1865671641791 3.88351648351648  L 15.5149253731343 3.95164835164835  C 15.5149253731343 3.95164835164835  13.7014925373134 4.56483516483517  13.7014925373134 4.56483516483517  C 13.2985074626866 4.83736263736264  12.9626865671642 4.90549450549451  12.6940298507463 4.90549450549451  C 12.6940298507463 4.90549450549451  12.4925373134328 4.90549450549451  12.4925373134328 4.90549450549451  C 11.8208955223881 4.90549450549451  11.4179104477612 4.70109890109891  11.1492537313433 4.42857142857143  C 11.1492537313433 4.42857142857143  10.0746268656716 3.54285714285715  10.0746268656716 3.54285714285715  Z " fill-rule="evenodd" />
    </mask>
  </defs>
  <g transform="matrix(1 0 0 1 -2051 -1813 )">
    <path d="M 10.0746268656716 3.54285714285715  L 8.73134328358209 1.43076923076924  L 8.46268656716419 0  L 7.79104477611942 0.408791208791215  L 7.72388059701492 0.408791208791215  L 6.11194029850748 1.02197802197802  L 6.04477611940298 0.885714285714284  L 5.77611940298509 0.81758241758242  L 5.77611940298509 1.56703296703297  L 5.7089552238806 1.63516483516484  L 4.90298507462687 2.86153846153846  L 4.83582089552238 2.86153846153846  L 4.83582089552238 2.92967032967033  L 4.76865671641793 2.92967032967033  L 3.55970149253732 3.95164835164835  L 3.42537313432837 3.95164835164835  L 3.42537313432837 4.08791208791209  C 3.42537313432837 4.08791208791209  3.22388059701493 3.95164835164835  3.22388059701493 3.95164835164835  C 2.41791044776121 3.61098901098901  1.88059701492538 3.20219780219781  1.74626865671643 2.86153846153846  C 1.61194029850745 2.72527472527473  1.54477611940299 2.72527472527473  1.41044776119405 2.65714285714286  C 1.41044776119405 2.65714285714286  0.537313432835829 2.7934065934066  0.537313432835829 2.7934065934066  L 0 3.33846153846154  L 1.41044776119405 4.56483516483517  L 2.55223880597016 5.04175824175825  L 2.61940298507461 5.10989010989011  L 2.6865671641791 5.10989010989011  L 2.7537313432836 5.24615384615385  L 2.7537313432836 5.31428571428571  L 2.955223880597 6.67692307692307  L 3.02238805970149 6.67692307692307  L 3.02238805970149 8.78901098901099  L 3.29104477611939 10.0153846153846  L 4.09701492537315 11.9230769230769  L 5.03731343283582 12.8087912087912  L 5.77611940298509 12.2637362637363  L 6.31343283582088 11.5824175824176  L 6.31343283582088 11.5142857142857  L 6.38059701492537 11.5142857142857  L 7.32089552238805 10.356043956044  L 8.12686567164181 11.1054945054945  L 8.12686567164181 11.1736263736264  L 8.12686567164181 11.2417582417582  L 8.93283582089553 12.8087912087912  L 9.9402985074627 13.2175824175824  L 10.4776119402985 14.8527472527473  L 10.4776119402985 14.9208791208791  L 10.4776119402985 14.989010989011  L 10.410447761194 16.4879120879121  L 10.410447761194 16.556043956044  L 10.3432835820895 16.556043956044  L 9.9402985074627 17.9186813186813  L 10.6791044776119 18.6  L 11.4850746268657 18.1912087912088  L 12.2910447761194 17.3736263736264  L 12.4925373134328 17.5098901098901  L 13.1641791044776 17.7142857142857  L 13.9701492537313 18.4637362637363  C 13.9701492537313 18.4637362637363  14.8432835820896 18.2593406593407  14.8432835820896 18.2593406593407  C 15.5149253731343 18.0549450549451  15.8507462686567 18.2593406593407  16.0522388059701 18.7362637362637  C 16.0522388059701 18.7362637362637  16.0522388059701 19.3494505494506  16.0522388059701 19.3494505494506  L 16.1865671641791 19.4175824175824  L 17.1268656716418 19.6901098901099  L 17.5298507462687 18.8043956043956  C 17.5298507462687 18.8043956043956  17.5298507462687 18.4637362637363  17.5298507462687 18.4637362637363  C 17.5298507462687 18.1912087912088  17.5970149253731 17.9186813186813  17.7985074626866 17.8505494505495  C 17.7985074626866 17.8505494505495  18.3358208955224 17.9186813186813  18.3358208955224 17.9186813186813  C 19.0746268656716 18.2593406593407  19.410447761194 18.7362637362637  19.410447761194 19.2813186813187  C 19.410447761194 19.2813186813187  19.3432835820896 19.7582417582418  19.3432835820896 19.7582417582418  L 19.3432835820896 20.5758241758242  L 20.0820895522388 21.6659340659341  C 20.0820895522388 21.6659340659341  20.955223880597 22.6197802197802  20.955223880597 22.6197802197802  C 21.2238805970149 22.9604395604396  21.5597014925373 23.0967032967033  21.8955223880597 23.232967032967  C 21.8955223880597 23.232967032967  22.0298507462687 23.232967032967  22.0298507462687 23.232967032967  C 22.2313432835821 23.3692307692308  22.3656716417911 23.7098901098901  22.3656716417911 24.4593406593407  C 22.3656716417911 24.4593406593407  22.3656716417911 27.5252747252747  22.3656716417911 27.5252747252747  C 22.5 27.7978021978022  22.7014925373134 28.0021978021978  22.9029850746269 28.0703296703297  C 22.9029850746269 28.0703296703297  23.0373134328358 28.0703296703297  23.0373134328358 28.0703296703297  C 23.4402985074627 27.8659340659341  23.7089552238806 27.9340659340659  24.044776119403 28.2747252747253  C 24.044776119403 28.2747252747253  24.2462686567164 28.410989010989  24.2462686567164 28.410989010989  C 24.5820895522388 28.4791208791209  24.8507462686567 28.7516483516484  24.9179104477612 29.2967032967033  C 24.9179104477612 29.2967032967033  25.0522388059702 31  25.0522388059702 31  C 25.0522388059702 31  26.5970149253731 27.7978021978022  26.5970149253731 27.7978021978022  C 27.0671641791045 26.0945054945055  27.6044776119403 25.0725274725275  28.3432835820895 24.9362637362637  C 28.9477611940299 24.7318681318681  29.8880597014925 25.0725274725275  31.0970149253731 25.7538461538462  C 31.0970149253731 25.7538461538462  35.4626865671642 26.0945054945055  35.4626865671642 26.0945054945055  L 35.5970149253731 25.1406593406593  C 35.5970149253731 25.1406593406593  33.5820895522388 23.1648351648352  33.5820895522388 23.1648351648352  C 32.6417910447761 22.6197802197802  32.2388059701493 22.210989010989  32.3731343283582 21.9384615384615  C 32.3731343283582 21.9384615384615  33.9179104477612 22.0065934065934  33.9179104477612 22.0065934065934  C 35.3283582089552 22.4835164835165  36.6716417910448 21.6659340659341  37.9477611940299 19.3494505494506  C 37.9477611940299 19.3494505494506  38.0149253731343 19.3494505494506  38.0149253731343 19.3494505494506  L 39.4925373134328 17.9186813186813  L 39.6940298507463 14.7846153846154  L 39.6940298507463 14.443956043956  L 39.8955223880597 14.443956043956  L 40.0298507462687 14.443956043956  L 41.1716417910448 14.1714285714286  L 41.3731343283582 14.1714285714286  L 41.5074626865672 14.2395604395604  L 41.5074626865672 14.3076923076923  L 43.8582089552239 16.8285714285714  L 44.5298507462687 16.556043956044  L 44.6641791044776 16.1472527472527  L 43.3880597014926 14.9208791208791  L 43.1865671641791 14.7846153846154  L 43.0522388059702 14.5802197802198  L 45 13.421978021978  L 44.8656716417911 10.5604395604396  L 44.0597014925373 10.6967032967033  L 43.9925373134328 10.6967032967033  C 43.9925373134328 10.6967032967033  42.9179104477612 10.1516483516484  42.9179104477612 10.1516483516484  C 42.5149253731343 10.0835164835165  41.9776119402985 9.81098901098901  41.1716417910448 9.33406593406593  C 40.7686567164179 9.12967032967033  40.5 8.92527472527473  40.5 8.65274725274725  C 40.5 8.65274725274725  40.5 8.72087912087912  40.5 8.72087912087912  C 40.5 8.9934065934066  40.4328358208955 9.12967032967033  40.2985074626866 9.1978021978022  C 40.0970149253731 9.33406593406593  39.8283582089552 9.4021978021978  39.3582089552239 9.4021978021978  C 39.3582089552239 9.4021978021978  39.2910447761194 9.4021978021978  39.2910447761194 9.4021978021978  L 39.2238805970149 9.33406593406593  L 39.1567164179105 9.33406593406593  L 38.2164179104477 8.65274725274725  C 38.2164179104477 8.65274725274725  37.410447761194 9.33406593406593  37.410447761194 9.33406593406593  C 37.0074626865672 9.67472527472527  36.7388059701492 9.94725274725275  36.7388059701492 10.2197802197802  C 36.7388059701492 10.2197802197802  37.1417910447761 11.1054945054945  37.1417910447761 11.1054945054945  C 37.3432835820896 11.378021978022  37.3432835820896 11.5142857142857  37.2761194029851 11.7186813186813  C 37.1417910447761 11.9230769230769  36.8059701492537 12.1274725274725  36.3358208955224 12.1956043956044  C 36.3358208955224 12.1956043956044  35.9328358208955 12.4  35.9328358208955 12.4  C 35.4626865671642 12.5362637362637  35.0597014925373 12.4681318681319  34.7910447761194 12.1274725274725  C 34.7910447761194 12.1274725274725  34.6567164179105 11.9230769230769  34.6567164179105 11.9230769230769  C 34.6567164179105 11.9230769230769  32.910447761194 10.0835164835165  32.910447761194 10.0835164835165  C 32.1044776119403 9.81098901098901  31.634328358209 9.47032967032967  31.4328358208955 9.06153846153846  C 31.2985074626866 8.85714285714286  31.2313432835821 8.65274725274725  31.2985074626866 8.51648351648351  C 31.2313432835821 7.90329670329671  31.0970149253731 7.4945054945055  30.9626865671642 7.29010989010989  C 30.9626865671642 7.29010989010989  30.6268656716418 7.4945054945055  30.6268656716418 7.4945054945055  C 30.6268656716418 7.4945054945055  30.5597014925373 7.63076923076923  30.5597014925373 7.63076923076923  C 30.5597014925373 7.83516483516483  30.6268656716418 8.03956043956044  30.8283582089552 8.31208791208791  C 30.8283582089552 8.31208791208791  30.8955223880597 8.44835164835165  30.8955223880597 8.44835164835165  L 30.9626865671642 8.51648351648351  L 30.8955223880597 8.65274725274725  L 29.955223880597 10.2197802197802  L 28.410447761194 9.87912087912088  L 28.0746268656717 9.67472527472527  C 28.0746268656717 9.67472527472527  28.0746268656717 9.47032967032967  28.0746268656717 9.47032967032967  C 28.2089552238806 9.1978021978022  28.2089552238806 8.85714285714286  28.0746268656717 8.51648351648351  C 28.0746268656717 8.51648351648351  27.8731343283582 7.97142857142857  27.8731343283582 7.97142857142857  L 26.5970149253731 7.01758241758241  C 26.5970149253731 7.01758241758241  26.5298507462687 6.94945054945055  26.5298507462687 6.94945054945055  C 26.3955223880597 7.15384615384616  26.2611940298508 7.15384615384616  26.1268656716418 7.22197802197803  C 26.1268656716418 7.22197802197803  24.9179104477612 7.08571428571429  24.9179104477612 7.08571428571429  C 24.5149253731343 7.01758241758241  24.2462686567164 6.94945054945055  24.1119402985074 6.67692307692307  C 24.044776119403 6.54065934065935  24.044776119403 6.26813186813187  24.1791044776119 5.92747252747253  C 24.1791044776119 5.92747252747253  24.2462686567164 5.72307692307693  24.2462686567164 5.72307692307693  L 23.7089552238806 4.76923076923077  C 23.7089552238806 4.76923076923077  21.3582089552239 4.90549450549451  21.3582089552239 4.90549450549451  C 21.4253731343283 5.24615384615385  21.3582089552239 5.45054945054945  21.2238805970149 5.72307692307693  C 21.1567164179104 5.92747252747253  20.8880597014926 5.9956043956044  20.6865671641791 5.9956043956044  C 20.3507462686567 6.13186813186813  19.9477611940298 5.9956043956044  19.6119402985075 5.65494505494505  C 19.6119402985075 5.65494505494505  19.6119402985075 5.58681318681319  19.6119402985075 5.58681318681319  C 19.6119402985075 5.58681318681319  19.544776119403 5.58681318681319  19.544776119403 5.58681318681319  C 19.0074626865672 4.97362637362637  18.8059701492537 4.4967032967033  18.8059701492537 4.08791208791209  C 18.8059701492537 4.08791208791209  18.3358208955224 3.40659340659341  18.3358208955224 3.40659340659341  C 18.3358208955224 3.40659340659341  17.6641791044776 3.88351648351648  17.6641791044776 3.88351648351648  C 17.0597014925373 4.22417582417583  16.6567164179105 4.22417582417583  16.455223880597 3.95164835164835  C 16.455223880597 3.95164835164835  16.1865671641791 3.88351648351648  16.1865671641791 3.88351648351648  L 15.5149253731343 3.95164835164835  C 15.5149253731343 3.95164835164835  13.7014925373134 4.56483516483517  13.7014925373134 4.56483516483517  C 13.2985074626866 4.83736263736264  12.9626865671642 4.90549450549451  12.6940298507463 4.90549450549451  C 12.6940298507463 4.90549450549451  12.4925373134328 4.90549450549451  12.4925373134328 4.90549450549451  C 11.8208955223881 4.90549450549451  11.4179104477612 4.70109890109891  11.1492537313433 4.42857142857143  C 11.1492537313433 4.42857142857143  10.0746268656716 3.54285714285715  10.0746268656716 3.54285714285715  Z " fill-rule="nonzero" fill="#4a9eff" stroke="none" transform="matrix(1 0 0 1 2051 1813 )" />
    <path d="M 10.0746268656716 3.54285714285715  L 8.73134328358209 1.43076923076924  L 8.46268656716419 0  L 7.79104477611942 0.408791208791215  L 7.72388059701492 0.408791208791215  L 6.11194029850748 1.02197802197802  L 6.04477611940298 0.885714285714284  L 5.77611940298509 0.81758241758242  L 5.77611940298509 1.56703296703297  L 5.7089552238806 1.63516483516484  L 4.90298507462687 2.86153846153846  L 4.83582089552238 2.86153846153846  L 4.83582089552238 2.92967032967033  L 4.76865671641793 2.92967032967033  L 3.55970149253732 3.95164835164835  L 3.42537313432837 3.95164835164835  L 3.42537313432837 4.08791208791209  C 3.42537313432837 4.08791208791209  3.22388059701493 3.95164835164835  3.22388059701493 3.95164835164835  C 2.41791044776121 3.61098901098901  1.88059701492538 3.20219780219781  1.74626865671643 2.86153846153846  C 1.61194029850745 2.72527472527473  1.54477611940299 2.72527472527473  1.41044776119405 2.65714285714286  C 1.41044776119405 2.65714285714286  0.537313432835829 2.7934065934066  0.537313432835829 2.7934065934066  L 0 3.33846153846154  L 1.41044776119405 4.56483516483517  L 2.55223880597016 5.04175824175825  L 2.61940298507461 5.10989010989011  L 2.6865671641791 5.10989010989011  L 2.7537313432836 5.24615384615385  L 2.7537313432836 5.31428571428571  L 2.955223880597 6.67692307692307  L 3.02238805970149 6.67692307692307  L 3.02238805970149 8.78901098901099  L 3.29104477611939 10.0153846153846  L 4.09701492537315 11.9230769230769  L 5.03731343283582 12.8087912087912  L 5.77611940298509 12.2637362637363  L 6.31343283582088 11.5824175824176  L 6.31343283582088 11.5142857142857  L 6.38059701492537 11.5142857142857  L 7.32089552238805 10.356043956044  L 8.12686567164181 11.1054945054945  L 8.12686567164181 11.1736263736264  L 8.12686567164181 11.2417582417582  L 8.93283582089553 12.8087912087912  L 9.9402985074627 13.2175824175824  L 10.4776119402985 14.8527472527473  L 10.4776119402985 14.9208791208791  L 10.4776119402985 14.989010989011  L 10.410447761194 16.4879120879121  L 10.410447761194 16.556043956044  L 10.3432835820895 16.556043956044  L 9.9402985074627 17.9186813186813  L 10.6791044776119 18.6  L 11.4850746268657 18.1912087912088  L 12.2910447761194 17.3736263736264  L 12.4925373134328 17.5098901098901  L 13.1641791044776 17.7142857142857  L 13.9701492537313 18.4637362637363  C 13.9701492537313 18.4637362637363  14.8432835820896 18.2593406593407  14.8432835820896 18.2593406593407  C 15.5149253731343 18.0549450549451  15.8507462686567 18.2593406593407  16.0522388059701 18.7362637362637  C 16.0522388059701 18.7362637362637  16.0522388059701 19.3494505494506  16.0522388059701 19.3494505494506  L 16.1865671641791 19.4175824175824  L 17.1268656716418 19.6901098901099  L 17.5298507462687 18.8043956043956  C 17.5298507462687 18.8043956043956  17.5298507462687 18.4637362637363  17.5298507462687 18.4637362637363  C 17.5298507462687 18.1912087912088  17.5970149253731 17.9186813186813  17.7985074626866 17.8505494505495  C 17.7985074626866 17.8505494505495  18.3358208955224 17.9186813186813  18.3358208955224 17.9186813186813  C 19.0746268656716 18.2593406593407  19.410447761194 18.7362637362637  19.410447761194 19.2813186813187  C 19.410447761194 19.2813186813187  19.3432835820896 19.7582417582418  19.3432835820896 19.7582417582418  L 19.3432835820896 20.5758241758242  L 20.0820895522388 21.6659340659341  C 20.0820895522388 21.6659340659341  20.955223880597 22.6197802197802  20.955223880597 22.6197802197802  C 21.2238805970149 22.9604395604396  21.5597014925373 23.0967032967033  21.8955223880597 23.232967032967  C 21.8955223880597 23.232967032967  22.0298507462687 23.232967032967  22.0298507462687 23.232967032967  C 22.2313432835821 23.3692307692308  22.3656716417911 23.7098901098901  22.3656716417911 24.4593406593407  C 22.3656716417911 24.4593406593407  22.3656716417911 27.5252747252747  22.3656716417911 27.5252747252747  C 22.5 27.7978021978022  22.7014925373134 28.0021978021978  22.9029850746269 28.0703296703297  C 22.9029850746269 28.0703296703297  23.0373134328358 28.0703296703297  23.0373134328358 28.0703296703297  C 23.4402985074627 27.8659340659341  23.7089552238806 27.9340659340659  24.044776119403 28.2747252747253  C 24.044776119403 28.2747252747253  24.2462686567164 28.410989010989  24.2462686567164 28.410989010989  C 24.5820895522388 28.4791208791209  24.8507462686567 28.7516483516484  24.9179104477612 29.2967032967033  C 24.9179104477612 29.2967032967033  25.0522388059702 31  25.0522388059702 31  C 25.0522388059702 31  26.5970149253731 27.7978021978022  26.5970149253731 27.7978021978022  C 27.0671641791045 26.0945054945055  27.6044776119403 25.0725274725275  28.3432835820895 24.9362637362637  C 28.9477611940299 24.7318681318681  29.8880597014925 25.0725274725275  31.0970149253731 25.7538461538462  C 31.0970149253731 25.7538461538462  35.4626865671642 26.0945054945055  35.4626865671642 26.0945054945055  L 35.5970149253731 25.1406593406593  C 35.5970149253731 25.1406593406593  33.5820895522388 23.1648351648352  33.5820895522388 23.1648351648352  C 32.6417910447761 22.6197802197802  32.2388059701493 22.210989010989  32.3731343283582 21.9384615384615  C 32.3731343283582 21.9384615384615  33.9179104477612 22.0065934065934  33.9179104477612 22.0065934065934  C 35.3283582089552 22.4835164835165  36.6716417910448 21.6659340659341  37.9477611940299 19.3494505494506  C 37.9477611940299 19.3494505494506  38.0149253731343 19.3494505494506  38.0149253731343 19.3494505494506  L 39.4925373134328 17.9186813186813  L 39.6940298507463 14.7846153846154  L 39.6940298507463 14.443956043956  L 39.8955223880597 14.443956043956  L 40.0298507462687 14.443956043956  L 41.1716417910448 14.1714285714286  L 41.3731343283582 14.1714285714286  L 41.5074626865672 14.2395604395604  L 41.5074626865672 14.3076923076923  L 43.8582089552239 16.8285714285714  L 44.5298507462687 16.556043956044  L 44.6641791044776 16.1472527472527  L 43.3880597014926 14.9208791208791  L 43.1865671641791 14.7846153846154  L 43.0522388059702 14.5802197802198  L 45 13.421978021978  L 44.8656716417911 10.5604395604396  L 44.0597014925373 10.6967032967033  L 43.9925373134328 10.6967032967033  C 43.9925373134328 10.6967032967033  42.9179104477612 10.1516483516484  42.9179104477612 10.1516483516484  C 42.5149253731343 10.0835164835165  41.9776119402985 9.81098901098901  41.1716417910448 9.33406593406593  C 40.7686567164179 9.12967032967033  40.5 8.92527472527473  40.5 8.65274725274725  C 40.5 8.65274725274725  40.5 8.72087912087912  40.5 8.72087912087912  C 40.5 8.9934065934066  40.4328358208955 9.12967032967033  40.2985074626866 9.1978021978022  C 40.0970149253731 9.33406593406593  39.8283582089552 9.4021978021978  39.3582089552239 9.4021978021978  C 39.3582089552239 9.4021978021978  39.2910447761194 9.4021978021978  39.2910447761194 9.4021978021978  L 39.2238805970149 9.33406593406593  L 39.1567164179105 9.33406593406593  L 38.2164179104477 8.65274725274725  C 38.2164179104477 8.65274725274725  37.410447761194 9.33406593406593  37.410447761194 9.33406593406593  C 37.0074626865672 9.67472527472527  36.7388059701492 9.94725274725275  36.7388059701492 10.2197802197802  C 36.7388059701492 10.2197802197802  37.1417910447761 11.1054945054945  37.1417910447761 11.1054945054945  C 37.3432835820896 11.378021978022  37.3432835820896 11.5142857142857  37.2761194029851 11.7186813186813  C 37.1417910447761 11.9230769230769  36.8059701492537 12.1274725274725  36.3358208955224 12.1956043956044  C 36.3358208955224 12.1956043956044  35.9328358208955 12.4  35.9328358208955 12.4  C 35.4626865671642 12.5362637362637  35.0597014925373 12.4681318681319  34.7910447761194 12.1274725274725  C 34.7910447761194 12.1274725274725  34.6567164179105 11.9230769230769  34.6567164179105 11.9230769230769  C 34.6567164179105 11.9230769230769  32.910447761194 10.0835164835165  32.910447761194 10.0835164835165  C 32.1044776119403 9.81098901098901  31.634328358209 9.47032967032967  31.4328358208955 9.06153846153846  C 31.2985074626866 8.85714285714286  31.2313432835821 8.65274725274725  31.2985074626866 8.51648351648351  C 31.2313432835821 7.90329670329671  31.0970149253731 7.4945054945055  30.9626865671642 7.29010989010989  C 30.9626865671642 7.29010989010989  30.6268656716418 7.4945054945055  30.6268656716418 7.4945054945055  C 30.6268656716418 7.4945054945055  30.5597014925373 7.63076923076923  30.5597014925373 7.63076923076923  C 30.5597014925373 7.83516483516483  30.6268656716418 8.03956043956044  30.8283582089552 8.31208791208791  C 30.8283582089552 8.31208791208791  30.8955223880597 8.44835164835165  30.8955223880597 8.44835164835165  L 30.9626865671642 8.51648351648351  L 30.8955223880597 8.65274725274725  L 29.955223880597 10.2197802197802  L 28.410447761194 9.87912087912088  L 28.0746268656717 9.67472527472527  C 28.0746268656717 9.67472527472527  28.0746268656717 9.47032967032967  28.0746268656717 9.47032967032967  C 28.2089552238806 9.1978021978022  28.2089552238806 8.85714285714286  28.0746268656717 8.51648351648351  C 28.0746268656717 8.51648351648351  27.8731343283582 7.97142857142857  27.8731343283582 7.97142857142857  L 26.5970149253731 7.01758241758241  C 26.5970149253731 7.01758241758241  26.5298507462687 6.94945054945055  26.5298507462687 6.94945054945055  C 26.3955223880597 7.15384615384616  26.2611940298508 7.15384615384616  26.1268656716418 7.22197802197803  C 26.1268656716418 7.22197802197803  24.9179104477612 7.08571428571429  24.9179104477612 7.08571428571429  C 24.5149253731343 7.01758241758241  24.2462686567164 6.94945054945055  24.1119402985074 6.67692307692307  C 24.044776119403 6.54065934065935  24.044776119403 6.26813186813187  24.1791044776119 5.92747252747253  C 24.1791044776119 5.92747252747253  24.2462686567164 5.72307692307693  24.2462686567164 5.72307692307693  L 23.7089552238806 4.76923076923077  C 23.7089552238806 4.76923076923077  21.3582089552239 4.90549450549451  21.3582089552239 4.90549450549451  C 21.4253731343283 5.24615384615385  21.3582089552239 5.45054945054945  21.2238805970149 5.72307692307693  C 21.1567164179104 5.92747252747253  20.8880597014926 5.9956043956044  20.6865671641791 5.9956043956044  C 20.3507462686567 6.13186813186813  19.9477611940298 5.9956043956044  19.6119402985075 5.65494505494505  C 19.6119402985075 5.65494505494505  19.6119402985075 5.58681318681319  19.6119402985075 5.58681318681319  C 19.6119402985075 5.58681318681319  19.544776119403 5.58681318681319  19.544776119403 5.58681318681319  C 19.0074626865672 4.97362637362637  18.8059701492537 4.4967032967033  18.8059701492537 4.08791208791209  C 18.8059701492537 4.08791208791209  18.3358208955224 3.40659340659341  18.3358208955224 3.40659340659341  C 18.3358208955224 3.40659340659341  17.6641791044776 3.88351648351648  17.6641791044776 3.88351648351648  C 17.0597014925373 4.22417582417583  16.6567164179105 4.22417582417583  16.455223880597 3.95164835164835  C 16.455223880597 3.95164835164835  16.1865671641791 3.88351648351648  16.1865671641791 3.88351648351648  L 15.5149253731343 3.95164835164835  C 15.5149253731343 3.95164835164835  13.7014925373134 4.56483516483517  13.7014925373134 4.56483516483517  C 13.2985074626866 4.83736263736264  12.9626865671642 4.90549450549451  12.6940298507463 4.90549450549451  C 12.6940298507463 4.90549450549451  12.4925373134328 4.90549450549451  12.4925373134328 4.90549450549451  C 11.8208955223881 4.90549450549451  11.4179104477612 4.70109890109891  11.1492537313433 4.42857142857143  C 11.1492537313433 4.42857142857143  10.0746268656716 3.54285714285715  10.0746268656716 3.54285714285715  Z " stroke-width="2" stroke="#ffffff" fill="none" transform="matrix(1 0 0 1 2051 1813 )" mask="url(#clip95)" />
  </g>
</svg>