<?xml version="1.0" encoding="utf-8"?>
<svg version="1.1" xmlns:xlink="http://www.w3.org/1999/xlink" width="30px" height="34px" xmlns="http://www.w3.org/2000/svg">
  <defs>
    <mask fill="white" id="clip213">
      <path d="M 26.7595818815331 6.04961719545182  L 26.1324041811847 5.84569751470626  L 26.2020905923345 5.77772428779106  L 26.0627177700348 5.77772428779106  L 26.0627177700348 5.64177783396069  L 25.5052264808363 4.62217943023286  L 25.4355400696864 4.55420620331767  L 25.4355400696864 4.41825974948728  C 25.4355400696864 4.41825974948728  25.5749128919861 2.78690230352276  25.5749128919861 2.78690230352276  C 25.5749128919861 2.58298262277719  25.3658536585366 2.37906294203161  24.9477351916376 2.10717003437087  C 24.9477351916376 2.10717003437087  24.5296167247387 2.10717003437087  24.5296167247387 2.10717003437087  L 23.8327526132404 2.92284875735313  L 23.7630662020906 2.92284875735313  L 22.020905923345 3.73852748033539  L 21.7421602787456 2.58298262277719  L 21.7421602787456 2.44703616894682  L 21.8815331010453 1.9032503536253  L 21.7421602787456 1.22351808447341  L 21.5331010452962 1.15554485755822  L 21.2543554006969 1.69933067287972  L 21.184668989547 1.69933067287972  L 21.184668989547 1.76730389979493  L 19.0243902439025 3.60258102650502  L 18.9547038327526 3.73852748033539  L 18.8850174216028 3.73852748033539  L 18.7456445993031 3.73852748033539  L 18.6062717770035 3.73852748033539  L 17.9790940766551 3.46663457267465  L 17.9094076655052 3.39866134575945  L 17.212543554007 2.78690230352276  L 16.0975609756098 2.37906294203161  L 16.0278745644599 2.31108971511643  L 15.3310104529617 1.83527712671011  L 13.0313588850174 1.35946453830378  L 12.9616724738676 1.35946453830378  L 11.4285714285714 0.611759042236704  L 11.4285714285714 0.679732269151889  L 10.2439024390244 0.135946453830389  L 8.71080139372823 0  L 8.15331010452961 0.0679732269152044  L 8.64111498257838 2.58298262277719  L 8.43205574912894 2.58298262277719  L 6.89895470383274 2.71892907660756  L 6.06271777003484 2.71892907660756  L 5.99303135888503 2.71892907660756  L 5.15679442508709 2.17514326128606  L 3.76306620209058 2.78690230352276  L 2.50871080139374 4.41825974948728  L 1.39372822299652 7.34110850684042  L 1.74216027874565 10.5358501718543  C 1.74216027874565 10.5358501718543  2.22996515679442 12.3711272985644  2.22996515679442 12.3711272985644  C 2.29965156794426 12.57504697931  2.29965156794426 12.6430202062252  2.22996515679442 12.7109934331403  C 2.22996515679442 12.7109934331403  2.02090592334493 12.7789666600555  2.02090592334493 12.7789666600555  C 1.6724738675958 12.9828863408011  1.53310104529616 13.4586989292074  1.602787456446 14.1384311983593  C 1.602787456446 14.1384311983593  2.29965156794426 16.925333501882  2.29965156794426 16.925333501882  C 2.29965156794426 16.925333501882  2.09059233449477 17.0612799557124  2.09059233449477 17.0612799557124  C 0.836236933797902 17.7410122248643  0.209059233449485 18.2847980401858  0.139372822299644 18.5566909478466  C 0.139372822299644 18.5566909478466  0 19.5083161246592  0 19.5083161246592  L 1.18466898954703 19.0325035362529  L 1.25435540069687 18.9645303093377  C 1.25435540069687 18.9645303093377  1.32404181184667 18.9645303093377  1.32404181184667 18.9645303093377  C 2.16027874564462 18.9645303093377  2.64808362369339 19.2364232169985  2.71777003484319 19.9161554861504  C 2.71777003484319 19.9161554861504  2.92682926829268 21.4115664782845  2.92682926829268 21.4115664782845  L 2.85714285714287 21.6154861590301  C 2.85714285714287 21.6154861590301  2.71777003484319 21.7514326128605  2.71777003484319 21.7514326128605  C 2.50871080139374 21.9553522936061  2.36933797909406 22.1592719743516  2.36933797909406 22.4311648820124  C 2.36933797909406 22.4311648820124  2.16027874564462 23.9945491010617  2.16027874564462 23.9945491010617  C 2.22996515679442 24.5383349163832  2.4390243902439 24.9461742778743  2.71777003484319 25.1500939586199  C 2.71777003484319 25.1500939586199  4.18118466898955 26.8494246314996  4.18118466898955 26.8494246314996  L 5.50522648083622 25.8298262277718  L 6.55052264808361 25.6938797739414  L 6.62020905923345 25.6938797739414  L 6.68989547038329 25.8298262277718  C 6.68989547038329 25.8298262277718  7.38675958188155 26.0337459085174  7.38675958188155 26.0337459085174  C 7.595818815331 26.0337459085174  7.80487804878048 25.9657726816022  8.01393728222997 25.7618530008566  C 8.01393728222997 25.7618530008566  8.64111498257838 24.8782010509591  8.64111498257838 24.8782010509591  C 8.64111498257838 24.8782010509591  8.50174216027874 24.3344152356377  8.50174216027874 24.3344152356377  C 8.64111498257838 24.1304955548921  8.85017421602787 23.9945491010617  9.1289198606272 23.8586026472313  C 9.1289198606272 23.8586026472313  10.801393728223 23.8586026472313  10.801393728223 23.8586026472313  C 11.0801393728223 23.9945491010617  11.2891986062718 23.9265758741465  11.2891986062718 23.7906294203161  C 11.4982578397213 23.3148168319098  11.7073170731707 23.1108971511643  11.9163763066202 22.9749506973339  C 12.1254355400697 22.9749506973339  12.4738675958188 23.042923924249  12.6829268292683 23.2468436049946  C 13.1707317073171 23.6546829664858  13.5191637630662 23.9945491010617  13.5191637630662 24.470361689468  C 13.5191637630662 24.470361689468  13.3797909407665 25.6938797739414  13.3797909407665 25.6938797739414  C 13.3797909407665 25.6938797739414  13.6585365853659 25.897799454687  13.6585365853659 25.897799454687  C 14.0766550522648 26.2376655892629  14.3554006968641 26.5775317238389  14.3554006968641 26.8494246314996  C 14.3554006968641 26.8494246314996  14.0766550522648 28.0729427159731  14.0766550522648 28.0729427159731  C 13.8675958188153 28.7526749851249  13.6585365853659 29.2284875735313  13.3797909407665 29.3644340273616  C 13.3797909407665 29.3644340273616  13.3797909407665 29.2964608004464  13.3797909407665 29.2964608004464  L 12.3344947735192 31.4716040617325  L 12.6829268292683 31.6075505155629  L 14.3554006968641 31.675523742478  L 14.7038327526133 31.8114701963084  C 14.7038327526133 31.8114701963084  14.5644599303136 32.0833631039692  14.5644599303136 32.0833631039692  C 14.3554006968641 32.7630953731211  14.2857142857143 33.2389079615274  14.3554006968641 33.5787740961033  C 14.9128919860627 33.9186402306793  15.2613240418118 34.1225599114249  15.4703832752613 33.9186402306793  C 15.4703832752613 33.9186402306793  16.4459930313589 33.5108008691882  16.4459930313589 33.5108008691882  L 16.9337979094077 33.3068811884426  L 17.8397212543554 33.3068811884426  L 18.7456445993031 32.3552560116299  C 18.7456445993031 32.3552560116299  18.7456445993031 31.1997111540717  18.7456445993031 31.1997111540717  C 18.6759581881533 30.7918717925806  18.7456445993031 30.5199788849198  18.8850174216028 30.3160592041743  C 19.1637630662021 30.1121395234287  19.7212543554007 30.1121395234287  20.5574912891986 30.587952111835  C 20.5574912891986 30.587952111835  22.2299651567944 31.6075505155629  22.2299651567944 31.6075505155629  C 22.787456445993 32.015389877054  23.205574912892 32.1513363308844  23.4843205574913 32.1513363308844  C 23.4843205574913 32.1513363308844  23.4843205574913 32.0833631039692  23.4843205574913 32.0833631039692  C 23.6236933797909 31.8114701963084  23.4843205574913 31.2676843809869  23.1358885017422 30.587952111835  C 23.1358885017422 30.587952111835  22.2299651567944 29.2284875735313  22.2299651567944 29.2284875735313  L 22.2299651567944 29.0925411197009  L 22.2996515679443 29.0925411197009  C 22.2996515679443 29.0925411197009  22.3693379790941 28.9565946658705  22.3693379790941 28.9565946658705  C 23.2752613240418 27.7330765813971  24.2508710801394 27.325237219906  25.3658536585366 27.7330765813971  C 25.3658536585366 27.7330765813971  27.9442508710802 28.8886214389553  27.9442508710802 28.8886214389553  L 28.9895470383275 28.2088891698034  L 29.0592334494774 28.2088891698034  L 29.0592334494774 28.1409159428882  L 29.0592334494774 28.0729427159731  L 28.9198606271777 27.9369962621427  L 28.9895470383275 27.8690230352275  C 28.9895470383275 27.8690230352275  29.0592334494774 27.7330765813971  29.0592334494774 27.7330765813971  C 29.8954703832753 26.3736120430933  30.1742160278746 25.3540136393655  29.8954703832753 24.810227824044  C 29.6864111498258 24.3344152356377  29.3379790940767 24.1304955548921  29.0592334494774 24.1304955548921  C 29.0592334494774 24.1304955548921  28.8501742160279 24.1304955548921  28.8501742160279 24.1304955548921  L 28.7108013937282 23.4507632857402  C 28.7108013937282 23.4507632857402  28.8501742160279 23.4507632857402  28.8501742160279 23.4507632857402  C 29.3379790940767 23.2468436049946  29.616724738676 23.042923924249  29.6864111498258 22.7710310165883  C 29.6864111498258 22.7710310165883  29.4773519163763 22.4311648820124  29.4773519163763 22.4311648820124  L 28.3623693379791 21.4115664782845  L 28.3623693379791 21.3435932513693  C 28.3623693379791 21.3435932513693  27.8048780487805 19.8481822592352  27.8048780487805 19.8481822592352  C 27.595818815331 18.692637401677  27.4564459930313 17.6730389979491  27.595818815331 16.7214138211365  C 27.595818815331 16.7214138211365  27.595818815331 16.0416815519846  27.595818815331 16.0416815519846  L 26.8989547038328 16.6534405942213  L 26.2717770034843 17.3331728633732  L 26.0627177700348 14.4782973329352  L 26.0627177700348 14.3423508791049  C 26.0627177700348 14.3423508791049  26.1324041811847 14.3423508791049  26.1324041811847 14.3423508791049  C 27.6655052264808 12.1672076178188  28.7108013937282 10.8757163064302  29.0592334494774 10.5358501718543  C 29.0592334494774 10.5358501718543  28.3623693379791 8.49665336439862  28.3623693379791 8.49665336439862  C 28.1533101045296 7.47705496067078  28.01393728223 6.8652959184341  28.01393728223 6.59340301077334  C 28.01393728223 6.59340301077334  26.7595818815331 6.04961719545182  26.7595818815331 6.04961719545182  Z " fill-rule="evenodd" />
    </mask>
  </defs>
  <g transform="matrix(1 0 0 1 -2001 -1923 )">
    <path d="M 26.7595818815331 6.04961719545182  L 26.1324041811847 5.84569751470626  L 26.2020905923345 5.77772428779106  L 26.0627177700348 5.77772428779106  L 26.0627177700348 5.64177783396069  L 25.5052264808363 4.62217943023286  L 25.4355400696864 4.55420620331767  L 25.4355400696864 4.41825974948728  C 25.4355400696864 4.41825974948728  25.5749128919861 2.78690230352276  25.5749128919861 2.78690230352276  C 25.5749128919861 2.58298262277719  25.3658536585366 2.37906294203161  24.9477351916376 2.10717003437087  C 24.9477351916376 2.10717003437087  24.5296167247387 2.10717003437087  24.5296167247387 2.10717003437087  L 23.8327526132404 2.92284875735313  L 23.7630662020906 2.92284875735313  L 22.020905923345 3.73852748033539  L 21.7421602787456 2.58298262277719  L 21.7421602787456 2.44703616894682  L 21.8815331010453 1.9032503536253  L 21.7421602787456 1.22351808447341  L 21.5331010452962 1.15554485755822  L 21.2543554006969 1.69933067287972  L 21.184668989547 1.69933067287972  L 21.184668989547 1.76730389979493  L 19.0243902439025 3.60258102650502  L 18.9547038327526 3.73852748033539  L 18.8850174216028 3.73852748033539  L 18.7456445993031 3.73852748033539  L 18.6062717770035 3.73852748033539  L 17.9790940766551 3.46663457267465  L 17.9094076655052 3.39866134575945  L 17.212543554007 2.78690230352276  L 16.0975609756098 2.37906294203161  L 16.0278745644599 2.31108971511643  L 15.3310104529617 1.83527712671011  L 13.0313588850174 1.35946453830378  L 12.9616724738676 1.35946453830378  L 11.4285714285714 0.611759042236704  L 11.4285714285714 0.679732269151889  L 10.2439024390244 0.135946453830389  L 8.71080139372823 0  L 8.15331010452961 0.0679732269152044  L 8.64111498257838 2.58298262277719  L 8.43205574912894 2.58298262277719  L 6.89895470383274 2.71892907660756  L 6.06271777003484 2.71892907660756  L 5.99303135888503 2.71892907660756  L 5.15679442508709 2.17514326128606  L 3.76306620209058 2.78690230352276  L 2.50871080139374 4.41825974948728  L 1.39372822299652 7.34110850684042  L 1.74216027874565 10.5358501718543  C 1.74216027874565 10.5358501718543  2.22996515679442 12.3711272985644  2.22996515679442 12.3711272985644  C 2.29965156794426 12.57504697931  2.29965156794426 12.6430202062252  2.22996515679442 12.7109934331403  C 2.22996515679442 12.7109934331403  2.02090592334493 12.7789666600555  2.02090592334493 12.7789666600555  C 1.6724738675958 12.9828863408011  1.53310104529616 13.4586989292074  1.602787456446 14.1384311983593  C 1.602787456446 14.1384311983593  2.29965156794426 16.925333501882  2.29965156794426 16.925333501882  C 2.29965156794426 16.925333501882  2.09059233449477 17.0612799557124  2.09059233449477 17.0612799557124  C 0.836236933797902 17.7410122248643  0.209059233449485 18.2847980401858  0.139372822299644 18.5566909478466  C 0.139372822299644 18.5566909478466  0 19.5083161246592  0 19.5083161246592  L 1.18466898954703 19.0325035362529  L 1.25435540069687 18.9645303093377  C 1.25435540069687 18.9645303093377  1.32404181184667 18.9645303093377  1.32404181184667 18.9645303093377  C 2.16027874564462 18.9645303093377  2.64808362369339 19.2364232169985  2.71777003484319 19.9161554861504  C 2.71777003484319 19.9161554861504  2.92682926829268 21.4115664782845  2.92682926829268 21.4115664782845  L 2.85714285714287 21.6154861590301  C 2.85714285714287 21.6154861590301  2.71777003484319 21.7514326128605  2.71777003484319 21.7514326128605  C 2.50871080139374 21.9553522936061  2.36933797909406 22.1592719743516  2.36933797909406 22.4311648820124  C 2.36933797909406 22.4311648820124  2.16027874564462 23.9945491010617  2.16027874564462 23.9945491010617  C 2.22996515679442 24.5383349163832  2.4390243902439 24.9461742778743  2.71777003484319 25.1500939586199  C 2.71777003484319 25.1500939586199  4.18118466898955 26.8494246314996  4.18118466898955 26.8494246314996  L 5.50522648083622 25.8298262277718  L 6.55052264808361 25.6938797739414  L 6.62020905923345 25.6938797739414  L 6.68989547038329 25.8298262277718  C 6.68989547038329 25.8298262277718  7.38675958188155 26.0337459085174  7.38675958188155 26.0337459085174  C 7.595818815331 26.0337459085174  7.80487804878048 25.9657726816022  8.01393728222997 25.7618530008566  C 8.01393728222997 25.7618530008566  8.64111498257838 24.8782010509591  8.64111498257838 24.8782010509591  C 8.64111498257838 24.8782010509591  8.50174216027874 24.3344152356377  8.50174216027874 24.3344152356377  C 8.64111498257838 24.1304955548921  8.85017421602787 23.9945491010617  9.1289198606272 23.8586026472313  C 9.1289198606272 23.8586026472313  10.801393728223 23.8586026472313  10.801393728223 23.8586026472313  C 11.0801393728223 23.9945491010617  11.2891986062718 23.9265758741465  11.2891986062718 23.7906294203161  C 11.4982578397213 23.3148168319098  11.7073170731707 23.1108971511643  11.9163763066202 22.9749506973339  C 12.1254355400697 22.9749506973339  12.4738675958188 23.042923924249  12.6829268292683 23.2468436049946  C 13.1707317073171 23.6546829664858  13.5191637630662 23.9945491010617  13.5191637630662 24.470361689468  C 13.5191637630662 24.470361689468  13.3797909407665 25.6938797739414  13.3797909407665 25.6938797739414  C 13.3797909407665 25.6938797739414  13.6585365853659 25.897799454687  13.6585365853659 25.897799454687  C 14.0766550522648 26.2376655892629  14.3554006968641 26.5775317238389  14.3554006968641 26.8494246314996  C 14.3554006968641 26.8494246314996  14.0766550522648 28.0729427159731  14.0766550522648 28.0729427159731  C 13.8675958188153 28.7526749851249  13.6585365853659 29.2284875735313  13.3797909407665 29.3644340273616  C 13.3797909407665 29.3644340273616  13.3797909407665 29.2964608004464  13.3797909407665 29.2964608004464  L 12.3344947735192 31.4716040617325  L 12.6829268292683 31.6075505155629  L 14.3554006968641 31.675523742478  L 14.7038327526133 31.8114701963084  C 14.7038327526133 31.8114701963084  14.5644599303136 32.0833631039692  14.5644599303136 32.0833631039692  C 14.3554006968641 32.7630953731211  14.2857142857143 33.2389079615274  14.3554006968641 33.5787740961033  C 14.9128919860627 33.9186402306793  15.2613240418118 34.1225599114249  15.4703832752613 33.9186402306793  C 15.4703832752613 33.9186402306793  16.4459930313589 33.5108008691882  16.4459930313589 33.5108008691882  L 16.9337979094077 33.3068811884426  L 17.8397212543554 33.3068811884426  L 18.7456445993031 32.3552560116299  C 18.7456445993031 32.3552560116299  18.7456445993031 31.1997111540717  18.7456445993031 31.1997111540717  C 18.6759581881533 30.7918717925806  18.7456445993031 30.5199788849198  18.8850174216028 30.3160592041743  C 19.1637630662021 30.1121395234287  19.7212543554007 30.1121395234287  20.5574912891986 30.587952111835  C 20.5574912891986 30.587952111835  22.2299651567944 31.6075505155629  22.2299651567944 31.6075505155629  C 22.787456445993 32.015389877054  23.205574912892 32.1513363308844  23.4843205574913 32.1513363308844  C 23.4843205574913 32.1513363308844  23.4843205574913 32.0833631039692  23.4843205574913 32.0833631039692  C 23.6236933797909 31.8114701963084  23.4843205574913 31.2676843809869  23.1358885017422 30.587952111835  C 23.1358885017422 30.587952111835  22.2299651567944 29.2284875735313  22.2299651567944 29.2284875735313  L 22.2299651567944 29.0925411197009  L 22.2996515679443 29.0925411197009  C 22.2996515679443 29.0925411197009  22.3693379790941 28.9565946658705  22.3693379790941 28.9565946658705  C 23.2752613240418 27.7330765813971  24.2508710801394 27.325237219906  25.3658536585366 27.7330765813971  C 25.3658536585366 27.7330765813971  27.9442508710802 28.8886214389553  27.9442508710802 28.8886214389553  L 28.9895470383275 28.2088891698034  L 29.0592334494774 28.2088891698034  L 29.0592334494774 28.1409159428882  L 29.0592334494774 28.0729427159731  L 28.9198606271777 27.9369962621427  L 28.9895470383275 27.8690230352275  C 28.9895470383275 27.8690230352275  29.0592334494774 27.7330765813971  29.0592334494774 27.7330765813971  C 29.8954703832753 26.3736120430933  30.1742160278746 25.3540136393655  29.8954703832753 24.810227824044  C 29.6864111498258 24.3344152356377  29.3379790940767 24.1304955548921  29.0592334494774 24.1304955548921  C 29.0592334494774 24.1304955548921  28.8501742160279 24.1304955548921  28.8501742160279 24.1304955548921  L 28.7108013937282 23.4507632857402  C 28.7108013937282 23.4507632857402  28.8501742160279 23.4507632857402  28.8501742160279 23.4507632857402  C 29.3379790940767 23.2468436049946  29.616724738676 23.042923924249  29.6864111498258 22.7710310165883  C 29.6864111498258 22.7710310165883  29.4773519163763 22.4311648820124  29.4773519163763 22.4311648820124  L 28.3623693379791 21.4115664782845  L 28.3623693379791 21.3435932513693  C 28.3623693379791 21.3435932513693  27.8048780487805 19.8481822592352  27.8048780487805 19.8481822592352  C 27.595818815331 18.692637401677  27.4564459930313 17.6730389979491  27.595818815331 16.7214138211365  C 27.595818815331 16.7214138211365  27.595818815331 16.0416815519846  27.595818815331 16.0416815519846  L 26.8989547038328 16.6534405942213  L 26.2717770034843 17.3331728633732  L 26.0627177700348 14.4782973329352  L 26.0627177700348 14.3423508791049  C 26.0627177700348 14.3423508791049  26.1324041811847 14.3423508791049  26.1324041811847 14.3423508791049  C 27.6655052264808 12.1672076178188  28.7108013937282 10.8757163064302  29.0592334494774 10.5358501718543  C 29.0592334494774 10.5358501718543  28.3623693379791 8.49665336439862  28.3623693379791 8.49665336439862  C 28.1533101045296 7.47705496067078  28.01393728223 6.8652959184341  28.01393728223 6.59340301077334  C 28.01393728223 6.59340301077334  26.7595818815331 6.04961719545182  26.7595818815331 6.04961719545182  Z " fill-rule="nonzero" fill="#4a9eff" stroke="none" transform="matrix(1 0 0 1 2001 1923 )" />
    <path d="M 26.7595818815331 6.04961719545182  L 26.1324041811847 5.84569751470626  L 26.2020905923345 5.77772428779106  L 26.0627177700348 5.77772428779106  L 26.0627177700348 5.64177783396069  L 25.5052264808363 4.62217943023286  L 25.4355400696864 4.55420620331767  L 25.4355400696864 4.41825974948728  C 25.4355400696864 4.41825974948728  25.5749128919861 2.78690230352276  25.5749128919861 2.78690230352276  C 25.5749128919861 2.58298262277719  25.3658536585366 2.37906294203161  24.9477351916376 2.10717003437087  C 24.9477351916376 2.10717003437087  24.5296167247387 2.10717003437087  24.5296167247387 2.10717003437087  L 23.8327526132404 2.92284875735313  L 23.7630662020906 2.92284875735313  L 22.020905923345 3.73852748033539  L 21.7421602787456 2.58298262277719  L 21.7421602787456 2.44703616894682  L 21.8815331010453 1.9032503536253  L 21.7421602787456 1.22351808447341  L 21.5331010452962 1.15554485755822  L 21.2543554006969 1.69933067287972  L 21.184668989547 1.69933067287972  L 21.184668989547 1.76730389979493  L 19.0243902439025 3.60258102650502  L 18.9547038327526 3.73852748033539  L 18.8850174216028 3.73852748033539  L 18.7456445993031 3.73852748033539  L 18.6062717770035 3.73852748033539  L 17.9790940766551 3.46663457267465  L 17.9094076655052 3.39866134575945  L 17.212543554007 2.78690230352276  L 16.0975609756098 2.37906294203161  L 16.0278745644599 2.31108971511643  L 15.3310104529617 1.83527712671011  L 13.0313588850174 1.35946453830378  L 12.9616724738676 1.35946453830378  L 11.4285714285714 0.611759042236704  L 11.4285714285714 0.679732269151889  L 10.2439024390244 0.135946453830389  L 8.71080139372823 0  L 8.15331010452961 0.0679732269152044  L 8.64111498257838 2.58298262277719  L 8.43205574912894 2.58298262277719  L 6.89895470383274 2.71892907660756  L 6.06271777003484 2.71892907660756  L 5.99303135888503 2.71892907660756  L 5.15679442508709 2.17514326128606  L 3.76306620209058 2.78690230352276  L 2.50871080139374 4.41825974948728  L 1.39372822299652 7.34110850684042  L 1.74216027874565 10.5358501718543  C 1.74216027874565 10.5358501718543  2.22996515679442 12.3711272985644  2.22996515679442 12.3711272985644  C 2.29965156794426 12.57504697931  2.29965156794426 12.6430202062252  2.22996515679442 12.7109934331403  C 2.22996515679442 12.7109934331403  2.02090592334493 12.7789666600555  2.02090592334493 12.7789666600555  C 1.6724738675958 12.9828863408011  1.53310104529616 13.4586989292074  1.602787456446 14.1384311983593  C 1.602787456446 14.1384311983593  2.29965156794426 16.925333501882  2.29965156794426 16.925333501882  C 2.29965156794426 16.925333501882  2.09059233449477 17.0612799557124  2.09059233449477 17.0612799557124  C 0.836236933797902 17.7410122248643  0.209059233449485 18.2847980401858  0.139372822299644 18.5566909478466  C 0.139372822299644 18.5566909478466  0 19.5083161246592  0 19.5083161246592  L 1.18466898954703 19.0325035362529  L 1.25435540069687 18.9645303093377  C 1.25435540069687 18.9645303093377  1.32404181184667 18.9645303093377  1.32404181184667 18.9645303093377  C 2.16027874564462 18.9645303093377  2.64808362369339 19.2364232169985  2.71777003484319 19.9161554861504  C 2.71777003484319 19.9161554861504  2.92682926829268 21.4115664782845  2.92682926829268 21.4115664782845  L 2.85714285714287 21.6154861590301  C 2.85714285714287 21.6154861590301  2.71777003484319 21.7514326128605  2.71777003484319 21.7514326128605  C 2.50871080139374 21.9553522936061  2.36933797909406 22.1592719743516  2.36933797909406 22.4311648820124  C 2.36933797909406 22.4311648820124  2.16027874564462 23.9945491010617  2.16027874564462 23.9945491010617  C 2.22996515679442 24.5383349163832  2.4390243902439 24.9461742778743  2.71777003484319 25.1500939586199  C 2.71777003484319 25.1500939586199  4.18118466898955 26.8494246314996  4.18118466898955 26.8494246314996  L 5.50522648083622 25.8298262277718  L 6.55052264808361 25.6938797739414  L 6.62020905923345 25.6938797739414  L 6.68989547038329 25.8298262277718  C 6.68989547038329 25.8298262277718  7.38675958188155 26.0337459085174  7.38675958188155 26.0337459085174  C 7.595818815331 26.0337459085174  7.80487804878048 25.9657726816022  8.01393728222997 25.7618530008566  C 8.01393728222997 25.7618530008566  8.64111498257838 24.8782010509591  8.64111498257838 24.8782010509591  C 8.64111498257838 24.8782010509591  8.50174216027874 24.3344152356377  8.50174216027874 24.3344152356377  C 8.64111498257838 24.1304955548921  8.85017421602787 23.9945491010617  9.1289198606272 23.8586026472313  C 9.1289198606272 23.8586026472313  10.801393728223 23.8586026472313  10.801393728223 23.8586026472313  C 11.0801393728223 23.9945491010617  11.2891986062718 23.9265758741465  11.2891986062718 23.7906294203161  C 11.4982578397213 23.3148168319098  11.7073170731707 23.1108971511643  11.9163763066202 22.9749506973339  C 12.1254355400697 22.9749506973339  12.4738675958188 23.042923924249  12.6829268292683 23.2468436049946  C 13.1707317073171 23.6546829664858  13.5191637630662 23.9945491010617  13.5191637630662 24.470361689468  C 13.5191637630662 24.470361689468  13.3797909407665 25.6938797739414  13.3797909407665 25.6938797739414  C 13.3797909407665 25.6938797739414  13.6585365853659 25.897799454687  13.6585365853659 25.897799454687  C 14.0766550522648 26.2376655892629  14.3554006968641 26.5775317238389  14.3554006968641 26.8494246314996  C 14.3554006968641 26.8494246314996  14.0766550522648 28.0729427159731  14.0766550522648 28.0729427159731  C 13.8675958188153 28.7526749851249  13.6585365853659 29.2284875735313  13.3797909407665 29.3644340273616  C 13.3797909407665 29.3644340273616  13.3797909407665 29.2964608004464  13.3797909407665 29.2964608004464  L 12.3344947735192 31.4716040617325  L 12.6829268292683 31.6075505155629  L 14.3554006968641 31.675523742478  L 14.7038327526133 31.8114701963084  C 14.7038327526133 31.8114701963084  14.5644599303136 32.0833631039692  14.5644599303136 32.0833631039692  C 14.3554006968641 32.7630953731211  14.2857142857143 33.2389079615274  14.3554006968641 33.5787740961033  C 14.9128919860627 33.9186402306793  15.2613240418118 34.1225599114249  15.4703832752613 33.9186402306793  C 15.4703832752613 33.9186402306793  16.4459930313589 33.5108008691882  16.4459930313589 33.5108008691882  L 16.9337979094077 33.3068811884426  L 17.8397212543554 33.3068811884426  L 18.7456445993031 32.3552560116299  C 18.7456445993031 32.3552560116299  18.7456445993031 31.1997111540717  18.7456445993031 31.1997111540717  C 18.6759581881533 30.7918717925806  18.7456445993031 30.5199788849198  18.8850174216028 30.3160592041743  C 19.1637630662021 30.1121395234287  19.7212543554007 30.1121395234287  20.5574912891986 30.587952111835  C 20.5574912891986 30.587952111835  22.2299651567944 31.6075505155629  22.2299651567944 31.6075505155629  C 22.787456445993 32.015389877054  23.205574912892 32.1513363308844  23.4843205574913 32.1513363308844  C 23.4843205574913 32.1513363308844  23.4843205574913 32.0833631039692  23.4843205574913 32.0833631039692  C 23.6236933797909 31.8114701963084  23.4843205574913 31.2676843809869  23.1358885017422 30.587952111835  C 23.1358885017422 30.587952111835  22.2299651567944 29.2284875735313  22.2299651567944 29.2284875735313  L 22.2299651567944 29.0925411197009  L 22.2996515679443 29.0925411197009  C 22.2996515679443 29.0925411197009  22.3693379790941 28.9565946658705  22.3693379790941 28.9565946658705  C 23.2752613240418 27.7330765813971  24.2508710801394 27.325237219906  25.3658536585366 27.7330765813971  C 25.3658536585366 27.7330765813971  27.9442508710802 28.8886214389553  27.9442508710802 28.8886214389553  L 28.9895470383275 28.2088891698034  L 29.0592334494774 28.2088891698034  L 29.0592334494774 28.1409159428882  L 29.0592334494774 28.0729427159731  L 28.9198606271777 27.9369962621427  L 28.9895470383275 27.8690230352275  C 28.9895470383275 27.8690230352275  29.0592334494774 27.7330765813971  29.0592334494774 27.7330765813971  C 29.8954703832753 26.3736120430933  30.1742160278746 25.3540136393655  29.8954703832753 24.810227824044  C 29.6864111498258 24.3344152356377  29.3379790940767 24.1304955548921  29.0592334494774 24.1304955548921  C 29.0592334494774 24.1304955548921  28.8501742160279 24.1304955548921  28.8501742160279 24.1304955548921  L 28.7108013937282 23.4507632857402  C 28.7108013937282 23.4507632857402  28.8501742160279 23.4507632857402  28.8501742160279 23.4507632857402  C 29.3379790940767 23.2468436049946  29.616724738676 23.042923924249  29.6864111498258 22.7710310165883  C 29.6864111498258 22.7710310165883  29.4773519163763 22.4311648820124  29.4773519163763 22.4311648820124  L 28.3623693379791 21.4115664782845  L 28.3623693379791 21.3435932513693  C 28.3623693379791 21.3435932513693  27.8048780487805 19.8481822592352  27.8048780487805 19.8481822592352  C 27.595818815331 18.692637401677  27.4564459930313 17.6730389979491  27.595818815331 16.7214138211365  C 27.595818815331 16.7214138211365  27.595818815331 16.0416815519846  27.595818815331 16.0416815519846  L 26.8989547038328 16.6534405942213  L 26.2717770034843 17.3331728633732  L 26.0627177700348 14.4782973329352  L 26.0627177700348 14.3423508791049  C 26.0627177700348 14.3423508791049  26.1324041811847 14.3423508791049  26.1324041811847 14.3423508791049  C 27.6655052264808 12.1672076178188  28.7108013937282 10.8757163064302  29.0592334494774 10.5358501718543  C 29.0592334494774 10.5358501718543  28.3623693379791 8.49665336439862  28.3623693379791 8.49665336439862  C 28.1533101045296 7.47705496067078  28.01393728223 6.8652959184341  28.01393728223 6.59340301077334  C 28.01393728223 6.59340301077334  26.7595818815331 6.04961719545182  26.7595818815331 6.04961719545182  Z " stroke-width="2" stroke="#ffffff" fill="none" transform="matrix(1 0 0 1 2001 1923 )" mask="url(#clip213)" />
  </g>
</svg>