<?xml version="1.0" encoding="utf-8"?>
<svg version="1.1" xmlns:xlink="http://www.w3.org/1999/xlink" width="11px" height="13px" xmlns="http://www.w3.org/2000/svg">
  <g transform="matrix(1 0 0 1 -220 -1718 )">
    <path d="M 1.94117647058824 0  C 1.94117647058824 0  9.05882352941176 0  9.05882352941176 0  C 10.130905690848 0  11 0.873044737829934  11 1.94999999999998  C 11 1.94999999999998  11 11.05  11 11.05  C 11 12.1269552621701  10.130905690848 13  9.05882352941176 13  C 9.05882352941176 13  1.94117647058824 13  1.94117647058824 13  C 0.86909430915199 13  0 12.1269552621701  0 11.05  C 0 11.05  0 1.94999999999998  0 1.94999999999998  C 0 0.873044737829935  0.869094309151989 0  1.94117647058824 0  Z " fill-rule="nonzero" fill="#c9ced6" stroke="none" transform="matrix(1 0 0 1 220 1718 )" />
  </g>
</svg>