<?xml version="1.0" encoding="utf-8"?>
<svg version="1.1" xmlns:xlink="http://www.w3.org/1999/xlink" width="9px" height="22px" xmlns="http://www.w3.org/2000/svg">
  <defs>
    <mask fill="white" id="clip380">
      <path d="M 9 0.962500000000024  C 9 0.962500000000024  6.81818181818182 0  6.81818181818182 0  C 4.63636363636365 1.58125000000001  3.06818181818182 3.57500000000003  2.04545454545455 5.98125000000003  C 1.1590909090909 8.04375000000003  0.47727272727272 9.07500000000003  0 9.35000000000002  C 0 9.35000000000002  0.47727272727272 13.13125  0.47727272727272 13.13125  L 0.47727272727272 13.2  C 0.47727272727272 13.2  0.136363636363629 15.8125  0.136363636363629 15.8125  C 0 16.6375  0.136363636363629 17.1875  0.340909090909091 17.325  C 0.340909090909091 17.325  3.13636363636365 19.18125  3.13636363636365 19.18125  L 3.20454545454545 19.18125  C 3.20454545454545 19.18125  3.27272727272728 19.3875  3.27272727272728 19.3875  C 3.40909090909091 20.00625  3.81818181818184 20.55625  4.36363636363635 21.24375  C 4.63636363636365 21.65625  4.97727272727274 21.8625  5.25 22  C 5.25 22  5.65909090909092 17.4625  5.65909090909092 17.4625  L 5.65909090909092 17.325  L 7.63636363636364 12.5125  L 8.31818181818182 6.80625000000002  L 8.31818181818182 6.73750000000001  L 8.38636363636365 6.66875000000003  L 9 5.15625  L 8.52272727272728 3.85000000000002  L 8.52272727272728 3.78125  L 8.45454545454545 3.78125  L 8.31818181818182 1.99375000000002  L 8.38636363636365 1.92500000000001  L 8.45454545454545 1.85625000000003  L 8.79545454545454 1.44375000000002  L 9 0.962500000000024  Z " fill-rule="evenodd" />
    </mask>
  </defs>
  <g transform="matrix(1 0 0 1 -2065 -1948 )">
    <path d="M 9 0.962500000000024  C 9 0.962500000000024  6.81818181818182 0  6.81818181818182 0  C 4.63636363636365 1.58125000000001  3.06818181818182 3.57500000000003  2.04545454545455 5.98125000000003  C 1.1590909090909 8.04375000000003  0.47727272727272 9.07500000000003  0 9.35000000000002  C 0 9.35000000000002  0.47727272727272 13.13125  0.47727272727272 13.13125  L 0.47727272727272 13.2  C 0.47727272727272 13.2  0.136363636363629 15.8125  0.136363636363629 15.8125  C 0 16.6375  0.136363636363629 17.1875  0.340909090909091 17.325  C 0.340909090909091 17.325  3.13636363636365 19.18125  3.13636363636365 19.18125  L 3.20454545454545 19.18125  C 3.20454545454545 19.18125  3.27272727272728 19.3875  3.27272727272728 19.3875  C 3.40909090909091 20.00625  3.81818181818184 20.55625  4.36363636363635 21.24375  C 4.63636363636365 21.65625  4.97727272727274 21.8625  5.25 22  C 5.25 22  5.65909090909092 17.4625  5.65909090909092 17.4625  L 5.65909090909092 17.325  L 7.63636363636364 12.5125  L 8.31818181818182 6.80625000000002  L 8.31818181818182 6.73750000000001  L 8.38636363636365 6.66875000000003  L 9 5.15625  L 8.52272727272728 3.85000000000002  L 8.52272727272728 3.78125  L 8.45454545454545 3.78125  L 8.31818181818182 1.99375000000002  L 8.38636363636365 1.92500000000001  L 8.45454545454545 1.85625000000003  L 8.79545454545454 1.44375000000002  L 9 0.962500000000024  Z " fill-rule="nonzero" fill="#4a9eff" stroke="none" transform="matrix(1 0 0 1 2065 1948 )" />
    <path d="M 9 0.962500000000024  C 9 0.962500000000024  6.81818181818182 0  6.81818181818182 0  C 4.63636363636365 1.58125000000001  3.06818181818182 3.57500000000003  2.04545454545455 5.98125000000003  C 1.1590909090909 8.04375000000003  0.47727272727272 9.07500000000003  0 9.35000000000002  C 0 9.35000000000002  0.47727272727272 13.13125  0.47727272727272 13.13125  L 0.47727272727272 13.2  C 0.47727272727272 13.2  0.136363636363629 15.8125  0.136363636363629 15.8125  C 0 16.6375  0.136363636363629 17.1875  0.340909090909091 17.325  C 0.340909090909091 17.325  3.13636363636365 19.18125  3.13636363636365 19.18125  L 3.20454545454545 19.18125  C 3.20454545454545 19.18125  3.27272727272728 19.3875  3.27272727272728 19.3875  C 3.40909090909091 20.00625  3.81818181818184 20.55625  4.36363636363635 21.24375  C 4.63636363636365 21.65625  4.97727272727274 21.8625  5.25 22  C 5.25 22  5.65909090909092 17.4625  5.65909090909092 17.4625  L 5.65909090909092 17.325  L 7.63636363636364 12.5125  L 8.31818181818182 6.80625000000002  L 8.31818181818182 6.73750000000001  L 8.38636363636365 6.66875000000003  L 9 5.15625  L 8.52272727272728 3.85000000000002  L 8.52272727272728 3.78125  L 8.45454545454545 3.78125  L 8.31818181818182 1.99375000000002  L 8.38636363636365 1.92500000000001  L 8.45454545454545 1.85625000000003  L 8.79545454545454 1.44375000000002  L 9 0.962500000000024  Z " stroke-width="2" stroke="#ffffff" fill="none" transform="matrix(1 0 0 1 2065 1948 )" mask="url(#clip380)" />
  </g>
</svg>