<?xml version="1.0" encoding="utf-8"?>
<svg version="1.1" xmlns:xlink="http://www.w3.org/1999/xlink" width="62px" height="56px" xmlns="http://www.w3.org/2000/svg">
  <defs>
    <mask fill="white" id="clip590">
      <path d="M 60.8107973960365 32.1577335375192  L 59.7927594932011 25.5543644716692  L 59.8606286867234 25.4196018376723  C 59.8606286867234 25.4196018376723  59.9284978802458 25.4196018376723  59.9284978802458 25.4196018376723  C 60.4035822349023 24.6784073506891  60.6750590089918 24.0719754977029  60.5393206219471 23.6003062787136  C 60.5393206219471 23.6003062787136  60.2678438478576 23.1960183767228  60.2678438478576 23.1960183767228  C 59.5212827191116 22.7243491577335  59.1819367514998 21.646248085758  59.3855443320669 19.8269525267994  C 59.3855443320669 19.8269525267994  58.7747215903656 19.8269525267994  58.7747215903656 19.8269525267994  C 58.2996372357091 19.7595712098009  57.7566836875302 19.9617151607963  57.2137301393513 20.2986217457887  C 56.6707765911724 20.7029096477795  56.3314306235606 21.1745788667688  56.2635614300382 21.5114854517611  C 55.9920846559488 22.3200612557427  55.1097851401581 22.8591117917305  53.6166628826661 23.3307810107198  C 53.6166628826661 23.3307810107198  53.2773169150543 25.4196018376723  53.2773169150543 25.4196018376723  L 53.2773169150543 25.4869831546708  L 53.2094477215319 25.5543644716692  L 52.4628865927859 26.9019908116386  L 52.3950173992636 27.0367534456355  L 52.3271482057412 27.0367534456355  L 52.2592790122188 27.0367534456355  L 45.540228853505 28.249617151608  L 45.4723596599826 28.249617151608  L 45.2687520794156 28.249617151608  L 45.2687520794156 28.114854517611  L 43.300545467267 26.0260336906585  L 43.9113682089683 25.4196018376723  L 43.1648070802223 24.4088820826953  L 42.2146383709093 23.7350689127106  L 42.1467691773869 23.6676875957121  L 42.0788999838645 23.6676875957121  L 42.0788999838645 23.6003062787136  L 42.0788999838645 23.5329249617152  L 41.7395540162527 21.7136294027565  L 39.9749549846713 21.8483920367535  L 39.8392165976266 21.7136294027565  L 38.3460943401346 20.8376722817764  L 32.984428051868 19.8943338437979  L 28.5050612793921 19.6921898928025  C 28.5050612793921 19.6921898928025  28.3693228923474 19.8269525267994  28.3693228923474 19.8269525267994  C 28.1657153117803 19.8269525267994  28.0299769247356 19.7595712098009  27.9621077312132 19.624808575804  C 27.9621077312132 19.624808575804  25.3830783773635 13.8300153139357  25.3830783773635 13.8300153139357  C 25.111601603274 13.3583460949464  24.0256945069162 11.8759571209801  21.8538803142006 9.31546707503829  C 19.8178045085298 6.82235834609495  18.6640282186496 5.47473200612558  18.3246822510378 5.2052067381317  C 18.3246822510378 5.2052067381317  14.5240074137855 1.49923430321593  14.5240074137855 1.49923430321593  L 13.9131846720842 1.16232771822358  L 9.16234112551889 1.09494640122511  L 9.09447193199655 1.09494640122511  C 9.09447193199655 1.09494640122511  8.95873354495184 0.960183767228178  8.95873354495184 0.960183767228178  C 8.48364919029526 0.623277182235835  7.80495725507164 0.286370597243492  6.78691935223621 0.0842266462480858  C 5.90461983644554 -0.252679938744257  3.86854403077467 0.421133231240429  0.678691935223621 2.10566615620214  C 0.678691935223621 2.10566615620214  0.542953548178905 2.17304747320061  0.542953548178905 2.17304747320061  L 0.678691935223621 3.11638591117917  L 0.746561128745999 3.11638591117917  L 0.746561128745999 3.18376722817764  L 0.678691935223621 3.18376722817764  L 0.678691935223621 3.31852986217458  L 0.135738387044755 4.39663093415008  L 0.135738387044755 4.46401225114855  L 0.0678691935223776 4.46401225114855  C 0.0678691935223776 4.46401225114855  0 5.2052067381317  0 5.2052067381317  C 0 5.81163859111792  0.135738387044755 6.48545176110261  0.339345967611811 7.02450229709036  C 0.339345967611811 7.02450229709036  0.814430322268376 7.3614088820827  0.814430322268376 7.3614088820827  L 1.83246822510381 7.29402756508423  L 2.71476774089449 7.49617151607963  C 2.71476774089449 7.49617151607963  3.0541137085063 7.22664624808576  3.0541137085063 7.22664624808576  C 3.0541137085063 6.62021439509954  3.25772128907339 6.14854517611026  3.52919806316286 6.01378254211332  C 3.52919806316286 6.01378254211332  4.20788999838648 6.01378254211332  4.20788999838648 6.01378254211332  L 6.58331177166916 6.68759571209801  L 7.12626531984802 6.75497702909648  L 6.37970419110206 8.03522205206738  C 6.37970419110206 8.03522205206738  6.37970419110206 9.58499234303216  6.37970419110206 9.58499234303216  C 6.37970419110206 9.9218989280245  6.99052693280331 10.7304747320061  8.21217241620583 11.8759571209801  C 8.95873354495184 12.4150076569678  9.43381789960836 12.6845329249617  9.84103306074251 12.7519142419602  C 9.84103306074251 12.7519142419602  10.1803790283543 12.6845329249617  10.1803790283543 12.6845329249617  L 10.5197249959661 12.5497702909648  L 11.6735012858463 11.4042879019908  L 12.555800801637 10.8652373660031  L 12.555800801637 10.7978560490046  L 14.3882690267408 10.5283307810107  L 14.9312225749197 9.38284839203676  L 16.5600832194564 8.43950995405819  L 17.985336283426 9.24808575803982  L 17.985336283426 9.31546707503829  L 18.1210746704707 9.38284839203676  L 19.478458540918 11.6738131699847  L 20.0214120890968 13.2235834609495  L 20.0214120890968 13.4257274119449  L 19.7499353150074 15.312404287902  L 20.2928888631863 16.5926493108729  L 20.2928888631863 16.7947932618683  L 19.8856737020521 18.2771822358346  C 19.8856737020521 18.2771822358346  19.8856737020521 19.624808575804  19.8856737020521 19.624808575804  C 20.2928888631863 20.8376722817764  20.4964964437534 21.646248085758  20.4964964437534 21.8483920367535  C 20.4964964437534 21.8483920367535  20.3607580567086 22.9938744257274  20.3607580567086 22.9938744257274  L 20.3607580567086 23.0612557427259  L 19.682066121485 24.0045941807045  L 19.682066121485 24.0719754977029  L 19.0033741862614 24.8805513016845  L 18.9355049927391 26.3629402756508  L 19.3427201538732 27.9127105666156  L 19.4105893473956 27.9800918836141  L 19.3427201538732 28.0474732006126  L 18.9355049927391 30.405819295559  C 18.9355049927391 30.405819295559  18.5961590251273 30.7427258805513  18.5961590251273 30.7427258805513  C 18.3246822510378 30.9448698315467  17.985336283426 30.9448698315467  17.5781211222918 30.7427258805513  C 17.5781211222918 30.7427258805513  17.4423827352471 30.7427258805513  17.4423827352471 30.7427258805513  L 16.8315599935458 30.0689127105666  L 16.1528680583222 30.271056661562  L 15.2705685425315 31.2143950995406  L 14.3203998332184 33.9770290964778  L 14.3203998332184 34.0444104134763  L 14.252530639696 34.1117917304747  L 13.302361930383 34.9203675344564  L 13.1666235433383 34.9203675344564  L 12.6236699951594 34.9877488514548  L 11.5377628988016 36.5375191424196  L 12.0807164469805 37.5482388973966  L 12.2164548340252 37.6830015313936  L 13.5738387044724 39.3675344563553  L 13.5738387044724 39.4349157733538  L 13.5738387044724 39.9739663093415  L 15.0669609619644 40.1761102603369  L 15.3384377360539 41.5237366003063  L 15.3384377360539 41.5911179173048  L 15.5420453166209 43.208269525268  L 15.9492604777551 43.5451761102604  L 17.3066443482023 43.1408882082695  L 18.5961590251273 42.3996937212864  L 18.7997666056943 42.2649310872894  L 19.2748509603509 44.5558958652374  L 19.8856737020521 45.4318529862175  L 20.0214120890968 45.4992343032159  L 20.4964964437534 46.4425727411945  C 20.4964964437534 46.4425727411945  21.5145343465888 47.2511485451761  21.5145343465888 47.2511485451761  C 21.6502727336335 47.4532924961715  21.9896187012454 47.4532924961715  22.3289646688572 47.4532924961715  C 22.3289646688572 47.4532924961715  22.668310636469 47.52067381317  22.668310636469 47.52067381317  C 22.668310636469 47.52067381317  23.2791333781702 47.2511485451761  23.2791333781702 47.2511485451761  C 23.7542177328267 47.0490045941807  24.2293020874833 46.8468606431853  24.7722556356622 46.7794793261868  C 24.7722556356622 46.7794793261868  25.1794707967964 46.5773353751914  25.1794707967964 46.5773353751914  C 25.1794707967964 46.5773353751914  26.1296395061094 46.509954058193  26.1296395061094 46.509954058193  C 26.4689854737212 46.509954058193  26.604723860766 46.5773353751914  26.808331441333 46.7794793261868  C 26.808331441333 46.7794793261868  28.1657153117803 45.9035222052067  28.1657153117803 45.9035222052067  L 28.301453698825 45.9035222052067  L 28.4371920858698 45.9709035222052  L 28.5050612793921 45.9035222052067  C 28.5050612793921 45.9035222052067  28.6407996664369 46.0382848392037  28.6407996664369 46.0382848392037  C 29.1837532146157 46.6447166921899  29.4552299887052 47.1837672281776  29.4552299887052 47.4532924961715  C 29.4552299887052 47.4532924961715  30.0660527304064 48.4640122511486  30.0660527304064 48.4640122511486  L 30.541137085063 48.5987748851455  L 30.6090062785853 48.5987748851455  L 30.6768754721077 48.5987748851455  C 30.6768754721077 48.5987748851455  30.541137085063 48.4640122511486  30.541137085063 48.4640122511486  C 30.4732678915406 48.1271056661562  30.4732678915406 47.9249617151608  30.541137085063 47.7901990811639  C 30.6768754721077 47.5880551301685  30.9483522461971 47.4532924961715  31.3555674073313 47.4532924961715  C 31.3555674073313 47.4532924961715  33.8667275676587 47.3859111791731  33.8667275676587 47.3859111791731  L 33.9345967611811 47.3185298621746  L 34.0703351482258 47.3185298621746  L 34.0703351482258 47.4532924961715  L 34.2060735352705 47.4532924961715  L 34.9526346640165 48.8683001531394  L 34.8847654704942 49.6094946401225  L 34.8168962769718 49.6094946401225  L 35.7670649862849 49.8116385911179  C 35.7670649862849 49.8116385911179  35.8349341798072 49.8116385911179  35.8349341798072 49.8116385911179  C 35.7670649862849 49.6094946401225  35.7670649862849 49.4747320061256  35.9028033733296 49.3399693721286  C 35.9028033733296 49.3399693721286  36.2421493409414 49.2725880551302  36.2421493409414 49.2725880551302  C 36.2421493409414 49.2725880551302  38.4818327271794 50.822358346095  38.4818327271794 50.822358346095  C 38.6854403077464 51.0245022970904  38.8211786947912 51.2940275650842  38.8890478883135 51.6309341500766  C 38.8890478883135 51.6309341500766  38.9569170818359 52.5742725880551  38.9569170818359 52.5742725880551  L 39.7034782105818 52.7090352220521  C 39.7034782105818 52.7090352220521  40.1785625652384 51.9004594180704  40.1785625652384 51.9004594180704  C 39.9749549846713 51.4961715160796  39.8392165976266 51.0918836140888  39.9070857911489 50.822358346095  C 39.9749549846713 50.5528330781011  40.0428241781936 50.3506891271057  40.3143009522831 50.2159264931087  C 40.3143009522831 50.2159264931087  40.5179085328502 50.0137825421133  40.5179085328502 50.0137825421133  C 40.5179085328502 49.8790199081164  40.5857777263726 49.8116385911179  40.7215161134173 49.7442572741194  C 40.7215161134173 49.7442572741194  41.3323388551186 49.8116385911179  41.3323388551186 49.8116385911179  C 41.6716848227304 50.0137825421133  41.9431615968198 50.687595712098  42.0788999838645 51.833078101072  C 42.0788999838645 51.833078101072  42.0788999838645 51.9678407350689  42.0788999838645 51.9678407350689  C 42.0788999838645 51.9678407350689  42.2146383709093 52.0352220520674  42.2146383709093 52.0352220520674  C 42.2825075644316 52.3047473200613  42.6897227255658 52.5068912710567  43.300545467267 52.7090352220521  C 43.300545467267 52.7090352220521  43.3684146607894 52.7090352220521  43.3684146607894 52.7090352220521  L 43.4362838543118 52.7764165390505  L 45.6080980470274 55  L 46.6261359498628 54.6630934150077  C 46.6261359498628 54.6630934150077  46.4903975628181 54.3261868300153  46.4903975628181 54.3261868300153  C 46.2189207887286 53.989280245023  46.1510515952062 53.6523736600306  46.1510515952062 53.4502297090352  C 46.1510515952062 52.978560490046  46.4903975628181 52.5068912710567  47.1690894980417 52.0352220520674  C 47.1690894980417 52.0352220520674  48.3228657879219 51.0245022970904  48.3228657879219 51.0245022970904  L 49.6802496583691 51.9678407350689  L 49.9517264324586 51.9678407350689  L 50.223203206548 50.4854517611026  L 50.223203206548 50.2159264931087  L 50.4946799806375 50.1485451761103  C 50.4946799806375 50.1485451761103  51.5805870769952 50.2833078101072  51.5805870769952 50.2833078101072  C 51.7841946575623 50.4854517611026  51.919933044607 50.687595712098  51.919933044607 51.0245022970904  C 51.919933044607 51.2940275650842  51.71632546404 51.6309341500766  51.5127178834729 51.9004594180704  C 51.5127178834729 51.9004594180704  51.71632546404 52.0352220520674  51.71632546404 52.0352220520674  C 52.3950173992636 52.3721286370597  52.9379709474425 52.6416539050536  53.3451861085766 52.7090352220521  C 53.3451861085766 52.7090352220521  53.413055302099 52.7090352220521  53.413055302099 52.7090352220521  L 54.2953548178897 53.1807044410414  L 54.9740467531133 53.1133231240429  C 54.9740467531133 53.1133231240429  53.9560088502779 48.1944869831547  53.9560088502779 48.1944869831547  C 53.2773169150543 47.7901990811639  52.666494173353 46.9816232771822  52.0556714316518 46.0382848392037  C 51.5805870769952 45.2297090352221  51.8520638510847 44.0842266462481  52.9379709474425 42.7366003062787  C 53.5487936891437 42.062787136294  54.2953548178897 41.3889739663094  55.1097851401581 40.7151607963247  C 55.1097851401581 40.7151607963247  55.1776543336804 40.5803981623277  55.1776543336804 40.5803981623277  L 56.1278230429935 40.5803981623277  L 56.1956922365159 40.7151607963247  L 57.0101225587842 41.052067381317  C 57.0101225587842 41.052067381317  58.7068523968432 41.052067381317  58.7068523968432 41.052067381317  C 59.3855443320669 40.7151607963247  59.9963670737681 39.7044410413476  60.6750590089918 38.0872894333844  C 61.0822741701259 37.1439509954058  61.0822741701259 35.1898928024502  60.8107973960365 32.1577335375192  Z " fill-rule="evenodd" />
    </mask>
  </defs>
  <g transform="matrix(1 0 0 1 -2041 -1770 )">
    <path d="M 60.8107973960365 32.1577335375192  L 59.7927594932011 25.5543644716692  L 59.8606286867234 25.4196018376723  C 59.8606286867234 25.4196018376723  59.9284978802458 25.4196018376723  59.9284978802458 25.4196018376723  C 60.4035822349023 24.6784073506891  60.6750590089918 24.0719754977029  60.5393206219471 23.6003062787136  C 60.5393206219471 23.6003062787136  60.2678438478576 23.1960183767228  60.2678438478576 23.1960183767228  C 59.5212827191116 22.7243491577335  59.1819367514998 21.646248085758  59.3855443320669 19.8269525267994  C 59.3855443320669 19.8269525267994  58.7747215903656 19.8269525267994  58.7747215903656 19.8269525267994  C 58.2996372357091 19.7595712098009  57.7566836875302 19.9617151607963  57.2137301393513 20.2986217457887  C 56.6707765911724 20.7029096477795  56.3314306235606 21.1745788667688  56.2635614300382 21.5114854517611  C 55.9920846559488 22.3200612557427  55.1097851401581 22.8591117917305  53.6166628826661 23.3307810107198  C 53.6166628826661 23.3307810107198  53.2773169150543 25.4196018376723  53.2773169150543 25.4196018376723  L 53.2773169150543 25.4869831546708  L 53.2094477215319 25.5543644716692  L 52.4628865927859 26.9019908116386  L 52.3950173992636 27.0367534456355  L 52.3271482057412 27.0367534456355  L 52.2592790122188 27.0367534456355  L 45.540228853505 28.249617151608  L 45.4723596599826 28.249617151608  L 45.2687520794156 28.249617151608  L 45.2687520794156 28.114854517611  L 43.300545467267 26.0260336906585  L 43.9113682089683 25.4196018376723  L 43.1648070802223 24.4088820826953  L 42.2146383709093 23.7350689127106  L 42.1467691773869 23.6676875957121  L 42.0788999838645 23.6676875957121  L 42.0788999838645 23.6003062787136  L 42.0788999838645 23.5329249617152  L 41.7395540162527 21.7136294027565  L 39.9749549846713 21.8483920367535  L 39.8392165976266 21.7136294027565  L 38.3460943401346 20.8376722817764  L 32.984428051868 19.8943338437979  L 28.5050612793921 19.6921898928025  C 28.5050612793921 19.6921898928025  28.3693228923474 19.8269525267994  28.3693228923474 19.8269525267994  C 28.1657153117803 19.8269525267994  28.0299769247356 19.7595712098009  27.9621077312132 19.624808575804  C 27.9621077312132 19.624808575804  25.3830783773635 13.8300153139357  25.3830783773635 13.8300153139357  C 25.111601603274 13.3583460949464  24.0256945069162 11.8759571209801  21.8538803142006 9.31546707503829  C 19.8178045085298 6.82235834609495  18.6640282186496 5.47473200612558  18.3246822510378 5.2052067381317  C 18.3246822510378 5.2052067381317  14.5240074137855 1.49923430321593  14.5240074137855 1.49923430321593  L 13.9131846720842 1.16232771822358  L 9.16234112551889 1.09494640122511  L 9.09447193199655 1.09494640122511  C 9.09447193199655 1.09494640122511  8.95873354495184 0.960183767228178  8.95873354495184 0.960183767228178  C 8.48364919029526 0.623277182235835  7.80495725507164 0.286370597243492  6.78691935223621 0.0842266462480858  C 5.90461983644554 -0.252679938744257  3.86854403077467 0.421133231240429  0.678691935223621 2.10566615620214  C 0.678691935223621 2.10566615620214  0.542953548178905 2.17304747320061  0.542953548178905 2.17304747320061  L 0.678691935223621 3.11638591117917  L 0.746561128745999 3.11638591117917  L 0.746561128745999 3.18376722817764  L 0.678691935223621 3.18376722817764  L 0.678691935223621 3.31852986217458  L 0.135738387044755 4.39663093415008  L 0.135738387044755 4.46401225114855  L 0.0678691935223776 4.46401225114855  C 0.0678691935223776 4.46401225114855  0 5.2052067381317  0 5.2052067381317  C 0 5.81163859111792  0.135738387044755 6.48545176110261  0.339345967611811 7.02450229709036  C 0.339345967611811 7.02450229709036  0.814430322268376 7.3614088820827  0.814430322268376 7.3614088820827  L 1.83246822510381 7.29402756508423  L 2.71476774089449 7.49617151607963  C 2.71476774089449 7.49617151607963  3.0541137085063 7.22664624808576  3.0541137085063 7.22664624808576  C 3.0541137085063 6.62021439509954  3.25772128907339 6.14854517611026  3.52919806316286 6.01378254211332  C 3.52919806316286 6.01378254211332  4.20788999838648 6.01378254211332  4.20788999838648 6.01378254211332  L 6.58331177166916 6.68759571209801  L 7.12626531984802 6.75497702909648  L 6.37970419110206 8.03522205206738  C 6.37970419110206 8.03522205206738  6.37970419110206 9.58499234303216  6.37970419110206 9.58499234303216  C 6.37970419110206 9.9218989280245  6.99052693280331 10.7304747320061  8.21217241620583 11.8759571209801  C 8.95873354495184 12.4150076569678  9.43381789960836 12.6845329249617  9.84103306074251 12.7519142419602  C 9.84103306074251 12.7519142419602  10.1803790283543 12.6845329249617  10.1803790283543 12.6845329249617  L 10.5197249959661 12.5497702909648  L 11.6735012858463 11.4042879019908  L 12.555800801637 10.8652373660031  L 12.555800801637 10.7978560490046  L 14.3882690267408 10.5283307810107  L 14.9312225749197 9.38284839203676  L 16.5600832194564 8.43950995405819  L 17.985336283426 9.24808575803982  L 17.985336283426 9.31546707503829  L 18.1210746704707 9.38284839203676  L 19.478458540918 11.6738131699847  L 20.0214120890968 13.2235834609495  L 20.0214120890968 13.4257274119449  L 19.7499353150074 15.312404287902  L 20.2928888631863 16.5926493108729  L 20.2928888631863 16.7947932618683  L 19.8856737020521 18.2771822358346  C 19.8856737020521 18.2771822358346  19.8856737020521 19.624808575804  19.8856737020521 19.624808575804  C 20.2928888631863 20.8376722817764  20.4964964437534 21.646248085758  20.4964964437534 21.8483920367535  C 20.4964964437534 21.8483920367535  20.3607580567086 22.9938744257274  20.3607580567086 22.9938744257274  L 20.3607580567086 23.0612557427259  L 19.682066121485 24.0045941807045  L 19.682066121485 24.0719754977029  L 19.0033741862614 24.8805513016845  L 18.9355049927391 26.3629402756508  L 19.3427201538732 27.9127105666156  L 19.4105893473956 27.9800918836141  L 19.3427201538732 28.0474732006126  L 18.9355049927391 30.405819295559  C 18.9355049927391 30.405819295559  18.5961590251273 30.7427258805513  18.5961590251273 30.7427258805513  C 18.3246822510378 30.9448698315467  17.985336283426 30.9448698315467  17.5781211222918 30.7427258805513  C 17.5781211222918 30.7427258805513  17.4423827352471 30.7427258805513  17.4423827352471 30.7427258805513  L 16.8315599935458 30.0689127105666  L 16.1528680583222 30.271056661562  L 15.2705685425315 31.2143950995406  L 14.3203998332184 33.9770290964778  L 14.3203998332184 34.0444104134763  L 14.252530639696 34.1117917304747  L 13.302361930383 34.9203675344564  L 13.1666235433383 34.9203675344564  L 12.6236699951594 34.9877488514548  L 11.5377628988016 36.5375191424196  L 12.0807164469805 37.5482388973966  L 12.2164548340252 37.6830015313936  L 13.5738387044724 39.3675344563553  L 13.5738387044724 39.4349157733538  L 13.5738387044724 39.9739663093415  L 15.0669609619644 40.1761102603369  L 15.3384377360539 41.5237366003063  L 15.3384377360539 41.5911179173048  L 15.5420453166209 43.208269525268  L 15.9492604777551 43.5451761102604  L 17.3066443482023 43.1408882082695  L 18.5961590251273 42.3996937212864  L 18.7997666056943 42.2649310872894  L 19.2748509603509 44.5558958652374  L 19.8856737020521 45.4318529862175  L 20.0214120890968 45.4992343032159  L 20.4964964437534 46.4425727411945  C 20.4964964437534 46.4425727411945  21.5145343465888 47.2511485451761  21.5145343465888 47.2511485451761  C 21.6502727336335 47.4532924961715  21.9896187012454 47.4532924961715  22.3289646688572 47.4532924961715  C 22.3289646688572 47.4532924961715  22.668310636469 47.52067381317  22.668310636469 47.52067381317  C 22.668310636469 47.52067381317  23.2791333781702 47.2511485451761  23.2791333781702 47.2511485451761  C 23.7542177328267 47.0490045941807  24.2293020874833 46.8468606431853  24.7722556356622 46.7794793261868  C 24.7722556356622 46.7794793261868  25.1794707967964 46.5773353751914  25.1794707967964 46.5773353751914  C 25.1794707967964 46.5773353751914  26.1296395061094 46.509954058193  26.1296395061094 46.509954058193  C 26.4689854737212 46.509954058193  26.604723860766 46.5773353751914  26.808331441333 46.7794793261868  C 26.808331441333 46.7794793261868  28.1657153117803 45.9035222052067  28.1657153117803 45.9035222052067  L 28.301453698825 45.9035222052067  L 28.4371920858698 45.9709035222052  L 28.5050612793921 45.9035222052067  C 28.5050612793921 45.9035222052067  28.6407996664369 46.0382848392037  28.6407996664369 46.0382848392037  C 29.1837532146157 46.6447166921899  29.4552299887052 47.1837672281776  29.4552299887052 47.4532924961715  C 29.4552299887052 47.4532924961715  30.0660527304064 48.4640122511486  30.0660527304064 48.4640122511486  L 30.541137085063 48.5987748851455  L 30.6090062785853 48.5987748851455  L 30.6768754721077 48.5987748851455  C 30.6768754721077 48.5987748851455  30.541137085063 48.4640122511486  30.541137085063 48.4640122511486  C 30.4732678915406 48.1271056661562  30.4732678915406 47.9249617151608  30.541137085063 47.7901990811639  C 30.6768754721077 47.5880551301685  30.9483522461971 47.4532924961715  31.3555674073313 47.4532924961715  C 31.3555674073313 47.4532924961715  33.8667275676587 47.3859111791731  33.8667275676587 47.3859111791731  L 33.9345967611811 47.3185298621746  L 34.0703351482258 47.3185298621746  L 34.0703351482258 47.4532924961715  L 34.2060735352705 47.4532924961715  L 34.9526346640165 48.8683001531394  L 34.8847654704942 49.6094946401225  L 34.8168962769718 49.6094946401225  L 35.7670649862849 49.8116385911179  C 35.7670649862849 49.8116385911179  35.8349341798072 49.8116385911179  35.8349341798072 49.8116385911179  C 35.7670649862849 49.6094946401225  35.7670649862849 49.4747320061256  35.9028033733296 49.3399693721286  C 35.9028033733296 49.3399693721286  36.2421493409414 49.2725880551302  36.2421493409414 49.2725880551302  C 36.2421493409414 49.2725880551302  38.4818327271794 50.822358346095  38.4818327271794 50.822358346095  C 38.6854403077464 51.0245022970904  38.8211786947912 51.2940275650842  38.8890478883135 51.6309341500766  C 38.8890478883135 51.6309341500766  38.9569170818359 52.5742725880551  38.9569170818359 52.5742725880551  L 39.7034782105818 52.7090352220521  C 39.7034782105818 52.7090352220521  40.1785625652384 51.9004594180704  40.1785625652384 51.9004594180704  C 39.9749549846713 51.4961715160796  39.8392165976266 51.0918836140888  39.9070857911489 50.822358346095  C 39.9749549846713 50.5528330781011  40.0428241781936 50.3506891271057  40.3143009522831 50.2159264931087  C 40.3143009522831 50.2159264931087  40.5179085328502 50.0137825421133  40.5179085328502 50.0137825421133  C 40.5179085328502 49.8790199081164  40.5857777263726 49.8116385911179  40.7215161134173 49.7442572741194  C 40.7215161134173 49.7442572741194  41.3323388551186 49.8116385911179  41.3323388551186 49.8116385911179  C 41.6716848227304 50.0137825421133  41.9431615968198 50.687595712098  42.0788999838645 51.833078101072  C 42.0788999838645 51.833078101072  42.0788999838645 51.9678407350689  42.0788999838645 51.9678407350689  C 42.0788999838645 51.9678407350689  42.2146383709093 52.0352220520674  42.2146383709093 52.0352220520674  C 42.2825075644316 52.3047473200613  42.6897227255658 52.5068912710567  43.300545467267 52.7090352220521  C 43.300545467267 52.7090352220521  43.3684146607894 52.7090352220521  43.3684146607894 52.7090352220521  L 43.4362838543118 52.7764165390505  L 45.6080980470274 55  L 46.6261359498628 54.6630934150077  C 46.6261359498628 54.6630934150077  46.4903975628181 54.3261868300153  46.4903975628181 54.3261868300153  C 46.2189207887286 53.989280245023  46.1510515952062 53.6523736600306  46.1510515952062 53.4502297090352  C 46.1510515952062 52.978560490046  46.4903975628181 52.5068912710567  47.1690894980417 52.0352220520674  C 47.1690894980417 52.0352220520674  48.3228657879219 51.0245022970904  48.3228657879219 51.0245022970904  L 49.6802496583691 51.9678407350689  L 49.9517264324586 51.9678407350689  L 50.223203206548 50.4854517611026  L 50.223203206548 50.2159264931087  L 50.4946799806375 50.1485451761103  C 50.4946799806375 50.1485451761103  51.5805870769952 50.2833078101072  51.5805870769952 50.2833078101072  C 51.7841946575623 50.4854517611026  51.919933044607 50.687595712098  51.919933044607 51.0245022970904  C 51.919933044607 51.2940275650842  51.71632546404 51.6309341500766  51.5127178834729 51.9004594180704  C 51.5127178834729 51.9004594180704  51.71632546404 52.0352220520674  51.71632546404 52.0352220520674  C 52.3950173992636 52.3721286370597  52.9379709474425 52.6416539050536  53.3451861085766 52.7090352220521  C 53.3451861085766 52.7090352220521  53.413055302099 52.7090352220521  53.413055302099 52.7090352220521  L 54.2953548178897 53.1807044410414  L 54.9740467531133 53.1133231240429  C 54.9740467531133 53.1133231240429  53.9560088502779 48.1944869831547  53.9560088502779 48.1944869831547  C 53.2773169150543 47.7901990811639  52.666494173353 46.9816232771822  52.0556714316518 46.0382848392037  C 51.5805870769952 45.2297090352221  51.8520638510847 44.0842266462481  52.9379709474425 42.7366003062787  C 53.5487936891437 42.062787136294  54.2953548178897 41.3889739663094  55.1097851401581 40.7151607963247  C 55.1097851401581 40.7151607963247  55.1776543336804 40.5803981623277  55.1776543336804 40.5803981623277  L 56.1278230429935 40.5803981623277  L 56.1956922365159 40.7151607963247  L 57.0101225587842 41.052067381317  C 57.0101225587842 41.052067381317  58.7068523968432 41.052067381317  58.7068523968432 41.052067381317  C 59.3855443320669 40.7151607963247  59.9963670737681 39.7044410413476  60.6750590089918 38.0872894333844  C 61.0822741701259 37.1439509954058  61.0822741701259 35.1898928024502  60.8107973960365 32.1577335375192  Z " fill-rule="nonzero" fill="#4a9eff" stroke="none" transform="matrix(1 0 0 1 2041 1770 )" />
    <path d="M 60.8107973960365 32.1577335375192  L 59.7927594932011 25.5543644716692  L 59.8606286867234 25.4196018376723  C 59.8606286867234 25.4196018376723  59.9284978802458 25.4196018376723  59.9284978802458 25.4196018376723  C 60.4035822349023 24.6784073506891  60.6750590089918 24.0719754977029  60.5393206219471 23.6003062787136  C 60.5393206219471 23.6003062787136  60.2678438478576 23.1960183767228  60.2678438478576 23.1960183767228  C 59.5212827191116 22.7243491577335  59.1819367514998 21.646248085758  59.3855443320669 19.8269525267994  C 59.3855443320669 19.8269525267994  58.7747215903656 19.8269525267994  58.7747215903656 19.8269525267994  C 58.2996372357091 19.7595712098009  57.7566836875302 19.9617151607963  57.2137301393513 20.2986217457887  C 56.6707765911724 20.7029096477795  56.3314306235606 21.1745788667688  56.2635614300382 21.5114854517611  C 55.9920846559488 22.3200612557427  55.1097851401581 22.8591117917305  53.6166628826661 23.3307810107198  C 53.6166628826661 23.3307810107198  53.2773169150543 25.4196018376723  53.2773169150543 25.4196018376723  L 53.2773169150543 25.4869831546708  L 53.2094477215319 25.5543644716692  L 52.4628865927859 26.9019908116386  L 52.3950173992636 27.0367534456355  L 52.3271482057412 27.0367534456355  L 52.2592790122188 27.0367534456355  L 45.540228853505 28.249617151608  L 45.4723596599826 28.249617151608  L 45.2687520794156 28.249617151608  L 45.2687520794156 28.114854517611  L 43.300545467267 26.0260336906585  L 43.9113682089683 25.4196018376723  L 43.1648070802223 24.4088820826953  L 42.2146383709093 23.7350689127106  L 42.1467691773869 23.6676875957121  L 42.0788999838645 23.6676875957121  L 42.0788999838645 23.6003062787136  L 42.0788999838645 23.5329249617152  L 41.7395540162527 21.7136294027565  L 39.9749549846713 21.8483920367535  L 39.8392165976266 21.7136294027565  L 38.3460943401346 20.8376722817764  L 32.984428051868 19.8943338437979  L 28.5050612793921 19.6921898928025  C 28.5050612793921 19.6921898928025  28.3693228923474 19.8269525267994  28.3693228923474 19.8269525267994  C 28.1657153117803 19.8269525267994  28.0299769247356 19.7595712098009  27.9621077312132 19.624808575804  C 27.9621077312132 19.624808575804  25.3830783773635 13.8300153139357  25.3830783773635 13.8300153139357  C 25.111601603274 13.3583460949464  24.0256945069162 11.8759571209801  21.8538803142006 9.31546707503829  C 19.8178045085298 6.82235834609495  18.6640282186496 5.47473200612558  18.3246822510378 5.2052067381317  C 18.3246822510378 5.2052067381317  14.5240074137855 1.49923430321593  14.5240074137855 1.49923430321593  L 13.9131846720842 1.16232771822358  L 9.16234112551889 1.09494640122511  L 9.09447193199655 1.09494640122511  C 9.09447193199655 1.09494640122511  8.95873354495184 0.960183767228178  8.95873354495184 0.960183767228178  C 8.48364919029526 0.623277182235835  7.80495725507164 0.286370597243492  6.78691935223621 0.0842266462480858  C 5.90461983644554 -0.252679938744257  3.86854403077467 0.421133231240429  0.678691935223621 2.10566615620214  C 0.678691935223621 2.10566615620214  0.542953548178905 2.17304747320061  0.542953548178905 2.17304747320061  L 0.678691935223621 3.11638591117917  L 0.746561128745999 3.11638591117917  L 0.746561128745999 3.18376722817764  L 0.678691935223621 3.18376722817764  L 0.678691935223621 3.31852986217458  L 0.135738387044755 4.39663093415008  L 0.135738387044755 4.46401225114855  L 0.0678691935223776 4.46401225114855  C 0.0678691935223776 4.46401225114855  0 5.2052067381317  0 5.2052067381317  C 0 5.81163859111792  0.135738387044755 6.48545176110261  0.339345967611811 7.02450229709036  C 0.339345967611811 7.02450229709036  0.814430322268376 7.3614088820827  0.814430322268376 7.3614088820827  L 1.83246822510381 7.29402756508423  L 2.71476774089449 7.49617151607963  C 2.71476774089449 7.49617151607963  3.0541137085063 7.22664624808576  3.0541137085063 7.22664624808576  C 3.0541137085063 6.62021439509954  3.25772128907339 6.14854517611026  3.52919806316286 6.01378254211332  C 3.52919806316286 6.01378254211332  4.20788999838648 6.01378254211332  4.20788999838648 6.01378254211332  L 6.58331177166916 6.68759571209801  L 7.12626531984802 6.75497702909648  L 6.37970419110206 8.03522205206738  C 6.37970419110206 8.03522205206738  6.37970419110206 9.58499234303216  6.37970419110206 9.58499234303216  C 6.37970419110206 9.9218989280245  6.99052693280331 10.7304747320061  8.21217241620583 11.8759571209801  C 8.95873354495184 12.4150076569678  9.43381789960836 12.6845329249617  9.84103306074251 12.7519142419602  C 9.84103306074251 12.7519142419602  10.1803790283543 12.6845329249617  10.1803790283543 12.6845329249617  L 10.5197249959661 12.5497702909648  L 11.6735012858463 11.4042879019908  L 12.555800801637 10.8652373660031  L 12.555800801637 10.7978560490046  L 14.3882690267408 10.5283307810107  L 14.9312225749197 9.38284839203676  L 16.5600832194564 8.43950995405819  L 17.985336283426 9.24808575803982  L 17.985336283426 9.31546707503829  L 18.1210746704707 9.38284839203676  L 19.478458540918 11.6738131699847  L 20.0214120890968 13.2235834609495  L 20.0214120890968 13.4257274119449  L 19.7499353150074 15.312404287902  L 20.2928888631863 16.5926493108729  L 20.2928888631863 16.7947932618683  L 19.8856737020521 18.2771822358346  C 19.8856737020521 18.2771822358346  19.8856737020521 19.624808575804  19.8856737020521 19.624808575804  C 20.2928888631863 20.8376722817764  20.4964964437534 21.646248085758  20.4964964437534 21.8483920367535  C 20.4964964437534 21.8483920367535  20.3607580567086 22.9938744257274  20.3607580567086 22.9938744257274  L 20.3607580567086 23.0612557427259  L 19.682066121485 24.0045941807045  L 19.682066121485 24.0719754977029  L 19.0033741862614 24.8805513016845  L 18.9355049927391 26.3629402756508  L 19.3427201538732 27.9127105666156  L 19.4105893473956 27.9800918836141  L 19.3427201538732 28.0474732006126  L 18.9355049927391 30.405819295559  C 18.9355049927391 30.405819295559  18.5961590251273 30.7427258805513  18.5961590251273 30.7427258805513  C 18.3246822510378 30.9448698315467  17.985336283426 30.9448698315467  17.5781211222918 30.7427258805513  C 17.5781211222918 30.7427258805513  17.4423827352471 30.7427258805513  17.4423827352471 30.7427258805513  L 16.8315599935458 30.0689127105666  L 16.1528680583222 30.271056661562  L 15.2705685425315 31.2143950995406  L 14.3203998332184 33.9770290964778  L 14.3203998332184 34.0444104134763  L 14.252530639696 34.1117917304747  L 13.302361930383 34.9203675344564  L 13.1666235433383 34.9203675344564  L 12.6236699951594 34.9877488514548  L 11.5377628988016 36.5375191424196  L 12.0807164469805 37.5482388973966  L 12.2164548340252 37.6830015313936  L 13.5738387044724 39.3675344563553  L 13.5738387044724 39.4349157733538  L 13.5738387044724 39.9739663093415  L 15.0669609619644 40.1761102603369  L 15.3384377360539 41.5237366003063  L 15.3384377360539 41.5911179173048  L 15.5420453166209 43.208269525268  L 15.9492604777551 43.5451761102604  L 17.3066443482023 43.1408882082695  L 18.5961590251273 42.3996937212864  L 18.7997666056943 42.2649310872894  L 19.2748509603509 44.5558958652374  L 19.8856737020521 45.4318529862175  L 20.0214120890968 45.4992343032159  L 20.4964964437534 46.4425727411945  C 20.4964964437534 46.4425727411945  21.5145343465888 47.2511485451761  21.5145343465888 47.2511485451761  C 21.6502727336335 47.4532924961715  21.9896187012454 47.4532924961715  22.3289646688572 47.4532924961715  C 22.3289646688572 47.4532924961715  22.668310636469 47.52067381317  22.668310636469 47.52067381317  C 22.668310636469 47.52067381317  23.2791333781702 47.2511485451761  23.2791333781702 47.2511485451761  C 23.7542177328267 47.0490045941807  24.2293020874833 46.8468606431853  24.7722556356622 46.7794793261868  C 24.7722556356622 46.7794793261868  25.1794707967964 46.5773353751914  25.1794707967964 46.5773353751914  C 25.1794707967964 46.5773353751914  26.1296395061094 46.509954058193  26.1296395061094 46.509954058193  C 26.4689854737212 46.509954058193  26.604723860766 46.5773353751914  26.808331441333 46.7794793261868  C 26.808331441333 46.7794793261868  28.1657153117803 45.9035222052067  28.1657153117803 45.9035222052067  L 28.301453698825 45.9035222052067  L 28.4371920858698 45.9709035222052  L 28.5050612793921 45.9035222052067  C 28.5050612793921 45.9035222052067  28.6407996664369 46.0382848392037  28.6407996664369 46.0382848392037  C 29.1837532146157 46.6447166921899  29.4552299887052 47.1837672281776  29.4552299887052 47.4532924961715  C 29.4552299887052 47.4532924961715  30.0660527304064 48.4640122511486  30.0660527304064 48.4640122511486  L 30.541137085063 48.5987748851455  L 30.6090062785853 48.5987748851455  L 30.6768754721077 48.5987748851455  C 30.6768754721077 48.5987748851455  30.541137085063 48.4640122511486  30.541137085063 48.4640122511486  C 30.4732678915406 48.1271056661562  30.4732678915406 47.9249617151608  30.541137085063 47.7901990811639  C 30.6768754721077 47.5880551301685  30.9483522461971 47.4532924961715  31.3555674073313 47.4532924961715  C 31.3555674073313 47.4532924961715  33.8667275676587 47.3859111791731  33.8667275676587 47.3859111791731  L 33.9345967611811 47.3185298621746  L 34.0703351482258 47.3185298621746  L 34.0703351482258 47.4532924961715  L 34.2060735352705 47.4532924961715  L 34.9526346640165 48.8683001531394  L 34.8847654704942 49.6094946401225  L 34.8168962769718 49.6094946401225  L 35.7670649862849 49.8116385911179  C 35.7670649862849 49.8116385911179  35.8349341798072 49.8116385911179  35.8349341798072 49.8116385911179  C 35.7670649862849 49.6094946401225  35.7670649862849 49.4747320061256  35.9028033733296 49.3399693721286  C 35.9028033733296 49.3399693721286  36.2421493409414 49.2725880551302  36.2421493409414 49.2725880551302  C 36.2421493409414 49.2725880551302  38.4818327271794 50.822358346095  38.4818327271794 50.822358346095  C 38.6854403077464 51.0245022970904  38.8211786947912 51.2940275650842  38.8890478883135 51.6309341500766  C 38.8890478883135 51.6309341500766  38.9569170818359 52.5742725880551  38.9569170818359 52.5742725880551  L 39.7034782105818 52.7090352220521  C 39.7034782105818 52.7090352220521  40.1785625652384 51.9004594180704  40.1785625652384 51.9004594180704  C 39.9749549846713 51.4961715160796  39.8392165976266 51.0918836140888  39.9070857911489 50.822358346095  C 39.9749549846713 50.5528330781011  40.0428241781936 50.3506891271057  40.3143009522831 50.2159264931087  C 40.3143009522831 50.2159264931087  40.5179085328502 50.0137825421133  40.5179085328502 50.0137825421133  C 40.5179085328502 49.8790199081164  40.5857777263726 49.8116385911179  40.7215161134173 49.7442572741194  C 40.7215161134173 49.7442572741194  41.3323388551186 49.8116385911179  41.3323388551186 49.8116385911179  C 41.6716848227304 50.0137825421133  41.9431615968198 50.687595712098  42.0788999838645 51.833078101072  C 42.0788999838645 51.833078101072  42.0788999838645 51.9678407350689  42.0788999838645 51.9678407350689  C 42.0788999838645 51.9678407350689  42.2146383709093 52.0352220520674  42.2146383709093 52.0352220520674  C 42.2825075644316 52.3047473200613  42.6897227255658 52.5068912710567  43.300545467267 52.7090352220521  C 43.300545467267 52.7090352220521  43.3684146607894 52.7090352220521  43.3684146607894 52.7090352220521  L 43.4362838543118 52.7764165390505  L 45.6080980470274 55  L 46.6261359498628 54.6630934150077  C 46.6261359498628 54.6630934150077  46.4903975628181 54.3261868300153  46.4903975628181 54.3261868300153  C 46.2189207887286 53.989280245023  46.1510515952062 53.6523736600306  46.1510515952062 53.4502297090352  C 46.1510515952062 52.978560490046  46.4903975628181 52.5068912710567  47.1690894980417 52.0352220520674  C 47.1690894980417 52.0352220520674  48.3228657879219 51.0245022970904  48.3228657879219 51.0245022970904  L 49.6802496583691 51.9678407350689  L 49.9517264324586 51.9678407350689  L 50.223203206548 50.4854517611026  L 50.223203206548 50.2159264931087  L 50.4946799806375 50.1485451761103  C 50.4946799806375 50.1485451761103  51.5805870769952 50.2833078101072  51.5805870769952 50.2833078101072  C 51.7841946575623 50.4854517611026  51.919933044607 50.687595712098  51.919933044607 51.0245022970904  C 51.919933044607 51.2940275650842  51.71632546404 51.6309341500766  51.5127178834729 51.9004594180704  C 51.5127178834729 51.9004594180704  51.71632546404 52.0352220520674  51.71632546404 52.0352220520674  C 52.3950173992636 52.3721286370597  52.9379709474425 52.6416539050536  53.3451861085766 52.7090352220521  C 53.3451861085766 52.7090352220521  53.413055302099 52.7090352220521  53.413055302099 52.7090352220521  L 54.2953548178897 53.1807044410414  L 54.9740467531133 53.1133231240429  C 54.9740467531133 53.1133231240429  53.9560088502779 48.1944869831547  53.9560088502779 48.1944869831547  C 53.2773169150543 47.7901990811639  52.666494173353 46.9816232771822  52.0556714316518 46.0382848392037  C 51.5805870769952 45.2297090352221  51.8520638510847 44.0842266462481  52.9379709474425 42.7366003062787  C 53.5487936891437 42.062787136294  54.2953548178897 41.3889739663094  55.1097851401581 40.7151607963247  C 55.1097851401581 40.7151607963247  55.1776543336804 40.5803981623277  55.1776543336804 40.5803981623277  L 56.1278230429935 40.5803981623277  L 56.1956922365159 40.7151607963247  L 57.0101225587842 41.052067381317  C 57.0101225587842 41.052067381317  58.7068523968432 41.052067381317  58.7068523968432 41.052067381317  C 59.3855443320669 40.7151607963247  59.9963670737681 39.7044410413476  60.6750590089918 38.0872894333844  C 61.0822741701259 37.1439509954058  61.0822741701259 35.1898928024502  60.8107973960365 32.1577335375192  Z " stroke-width="2" stroke="#ffffff" fill="none" transform="matrix(1 0 0 1 2041 1770 )" mask="url(#clip590)" />
  </g>
</svg>