<?xml version="1.0" encoding="utf-8"?>
<svg version="1.1" xmlns:xlink="http://www.w3.org/1999/xlink" width="13px" height="13px" xmlns="http://www.w3.org/2000/svg">
  <g transform="matrix(1 0 0 1 -220 -2114 )">
    <path d="M 6.94981925476333 0.106434321702398  C 6.45284090929445 -0.142054851032044  5.84852008293146 0.0593854244222839  5.60003091019702 0.556363769891168  C 5.60003091019702 0.556363769891168  0.106213934851519 11.5439977205822  0.106213934851519 11.5439977205822  C 0.0363645947946656 11.6836964006959  0 11.8377392962203  0 11.9939271687709  C 0 12.5495658506778  0.450434149322147 13  1.00607283122904 13  C 1.00607283122904 13  11.9937067819201 13  11.9937067819201 13  C 12.1498946544707 13  12.3039375499951 12.9636354052053  12.4436362301088 12.8937860651485  C 12.9406145755777 12.645296892414  13.142054851032 12.0409760660511  12.8935656782976 11.5439977205822  C 12.8935656782976 11.5439977205822  7.3997487029521 0.556363769891164  7.3997487029521 0.556363769891164  C 7.30239737216153 0.361661108310033  7.14452191634445 0.203785652492959  6.94981925476333 0.106434321702398  Z " fill-rule="nonzero" fill="#c9ced6" stroke="none" transform="matrix(1 0 0 1 220 2114 )" />
  </g>
</svg>