<?xml version="1.0" encoding="utf-8"?>
<svg version="1.1" xmlns:xlink="http://www.w3.org/1999/xlink" width="7px" height="11px" xmlns="http://www.w3.org/2000/svg">
  <g transform="matrix(1 0 0 1 -2036 -1856 )">
    <path d="M 3.49039512375936 0.137931034482761  C 3.49039512375936 0.137931034482761  3.31113763259931 0  3.31113763259931 0  C 3.01237514733257 0  2.71361266206583 0.344827586206896  2.41485017679908 1.10344827586208  C 2.41485017679908 1.10344827586208  2.23559268563903 0.965517241379314  2.23559268563903 0.965517241379314  L 2.1758401885857 1.03448275862069  L 2.23559268563903 1.10344827586208  L 1.69782021215891 1.72413793103448  L 1.45881022394553 1.86206896551725  L 0.801532756358683 2.27586206896552  C 0.801532756358683 2.27586206896552  0.74178025930532 2.75862068965517  0.74178025930532 2.75862068965517  C 0.801532756358683 3.51724137931034  0.62227526519863 4.06896551724138  0.323512779931888 4.27586206896553  C 0.323512779931888 4.27586206896553  0.084502791718508 5.10344827586207  0.084502791718508 5.10344827586207  C 0.024750294665146 5.31034482758622  -0.035002202388182 5.86206896551724  0.024750294665146 6.62068965517241  C 0.024750294665146 6.62068965517241  0.38326527698525 8.68965517241379  0.38326527698525 8.68965517241379  C 0.50277027109194 8.96551724137931  0.801532756358683 9.31034482758621  1.39905772689217 9.58620689655173  C 1.39905772689217 9.58620689655173  2.77336515911919 10  2.77336515911919 10  C 3.13188014143926 10  3.60990011786605 9.79310344827587  4.14767259134621 9.37931034482758  C 4.14767259134621 9.37931034482758  3.7891576090261 8.62068965517241  3.7891576090261 8.62068965517241  L 3.7891576090261 8.48275862068966  L 3.7891576090261 8.41379310344829  L 3.90866260313279 7.79310344827587  L 3.90866260313279 7.72413793103449  L 4.56594007071964 6.34482758620691  L 5.70123751473325 6.34482758620691  C 5.70123751473325 6.34482758620691  5.99999999999999 6.27586206896551  5.99999999999999 6.27586206896551  C 5.8804950058933 5.86206896551724  5.52198002357319 5.10344827586207  4.86470255598638 4.13793103448276  C 4.86470255598638 4.13793103448276  4.44643507661295 3.44827586206897  4.44643507661295 3.44827586206897  C 4.20742508839954 2.89655172413794  3.96841510018616 2.27586206896552  3.90866260313279 1.44827586206896  C 3.7891576090261 0.827586206896554  3.60990011786605 0.413793103448282  3.49039512375936 0.137931034482761  Z " fill-rule="nonzero" fill="#4284f5" stroke="none" transform="matrix(1 0 0 1 2036 1856 )" />
  </g>
</svg>