<?xml version="1.0" encoding="utf-8"?>
<svg version="1.1" xmlns:xlink="http://www.w3.org/1999/xlink" width="69px" height="51px" xmlns="http://www.w3.org/2000/svg">
  <defs>
    <mask fill="white" id="clip209">
      <path d="M 40.5990147783251 2.60631001371743  C 40.5990147783251 2.60631001371743  39.9960591133005 3.08641975308642  39.9960591133005 3.08641975308642  C 39.9960591133005 3.36076817558299  40.1300492610838 3.97805212620028  40.3310344827586 4.86968449931412  C 40.3310344827586 4.86968449931412  40.3310344827586 4.93827160493826  40.3310344827586 4.93827160493826  L 40.3980295566503 5.00685871056242  L 40.3310344827586 5.00685871056242  L 39.5940886699507 6.72153635116599  L 38.5891625615764 7.13305898491084  L 38.3881773399015 7.20164609053497  L 38.3211822660098 7.20164609053497  L 36.5793103448276 6.37860082304527  L 36.512315270936 6.37860082304527  L 36.512315270936 6.31001371742111  L 33.2295566502463 3.2235939643347  L 31.9566502463054 2.46913580246913  L 29.9467980295567 1.71467764060357  L 29.9467980295567 1.64609053497943  L 29.879802955665 1.64609053497943  L 28.9418719211823 0.960219478738001  L 27.2669950738916 0.411522633744852  L 26.3290640394089 0.480109739368991  L 26.2620689655172 0.480109739368991  L 24.1182266009852 0.342935528120713  L 24.0512315270936 0.342935528120713  L 22.5103448275862 0  L 21.5724137931034 0  C 21.5724137931034 0  20.8354679802956 0.548696844993149  20.8354679802956 0.548696844993149  C 20.4334975369458 0.754458161865565  19.8975369458128 0.823045267489704  19.2275862068966 0.960219478738001  C 19.2275862068966 0.960219478738001  17.8206896551724 1.23456790123458  17.8206896551724 1.23456790123458  L 16.6147783251232 1.64609053497943  L 16.5477832512315 1.71467764060357  L 16.5477832512315 1.7832647462277  L 16.5477832512315 1.71467764060357  L 15.0738916256158 1.85185185185184  L 13.5330049261084 2.46913580246913  L 13.3320197044335 2.46913580246913  L 12.0591133004926 2.33196159122085  L 10.1162561576355 2.60631001371743  L 8.50837438423646 2.60631001371743  L 7.8384236453202 3.29218106995885  L 7.77142857142857 3.29218106995885  L 6.96748768472907 3.49794238683127  L 7.3024630541872 4.32098765432099  L 7.3024630541872 5.62414266117969  L 7.10147783251231 6.79012345679012  L 8.24039408866995 7.75034293552813  L 8.30738916256159 7.75034293552813  C 8.30738916256159 7.75034293552813  9.24532019704433 8.8477366255144  9.24532019704433 8.8477366255144  C 9.84827586206897 9.3278463648834  10.1162561576355 9.67078189300411  10.1162561576355 10.082304526749  C 10.1162561576355 10.082304526749  10.4512315270936 11.1111111111111  10.4512315270936 11.1111111111111  C 10.4512315270936 11.1111111111111  10.920197044335 12.1399176954732  10.920197044335 12.1399176954732  C 10.8532019704434 12.1399176954732  10.8532019704434 12.2085048010974  10.7862068965517 12.2085048010974  C 10.7862068965517 12.2085048010974  9.51330049261084 13.1687242798354  9.51330049261084 13.1687242798354  L 8.64236453201971 14.3347050754458  L 8.84334975369459 15.363511659808  L 9.44630541871921 16.8038408779149  L 9.51330049261084 16.9410150891632  L 9.51330049261084 17.0096021947874  C 9.51330049261084 17.0096021947874  9.37931034482758 17.5582990397805  9.37931034482758 17.5582990397805  C 9.24532019704433 17.9012345679012  9.11133004926108 18.1755829903978  8.91034482758621 18.3127572016461  C 8.50837438423646 18.6556927297668  7.8384236453202 18.6556927297668  6.76650246305419 18.3127572016461  C 6.76650246305419 18.3127572016461  5.09162561576354 17.9698216735254  5.09162561576354 17.9698216735254  L 5.02463054187192 17.9698216735254  L 4.9576354679803 17.9698216735254  L 3.75172413793103 17.3525377229081  L 1.80886699507389 17.2839506172839  L 1.87586206896552 17.3525377229081  C 1.87586206896552 17.3525377229081  1.67487684729064 20.7818930041152  1.67487684729064 20.7818930041152  C 1.60788177339902 21.2620027434842  1.27290640394089 21.4677640603567  0.80394088669951 21.5363511659808  C 0.602955665024634 21.6049382716049  0.468965517241381 21.8792866941015  0.535960591133003 22.4279835390946  C 0.535960591133003 22.4279835390946  0.535960591133003 22.4965706447188  0.535960591133003 22.4965706447188  L 0.468965517241381 22.4965706447188  C 0.468965517241381 22.4965706447188  0.334975369458128 23.3882030178326  0.334975369458128 23.3882030178326  C 0.80394088669951 23.7997256515775  1.13891625615764 24.1426611796982  1.27290640394089 24.4170096021948  C 1.27290640394089 24.4170096021948  1.60788177339902 26.0631001371742  1.60788177339902 26.0631001371742  C 1.60788177339902 26.0631001371742  1.60788177339902 26.6803840877915  1.60788177339902 26.6803840877915  C 1.54088669950739 27.0233196159122  1.47389162561577 27.2976680384088  1.33990147783251 27.5720164609053  C 1.33990147783251 27.5720164609053  0.870935960591131 28.9437585733882  0.870935960591131 28.9437585733882  L 0 30.6584362139918  L 0 31.0013717421125  L 0.133990147783253 31.8244170096022  C 0.133990147783253 31.8244170096022  1.00492610837438 32.9903978052126  1.00492610837438 32.9903978052126  C 1.27290640394089 33.3333333333333  1.40689655172413 33.5390946502058  1.47389162561577 33.7448559670782  C 1.47389162561577 33.7448559670782  2.27783251231527 34.9108367626886  2.27783251231527 34.9108367626886  C 2.27783251231527 34.9108367626886  3.48374384236454 36.2825788751715  3.48374384236454 36.2825788751715  C 3.95270935960592 36.7626886145405  4.28768472906404 36.9684499314129  4.42167487684729 36.9684499314129  C 4.42167487684729 36.9684499314129  5.69458128078818 36.1454046639232  5.69458128078818 36.1454046639232  C 5.96256157635468 35.9396433470507  6.16354679802956 35.8024691358025  6.49852216748769 35.8024691358025  C 6.76650246305419 35.8024691358025  7.16847290640394 36.0082304526749  7.77142857142857 36.4197530864197  C 7.77142857142857 36.4197530864197  7.8384236453202 36.4197530864197  7.8384236453202 36.4197530864197  L 7.8384236453202 36.4883401920439  L 8.50837438423646 37.3113854595336  L 8.84334975369459 38.1344307270233  L 9.11133004926108 38.477366255144  L 9.31231527093596 38.6145404663923  L 10.1832512315271 39.2318244170096  C 10.1832512315271 39.2318244170096  10.6522167487685 39.3004115226337  10.6522167487685 39.3004115226337  C 10.920197044335 39.3689986282579  11.1881773399015 39.5747599451303  11.3891625615764 39.8491083676269  C 11.5231527093596 40.0548696844993  12.2600985221675 40.3292181069959  13.5330049261084 40.6721536351166  C 13.5330049261084 40.6721536351166  13.6 40.6721536351166  13.6 40.6721536351166  L 15.6098522167488 41.4266117969822  L 15.6768472906404 41.4266117969822  L 15.743842364532 41.4266117969822  L 17.1507389162562 42.1124828532236  L 19.5625615763547 42.7297668038409  L 19.6295566502463 42.798353909465  L 22.7783251231527 42.9355281207133  L 24.1852216748769 42.3868312757202  L 25.4581280788177 42.3868312757202  L 25.4581280788177 42.4554183813443  L 25.5251231527094 42.5240054869684  L 26.5970443349754 43.8957475994513  L 26.5970443349754 43.9643347050754  L 27.2669950738916 45.0617283950617  L 27.8029556650246 45.679012345679  L 28.5399014778325 46.0219478737997  L 28.6068965517241 46.0905349794239  L 28.6738916256158 46.159122085048  L 29.2768472906404 47.5308641975309  L 29.2768472906404 47.599451303155  L 29.343842364532 47.599451303155  L 29.343842364532 47.6680384087791  L 29.6788177339902 49.1769547325103  L 30.6167487684729 49.519890260631  L 30.6837438423645 49.519890260631  L 30.7507389162562 49.519890260631  L 31.487684729064 50  L 32.4926108374384 49.7942386831276  L 32.7605911330049 48.7654320987654  L 32.7605911330049 48.6968449931413  L 32.8275862068966 48.6282578875171  L 33.9665024630542 47.4622770919067  L 35.2394088669951 47.8052126200274  L 35.2394088669951 47.9423868312757  L 35.8423645320197 49.3141289437586  L 37.1152709359606 48.8340192043896  L 37.2492610837438 47.5308641975309  L 37.2492610837438 47.4622770919067  L 37.2492610837438 47.3936899862826  L 37.3162561576355 47.3251028806584  L 38.1871921182266 46.8449931412894  L 37.9862068965517 44.9245541838134  L 37.9862068965517 44.7873799725652  L 37.9862068965517 44.718792866941  L 38.9911330049261 42.5925925925926  L 39.9960591133005 42.1810699588477  L 39.5940886699507 40.2606310013717  L 40.5990147783251 40.2606310013717  L 40.5320197044335 39.3689986282579  L 39.9960591133005 37.517146776406  L 39.9960591133005 37.3799725651577  L 40.1300492610838 36.076817558299  L 40.1300492610838 35.8710562414266  L 40.264039408867 35.8024691358025  L 40.9339901477833 34.9108367626886  L 41.0679802955665 34.7736625514403  L 41.2689655172414 34.7736625514403  L 43.0778325123153 35.116598079561  L 43.1448275862069 35.116598079561  L 44.6187192118227 35.5281207133059  L 45.8916256157636 35.116598079561  L 46.6285714285714 36.6255144032922  L 46.6955665024631 36.6941015089163  L 46.6955665024631 37.7914951989026  C 46.6955665024631 37.7914951989026  46.8965517241379 38.8203017832647  46.8965517241379 38.8203017832647  C 47.0305418719212 39.2318244170096  47.2985221674877 39.5061728395062  47.5665024630542 39.5747599451303  C 47.5665024630542 39.5747599451303  47.7004926108374 39.5747599451303  47.7004926108374 39.5747599451303  C 48.3034482758621 39.7119341563786  48.6384236453202 39.9862825788752  48.7054187192118 40.39780521262  C 48.7724137931035 40.7407407407407  49.04039408867 41.2208504801097  49.5093596059113 41.7695473251029  C 49.5093596059113 41.7695473251029  50.112315270936 42.6611796982167  50.112315270936 42.6611796982167  L 50.112315270936 42.7297668038409  L 50.5142857142857 43.4842249657064  L 51.1172413793104 43.4156378600823  L 52.256157635468 42.3868312757202  L 52.9931034482759 43.9643347050754  L 54.4669950738916 44.4444444444444  L 54.5339901477833 44.4444444444444  L 54.6009852216749 44.5130315500686  L 55.3379310344828 45.8847736625514  L 55.6729064039409 46.0905349794239  L 55.7399014778325 44.7873799725652  L 55.7399014778325 44.718792866941  L 55.7399014778325 44.5130315500686  L 58.687684729064 44.4444444444444  C 58.687684729064 44.4444444444444  58.7546798029557 44.1700960219479  58.7546798029557 44.1700960219479  C 58.8216748768473 44.0329218106996  58.8216748768473 43.758573388203  58.687684729064 43.5528120713306  C 58.4866995073892 43.1412894375857  58.4197044334975 42.798353909465  58.3527093596059 42.318244170096  C 58.2857142857143 41.7695473251029  58.3527093596059 41.358024691358  58.4866995073892 41.2208504801097  C 58.687684729064 40.9465020576132  58.8216748768473 40.9465020576132  59.1566502463054 41.0150891632373  C 59.1566502463054 41.0150891632373  60.3625615763547 41.4266117969822  60.3625615763547 41.4266117969822  L 60.496551724138 40.5349794238683  L 58.2857142857143 39.5061728395062  L 58.1517241379311 39.5061728395062  L 58.0847290640394 39.3689986282579  L 58.0847290640394 39.3004115226337  L 58.0847290640394 39.2318244170096  L 57.7497536945813 36.4883401920439  L 57.8167487684729 34.7736625514403  L 57.8167487684729 34.5679012345679  L 57.8167487684729 34.4307270233196  L 61.5014778325123 34.9108367626886  C 61.5014778325123 34.9108367626886  62.4394088669951 34.0192043895747  62.4394088669951 34.0192043895747  C 62.64039408867 33.676268861454  62.5733990147783 33.4019204389575  62.4394088669951 33.3333333333333  C 61.5014778325123 32.9903978052126  61.0325123152709 32.5788751714678  61.0325123152709 32.1673525377229  C 61.0325123152709 31.9615912208505  61.0995073891626 31.6872427983539  61.4344827586207 31.5500685871056  C 61.4344827586207 31.5500685871056  62.9753694581281 29.9725651577503  62.9753694581281 29.9725651577503  L 64.6502463054187 29.9039780521262  L 65.5211822660099 28.3950617283951  L 65.5211822660099 26.9547325102881  C 65.5211822660099 26.9547325102881  66.7940886699508 26.6803840877915  66.7940886699508 26.6803840877915  C 67.1290640394089 25.6515775034294  67.3300492610838 25.1028806584362  67.464039408867 24.8971193415638  C 67.464039408867 24.8971193415638  68 23.7311385459534  68 23.7311385459534  L 67.0620689655173 22.0164609053498  L 67.0620689655173 21.9478737997257  L 67.0620689655173 21.8792866941015  L 66.4591133004926 19.5473251028807  L 66.4591133004926 19.4787379972565  L 66.0571428571429 17.0781893004115  L 65.2532019704434 15.7064471879287  L 64.0472906403941 14.4718792866941  L 64.0472906403941 14.40329218107  L 64.0472906403941 14.3347050754458  L 63.9802955665025 14.2661179698217  L 63.9133004926109 12.962962962963  L 61.7024630541872 13.6488340192044  L 61.6354679802956 13.5802469135802  L 60.6305418719212 12.4142661179698  L 57.615763546798 10.082304526749  L 57.5487684729064 10.082304526749  L 56.4098522167488 8.57338820301783  L 55.6729064039409 8.09327846364884  L 55.2039408866995 8.8477366255144  L 55.2039408866995 8.98491083676269  L 55.1369458128079 9.05349794238682  L 55.0699507389163 9.05349794238682  L 54.935960591133 9.05349794238682  L 53.9980295566503 9.12208504801098  L 53.864039408867 9.19067215363512  L 53.7970443349754 9.19067215363512  C 53.7970443349754 9.19067215363512  51.5862068965517 6.72153635116599  51.5862068965517 6.72153635116599  C 51.1172413793104 6.51577503429355  50.648275862069 6.03566529492456  49.9783251231527 5.34979423868313  C 49.9783251231527 5.34979423868313  48.9733990147783 4.59533607681755  48.9733990147783 4.59533607681755  L 48.9064039408867 4.52674897119341  L 47.7674876847291 3.84087791495198  L 47.0975369458128 4.38957475994513  L 47.0305418719212 4.52674897119341  L 46.9635467980296 4.45816186556927  L 46.8965517241379 4.45816186556927  L 46.2935960591133 4.32098765432099  L 45.623645320197 4.66392318244171  L 45.5566502463054 4.73251028806585  L 45.4896551724138 4.80109739368999  L 45.4226600985222 4.80109739368999  C 45.4226600985222 4.80109739368999  44.4847290640394 4.93827160493826  44.4847290640394 4.93827160493826  C 43.2118226600985 4.1838134430727  41.9389162561576 3.42935528120713  40.5990147783251 2.60631001371743  Z " fill-rule="evenodd" />
    </mask>
  </defs>
  <g transform="matrix(1 0 0 1 -1898 -1863 )">
    <path d="M 40.5990147783251 2.60631001371743  C 40.5990147783251 2.60631001371743  39.9960591133005 3.08641975308642  39.9960591133005 3.08641975308642  C 39.9960591133005 3.36076817558299  40.1300492610838 3.97805212620028  40.3310344827586 4.86968449931412  C 40.3310344827586 4.86968449931412  40.3310344827586 4.93827160493826  40.3310344827586 4.93827160493826  L 40.3980295566503 5.00685871056242  L 40.3310344827586 5.00685871056242  L 39.5940886699507 6.72153635116599  L 38.5891625615764 7.13305898491084  L 38.3881773399015 7.20164609053497  L 38.3211822660098 7.20164609053497  L 36.5793103448276 6.37860082304527  L 36.512315270936 6.37860082304527  L 36.512315270936 6.31001371742111  L 33.2295566502463 3.2235939643347  L 31.9566502463054 2.46913580246913  L 29.9467980295567 1.71467764060357  L 29.9467980295567 1.64609053497943  L 29.879802955665 1.64609053497943  L 28.9418719211823 0.960219478738001  L 27.2669950738916 0.411522633744852  L 26.3290640394089 0.480109739368991  L 26.2620689655172 0.480109739368991  L 24.1182266009852 0.342935528120713  L 24.0512315270936 0.342935528120713  L 22.5103448275862 0  L 21.5724137931034 0  C 21.5724137931034 0  20.8354679802956 0.548696844993149  20.8354679802956 0.548696844993149  C 20.4334975369458 0.754458161865565  19.8975369458128 0.823045267489704  19.2275862068966 0.960219478738001  C 19.2275862068966 0.960219478738001  17.8206896551724 1.23456790123458  17.8206896551724 1.23456790123458  L 16.6147783251232 1.64609053497943  L 16.5477832512315 1.71467764060357  L 16.5477832512315 1.7832647462277  L 16.5477832512315 1.71467764060357  L 15.0738916256158 1.85185185185184  L 13.5330049261084 2.46913580246913  L 13.3320197044335 2.46913580246913  L 12.0591133004926 2.33196159122085  L 10.1162561576355 2.60631001371743  L 8.50837438423646 2.60631001371743  L 7.8384236453202 3.29218106995885  L 7.77142857142857 3.29218106995885  L 6.96748768472907 3.49794238683127  L 7.3024630541872 4.32098765432099  L 7.3024630541872 5.62414266117969  L 7.10147783251231 6.79012345679012  L 8.24039408866995 7.75034293552813  L 8.30738916256159 7.75034293552813  C 8.30738916256159 7.75034293552813  9.24532019704433 8.8477366255144  9.24532019704433 8.8477366255144  C 9.84827586206897 9.3278463648834  10.1162561576355 9.67078189300411  10.1162561576355 10.082304526749  C 10.1162561576355 10.082304526749  10.4512315270936 11.1111111111111  10.4512315270936 11.1111111111111  C 10.4512315270936 11.1111111111111  10.920197044335 12.1399176954732  10.920197044335 12.1399176954732  C 10.8532019704434 12.1399176954732  10.8532019704434 12.2085048010974  10.7862068965517 12.2085048010974  C 10.7862068965517 12.2085048010974  9.51330049261084 13.1687242798354  9.51330049261084 13.1687242798354  L 8.64236453201971 14.3347050754458  L 8.84334975369459 15.363511659808  L 9.44630541871921 16.8038408779149  L 9.51330049261084 16.9410150891632  L 9.51330049261084 17.0096021947874  C 9.51330049261084 17.0096021947874  9.37931034482758 17.5582990397805  9.37931034482758 17.5582990397805  C 9.24532019704433 17.9012345679012  9.11133004926108 18.1755829903978  8.91034482758621 18.3127572016461  C 8.50837438423646 18.6556927297668  7.8384236453202 18.6556927297668  6.76650246305419 18.3127572016461  C 6.76650246305419 18.3127572016461  5.09162561576354 17.9698216735254  5.09162561576354 17.9698216735254  L 5.02463054187192 17.9698216735254  L 4.9576354679803 17.9698216735254  L 3.75172413793103 17.3525377229081  L 1.80886699507389 17.2839506172839  L 1.87586206896552 17.3525377229081  C 1.87586206896552 17.3525377229081  1.67487684729064 20.7818930041152  1.67487684729064 20.7818930041152  C 1.60788177339902 21.2620027434842  1.27290640394089 21.4677640603567  0.80394088669951 21.5363511659808  C 0.602955665024634 21.6049382716049  0.468965517241381 21.8792866941015  0.535960591133003 22.4279835390946  C 0.535960591133003 22.4279835390946  0.535960591133003 22.4965706447188  0.535960591133003 22.4965706447188  L 0.468965517241381 22.4965706447188  C 0.468965517241381 22.4965706447188  0.334975369458128 23.3882030178326  0.334975369458128 23.3882030178326  C 0.80394088669951 23.7997256515775  1.13891625615764 24.1426611796982  1.27290640394089 24.4170096021948  C 1.27290640394089 24.4170096021948  1.60788177339902 26.0631001371742  1.60788177339902 26.0631001371742  C 1.60788177339902 26.0631001371742  1.60788177339902 26.6803840877915  1.60788177339902 26.6803840877915  C 1.54088669950739 27.0233196159122  1.47389162561577 27.2976680384088  1.33990147783251 27.5720164609053  C 1.33990147783251 27.5720164609053  0.870935960591131 28.9437585733882  0.870935960591131 28.9437585733882  L 0 30.6584362139918  L 0 31.0013717421125  L 0.133990147783253 31.8244170096022  C 0.133990147783253 31.8244170096022  1.00492610837438 32.9903978052126  1.00492610837438 32.9903978052126  C 1.27290640394089 33.3333333333333  1.40689655172413 33.5390946502058  1.47389162561577 33.7448559670782  C 1.47389162561577 33.7448559670782  2.27783251231527 34.9108367626886  2.27783251231527 34.9108367626886  C 2.27783251231527 34.9108367626886  3.48374384236454 36.2825788751715  3.48374384236454 36.2825788751715  C 3.95270935960592 36.7626886145405  4.28768472906404 36.9684499314129  4.42167487684729 36.9684499314129  C 4.42167487684729 36.9684499314129  5.69458128078818 36.1454046639232  5.69458128078818 36.1454046639232  C 5.96256157635468 35.9396433470507  6.16354679802956 35.8024691358025  6.49852216748769 35.8024691358025  C 6.76650246305419 35.8024691358025  7.16847290640394 36.0082304526749  7.77142857142857 36.4197530864197  C 7.77142857142857 36.4197530864197  7.8384236453202 36.4197530864197  7.8384236453202 36.4197530864197  L 7.8384236453202 36.4883401920439  L 8.50837438423646 37.3113854595336  L 8.84334975369459 38.1344307270233  L 9.11133004926108 38.477366255144  L 9.31231527093596 38.6145404663923  L 10.1832512315271 39.2318244170096  C 10.1832512315271 39.2318244170096  10.6522167487685 39.3004115226337  10.6522167487685 39.3004115226337  C 10.920197044335 39.3689986282579  11.1881773399015 39.5747599451303  11.3891625615764 39.8491083676269  C 11.5231527093596 40.0548696844993  12.2600985221675 40.3292181069959  13.5330049261084 40.6721536351166  C 13.5330049261084 40.6721536351166  13.6 40.6721536351166  13.6 40.6721536351166  L 15.6098522167488 41.4266117969822  L 15.6768472906404 41.4266117969822  L 15.743842364532 41.4266117969822  L 17.1507389162562 42.1124828532236  L 19.5625615763547 42.7297668038409  L 19.6295566502463 42.798353909465  L 22.7783251231527 42.9355281207133  L 24.1852216748769 42.3868312757202  L 25.4581280788177 42.3868312757202  L 25.4581280788177 42.4554183813443  L 25.5251231527094 42.5240054869684  L 26.5970443349754 43.8957475994513  L 26.5970443349754 43.9643347050754  L 27.2669950738916 45.0617283950617  L 27.8029556650246 45.679012345679  L 28.5399014778325 46.0219478737997  L 28.6068965517241 46.0905349794239  L 28.6738916256158 46.159122085048  L 29.2768472906404 47.5308641975309  L 29.2768472906404 47.599451303155  L 29.343842364532 47.599451303155  L 29.343842364532 47.6680384087791  L 29.6788177339902 49.1769547325103  L 30.6167487684729 49.519890260631  L 30.6837438423645 49.519890260631  L 30.7507389162562 49.519890260631  L 31.487684729064 50  L 32.4926108374384 49.7942386831276  L 32.7605911330049 48.7654320987654  L 32.7605911330049 48.6968449931413  L 32.8275862068966 48.6282578875171  L 33.9665024630542 47.4622770919067  L 35.2394088669951 47.8052126200274  L 35.2394088669951 47.9423868312757  L 35.8423645320197 49.3141289437586  L 37.1152709359606 48.8340192043896  L 37.2492610837438 47.5308641975309  L 37.2492610837438 47.4622770919067  L 37.2492610837438 47.3936899862826  L 37.3162561576355 47.3251028806584  L 38.1871921182266 46.8449931412894  L 37.9862068965517 44.9245541838134  L 37.9862068965517 44.7873799725652  L 37.9862068965517 44.718792866941  L 38.9911330049261 42.5925925925926  L 39.9960591133005 42.1810699588477  L 39.5940886699507 40.2606310013717  L 40.5990147783251 40.2606310013717  L 40.5320197044335 39.3689986282579  L 39.9960591133005 37.517146776406  L 39.9960591133005 37.3799725651577  L 40.1300492610838 36.076817558299  L 40.1300492610838 35.8710562414266  L 40.264039408867 35.8024691358025  L 40.9339901477833 34.9108367626886  L 41.0679802955665 34.7736625514403  L 41.2689655172414 34.7736625514403  L 43.0778325123153 35.116598079561  L 43.1448275862069 35.116598079561  L 44.6187192118227 35.5281207133059  L 45.8916256157636 35.116598079561  L 46.6285714285714 36.6255144032922  L 46.6955665024631 36.6941015089163  L 46.6955665024631 37.7914951989026  C 46.6955665024631 37.7914951989026  46.8965517241379 38.8203017832647  46.8965517241379 38.8203017832647  C 47.0305418719212 39.2318244170096  47.2985221674877 39.5061728395062  47.5665024630542 39.5747599451303  C 47.5665024630542 39.5747599451303  47.7004926108374 39.5747599451303  47.7004926108374 39.5747599451303  C 48.3034482758621 39.7119341563786  48.6384236453202 39.9862825788752  48.7054187192118 40.39780521262  C 48.7724137931035 40.7407407407407  49.04039408867 41.2208504801097  49.5093596059113 41.7695473251029  C 49.5093596059113 41.7695473251029  50.112315270936 42.6611796982167  50.112315270936 42.6611796982167  L 50.112315270936 42.7297668038409  L 50.5142857142857 43.4842249657064  L 51.1172413793104 43.4156378600823  L 52.256157635468 42.3868312757202  L 52.9931034482759 43.9643347050754  L 54.4669950738916 44.4444444444444  L 54.5339901477833 44.4444444444444  L 54.6009852216749 44.5130315500686  L 55.3379310344828 45.8847736625514  L 55.6729064039409 46.0905349794239  L 55.7399014778325 44.7873799725652  L 55.7399014778325 44.718792866941  L 55.7399014778325 44.5130315500686  L 58.687684729064 44.4444444444444  C 58.687684729064 44.4444444444444  58.7546798029557 44.1700960219479  58.7546798029557 44.1700960219479  C 58.8216748768473 44.0329218106996  58.8216748768473 43.758573388203  58.687684729064 43.5528120713306  C 58.4866995073892 43.1412894375857  58.4197044334975 42.798353909465  58.3527093596059 42.318244170096  C 58.2857142857143 41.7695473251029  58.3527093596059 41.358024691358  58.4866995073892 41.2208504801097  C 58.687684729064 40.9465020576132  58.8216748768473 40.9465020576132  59.1566502463054 41.0150891632373  C 59.1566502463054 41.0150891632373  60.3625615763547 41.4266117969822  60.3625615763547 41.4266117969822  L 60.496551724138 40.5349794238683  L 58.2857142857143 39.5061728395062  L 58.1517241379311 39.5061728395062  L 58.0847290640394 39.3689986282579  L 58.0847290640394 39.3004115226337  L 58.0847290640394 39.2318244170096  L 57.7497536945813 36.4883401920439  L 57.8167487684729 34.7736625514403  L 57.8167487684729 34.5679012345679  L 57.8167487684729 34.4307270233196  L 61.5014778325123 34.9108367626886  C 61.5014778325123 34.9108367626886  62.4394088669951 34.0192043895747  62.4394088669951 34.0192043895747  C 62.64039408867 33.676268861454  62.5733990147783 33.4019204389575  62.4394088669951 33.3333333333333  C 61.5014778325123 32.9903978052126  61.0325123152709 32.5788751714678  61.0325123152709 32.1673525377229  C 61.0325123152709 31.9615912208505  61.0995073891626 31.6872427983539  61.4344827586207 31.5500685871056  C 61.4344827586207 31.5500685871056  62.9753694581281 29.9725651577503  62.9753694581281 29.9725651577503  L 64.6502463054187 29.9039780521262  L 65.5211822660099 28.3950617283951  L 65.5211822660099 26.9547325102881  C 65.5211822660099 26.9547325102881  66.7940886699508 26.6803840877915  66.7940886699508 26.6803840877915  C 67.1290640394089 25.6515775034294  67.3300492610838 25.1028806584362  67.464039408867 24.8971193415638  C 67.464039408867 24.8971193415638  68 23.7311385459534  68 23.7311385459534  L 67.0620689655173 22.0164609053498  L 67.0620689655173 21.9478737997257  L 67.0620689655173 21.8792866941015  L 66.4591133004926 19.5473251028807  L 66.4591133004926 19.4787379972565  L 66.0571428571429 17.0781893004115  L 65.2532019704434 15.7064471879287  L 64.0472906403941 14.4718792866941  L 64.0472906403941 14.40329218107  L 64.0472906403941 14.3347050754458  L 63.9802955665025 14.2661179698217  L 63.9133004926109 12.962962962963  L 61.7024630541872 13.6488340192044  L 61.6354679802956 13.5802469135802  L 60.6305418719212 12.4142661179698  L 57.615763546798 10.082304526749  L 57.5487684729064 10.082304526749  L 56.4098522167488 8.57338820301783  L 55.6729064039409 8.09327846364884  L 55.2039408866995 8.8477366255144  L 55.2039408866995 8.98491083676269  L 55.1369458128079 9.05349794238682  L 55.0699507389163 9.05349794238682  L 54.935960591133 9.05349794238682  L 53.9980295566503 9.12208504801098  L 53.864039408867 9.19067215363512  L 53.7970443349754 9.19067215363512  C 53.7970443349754 9.19067215363512  51.5862068965517 6.72153635116599  51.5862068965517 6.72153635116599  C 51.1172413793104 6.51577503429355  50.648275862069 6.03566529492456  49.9783251231527 5.34979423868313  C 49.9783251231527 5.34979423868313  48.9733990147783 4.59533607681755  48.9733990147783 4.59533607681755  L 48.9064039408867 4.52674897119341  L 47.7674876847291 3.84087791495198  L 47.0975369458128 4.38957475994513  L 47.0305418719212 4.52674897119341  L 46.9635467980296 4.45816186556927  L 46.8965517241379 4.45816186556927  L 46.2935960591133 4.32098765432099  L 45.623645320197 4.66392318244171  L 45.5566502463054 4.73251028806585  L 45.4896551724138 4.80109739368999  L 45.4226600985222 4.80109739368999  C 45.4226600985222 4.80109739368999  44.4847290640394 4.93827160493826  44.4847290640394 4.93827160493826  C 43.2118226600985 4.1838134430727  41.9389162561576 3.42935528120713  40.5990147783251 2.60631001371743  Z " fill-rule="nonzero" fill="#4a9eff" stroke="none" transform="matrix(1 0 0 1 1898 1863 )" />
    <path d="M 40.5990147783251 2.60631001371743  C 40.5990147783251 2.60631001371743  39.9960591133005 3.08641975308642  39.9960591133005 3.08641975308642  C 39.9960591133005 3.36076817558299  40.1300492610838 3.97805212620028  40.3310344827586 4.86968449931412  C 40.3310344827586 4.86968449931412  40.3310344827586 4.93827160493826  40.3310344827586 4.93827160493826  L 40.3980295566503 5.00685871056242  L 40.3310344827586 5.00685871056242  L 39.5940886699507 6.72153635116599  L 38.5891625615764 7.13305898491084  L 38.3881773399015 7.20164609053497  L 38.3211822660098 7.20164609053497  L 36.5793103448276 6.37860082304527  L 36.512315270936 6.37860082304527  L 36.512315270936 6.31001371742111  L 33.2295566502463 3.2235939643347  L 31.9566502463054 2.46913580246913  L 29.9467980295567 1.71467764060357  L 29.9467980295567 1.64609053497943  L 29.879802955665 1.64609053497943  L 28.9418719211823 0.960219478738001  L 27.2669950738916 0.411522633744852  L 26.3290640394089 0.480109739368991  L 26.2620689655172 0.480109739368991  L 24.1182266009852 0.342935528120713  L 24.0512315270936 0.342935528120713  L 22.5103448275862 0  L 21.5724137931034 0  C 21.5724137931034 0  20.8354679802956 0.548696844993149  20.8354679802956 0.548696844993149  C 20.4334975369458 0.754458161865565  19.8975369458128 0.823045267489704  19.2275862068966 0.960219478738001  C 19.2275862068966 0.960219478738001  17.8206896551724 1.23456790123458  17.8206896551724 1.23456790123458  L 16.6147783251232 1.64609053497943  L 16.5477832512315 1.71467764060357  L 16.5477832512315 1.7832647462277  L 16.5477832512315 1.71467764060357  L 15.0738916256158 1.85185185185184  L 13.5330049261084 2.46913580246913  L 13.3320197044335 2.46913580246913  L 12.0591133004926 2.33196159122085  L 10.1162561576355 2.60631001371743  L 8.50837438423646 2.60631001371743  L 7.8384236453202 3.29218106995885  L 7.77142857142857 3.29218106995885  L 6.96748768472907 3.49794238683127  L 7.3024630541872 4.32098765432099  L 7.3024630541872 5.62414266117969  L 7.10147783251231 6.79012345679012  L 8.24039408866995 7.75034293552813  L 8.30738916256159 7.75034293552813  C 8.30738916256159 7.75034293552813  9.24532019704433 8.8477366255144  9.24532019704433 8.8477366255144  C 9.84827586206897 9.3278463648834  10.1162561576355 9.67078189300411  10.1162561576355 10.082304526749  C 10.1162561576355 10.082304526749  10.4512315270936 11.1111111111111  10.4512315270936 11.1111111111111  C 10.4512315270936 11.1111111111111  10.920197044335 12.1399176954732  10.920197044335 12.1399176954732  C 10.8532019704434 12.1399176954732  10.8532019704434 12.2085048010974  10.7862068965517 12.2085048010974  C 10.7862068965517 12.2085048010974  9.51330049261084 13.1687242798354  9.51330049261084 13.1687242798354  L 8.64236453201971 14.3347050754458  L 8.84334975369459 15.363511659808  L 9.44630541871921 16.8038408779149  L 9.51330049261084 16.9410150891632  L 9.51330049261084 17.0096021947874  C 9.51330049261084 17.0096021947874  9.37931034482758 17.5582990397805  9.37931034482758 17.5582990397805  C 9.24532019704433 17.9012345679012  9.11133004926108 18.1755829903978  8.91034482758621 18.3127572016461  C 8.50837438423646 18.6556927297668  7.8384236453202 18.6556927297668  6.76650246305419 18.3127572016461  C 6.76650246305419 18.3127572016461  5.09162561576354 17.9698216735254  5.09162561576354 17.9698216735254  L 5.02463054187192 17.9698216735254  L 4.9576354679803 17.9698216735254  L 3.75172413793103 17.3525377229081  L 1.80886699507389 17.2839506172839  L 1.87586206896552 17.3525377229081  C 1.87586206896552 17.3525377229081  1.67487684729064 20.7818930041152  1.67487684729064 20.7818930041152  C 1.60788177339902 21.2620027434842  1.27290640394089 21.4677640603567  0.80394088669951 21.5363511659808  C 0.602955665024634 21.6049382716049  0.468965517241381 21.8792866941015  0.535960591133003 22.4279835390946  C 0.535960591133003 22.4279835390946  0.535960591133003 22.4965706447188  0.535960591133003 22.4965706447188  L 0.468965517241381 22.4965706447188  C 0.468965517241381 22.4965706447188  0.334975369458128 23.3882030178326  0.334975369458128 23.3882030178326  C 0.80394088669951 23.7997256515775  1.13891625615764 24.1426611796982  1.27290640394089 24.4170096021948  C 1.27290640394089 24.4170096021948  1.60788177339902 26.0631001371742  1.60788177339902 26.0631001371742  C 1.60788177339902 26.0631001371742  1.60788177339902 26.6803840877915  1.60788177339902 26.6803840877915  C 1.54088669950739 27.0233196159122  1.47389162561577 27.2976680384088  1.33990147783251 27.5720164609053  C 1.33990147783251 27.5720164609053  0.870935960591131 28.9437585733882  0.870935960591131 28.9437585733882  L 0 30.6584362139918  L 0 31.0013717421125  L 0.133990147783253 31.8244170096022  C 0.133990147783253 31.8244170096022  1.00492610837438 32.9903978052126  1.00492610837438 32.9903978052126  C 1.27290640394089 33.3333333333333  1.40689655172413 33.5390946502058  1.47389162561577 33.7448559670782  C 1.47389162561577 33.7448559670782  2.27783251231527 34.9108367626886  2.27783251231527 34.9108367626886  C 2.27783251231527 34.9108367626886  3.48374384236454 36.2825788751715  3.48374384236454 36.2825788751715  C 3.95270935960592 36.7626886145405  4.28768472906404 36.9684499314129  4.42167487684729 36.9684499314129  C 4.42167487684729 36.9684499314129  5.69458128078818 36.1454046639232  5.69458128078818 36.1454046639232  C 5.96256157635468 35.9396433470507  6.16354679802956 35.8024691358025  6.49852216748769 35.8024691358025  C 6.76650246305419 35.8024691358025  7.16847290640394 36.0082304526749  7.77142857142857 36.4197530864197  C 7.77142857142857 36.4197530864197  7.8384236453202 36.4197530864197  7.8384236453202 36.4197530864197  L 7.8384236453202 36.4883401920439  L 8.50837438423646 37.3113854595336  L 8.84334975369459 38.1344307270233  L 9.11133004926108 38.477366255144  L 9.31231527093596 38.6145404663923  L 10.1832512315271 39.2318244170096  C 10.1832512315271 39.2318244170096  10.6522167487685 39.3004115226337  10.6522167487685 39.3004115226337  C 10.920197044335 39.3689986282579  11.1881773399015 39.5747599451303  11.3891625615764 39.8491083676269  C 11.5231527093596 40.0548696844993  12.2600985221675 40.3292181069959  13.5330049261084 40.6721536351166  C 13.5330049261084 40.6721536351166  13.6 40.6721536351166  13.6 40.6721536351166  L 15.6098522167488 41.4266117969822  L 15.6768472906404 41.4266117969822  L 15.743842364532 41.4266117969822  L 17.1507389162562 42.1124828532236  L 19.5625615763547 42.7297668038409  L 19.6295566502463 42.798353909465  L 22.7783251231527 42.9355281207133  L 24.1852216748769 42.3868312757202  L 25.4581280788177 42.3868312757202  L 25.4581280788177 42.4554183813443  L 25.5251231527094 42.5240054869684  L 26.5970443349754 43.8957475994513  L 26.5970443349754 43.9643347050754  L 27.2669950738916 45.0617283950617  L 27.8029556650246 45.679012345679  L 28.5399014778325 46.0219478737997  L 28.6068965517241 46.0905349794239  L 28.6738916256158 46.159122085048  L 29.2768472906404 47.5308641975309  L 29.2768472906404 47.599451303155  L 29.343842364532 47.599451303155  L 29.343842364532 47.6680384087791  L 29.6788177339902 49.1769547325103  L 30.6167487684729 49.519890260631  L 30.6837438423645 49.519890260631  L 30.7507389162562 49.519890260631  L 31.487684729064 50  L 32.4926108374384 49.7942386831276  L 32.7605911330049 48.7654320987654  L 32.7605911330049 48.6968449931413  L 32.8275862068966 48.6282578875171  L 33.9665024630542 47.4622770919067  L 35.2394088669951 47.8052126200274  L 35.2394088669951 47.9423868312757  L 35.8423645320197 49.3141289437586  L 37.1152709359606 48.8340192043896  L 37.2492610837438 47.5308641975309  L 37.2492610837438 47.4622770919067  L 37.2492610837438 47.3936899862826  L 37.3162561576355 47.3251028806584  L 38.1871921182266 46.8449931412894  L 37.9862068965517 44.9245541838134  L 37.9862068965517 44.7873799725652  L 37.9862068965517 44.718792866941  L 38.9911330049261 42.5925925925926  L 39.9960591133005 42.1810699588477  L 39.5940886699507 40.2606310013717  L 40.5990147783251 40.2606310013717  L 40.5320197044335 39.3689986282579  L 39.9960591133005 37.517146776406  L 39.9960591133005 37.3799725651577  L 40.1300492610838 36.076817558299  L 40.1300492610838 35.8710562414266  L 40.264039408867 35.8024691358025  L 40.9339901477833 34.9108367626886  L 41.0679802955665 34.7736625514403  L 41.2689655172414 34.7736625514403  L 43.0778325123153 35.116598079561  L 43.1448275862069 35.116598079561  L 44.6187192118227 35.5281207133059  L 45.8916256157636 35.116598079561  L 46.6285714285714 36.6255144032922  L 46.6955665024631 36.6941015089163  L 46.6955665024631 37.7914951989026  C 46.6955665024631 37.7914951989026  46.8965517241379 38.8203017832647  46.8965517241379 38.8203017832647  C 47.0305418719212 39.2318244170096  47.2985221674877 39.5061728395062  47.5665024630542 39.5747599451303  C 47.5665024630542 39.5747599451303  47.7004926108374 39.5747599451303  47.7004926108374 39.5747599451303  C 48.3034482758621 39.7119341563786  48.6384236453202 39.9862825788752  48.7054187192118 40.39780521262  C 48.7724137931035 40.7407407407407  49.04039408867 41.2208504801097  49.5093596059113 41.7695473251029  C 49.5093596059113 41.7695473251029  50.112315270936 42.6611796982167  50.112315270936 42.6611796982167  L 50.112315270936 42.7297668038409  L 50.5142857142857 43.4842249657064  L 51.1172413793104 43.4156378600823  L 52.256157635468 42.3868312757202  L 52.9931034482759 43.9643347050754  L 54.4669950738916 44.4444444444444  L 54.5339901477833 44.4444444444444  L 54.6009852216749 44.5130315500686  L 55.3379310344828 45.8847736625514  L 55.6729064039409 46.0905349794239  L 55.7399014778325 44.7873799725652  L 55.7399014778325 44.718792866941  L 55.7399014778325 44.5130315500686  L 58.687684729064 44.4444444444444  C 58.687684729064 44.4444444444444  58.7546798029557 44.1700960219479  58.7546798029557 44.1700960219479  C 58.8216748768473 44.0329218106996  58.8216748768473 43.758573388203  58.687684729064 43.5528120713306  C 58.4866995073892 43.1412894375857  58.4197044334975 42.798353909465  58.3527093596059 42.318244170096  C 58.2857142857143 41.7695473251029  58.3527093596059 41.358024691358  58.4866995073892 41.2208504801097  C 58.687684729064 40.9465020576132  58.8216748768473 40.9465020576132  59.1566502463054 41.0150891632373  C 59.1566502463054 41.0150891632373  60.3625615763547 41.4266117969822  60.3625615763547 41.4266117969822  L 60.496551724138 40.5349794238683  L 58.2857142857143 39.5061728395062  L 58.1517241379311 39.5061728395062  L 58.0847290640394 39.3689986282579  L 58.0847290640394 39.3004115226337  L 58.0847290640394 39.2318244170096  L 57.7497536945813 36.4883401920439  L 57.8167487684729 34.7736625514403  L 57.8167487684729 34.5679012345679  L 57.8167487684729 34.4307270233196  L 61.5014778325123 34.9108367626886  C 61.5014778325123 34.9108367626886  62.4394088669951 34.0192043895747  62.4394088669951 34.0192043895747  C 62.64039408867 33.676268861454  62.5733990147783 33.4019204389575  62.4394088669951 33.3333333333333  C 61.5014778325123 32.9903978052126  61.0325123152709 32.5788751714678  61.0325123152709 32.1673525377229  C 61.0325123152709 31.9615912208505  61.0995073891626 31.6872427983539  61.4344827586207 31.5500685871056  C 61.4344827586207 31.5500685871056  62.9753694581281 29.9725651577503  62.9753694581281 29.9725651577503  L 64.6502463054187 29.9039780521262  L 65.5211822660099 28.3950617283951  L 65.5211822660099 26.9547325102881  C 65.5211822660099 26.9547325102881  66.7940886699508 26.6803840877915  66.7940886699508 26.6803840877915  C 67.1290640394089 25.6515775034294  67.3300492610838 25.1028806584362  67.464039408867 24.8971193415638  C 67.464039408867 24.8971193415638  68 23.7311385459534  68 23.7311385459534  L 67.0620689655173 22.0164609053498  L 67.0620689655173 21.9478737997257  L 67.0620689655173 21.8792866941015  L 66.4591133004926 19.5473251028807  L 66.4591133004926 19.4787379972565  L 66.0571428571429 17.0781893004115  L 65.2532019704434 15.7064471879287  L 64.0472906403941 14.4718792866941  L 64.0472906403941 14.40329218107  L 64.0472906403941 14.3347050754458  L 63.9802955665025 14.2661179698217  L 63.9133004926109 12.962962962963  L 61.7024630541872 13.6488340192044  L 61.6354679802956 13.5802469135802  L 60.6305418719212 12.4142661179698  L 57.615763546798 10.082304526749  L 57.5487684729064 10.082304526749  L 56.4098522167488 8.57338820301783  L 55.6729064039409 8.09327846364884  L 55.2039408866995 8.8477366255144  L 55.2039408866995 8.98491083676269  L 55.1369458128079 9.05349794238682  L 55.0699507389163 9.05349794238682  L 54.935960591133 9.05349794238682  L 53.9980295566503 9.12208504801098  L 53.864039408867 9.19067215363512  L 53.7970443349754 9.19067215363512  C 53.7970443349754 9.19067215363512  51.5862068965517 6.72153635116599  51.5862068965517 6.72153635116599  C 51.1172413793104 6.51577503429355  50.648275862069 6.03566529492456  49.9783251231527 5.34979423868313  C 49.9783251231527 5.34979423868313  48.9733990147783 4.59533607681755  48.9733990147783 4.59533607681755  L 48.9064039408867 4.52674897119341  L 47.7674876847291 3.84087791495198  L 47.0975369458128 4.38957475994513  L 47.0305418719212 4.52674897119341  L 46.9635467980296 4.45816186556927  L 46.8965517241379 4.45816186556927  L 46.2935960591133 4.32098765432099  L 45.623645320197 4.66392318244171  L 45.5566502463054 4.73251028806585  L 45.4896551724138 4.80109739368999  L 45.4226600985222 4.80109739368999  C 45.4226600985222 4.80109739368999  44.4847290640394 4.93827160493826  44.4847290640394 4.93827160493826  C 43.2118226600985 4.1838134430727  41.9389162561576 3.42935528120713  40.5990147783251 2.60631001371743  Z " stroke-width="2" stroke="#ffffff" fill="none" transform="matrix(1 0 0 1 1898 1863 )" mask="url(#clip209)" />
  </g>
</svg>