<?xml version="1.0" encoding="utf-8"?>
<svg version="1.1" xmlns:xlink="http://www.w3.org/1999/xlink" width="16px" height="26px" xmlns="http://www.w3.org/2000/svg">
  <defs>
    <mask fill="white" id="clip463">
      <path d="M 11.2489082969432 0  L 9.36244541484716 1.56955380577429  L 8.10480349344978 4.98162729658793  L 8.10480349344978 7.23359580052493  L 8.10480349344978 7.30183727034122  L 7.4061135371179 8.46194225721785  C 7.4061135371179 8.46194225721785  7.26637554585153 9.28083989501312  7.26637554585153 9.28083989501312  C 7.4061135371179 9.75853018372704  7.19650655021835 10.1679790026247  6.70742358078602 10.4409448818898  C 6.70742358078602 10.4409448818898  6.56768558951965 10.509186351706  6.56768558951965 10.509186351706  L 6.49781659388647 10.509186351706  L 6.42794759825329 10.4409448818898  L 4.68122270742359 10.2362204724409  L 3.77292576419214 11.0551181102362  L 1.117903930131 11.4645669291339  L 0 11.4645669291339  L 0.698689956331878 11.9422572178478  L 3.21397379912663 12.2152230971129  L 3.35371179039302 12.2152230971129  L 3.49344978165939 12.2152230971129  L 3.56331877729257 12.2834645669291  L 3.56331877729257 12.3517060367454  L 4.19213973799127 13.8530183727034  C 4.19213973799127 13.8530183727034  4.89082969432314 14.3307086614173  4.89082969432314 14.3307086614173  C 5.10043668122271 14.6036745406824  5.24017467248908 15.0131233595801  5.24017467248908 15.7637795275591  C 5.24017467248908 15.7637795275591  5.31004366812227 17.6062992125984  5.31004366812227 17.6062992125984  L 6.14847161572053 18.3569553805774  L 6.21834061135371 18.3569553805774  L 6.21834061135371 18.4251968503937  L 6.2882096069869 18.4251968503937  L 6.70742358078602 19.7900262467192  L 6.70742358078602 20.5406824146982  L 6.21834061135371 21.2230971128609  L 6.07860262008735 21.8372703412074  L 6.2882096069869 22.5196850393701  C 6.2882096069869 22.5196850393701  7.12663755458516 23.0656167979003  7.12663755458516 23.0656167979003  C 8.03493449781659 23.4068241469816  8.52401746724892 23.6115485564304  8.73362445414847 23.9527559055118  C 8.73362445414847 23.9527559055118  9.2227074235808 24.9763779527559  9.2227074235808 24.9763779527559  C 9.78165938864629 25.249343832021  10.061135371179 25.5223097112861  10.2008733624454 25.7952755905512  C 10.2008733624454 25.7952755905512  10.8296943231441 26  10.8296943231441 26  L 10.8995633187773 26  C 10.8995633187773 26  10.6200873362446 24.498687664042  10.6200873362446 24.498687664042  C 10.5502183406113 24.1574803149606  10.5502183406113 23.8162729658793  10.6899563318777 23.6797900262467  C 10.8296943231441 23.4750656167979  10.9694323144105 23.3385826771654  11.2489082969432 23.2703412073491  C 11.2489082969432 23.2703412073491  12.296943231441 22.9291338582677  12.296943231441 22.9291338582677  L 12.3668122270742 22.8608923884514  L 12.4366812227074 22.8608923884514  L 12.5065502183406 22.9291338582677  L 12.9956331877729 23.0656167979003  L 13.6244541484716 22.7244094488189  L 13.6244541484716 22.5879265091863  L 13.8340611353712 20.8818897637795  L 13.4148471615721 20.0629921259843  L 12.8558951965066 19.7900262467192  L 12.1572052401747 19.7217847769029  L 12.0174672489083 19.7217847769029  L 11.8777292576419 19.6535433070866  L 11.5982532751092 17.8792650918635  L 11.6681222707424 14.3989501312336  L 11.8078602620087 14.2624671916011  L 12.8558951965066 12.8293963254593  L 14.3930131004367 13.6482939632546  L 15.3013100436681 13.6482939632546  C 15.3013100436681 13.6482939632546  16 9.21259842519685  16 9.21259842519685  C 15.7903930131004 8.73490813648295  15.5807860262009 8.39370078740158  15.1615720524018 8.18897637795276  C 15.1615720524018 8.18897637795276  14.7423580786026 8.12073490813649  14.7423580786026 8.12073490813649  L 14.7423580786026 8.18897637795276  L 14.5327510917031 8.18897637795276  L 13.4148471615721 8.39370078740158  L 13.3449781659389 8.25721784776903  L 13.2751091703057 8.18897637795276  L 12.5065502183406 7.23359580052493  L 12.5065502183406 7.16535433070866  L 12.4366812227074 7.09711286089239  L 12.4366812227074 5.39107611548557  L 12.7161572052402 4.43569553805775  C 12.7161572052402 4.43569553805775  12.9956331877729 4.02624671916011  12.9956331877729 4.02624671916011  C 12.9956331877729 3.75328083989501  13.0655021834061 3.48031496062992  13.3449781659389 3.13910761154855  C 13.3449781659389 3.13910761154855  13.6244541484716 2.79790026246719  13.6244541484716 2.79790026246719  L 13.6943231441048 1.63779527559056  L 12.646288209607 0.68241469816273  L 11.2489082969432 0  Z " fill-rule="evenodd" />
    </mask>
  </defs>
  <g transform="matrix(1 0 0 1 -1974 -1865 )">
    <path d="M 11.2489082969432 0  L 9.36244541484716 1.56955380577429  L 8.10480349344978 4.98162729658793  L 8.10480349344978 7.23359580052493  L 8.10480349344978 7.30183727034122  L 7.4061135371179 8.46194225721785  C 7.4061135371179 8.46194225721785  7.26637554585153 9.28083989501312  7.26637554585153 9.28083989501312  C 7.4061135371179 9.75853018372704  7.19650655021835 10.1679790026247  6.70742358078602 10.4409448818898  C 6.70742358078602 10.4409448818898  6.56768558951965 10.509186351706  6.56768558951965 10.509186351706  L 6.49781659388647 10.509186351706  L 6.42794759825329 10.4409448818898  L 4.68122270742359 10.2362204724409  L 3.77292576419214 11.0551181102362  L 1.117903930131 11.4645669291339  L 0 11.4645669291339  L 0.698689956331878 11.9422572178478  L 3.21397379912663 12.2152230971129  L 3.35371179039302 12.2152230971129  L 3.49344978165939 12.2152230971129  L 3.56331877729257 12.2834645669291  L 3.56331877729257 12.3517060367454  L 4.19213973799127 13.8530183727034  C 4.19213973799127 13.8530183727034  4.89082969432314 14.3307086614173  4.89082969432314 14.3307086614173  C 5.10043668122271 14.6036745406824  5.24017467248908 15.0131233595801  5.24017467248908 15.7637795275591  C 5.24017467248908 15.7637795275591  5.31004366812227 17.6062992125984  5.31004366812227 17.6062992125984  L 6.14847161572053 18.3569553805774  L 6.21834061135371 18.3569553805774  L 6.21834061135371 18.4251968503937  L 6.2882096069869 18.4251968503937  L 6.70742358078602 19.7900262467192  L 6.70742358078602 20.5406824146982  L 6.21834061135371 21.2230971128609  L 6.07860262008735 21.8372703412074  L 6.2882096069869 22.5196850393701  C 6.2882096069869 22.5196850393701  7.12663755458516 23.0656167979003  7.12663755458516 23.0656167979003  C 8.03493449781659 23.4068241469816  8.52401746724892 23.6115485564304  8.73362445414847 23.9527559055118  C 8.73362445414847 23.9527559055118  9.2227074235808 24.9763779527559  9.2227074235808 24.9763779527559  C 9.78165938864629 25.249343832021  10.061135371179 25.5223097112861  10.2008733624454 25.7952755905512  C 10.2008733624454 25.7952755905512  10.8296943231441 26  10.8296943231441 26  L 10.8995633187773 26  C 10.8995633187773 26  10.6200873362446 24.498687664042  10.6200873362446 24.498687664042  C 10.5502183406113 24.1574803149606  10.5502183406113 23.8162729658793  10.6899563318777 23.6797900262467  C 10.8296943231441 23.4750656167979  10.9694323144105 23.3385826771654  11.2489082969432 23.2703412073491  C 11.2489082969432 23.2703412073491  12.296943231441 22.9291338582677  12.296943231441 22.9291338582677  L 12.3668122270742 22.8608923884514  L 12.4366812227074 22.8608923884514  L 12.5065502183406 22.9291338582677  L 12.9956331877729 23.0656167979003  L 13.6244541484716 22.7244094488189  L 13.6244541484716 22.5879265091863  L 13.8340611353712 20.8818897637795  L 13.4148471615721 20.0629921259843  L 12.8558951965066 19.7900262467192  L 12.1572052401747 19.7217847769029  L 12.0174672489083 19.7217847769029  L 11.8777292576419 19.6535433070866  L 11.5982532751092 17.8792650918635  L 11.6681222707424 14.3989501312336  L 11.8078602620087 14.2624671916011  L 12.8558951965066 12.8293963254593  L 14.3930131004367 13.6482939632546  L 15.3013100436681 13.6482939632546  C 15.3013100436681 13.6482939632546  16 9.21259842519685  16 9.21259842519685  C 15.7903930131004 8.73490813648295  15.5807860262009 8.39370078740158  15.1615720524018 8.18897637795276  C 15.1615720524018 8.18897637795276  14.7423580786026 8.12073490813649  14.7423580786026 8.12073490813649  L 14.7423580786026 8.18897637795276  L 14.5327510917031 8.18897637795276  L 13.4148471615721 8.39370078740158  L 13.3449781659389 8.25721784776903  L 13.2751091703057 8.18897637795276  L 12.5065502183406 7.23359580052493  L 12.5065502183406 7.16535433070866  L 12.4366812227074 7.09711286089239  L 12.4366812227074 5.39107611548557  L 12.7161572052402 4.43569553805775  C 12.7161572052402 4.43569553805775  12.9956331877729 4.02624671916011  12.9956331877729 4.02624671916011  C 12.9956331877729 3.75328083989501  13.0655021834061 3.48031496062992  13.3449781659389 3.13910761154855  C 13.3449781659389 3.13910761154855  13.6244541484716 2.79790026246719  13.6244541484716 2.79790026246719  L 13.6943231441048 1.63779527559056  L 12.646288209607 0.68241469816273  L 11.2489082969432 0  Z " fill-rule="nonzero" fill="#4a9eff" stroke="none" transform="matrix(1 0 0 1 1974 1865 )" />
    <path d="M 11.2489082969432 0  L 9.36244541484716 1.56955380577429  L 8.10480349344978 4.98162729658793  L 8.10480349344978 7.23359580052493  L 8.10480349344978 7.30183727034122  L 7.4061135371179 8.46194225721785  C 7.4061135371179 8.46194225721785  7.26637554585153 9.28083989501312  7.26637554585153 9.28083989501312  C 7.4061135371179 9.75853018372704  7.19650655021835 10.1679790026247  6.70742358078602 10.4409448818898  C 6.70742358078602 10.4409448818898  6.56768558951965 10.509186351706  6.56768558951965 10.509186351706  L 6.49781659388647 10.509186351706  L 6.42794759825329 10.4409448818898  L 4.68122270742359 10.2362204724409  L 3.77292576419214 11.0551181102362  L 1.117903930131 11.4645669291339  L 0 11.4645669291339  L 0.698689956331878 11.9422572178478  L 3.21397379912663 12.2152230971129  L 3.35371179039302 12.2152230971129  L 3.49344978165939 12.2152230971129  L 3.56331877729257 12.2834645669291  L 3.56331877729257 12.3517060367454  L 4.19213973799127 13.8530183727034  C 4.19213973799127 13.8530183727034  4.89082969432314 14.3307086614173  4.89082969432314 14.3307086614173  C 5.10043668122271 14.6036745406824  5.24017467248908 15.0131233595801  5.24017467248908 15.7637795275591  C 5.24017467248908 15.7637795275591  5.31004366812227 17.6062992125984  5.31004366812227 17.6062992125984  L 6.14847161572053 18.3569553805774  L 6.21834061135371 18.3569553805774  L 6.21834061135371 18.4251968503937  L 6.2882096069869 18.4251968503937  L 6.70742358078602 19.7900262467192  L 6.70742358078602 20.5406824146982  L 6.21834061135371 21.2230971128609  L 6.07860262008735 21.8372703412074  L 6.2882096069869 22.5196850393701  C 6.2882096069869 22.5196850393701  7.12663755458516 23.0656167979003  7.12663755458516 23.0656167979003  C 8.03493449781659 23.4068241469816  8.52401746724892 23.6115485564304  8.73362445414847 23.9527559055118  C 8.73362445414847 23.9527559055118  9.2227074235808 24.9763779527559  9.2227074235808 24.9763779527559  C 9.78165938864629 25.249343832021  10.061135371179 25.5223097112861  10.2008733624454 25.7952755905512  C 10.2008733624454 25.7952755905512  10.8296943231441 26  10.8296943231441 26  L 10.8995633187773 26  C 10.8995633187773 26  10.6200873362446 24.498687664042  10.6200873362446 24.498687664042  C 10.5502183406113 24.1574803149606  10.5502183406113 23.8162729658793  10.6899563318777 23.6797900262467  C 10.8296943231441 23.4750656167979  10.9694323144105 23.3385826771654  11.2489082969432 23.2703412073491  C 11.2489082969432 23.2703412073491  12.296943231441 22.9291338582677  12.296943231441 22.9291338582677  L 12.3668122270742 22.8608923884514  L 12.4366812227074 22.8608923884514  L 12.5065502183406 22.9291338582677  L 12.9956331877729 23.0656167979003  L 13.6244541484716 22.7244094488189  L 13.6244541484716 22.5879265091863  L 13.8340611353712 20.8818897637795  L 13.4148471615721 20.0629921259843  L 12.8558951965066 19.7900262467192  L 12.1572052401747 19.7217847769029  L 12.0174672489083 19.7217847769029  L 11.8777292576419 19.6535433070866  L 11.5982532751092 17.8792650918635  L 11.6681222707424 14.3989501312336  L 11.8078602620087 14.2624671916011  L 12.8558951965066 12.8293963254593  L 14.3930131004367 13.6482939632546  L 15.3013100436681 13.6482939632546  C 15.3013100436681 13.6482939632546  16 9.21259842519685  16 9.21259842519685  C 15.7903930131004 8.73490813648295  15.5807860262009 8.39370078740158  15.1615720524018 8.18897637795276  C 15.1615720524018 8.18897637795276  14.7423580786026 8.12073490813649  14.7423580786026 8.12073490813649  L 14.7423580786026 8.18897637795276  L 14.5327510917031 8.18897637795276  L 13.4148471615721 8.39370078740158  L 13.3449781659389 8.25721784776903  L 13.2751091703057 8.18897637795276  L 12.5065502183406 7.23359580052493  L 12.5065502183406 7.16535433070866  L 12.4366812227074 7.09711286089239  L 12.4366812227074 5.39107611548557  L 12.7161572052402 4.43569553805775  C 12.7161572052402 4.43569553805775  12.9956331877729 4.02624671916011  12.9956331877729 4.02624671916011  C 12.9956331877729 3.75328083989501  13.0655021834061 3.48031496062992  13.3449781659389 3.13910761154855  C 13.3449781659389 3.13910761154855  13.6244541484716 2.79790026246719  13.6244541484716 2.79790026246719  L 13.6943231441048 1.63779527559056  L 12.646288209607 0.68241469816273  L 11.2489082969432 0  Z " stroke-width="2" stroke="#ffffff" fill="none" transform="matrix(1 0 0 1 1974 1865 )" mask="url(#clip463)" />
  </g>
</svg>