<?xml version="1.0" encoding="utf-8"?>
<svg version="1.1" xmlns:xlink="http://www.w3.org/1999/xlink" width="25px" height="26px" xmlns="http://www.w3.org/2000/svg">
  <defs>
    <mask fill="white" id="clip791">
      <path d="M 24 5.05540166204987  L 23.5254237288136 3.94736842105265  L 22.7796610169491 2.8393351800554  L 21.9661016949153 2.63157894736843  L 21.8983050847458 2.63157894736843  L 21.8983050847458 2.56232686980611  L 21.8305084745763 2.56232686980611  L 21.1525423728814 2.21606648199447  L 21.0169491525424 2.21606648199447  L 20.7457627118644 2.28531855955679  L 19.864406779661 2.42382271468144  L 19.7966101694915 2.42382271468144  L 19.6610169491526 2.35457063711912  L 18.7796610169492 2.00831024930748  L 18.7796610169492 1.93905817174516  L 18.7118644067797 1.93905817174516  L 18.7118644067797 1.86980609418284  L 18.0338983050847 1.17728531855957  L 17.2881355932203 0.415512465373957  L 16.6101694915254 0  L 15.864406779661 0.692520775623269  L 14.9152542372881 1.38504155124654  L 14.6440677966102 3.46260387811634  L 14.6440677966102 3.53185595567867  L 13.7627118644068 5.05540166204987  L 13.7627118644068 5.19390581717452  L 13.6949152542373 5.19390581717452  L 13.0169491525424 5.88642659279779  L 12.2033898305085 7.47922437673131  C 12.2033898305085 7.47922437673131  12.135593220339 7.61772853185596  12.135593220339 7.61772853185596  C 11.5254237288136 8.10249307479226  10.9830508474576 8.58725761772854  10.4406779661017 9.00277008310249  C 10.4406779661017 9.00277008310249  9.76271186440678 10.2493074792244  9.76271186440678 10.2493074792244  C 9.62711864406781 10.595567867036  9.08474576271187 11.01108033241  8.06779661016949 11.4265927977839  C 8.06779661016949 11.4265927977839  7.38983050847458 12.6038781163435  7.38983050847458 12.6038781163435  L 6.23728813559323 14.196675900277  L 6.16949152542372 14.196675900277  L 6.16949152542372 14.2659279778393  L 6.03389830508475 14.2659279778393  L 0.610169491525428 13.9196675900277  L 0 14.5429362880886  L 0 15.7202216066482  L 0.54237288135594 18.005540166205  L 1.69491525423729 19.6675900277008  L 2.64406779661017 20.2216066481995  L 2.64406779661017 20.2908587257618  C 2.64406779661017 20.2908587257618  2.71186440677966 20.2908587257618  2.71186440677966 20.2908587257618  C 3.2542372881356 20.9833795013851  3.52542372881357 21.4681440443213  3.52542372881357 21.814404432133  C 3.52542372881357 21.814404432133  3.52542372881357 22.7146814404432  3.52542372881357 22.7146814404432  L 3.18644067796611 23.0609418282549  L 3.38983050847458 23.1994459833795  L 3.66101694915255 23.1994459833795  L 4.06779661016949 22.3684210526316  L 4.20338983050848 22.3684210526316  L 5.28813559322034 22.7146814404432  L 5.35593220338983 23.0609418282549  L 5.89830508474577 23.0609418282549  L 5.76271186440678 22.6454293628809  L 5.69491525423729 22.5069252077562  C 5.69491525423729 22.5069252077562  6.44067796610169 21.3296398891967  6.44067796610169 21.3296398891967  C 6.57627118644069 20.9833795013851  6.91525423728815 20.8448753462604  7.38983050847458 20.9833795013851  C 7.38983050847458 20.9833795013851  8.61016949152543 21.0526315789474  8.61016949152543 21.0526315789474  L 9.28813559322035 20.1523545706371  L 9.28813559322035 19.3213296398892  L 9.5593220338983 18.4210526315789  L 9.5593220338983 18.3518005540166  L 9.62711864406781 18.2825484764543  L 9.69491525423729 18.213296398892  L 10.1694915254237 17.9362880886427  L 10.1694915254237 17.8670360110803  L 10.2372881355932 17.8670360110803  L 10.3050847457627 17.9362880886427  L 11.3220338983051 18.0747922437673  L 11.3220338983051 18.213296398892  L 11.5254237288136 19.0443213296399  L 11.5254237288136 19.4598337950139  L 11.6610169491526 20.0831024930748  L 11.9322033898305 20.1523545706371  L 12.271186440678 19.6675900277008  L 12.271186440678 19.5983379501385  L 12.8135593220339 18.8365650969529  L 12.8813559322034 18.6980609418283  L 13.6271186440678 18.3518005540166  L 13.6949152542373 18.3518005540166  L 13.7627118644068 18.2825484764543  L 14.6440677966102 18.5595567867036  L 14.7118644067797 18.5595567867036  L 14.8474576271186 18.6288088642659  L 15.3220338983051 19.5983379501385  L 15.3220338983051 20.5678670360111  L 16 21.8836565096953  L 16 22.02216066482  L 16 22.9916897506925  L 16.2033898305085 23.4072022160665  L 16.406779661017 23.4072022160665  L 16.6779661016949 23.0609418282549  L 16.7457627118644 22.9224376731302  L 17.5593220338983 23.4072022160665  L 17.6271186440678 23.4072022160665  L 17.6949152542373 23.4072022160665  L 17.6949152542373 23.5457063711911  L 17.6949152542373 23.6149584487535  L 17.9661016949153 24.792243767313  L 18.3050847457627 25  L 18.3728813559322 24.8614958448754  L 18.7118644067797 23.9612188365651  L 18.7118644067797 23.8919667590028  L 18.7796610169492 23.7534626038781  L 18.8474576271186 23.7534626038781  L 18.9152542372881 23.7534626038781  L 19.3898305084746 23.4764542936288  L 19.4576271186441 23.4764542936288  L 19.4576271186441 23.4072022160665  L 20.0677966101695 23.4072022160665  L 19.9322033898305 23.0609418282549  L 19.9322033898305 22.9224376731302  L 19.5932203389831 19.6675900277008  L 18.3050847457627 17.5207756232687  L 15.864406779661 14.612188365651  L 15.7966101694915 14.5429362880886  L 15.6610169491525 12.6731301939058  L 14.8474576271186 11.218836565097  L 14.8474576271186 11.1495844875346  L 14.7796610169492 11.0803324099723  L 14.8474576271186 10.9418282548477  L 15.2542372881356 9.14127423822716  L 15.3898305084746 9.14127423822716  L 15.5254237288136 9.14127423822716  L 19.7966101694915 8.86426592797785  L 22.1016949152542 7.61772853185596  C 22.1016949152542 7.61772853185596  22.1694915254237 7.54847645429363  22.1694915254237 7.54847645429363  C 22.9830508474576 7.27146814404432  23.5254237288136 6.92520775623269  23.6610169491525 6.57894736842105  C 23.864406779661 6.23268698060942  24 5.74792243767314  24 5.05540166204987  Z " fill-rule="evenodd" />
    </mask>
  </defs>
  <g transform="matrix(1 0 0 1 -1981 -1911 )">
    <path d="M 24 5.05540166204987  L 23.5254237288136 3.94736842105265  L 22.7796610169491 2.8393351800554  L 21.9661016949153 2.63157894736843  L 21.8983050847458 2.63157894736843  L 21.8983050847458 2.56232686980611  L 21.8305084745763 2.56232686980611  L 21.1525423728814 2.21606648199447  L 21.0169491525424 2.21606648199447  L 20.7457627118644 2.28531855955679  L 19.864406779661 2.42382271468144  L 19.7966101694915 2.42382271468144  L 19.6610169491526 2.35457063711912  L 18.7796610169492 2.00831024930748  L 18.7796610169492 1.93905817174516  L 18.7118644067797 1.93905817174516  L 18.7118644067797 1.86980609418284  L 18.0338983050847 1.17728531855957  L 17.2881355932203 0.415512465373957  L 16.6101694915254 0  L 15.864406779661 0.692520775623269  L 14.9152542372881 1.38504155124654  L 14.6440677966102 3.46260387811634  L 14.6440677966102 3.53185595567867  L 13.7627118644068 5.05540166204987  L 13.7627118644068 5.19390581717452  L 13.6949152542373 5.19390581717452  L 13.0169491525424 5.88642659279779  L 12.2033898305085 7.47922437673131  C 12.2033898305085 7.47922437673131  12.135593220339 7.61772853185596  12.135593220339 7.61772853185596  C 11.5254237288136 8.10249307479226  10.9830508474576 8.58725761772854  10.4406779661017 9.00277008310249  C 10.4406779661017 9.00277008310249  9.76271186440678 10.2493074792244  9.76271186440678 10.2493074792244  C 9.62711864406781 10.595567867036  9.08474576271187 11.01108033241  8.06779661016949 11.4265927977839  C 8.06779661016949 11.4265927977839  7.38983050847458 12.6038781163435  7.38983050847458 12.6038781163435  L 6.23728813559323 14.196675900277  L 6.16949152542372 14.196675900277  L 6.16949152542372 14.2659279778393  L 6.03389830508475 14.2659279778393  L 0.610169491525428 13.9196675900277  L 0 14.5429362880886  L 0 15.7202216066482  L 0.54237288135594 18.005540166205  L 1.69491525423729 19.6675900277008  L 2.64406779661017 20.2216066481995  L 2.64406779661017 20.2908587257618  C 2.64406779661017 20.2908587257618  2.71186440677966 20.2908587257618  2.71186440677966 20.2908587257618  C 3.2542372881356 20.9833795013851  3.52542372881357 21.4681440443213  3.52542372881357 21.814404432133  C 3.52542372881357 21.814404432133  3.52542372881357 22.7146814404432  3.52542372881357 22.7146814404432  L 3.18644067796611 23.0609418282549  L 3.38983050847458 23.1994459833795  L 3.66101694915255 23.1994459833795  L 4.06779661016949 22.3684210526316  L 4.20338983050848 22.3684210526316  L 5.28813559322034 22.7146814404432  L 5.35593220338983 23.0609418282549  L 5.89830508474577 23.0609418282549  L 5.76271186440678 22.6454293628809  L 5.69491525423729 22.5069252077562  C 5.69491525423729 22.5069252077562  6.44067796610169 21.3296398891967  6.44067796610169 21.3296398891967  C 6.57627118644069 20.9833795013851  6.91525423728815 20.8448753462604  7.38983050847458 20.9833795013851  C 7.38983050847458 20.9833795013851  8.61016949152543 21.0526315789474  8.61016949152543 21.0526315789474  L 9.28813559322035 20.1523545706371  L 9.28813559322035 19.3213296398892  L 9.5593220338983 18.4210526315789  L 9.5593220338983 18.3518005540166  L 9.62711864406781 18.2825484764543  L 9.69491525423729 18.213296398892  L 10.1694915254237 17.9362880886427  L 10.1694915254237 17.8670360110803  L 10.2372881355932 17.8670360110803  L 10.3050847457627 17.9362880886427  L 11.3220338983051 18.0747922437673  L 11.3220338983051 18.213296398892  L 11.5254237288136 19.0443213296399  L 11.5254237288136 19.4598337950139  L 11.6610169491526 20.0831024930748  L 11.9322033898305 20.1523545706371  L 12.271186440678 19.6675900277008  L 12.271186440678 19.5983379501385  L 12.8135593220339 18.8365650969529  L 12.8813559322034 18.6980609418283  L 13.6271186440678 18.3518005540166  L 13.6949152542373 18.3518005540166  L 13.7627118644068 18.2825484764543  L 14.6440677966102 18.5595567867036  L 14.7118644067797 18.5595567867036  L 14.8474576271186 18.6288088642659  L 15.3220338983051 19.5983379501385  L 15.3220338983051 20.5678670360111  L 16 21.8836565096953  L 16 22.02216066482  L 16 22.9916897506925  L 16.2033898305085 23.4072022160665  L 16.406779661017 23.4072022160665  L 16.6779661016949 23.0609418282549  L 16.7457627118644 22.9224376731302  L 17.5593220338983 23.4072022160665  L 17.6271186440678 23.4072022160665  L 17.6949152542373 23.4072022160665  L 17.6949152542373 23.5457063711911  L 17.6949152542373 23.6149584487535  L 17.9661016949153 24.792243767313  L 18.3050847457627 25  L 18.3728813559322 24.8614958448754  L 18.7118644067797 23.9612188365651  L 18.7118644067797 23.8919667590028  L 18.7796610169492 23.7534626038781  L 18.8474576271186 23.7534626038781  L 18.9152542372881 23.7534626038781  L 19.3898305084746 23.4764542936288  L 19.4576271186441 23.4764542936288  L 19.4576271186441 23.4072022160665  L 20.0677966101695 23.4072022160665  L 19.9322033898305 23.0609418282549  L 19.9322033898305 22.9224376731302  L 19.5932203389831 19.6675900277008  L 18.3050847457627 17.5207756232687  L 15.864406779661 14.612188365651  L 15.7966101694915 14.5429362880886  L 15.6610169491525 12.6731301939058  L 14.8474576271186 11.218836565097  L 14.8474576271186 11.1495844875346  L 14.7796610169492 11.0803324099723  L 14.8474576271186 10.9418282548477  L 15.2542372881356 9.14127423822716  L 15.3898305084746 9.14127423822716  L 15.5254237288136 9.14127423822716  L 19.7966101694915 8.86426592797785  L 22.1016949152542 7.61772853185596  C 22.1016949152542 7.61772853185596  22.1694915254237 7.54847645429363  22.1694915254237 7.54847645429363  C 22.9830508474576 7.27146814404432  23.5254237288136 6.92520775623269  23.6610169491525 6.57894736842105  C 23.864406779661 6.23268698060942  24 5.74792243767314  24 5.05540166204987  Z " fill-rule="nonzero" fill="#4a9eff" stroke="none" transform="matrix(1 0 0 1 1981 1911 )" />
    <path d="M 24 5.05540166204987  L 23.5254237288136 3.94736842105265  L 22.7796610169491 2.8393351800554  L 21.9661016949153 2.63157894736843  L 21.8983050847458 2.63157894736843  L 21.8983050847458 2.56232686980611  L 21.8305084745763 2.56232686980611  L 21.1525423728814 2.21606648199447  L 21.0169491525424 2.21606648199447  L 20.7457627118644 2.28531855955679  L 19.864406779661 2.42382271468144  L 19.7966101694915 2.42382271468144  L 19.6610169491526 2.35457063711912  L 18.7796610169492 2.00831024930748  L 18.7796610169492 1.93905817174516  L 18.7118644067797 1.93905817174516  L 18.7118644067797 1.86980609418284  L 18.0338983050847 1.17728531855957  L 17.2881355932203 0.415512465373957  L 16.6101694915254 0  L 15.864406779661 0.692520775623269  L 14.9152542372881 1.38504155124654  L 14.6440677966102 3.46260387811634  L 14.6440677966102 3.53185595567867  L 13.7627118644068 5.05540166204987  L 13.7627118644068 5.19390581717452  L 13.6949152542373 5.19390581717452  L 13.0169491525424 5.88642659279779  L 12.2033898305085 7.47922437673131  C 12.2033898305085 7.47922437673131  12.135593220339 7.61772853185596  12.135593220339 7.61772853185596  C 11.5254237288136 8.10249307479226  10.9830508474576 8.58725761772854  10.4406779661017 9.00277008310249  C 10.4406779661017 9.00277008310249  9.76271186440678 10.2493074792244  9.76271186440678 10.2493074792244  C 9.62711864406781 10.595567867036  9.08474576271187 11.01108033241  8.06779661016949 11.4265927977839  C 8.06779661016949 11.4265927977839  7.38983050847458 12.6038781163435  7.38983050847458 12.6038781163435  L 6.23728813559323 14.196675900277  L 6.16949152542372 14.196675900277  L 6.16949152542372 14.2659279778393  L 6.03389830508475 14.2659279778393  L 0.610169491525428 13.9196675900277  L 0 14.5429362880886  L 0 15.7202216066482  L 0.54237288135594 18.005540166205  L 1.69491525423729 19.6675900277008  L 2.64406779661017 20.2216066481995  L 2.64406779661017 20.2908587257618  C 2.64406779661017 20.2908587257618  2.71186440677966 20.2908587257618  2.71186440677966 20.2908587257618  C 3.2542372881356 20.9833795013851  3.52542372881357 21.4681440443213  3.52542372881357 21.814404432133  C 3.52542372881357 21.814404432133  3.52542372881357 22.7146814404432  3.52542372881357 22.7146814404432  L 3.18644067796611 23.0609418282549  L 3.38983050847458 23.1994459833795  L 3.66101694915255 23.1994459833795  L 4.06779661016949 22.3684210526316  L 4.20338983050848 22.3684210526316  L 5.28813559322034 22.7146814404432  L 5.35593220338983 23.0609418282549  L 5.89830508474577 23.0609418282549  L 5.76271186440678 22.6454293628809  L 5.69491525423729 22.5069252077562  C 5.69491525423729 22.5069252077562  6.44067796610169 21.3296398891967  6.44067796610169 21.3296398891967  C 6.57627118644069 20.9833795013851  6.91525423728815 20.8448753462604  7.38983050847458 20.9833795013851  C 7.38983050847458 20.9833795013851  8.61016949152543 21.0526315789474  8.61016949152543 21.0526315789474  L 9.28813559322035 20.1523545706371  L 9.28813559322035 19.3213296398892  L 9.5593220338983 18.4210526315789  L 9.5593220338983 18.3518005540166  L 9.62711864406781 18.2825484764543  L 9.69491525423729 18.213296398892  L 10.1694915254237 17.9362880886427  L 10.1694915254237 17.8670360110803  L 10.2372881355932 17.8670360110803  L 10.3050847457627 17.9362880886427  L 11.3220338983051 18.0747922437673  L 11.3220338983051 18.213296398892  L 11.5254237288136 19.0443213296399  L 11.5254237288136 19.4598337950139  L 11.6610169491526 20.0831024930748  L 11.9322033898305 20.1523545706371  L 12.271186440678 19.6675900277008  L 12.271186440678 19.5983379501385  L 12.8135593220339 18.8365650969529  L 12.8813559322034 18.6980609418283  L 13.6271186440678 18.3518005540166  L 13.6949152542373 18.3518005540166  L 13.7627118644068 18.2825484764543  L 14.6440677966102 18.5595567867036  L 14.7118644067797 18.5595567867036  L 14.8474576271186 18.6288088642659  L 15.3220338983051 19.5983379501385  L 15.3220338983051 20.5678670360111  L 16 21.8836565096953  L 16 22.02216066482  L 16 22.9916897506925  L 16.2033898305085 23.4072022160665  L 16.406779661017 23.4072022160665  L 16.6779661016949 23.0609418282549  L 16.7457627118644 22.9224376731302  L 17.5593220338983 23.4072022160665  L 17.6271186440678 23.4072022160665  L 17.6949152542373 23.4072022160665  L 17.6949152542373 23.5457063711911  L 17.6949152542373 23.6149584487535  L 17.9661016949153 24.792243767313  L 18.3050847457627 25  L 18.3728813559322 24.8614958448754  L 18.7118644067797 23.9612188365651  L 18.7118644067797 23.8919667590028  L 18.7796610169492 23.7534626038781  L 18.8474576271186 23.7534626038781  L 18.9152542372881 23.7534626038781  L 19.3898305084746 23.4764542936288  L 19.4576271186441 23.4764542936288  L 19.4576271186441 23.4072022160665  L 20.0677966101695 23.4072022160665  L 19.9322033898305 23.0609418282549  L 19.9322033898305 22.9224376731302  L 19.5932203389831 19.6675900277008  L 18.3050847457627 17.5207756232687  L 15.864406779661 14.612188365651  L 15.7966101694915 14.5429362880886  L 15.6610169491525 12.6731301939058  L 14.8474576271186 11.218836565097  L 14.8474576271186 11.1495844875346  L 14.7796610169492 11.0803324099723  L 14.8474576271186 10.9418282548477  L 15.2542372881356 9.14127423822716  L 15.3898305084746 9.14127423822716  L 15.5254237288136 9.14127423822716  L 19.7966101694915 8.86426592797785  L 22.1016949152542 7.61772853185596  C 22.1016949152542 7.61772853185596  22.1694915254237 7.54847645429363  22.1694915254237 7.54847645429363  C 22.9830508474576 7.27146814404432  23.5254237288136 6.92520775623269  23.6610169491525 6.57894736842105  C 23.864406779661 6.23268698060942  24 5.74792243767314  24 5.05540166204987  Z " stroke-width="2" stroke="#ffffff" fill="none" transform="matrix(1 0 0 1 1981 1911 )" mask="url(#clip791)" />
  </g>
</svg>