<?xml version="1.0" encoding="utf-8"?>
<svg version="1.1" xmlns:xlink="http://www.w3.org/1999/xlink" width="44px" height="35px" xmlns="http://www.w3.org/2000/svg">
  <defs>
    <mask fill="white" id="clip796">
      <path d="M 40.3548895899054 11.580078263963  C 40.9652996845426 11.5123443614372  41.3044164037855 11.241408751334  41.4400630914827 10.9027392387051  C 41.4400630914827 10.9027392387051  41.4400630914827 10.8350053361793  41.4400630914827 10.8350053361793  L 41.5078864353312 10.6318036286019  L 41.7791798107256 10.6318036286019  L 43 10.5640697260761  C 43 10.5640697260761  43 9.68352899324086  43 9.68352899324086  C 42.6608832807571 9.68352899324086  42.3217665615142 9.54806118818924  41.9826498422713 9.27712557808609  C 41.9826498422713 9.27712557808609  39.9479495268139 7.44831020988973  39.9479495268139 7.44831020988973  L 39.9479495268139 7.38057630736392  L 39.0662460567824 4.80668801138383  C 39.0662460567824 4.80668801138383  37.8454258675079 3.58747776591962  37.8454258675079 3.58747776591962  C 36.3533123028391 3.51974386339381  35.2003154574132 3.51974386339381  34.3864353312303 3.58747776591962  C 34.3864353312303 3.58747776591962  34.115141955836 3.65521166844539  34.115141955836 3.65521166844539  L 34.1829652996845 4.46801849875488  L 34.1829652996845 4.60348630380649  L 34.1829652996845 4.80668801138383  L 33.9794952681388 4.80668801138383  L 32.8943217665615 5.28082532906441  C 32.8943217665615 5.28082532906441  32.6908517350158 5.14535752401279  32.6908517350158 5.14535752401279  C 31.8091482649842 4.26481679117753  31.2665615141956 3.92614727854858  30.9274447949527 4.12934898612592  C 28.5536277602524 5.28082532906441  27.1971608832808 5.82269654927071  26.7902208201893 5.55176093916756  C 26.518927444795 5.61949484169336  26.1798107255521 5.89043045179652  25.705047318612 6.36456776947705  C 25.705047318612 6.36456776947705  25.5015772870663 6.63550337958024  25.5015772870663 6.63550337958024  C 25.5015772870663 6.63550337958024  25.2302839116719 6.36456776947705  25.2302839116719 6.36456776947705  C 24.5520504731861 5.75496264674494  24.2129337539432 5.2130914265386  24.2129337539432 4.80668801138383  C 24.2129337539432 4.53575240128069  24.6876971608833 3.99388118107434  25.5015772870663 3.11334044823905  C 26.4511041009464 2.02959800782641  26.9258675078864 1.41999288509426  26.9258675078864 1.28452508004268  C 26.9258675078864 1.28452508004268  26.7223974763407 0.945855567413725  26.7223974763407 0.945855567413725  C 26.4511041009464 0.81038776236215  25.9085173501577 1.0813233724653  25.2302839116719 1.62319459267164  C 24.5520504731861 2.09733191035217  24.1451104100947 2.30053361792956  23.8738170347003 2.23279971540379  C 23.7381703470032 2.23279971540379  23.602523659306 2.02959800782641  23.5347003154574 1.69092849519745  C 23.5347003154574 1.69092849519745  23.4668769716089 1.55546069014587  23.4668769716089 1.55546069014587  L 22.8564668769716 0.471718249733192  L 21.5678233438486 1.28452508004268  L 21.4321766561514 1.41999288509426  L 21.3643533123028 1.28452508004268  C 21.3643533123028 1.28452508004268  21.2965299684542 1.28452508004268  21.2965299684542 1.28452508004268  C 20.3470031545741 0.742653859836343  19.4652996845426 0.403984347207385  18.583596214511 0.0653148345784277  C 17.9731861198738 -0.137886872998916  17.3627760252366 0.133048737104235  16.7523659305994 0.878121664887957  C 16.7523659305994 0.878121664887957  17.3627760252366 1.89413020277483  17.3627760252366 1.89413020277483  C 17.7697160883281 2.9101387406617  17.9731861198738 3.58747776591962  17.7697160883281 4.06161508360015  C 17.7018927444795 4.26481679117753  17.4984227129338 4.46801849875488  17.2271293375394 4.46801849875488  C 16.820189274448 4.60348630380649  16.2097791798107 4.46801849875488  15.4637223974764 3.85841337602277  C 14.8533123028391 3.452009960868  14.3785488958991 3.11334044823905  13.9716088328076 2.9101387406617  C 13.9716088328076 2.9101387406617  13.1577287066246 2.57146922803275  13.1577287066246 2.57146922803275  L 13.1577287066246 2.63920313055851  L 13.2255520504732 2.77467093561009  L 13.2255520504732 4.26481679117753  L 12.1403785488959 5.48402703664175  L 12.1403785488959 6.63550337958024  L 12.615141955836 7.85471362504445  L 12.6829652996845 7.92244752757026  L 11.9369085173502 9.07392387050871  L 11.4621451104101 10.1576663109214  L 11.4621451104101 10.2254002134472  L 10.4447949526814 11.241408751334  L 8.74921135646686 15.1022411953042  L 8.81703470031546 17.2019921736037  L 8.74921135646686 17.2697260761295  L 5.08675078864353 19.369477054429  L 4.88328075709779 19.7758804695838  L 5.35804416403784 20.8596229099965  L 5.35804416403784 20.9273568125222  L 5.35804416403784 20.995090715048  L 5.01892744479494 22.4175026680896  L 3.52681388012618 22.2143009605123  L 3.18769716088327 24.0431163287087  L 1.28864353312301 24.0431163287087  L 0.881703470031554 24.7204553539666  L 0.339116719242902 25.871931696905  L 0 30.1391675560299  L 0.406940063091498 31.0197082888652  L 0.474763406940055 31.1551760939168  L 0.474763406940055 32.0357168267521  L 1.28864353312301 33.0517253646389  L 1.35646687697161 33.1871931696905  L 1.35646687697161 34  L 3.52681388012618 33.8645321949484  L 3.66246056782333 33.6613304873711  L 3.66246056782333 33.5935965848452  L 3.73028391167193 33.5935965848452  L 3.73028391167193 33.5258626823195  L 4.34069400630913 32.71305585201  L 2.98422712933752 31.4938456065457  L 2.84858044164037 31.3583778014942  L 2.10252365930601 30.748772678762  L 2.03470031545741 30.6810387762362  L 1.96687697160882 30.6133048737104  L 1.96687697160882 29.2586268231946  L 3.11987381703472 29.2586268231946  L 3.25552050473187 28.7844895055141  L 2.78075709779181 27.4298114549982  L 5.42586750788644 27.4298114549982  L 10.1056782334385 25.1945926716471  L 10.7160883280757 24.1785841337602  L 10.8517350157729 23.8399146211313  L 11.801261829653 24.246318036286  L 11.8690851735016 24.246318036286  L 11.9369085173502 24.4495197438634  L 12.3438485804416 24.923657061544  L 12.8186119873817 24.8559231590181  L 12.6829652996845 23.8399146211313  L 14.2429022082019 23.8399146211313  L 15.7350157728707 24.1108502312344  L 16.3454258675079 23.0948416933476  L 16.4132492113565 23.0271077908218  L 16.4132492113565 22.959373888296  L 16.5488958990536 22.8916399857702  L 18.1766561514196 22.4175026680896  L 18.4479495268139 20.0468160796869  L 20.1435331230284 21.5369619352544  L 20.8217665615142 21.672429740306  L 21.1608832807571 21.2660263251512  L 20.9574132492113 16.1182497331911  L 20.9574132492113 15.9827819281394  L 20.9574132492113 15.7118463180363  L 22.1104100946372 15.9150480256137  L 22.1782334384858 15.9150480256137  L 22.313880126183 15.9827819281394  L 22.3817034700316 16.0505158306652  L 24.2129337539432 19.369477054429  L 26.518927444795 19.0985414443259  L 26.9258675078864 18.9630736392743  L 27.2649842271293 18.1502668089648  L 26.5867507886435 17.6083955887585  L 26.3832807570978 17.3374599786553  L 27.9432176656151 16.795588758449  L 28.0788643533123 16.7278548559232  L 28.1466876971609 16.6601209533974  L 28.7570977917981 17.3374599786553  L 29.2996845425868 17.0665243685521  L 29.2996845425868 16.0505158306652  L 29.6388012618297 15.9827819281394  C 29.6388012618297 15.9827819281394  30.7917981072555 15.9827819281394  30.7917981072555 15.9827819281394  C 31.6056782334385 16.0505158306652  32.2160883280757 16.45691924582  32.6908517350158 17.0665243685521  C 32.6908517350158 17.0665243685521  32.8264984227129 17.3374599786553  32.8264984227129 17.3374599786553  C 32.8264984227129 17.3374599786553  33.301261829653 15.7118463180363  33.301261829653 15.7118463180363  C 33.5725552050473 15.3054429028815  34.115141955836 15.2377090003558  34.9290220820189 15.5763785129847  C 34.9290220820189 15.5763785129847  35.0646687697161 15.6441124155105  35.0646687697161 15.6441124155105  L 35.0646687697161 15.7118463180363  C 35.0646687697161 15.7118463180363  35.1324921135647 15.7795802205621  35.1324921135647 15.7795802205621  C 35.2003154574132 15.8473141230879  35.3359621451104 15.9150480256137  35.403785488959 15.9150480256137  C 35.7429022082019 15.7795802205621  36.9637223974764 14.9667733902526  38.9305993690852 13.4088936321594  C 38.9305993690852 12.3928850942725  39.4731861198738 11.8510138740662  40.3548895899054 11.580078263963  Z " fill-rule="evenodd" />
    </mask>
  </defs>
  <g transform="matrix(1 0 0 1 -2006 -1952 )">
    <path d="M 40.3548895899054 11.580078263963  C 40.9652996845426 11.5123443614372  41.3044164037855 11.241408751334  41.4400630914827 10.9027392387051  C 41.4400630914827 10.9027392387051  41.4400630914827 10.8350053361793  41.4400630914827 10.8350053361793  L 41.5078864353312 10.6318036286019  L 41.7791798107256 10.6318036286019  L 43 10.5640697260761  C 43 10.5640697260761  43 9.68352899324086  43 9.68352899324086  C 42.6608832807571 9.68352899324086  42.3217665615142 9.54806118818924  41.9826498422713 9.27712557808609  C 41.9826498422713 9.27712557808609  39.9479495268139 7.44831020988973  39.9479495268139 7.44831020988973  L 39.9479495268139 7.38057630736392  L 39.0662460567824 4.80668801138383  C 39.0662460567824 4.80668801138383  37.8454258675079 3.58747776591962  37.8454258675079 3.58747776591962  C 36.3533123028391 3.51974386339381  35.2003154574132 3.51974386339381  34.3864353312303 3.58747776591962  C 34.3864353312303 3.58747776591962  34.115141955836 3.65521166844539  34.115141955836 3.65521166844539  L 34.1829652996845 4.46801849875488  L 34.1829652996845 4.60348630380649  L 34.1829652996845 4.80668801138383  L 33.9794952681388 4.80668801138383  L 32.8943217665615 5.28082532906441  C 32.8943217665615 5.28082532906441  32.6908517350158 5.14535752401279  32.6908517350158 5.14535752401279  C 31.8091482649842 4.26481679117753  31.2665615141956 3.92614727854858  30.9274447949527 4.12934898612592  C 28.5536277602524 5.28082532906441  27.1971608832808 5.82269654927071  26.7902208201893 5.55176093916756  C 26.518927444795 5.61949484169336  26.1798107255521 5.89043045179652  25.705047318612 6.36456776947705  C 25.705047318612 6.36456776947705  25.5015772870663 6.63550337958024  25.5015772870663 6.63550337958024  C 25.5015772870663 6.63550337958024  25.2302839116719 6.36456776947705  25.2302839116719 6.36456776947705  C 24.5520504731861 5.75496264674494  24.2129337539432 5.2130914265386  24.2129337539432 4.80668801138383  C 24.2129337539432 4.53575240128069  24.6876971608833 3.99388118107434  25.5015772870663 3.11334044823905  C 26.4511041009464 2.02959800782641  26.9258675078864 1.41999288509426  26.9258675078864 1.28452508004268  C 26.9258675078864 1.28452508004268  26.7223974763407 0.945855567413725  26.7223974763407 0.945855567413725  C 26.4511041009464 0.81038776236215  25.9085173501577 1.0813233724653  25.2302839116719 1.62319459267164  C 24.5520504731861 2.09733191035217  24.1451104100947 2.30053361792956  23.8738170347003 2.23279971540379  C 23.7381703470032 2.23279971540379  23.602523659306 2.02959800782641  23.5347003154574 1.69092849519745  C 23.5347003154574 1.69092849519745  23.4668769716089 1.55546069014587  23.4668769716089 1.55546069014587  L 22.8564668769716 0.471718249733192  L 21.5678233438486 1.28452508004268  L 21.4321766561514 1.41999288509426  L 21.3643533123028 1.28452508004268  C 21.3643533123028 1.28452508004268  21.2965299684542 1.28452508004268  21.2965299684542 1.28452508004268  C 20.3470031545741 0.742653859836343  19.4652996845426 0.403984347207385  18.583596214511 0.0653148345784277  C 17.9731861198738 -0.137886872998916  17.3627760252366 0.133048737104235  16.7523659305994 0.878121664887957  C 16.7523659305994 0.878121664887957  17.3627760252366 1.89413020277483  17.3627760252366 1.89413020277483  C 17.7697160883281 2.9101387406617  17.9731861198738 3.58747776591962  17.7697160883281 4.06161508360015  C 17.7018927444795 4.26481679117753  17.4984227129338 4.46801849875488  17.2271293375394 4.46801849875488  C 16.820189274448 4.60348630380649  16.2097791798107 4.46801849875488  15.4637223974764 3.85841337602277  C 14.8533123028391 3.452009960868  14.3785488958991 3.11334044823905  13.9716088328076 2.9101387406617  C 13.9716088328076 2.9101387406617  13.1577287066246 2.57146922803275  13.1577287066246 2.57146922803275  L 13.1577287066246 2.63920313055851  L 13.2255520504732 2.77467093561009  L 13.2255520504732 4.26481679117753  L 12.1403785488959 5.48402703664175  L 12.1403785488959 6.63550337958024  L 12.615141955836 7.85471362504445  L 12.6829652996845 7.92244752757026  L 11.9369085173502 9.07392387050871  L 11.4621451104101 10.1576663109214  L 11.4621451104101 10.2254002134472  L 10.4447949526814 11.241408751334  L 8.74921135646686 15.1022411953042  L 8.81703470031546 17.2019921736037  L 8.74921135646686 17.2697260761295  L 5.08675078864353 19.369477054429  L 4.88328075709779 19.7758804695838  L 5.35804416403784 20.8596229099965  L 5.35804416403784 20.9273568125222  L 5.35804416403784 20.995090715048  L 5.01892744479494 22.4175026680896  L 3.52681388012618 22.2143009605123  L 3.18769716088327 24.0431163287087  L 1.28864353312301 24.0431163287087  L 0.881703470031554 24.7204553539666  L 0.339116719242902 25.871931696905  L 0 30.1391675560299  L 0.406940063091498 31.0197082888652  L 0.474763406940055 31.1551760939168  L 0.474763406940055 32.0357168267521  L 1.28864353312301 33.0517253646389  L 1.35646687697161 33.1871931696905  L 1.35646687697161 34  L 3.52681388012618 33.8645321949484  L 3.66246056782333 33.6613304873711  L 3.66246056782333 33.5935965848452  L 3.73028391167193 33.5935965848452  L 3.73028391167193 33.5258626823195  L 4.34069400630913 32.71305585201  L 2.98422712933752 31.4938456065457  L 2.84858044164037 31.3583778014942  L 2.10252365930601 30.748772678762  L 2.03470031545741 30.6810387762362  L 1.96687697160882 30.6133048737104  L 1.96687697160882 29.2586268231946  L 3.11987381703472 29.2586268231946  L 3.25552050473187 28.7844895055141  L 2.78075709779181 27.4298114549982  L 5.42586750788644 27.4298114549982  L 10.1056782334385 25.1945926716471  L 10.7160883280757 24.1785841337602  L 10.8517350157729 23.8399146211313  L 11.801261829653 24.246318036286  L 11.8690851735016 24.246318036286  L 11.9369085173502 24.4495197438634  L 12.3438485804416 24.923657061544  L 12.8186119873817 24.8559231590181  L 12.6829652996845 23.8399146211313  L 14.2429022082019 23.8399146211313  L 15.7350157728707 24.1108502312344  L 16.3454258675079 23.0948416933476  L 16.4132492113565 23.0271077908218  L 16.4132492113565 22.959373888296  L 16.5488958990536 22.8916399857702  L 18.1766561514196 22.4175026680896  L 18.4479495268139 20.0468160796869  L 20.1435331230284 21.5369619352544  L 20.8217665615142 21.672429740306  L 21.1608832807571 21.2660263251512  L 20.9574132492113 16.1182497331911  L 20.9574132492113 15.9827819281394  L 20.9574132492113 15.7118463180363  L 22.1104100946372 15.9150480256137  L 22.1782334384858 15.9150480256137  L 22.313880126183 15.9827819281394  L 22.3817034700316 16.0505158306652  L 24.2129337539432 19.369477054429  L 26.518927444795 19.0985414443259  L 26.9258675078864 18.9630736392743  L 27.2649842271293 18.1502668089648  L 26.5867507886435 17.6083955887585  L 26.3832807570978 17.3374599786553  L 27.9432176656151 16.795588758449  L 28.0788643533123 16.7278548559232  L 28.1466876971609 16.6601209533974  L 28.7570977917981 17.3374599786553  L 29.2996845425868 17.0665243685521  L 29.2996845425868 16.0505158306652  L 29.6388012618297 15.9827819281394  C 29.6388012618297 15.9827819281394  30.7917981072555 15.9827819281394  30.7917981072555 15.9827819281394  C 31.6056782334385 16.0505158306652  32.2160883280757 16.45691924582  32.6908517350158 17.0665243685521  C 32.6908517350158 17.0665243685521  32.8264984227129 17.3374599786553  32.8264984227129 17.3374599786553  C 32.8264984227129 17.3374599786553  33.301261829653 15.7118463180363  33.301261829653 15.7118463180363  C 33.5725552050473 15.3054429028815  34.115141955836 15.2377090003558  34.9290220820189 15.5763785129847  C 34.9290220820189 15.5763785129847  35.0646687697161 15.6441124155105  35.0646687697161 15.6441124155105  L 35.0646687697161 15.7118463180363  C 35.0646687697161 15.7118463180363  35.1324921135647 15.7795802205621  35.1324921135647 15.7795802205621  C 35.2003154574132 15.8473141230879  35.3359621451104 15.9150480256137  35.403785488959 15.9150480256137  C 35.7429022082019 15.7795802205621  36.9637223974764 14.9667733902526  38.9305993690852 13.4088936321594  C 38.9305993690852 12.3928850942725  39.4731861198738 11.8510138740662  40.3548895899054 11.580078263963  Z " fill-rule="nonzero" fill="#4a9eff" stroke="none" transform="matrix(1 0 0 1 2006 1952 )" />
    <path d="M 40.3548895899054 11.580078263963  C 40.9652996845426 11.5123443614372  41.3044164037855 11.241408751334  41.4400630914827 10.9027392387051  C 41.4400630914827 10.9027392387051  41.4400630914827 10.8350053361793  41.4400630914827 10.8350053361793  L 41.5078864353312 10.6318036286019  L 41.7791798107256 10.6318036286019  L 43 10.5640697260761  C 43 10.5640697260761  43 9.68352899324086  43 9.68352899324086  C 42.6608832807571 9.68352899324086  42.3217665615142 9.54806118818924  41.9826498422713 9.27712557808609  C 41.9826498422713 9.27712557808609  39.9479495268139 7.44831020988973  39.9479495268139 7.44831020988973  L 39.9479495268139 7.38057630736392  L 39.0662460567824 4.80668801138383  C 39.0662460567824 4.80668801138383  37.8454258675079 3.58747776591962  37.8454258675079 3.58747776591962  C 36.3533123028391 3.51974386339381  35.2003154574132 3.51974386339381  34.3864353312303 3.58747776591962  C 34.3864353312303 3.58747776591962  34.115141955836 3.65521166844539  34.115141955836 3.65521166844539  L 34.1829652996845 4.46801849875488  L 34.1829652996845 4.60348630380649  L 34.1829652996845 4.80668801138383  L 33.9794952681388 4.80668801138383  L 32.8943217665615 5.28082532906441  C 32.8943217665615 5.28082532906441  32.6908517350158 5.14535752401279  32.6908517350158 5.14535752401279  C 31.8091482649842 4.26481679117753  31.2665615141956 3.92614727854858  30.9274447949527 4.12934898612592  C 28.5536277602524 5.28082532906441  27.1971608832808 5.82269654927071  26.7902208201893 5.55176093916756  C 26.518927444795 5.61949484169336  26.1798107255521 5.89043045179652  25.705047318612 6.36456776947705  C 25.705047318612 6.36456776947705  25.5015772870663 6.63550337958024  25.5015772870663 6.63550337958024  C 25.5015772870663 6.63550337958024  25.2302839116719 6.36456776947705  25.2302839116719 6.36456776947705  C 24.5520504731861 5.75496264674494  24.2129337539432 5.2130914265386  24.2129337539432 4.80668801138383  C 24.2129337539432 4.53575240128069  24.6876971608833 3.99388118107434  25.5015772870663 3.11334044823905  C 26.4511041009464 2.02959800782641  26.9258675078864 1.41999288509426  26.9258675078864 1.28452508004268  C 26.9258675078864 1.28452508004268  26.7223974763407 0.945855567413725  26.7223974763407 0.945855567413725  C 26.4511041009464 0.81038776236215  25.9085173501577 1.0813233724653  25.2302839116719 1.62319459267164  C 24.5520504731861 2.09733191035217  24.1451104100947 2.30053361792956  23.8738170347003 2.23279971540379  C 23.7381703470032 2.23279971540379  23.602523659306 2.02959800782641  23.5347003154574 1.69092849519745  C 23.5347003154574 1.69092849519745  23.4668769716089 1.55546069014587  23.4668769716089 1.55546069014587  L 22.8564668769716 0.471718249733192  L 21.5678233438486 1.28452508004268  L 21.4321766561514 1.41999288509426  L 21.3643533123028 1.28452508004268  C 21.3643533123028 1.28452508004268  21.2965299684542 1.28452508004268  21.2965299684542 1.28452508004268  C 20.3470031545741 0.742653859836343  19.4652996845426 0.403984347207385  18.583596214511 0.0653148345784277  C 17.9731861198738 -0.137886872998916  17.3627760252366 0.133048737104235  16.7523659305994 0.878121664887957  C 16.7523659305994 0.878121664887957  17.3627760252366 1.89413020277483  17.3627760252366 1.89413020277483  C 17.7697160883281 2.9101387406617  17.9731861198738 3.58747776591962  17.7697160883281 4.06161508360015  C 17.7018927444795 4.26481679117753  17.4984227129338 4.46801849875488  17.2271293375394 4.46801849875488  C 16.820189274448 4.60348630380649  16.2097791798107 4.46801849875488  15.4637223974764 3.85841337602277  C 14.8533123028391 3.452009960868  14.3785488958991 3.11334044823905  13.9716088328076 2.9101387406617  C 13.9716088328076 2.9101387406617  13.1577287066246 2.57146922803275  13.1577287066246 2.57146922803275  L 13.1577287066246 2.63920313055851  L 13.2255520504732 2.77467093561009  L 13.2255520504732 4.26481679117753  L 12.1403785488959 5.48402703664175  L 12.1403785488959 6.63550337958024  L 12.615141955836 7.85471362504445  L 12.6829652996845 7.92244752757026  L 11.9369085173502 9.07392387050871  L 11.4621451104101 10.1576663109214  L 11.4621451104101 10.2254002134472  L 10.4447949526814 11.241408751334  L 8.74921135646686 15.1022411953042  L 8.81703470031546 17.2019921736037  L 8.74921135646686 17.2697260761295  L 5.08675078864353 19.369477054429  L 4.88328075709779 19.7758804695838  L 5.35804416403784 20.8596229099965  L 5.35804416403784 20.9273568125222  L 5.35804416403784 20.995090715048  L 5.01892744479494 22.4175026680896  L 3.52681388012618 22.2143009605123  L 3.18769716088327 24.0431163287087  L 1.28864353312301 24.0431163287087  L 0.881703470031554 24.7204553539666  L 0.339116719242902 25.871931696905  L 0 30.1391675560299  L 0.406940063091498 31.0197082888652  L 0.474763406940055 31.1551760939168  L 0.474763406940055 32.0357168267521  L 1.28864353312301 33.0517253646389  L 1.35646687697161 33.1871931696905  L 1.35646687697161 34  L 3.52681388012618 33.8645321949484  L 3.66246056782333 33.6613304873711  L 3.66246056782333 33.5935965848452  L 3.73028391167193 33.5935965848452  L 3.73028391167193 33.5258626823195  L 4.34069400630913 32.71305585201  L 2.98422712933752 31.4938456065457  L 2.84858044164037 31.3583778014942  L 2.10252365930601 30.748772678762  L 2.03470031545741 30.6810387762362  L 1.96687697160882 30.6133048737104  L 1.96687697160882 29.2586268231946  L 3.11987381703472 29.2586268231946  L 3.25552050473187 28.7844895055141  L 2.78075709779181 27.4298114549982  L 5.42586750788644 27.4298114549982  L 10.1056782334385 25.1945926716471  L 10.7160883280757 24.1785841337602  L 10.8517350157729 23.8399146211313  L 11.801261829653 24.246318036286  L 11.8690851735016 24.246318036286  L 11.9369085173502 24.4495197438634  L 12.3438485804416 24.923657061544  L 12.8186119873817 24.8559231590181  L 12.6829652996845 23.8399146211313  L 14.2429022082019 23.8399146211313  L 15.7350157728707 24.1108502312344  L 16.3454258675079 23.0948416933476  L 16.4132492113565 23.0271077908218  L 16.4132492113565 22.959373888296  L 16.5488958990536 22.8916399857702  L 18.1766561514196 22.4175026680896  L 18.4479495268139 20.0468160796869  L 20.1435331230284 21.5369619352544  L 20.8217665615142 21.672429740306  L 21.1608832807571 21.2660263251512  L 20.9574132492113 16.1182497331911  L 20.9574132492113 15.9827819281394  L 20.9574132492113 15.7118463180363  L 22.1104100946372 15.9150480256137  L 22.1782334384858 15.9150480256137  L 22.313880126183 15.9827819281394  L 22.3817034700316 16.0505158306652  L 24.2129337539432 19.369477054429  L 26.518927444795 19.0985414443259  L 26.9258675078864 18.9630736392743  L 27.2649842271293 18.1502668089648  L 26.5867507886435 17.6083955887585  L 26.3832807570978 17.3374599786553  L 27.9432176656151 16.795588758449  L 28.0788643533123 16.7278548559232  L 28.1466876971609 16.6601209533974  L 28.7570977917981 17.3374599786553  L 29.2996845425868 17.0665243685521  L 29.2996845425868 16.0505158306652  L 29.6388012618297 15.9827819281394  C 29.6388012618297 15.9827819281394  30.7917981072555 15.9827819281394  30.7917981072555 15.9827819281394  C 31.6056782334385 16.0505158306652  32.2160883280757 16.45691924582  32.6908517350158 17.0665243685521  C 32.6908517350158 17.0665243685521  32.8264984227129 17.3374599786553  32.8264984227129 17.3374599786553  C 32.8264984227129 17.3374599786553  33.301261829653 15.7118463180363  33.301261829653 15.7118463180363  C 33.5725552050473 15.3054429028815  34.115141955836 15.2377090003558  34.9290220820189 15.5763785129847  C 34.9290220820189 15.5763785129847  35.0646687697161 15.6441124155105  35.0646687697161 15.6441124155105  L 35.0646687697161 15.7118463180363  C 35.0646687697161 15.7118463180363  35.1324921135647 15.7795802205621  35.1324921135647 15.7795802205621  C 35.2003154574132 15.8473141230879  35.3359621451104 15.9150480256137  35.403785488959 15.9150480256137  C 35.7429022082019 15.7795802205621  36.9637223974764 14.9667733902526  38.9305993690852 13.4088936321594  C 38.9305993690852 12.3928850942725  39.4731861198738 11.8510138740662  40.3548895899054 11.580078263963  Z " stroke-width="2" stroke="#ffffff" fill="none" transform="matrix(1 0 0 1 2006 1952 )" mask="url(#clip796)" />
  </g>
</svg>