<?xml version="1.0" encoding="utf-8"?>
<svg version="1.1" xmlns:xlink="http://www.w3.org/1999/xlink" width="121px" height="103px" xmlns="http://www.w3.org/2000/svg">
  <defs>
    <mask fill="white" id="clip781">
      <path d="M 118.288515406162 12.84963887065  C 118.288515406162 12.84963887065  118.559663865546 10.9560078791858  118.559663865546 10.9560078791858  L 118.085154061625 9.46815495732108  L 116.864985994398 7.37163493105712  L 115.848179271709 6.83059750492449  L 114.83137254902 7.37163493105712  L 114.221288515406 8.58896913985555  C 114.221288515406 8.58896913985555  112.052100840336 9.0623768877216  112.052100840336 9.0623768877216  C 111.848739495798 9.19763624425476  111.645378151261 9.26526592252134  111.509803921569 9.46815495732108  C 111.509803921569 9.46815495732108  111.103081232493 9.94156270518713  111.103081232493 9.94156270518713  L 110.086274509804 10.7531188443861  C 110.086274509804 10.7531188443861  108.933893557423 11.0236375574524  108.933893557423 11.0236375574524  C 108.527170868347 10.9560078791858  107.917086834734 10.6178594878529  107.103641456583 10.0091923834537  C 105.680112044818 8.58896913985555  105.002240896359 7.64215364412344  105.002240896359 7.10111621799081  C 105.002240896359 7.10111621799081  105.002240896359 5.34274458305975  105.002240896359 5.34274458305975  L 105.205602240896 4.8693368351937  L 103.239775910364 4.1930400525279  C 103.239775910364 4.1930400525279  103.171988795518 4.8693368351937  103.171988795518 4.8693368351937  C 103.171988795518 5.07222586999343  102.96862745098 5.34274458305975  102.629691876751 5.54563361785949  C 102.629691876751 5.54563361785949  101.951820728291 5.8161523309258  101.951820728291 5.8161523309258  L 100.663865546218 5.47800393959291  L 100.867226890756 6.22193040052528  C 100.867226890756 6.22193040052528  99.1047619047619 5.07222586999343  99.1047619047619 5.07222586999343  C 98.6980392156863 4.26066973079449  98.5624649859944 3.51674326986211  98.5624649859944 2.70518713066316  C 98.5624649859944 2.02889034799737  98.6302521008403 1.6231122783979  98.9014005602241 1.35259356533158  C 98.9014005602241 1.35259356533158  99.3081232492997 0.608667104399212  99.3081232492997 0.608667104399212  L 99.1725490196078 0  C 99.1725490196078 0  97.4100840336134 0.270518713066317  97.4100840336134 0.270518713066317  C 96.5288515406162 0.338148391332896  95.9187675070028 0.879185817465528  95.5798319327731 1.89363099146421  C 95.5798319327731 1.89363099146421  94.563025210084 3.51674326986211  94.563025210084 3.51674326986211  L 95.5798319327731 3.44911359159553  L 96.5966386554622 3.85489166119501  L 96.8677871148459 4.12541037426133  L 97.0033613445378 5.54563361785949  L 97.4100840336134 6.89822718319107  C 97.4100840336134 6.89822718319107  95.1731092436975 11.4970453053184  95.1731092436975 11.4970453053184  C 94.7663865546218 12.1057124097177  94.563025210084 13.7288246881156  94.4274509803921 16.1634931057124  C 94.4274509803921 16.1634931057124  93.546218487395 18.0571240971766  93.546218487395 18.0571240971766  C 93.546218487395 18.0571240971766  94.1563025210084 18.7334208798424  94.1563025210084 18.7334208798424  C 94.2240896358543 19.8831254103743  94.1563025210084 20.4917925147735  93.8851540616246 20.6270518713066  C 93.2072829131653 20.9652002626395  91.6481792717087 22.5883125410374  89.140056022409 25.6316480630335  C 89.140056022409 25.6316480630335  88.8011204481793 25.7669074195666  88.8011204481793 25.7669074195666  C 87.7165266106442 25.0229809586343  86.903081232493 24.4819435325016  86.4285714285714 23.940906106369  C 86.0218487394958 23.6703873933027  85.0050420168067 23.467498358503  83.3103641456583 23.467498358503  C 83.3103641456583 23.467498358503  83.2425770308123 26.5784635587656  83.2425770308123 26.5784635587656  C 83.2425770308123 26.5784635587656  81.9546218487395 32.5298752462246  81.9546218487395 32.5298752462246  C 81.6834733893558 33.2738017071569  81.6156862745098 34.6263952724885  81.6156862745098 36.6552856204859  C 81.6156862745098 36.6552856204859  82.0901960784313 37.2639527248851  82.0901960784313 37.2639527248851  L 82.496918767507 36.4523965856861  L 84.1915966386555 35.505581089954  L 88.5299719887955 36.1818778726198  L 89.0044817927171 35.6408404464872  L 89.6145658263305 34.5587655942219  L 91.5126050420168 34.0853578463559  C 91.5126050420168 34.0853578463559  93.7495798319327 33.9500984898227  93.7495798319327 33.9500984898227  C 94.4274509803921 34.0853578463559  95.2408963585434 34.9645436638214  96.2577030812325 36.317137229153  C 98.96918767507 37.6697307944846  100.460504201681 38.887065003283  100.79943977591 39.9691398555483  C 101.002801120448 40.5101772816809  101.002801120448 40.9159553512804  100.79943977591 41.3893630991464  C 100.596078431373 41.8627708470125  100.121568627451 42.1332895600788  99.4436974789916 42.2009192383454  C 96.0543417366947 42.0656598818122  94.1563025210084 42.0656598818122  93.478431372549 42.2685489166119  C 93.478431372549 42.2685489166119  91.8515406162465 43.3506237688772  91.8515406162465 43.3506237688772  C 89.8179271708683 44.8384766907419  88.4621848739496 45.5824031516743  87.7165266106442 45.5824031516743  C 87.7165266106442 45.5824031516743  86.3607843137255 45.7852921864741  86.3607843137255 45.7852921864741  C 86.3607843137255 45.7852921864741  85.5473389355742 49.166776099803  85.5473389355742 49.166776099803  C 85.3439775910364 50.1812212738017  85.0050420168067 50.8575180564675  84.3949579831933 51.3309258043335  C 83.8526610644258 51.8719632304662  83.0392156862745 52.2101116217991  81.9546218487395 52.4130006565988  C 80.6666666666667 52.6158896913985  79.5820728291316 53.0892974392646  78.5652661064426 53.6979645436638  C 78.5652661064426 53.6979645436638  77.4128851540616 56.1326329612607  77.4128851540616 56.1326329612607  L 74.0913165266106 57.4852265265922  C 74.0913165266106 57.4852265265922  72.3288515406162 57.1470781352593  72.3288515406162 57.1470781352593  C 71.1086834733893 56.9441891004596  70.1596638655462 56.6060407091267  69.5495798319328 56.2002626395272  C 68.7361344537815 55.7944845699278  67.8549019607843 55.7268548916612  66.9058823529412 55.9973736047275  C 66.0924369747899 57.1470781352593  65.6857142857143 58.5673013788575  65.7535014005602 60.1227839789888  C 65.8212885154061 60.9343401181878  66.024649859944 61.4753775443204  66.2280112044818 61.6106369008536  C 66.2280112044818 61.6106369008536  66.7025210084034 61.543007222587  66.7025210084034 61.543007222587  L 67.2448179271709 61.2048588312541  C 67.2448179271709 61.2048588312541  67.3803921568627 63.3690085357846  67.3803921568627 63.3690085357846  C 67.3803921568627 64.112934996717  67.109243697479 64.6539724228496  66.5669467787115 65.0597504924491  C 66.2280112044818 65.3302692055154  65.6179271708683 65.6007879185817  64.7366946778712 65.8713066316481  C 64.7366946778712 65.8713066316481  64.1943977591036 66.0065659881812  64.1943977591036 66.0065659881812  C 63.5165266106443 66.2770847012475  62.0929971988795 68.1030860144452  59.9915966386555 71.4169402495075  C 59.9915966386555 71.4169402495075  57.8901960784314 72.7019041365726  57.8901960784314 72.7019041365726  C 58.2291316526611 72.7019041365726  58.4324929971989 72.8371634931057  58.3647058823529 73.107682206172  C 58.296918767507 73.3782009192383  58.0935574229692 73.4458305975049  57.5512605042017 73.5134602757715  C 57.5512605042017 73.5134602757715  51.7893557422969 73.3782009192383  51.7893557422969 73.3782009192383  C 45.3495798319328 73.1753118844386  40.3333333333333 74.9336835193697  36.7406162464986 78.5856861457649  C 36.7406162464986 78.5856861457649  34.096918767507 78.9914642153644  34.096918767507 78.9914642153644  L 33.1478991596639 77.4359816152331  C 33.1478991596639 77.4359816152331  30.7075630252101 78.0446487196323  30.7075630252101 78.0446487196323  C 29.4196078431373 78.1122783978989  27.7249299719888 77.774130006566  25.8268907563025 76.8273145108339  C 24.0644257703081 76.0833880499015  22.5053221288515 75.0689428759028  20.946218487395 73.8516086671044  C 19.9294117647059 73.0400525279054  18.641456582633 72.4990151017728  17.1501400560224 72.2284963887065  C 17.1501400560224 72.2284963887065  14.9809523809524 72.0256073539068  14.9809523809524 72.0256073539068  C 14.9809523809524 72.0256073539068  12.5406162464986 72.3637557452396  12.5406162464986 72.3637557452396  C 10.7781512605042 72.634274458306  9.01568627450981 72.634274458306  7.38879551820729 72.4990151017728  C 5.42296918767507 72.3637557452396  3.05042016806723 71.822718319107  0.203361344537823 70.9435325016415  C 0.203361344537823 70.9435325016415  0 71.349310571241  0 71.349310571241  L 0.271148459383757 72.1608667104399  L 0.881232492997206 73.4458305975049  L 2.30476190476191 75.204202232436  L 2.10140056022409 76.6920551543007  L 1.2201680672269 77.8417596848326  C 1.2201680672269 77.8417596848326  2.10140056022409 78.7209455022981  2.10140056022409 78.7209455022981  C 2.44033613445378 79.059093893631  2.6436974789916 79.3296126066973  2.6436974789916 79.6001313197636  C 2.6436974789916 79.6001313197636  2.8470588235294 80.8850952068286  2.8470588235294 80.8850952068286  L 3.86386554621848 81.8995403808273  L 3.99943977591037 82.913985554826  L 3.99943977591037 83.5902823374918  L 4.60952380952382 84.0636900853578  C 4.60952380952382 84.0636900853578  5.01624649859944 83.9284307288247  5.01624649859944 83.9284307288247  C 5.2873949579832 83.1845042678923  5.62633053221289 82.913985554826  6.10084033613445 82.8463558765594  C 6.10084033613445 82.8463558765594  6.64313725490197 82.6434668417597  6.64313725490197 82.6434668417597  L 10.2358543417367 82.3053184504268  L 11.6593837535014 81.7642810242941  L 11.9983193277311 81.5613919894944  C 11.9983193277311 81.5613919894944  12.7439775910364 83.1845042678923  12.7439775910364 83.1845042678923  C 12.8795518207283 83.5902823374918  12.8117647058824 83.9284307288247  12.6084033613445 84.2665791201576  C 12.6084033613445 84.2665791201576  10.6425770308123 87.0393959290873  10.6425770308123 87.0393959290873  L 10.7781512605042 87.5128036769534  L 11.6593837535014 88.3919894944189  C 11.6593837535014 88.3919894944189  12.5406162464986 88.9330269205515  12.5406162464986 88.9330269205515  C 13.0151260504202 89.4740643466842  13.3540616246498 89.8122127380171  13.7607843137255 89.9474720945502  C 14.2352941176471 90.0827314510834  14.7098039215686 90.4885095206829  15.1165266106443 91.0295469468155  C 15.1165266106443 91.0295469468155  15.8621848739496 91.5029546946815  15.8621848739496 91.5029546946815  L 16.3366946778711 92.3145108338805  L 16.4044817927171 93.0584372948129  L 16.6756302521008 94.1405121470781  L 18.3703081232493 94.4110308601445  L 18.641456582633 94.6815495732108  L 19.1159663865546 95.6283650689429  L 20.4717086834734 96.1017728168089  L 21.4207282913165 95.6283650689429  L 21.2851540616247 95.0873276428103  L 20.4039215686274 94.2757715036113  L 21.2851540616247 92.5850295469468  L 22.9120448179272 92.5850295469468  L 25.284593837535 93.4642153644124  L 26.5725490196078 93.2613263296126  C 26.5725490196078 93.2613263296126  27.5893557422969 92.3145108338805  27.5893557422969 92.3145108338805  C 28.7417366946779 90.8942875902823  29.4873949579832 90.2856204858831  29.9619047619047 90.623768877216  C 29.9619047619047 90.623768877216  30.5042016806723 90.5561391989494  30.5042016806723 90.5561391989494  C 31.1142857142857 90.5561391989494  31.4532212885154 90.623768877216  31.6565826330532 90.6913985554826  C 31.7243697478992 90.8266579120158  31.7921568627451 90.9619172685489  31.7921568627451 91.0971766250821  C 31.7921568627451 91.3676953381484  32.0633053221289 91.908732764281  32.4700280112045 92.6526592252134  C 32.4700280112045 92.6526592252134  32.6733893557423 93.7347340774787  32.6733893557423 93.7347340774787  L 32.4022408963585 95.0196979645437  L 31.1820728291317 96.5075508864084  L 28.6739495798319 97.6572554169402  L 28.3350140056022 98.333552199606  L 27.9960784313726 100.294812869337  L 28.1994397759104 101.241628365069  L 28.8095238095238 102.256073539068  L 29.8941176470588 103  L 32.7411764705882 103  L 35.1137254901961 102.661851608667  C 35.1137254901961 102.661851608667  35.4526610644258 102.323703217334  35.4526610644258 102.323703217334  C 35.7915966386555 101.917925147735  36.1305322128852 101.782665791202  36.333893557423 101.782665791202  C 36.333893557423 101.782665791202  37.9607843137255 102.053184504268  37.9607843137255 102.053184504268  C 37.9607843137255 101.309258043336  37.9607843137255 100.903479973736  38.2319327731092 100.497701904137  C 38.2319327731092 100.497701904137  38.9098039215686 99.3479973736047  38.9098039215686 99.3479973736047  L 38.9098039215686 97.1838476690742  L 40.1299719887955 93.5994747209455  L 42.3669467787115 91.7058437294813  C 42.3669467787115 91.7058437294813  44.3327731092437 92.3821405121471  44.3327731092437 92.3821405121471  C 45.2817927170868 93.0584372948129  45.7563025210084 93.5994747209455  45.7563025210084 93.9376231122784  C 45.7563025210084 93.9376231122784  45.6207282913165 95.4254760341431  45.6207282913165 95.4254760341431  L 45.0106442577031 96.3722915298752  L 44.5361344537815 97.7248850952068  L 44.5361344537815 99.2127380170716  L 45.0106442577031 99.8890347997374  L 45.6207282913165 99.8214051214708  C 45.6207282913165 99.8214051214708  46.7731092436975 99.8214051214708  46.7731092436975 99.8214051214708  C 47.315406162465 100.091923834537  47.6543417366947 100.565331582403  47.9254901960784 101.241628365069  C 47.9254901960784 101.241628365069  48.5355742296919 101.444517399869  48.5355742296919 101.444517399869  L 50.9759103641457 102.526592252134  L 51.9927170868347 102.864740643467  L 53.4162464985994 102.661851608667  L 54.0263305322129 101.850295469468  L 54.8397759103641 98.5364412344058  L 54.9075630252101 96.7104399212081  L 55.1109243697479 96.4399212081418  L 56.3988795518207 95.3578463558765  L 57.1445378151261 94.4110308601445  L 58.5680672268907 93.7347340774787  L 59.381512605042 93.2613263296126  L 60.3983193277311 92.8555482600131  L 59.8560224089636 90.8266579120158  L 62.1607843137255 91.0971766250821  L 63.3809523809524 91.6382140512147  L 63.7198879551821 90.2856204858831  L 64.0588235294118 90.15036112935  L 65.1434173669468 90.4208798424163  L 65.6857142857143 90.4208798424163  L 66.7025210084034 89.2711753118844  L 68.2616246498599 88.9330269205515  L 69.4140056022409 87.8509520682863  L 70.0240896358543 86.9717662508208  C 70.0240896358543 86.9717662508208  70.0240896358543 85.8896913985555  70.0240896358543 85.8896913985555  C 70.0240896358543 85.483913328956  70.2274509803921 85.2133946158897  70.6341736694678 85.0105055810899  C 70.6341736694678 85.0105055810899  72.1254901960784 85.1457649376231  72.1254901960784 85.1457649376231  L 72.6677871148459 84.8076165462902  L 72.8711484593838 83.8608010505581  L 74.2268907563025 83.4550229809586  L 76.0571428571429 83.6579120157584  L 77.4128851540616 83.3197636244255  L 78.2263305322129 82.5082074852265  L 78.7686274509804 81.4261326329613  L 77.7518207282913 80.344057780696  L 77.5484593837535 79.4648719632305  L 77.2773109243698 78.247537754432  C 77.2773109243698 78.247537754432  77.8873949579832 77.0978332239002  77.8873949579832 77.0978332239002  C 77.8873949579832 76.7596848325673  78.090756302521 76.2862770847012  78.6330532212885 75.7452396585686  C 78.6330532212885 75.7452396585686  79.3787114845938 74.2573867367039  79.3787114845938 74.2573867367039  L 80.1243697478992 73.107682206172  L 81.1411764705882 71.0787918581747  L 82.0901960784313 72.4313854235062  L 82.496918767507 73.919238345371  L 82.7002801120448 75.3394615889691  L 83.6492997198879 75.7452396585686  L 83.9882352941176 75.8804990151018  L 84.8694677871148 74.392646093237  L 85.3439775910364 73.0400525279054  L 85.750700280112 73.1753118844386  L 87.7165266106442 73.8516086671044  L 88.6655462184874 73.107682206172  L 89.8179271708683 72.9724228496389  L 90.4957983193277 71.822718319107  L 90.4957983193277 70.4024950755089  L 90.9703081232493 68.2383453709783  L 92.8005602240896 68.6441234405778  L 93.478431372549 67.4267892317794  L 95.0375350140056 67.2915298752462  L 95.3764705882353 67.4267892317794  L 96.0543417366947 68.3736047275115  L 96.2577030812325 69.9967170059094  L 96.9355742296919 70.6053841103086  L 97.884593837535 69.7261982928431  C 97.884593837535 69.7261982928431  98.0879551820728 69.9967170059094  98.0879551820728 69.9967170059094  C 98.4268907563025 70.3348653972423  98.5624649859944 70.6730137885752  98.5624649859944 71.0787918581747  C 98.5624649859944 71.0787918581747  98.5624649859944 72.2961260669731  98.5624649859944 72.2961260669731  L 98.0879551820728 73.5134602757715  L 98.4268907563025 74.0544977019041  L 99.1047619047619 74.7984241628365  L 101.951820728291 75.204202232436  L 102.358543417367 75.5423506237689  L 103.171988795518 74.392646093237  L 103.917647058823 73.7163493105712  L 103.64649859944 72.7019041365726  L 102.900840336134 68.3736047275115  L 104.866666666667 69.3204202232436  L 105.883473389356 70.4024950755089  L 106.425770308123 70.9435325016415  L 107.239215686275 70.4024950755089  L 110.086274509804 67.2915298752462  L 111.170868347339 66.5476034143138  L 112.32324929972 64.924491135916  L 113.950140056022 65.1950098489823  C 113.950140056022 65.1950098489823  114.695798319328 65.1950098489823  114.695798319328 65.1950098489823  C 114.695798319328 64.5863427445831  114.83137254902 64.1805646749836  114.899159663866 63.9100459619173  C 114.899159663866 63.9100459619173  116.051540616246 62.5574523965857  116.051540616246 62.5574523965857  L 116.390476190476 62.3545633617859  L 117.746218487395 62.827971109652  L 119.373109243697 62.6250820748523  L 120.457703081232 61.4753775443204  L 121 60.4609323703217  L 120.66106442577 59.9198949441891  L 119.712044817927 60.3933026920551  L 118.356302521008 59.1759684832567  L 118.763025210084 57.2823374917925  L 118.898599439776 55.9297439264609  L 118.559663865546 54.7800393959291  L 117.610644257703 54.4418910045962  L 116.66162464986 52.6158896913985  L 115.373669467787 53.7655942219304  L 114.221288515406 54.5095206828628  L 113.814565826331 54.4418910045962  L 112.594397759104 53.2921864740643  L 111.713165266106 51.3309258043335  L 111.306442577031 49.9107025607354  L 111.306442577031 47.8141825344714  L 111.170868347339 46.596848325673  L 110.221848739496 46.2586999343401  L 107.98487394958 44.5003282994091  L 109.137254901961 43.2153644123441  C 109.137254901961 43.2153644123441  110.425210084034 42.9448456992777  110.425210084034 42.9448456992777  C 110.831932773109 42.9448456992777  111.170868347339 43.1477347340775  111.442016806723 43.4858831254104  C 111.442016806723 43.4858831254104  112.391036414566 44.2298095863427  112.391036414566 44.2298095863427  L 113.407843137255 43.4182534471438  L 114.15350140056 42.4038082731451  L 114.15350140056 41.5246224556796  L 113.882352941176 39.360472751149  L 113.678991596639 38.4812869336835  L 112.187675070028 38.2107682206172  L 112.187675070028 37.3315824031517  L 110.831932773109 35.6408404464872  L 110.086274509804 34.3558765594222  L 111.442016806723 32.1240971766251  L 112.255462184874 31.8535784635588  L 113.001120448179 31.2449113591595  L 113.882352941176 28.5397242284964  L 115.034733893557 27.2547603414314  L 116.390476190476 26.8489822718319  L 117.203921568627 27.6605384110309  L 117.949579831933 25.6316480630335  L 117.475070028011 24.1437951411687  L 117.610644257703 22.2501641497045  L 118.424089635854 21.2357189757058  L 118.966386554622 20.2889034799737  C 118.966386554622 20.2889034799737  119.034173669468 19.4773473407748  119.034173669468 19.4773473407748  C 119.034173669468 19.0715692711753  118.83081232493 18.3952724885095  118.424089635854 17.3808273145108  C 118.424089635854 17.3808273145108  118.424089635854 15.7577150361129  118.424089635854 15.7577150361129  C 118.424089635854 15.7577150361129  118.763025210084 14.2698621142482  118.763025210084 14.2698621142482  C 118.4918767507 13.661195009849  118.288515406162 13.1877872619829  118.288515406162 12.84963887065  Z " fill-rule="evenodd" />
    </mask>
  </defs>
  <g transform="matrix(1 0 0 1 -1942 -1773 )">
    <path d="M 118.288515406162 12.84963887065  C 118.288515406162 12.84963887065  118.559663865546 10.9560078791858  118.559663865546 10.9560078791858  L 118.085154061625 9.46815495732108  L 116.864985994398 7.37163493105712  L 115.848179271709 6.83059750492449  L 114.83137254902 7.37163493105712  L 114.221288515406 8.58896913985555  C 114.221288515406 8.58896913985555  112.052100840336 9.0623768877216  112.052100840336 9.0623768877216  C 111.848739495798 9.19763624425476  111.645378151261 9.26526592252134  111.509803921569 9.46815495732108  C 111.509803921569 9.46815495732108  111.103081232493 9.94156270518713  111.103081232493 9.94156270518713  L 110.086274509804 10.7531188443861  C 110.086274509804 10.7531188443861  108.933893557423 11.0236375574524  108.933893557423 11.0236375574524  C 108.527170868347 10.9560078791858  107.917086834734 10.6178594878529  107.103641456583 10.0091923834537  C 105.680112044818 8.58896913985555  105.002240896359 7.64215364412344  105.002240896359 7.10111621799081  C 105.002240896359 7.10111621799081  105.002240896359 5.34274458305975  105.002240896359 5.34274458305975  L 105.205602240896 4.8693368351937  L 103.239775910364 4.1930400525279  C 103.239775910364 4.1930400525279  103.171988795518 4.8693368351937  103.171988795518 4.8693368351937  C 103.171988795518 5.07222586999343  102.96862745098 5.34274458305975  102.629691876751 5.54563361785949  C 102.629691876751 5.54563361785949  101.951820728291 5.8161523309258  101.951820728291 5.8161523309258  L 100.663865546218 5.47800393959291  L 100.867226890756 6.22193040052528  C 100.867226890756 6.22193040052528  99.1047619047619 5.07222586999343  99.1047619047619 5.07222586999343  C 98.6980392156863 4.26066973079449  98.5624649859944 3.51674326986211  98.5624649859944 2.70518713066316  C 98.5624649859944 2.02889034799737  98.6302521008403 1.6231122783979  98.9014005602241 1.35259356533158  C 98.9014005602241 1.35259356533158  99.3081232492997 0.608667104399212  99.3081232492997 0.608667104399212  L 99.1725490196078 0  C 99.1725490196078 0  97.4100840336134 0.270518713066317  97.4100840336134 0.270518713066317  C 96.5288515406162 0.338148391332896  95.9187675070028 0.879185817465528  95.5798319327731 1.89363099146421  C 95.5798319327731 1.89363099146421  94.563025210084 3.51674326986211  94.563025210084 3.51674326986211  L 95.5798319327731 3.44911359159553  L 96.5966386554622 3.85489166119501  L 96.8677871148459 4.12541037426133  L 97.0033613445378 5.54563361785949  L 97.4100840336134 6.89822718319107  C 97.4100840336134 6.89822718319107  95.1731092436975 11.4970453053184  95.1731092436975 11.4970453053184  C 94.7663865546218 12.1057124097177  94.563025210084 13.7288246881156  94.4274509803921 16.1634931057124  C 94.4274509803921 16.1634931057124  93.546218487395 18.0571240971766  93.546218487395 18.0571240971766  C 93.546218487395 18.0571240971766  94.1563025210084 18.7334208798424  94.1563025210084 18.7334208798424  C 94.2240896358543 19.8831254103743  94.1563025210084 20.4917925147735  93.8851540616246 20.6270518713066  C 93.2072829131653 20.9652002626395  91.6481792717087 22.5883125410374  89.140056022409 25.6316480630335  C 89.140056022409 25.6316480630335  88.8011204481793 25.7669074195666  88.8011204481793 25.7669074195666  C 87.7165266106442 25.0229809586343  86.903081232493 24.4819435325016  86.4285714285714 23.940906106369  C 86.0218487394958 23.6703873933027  85.0050420168067 23.467498358503  83.3103641456583 23.467498358503  C 83.3103641456583 23.467498358503  83.2425770308123 26.5784635587656  83.2425770308123 26.5784635587656  C 83.2425770308123 26.5784635587656  81.9546218487395 32.5298752462246  81.9546218487395 32.5298752462246  C 81.6834733893558 33.2738017071569  81.6156862745098 34.6263952724885  81.6156862745098 36.6552856204859  C 81.6156862745098 36.6552856204859  82.0901960784313 37.2639527248851  82.0901960784313 37.2639527248851  L 82.496918767507 36.4523965856861  L 84.1915966386555 35.505581089954  L 88.5299719887955 36.1818778726198  L 89.0044817927171 35.6408404464872  L 89.6145658263305 34.5587655942219  L 91.5126050420168 34.0853578463559  C 91.5126050420168 34.0853578463559  93.7495798319327 33.9500984898227  93.7495798319327 33.9500984898227  C 94.4274509803921 34.0853578463559  95.2408963585434 34.9645436638214  96.2577030812325 36.317137229153  C 98.96918767507 37.6697307944846  100.460504201681 38.887065003283  100.79943977591 39.9691398555483  C 101.002801120448 40.5101772816809  101.002801120448 40.9159553512804  100.79943977591 41.3893630991464  C 100.596078431373 41.8627708470125  100.121568627451 42.1332895600788  99.4436974789916 42.2009192383454  C 96.0543417366947 42.0656598818122  94.1563025210084 42.0656598818122  93.478431372549 42.2685489166119  C 93.478431372549 42.2685489166119  91.8515406162465 43.3506237688772  91.8515406162465 43.3506237688772  C 89.8179271708683 44.8384766907419  88.4621848739496 45.5824031516743  87.7165266106442 45.5824031516743  C 87.7165266106442 45.5824031516743  86.3607843137255 45.7852921864741  86.3607843137255 45.7852921864741  C 86.3607843137255 45.7852921864741  85.5473389355742 49.166776099803  85.5473389355742 49.166776099803  C 85.3439775910364 50.1812212738017  85.0050420168067 50.8575180564675  84.3949579831933 51.3309258043335  C 83.8526610644258 51.8719632304662  83.0392156862745 52.2101116217991  81.9546218487395 52.4130006565988  C 80.6666666666667 52.6158896913985  79.5820728291316 53.0892974392646  78.5652661064426 53.6979645436638  C 78.5652661064426 53.6979645436638  77.4128851540616 56.1326329612607  77.4128851540616 56.1326329612607  L 74.0913165266106 57.4852265265922  C 74.0913165266106 57.4852265265922  72.3288515406162 57.1470781352593  72.3288515406162 57.1470781352593  C 71.1086834733893 56.9441891004596  70.1596638655462 56.6060407091267  69.5495798319328 56.2002626395272  C 68.7361344537815 55.7944845699278  67.8549019607843 55.7268548916612  66.9058823529412 55.9973736047275  C 66.0924369747899 57.1470781352593  65.6857142857143 58.5673013788575  65.7535014005602 60.1227839789888  C 65.8212885154061 60.9343401181878  66.024649859944 61.4753775443204  66.2280112044818 61.6106369008536  C 66.2280112044818 61.6106369008536  66.7025210084034 61.543007222587  66.7025210084034 61.543007222587  L 67.2448179271709 61.2048588312541  C 67.2448179271709 61.2048588312541  67.3803921568627 63.3690085357846  67.3803921568627 63.3690085357846  C 67.3803921568627 64.112934996717  67.109243697479 64.6539724228496  66.5669467787115 65.0597504924491  C 66.2280112044818 65.3302692055154  65.6179271708683 65.6007879185817  64.7366946778712 65.8713066316481  C 64.7366946778712 65.8713066316481  64.1943977591036 66.0065659881812  64.1943977591036 66.0065659881812  C 63.5165266106443 66.2770847012475  62.0929971988795 68.1030860144452  59.9915966386555 71.4169402495075  C 59.9915966386555 71.4169402495075  57.8901960784314 72.7019041365726  57.8901960784314 72.7019041365726  C 58.2291316526611 72.7019041365726  58.4324929971989 72.8371634931057  58.3647058823529 73.107682206172  C 58.296918767507 73.3782009192383  58.0935574229692 73.4458305975049  57.5512605042017 73.5134602757715  C 57.5512605042017 73.5134602757715  51.7893557422969 73.3782009192383  51.7893557422969 73.3782009192383  C 45.3495798319328 73.1753118844386  40.3333333333333 74.9336835193697  36.7406162464986 78.5856861457649  C 36.7406162464986 78.5856861457649  34.096918767507 78.9914642153644  34.096918767507 78.9914642153644  L 33.1478991596639 77.4359816152331  C 33.1478991596639 77.4359816152331  30.7075630252101 78.0446487196323  30.7075630252101 78.0446487196323  C 29.4196078431373 78.1122783978989  27.7249299719888 77.774130006566  25.8268907563025 76.8273145108339  C 24.0644257703081 76.0833880499015  22.5053221288515 75.0689428759028  20.946218487395 73.8516086671044  C 19.9294117647059 73.0400525279054  18.641456582633 72.4990151017728  17.1501400560224 72.2284963887065  C 17.1501400560224 72.2284963887065  14.9809523809524 72.0256073539068  14.9809523809524 72.0256073539068  C 14.9809523809524 72.0256073539068  12.5406162464986 72.3637557452396  12.5406162464986 72.3637557452396  C 10.7781512605042 72.634274458306  9.01568627450981 72.634274458306  7.38879551820729 72.4990151017728  C 5.42296918767507 72.3637557452396  3.05042016806723 71.822718319107  0.203361344537823 70.9435325016415  C 0.203361344537823 70.9435325016415  0 71.349310571241  0 71.349310571241  L 0.271148459383757 72.1608667104399  L 0.881232492997206 73.4458305975049  L 2.30476190476191 75.204202232436  L 2.10140056022409 76.6920551543007  L 1.2201680672269 77.8417596848326  C 1.2201680672269 77.8417596848326  2.10140056022409 78.7209455022981  2.10140056022409 78.7209455022981  C 2.44033613445378 79.059093893631  2.6436974789916 79.3296126066973  2.6436974789916 79.6001313197636  C 2.6436974789916 79.6001313197636  2.8470588235294 80.8850952068286  2.8470588235294 80.8850952068286  L 3.86386554621848 81.8995403808273  L 3.99943977591037 82.913985554826  L 3.99943977591037 83.5902823374918  L 4.60952380952382 84.0636900853578  C 4.60952380952382 84.0636900853578  5.01624649859944 83.9284307288247  5.01624649859944 83.9284307288247  C 5.2873949579832 83.1845042678923  5.62633053221289 82.913985554826  6.10084033613445 82.8463558765594  C 6.10084033613445 82.8463558765594  6.64313725490197 82.6434668417597  6.64313725490197 82.6434668417597  L 10.2358543417367 82.3053184504268  L 11.6593837535014 81.7642810242941  L 11.9983193277311 81.5613919894944  C 11.9983193277311 81.5613919894944  12.7439775910364 83.1845042678923  12.7439775910364 83.1845042678923  C 12.8795518207283 83.5902823374918  12.8117647058824 83.9284307288247  12.6084033613445 84.2665791201576  C 12.6084033613445 84.2665791201576  10.6425770308123 87.0393959290873  10.6425770308123 87.0393959290873  L 10.7781512605042 87.5128036769534  L 11.6593837535014 88.3919894944189  C 11.6593837535014 88.3919894944189  12.5406162464986 88.9330269205515  12.5406162464986 88.9330269205515  C 13.0151260504202 89.4740643466842  13.3540616246498 89.8122127380171  13.7607843137255 89.9474720945502  C 14.2352941176471 90.0827314510834  14.7098039215686 90.4885095206829  15.1165266106443 91.0295469468155  C 15.1165266106443 91.0295469468155  15.8621848739496 91.5029546946815  15.8621848739496 91.5029546946815  L 16.3366946778711 92.3145108338805  L 16.4044817927171 93.0584372948129  L 16.6756302521008 94.1405121470781  L 18.3703081232493 94.4110308601445  L 18.641456582633 94.6815495732108  L 19.1159663865546 95.6283650689429  L 20.4717086834734 96.1017728168089  L 21.4207282913165 95.6283650689429  L 21.2851540616247 95.0873276428103  L 20.4039215686274 94.2757715036113  L 21.2851540616247 92.5850295469468  L 22.9120448179272 92.5850295469468  L 25.284593837535 93.4642153644124  L 26.5725490196078 93.2613263296126  C 26.5725490196078 93.2613263296126  27.5893557422969 92.3145108338805  27.5893557422969 92.3145108338805  C 28.7417366946779 90.8942875902823  29.4873949579832 90.2856204858831  29.9619047619047 90.623768877216  C 29.9619047619047 90.623768877216  30.5042016806723 90.5561391989494  30.5042016806723 90.5561391989494  C 31.1142857142857 90.5561391989494  31.4532212885154 90.623768877216  31.6565826330532 90.6913985554826  C 31.7243697478992 90.8266579120158  31.7921568627451 90.9619172685489  31.7921568627451 91.0971766250821  C 31.7921568627451 91.3676953381484  32.0633053221289 91.908732764281  32.4700280112045 92.6526592252134  C 32.4700280112045 92.6526592252134  32.6733893557423 93.7347340774787  32.6733893557423 93.7347340774787  L 32.4022408963585 95.0196979645437  L 31.1820728291317 96.5075508864084  L 28.6739495798319 97.6572554169402  L 28.3350140056022 98.333552199606  L 27.9960784313726 100.294812869337  L 28.1994397759104 101.241628365069  L 28.8095238095238 102.256073539068  L 29.8941176470588 103  L 32.7411764705882 103  L 35.1137254901961 102.661851608667  C 35.1137254901961 102.661851608667  35.4526610644258 102.323703217334  35.4526610644258 102.323703217334  C 35.7915966386555 101.917925147735  36.1305322128852 101.782665791202  36.333893557423 101.782665791202  C 36.333893557423 101.782665791202  37.9607843137255 102.053184504268  37.9607843137255 102.053184504268  C 37.9607843137255 101.309258043336  37.9607843137255 100.903479973736  38.2319327731092 100.497701904137  C 38.2319327731092 100.497701904137  38.9098039215686 99.3479973736047  38.9098039215686 99.3479973736047  L 38.9098039215686 97.1838476690742  L 40.1299719887955 93.5994747209455  L 42.3669467787115 91.7058437294813  C 42.3669467787115 91.7058437294813  44.3327731092437 92.3821405121471  44.3327731092437 92.3821405121471  C 45.2817927170868 93.0584372948129  45.7563025210084 93.5994747209455  45.7563025210084 93.9376231122784  C 45.7563025210084 93.9376231122784  45.6207282913165 95.4254760341431  45.6207282913165 95.4254760341431  L 45.0106442577031 96.3722915298752  L 44.5361344537815 97.7248850952068  L 44.5361344537815 99.2127380170716  L 45.0106442577031 99.8890347997374  L 45.6207282913165 99.8214051214708  C 45.6207282913165 99.8214051214708  46.7731092436975 99.8214051214708  46.7731092436975 99.8214051214708  C 47.315406162465 100.091923834537  47.6543417366947 100.565331582403  47.9254901960784 101.241628365069  C 47.9254901960784 101.241628365069  48.5355742296919 101.444517399869  48.5355742296919 101.444517399869  L 50.9759103641457 102.526592252134  L 51.9927170868347 102.864740643467  L 53.4162464985994 102.661851608667  L 54.0263305322129 101.850295469468  L 54.8397759103641 98.5364412344058  L 54.9075630252101 96.7104399212081  L 55.1109243697479 96.4399212081418  L 56.3988795518207 95.3578463558765  L 57.1445378151261 94.4110308601445  L 58.5680672268907 93.7347340774787  L 59.381512605042 93.2613263296126  L 60.3983193277311 92.8555482600131  L 59.8560224089636 90.8266579120158  L 62.1607843137255 91.0971766250821  L 63.3809523809524 91.6382140512147  L 63.7198879551821 90.2856204858831  L 64.0588235294118 90.15036112935  L 65.1434173669468 90.4208798424163  L 65.6857142857143 90.4208798424163  L 66.7025210084034 89.2711753118844  L 68.2616246498599 88.9330269205515  L 69.4140056022409 87.8509520682863  L 70.0240896358543 86.9717662508208  C 70.0240896358543 86.9717662508208  70.0240896358543 85.8896913985555  70.0240896358543 85.8896913985555  C 70.0240896358543 85.483913328956  70.2274509803921 85.2133946158897  70.6341736694678 85.0105055810899  C 70.6341736694678 85.0105055810899  72.1254901960784 85.1457649376231  72.1254901960784 85.1457649376231  L 72.6677871148459 84.8076165462902  L 72.8711484593838 83.8608010505581  L 74.2268907563025 83.4550229809586  L 76.0571428571429 83.6579120157584  L 77.4128851540616 83.3197636244255  L 78.2263305322129 82.5082074852265  L 78.7686274509804 81.4261326329613  L 77.7518207282913 80.344057780696  L 77.5484593837535 79.4648719632305  L 77.2773109243698 78.247537754432  C 77.2773109243698 78.247537754432  77.8873949579832 77.0978332239002  77.8873949579832 77.0978332239002  C 77.8873949579832 76.7596848325673  78.090756302521 76.2862770847012  78.6330532212885 75.7452396585686  C 78.6330532212885 75.7452396585686  79.3787114845938 74.2573867367039  79.3787114845938 74.2573867367039  L 80.1243697478992 73.107682206172  L 81.1411764705882 71.0787918581747  L 82.0901960784313 72.4313854235062  L 82.496918767507 73.919238345371  L 82.7002801120448 75.3394615889691  L 83.6492997198879 75.7452396585686  L 83.9882352941176 75.8804990151018  L 84.8694677871148 74.392646093237  L 85.3439775910364 73.0400525279054  L 85.750700280112 73.1753118844386  L 87.7165266106442 73.8516086671044  L 88.6655462184874 73.107682206172  L 89.8179271708683 72.9724228496389  L 90.4957983193277 71.822718319107  L 90.4957983193277 70.4024950755089  L 90.9703081232493 68.2383453709783  L 92.8005602240896 68.6441234405778  L 93.478431372549 67.4267892317794  L 95.0375350140056 67.2915298752462  L 95.3764705882353 67.4267892317794  L 96.0543417366947 68.3736047275115  L 96.2577030812325 69.9967170059094  L 96.9355742296919 70.6053841103086  L 97.884593837535 69.7261982928431  C 97.884593837535 69.7261982928431  98.0879551820728 69.9967170059094  98.0879551820728 69.9967170059094  C 98.4268907563025 70.3348653972423  98.5624649859944 70.6730137885752  98.5624649859944 71.0787918581747  C 98.5624649859944 71.0787918581747  98.5624649859944 72.2961260669731  98.5624649859944 72.2961260669731  L 98.0879551820728 73.5134602757715  L 98.4268907563025 74.0544977019041  L 99.1047619047619 74.7984241628365  L 101.951820728291 75.204202232436  L 102.358543417367 75.5423506237689  L 103.171988795518 74.392646093237  L 103.917647058823 73.7163493105712  L 103.64649859944 72.7019041365726  L 102.900840336134 68.3736047275115  L 104.866666666667 69.3204202232436  L 105.883473389356 70.4024950755089  L 106.425770308123 70.9435325016415  L 107.239215686275 70.4024950755089  L 110.086274509804 67.2915298752462  L 111.170868347339 66.5476034143138  L 112.32324929972 64.924491135916  L 113.950140056022 65.1950098489823  C 113.950140056022 65.1950098489823  114.695798319328 65.1950098489823  114.695798319328 65.1950098489823  C 114.695798319328 64.5863427445831  114.83137254902 64.1805646749836  114.899159663866 63.9100459619173  C 114.899159663866 63.9100459619173  116.051540616246 62.5574523965857  116.051540616246 62.5574523965857  L 116.390476190476 62.3545633617859  L 117.746218487395 62.827971109652  L 119.373109243697 62.6250820748523  L 120.457703081232 61.4753775443204  L 121 60.4609323703217  L 120.66106442577 59.9198949441891  L 119.712044817927 60.3933026920551  L 118.356302521008 59.1759684832567  L 118.763025210084 57.2823374917925  L 118.898599439776 55.9297439264609  L 118.559663865546 54.7800393959291  L 117.610644257703 54.4418910045962  L 116.66162464986 52.6158896913985  L 115.373669467787 53.7655942219304  L 114.221288515406 54.5095206828628  L 113.814565826331 54.4418910045962  L 112.594397759104 53.2921864740643  L 111.713165266106 51.3309258043335  L 111.306442577031 49.9107025607354  L 111.306442577031 47.8141825344714  L 111.170868347339 46.596848325673  L 110.221848739496 46.2586999343401  L 107.98487394958 44.5003282994091  L 109.137254901961 43.2153644123441  C 109.137254901961 43.2153644123441  110.425210084034 42.9448456992777  110.425210084034 42.9448456992777  C 110.831932773109 42.9448456992777  111.170868347339 43.1477347340775  111.442016806723 43.4858831254104  C 111.442016806723 43.4858831254104  112.391036414566 44.2298095863427  112.391036414566 44.2298095863427  L 113.407843137255 43.4182534471438  L 114.15350140056 42.4038082731451  L 114.15350140056 41.5246224556796  L 113.882352941176 39.360472751149  L 113.678991596639 38.4812869336835  L 112.187675070028 38.2107682206172  L 112.187675070028 37.3315824031517  L 110.831932773109 35.6408404464872  L 110.086274509804 34.3558765594222  L 111.442016806723 32.1240971766251  L 112.255462184874 31.8535784635588  L 113.001120448179 31.2449113591595  L 113.882352941176 28.5397242284964  L 115.034733893557 27.2547603414314  L 116.390476190476 26.8489822718319  L 117.203921568627 27.6605384110309  L 117.949579831933 25.6316480630335  L 117.475070028011 24.1437951411687  L 117.610644257703 22.2501641497045  L 118.424089635854 21.2357189757058  L 118.966386554622 20.2889034799737  C 118.966386554622 20.2889034799737  119.034173669468 19.4773473407748  119.034173669468 19.4773473407748  C 119.034173669468 19.0715692711753  118.83081232493 18.3952724885095  118.424089635854 17.3808273145108  C 118.424089635854 17.3808273145108  118.424089635854 15.7577150361129  118.424089635854 15.7577150361129  C 118.424089635854 15.7577150361129  118.763025210084 14.2698621142482  118.763025210084 14.2698621142482  C 118.4918767507 13.661195009849  118.288515406162 13.1877872619829  118.288515406162 12.84963887065  Z " fill-rule="nonzero" fill="#4a9eff" stroke="none" transform="matrix(1 0 0 1 1942 1773 )" />
    <path d="M 118.288515406162 12.84963887065  C 118.288515406162 12.84963887065  118.559663865546 10.9560078791858  118.559663865546 10.9560078791858  L 118.085154061625 9.46815495732108  L 116.864985994398 7.37163493105712  L 115.848179271709 6.83059750492449  L 114.83137254902 7.37163493105712  L 114.221288515406 8.58896913985555  C 114.221288515406 8.58896913985555  112.052100840336 9.0623768877216  112.052100840336 9.0623768877216  C 111.848739495798 9.19763624425476  111.645378151261 9.26526592252134  111.509803921569 9.46815495732108  C 111.509803921569 9.46815495732108  111.103081232493 9.94156270518713  111.103081232493 9.94156270518713  L 110.086274509804 10.7531188443861  C 110.086274509804 10.7531188443861  108.933893557423 11.0236375574524  108.933893557423 11.0236375574524  C 108.527170868347 10.9560078791858  107.917086834734 10.6178594878529  107.103641456583 10.0091923834537  C 105.680112044818 8.58896913985555  105.002240896359 7.64215364412344  105.002240896359 7.10111621799081  C 105.002240896359 7.10111621799081  105.002240896359 5.34274458305975  105.002240896359 5.34274458305975  L 105.205602240896 4.8693368351937  L 103.239775910364 4.1930400525279  C 103.239775910364 4.1930400525279  103.171988795518 4.8693368351937  103.171988795518 4.8693368351937  C 103.171988795518 5.07222586999343  102.96862745098 5.34274458305975  102.629691876751 5.54563361785949  C 102.629691876751 5.54563361785949  101.951820728291 5.8161523309258  101.951820728291 5.8161523309258  L 100.663865546218 5.47800393959291  L 100.867226890756 6.22193040052528  C 100.867226890756 6.22193040052528  99.1047619047619 5.07222586999343  99.1047619047619 5.07222586999343  C 98.6980392156863 4.26066973079449  98.5624649859944 3.51674326986211  98.5624649859944 2.70518713066316  C 98.5624649859944 2.02889034799737  98.6302521008403 1.6231122783979  98.9014005602241 1.35259356533158  C 98.9014005602241 1.35259356533158  99.3081232492997 0.608667104399212  99.3081232492997 0.608667104399212  L 99.1725490196078 0  C 99.1725490196078 0  97.4100840336134 0.270518713066317  97.4100840336134 0.270518713066317  C 96.5288515406162 0.338148391332896  95.9187675070028 0.879185817465528  95.5798319327731 1.89363099146421  C 95.5798319327731 1.89363099146421  94.563025210084 3.51674326986211  94.563025210084 3.51674326986211  L 95.5798319327731 3.44911359159553  L 96.5966386554622 3.85489166119501  L 96.8677871148459 4.12541037426133  L 97.0033613445378 5.54563361785949  L 97.4100840336134 6.89822718319107  C 97.4100840336134 6.89822718319107  95.1731092436975 11.4970453053184  95.1731092436975 11.4970453053184  C 94.7663865546218 12.1057124097177  94.563025210084 13.7288246881156  94.4274509803921 16.1634931057124  C 94.4274509803921 16.1634931057124  93.546218487395 18.0571240971766  93.546218487395 18.0571240971766  C 93.546218487395 18.0571240971766  94.1563025210084 18.7334208798424  94.1563025210084 18.7334208798424  C 94.2240896358543 19.8831254103743  94.1563025210084 20.4917925147735  93.8851540616246 20.6270518713066  C 93.2072829131653 20.9652002626395  91.6481792717087 22.5883125410374  89.140056022409 25.6316480630335  C 89.140056022409 25.6316480630335  88.8011204481793 25.7669074195666  88.8011204481793 25.7669074195666  C 87.7165266106442 25.0229809586343  86.903081232493 24.4819435325016  86.4285714285714 23.940906106369  C 86.0218487394958 23.6703873933027  85.0050420168067 23.467498358503  83.3103641456583 23.467498358503  C 83.3103641456583 23.467498358503  83.2425770308123 26.5784635587656  83.2425770308123 26.5784635587656  C 83.2425770308123 26.5784635587656  81.9546218487395 32.5298752462246  81.9546218487395 32.5298752462246  C 81.6834733893558 33.2738017071569  81.6156862745098 34.6263952724885  81.6156862745098 36.6552856204859  C 81.6156862745098 36.6552856204859  82.0901960784313 37.2639527248851  82.0901960784313 37.2639527248851  L 82.496918767507 36.4523965856861  L 84.1915966386555 35.505581089954  L 88.5299719887955 36.1818778726198  L 89.0044817927171 35.6408404464872  L 89.6145658263305 34.5587655942219  L 91.5126050420168 34.0853578463559  C 91.5126050420168 34.0853578463559  93.7495798319327 33.9500984898227  93.7495798319327 33.9500984898227  C 94.4274509803921 34.0853578463559  95.2408963585434 34.9645436638214  96.2577030812325 36.317137229153  C 98.96918767507 37.6697307944846  100.460504201681 38.887065003283  100.79943977591 39.9691398555483  C 101.002801120448 40.5101772816809  101.002801120448 40.9159553512804  100.79943977591 41.3893630991464  C 100.596078431373 41.8627708470125  100.121568627451 42.1332895600788  99.4436974789916 42.2009192383454  C 96.0543417366947 42.0656598818122  94.1563025210084 42.0656598818122  93.478431372549 42.2685489166119  C 93.478431372549 42.2685489166119  91.8515406162465 43.3506237688772  91.8515406162465 43.3506237688772  C 89.8179271708683 44.8384766907419  88.4621848739496 45.5824031516743  87.7165266106442 45.5824031516743  C 87.7165266106442 45.5824031516743  86.3607843137255 45.7852921864741  86.3607843137255 45.7852921864741  C 86.3607843137255 45.7852921864741  85.5473389355742 49.166776099803  85.5473389355742 49.166776099803  C 85.3439775910364 50.1812212738017  85.0050420168067 50.8575180564675  84.3949579831933 51.3309258043335  C 83.8526610644258 51.8719632304662  83.0392156862745 52.2101116217991  81.9546218487395 52.4130006565988  C 80.6666666666667 52.6158896913985  79.5820728291316 53.0892974392646  78.5652661064426 53.6979645436638  C 78.5652661064426 53.6979645436638  77.4128851540616 56.1326329612607  77.4128851540616 56.1326329612607  L 74.0913165266106 57.4852265265922  C 74.0913165266106 57.4852265265922  72.3288515406162 57.1470781352593  72.3288515406162 57.1470781352593  C 71.1086834733893 56.9441891004596  70.1596638655462 56.6060407091267  69.5495798319328 56.2002626395272  C 68.7361344537815 55.7944845699278  67.8549019607843 55.7268548916612  66.9058823529412 55.9973736047275  C 66.0924369747899 57.1470781352593  65.6857142857143 58.5673013788575  65.7535014005602 60.1227839789888  C 65.8212885154061 60.9343401181878  66.024649859944 61.4753775443204  66.2280112044818 61.6106369008536  C 66.2280112044818 61.6106369008536  66.7025210084034 61.543007222587  66.7025210084034 61.543007222587  L 67.2448179271709 61.2048588312541  C 67.2448179271709 61.2048588312541  67.3803921568627 63.3690085357846  67.3803921568627 63.3690085357846  C 67.3803921568627 64.112934996717  67.109243697479 64.6539724228496  66.5669467787115 65.0597504924491  C 66.2280112044818 65.3302692055154  65.6179271708683 65.6007879185817  64.7366946778712 65.8713066316481  C 64.7366946778712 65.8713066316481  64.1943977591036 66.0065659881812  64.1943977591036 66.0065659881812  C 63.5165266106443 66.2770847012475  62.0929971988795 68.1030860144452  59.9915966386555 71.4169402495075  C 59.9915966386555 71.4169402495075  57.8901960784314 72.7019041365726  57.8901960784314 72.7019041365726  C 58.2291316526611 72.7019041365726  58.4324929971989 72.8371634931057  58.3647058823529 73.107682206172  C 58.296918767507 73.3782009192383  58.0935574229692 73.4458305975049  57.5512605042017 73.5134602757715  C 57.5512605042017 73.5134602757715  51.7893557422969 73.3782009192383  51.7893557422969 73.3782009192383  C 45.3495798319328 73.1753118844386  40.3333333333333 74.9336835193697  36.7406162464986 78.5856861457649  C 36.7406162464986 78.5856861457649  34.096918767507 78.9914642153644  34.096918767507 78.9914642153644  L 33.1478991596639 77.4359816152331  C 33.1478991596639 77.4359816152331  30.7075630252101 78.0446487196323  30.7075630252101 78.0446487196323  C 29.4196078431373 78.1122783978989  27.7249299719888 77.774130006566  25.8268907563025 76.8273145108339  C 24.0644257703081 76.0833880499015  22.5053221288515 75.0689428759028  20.946218487395 73.8516086671044  C 19.9294117647059 73.0400525279054  18.641456582633 72.4990151017728  17.1501400560224 72.2284963887065  C 17.1501400560224 72.2284963887065  14.9809523809524 72.0256073539068  14.9809523809524 72.0256073539068  C 14.9809523809524 72.0256073539068  12.5406162464986 72.3637557452396  12.5406162464986 72.3637557452396  C 10.7781512605042 72.634274458306  9.01568627450981 72.634274458306  7.38879551820729 72.4990151017728  C 5.42296918767507 72.3637557452396  3.05042016806723 71.822718319107  0.203361344537823 70.9435325016415  C 0.203361344537823 70.9435325016415  0 71.349310571241  0 71.349310571241  L 0.271148459383757 72.1608667104399  L 0.881232492997206 73.4458305975049  L 2.30476190476191 75.204202232436  L 2.10140056022409 76.6920551543007  L 1.2201680672269 77.8417596848326  C 1.2201680672269 77.8417596848326  2.10140056022409 78.7209455022981  2.10140056022409 78.7209455022981  C 2.44033613445378 79.059093893631  2.6436974789916 79.3296126066973  2.6436974789916 79.6001313197636  C 2.6436974789916 79.6001313197636  2.8470588235294 80.8850952068286  2.8470588235294 80.8850952068286  L 3.86386554621848 81.8995403808273  L 3.99943977591037 82.913985554826  L 3.99943977591037 83.5902823374918  L 4.60952380952382 84.0636900853578  C 4.60952380952382 84.0636900853578  5.01624649859944 83.9284307288247  5.01624649859944 83.9284307288247  C 5.2873949579832 83.1845042678923  5.62633053221289 82.913985554826  6.10084033613445 82.8463558765594  C 6.10084033613445 82.8463558765594  6.64313725490197 82.6434668417597  6.64313725490197 82.6434668417597  L 10.2358543417367 82.3053184504268  L 11.6593837535014 81.7642810242941  L 11.9983193277311 81.5613919894944  C 11.9983193277311 81.5613919894944  12.7439775910364 83.1845042678923  12.7439775910364 83.1845042678923  C 12.8795518207283 83.5902823374918  12.8117647058824 83.9284307288247  12.6084033613445 84.2665791201576  C 12.6084033613445 84.2665791201576  10.6425770308123 87.0393959290873  10.6425770308123 87.0393959290873  L 10.7781512605042 87.5128036769534  L 11.6593837535014 88.3919894944189  C 11.6593837535014 88.3919894944189  12.5406162464986 88.9330269205515  12.5406162464986 88.9330269205515  C 13.0151260504202 89.4740643466842  13.3540616246498 89.8122127380171  13.7607843137255 89.9474720945502  C 14.2352941176471 90.0827314510834  14.7098039215686 90.4885095206829  15.1165266106443 91.0295469468155  C 15.1165266106443 91.0295469468155  15.8621848739496 91.5029546946815  15.8621848739496 91.5029546946815  L 16.3366946778711 92.3145108338805  L 16.4044817927171 93.0584372948129  L 16.6756302521008 94.1405121470781  L 18.3703081232493 94.4110308601445  L 18.641456582633 94.6815495732108  L 19.1159663865546 95.6283650689429  L 20.4717086834734 96.1017728168089  L 21.4207282913165 95.6283650689429  L 21.2851540616247 95.0873276428103  L 20.4039215686274 94.2757715036113  L 21.2851540616247 92.5850295469468  L 22.9120448179272 92.5850295469468  L 25.284593837535 93.4642153644124  L 26.5725490196078 93.2613263296126  C 26.5725490196078 93.2613263296126  27.5893557422969 92.3145108338805  27.5893557422969 92.3145108338805  C 28.7417366946779 90.8942875902823  29.4873949579832 90.2856204858831  29.9619047619047 90.623768877216  C 29.9619047619047 90.623768877216  30.5042016806723 90.5561391989494  30.5042016806723 90.5561391989494  C 31.1142857142857 90.5561391989494  31.4532212885154 90.623768877216  31.6565826330532 90.6913985554826  C 31.7243697478992 90.8266579120158  31.7921568627451 90.9619172685489  31.7921568627451 91.0971766250821  C 31.7921568627451 91.3676953381484  32.0633053221289 91.908732764281  32.4700280112045 92.6526592252134  C 32.4700280112045 92.6526592252134  32.6733893557423 93.7347340774787  32.6733893557423 93.7347340774787  L 32.4022408963585 95.0196979645437  L 31.1820728291317 96.5075508864084  L 28.6739495798319 97.6572554169402  L 28.3350140056022 98.333552199606  L 27.9960784313726 100.294812869337  L 28.1994397759104 101.241628365069  L 28.8095238095238 102.256073539068  L 29.8941176470588 103  L 32.7411764705882 103  L 35.1137254901961 102.661851608667  C 35.1137254901961 102.661851608667  35.4526610644258 102.323703217334  35.4526610644258 102.323703217334  C 35.7915966386555 101.917925147735  36.1305322128852 101.782665791202  36.333893557423 101.782665791202  C 36.333893557423 101.782665791202  37.9607843137255 102.053184504268  37.9607843137255 102.053184504268  C 37.9607843137255 101.309258043336  37.9607843137255 100.903479973736  38.2319327731092 100.497701904137  C 38.2319327731092 100.497701904137  38.9098039215686 99.3479973736047  38.9098039215686 99.3479973736047  L 38.9098039215686 97.1838476690742  L 40.1299719887955 93.5994747209455  L 42.3669467787115 91.7058437294813  C 42.3669467787115 91.7058437294813  44.3327731092437 92.3821405121471  44.3327731092437 92.3821405121471  C 45.2817927170868 93.0584372948129  45.7563025210084 93.5994747209455  45.7563025210084 93.9376231122784  C 45.7563025210084 93.9376231122784  45.6207282913165 95.4254760341431  45.6207282913165 95.4254760341431  L 45.0106442577031 96.3722915298752  L 44.5361344537815 97.7248850952068  L 44.5361344537815 99.2127380170716  L 45.0106442577031 99.8890347997374  L 45.6207282913165 99.8214051214708  C 45.6207282913165 99.8214051214708  46.7731092436975 99.8214051214708  46.7731092436975 99.8214051214708  C 47.315406162465 100.091923834537  47.6543417366947 100.565331582403  47.9254901960784 101.241628365069  C 47.9254901960784 101.241628365069  48.5355742296919 101.444517399869  48.5355742296919 101.444517399869  L 50.9759103641457 102.526592252134  L 51.9927170868347 102.864740643467  L 53.4162464985994 102.661851608667  L 54.0263305322129 101.850295469468  L 54.8397759103641 98.5364412344058  L 54.9075630252101 96.7104399212081  L 55.1109243697479 96.4399212081418  L 56.3988795518207 95.3578463558765  L 57.1445378151261 94.4110308601445  L 58.5680672268907 93.7347340774787  L 59.381512605042 93.2613263296126  L 60.3983193277311 92.8555482600131  L 59.8560224089636 90.8266579120158  L 62.1607843137255 91.0971766250821  L 63.3809523809524 91.6382140512147  L 63.7198879551821 90.2856204858831  L 64.0588235294118 90.15036112935  L 65.1434173669468 90.4208798424163  L 65.6857142857143 90.4208798424163  L 66.7025210084034 89.2711753118844  L 68.2616246498599 88.9330269205515  L 69.4140056022409 87.8509520682863  L 70.0240896358543 86.9717662508208  C 70.0240896358543 86.9717662508208  70.0240896358543 85.8896913985555  70.0240896358543 85.8896913985555  C 70.0240896358543 85.483913328956  70.2274509803921 85.2133946158897  70.6341736694678 85.0105055810899  C 70.6341736694678 85.0105055810899  72.1254901960784 85.1457649376231  72.1254901960784 85.1457649376231  L 72.6677871148459 84.8076165462902  L 72.8711484593838 83.8608010505581  L 74.2268907563025 83.4550229809586  L 76.0571428571429 83.6579120157584  L 77.4128851540616 83.3197636244255  L 78.2263305322129 82.5082074852265  L 78.7686274509804 81.4261326329613  L 77.7518207282913 80.344057780696  L 77.5484593837535 79.4648719632305  L 77.2773109243698 78.247537754432  C 77.2773109243698 78.247537754432  77.8873949579832 77.0978332239002  77.8873949579832 77.0978332239002  C 77.8873949579832 76.7596848325673  78.090756302521 76.2862770847012  78.6330532212885 75.7452396585686  C 78.6330532212885 75.7452396585686  79.3787114845938 74.2573867367039  79.3787114845938 74.2573867367039  L 80.1243697478992 73.107682206172  L 81.1411764705882 71.0787918581747  L 82.0901960784313 72.4313854235062  L 82.496918767507 73.919238345371  L 82.7002801120448 75.3394615889691  L 83.6492997198879 75.7452396585686  L 83.9882352941176 75.8804990151018  L 84.8694677871148 74.392646093237  L 85.3439775910364 73.0400525279054  L 85.750700280112 73.1753118844386  L 87.7165266106442 73.8516086671044  L 88.6655462184874 73.107682206172  L 89.8179271708683 72.9724228496389  L 90.4957983193277 71.822718319107  L 90.4957983193277 70.4024950755089  L 90.9703081232493 68.2383453709783  L 92.8005602240896 68.6441234405778  L 93.478431372549 67.4267892317794  L 95.0375350140056 67.2915298752462  L 95.3764705882353 67.4267892317794  L 96.0543417366947 68.3736047275115  L 96.2577030812325 69.9967170059094  L 96.9355742296919 70.6053841103086  L 97.884593837535 69.7261982928431  C 97.884593837535 69.7261982928431  98.0879551820728 69.9967170059094  98.0879551820728 69.9967170059094  C 98.4268907563025 70.3348653972423  98.5624649859944 70.6730137885752  98.5624649859944 71.0787918581747  C 98.5624649859944 71.0787918581747  98.5624649859944 72.2961260669731  98.5624649859944 72.2961260669731  L 98.0879551820728 73.5134602757715  L 98.4268907563025 74.0544977019041  L 99.1047619047619 74.7984241628365  L 101.951820728291 75.204202232436  L 102.358543417367 75.5423506237689  L 103.171988795518 74.392646093237  L 103.917647058823 73.7163493105712  L 103.64649859944 72.7019041365726  L 102.900840336134 68.3736047275115  L 104.866666666667 69.3204202232436  L 105.883473389356 70.4024950755089  L 106.425770308123 70.9435325016415  L 107.239215686275 70.4024950755089  L 110.086274509804 67.2915298752462  L 111.170868347339 66.5476034143138  L 112.32324929972 64.924491135916  L 113.950140056022 65.1950098489823  C 113.950140056022 65.1950098489823  114.695798319328 65.1950098489823  114.695798319328 65.1950098489823  C 114.695798319328 64.5863427445831  114.83137254902 64.1805646749836  114.899159663866 63.9100459619173  C 114.899159663866 63.9100459619173  116.051540616246 62.5574523965857  116.051540616246 62.5574523965857  L 116.390476190476 62.3545633617859  L 117.746218487395 62.827971109652  L 119.373109243697 62.6250820748523  L 120.457703081232 61.4753775443204  L 121 60.4609323703217  L 120.66106442577 59.9198949441891  L 119.712044817927 60.3933026920551  L 118.356302521008 59.1759684832567  L 118.763025210084 57.2823374917925  L 118.898599439776 55.9297439264609  L 118.559663865546 54.7800393959291  L 117.610644257703 54.4418910045962  L 116.66162464986 52.6158896913985  L 115.373669467787 53.7655942219304  L 114.221288515406 54.5095206828628  L 113.814565826331 54.4418910045962  L 112.594397759104 53.2921864740643  L 111.713165266106 51.3309258043335  L 111.306442577031 49.9107025607354  L 111.306442577031 47.8141825344714  L 111.170868347339 46.596848325673  L 110.221848739496 46.2586999343401  L 107.98487394958 44.5003282994091  L 109.137254901961 43.2153644123441  C 109.137254901961 43.2153644123441  110.425210084034 42.9448456992777  110.425210084034 42.9448456992777  C 110.831932773109 42.9448456992777  111.170868347339 43.1477347340775  111.442016806723 43.4858831254104  C 111.442016806723 43.4858831254104  112.391036414566 44.2298095863427  112.391036414566 44.2298095863427  L 113.407843137255 43.4182534471438  L 114.15350140056 42.4038082731451  L 114.15350140056 41.5246224556796  L 113.882352941176 39.360472751149  L 113.678991596639 38.4812869336835  L 112.187675070028 38.2107682206172  L 112.187675070028 37.3315824031517  L 110.831932773109 35.6408404464872  L 110.086274509804 34.3558765594222  L 111.442016806723 32.1240971766251  L 112.255462184874 31.8535784635588  L 113.001120448179 31.2449113591595  L 113.882352941176 28.5397242284964  L 115.034733893557 27.2547603414314  L 116.390476190476 26.8489822718319  L 117.203921568627 27.6605384110309  L 117.949579831933 25.6316480630335  L 117.475070028011 24.1437951411687  L 117.610644257703 22.2501641497045  L 118.424089635854 21.2357189757058  L 118.966386554622 20.2889034799737  C 118.966386554622 20.2889034799737  119.034173669468 19.4773473407748  119.034173669468 19.4773473407748  C 119.034173669468 19.0715692711753  118.83081232493 18.3952724885095  118.424089635854 17.3808273145108  C 118.424089635854 17.3808273145108  118.424089635854 15.7577150361129  118.424089635854 15.7577150361129  C 118.424089635854 15.7577150361129  118.763025210084 14.2698621142482  118.763025210084 14.2698621142482  C 118.4918767507 13.661195009849  118.288515406162 13.1877872619829  118.288515406162 12.84963887065  Z " stroke-width="2" stroke="#ffffff" fill="none" transform="matrix(1 0 0 1 1942 1773 )" mask="url(#clip781)" />
  </g>
</svg>