<?xml version="1.0" encoding="utf-8"?>
<svg version="1.1" xmlns:xlink="http://www.w3.org/1999/xlink" width="24px" height="30px" xmlns="http://www.w3.org/2000/svg">
  <defs>
    <mask fill="white" id="clip477">
      <path d="M 12.6136363636364 1.20738958757576  L 12.5454545454545 1.27693695572172  L 12.4090909090909 1.34648432386767  L 11.25 2.18105274161909  L 10.2272727272727 3.36335800010029  L 10.1590909090909 3.36335800010029  L 10.1590909090909 3.50245273639219  L 8.65909090909091 3.50245273639219  C 8.65909090909091 3.50245273639219  7.84090909090909 3.01562115937053  7.84090909090909 3.01562115937053  C 6.81818181818182 3.29381063195432  6.27272727272727 3.98928431341385  6.06818181818181 5.31068430818694  C 6.06818181818181 5.31068430818694  5.99999999999997 6.49298956666814  5.99999999999997 6.49298956666814  L 6.81818181818182 5.72796851706265  L 6.27272727272727 8.02303166587909  L 6.27272727272727 8.09257903402503  L 6.27272727272727 8.16212640217098  C 6.27272727272727 8.16212640217098  4.02272727272726 10.1790000784036  4.02272727272726 10.1790000784036  C 3.68181818181817 10.5962842872793  3.54545454545454 10.9440211280091  3.68181818181817 11.1526632324469  C 3.68181818181817 11.1526632324469  4.09090909090909 11.6394948094686  4.09090909090909 11.6394948094686  C 4.56818181818181 12.0567790183443  4.84090909090907 12.4045158590741  4.77272727272728 12.6827053316579  C 4.77272727272728 12.8913474360958  4.70454545454544 13.0999895405336  4.56818181818181 13.2390842768255  C 4.56818181818181 13.2390842768255  3.13636363636361 14.4909369034526  3.13636363636361 14.4909369034526  C 3.20454545454545 14.8386737441824  3.20454545454545 15.39505268935  3.13636363636361 16.0209790026636  C 3.13636363636361 16.0209790026636  3.13636363636361 16.2296211071014  3.13636363636361 16.2296211071014  L 3.06818181818182 16.2991684752474  C 3.06818181818182 16.2991684752474  2.52272727272727 16.5078105796853  2.52272727272727 16.5078105796853  C 2.52272727272727 16.855547420415  2.38636363636364 17.0641895248529  2.04545454545455 17.4119263655827  C 2.04545454545455 17.4119263655827  1.29545454545453 18.1769474151881  1.29545454545453 18.1769474151881  C 1.29545454545453 18.1769474151881  1.29545454545453 18.2464947833341  1.29545454545453 18.2464947833341  C 1.43181818181816 18.5942316240638  1.43181818181816 19.0115158329395  1.1590909090909 19.6374421462531  C 1.49999999999999 20.3329158277127  1.49999999999999 20.8197474047343  1.1590909090909 21.0283895091722  C 1.1590909090909 21.0283895091722  0.47727272727272 21.7238631906317  0.47727272727272 21.7238631906317  L 0.340909090909091 21.7934105587776  L 0 21.9325052950696  L 0 22.0716000313615  L 0.47727272727272 23.7407368668643  C 0.47727272727272 23.7407368668643  0.613636363636349 23.7407368668643  0.613636363636349 23.7407368668643  C 1.77272727272725 23.6016421305724  2.99999999999999 23.6016421305724  4.36363636363635 23.7407368668643  C 4.36363636363635 23.7407368668643  4.49999999999998 23.7407368668643  4.49999999999998 23.7407368668643  L 4.49999999999998 23.8102842350103  L 5.99999999999997 25.3403263342212  L 5.99999999999997 25.4098737023672  L 6.06818181818181 25.4098737023672  L 6.95454545454545 27.9831263237674  L 8.79545454545454 29.7218105274162  L 9.54545454545455 30  L 9.61363636363635 27.8440315874755  L 11.3181818181818 29.5827157911243  L 11.5909090909091 29.3045263185405  L 12.8181818181818 26.7312736971403  L 13.0227272727273 25.2707789660752  L 13.2272727272727 25.3403263342212  L 13.3636363636363 25.3403263342212  L 14.6590909090909 25.4098737023672  L 14.5909090909091 24.3666631801779  L 14.5909090909091 24.15802107574  L 14.5909090909091 24.0189263394481  L 14.7954545454545 24.0189263394481  C 14.7954545454545 24.0189263394481  16.5 24.0884737075941  16.5 24.0884737075941  C 17.3863636363636 23.1843579216967  17.7954545454545 22.4193368720912  17.7954545454545 21.7934105587776  C 17.7954545454545 21.7934105587776  17.5227272727273 19.2897053055234  17.5227272727273 19.2897053055234  L 19.0227272727273 19.776536882545  L 19.4318181818182 19.0810632010855  L 18.75 18.385589519626  L 18.5454545454546 18.1074000470422  L 19.9090909090909 16.7164526841231  L 19.9772727272727 16.855547420415  L 20.1136363636364 16.855547420415  L 20.9318181818182 17.3423789974367  L 20.9318181818182 17.1337368929988  L 20.3863636363636 15.8818842663717  L 20.5909090909091 15.6732421619339  L 20.9318181818182 15.464600057496  L 20.7954545454546 14.9777684804743  L 20.1136363636364 13.6563684857012  L 20.25 13.5868211175553  L 20.3863636363636 13.4477263812634  L 22.2272727272727 12.4045158590741  C 22.2272727272727 12.4045158590741  22.2954545454546 11.6394948094686  22.2954545454546 11.6394948094686  C 20.7272727272727 10.8049263917172  19.9090909090909 10.1094527102577  20.0454545454545 9.76171586952789  C 20.1136363636364 9.48352639694408  20.25 9.41397902879813  20.5909090909091 9.41397902879813  C 20.5909090909091 9.41397902879813  22.6363636363636 9.76171586952789  22.6363636363636 9.76171586952789  L 22.7045454545454 8.50986324290075  L 22.7045454545454 8.37076850660885  L 23.7272727272727 7.32755798441957  C 23.7272727272727 7.32755798441957  24 6.56253693481409  24 6.56253693481409  C 23.5909090909091 6.42344219852218  23.3181818181818 6.14525272593839  23.0454545454545 5.86706325335457  C 23.0454545454545 5.86706325335457  22.9772727272727 5.72796851706265  22.9772727272727 5.72796851706265  L 22.9772727272727 5.58887378077076  L 23.0454545454545 5.241136940041  L 22.9772727272727 5.1020422037491  L 22.8409090909091 5.03249483560313  C 22.8409090909091 5.03249483560313  22.7727272727273 5.1020422037491  22.7727272727273 5.1020422037491  C 22.6363636363636 5.38023167633289  22.2954545454546 5.58887378077076  21.8181818181818 5.58887378077076  C 21.0681818181818 5.58887378077076  20.4545454545455 5.241136940041  19.9772727272727 4.75430536301934  C 19.9772727272727 4.75430536301934  19.9772727272727 4.68475799487337  19.9772727272727 4.68475799487337  L 19.9090909090909 4.68475799487337  L 19.3636363636364 3.71109484083005  C 19.3636363636364 3.71109484083005  19.2272727272727 3.85018957712195  19.2272727272727 3.85018957712195  C 19.1590909090909 4.26747378599766  18.8863636363636 4.68475799487337  18.4090909090909 5.03249483560313  C 17.5227272727273 5.44977904447886  16.7045454545455 5.58887378077076  15.8863636363636 5.241136940041  C 15.3409090909091 5.03249483560313  15 4.61521062672742  14.7954545454545 3.98928431341385  C 14.7954545454545 3.98928431341385  14.5909090909091 2.5983369504948  14.5909090909091 2.5983369504948  C 14.3863636363636 1.27693695572172  14.1136363636364 0.511915906116234  13.7045454545454 0.303273801678389  C 13.2954545454546 0.0250843290945763  12.8863636363636 -0.044463039051372  12.5454545454545 0.0250843290945763  C 12.5454545454545 0.0250843290945763  12.6136363636364 1.20738958757576  12.6136363636364 1.20738958757576  Z " fill-rule="evenodd" />
    </mask>
  </defs>
  <g transform="matrix(1 0 0 1 -2040 -1932 )">
    <path d="M 12.6136363636364 1.20738958757576  L 12.5454545454545 1.27693695572172  L 12.4090909090909 1.34648432386767  L 11.25 2.18105274161909  L 10.2272727272727 3.36335800010029  L 10.1590909090909 3.36335800010029  L 10.1590909090909 3.50245273639219  L 8.65909090909091 3.50245273639219  C 8.65909090909091 3.50245273639219  7.84090909090909 3.01562115937053  7.84090909090909 3.01562115937053  C 6.81818181818182 3.29381063195432  6.27272727272727 3.98928431341385  6.06818181818181 5.31068430818694  C 6.06818181818181 5.31068430818694  5.99999999999997 6.49298956666814  5.99999999999997 6.49298956666814  L 6.81818181818182 5.72796851706265  L 6.27272727272727 8.02303166587909  L 6.27272727272727 8.09257903402503  L 6.27272727272727 8.16212640217098  C 6.27272727272727 8.16212640217098  4.02272727272726 10.1790000784036  4.02272727272726 10.1790000784036  C 3.68181818181817 10.5962842872793  3.54545454545454 10.9440211280091  3.68181818181817 11.1526632324469  C 3.68181818181817 11.1526632324469  4.09090909090909 11.6394948094686  4.09090909090909 11.6394948094686  C 4.56818181818181 12.0567790183443  4.84090909090907 12.4045158590741  4.77272727272728 12.6827053316579  C 4.77272727272728 12.8913474360958  4.70454545454544 13.0999895405336  4.56818181818181 13.2390842768255  C 4.56818181818181 13.2390842768255  3.13636363636361 14.4909369034526  3.13636363636361 14.4909369034526  C 3.20454545454545 14.8386737441824  3.20454545454545 15.39505268935  3.13636363636361 16.0209790026636  C 3.13636363636361 16.0209790026636  3.13636363636361 16.2296211071014  3.13636363636361 16.2296211071014  L 3.06818181818182 16.2991684752474  C 3.06818181818182 16.2991684752474  2.52272727272727 16.5078105796853  2.52272727272727 16.5078105796853  C 2.52272727272727 16.855547420415  2.38636363636364 17.0641895248529  2.04545454545455 17.4119263655827  C 2.04545454545455 17.4119263655827  1.29545454545453 18.1769474151881  1.29545454545453 18.1769474151881  C 1.29545454545453 18.1769474151881  1.29545454545453 18.2464947833341  1.29545454545453 18.2464947833341  C 1.43181818181816 18.5942316240638  1.43181818181816 19.0115158329395  1.1590909090909 19.6374421462531  C 1.49999999999999 20.3329158277127  1.49999999999999 20.8197474047343  1.1590909090909 21.0283895091722  C 1.1590909090909 21.0283895091722  0.47727272727272 21.7238631906317  0.47727272727272 21.7238631906317  L 0.340909090909091 21.7934105587776  L 0 21.9325052950696  L 0 22.0716000313615  L 0.47727272727272 23.7407368668643  C 0.47727272727272 23.7407368668643  0.613636363636349 23.7407368668643  0.613636363636349 23.7407368668643  C 1.77272727272725 23.6016421305724  2.99999999999999 23.6016421305724  4.36363636363635 23.7407368668643  C 4.36363636363635 23.7407368668643  4.49999999999998 23.7407368668643  4.49999999999998 23.7407368668643  L 4.49999999999998 23.8102842350103  L 5.99999999999997 25.3403263342212  L 5.99999999999997 25.4098737023672  L 6.06818181818181 25.4098737023672  L 6.95454545454545 27.9831263237674  L 8.79545454545454 29.7218105274162  L 9.54545454545455 30  L 9.61363636363635 27.8440315874755  L 11.3181818181818 29.5827157911243  L 11.5909090909091 29.3045263185405  L 12.8181818181818 26.7312736971403  L 13.0227272727273 25.2707789660752  L 13.2272727272727 25.3403263342212  L 13.3636363636363 25.3403263342212  L 14.6590909090909 25.4098737023672  L 14.5909090909091 24.3666631801779  L 14.5909090909091 24.15802107574  L 14.5909090909091 24.0189263394481  L 14.7954545454545 24.0189263394481  C 14.7954545454545 24.0189263394481  16.5 24.0884737075941  16.5 24.0884737075941  C 17.3863636363636 23.1843579216967  17.7954545454545 22.4193368720912  17.7954545454545 21.7934105587776  C 17.7954545454545 21.7934105587776  17.5227272727273 19.2897053055234  17.5227272727273 19.2897053055234  L 19.0227272727273 19.776536882545  L 19.4318181818182 19.0810632010855  L 18.75 18.385589519626  L 18.5454545454546 18.1074000470422  L 19.9090909090909 16.7164526841231  L 19.9772727272727 16.855547420415  L 20.1136363636364 16.855547420415  L 20.9318181818182 17.3423789974367  L 20.9318181818182 17.1337368929988  L 20.3863636363636 15.8818842663717  L 20.5909090909091 15.6732421619339  L 20.9318181818182 15.464600057496  L 20.7954545454546 14.9777684804743  L 20.1136363636364 13.6563684857012  L 20.25 13.5868211175553  L 20.3863636363636 13.4477263812634  L 22.2272727272727 12.4045158590741  C 22.2272727272727 12.4045158590741  22.2954545454546 11.6394948094686  22.2954545454546 11.6394948094686  C 20.7272727272727 10.8049263917172  19.9090909090909 10.1094527102577  20.0454545454545 9.76171586952789  C 20.1136363636364 9.48352639694408  20.25 9.41397902879813  20.5909090909091 9.41397902879813  C 20.5909090909091 9.41397902879813  22.6363636363636 9.76171586952789  22.6363636363636 9.76171586952789  L 22.7045454545454 8.50986324290075  L 22.7045454545454 8.37076850660885  L 23.7272727272727 7.32755798441957  C 23.7272727272727 7.32755798441957  24 6.56253693481409  24 6.56253693481409  C 23.5909090909091 6.42344219852218  23.3181818181818 6.14525272593839  23.0454545454545 5.86706325335457  C 23.0454545454545 5.86706325335457  22.9772727272727 5.72796851706265  22.9772727272727 5.72796851706265  L 22.9772727272727 5.58887378077076  L 23.0454545454545 5.241136940041  L 22.9772727272727 5.1020422037491  L 22.8409090909091 5.03249483560313  C 22.8409090909091 5.03249483560313  22.7727272727273 5.1020422037491  22.7727272727273 5.1020422037491  C 22.6363636363636 5.38023167633289  22.2954545454546 5.58887378077076  21.8181818181818 5.58887378077076  C 21.0681818181818 5.58887378077076  20.4545454545455 5.241136940041  19.9772727272727 4.75430536301934  C 19.9772727272727 4.75430536301934  19.9772727272727 4.68475799487337  19.9772727272727 4.68475799487337  L 19.9090909090909 4.68475799487337  L 19.3636363636364 3.71109484083005  C 19.3636363636364 3.71109484083005  19.2272727272727 3.85018957712195  19.2272727272727 3.85018957712195  C 19.1590909090909 4.26747378599766  18.8863636363636 4.68475799487337  18.4090909090909 5.03249483560313  C 17.5227272727273 5.44977904447886  16.7045454545455 5.58887378077076  15.8863636363636 5.241136940041  C 15.3409090909091 5.03249483560313  15 4.61521062672742  14.7954545454545 3.98928431341385  C 14.7954545454545 3.98928431341385  14.5909090909091 2.5983369504948  14.5909090909091 2.5983369504948  C 14.3863636363636 1.27693695572172  14.1136363636364 0.511915906116234  13.7045454545454 0.303273801678389  C 13.2954545454546 0.0250843290945763  12.8863636363636 -0.044463039051372  12.5454545454545 0.0250843290945763  C 12.5454545454545 0.0250843290945763  12.6136363636364 1.20738958757576  12.6136363636364 1.20738958757576  Z " fill-rule="nonzero" fill="#4a9eff" stroke="none" transform="matrix(1 0 0 1 2040 1932 )" />
    <path d="M 12.6136363636364 1.20738958757576  L 12.5454545454545 1.27693695572172  L 12.4090909090909 1.34648432386767  L 11.25 2.18105274161909  L 10.2272727272727 3.36335800010029  L 10.1590909090909 3.36335800010029  L 10.1590909090909 3.50245273639219  L 8.65909090909091 3.50245273639219  C 8.65909090909091 3.50245273639219  7.84090909090909 3.01562115937053  7.84090909090909 3.01562115937053  C 6.81818181818182 3.29381063195432  6.27272727272727 3.98928431341385  6.06818181818181 5.31068430818694  C 6.06818181818181 5.31068430818694  5.99999999999997 6.49298956666814  5.99999999999997 6.49298956666814  L 6.81818181818182 5.72796851706265  L 6.27272727272727 8.02303166587909  L 6.27272727272727 8.09257903402503  L 6.27272727272727 8.16212640217098  C 6.27272727272727 8.16212640217098  4.02272727272726 10.1790000784036  4.02272727272726 10.1790000784036  C 3.68181818181817 10.5962842872793  3.54545454545454 10.9440211280091  3.68181818181817 11.1526632324469  C 3.68181818181817 11.1526632324469  4.09090909090909 11.6394948094686  4.09090909090909 11.6394948094686  C 4.56818181818181 12.0567790183443  4.84090909090907 12.4045158590741  4.77272727272728 12.6827053316579  C 4.77272727272728 12.8913474360958  4.70454545454544 13.0999895405336  4.56818181818181 13.2390842768255  C 4.56818181818181 13.2390842768255  3.13636363636361 14.4909369034526  3.13636363636361 14.4909369034526  C 3.20454545454545 14.8386737441824  3.20454545454545 15.39505268935  3.13636363636361 16.0209790026636  C 3.13636363636361 16.0209790026636  3.13636363636361 16.2296211071014  3.13636363636361 16.2296211071014  L 3.06818181818182 16.2991684752474  C 3.06818181818182 16.2991684752474  2.52272727272727 16.5078105796853  2.52272727272727 16.5078105796853  C 2.52272727272727 16.855547420415  2.38636363636364 17.0641895248529  2.04545454545455 17.4119263655827  C 2.04545454545455 17.4119263655827  1.29545454545453 18.1769474151881  1.29545454545453 18.1769474151881  C 1.29545454545453 18.1769474151881  1.29545454545453 18.2464947833341  1.29545454545453 18.2464947833341  C 1.43181818181816 18.5942316240638  1.43181818181816 19.0115158329395  1.1590909090909 19.6374421462531  C 1.49999999999999 20.3329158277127  1.49999999999999 20.8197474047343  1.1590909090909 21.0283895091722  C 1.1590909090909 21.0283895091722  0.47727272727272 21.7238631906317  0.47727272727272 21.7238631906317  L 0.340909090909091 21.7934105587776  L 0 21.9325052950696  L 0 22.0716000313615  L 0.47727272727272 23.7407368668643  C 0.47727272727272 23.7407368668643  0.613636363636349 23.7407368668643  0.613636363636349 23.7407368668643  C 1.77272727272725 23.6016421305724  2.99999999999999 23.6016421305724  4.36363636363635 23.7407368668643  C 4.36363636363635 23.7407368668643  4.49999999999998 23.7407368668643  4.49999999999998 23.7407368668643  L 4.49999999999998 23.8102842350103  L 5.99999999999997 25.3403263342212  L 5.99999999999997 25.4098737023672  L 6.06818181818181 25.4098737023672  L 6.95454545454545 27.9831263237674  L 8.79545454545454 29.7218105274162  L 9.54545454545455 30  L 9.61363636363635 27.8440315874755  L 11.3181818181818 29.5827157911243  L 11.5909090909091 29.3045263185405  L 12.8181818181818 26.7312736971403  L 13.0227272727273 25.2707789660752  L 13.2272727272727 25.3403263342212  L 13.3636363636363 25.3403263342212  L 14.6590909090909 25.4098737023672  L 14.5909090909091 24.3666631801779  L 14.5909090909091 24.15802107574  L 14.5909090909091 24.0189263394481  L 14.7954545454545 24.0189263394481  C 14.7954545454545 24.0189263394481  16.5 24.0884737075941  16.5 24.0884737075941  C 17.3863636363636 23.1843579216967  17.7954545454545 22.4193368720912  17.7954545454545 21.7934105587776  C 17.7954545454545 21.7934105587776  17.5227272727273 19.2897053055234  17.5227272727273 19.2897053055234  L 19.0227272727273 19.776536882545  L 19.4318181818182 19.0810632010855  L 18.75 18.385589519626  L 18.5454545454546 18.1074000470422  L 19.9090909090909 16.7164526841231  L 19.9772727272727 16.855547420415  L 20.1136363636364 16.855547420415  L 20.9318181818182 17.3423789974367  L 20.9318181818182 17.1337368929988  L 20.3863636363636 15.8818842663717  L 20.5909090909091 15.6732421619339  L 20.9318181818182 15.464600057496  L 20.7954545454546 14.9777684804743  L 20.1136363636364 13.6563684857012  L 20.25 13.5868211175553  L 20.3863636363636 13.4477263812634  L 22.2272727272727 12.4045158590741  C 22.2272727272727 12.4045158590741  22.2954545454546 11.6394948094686  22.2954545454546 11.6394948094686  C 20.7272727272727 10.8049263917172  19.9090909090909 10.1094527102577  20.0454545454545 9.76171586952789  C 20.1136363636364 9.48352639694408  20.25 9.41397902879813  20.5909090909091 9.41397902879813  C 20.5909090909091 9.41397902879813  22.6363636363636 9.76171586952789  22.6363636363636 9.76171586952789  L 22.7045454545454 8.50986324290075  L 22.7045454545454 8.37076850660885  L 23.7272727272727 7.32755798441957  C 23.7272727272727 7.32755798441957  24 6.56253693481409  24 6.56253693481409  C 23.5909090909091 6.42344219852218  23.3181818181818 6.14525272593839  23.0454545454545 5.86706325335457  C 23.0454545454545 5.86706325335457  22.9772727272727 5.72796851706265  22.9772727272727 5.72796851706265  L 22.9772727272727 5.58887378077076  L 23.0454545454545 5.241136940041  L 22.9772727272727 5.1020422037491  L 22.8409090909091 5.03249483560313  C 22.8409090909091 5.03249483560313  22.7727272727273 5.1020422037491  22.7727272727273 5.1020422037491  C 22.6363636363636 5.38023167633289  22.2954545454546 5.58887378077076  21.8181818181818 5.58887378077076  C 21.0681818181818 5.58887378077076  20.4545454545455 5.241136940041  19.9772727272727 4.75430536301934  C 19.9772727272727 4.75430536301934  19.9772727272727 4.68475799487337  19.9772727272727 4.68475799487337  L 19.9090909090909 4.68475799487337  L 19.3636363636364 3.71109484083005  C 19.3636363636364 3.71109484083005  19.2272727272727 3.85018957712195  19.2272727272727 3.85018957712195  C 19.1590909090909 4.26747378599766  18.8863636363636 4.68475799487337  18.4090909090909 5.03249483560313  C 17.5227272727273 5.44977904447886  16.7045454545455 5.58887378077076  15.8863636363636 5.241136940041  C 15.3409090909091 5.03249483560313  15 4.61521062672742  14.7954545454545 3.98928431341385  C 14.7954545454545 3.98928431341385  14.5909090909091 2.5983369504948  14.5909090909091 2.5983369504948  C 14.3863636363636 1.27693695572172  14.1136363636364 0.511915906116234  13.7045454545454 0.303273801678389  C 13.2954545454546 0.0250843290945763  12.8863636363636 -0.044463039051372  12.5454545454545 0.0250843290945763  C 12.5454545454545 0.0250843290945763  12.6136363636364 1.20738958757576  12.6136363636364 1.20738958757576  Z " stroke-width="2" stroke="#ffffff" fill="none" transform="matrix(1 0 0 1 2040 1932 )" mask="url(#clip477)" />
  </g>
</svg>