<?xml version="1.0" encoding="utf-8"?>
<svg version="1.1" xmlns:xlink="http://www.w3.org/1999/xlink" width="42px" height="26px" xmlns="http://www.w3.org/2000/svg">
  <defs>
    <mask fill="white" id="clip988">
      <path d="M 6.32405891980359 0.409448818897634  L 5.29296235679214 0.0682414698162691  L 5.22422258592469 0.341207349081365  L 5.56792144026184 0.750656167978999  L 7.35515548281505 1.97900262467192  L 7.35515548281505 2.04724409448819  L 7.4238952536825 2.04724409448819  L 8.52373158756136 3.27559055118109  L 8.38625204582651 3.41207349081365  L 7.6988543371522 4.23097112860892  L 7.63011456628476 4.29921259842519  L 7.56137479541735 4.43569553805775  L 6.39279869067104 4.43569553805775  L 5.70540098199674 4.50393700787401  L 5.22422258592469 4.98162729658792  L 5.43044189852699 5.59580052493438  L 5.43044189852699 5.66404199475065  L 5.49918166939444 6.34645669291338  L 6.11783960720129 7.23359580052493  L 6.11783960720129 7.3018372703412  L 6.11783960720129 9.21259842519685  L 6.66775777414075 9.41732283464566  L 7.63011456628476 9.69028871391076  L 7.6988543371522 9.69028871391076  L 7.76759410801965 9.75853018372702  L 7.83633387888705 9.82677165354331  L 8.72995090016366 11.0551181102362  L 8.72995090016366 11.1233595800525  L 9.21112929623566 12.3517060367454  L 9.21112929623566 12.4199475065617  C 9.21112929623566 12.4199475065617  9.21112929623566 13.238845144357  9.21112929623566 13.238845144357  C 9.14238952536826 13.7165354330709  9.00490998363337 14.1259842519685  8.86743044189851 14.3989501312336  C 8.52373158756136 14.8766404199475  7.9050736497545 15.2860892388452  6.94271685761045 15.6955380577428  C 6.94271685761045 15.6955380577428  4.60556464811783 17.0603674540682  4.60556464811783 17.0603674540682  L 4.53682487725039 17.0603674540682  L 0.274959083469706 17.3333333333333  L 0 18.3569553805774  L 0.756137479541731 19.7217847769029  L 0.756137479541731 19.7900262467192  L 0.756137479541731 19.8582677165354  L 0.962356792144011 21.6325459317585  L 3.29950900163667 24.3622047244094  L 3.36824877250408 24.3622047244094  L 3.36824877250408 24.4304461942257  L 4.33060556464813 26  L 4.39934533551553 25.7952755905512  L 4.39934533551553 25.7270341207349  L 5.15548281505728 23.6115485564304  L 5.22422258592469 23.5433070866142  L 6.5990180032733 21.7690288713911  L 6.66775777414075 21.7007874015748  L 8.38625204582651 20.8818897637795  L 8.52373158756136 20.8818897637795  L 9.62356792144026 21.5643044619423  L 11.0671031096563 21.4278215223097  L 10.5859247135843 19.0393700787402  L 10.860883797054 18.9711286089239  L 12.1669394435352 18.8346456692913  L 13.5417348608838 18.9028871391076  L 13.6792144026186 18.9028871391076  L 13.6792144026186 18.9711286089239  L 16.4288052373159 20.1994750656168  L 18.7659574468085 20.6771653543307  L 18.8346972176759 20.6771653543307  L 18.9034369885434 20.6771653543307  L 19.6595744680851 21.2230971128609  L 20.759410801964 21.6325459317585  L 20.759410801964 21.7007874015748  L 21.4468085106383 22.3149606299213  L 21.8592471358429 22.4514435695538  L 22.6153846153846 21.7690288713911  L 22.6153846153846 21.7007874015748  L 23.7839607201309 20.8136482939633  L 24.4026186579378 19.6535433070866  L 25.5024549918167 20.2677165354331  L 25.5024549918167 20.3359580052493  L 25.5024549918167 20.4041994750656  L 25.7774140752864 21.2913385826772  L 25.7774140752864 21.496062992126  L 25.6399345335516 22.0419947506562  L 25.708674304419 22.1784776902887  L 26.3960720130933 21.8372703412074  L 27.3584288052373 20.8818897637795  L 28.2520458265139 20.8818897637795  L 28.2520458265139 20.9501312335958  L 28.3207855973813 20.9501312335958  C 28.3207855973813 20.9501312335958  28.9394435351882 21.3595800524934  28.9394435351882 21.3595800524934  C 29.3518821603928 21.7690288713911  29.4893617021276 22.1102362204724  29.3518821603928 22.4514435695538  C 29.3518821603928 22.4514435695538  29.2831423895253 23.9527559055118  29.2831423895253 23.9527559055118  L 29.6955810147299 24.7034120734908  C 29.6955810147299 24.7034120734908  29.8330605564648 24.7716535433071  29.8330605564648 24.7716535433071  C 31.4828150572832 22.997375328084  32.582651391162 22.1102362204724  33.2700490998363 22.1102362204724  C 33.2700490998363 22.1102362204724  35.1260229132569 22.1102362204724  35.1260229132569 22.1102362204724  L 35.5384615384615 21.2230971128609  L 36.9819967266776 20.5406824146982  L 37.050736497545 20.5406824146982  L 38.8379705400982 20.4041994750656  L 40.6939443535188 19.4488188976378  L 40.6939443535188 19.3805774278215  L 41.8625204582651 19.3805774278215  L 41.6563011456628 18.8346456692913  L 41.7250409165303 18.6981627296588  L 42 18.4251968503937  L 39.4566284779051 13.0341207349081  L 39.4566284779051 12.8976377952756  L 39.3878887070377 12.8293963254593  L 40.4877250409165 11.3280839895013  L 40.1440261865794 10.9868766404199  L 38.2880523731587 10.6456692913386  L 38.0818330605565 10.6456692913386  L 38.0818330605565 10.509186351706  L 36.9132569558101 9.28083989501312  L 36.9819967266776 9.00787401574803  L 36.9132569558101 9.07611548556429  L 36.8445171849427 9.14435695538058  C 36.8445171849427 9.14435695538058  35.8134206219312 8.46194225721785  35.8134206219312 8.46194225721785  C 35.3322422258592 9.07611548556429  34.8510638297872 9.48556430446195  34.3011456628478 9.62204724409449  C 33.8199672667758 9.82677165354331  33.063829787234 9.28083989501312  32.0327332242226 8.0524934383202  C 32.0327332242226 8.0524934383202  31.4828150572832 7.37007874015747  31.4828150572832 7.37007874015747  C 31.4140752864157 7.23359580052493  30.9328968903437 7.37007874015747  30.1767594108019 7.64304461942257  C 29.0081833060556 8.0524934383202  28.2520458265139 8.12073490813649  27.9083469721767 7.91601049868766  C 27.5646481178396 7.5748031496063  27.4271685761047 6.89238845144357  27.5646481178396 6.00524934383201  C 27.633387888707 5.25459317585301  27.5646481178396 4.84514435695538  27.4271685761047 4.64041994750655  C 27.4271685761047 4.64041994750655  18.4909983633388 4.16272965879265  18.4909983633388 4.16272965879265  C 17.6661211129296 3.82152230971128  16.9787234042553 3.48031496062992  16.6350245499182 3.13910761154855  C 16.6350245499182 3.13910761154855  15.2602291325696 2.79790026246719  15.2602291325696 2.79790026246719  C 14.7103109656301 2.59317585301836  13.6792144026186 1.70603674540682  12.30441898527 0  C 12.30441898527 0  11.4108019639934 0.750656167978999  11.4108019639934 0.750656167978999  L 10.0360065466448 0.341207349081365  L 6.32405891980359 0.409448818897634  Z " fill-rule="evenodd" />
    </mask>
  </defs>
  <g transform="matrix(1 0 0 1 -1997 -1904 )">
    <path d="M 6.32405891980359 0.409448818897634  L 5.29296235679214 0.0682414698162691  L 5.22422258592469 0.341207349081365  L 5.56792144026184 0.750656167978999  L 7.35515548281505 1.97900262467192  L 7.35515548281505 2.04724409448819  L 7.4238952536825 2.04724409448819  L 8.52373158756136 3.27559055118109  L 8.38625204582651 3.41207349081365  L 7.6988543371522 4.23097112860892  L 7.63011456628476 4.29921259842519  L 7.56137479541735 4.43569553805775  L 6.39279869067104 4.43569553805775  L 5.70540098199674 4.50393700787401  L 5.22422258592469 4.98162729658792  L 5.43044189852699 5.59580052493438  L 5.43044189852699 5.66404199475065  L 5.49918166939444 6.34645669291338  L 6.11783960720129 7.23359580052493  L 6.11783960720129 7.3018372703412  L 6.11783960720129 9.21259842519685  L 6.66775777414075 9.41732283464566  L 7.63011456628476 9.69028871391076  L 7.6988543371522 9.69028871391076  L 7.76759410801965 9.75853018372702  L 7.83633387888705 9.82677165354331  L 8.72995090016366 11.0551181102362  L 8.72995090016366 11.1233595800525  L 9.21112929623566 12.3517060367454  L 9.21112929623566 12.4199475065617  C 9.21112929623566 12.4199475065617  9.21112929623566 13.238845144357  9.21112929623566 13.238845144357  C 9.14238952536826 13.7165354330709  9.00490998363337 14.1259842519685  8.86743044189851 14.3989501312336  C 8.52373158756136 14.8766404199475  7.9050736497545 15.2860892388452  6.94271685761045 15.6955380577428  C 6.94271685761045 15.6955380577428  4.60556464811783 17.0603674540682  4.60556464811783 17.0603674540682  L 4.53682487725039 17.0603674540682  L 0.274959083469706 17.3333333333333  L 0 18.3569553805774  L 0.756137479541731 19.7217847769029  L 0.756137479541731 19.7900262467192  L 0.756137479541731 19.8582677165354  L 0.962356792144011 21.6325459317585  L 3.29950900163667 24.3622047244094  L 3.36824877250408 24.3622047244094  L 3.36824877250408 24.4304461942257  L 4.33060556464813 26  L 4.39934533551553 25.7952755905512  L 4.39934533551553 25.7270341207349  L 5.15548281505728 23.6115485564304  L 5.22422258592469 23.5433070866142  L 6.5990180032733 21.7690288713911  L 6.66775777414075 21.7007874015748  L 8.38625204582651 20.8818897637795  L 8.52373158756136 20.8818897637795  L 9.62356792144026 21.5643044619423  L 11.0671031096563 21.4278215223097  L 10.5859247135843 19.0393700787402  L 10.860883797054 18.9711286089239  L 12.1669394435352 18.8346456692913  L 13.5417348608838 18.9028871391076  L 13.6792144026186 18.9028871391076  L 13.6792144026186 18.9711286089239  L 16.4288052373159 20.1994750656168  L 18.7659574468085 20.6771653543307  L 18.8346972176759 20.6771653543307  L 18.9034369885434 20.6771653543307  L 19.6595744680851 21.2230971128609  L 20.759410801964 21.6325459317585  L 20.759410801964 21.7007874015748  L 21.4468085106383 22.3149606299213  L 21.8592471358429 22.4514435695538  L 22.6153846153846 21.7690288713911  L 22.6153846153846 21.7007874015748  L 23.7839607201309 20.8136482939633  L 24.4026186579378 19.6535433070866  L 25.5024549918167 20.2677165354331  L 25.5024549918167 20.3359580052493  L 25.5024549918167 20.4041994750656  L 25.7774140752864 21.2913385826772  L 25.7774140752864 21.496062992126  L 25.6399345335516 22.0419947506562  L 25.708674304419 22.1784776902887  L 26.3960720130933 21.8372703412074  L 27.3584288052373 20.8818897637795  L 28.2520458265139 20.8818897637795  L 28.2520458265139 20.9501312335958  L 28.3207855973813 20.9501312335958  C 28.3207855973813 20.9501312335958  28.9394435351882 21.3595800524934  28.9394435351882 21.3595800524934  C 29.3518821603928 21.7690288713911  29.4893617021276 22.1102362204724  29.3518821603928 22.4514435695538  C 29.3518821603928 22.4514435695538  29.2831423895253 23.9527559055118  29.2831423895253 23.9527559055118  L 29.6955810147299 24.7034120734908  C 29.6955810147299 24.7034120734908  29.8330605564648 24.7716535433071  29.8330605564648 24.7716535433071  C 31.4828150572832 22.997375328084  32.582651391162 22.1102362204724  33.2700490998363 22.1102362204724  C 33.2700490998363 22.1102362204724  35.1260229132569 22.1102362204724  35.1260229132569 22.1102362204724  L 35.5384615384615 21.2230971128609  L 36.9819967266776 20.5406824146982  L 37.050736497545 20.5406824146982  L 38.8379705400982 20.4041994750656  L 40.6939443535188 19.4488188976378  L 40.6939443535188 19.3805774278215  L 41.8625204582651 19.3805774278215  L 41.6563011456628 18.8346456692913  L 41.7250409165303 18.6981627296588  L 42 18.4251968503937  L 39.4566284779051 13.0341207349081  L 39.4566284779051 12.8976377952756  L 39.3878887070377 12.8293963254593  L 40.4877250409165 11.3280839895013  L 40.1440261865794 10.9868766404199  L 38.2880523731587 10.6456692913386  L 38.0818330605565 10.6456692913386  L 38.0818330605565 10.509186351706  L 36.9132569558101 9.28083989501312  L 36.9819967266776 9.00787401574803  L 36.9132569558101 9.07611548556429  L 36.8445171849427 9.14435695538058  C 36.8445171849427 9.14435695538058  35.8134206219312 8.46194225721785  35.8134206219312 8.46194225721785  C 35.3322422258592 9.07611548556429  34.8510638297872 9.48556430446195  34.3011456628478 9.62204724409449  C 33.8199672667758 9.82677165354331  33.063829787234 9.28083989501312  32.0327332242226 8.0524934383202  C 32.0327332242226 8.0524934383202  31.4828150572832 7.37007874015747  31.4828150572832 7.37007874015747  C 31.4140752864157 7.23359580052493  30.9328968903437 7.37007874015747  30.1767594108019 7.64304461942257  C 29.0081833060556 8.0524934383202  28.2520458265139 8.12073490813649  27.9083469721767 7.91601049868766  C 27.5646481178396 7.5748031496063  27.4271685761047 6.89238845144357  27.5646481178396 6.00524934383201  C 27.633387888707 5.25459317585301  27.5646481178396 4.84514435695538  27.4271685761047 4.64041994750655  C 27.4271685761047 4.64041994750655  18.4909983633388 4.16272965879265  18.4909983633388 4.16272965879265  C 17.6661211129296 3.82152230971128  16.9787234042553 3.48031496062992  16.6350245499182 3.13910761154855  C 16.6350245499182 3.13910761154855  15.2602291325696 2.79790026246719  15.2602291325696 2.79790026246719  C 14.7103109656301 2.59317585301836  13.6792144026186 1.70603674540682  12.30441898527 0  C 12.30441898527 0  11.4108019639934 0.750656167978999  11.4108019639934 0.750656167978999  L 10.0360065466448 0.341207349081365  L 6.32405891980359 0.409448818897634  Z " fill-rule="nonzero" fill="#4a9eff" stroke="none" transform="matrix(1 0 0 1 1997 1904 )" />
    <path d="M 6.32405891980359 0.409448818897634  L 5.29296235679214 0.0682414698162691  L 5.22422258592469 0.341207349081365  L 5.56792144026184 0.750656167978999  L 7.35515548281505 1.97900262467192  L 7.35515548281505 2.04724409448819  L 7.4238952536825 2.04724409448819  L 8.52373158756136 3.27559055118109  L 8.38625204582651 3.41207349081365  L 7.6988543371522 4.23097112860892  L 7.63011456628476 4.29921259842519  L 7.56137479541735 4.43569553805775  L 6.39279869067104 4.43569553805775  L 5.70540098199674 4.50393700787401  L 5.22422258592469 4.98162729658792  L 5.43044189852699 5.59580052493438  L 5.43044189852699 5.66404199475065  L 5.49918166939444 6.34645669291338  L 6.11783960720129 7.23359580052493  L 6.11783960720129 7.3018372703412  L 6.11783960720129 9.21259842519685  L 6.66775777414075 9.41732283464566  L 7.63011456628476 9.69028871391076  L 7.6988543371522 9.69028871391076  L 7.76759410801965 9.75853018372702  L 7.83633387888705 9.82677165354331  L 8.72995090016366 11.0551181102362  L 8.72995090016366 11.1233595800525  L 9.21112929623566 12.3517060367454  L 9.21112929623566 12.4199475065617  C 9.21112929623566 12.4199475065617  9.21112929623566 13.238845144357  9.21112929623566 13.238845144357  C 9.14238952536826 13.7165354330709  9.00490998363337 14.1259842519685  8.86743044189851 14.3989501312336  C 8.52373158756136 14.8766404199475  7.9050736497545 15.2860892388452  6.94271685761045 15.6955380577428  C 6.94271685761045 15.6955380577428  4.60556464811783 17.0603674540682  4.60556464811783 17.0603674540682  L 4.53682487725039 17.0603674540682  L 0.274959083469706 17.3333333333333  L 0 18.3569553805774  L 0.756137479541731 19.7217847769029  L 0.756137479541731 19.7900262467192  L 0.756137479541731 19.8582677165354  L 0.962356792144011 21.6325459317585  L 3.29950900163667 24.3622047244094  L 3.36824877250408 24.3622047244094  L 3.36824877250408 24.4304461942257  L 4.33060556464813 26  L 4.39934533551553 25.7952755905512  L 4.39934533551553 25.7270341207349  L 5.15548281505728 23.6115485564304  L 5.22422258592469 23.5433070866142  L 6.5990180032733 21.7690288713911  L 6.66775777414075 21.7007874015748  L 8.38625204582651 20.8818897637795  L 8.52373158756136 20.8818897637795  L 9.62356792144026 21.5643044619423  L 11.0671031096563 21.4278215223097  L 10.5859247135843 19.0393700787402  L 10.860883797054 18.9711286089239  L 12.1669394435352 18.8346456692913  L 13.5417348608838 18.9028871391076  L 13.6792144026186 18.9028871391076  L 13.6792144026186 18.9711286089239  L 16.4288052373159 20.1994750656168  L 18.7659574468085 20.6771653543307  L 18.8346972176759 20.6771653543307  L 18.9034369885434 20.6771653543307  L 19.6595744680851 21.2230971128609  L 20.759410801964 21.6325459317585  L 20.759410801964 21.7007874015748  L 21.4468085106383 22.3149606299213  L 21.8592471358429 22.4514435695538  L 22.6153846153846 21.7690288713911  L 22.6153846153846 21.7007874015748  L 23.7839607201309 20.8136482939633  L 24.4026186579378 19.6535433070866  L 25.5024549918167 20.2677165354331  L 25.5024549918167 20.3359580052493  L 25.5024549918167 20.4041994750656  L 25.7774140752864 21.2913385826772  L 25.7774140752864 21.496062992126  L 25.6399345335516 22.0419947506562  L 25.708674304419 22.1784776902887  L 26.3960720130933 21.8372703412074  L 27.3584288052373 20.8818897637795  L 28.2520458265139 20.8818897637795  L 28.2520458265139 20.9501312335958  L 28.3207855973813 20.9501312335958  C 28.3207855973813 20.9501312335958  28.9394435351882 21.3595800524934  28.9394435351882 21.3595800524934  C 29.3518821603928 21.7690288713911  29.4893617021276 22.1102362204724  29.3518821603928 22.4514435695538  C 29.3518821603928 22.4514435695538  29.2831423895253 23.9527559055118  29.2831423895253 23.9527559055118  L 29.6955810147299 24.7034120734908  C 29.6955810147299 24.7034120734908  29.8330605564648 24.7716535433071  29.8330605564648 24.7716535433071  C 31.4828150572832 22.997375328084  32.582651391162 22.1102362204724  33.2700490998363 22.1102362204724  C 33.2700490998363 22.1102362204724  35.1260229132569 22.1102362204724  35.1260229132569 22.1102362204724  L 35.5384615384615 21.2230971128609  L 36.9819967266776 20.5406824146982  L 37.050736497545 20.5406824146982  L 38.8379705400982 20.4041994750656  L 40.6939443535188 19.4488188976378  L 40.6939443535188 19.3805774278215  L 41.8625204582651 19.3805774278215  L 41.6563011456628 18.8346456692913  L 41.7250409165303 18.6981627296588  L 42 18.4251968503937  L 39.4566284779051 13.0341207349081  L 39.4566284779051 12.8976377952756  L 39.3878887070377 12.8293963254593  L 40.4877250409165 11.3280839895013  L 40.1440261865794 10.9868766404199  L 38.2880523731587 10.6456692913386  L 38.0818330605565 10.6456692913386  L 38.0818330605565 10.509186351706  L 36.9132569558101 9.28083989501312  L 36.9819967266776 9.00787401574803  L 36.9132569558101 9.07611548556429  L 36.8445171849427 9.14435695538058  C 36.8445171849427 9.14435695538058  35.8134206219312 8.46194225721785  35.8134206219312 8.46194225721785  C 35.3322422258592 9.07611548556429  34.8510638297872 9.48556430446195  34.3011456628478 9.62204724409449  C 33.8199672667758 9.82677165354331  33.063829787234 9.28083989501312  32.0327332242226 8.0524934383202  C 32.0327332242226 8.0524934383202  31.4828150572832 7.37007874015747  31.4828150572832 7.37007874015747  C 31.4140752864157 7.23359580052493  30.9328968903437 7.37007874015747  30.1767594108019 7.64304461942257  C 29.0081833060556 8.0524934383202  28.2520458265139 8.12073490813649  27.9083469721767 7.91601049868766  C 27.5646481178396 7.5748031496063  27.4271685761047 6.89238845144357  27.5646481178396 6.00524934383201  C 27.633387888707 5.25459317585301  27.5646481178396 4.84514435695538  27.4271685761047 4.64041994750655  C 27.4271685761047 4.64041994750655  18.4909983633388 4.16272965879265  18.4909983633388 4.16272965879265  C 17.6661211129296 3.82152230971128  16.9787234042553 3.48031496062992  16.6350245499182 3.13910761154855  C 16.6350245499182 3.13910761154855  15.2602291325696 2.79790026246719  15.2602291325696 2.79790026246719  C 14.7103109656301 2.59317585301836  13.6792144026186 1.70603674540682  12.30441898527 0  C 12.30441898527 0  11.4108019639934 0.750656167978999  11.4108019639934 0.750656167978999  L 10.0360065466448 0.341207349081365  L 6.32405891980359 0.409448818897634  Z " stroke-width="2" stroke="#ffffff" fill="none" transform="matrix(1 0 0 1 1997 1904 )" mask="url(#clip988)" />
  </g>
</svg>