<?xml version="1.0" encoding="utf-8"?>
<svg version="1.1" xmlns:xlink="http://www.w3.org/1999/xlink" width="13px" height="13px" xmlns="http://www.w3.org/2000/svg">
  <g transform="matrix(1 0 0 1 -220 -1546 )">
    <path d="M 8.48528137423848 0.58578643762695  C 9.26632995774102 -0.195262145875574  10.5326599154821 -0.195262145875574  11.3137084989847 0.58578643762695  C 11.3137084989847 0.58578643762695  12.0208152801712 1.2928932188135  12.0208152801712 1.2928932188135  C 12.8018638636737 2.07394180231603  12.8018638636737 3.34027176005719  12.0208152801712 4.12132034355972  C 12.0208152801712 4.12132034355972  6.16522967144129 9.9769059522896  6.16522967144129 9.9769059522896  C 5.91518116684391 10.226954456887  5.57604261631195 10.3674302440409  5.22242062985923 10.3674302440409  C 5.22242062985923 10.3674302440409  2.90583814042396 10.3674302440409  2.90583814042396 10.3674302440409  C 2.53764830720343 10.3674302440409  2.23917147375729 10.0689534105948  2.2391714737573 9.70076357737423  C 2.2391714737573 9.70076357737423  2.23917147375731 7.38418108793894  2.23917147375731 7.38418108793894  C 2.23917147375731 7.03055910148618  2.3796472609112 6.6914205509542  2.62969576550858 6.44137204635683  C 2.62969576550858 6.44137204635683  8.48528137423848 0.58578643762695  8.48528137423848 0.58578643762695  Z M 12.1794871794872 12.6715728752539  L 0.487179487179487 12.6715728752539  C 0.214358974358975 12.6715728752539  0 12.3782395419206  0 12.0049062085873  C 0 11.6315728752539  0.214358974358975 11.3382395419206  0.487179487179487 11.3382395419206  L 12.1794871794872 11.3382395419206  C 12.4523076923077 11.3382395419206  12.6666666666667 11.6315728752539  12.6666666666667 12.0049062085873  C 12.6666666666667 12.3782395419206  12.4523076923077 12.6715728752539  12.1794871794872 12.6715728752539  Z " fill-rule="nonzero" fill="#c9ced6" stroke="none" transform="matrix(1 0 0 1 220 1546 )" />
  </g>
</svg>