<?xml version="1.0" encoding="utf-8"?>
<svg version="1.1" xmlns:xlink="http://www.w3.org/1999/xlink" width="6px" height="14px" xmlns="http://www.w3.org/2000/svg">
  <g transform="matrix(1 0 0 1 -748 -482 )">
    <path d="M 0.217514421271972 2.68891894206445  C 0.217514421271972 1.58434944240253  1.11294492161051 0.688918942064447  2.21751442127197 0.688918942064447  C 2.21751442127197 0.688918942064447  3.21751442127197 0.688918942064447  3.21751442127197 0.688918942064447  C 4.32208392093344 0.688918942064447  5.21751442127197 1.58434944240253  5.21751442127197 2.68891894206445  C 5.21751442127197 2.68891894206445  5.21751442127197 10.969967525567  5.21751442127197 10.969967525567  C 5.21751442127197 11.3235895120197  5.07703863411825 11.6627280625517  4.82699012952071 11.9127765671492  C 4.82699012952071 11.9127765671492  3.18891894206308 13.5508477546064  3.18891894206308 13.5508477546064  C 2.9285694142286 13.8111972824408  2.50645942831534 13.8111972824408  2.24610990048086 13.5508477546064  C 2.24610990048086 13.5508477546064  0.608038713023234 11.9127765671492  0.608038713023234 11.9127765671492  C 0.35799020842569 11.6627280625517  0.217514421271972 11.3235895120197  0.217514421271972 10.969967525567  C 0.217514421271972 10.969967525567  0.217514421271972 2.68891894206445  0.217514421271972 2.68891894206445  Z M 3.88418108793849 2.68891894206354  C 3.88418108793849 2.33746501035239  3.61222182440588 2.04953056810609  3.26726853622449 2.02408085420666  C 3.26726853622449 2.02408085420666  2.21751442127152 2.02225227539657  2.21751442127152 2.02225227539657  C 1.86606048956128 2.02225227539657  1.57812604731453 2.29421153892872  1.55267633341555 2.63916482711011  L 1.550847754605 10.9699675255661  L 2.71751130197708 12.1364401145202  L 3.88418108793849 10.9699675255661  C 3.88418108793849 10.9699675255661  3.88418108793849 2.68891894206354  3.88418108793849 2.68891894206354  Z " fill-rule="nonzero" fill="#929aa6" stroke="none" transform="matrix(1 0 0 1 748 482 )" />
  </g>
</svg>