<?xml version="1.0" encoding="utf-8"?>
<svg version="1.1" xmlns:xlink="http://www.w3.org/1999/xlink" width="18px" height="41px" xmlns="http://www.w3.org/2000/svg">
  <defs>
    <mask fill="white" id="clip219">
      <path d="M 15.0110701107011 2.42398648648649  L 16.7380073800738 2.00844594594594  L 17.0036900369004 1.66216216216216  L 16.5387453874539 0.554054054054052  L 16.0738007380074 0  L 15.5424354243542 0.900337837837836  L 15.5424354243542 0.969594594594589  L 14.6789667896679 2.00844594594594  L 14.6125461254613 2.0777027027027  L 14.479704797048 2.0777027027027  L 12.8856088560886 2.56249999999999  L 12.7527675276753 2.56249999999999  L 11.2250922509225 2.28547297297296  L 10.3616236162362 2.56249999999999  L 10.1623616236163 3.32432432432431  L 10.0959409594096 3.46283783783784  L 9.36531365313652 3.94763513513513  L 9.23247232472324 4.01689189189188  L 9.09963099630997 4.01689189189188  L 7.77121771217712 3.87837837837838  L 7.70479704797047 4.01689189189188  L 7.70479704797047 5.40202702702702  L 7.63837638376385 5.47128378378379  L 6.90774907749077 6.44087837837837  L 6.90774907749077 6.51013513513514  L 6.84132841328415 6.51013513513514  L 5.57933579335793 7.8260135135135  L 5.51291512915131 7.8260135135135  L 5.44649446494465 7.89527027027028  L 4.11808118081181 8.17229729729729  L 3.25461254612545 9.14189189189188  L 3.45387453874538 10.3192567567568  L 3.45387453874538 10.5962837837838  L 3.25461254612545 10.6655405405405  L 2.25830258302582 11.6351351351351  L 1.72693726937267 12.3277027027027  L 2.12546125461254 13.2280405405405  L 2.12546125461254 13.2972972972973  L 2.12546125461254 13.366554054054  L 2.12546125461254 14.6824324324324  L 2.12546125461254 14.7516891891892  L 1.39483394833946 15.8597972972973  L 1.39483394833946 15.9290540540541  L 0.39852398523983 17.1064189189189  L 0.531365313653145 18.491554054054  L 1.39483394833946 19.3226351351351  C 1.39483394833946 19.3226351351351  1.39483394833946 19.3918918918919  1.39483394833946 19.3918918918919  C 1.79335793357933 20.0844594594595  1.99261992619926 20.6385135135135  1.99261992619926 21.1233108108108  C 1.99261992619926 21.1233108108108  1.99261992619926 22.6469594594595  1.99261992619926 22.6469594594595  L 1.92619926199261 22.6469594594595  L 1.85977859778599 22.7162162162162  L 0.531365313653145 23.7550675675676  L 0.39852398523983 25.8327702702703  C 0.39852398523983 25.8327702702703  0.531365313653145 27.910472972973  0.531365313653145 27.910472972973  C 0.531365313653145 28.6030405405405  0.797047970479698 29.9189189189189  1.46125461254612 31.8581081081081  C 1.46125461254612 31.8581081081081  1.46125461254612 31.9273648648649  1.46125461254612 31.9273648648649  L 1.46125461254612 32.0658783783784  L 0 39.1300675675676  L 0.132841328413277 40.5152027027027  L 1.12915129151291 41  L 2.72324723247231 39.3378378378378  L 2.78966789667896 39.3378378378378  L 7.9040590405904 37.2601351351351  L 9.23247232472324 36.0135135135135  L 9.36531365313652 35.875  L 9.43173431734318 35.9442567567568  L 9.56457564575645 35.9442567567568  C 9.56457564575645 35.9442567567568  12.4870848708487 36.2212837837838  12.4870848708487 36.2212837837838  C 12.8856088560886 36.2212837837838  13.7490774907749 35.875  15.0110701107011 35.320945945946  C 15.0110701107011 35.320945945946  15.0110701107011 33.8665540540541  15.0110701107011 33.8665540540541  L 15.0774907749078 33.7972972972973  L 15.1439114391144 33.7972972972973  L 15.9409594095941 33.035472972973  L 15.7416974169742 32.1351351351351  L 15.7416974169742 32.0658783783784  L 15.7416974169742 31.9966216216216  L 15.7416974169742 31.8581081081081  C 15.7416974169742 31.8581081081081  15.8081180811808 31.7888513513514  15.8081180811808 31.7888513513514  C 16.0738007380074 31.5118243243243  16.0738007380074 31.2347972972973  15.8745387453875 31.027027027027  C 15.6752767527675 30.6114864864865  15.7416974169742 30.0574324324324  16.0738007380074 29.4341216216216  C 16.0738007380074 29.4341216216216  16.4059040590406 28.9493243243243  16.4059040590406 28.9493243243243  L 16.3394833948339 27.9797297297297  C 16.3394833948339 27.9797297297297  15.3431734317343 26.7331081081081  15.3431734317343 26.7331081081081  C 14.8782287822878 26.3868243243243  14.8118081180812 25.902027027027  15.0774907749078 25.4172297297297  C 15.210332103321 25.0016891891892  15.409594095941 24.5861486486487  15.7416974169742 24.2398648648649  C 15.7416974169742 24.2398648648649  16.0073800738007 23.0625  16.0073800738007 23.0625  L 16.7380073800738 21.4003378378378  L 16.9372693726937 20.6385135135135  L 18 18.5608108108108  L 17.269372693727 17.2449324324324  L 15.210332103321 15.9290540540541  L 15.0774907749078 15.9290540540541  L 15.0774907749078 15.7905405405405  L 14.6789667896679 14.6824324324324  L 14.6789667896679 14.6131756756757  L 14.6789667896679 14.4746621621622  L 14.8782287822878 12.6047297297297  L 14.8782287822878 12.535472972973  C 14.8782287822878 12.535472972973  15.3431734317343 11.1503378378378  15.3431734317343 11.1503378378378  C 15.2767527675277 10.6655405405405  15.3431734317343 10.3192567567568  15.5424354243542 10.0422297297297  C 15.6752767527675 9.90371621621621  15.8745387453875 9.7652027027027  16.0738007380074 9.7652027027027  C 16.0738007380074 9.7652027027027  17.3357933579336 9.55743243243242  17.3357933579336 9.55743243243242  L 17.6678966789668 8.7956081081081  L 18 6.51013513513514  L 17.7343173431734 5.67905405405404  L 16.6051660516605 5.40202702702702  L 16.5387453874539 5.40202702702702  L 15.210332103321 4.70945945945945  L 15.1439114391144 4.6402027027027  L 15.1439114391144 4.50168918918919  L 15.0774907749078 4.43243243243244  L 15.0110701107011 2.77027027027027  L 15.0110701107011 2.63175675675675  L 15.0110701107011 2.42398648648649  Z " fill-rule="evenodd" />
    </mask>
  </defs>
  <g transform="matrix(1 0 0 1 -2005 -1855 )">
    <path d="M 15.0110701107011 2.42398648648649  L 16.7380073800738 2.00844594594594  L 17.0036900369004 1.66216216216216  L 16.5387453874539 0.554054054054052  L 16.0738007380074 0  L 15.5424354243542 0.900337837837836  L 15.5424354243542 0.969594594594589  L 14.6789667896679 2.00844594594594  L 14.6125461254613 2.0777027027027  L 14.479704797048 2.0777027027027  L 12.8856088560886 2.56249999999999  L 12.7527675276753 2.56249999999999  L 11.2250922509225 2.28547297297296  L 10.3616236162362 2.56249999999999  L 10.1623616236163 3.32432432432431  L 10.0959409594096 3.46283783783784  L 9.36531365313652 3.94763513513513  L 9.23247232472324 4.01689189189188  L 9.09963099630997 4.01689189189188  L 7.77121771217712 3.87837837837838  L 7.70479704797047 4.01689189189188  L 7.70479704797047 5.40202702702702  L 7.63837638376385 5.47128378378379  L 6.90774907749077 6.44087837837837  L 6.90774907749077 6.51013513513514  L 6.84132841328415 6.51013513513514  L 5.57933579335793 7.8260135135135  L 5.51291512915131 7.8260135135135  L 5.44649446494465 7.89527027027028  L 4.11808118081181 8.17229729729729  L 3.25461254612545 9.14189189189188  L 3.45387453874538 10.3192567567568  L 3.45387453874538 10.5962837837838  L 3.25461254612545 10.6655405405405  L 2.25830258302582 11.6351351351351  L 1.72693726937267 12.3277027027027  L 2.12546125461254 13.2280405405405  L 2.12546125461254 13.2972972972973  L 2.12546125461254 13.366554054054  L 2.12546125461254 14.6824324324324  L 2.12546125461254 14.7516891891892  L 1.39483394833946 15.8597972972973  L 1.39483394833946 15.9290540540541  L 0.39852398523983 17.1064189189189  L 0.531365313653145 18.491554054054  L 1.39483394833946 19.3226351351351  C 1.39483394833946 19.3226351351351  1.39483394833946 19.3918918918919  1.39483394833946 19.3918918918919  C 1.79335793357933 20.0844594594595  1.99261992619926 20.6385135135135  1.99261992619926 21.1233108108108  C 1.99261992619926 21.1233108108108  1.99261992619926 22.6469594594595  1.99261992619926 22.6469594594595  L 1.92619926199261 22.6469594594595  L 1.85977859778599 22.7162162162162  L 0.531365313653145 23.7550675675676  L 0.39852398523983 25.8327702702703  C 0.39852398523983 25.8327702702703  0.531365313653145 27.910472972973  0.531365313653145 27.910472972973  C 0.531365313653145 28.6030405405405  0.797047970479698 29.9189189189189  1.46125461254612 31.8581081081081  C 1.46125461254612 31.8581081081081  1.46125461254612 31.9273648648649  1.46125461254612 31.9273648648649  L 1.46125461254612 32.0658783783784  L 0 39.1300675675676  L 0.132841328413277 40.5152027027027  L 1.12915129151291 41  L 2.72324723247231 39.3378378378378  L 2.78966789667896 39.3378378378378  L 7.9040590405904 37.2601351351351  L 9.23247232472324 36.0135135135135  L 9.36531365313652 35.875  L 9.43173431734318 35.9442567567568  L 9.56457564575645 35.9442567567568  C 9.56457564575645 35.9442567567568  12.4870848708487 36.2212837837838  12.4870848708487 36.2212837837838  C 12.8856088560886 36.2212837837838  13.7490774907749 35.875  15.0110701107011 35.320945945946  C 15.0110701107011 35.320945945946  15.0110701107011 33.8665540540541  15.0110701107011 33.8665540540541  L 15.0774907749078 33.7972972972973  L 15.1439114391144 33.7972972972973  L 15.9409594095941 33.035472972973  L 15.7416974169742 32.1351351351351  L 15.7416974169742 32.0658783783784  L 15.7416974169742 31.9966216216216  L 15.7416974169742 31.8581081081081  C 15.7416974169742 31.8581081081081  15.8081180811808 31.7888513513514  15.8081180811808 31.7888513513514  C 16.0738007380074 31.5118243243243  16.0738007380074 31.2347972972973  15.8745387453875 31.027027027027  C 15.6752767527675 30.6114864864865  15.7416974169742 30.0574324324324  16.0738007380074 29.4341216216216  C 16.0738007380074 29.4341216216216  16.4059040590406 28.9493243243243  16.4059040590406 28.9493243243243  L 16.3394833948339 27.9797297297297  C 16.3394833948339 27.9797297297297  15.3431734317343 26.7331081081081  15.3431734317343 26.7331081081081  C 14.8782287822878 26.3868243243243  14.8118081180812 25.902027027027  15.0774907749078 25.4172297297297  C 15.210332103321 25.0016891891892  15.409594095941 24.5861486486487  15.7416974169742 24.2398648648649  C 15.7416974169742 24.2398648648649  16.0073800738007 23.0625  16.0073800738007 23.0625  L 16.7380073800738 21.4003378378378  L 16.9372693726937 20.6385135135135  L 18 18.5608108108108  L 17.269372693727 17.2449324324324  L 15.210332103321 15.9290540540541  L 15.0774907749078 15.9290540540541  L 15.0774907749078 15.7905405405405  L 14.6789667896679 14.6824324324324  L 14.6789667896679 14.6131756756757  L 14.6789667896679 14.4746621621622  L 14.8782287822878 12.6047297297297  L 14.8782287822878 12.535472972973  C 14.8782287822878 12.535472972973  15.3431734317343 11.1503378378378  15.3431734317343 11.1503378378378  C 15.2767527675277 10.6655405405405  15.3431734317343 10.3192567567568  15.5424354243542 10.0422297297297  C 15.6752767527675 9.90371621621621  15.8745387453875 9.7652027027027  16.0738007380074 9.7652027027027  C 16.0738007380074 9.7652027027027  17.3357933579336 9.55743243243242  17.3357933579336 9.55743243243242  L 17.6678966789668 8.7956081081081  L 18 6.51013513513514  L 17.7343173431734 5.67905405405404  L 16.6051660516605 5.40202702702702  L 16.5387453874539 5.40202702702702  L 15.210332103321 4.70945945945945  L 15.1439114391144 4.6402027027027  L 15.1439114391144 4.50168918918919  L 15.0774907749078 4.43243243243244  L 15.0110701107011 2.77027027027027  L 15.0110701107011 2.63175675675675  L 15.0110701107011 2.42398648648649  Z " fill-rule="nonzero" fill="#4a9eff" stroke="none" transform="matrix(1 0 0 1 2005 1855 )" />
    <path d="M 15.0110701107011 2.42398648648649  L 16.7380073800738 2.00844594594594  L 17.0036900369004 1.66216216216216  L 16.5387453874539 0.554054054054052  L 16.0738007380074 0  L 15.5424354243542 0.900337837837836  L 15.5424354243542 0.969594594594589  L 14.6789667896679 2.00844594594594  L 14.6125461254613 2.0777027027027  L 14.479704797048 2.0777027027027  L 12.8856088560886 2.56249999999999  L 12.7527675276753 2.56249999999999  L 11.2250922509225 2.28547297297296  L 10.3616236162362 2.56249999999999  L 10.1623616236163 3.32432432432431  L 10.0959409594096 3.46283783783784  L 9.36531365313652 3.94763513513513  L 9.23247232472324 4.01689189189188  L 9.09963099630997 4.01689189189188  L 7.77121771217712 3.87837837837838  L 7.70479704797047 4.01689189189188  L 7.70479704797047 5.40202702702702  L 7.63837638376385 5.47128378378379  L 6.90774907749077 6.44087837837837  L 6.90774907749077 6.51013513513514  L 6.84132841328415 6.51013513513514  L 5.57933579335793 7.8260135135135  L 5.51291512915131 7.8260135135135  L 5.44649446494465 7.89527027027028  L 4.11808118081181 8.17229729729729  L 3.25461254612545 9.14189189189188  L 3.45387453874538 10.3192567567568  L 3.45387453874538 10.5962837837838  L 3.25461254612545 10.6655405405405  L 2.25830258302582 11.6351351351351  L 1.72693726937267 12.3277027027027  L 2.12546125461254 13.2280405405405  L 2.12546125461254 13.2972972972973  L 2.12546125461254 13.366554054054  L 2.12546125461254 14.6824324324324  L 2.12546125461254 14.7516891891892  L 1.39483394833946 15.8597972972973  L 1.39483394833946 15.9290540540541  L 0.39852398523983 17.1064189189189  L 0.531365313653145 18.491554054054  L 1.39483394833946 19.3226351351351  C 1.39483394833946 19.3226351351351  1.39483394833946 19.3918918918919  1.39483394833946 19.3918918918919  C 1.79335793357933 20.0844594594595  1.99261992619926 20.6385135135135  1.99261992619926 21.1233108108108  C 1.99261992619926 21.1233108108108  1.99261992619926 22.6469594594595  1.99261992619926 22.6469594594595  L 1.92619926199261 22.6469594594595  L 1.85977859778599 22.7162162162162  L 0.531365313653145 23.7550675675676  L 0.39852398523983 25.8327702702703  C 0.39852398523983 25.8327702702703  0.531365313653145 27.910472972973  0.531365313653145 27.910472972973  C 0.531365313653145 28.6030405405405  0.797047970479698 29.9189189189189  1.46125461254612 31.8581081081081  C 1.46125461254612 31.8581081081081  1.46125461254612 31.9273648648649  1.46125461254612 31.9273648648649  L 1.46125461254612 32.0658783783784  L 0 39.1300675675676  L 0.132841328413277 40.5152027027027  L 1.12915129151291 41  L 2.72324723247231 39.3378378378378  L 2.78966789667896 39.3378378378378  L 7.9040590405904 37.2601351351351  L 9.23247232472324 36.0135135135135  L 9.36531365313652 35.875  L 9.43173431734318 35.9442567567568  L 9.56457564575645 35.9442567567568  C 9.56457564575645 35.9442567567568  12.4870848708487 36.2212837837838  12.4870848708487 36.2212837837838  C 12.8856088560886 36.2212837837838  13.7490774907749 35.875  15.0110701107011 35.320945945946  C 15.0110701107011 35.320945945946  15.0110701107011 33.8665540540541  15.0110701107011 33.8665540540541  L 15.0774907749078 33.7972972972973  L 15.1439114391144 33.7972972972973  L 15.9409594095941 33.035472972973  L 15.7416974169742 32.1351351351351  L 15.7416974169742 32.0658783783784  L 15.7416974169742 31.9966216216216  L 15.7416974169742 31.8581081081081  C 15.7416974169742 31.8581081081081  15.8081180811808 31.7888513513514  15.8081180811808 31.7888513513514  C 16.0738007380074 31.5118243243243  16.0738007380074 31.2347972972973  15.8745387453875 31.027027027027  C 15.6752767527675 30.6114864864865  15.7416974169742 30.0574324324324  16.0738007380074 29.4341216216216  C 16.0738007380074 29.4341216216216  16.4059040590406 28.9493243243243  16.4059040590406 28.9493243243243  L 16.3394833948339 27.9797297297297  C 16.3394833948339 27.9797297297297  15.3431734317343 26.7331081081081  15.3431734317343 26.7331081081081  C 14.8782287822878 26.3868243243243  14.8118081180812 25.902027027027  15.0774907749078 25.4172297297297  C 15.210332103321 25.0016891891892  15.409594095941 24.5861486486487  15.7416974169742 24.2398648648649  C 15.7416974169742 24.2398648648649  16.0073800738007 23.0625  16.0073800738007 23.0625  L 16.7380073800738 21.4003378378378  L 16.9372693726937 20.6385135135135  L 18 18.5608108108108  L 17.269372693727 17.2449324324324  L 15.210332103321 15.9290540540541  L 15.0774907749078 15.9290540540541  L 15.0774907749078 15.7905405405405  L 14.6789667896679 14.6824324324324  L 14.6789667896679 14.6131756756757  L 14.6789667896679 14.4746621621622  L 14.8782287822878 12.6047297297297  L 14.8782287822878 12.535472972973  C 14.8782287822878 12.535472972973  15.3431734317343 11.1503378378378  15.3431734317343 11.1503378378378  C 15.2767527675277 10.6655405405405  15.3431734317343 10.3192567567568  15.5424354243542 10.0422297297297  C 15.6752767527675 9.90371621621621  15.8745387453875 9.7652027027027  16.0738007380074 9.7652027027027  C 16.0738007380074 9.7652027027027  17.3357933579336 9.55743243243242  17.3357933579336 9.55743243243242  L 17.6678966789668 8.7956081081081  L 18 6.51013513513514  L 17.7343173431734 5.67905405405404  L 16.6051660516605 5.40202702702702  L 16.5387453874539 5.40202702702702  L 15.210332103321 4.70945945945945  L 15.1439114391144 4.6402027027027  L 15.1439114391144 4.50168918918919  L 15.0774907749078 4.43243243243244  L 15.0110701107011 2.77027027027027  L 15.0110701107011 2.63175675675675  L 15.0110701107011 2.42398648648649  Z " stroke-width="2" stroke="#ffffff" fill="none" transform="matrix(1 0 0 1 2005 1855 )" mask="url(#clip219)" />
  </g>
</svg>