<?xml version="1.0" encoding="utf-8"?>
<svg version="1.1" xmlns:xlink="http://www.w3.org/1999/xlink" width="5px" height="5px" xmlns="http://www.w3.org/2000/svg">
  <g transform="matrix(1 0 0 1 -223 -1722 )">
    <path d="M 4.53333333333333 1.99999999999977  L 0.799999999999997 1.99999999999977  C 0.538666666666664 1.99999999999977  0.33333333333333 1.70666666666648  0.33333333333333 1.33333333333303  C 0.33333333333333 0.959999999999695  0.538666666666664 0.666666666666401  0.799999999999997 0.666666666666401  L 4.53333333333333 0.666666666666401  C 4.79466666666666 0.666666666666401  5 0.959999999999695  5 1.33333333333303  C 5 1.70666666666648  4.79466666666666 1.99999999999977  4.53333333333333 1.99999999999977  Z M 4.53333333333333 4.6666666666664  L 0.799999999999997 4.6666666666664  C 0.538666666666664 4.6666666666664  0.33333333333333 4.37333333333311  0.33333333333333 3.99999999999977  C 0.33333333333333 3.62666666666632  0.538666666666664 3.33333333333303  0.799999999999997 3.33333333333303  L 4.53333333333333 3.33333333333303  C 4.79466666666666 3.33333333333303  5 3.62666666666632  5 3.99999999999977  C 5 4.37333333333311  4.79466666666666 4.6666666666664  4.53333333333333 4.6666666666664  Z " fill-rule="nonzero" fill="#ffffff" stroke="none" transform="matrix(1 0 0 1 223 1722 )" />
  </g>
</svg>