<?xml version="1.0" encoding="utf-8"?>
<svg version="1.1" xmlns:xlink="http://www.w3.org/1999/xlink" width="14px" height="4px" xmlns="http://www.w3.org/2000/svg">
  <g transform="matrix(1 0 0 1 -779 -488 )">
    <path d="M 2 0.66666666666697  C 2.7466666666669 0.66666666666697  3.33333333333348 1.25333333333401  3.33333333333348 2  C 3.33333333333348 2.7466666666669  2.7466666666669 3.33333333333394  2 3.33333333333394  C 1.25333333333356 3.33333333333394  0.66666666666697 2.7466666666669  0.66666666666697 2  C 0.66666666666697 1.25333333333401  1.25333333333356 0.66666666666697  2 0.66666666666697  Z M 7 0.66666666666697  C 7.7466666666669 0.66666666666697  8.33333333333348 1.25333333333401  8.33333333333348 2  C 8.33333333333348 2.7466666666669  7.7466666666669 3.33333333333394  7 3.33333333333394  C 6.25333333333356 3.33333333333394  5.66666666666697 2.7466666666669  5.66666666666697 2  C 5.66666666666697 1.25333333333401  6.25333333333356 0.66666666666697  7 0.66666666666697  Z M 13.3333333333335 2  C 13.3333333333335 2.7466666666669  12.7466666666669 3.33333333333394  12 3.33333333333394  C 11.2533333333336 3.33333333333394  10.666666666667 2.7466666666669  10.666666666667 2  C 10.666666666667 1.25333333333401  11.2533333333336 0.66666666666697  12 0.66666666666697  C 12.7466666666669 0.66666666666697  13.3333333333335 1.25333333333401  13.3333333333335 2  Z " fill-rule="nonzero" fill="#929aa6" stroke="none" transform="matrix(1 0 0 1 779 488 )" />
  </g>
</svg>