<?xml version="1.0" encoding="utf-8"?>
<svg version="1.1" xmlns:xlink="http://www.w3.org/1999/xlink" width="28px" height="49px" xmlns="http://www.w3.org/2000/svg">
  <defs>
    <mask fill="white" id="clip484">
      <path d="M 10.4913151364764 11.7247579529737  L 9.31017369727048 11.1825726141079  L 8.89330024813897 11.1147994467497  L 8.19851116625311 15.2489626556017  L 9.37965260545906 16.6044260027663  L 10.4913151364764 17.0788381742738  L 10.560794044665 17.0788381742738  L 10.6302729528536 17.1466113416321  L 12.0893300248139 18.298755186722  L 14.1042183622829 18.7731673582296  L 14.1736972704715 18.7731673582296  L 15.2158808933003 19.4508990318119  L 15.2853598014888 19.4508990318119  L 15.2853598014888 19.5864453665284  L 16.0496277915633 20.67081604426  L 16.1885856079405 20.8063623789765  L 16.1191066997519 20.9419087136929  C 16.1191066997519 20.9419087136929  15.424317617866 22.0262793914246  15.424317617866 22.0262793914246  C 15.2853598014888 22.1618257261411  15.2853598014888 22.5006915629322  15.2853598014888 23.0428769017981  C 15.2853598014888 23.0428769017981  15.3548387096774 23.0428769017981  15.3548387096774 23.0428769017981  L 15.3548387096774 24.3305670816044  L 15.2853598014888 24.3983402489627  L 14.6600496277916 26.4315352697095  L 14.590570719603 26.7704011065007  L 14.4516129032258 26.7704011065007  L 14.2431761786601 26.7026279391425  L 13.3399503722085 26.4993084370678  L 12.1588089330025 26.567081604426  L 11.1166253101737 26.9059474412171  L 9.93548387096775 27.8547717842324  L 9.65756823821341 28.1258644536653  L 11.1861042183623 28.8713692946058  C 11.1861042183623 28.8713692946058  11.0471464019851 29.1424619640387  11.0471464019851 29.1424619640387  C 10.9776674937965 29.4813278008299  10.6302729528536 29.820193637621  10.0744416873449 30.0235131396957  C 10.0744416873449 30.0235131396957  9.10173697270473 30.0912863070539  9.10173697270473 30.0912863070539  L 7.50372208436726 29.4813278008299  L 6.04466501240696 28.6680497925311  L 5.41935483870969 28.6680497925311  L 3.68238213399505 31.1078838174274  L 3.33498759305212 31.9211618257261  L 3.33498759305212 33.344398340249  L 4.02977667493797 34.4965421853389  L 4.02977667493797 34.5643153526971  L 4.44665012406949 35.6486860304288  L 4.44665012406949 35.7842323651452  L 4.51612903225807 37.3430152143845  L 4.51612903225807 37.5463347164592  L 4.58560794044667 37.6818810511757  L 3.47394540942928 37.8852005532503  L 1.38957816377171 37.8852005532503  L 0.41687344913153 38.4951590594744  L 0 39.1728907330567  L 0.0694789081886014 39.2406639004149  L 0.486352357320111 41.2738589211618  L 0.555831265508693 41.2738589211618  L 0.555831265508693 42.0871369294606  L 1.04218362282878 43.0359612724758  L 2.5012406947891 43.984785615491  L 4.65508684863525 43.5103734439834  L 5.69727047146403 42.8326417704011  L 5.8362282878412 42.7648686030429  L 6.8089330024814 42.7648686030429  C 6.8089330024814 42.7648686030429  7.36476426799009 44.0525587828492  7.36476426799009 44.0525587828492  C 7.71215880893302 44.3914246196404  7.99007444168735 44.7302904564315  8.12903225806453 45.1369294605809  C 8.12903225806453 45.1369294605809  8.61538461538462 45.0691562932227  8.61538461538462 45.0691562932227  L 8.75434243176181 45.0691562932227  L 8.89330024813897 45.0691562932227  L 8.96277915632755 44.9336099585062  L 9.93548387096775 44.1881051175657  L 10.8387096774194 45.746887966805  L 11.8114143920596 46.356846473029  L 13.2009925558313 46.356846473029  L 14.2431761786601 46.2213001383126  L 14.4516129032258 46.2213001383126  L 16.9528535980149 46.5601659751037  L 17.0223325062035 46.5601659751037  L 17.0223325062035 46.627939142462  L 18.0645161290323 47.237897648686  L 18.0645161290323 47.3056708160443  L 18.9677419354839 47.9834024896266  L 18.9677419354839 48.0511756569848  L 19.5930521091812 48.7289073305671  L 20.287841191067 49  L 21.3995037220844 48.8644536652835  L 21.3995037220844 47.4412171507607  L 20.8436724565757 46.4923928077455  L 20.7741935483871 46.4923928077455  L 20.7741935483871 46.4246196403873  L 20.3573200992556 44.6625172890733  L 21.3300248138958 43.7136929460581  L 21.3995037220844 43.6459197786999  L 21.468982630273 43.6459197786999  L 22.302729528536 43.5103734439834  L 23.2059553349876 43.5103734439834  L 23.4838709677419 43.1715076071922  L 22.9280397022333 42.4260027662517  L 20.9131513647643 41.1383125864454  L 20.4267990074442 40.3928077455048  L 20.3573200992556 40.3250345781466  L 20.287841191067 40.2572614107884  L 20.3573200992556 40.1217150760719  L 20.9131513647643 39.1051175656985  L 21.0521091811414 39.2406639004149  L 22.4416873449131 39.5795297372061  L 26.1240694789082 39.4439834024896  L 26.1935483870968 39.5117565698479  L 26.2630272952854 39.5117565698479  L 27.3052109181141 39.850622406639  L 28 39.2406639004149  L 27.6526054590571 37.1396957123098  C 27.6526054590571 37.1396957123098  26.332506203474 36.3264177040111  26.332506203474 36.3264177040111  C 25.2208436724566 35.716459197787  24.8734491315136 34.2254495159059  25.0818858560794 31.7856154910097  C 25.0818858560794 31.7856154910097  23.9702233250621 31.2434301521438  23.9702233250621 31.2434301521438  L 23.8312655086849 31.1756569847856  L 23.6923076923077 31.1756569847856  L 23.6923076923077 31.0401106500692  L 23.6923076923077 30.9723374827109  L 23.4838709677419 29.210235131397  C 23.4838709677419 29.210235131397  25.0124069478908 22.2973720608575  25.0124069478908 22.2973720608575  C 24.3870967741936 20.2641770401106  24.0397022332506 18.9087136929461  24.0397022332506 18.2309820193638  C 24.0397022332506 18.2309820193638  23.9007444168735 16.1977869986169  23.9007444168735 16.1977869986169  L 24.0397022332506 13.9612724757953  L 24.0397022332506 13.8257261410788  L 24.1786600496278 13.6901798063624  L 25.5682382133995 12.6735822959889  C 25.5682382133995 12.6735822959889  25.5682382133995 11.5892116182573  25.5682382133995 11.5892116182573  C 25.5682382133995 11.3181189488243  25.4292803970223 10.911479944675  25.0818858560794 10.3692946058091  C 25.0818858560794 10.3692946058091  24.1786600496278 9.42047026279392  24.1786600496278 9.42047026279392  L 24.0397022332506 9.42047026279392  L 24.0397022332506 9.21715076071922  L 23.9007444168735 7.5905947441217  L 23.9007444168735 7.52282157676348  L 23.8312655086849 7.45504840940526  L 23.9702233250621 7.38727524204703  L 23.9702233250621 7.3195020746888  L 25.7766749379653 5.08298755186722  L 25.7766749379653 4.134163208852  L 25.2208436724566 3.11756569847856  L 25.2208436724566 3.04979253112033  L 25.151364764268 2.91424619640388  L 26.0545905707196 1.82987551867219  L 26.0545905707196 1.76210235131397  L 26.1240694789082 1.76210235131397  L 27.0967741935484 1.01659751037344  L 26.9578163771712 0.135546334716451  L 26.4714640198511 0.135546334716451  L 25.7071960297767 0  L 25.2903225806452 1.62655601659751  L 25.0818858560794 1.55878284923929  L 23.2754342431762 0.881051175656992  L 22.1637717121588 0.677731673582296  L 22.5806451612904 2.37206085753804  L 21.0521091811414 2.84647302904564  L 18.8287841191067 3.99861687413555  L 18.1339950372209 4.87966804979252  L 18.1339950372209 4.94744121715077  L 18.0645161290323 4.94744121715077  L 16.8833746898263 5.96403872752421  L 16.6749379652606 7.5905947441217  L 16.6749379652606 7.72614107883818  L 16.0496277915633 10.030428769018  L 16.1191066997519 10.030428769018  L 15.8411910669975 11.1147994467497  L 15.8411910669975 11.1825726141079  L 15.771712158809 11.2503457814661  L 15.0074441687345 12.2669432918396  L 14.9379652605459 12.2669432918396  L 14.9379652605459 12.3347164591978  L 14.8684863523573 12.402489626556  L 14.7990074441687 12.402489626556  L 13.1315136476427 12.6058091286307  L 13.1315136476427 12.6735822959889  L 13.0620347394541 12.6058091286307  L 10.560794044665 11.792531120332  L 10.4913151364764 11.7247579529737  Z " fill-rule="evenodd" />
    </mask>
  </defs>
  <g transform="matrix(1 0 0 1 -1981 -1864 )">
    <path d="M 10.4913151364764 11.7247579529737  L 9.31017369727048 11.1825726141079  L 8.89330024813897 11.1147994467497  L 8.19851116625311 15.2489626556017  L 9.37965260545906 16.6044260027663  L 10.4913151364764 17.0788381742738  L 10.560794044665 17.0788381742738  L 10.6302729528536 17.1466113416321  L 12.0893300248139 18.298755186722  L 14.1042183622829 18.7731673582296  L 14.1736972704715 18.7731673582296  L 15.2158808933003 19.4508990318119  L 15.2853598014888 19.4508990318119  L 15.2853598014888 19.5864453665284  L 16.0496277915633 20.67081604426  L 16.1885856079405 20.8063623789765  L 16.1191066997519 20.9419087136929  C 16.1191066997519 20.9419087136929  15.424317617866 22.0262793914246  15.424317617866 22.0262793914246  C 15.2853598014888 22.1618257261411  15.2853598014888 22.5006915629322  15.2853598014888 23.0428769017981  C 15.2853598014888 23.0428769017981  15.3548387096774 23.0428769017981  15.3548387096774 23.0428769017981  L 15.3548387096774 24.3305670816044  L 15.2853598014888 24.3983402489627  L 14.6600496277916 26.4315352697095  L 14.590570719603 26.7704011065007  L 14.4516129032258 26.7704011065007  L 14.2431761786601 26.7026279391425  L 13.3399503722085 26.4993084370678  L 12.1588089330025 26.567081604426  L 11.1166253101737 26.9059474412171  L 9.93548387096775 27.8547717842324  L 9.65756823821341 28.1258644536653  L 11.1861042183623 28.8713692946058  C 11.1861042183623 28.8713692946058  11.0471464019851 29.1424619640387  11.0471464019851 29.1424619640387  C 10.9776674937965 29.4813278008299  10.6302729528536 29.820193637621  10.0744416873449 30.0235131396957  C 10.0744416873449 30.0235131396957  9.10173697270473 30.0912863070539  9.10173697270473 30.0912863070539  L 7.50372208436726 29.4813278008299  L 6.04466501240696 28.6680497925311  L 5.41935483870969 28.6680497925311  L 3.68238213399505 31.1078838174274  L 3.33498759305212 31.9211618257261  L 3.33498759305212 33.344398340249  L 4.02977667493797 34.4965421853389  L 4.02977667493797 34.5643153526971  L 4.44665012406949 35.6486860304288  L 4.44665012406949 35.7842323651452  L 4.51612903225807 37.3430152143845  L 4.51612903225807 37.5463347164592  L 4.58560794044667 37.6818810511757  L 3.47394540942928 37.8852005532503  L 1.38957816377171 37.8852005532503  L 0.41687344913153 38.4951590594744  L 0 39.1728907330567  L 0.0694789081886014 39.2406639004149  L 0.486352357320111 41.2738589211618  L 0.555831265508693 41.2738589211618  L 0.555831265508693 42.0871369294606  L 1.04218362282878 43.0359612724758  L 2.5012406947891 43.984785615491  L 4.65508684863525 43.5103734439834  L 5.69727047146403 42.8326417704011  L 5.8362282878412 42.7648686030429  L 6.8089330024814 42.7648686030429  C 6.8089330024814 42.7648686030429  7.36476426799009 44.0525587828492  7.36476426799009 44.0525587828492  C 7.71215880893302 44.3914246196404  7.99007444168735 44.7302904564315  8.12903225806453 45.1369294605809  C 8.12903225806453 45.1369294605809  8.61538461538462 45.0691562932227  8.61538461538462 45.0691562932227  L 8.75434243176181 45.0691562932227  L 8.89330024813897 45.0691562932227  L 8.96277915632755 44.9336099585062  L 9.93548387096775 44.1881051175657  L 10.8387096774194 45.746887966805  L 11.8114143920596 46.356846473029  L 13.2009925558313 46.356846473029  L 14.2431761786601 46.2213001383126  L 14.4516129032258 46.2213001383126  L 16.9528535980149 46.5601659751037  L 17.0223325062035 46.5601659751037  L 17.0223325062035 46.627939142462  L 18.0645161290323 47.237897648686  L 18.0645161290323 47.3056708160443  L 18.9677419354839 47.9834024896266  L 18.9677419354839 48.0511756569848  L 19.5930521091812 48.7289073305671  L 20.287841191067 49  L 21.3995037220844 48.8644536652835  L 21.3995037220844 47.4412171507607  L 20.8436724565757 46.4923928077455  L 20.7741935483871 46.4923928077455  L 20.7741935483871 46.4246196403873  L 20.3573200992556 44.6625172890733  L 21.3300248138958 43.7136929460581  L 21.3995037220844 43.6459197786999  L 21.468982630273 43.6459197786999  L 22.302729528536 43.5103734439834  L 23.2059553349876 43.5103734439834  L 23.4838709677419 43.1715076071922  L 22.9280397022333 42.4260027662517  L 20.9131513647643 41.1383125864454  L 20.4267990074442 40.3928077455048  L 20.3573200992556 40.3250345781466  L 20.287841191067 40.2572614107884  L 20.3573200992556 40.1217150760719  L 20.9131513647643 39.1051175656985  L 21.0521091811414 39.2406639004149  L 22.4416873449131 39.5795297372061  L 26.1240694789082 39.4439834024896  L 26.1935483870968 39.5117565698479  L 26.2630272952854 39.5117565698479  L 27.3052109181141 39.850622406639  L 28 39.2406639004149  L 27.6526054590571 37.1396957123098  C 27.6526054590571 37.1396957123098  26.332506203474 36.3264177040111  26.332506203474 36.3264177040111  C 25.2208436724566 35.716459197787  24.8734491315136 34.2254495159059  25.0818858560794 31.7856154910097  C 25.0818858560794 31.7856154910097  23.9702233250621 31.2434301521438  23.9702233250621 31.2434301521438  L 23.8312655086849 31.1756569847856  L 23.6923076923077 31.1756569847856  L 23.6923076923077 31.0401106500692  L 23.6923076923077 30.9723374827109  L 23.4838709677419 29.210235131397  C 23.4838709677419 29.210235131397  25.0124069478908 22.2973720608575  25.0124069478908 22.2973720608575  C 24.3870967741936 20.2641770401106  24.0397022332506 18.9087136929461  24.0397022332506 18.2309820193638  C 24.0397022332506 18.2309820193638  23.9007444168735 16.1977869986169  23.9007444168735 16.1977869986169  L 24.0397022332506 13.9612724757953  L 24.0397022332506 13.8257261410788  L 24.1786600496278 13.6901798063624  L 25.5682382133995 12.6735822959889  C 25.5682382133995 12.6735822959889  25.5682382133995 11.5892116182573  25.5682382133995 11.5892116182573  C 25.5682382133995 11.3181189488243  25.4292803970223 10.911479944675  25.0818858560794 10.3692946058091  C 25.0818858560794 10.3692946058091  24.1786600496278 9.42047026279392  24.1786600496278 9.42047026279392  L 24.0397022332506 9.42047026279392  L 24.0397022332506 9.21715076071922  L 23.9007444168735 7.5905947441217  L 23.9007444168735 7.52282157676348  L 23.8312655086849 7.45504840940526  L 23.9702233250621 7.38727524204703  L 23.9702233250621 7.3195020746888  L 25.7766749379653 5.08298755186722  L 25.7766749379653 4.134163208852  L 25.2208436724566 3.11756569847856  L 25.2208436724566 3.04979253112033  L 25.151364764268 2.91424619640388  L 26.0545905707196 1.82987551867219  L 26.0545905707196 1.76210235131397  L 26.1240694789082 1.76210235131397  L 27.0967741935484 1.01659751037344  L 26.9578163771712 0.135546334716451  L 26.4714640198511 0.135546334716451  L 25.7071960297767 0  L 25.2903225806452 1.62655601659751  L 25.0818858560794 1.55878284923929  L 23.2754342431762 0.881051175656992  L 22.1637717121588 0.677731673582296  L 22.5806451612904 2.37206085753804  L 21.0521091811414 2.84647302904564  L 18.8287841191067 3.99861687413555  L 18.1339950372209 4.87966804979252  L 18.1339950372209 4.94744121715077  L 18.0645161290323 4.94744121715077  L 16.8833746898263 5.96403872752421  L 16.6749379652606 7.5905947441217  L 16.6749379652606 7.72614107883818  L 16.0496277915633 10.030428769018  L 16.1191066997519 10.030428769018  L 15.8411910669975 11.1147994467497  L 15.8411910669975 11.1825726141079  L 15.771712158809 11.2503457814661  L 15.0074441687345 12.2669432918396  L 14.9379652605459 12.2669432918396  L 14.9379652605459 12.3347164591978  L 14.8684863523573 12.402489626556  L 14.7990074441687 12.402489626556  L 13.1315136476427 12.6058091286307  L 13.1315136476427 12.6735822959889  L 13.0620347394541 12.6058091286307  L 10.560794044665 11.792531120332  L 10.4913151364764 11.7247579529737  Z " fill-rule="nonzero" fill="#4a9eff" stroke="none" transform="matrix(1 0 0 1 1981 1864 )" />
    <path d="M 10.4913151364764 11.7247579529737  L 9.31017369727048 11.1825726141079  L 8.89330024813897 11.1147994467497  L 8.19851116625311 15.2489626556017  L 9.37965260545906 16.6044260027663  L 10.4913151364764 17.0788381742738  L 10.560794044665 17.0788381742738  L 10.6302729528536 17.1466113416321  L 12.0893300248139 18.298755186722  L 14.1042183622829 18.7731673582296  L 14.1736972704715 18.7731673582296  L 15.2158808933003 19.4508990318119  L 15.2853598014888 19.4508990318119  L 15.2853598014888 19.5864453665284  L 16.0496277915633 20.67081604426  L 16.1885856079405 20.8063623789765  L 16.1191066997519 20.9419087136929  C 16.1191066997519 20.9419087136929  15.424317617866 22.0262793914246  15.424317617866 22.0262793914246  C 15.2853598014888 22.1618257261411  15.2853598014888 22.5006915629322  15.2853598014888 23.0428769017981  C 15.2853598014888 23.0428769017981  15.3548387096774 23.0428769017981  15.3548387096774 23.0428769017981  L 15.3548387096774 24.3305670816044  L 15.2853598014888 24.3983402489627  L 14.6600496277916 26.4315352697095  L 14.590570719603 26.7704011065007  L 14.4516129032258 26.7704011065007  L 14.2431761786601 26.7026279391425  L 13.3399503722085 26.4993084370678  L 12.1588089330025 26.567081604426  L 11.1166253101737 26.9059474412171  L 9.93548387096775 27.8547717842324  L 9.65756823821341 28.1258644536653  L 11.1861042183623 28.8713692946058  C 11.1861042183623 28.8713692946058  11.0471464019851 29.1424619640387  11.0471464019851 29.1424619640387  C 10.9776674937965 29.4813278008299  10.6302729528536 29.820193637621  10.0744416873449 30.0235131396957  C 10.0744416873449 30.0235131396957  9.10173697270473 30.0912863070539  9.10173697270473 30.0912863070539  L 7.50372208436726 29.4813278008299  L 6.04466501240696 28.6680497925311  L 5.41935483870969 28.6680497925311  L 3.68238213399505 31.1078838174274  L 3.33498759305212 31.9211618257261  L 3.33498759305212 33.344398340249  L 4.02977667493797 34.4965421853389  L 4.02977667493797 34.5643153526971  L 4.44665012406949 35.6486860304288  L 4.44665012406949 35.7842323651452  L 4.51612903225807 37.3430152143845  L 4.51612903225807 37.5463347164592  L 4.58560794044667 37.6818810511757  L 3.47394540942928 37.8852005532503  L 1.38957816377171 37.8852005532503  L 0.41687344913153 38.4951590594744  L 0 39.1728907330567  L 0.0694789081886014 39.2406639004149  L 0.486352357320111 41.2738589211618  L 0.555831265508693 41.2738589211618  L 0.555831265508693 42.0871369294606  L 1.04218362282878 43.0359612724758  L 2.5012406947891 43.984785615491  L 4.65508684863525 43.5103734439834  L 5.69727047146403 42.8326417704011  L 5.8362282878412 42.7648686030429  L 6.8089330024814 42.7648686030429  C 6.8089330024814 42.7648686030429  7.36476426799009 44.0525587828492  7.36476426799009 44.0525587828492  C 7.71215880893302 44.3914246196404  7.99007444168735 44.7302904564315  8.12903225806453 45.1369294605809  C 8.12903225806453 45.1369294605809  8.61538461538462 45.0691562932227  8.61538461538462 45.0691562932227  L 8.75434243176181 45.0691562932227  L 8.89330024813897 45.0691562932227  L 8.96277915632755 44.9336099585062  L 9.93548387096775 44.1881051175657  L 10.8387096774194 45.746887966805  L 11.8114143920596 46.356846473029  L 13.2009925558313 46.356846473029  L 14.2431761786601 46.2213001383126  L 14.4516129032258 46.2213001383126  L 16.9528535980149 46.5601659751037  L 17.0223325062035 46.5601659751037  L 17.0223325062035 46.627939142462  L 18.0645161290323 47.237897648686  L 18.0645161290323 47.3056708160443  L 18.9677419354839 47.9834024896266  L 18.9677419354839 48.0511756569848  L 19.5930521091812 48.7289073305671  L 20.287841191067 49  L 21.3995037220844 48.8644536652835  L 21.3995037220844 47.4412171507607  L 20.8436724565757 46.4923928077455  L 20.7741935483871 46.4923928077455  L 20.7741935483871 46.4246196403873  L 20.3573200992556 44.6625172890733  L 21.3300248138958 43.7136929460581  L 21.3995037220844 43.6459197786999  L 21.468982630273 43.6459197786999  L 22.302729528536 43.5103734439834  L 23.2059553349876 43.5103734439834  L 23.4838709677419 43.1715076071922  L 22.9280397022333 42.4260027662517  L 20.9131513647643 41.1383125864454  L 20.4267990074442 40.3928077455048  L 20.3573200992556 40.3250345781466  L 20.287841191067 40.2572614107884  L 20.3573200992556 40.1217150760719  L 20.9131513647643 39.1051175656985  L 21.0521091811414 39.2406639004149  L 22.4416873449131 39.5795297372061  L 26.1240694789082 39.4439834024896  L 26.1935483870968 39.5117565698479  L 26.2630272952854 39.5117565698479  L 27.3052109181141 39.850622406639  L 28 39.2406639004149  L 27.6526054590571 37.1396957123098  C 27.6526054590571 37.1396957123098  26.332506203474 36.3264177040111  26.332506203474 36.3264177040111  C 25.2208436724566 35.716459197787  24.8734491315136 34.2254495159059  25.0818858560794 31.7856154910097  C 25.0818858560794 31.7856154910097  23.9702233250621 31.2434301521438  23.9702233250621 31.2434301521438  L 23.8312655086849 31.1756569847856  L 23.6923076923077 31.1756569847856  L 23.6923076923077 31.0401106500692  L 23.6923076923077 30.9723374827109  L 23.4838709677419 29.210235131397  C 23.4838709677419 29.210235131397  25.0124069478908 22.2973720608575  25.0124069478908 22.2973720608575  C 24.3870967741936 20.2641770401106  24.0397022332506 18.9087136929461  24.0397022332506 18.2309820193638  C 24.0397022332506 18.2309820193638  23.9007444168735 16.1977869986169  23.9007444168735 16.1977869986169  L 24.0397022332506 13.9612724757953  L 24.0397022332506 13.8257261410788  L 24.1786600496278 13.6901798063624  L 25.5682382133995 12.6735822959889  C 25.5682382133995 12.6735822959889  25.5682382133995 11.5892116182573  25.5682382133995 11.5892116182573  C 25.5682382133995 11.3181189488243  25.4292803970223 10.911479944675  25.0818858560794 10.3692946058091  C 25.0818858560794 10.3692946058091  24.1786600496278 9.42047026279392  24.1786600496278 9.42047026279392  L 24.0397022332506 9.42047026279392  L 24.0397022332506 9.21715076071922  L 23.9007444168735 7.5905947441217  L 23.9007444168735 7.52282157676348  L 23.8312655086849 7.45504840940526  L 23.9702233250621 7.38727524204703  L 23.9702233250621 7.3195020746888  L 25.7766749379653 5.08298755186722  L 25.7766749379653 4.134163208852  L 25.2208436724566 3.11756569847856  L 25.2208436724566 3.04979253112033  L 25.151364764268 2.91424619640388  L 26.0545905707196 1.82987551867219  L 26.0545905707196 1.76210235131397  L 26.1240694789082 1.76210235131397  L 27.0967741935484 1.01659751037344  L 26.9578163771712 0.135546334716451  L 26.4714640198511 0.135546334716451  L 25.7071960297767 0  L 25.2903225806452 1.62655601659751  L 25.0818858560794 1.55878284923929  L 23.2754342431762 0.881051175656992  L 22.1637717121588 0.677731673582296  L 22.5806451612904 2.37206085753804  L 21.0521091811414 2.84647302904564  L 18.8287841191067 3.99861687413555  L 18.1339950372209 4.87966804979252  L 18.1339950372209 4.94744121715077  L 18.0645161290323 4.94744121715077  L 16.8833746898263 5.96403872752421  L 16.6749379652606 7.5905947441217  L 16.6749379652606 7.72614107883818  L 16.0496277915633 10.030428769018  L 16.1191066997519 10.030428769018  L 15.8411910669975 11.1147994467497  L 15.8411910669975 11.1825726141079  L 15.771712158809 11.2503457814661  L 15.0074441687345 12.2669432918396  L 14.9379652605459 12.2669432918396  L 14.9379652605459 12.3347164591978  L 14.8684863523573 12.402489626556  L 14.7990074441687 12.402489626556  L 13.1315136476427 12.6058091286307  L 13.1315136476427 12.6735822959889  L 13.0620347394541 12.6058091286307  L 10.560794044665 11.792531120332  L 10.4913151364764 11.7247579529737  Z " stroke-width="2" stroke="#ffffff" fill="none" transform="matrix(1 0 0 1 1981 1864 )" mask="url(#clip484)" />
  </g>
</svg>