<?xml version="1.0" encoding="utf-8"?>
<svg version="1.1" xmlns:xlink="http://www.w3.org/1999/xlink" width="43px" height="33px" xmlns="http://www.w3.org/2000/svg">
  <defs>
    <mask fill="white" id="clip859">
      <path d="M 33.6267942583732 0.801670146137779  L 33.6937799043062 0.868475991649276  L 33.8277511961723 1.00208768267223  C 33.8277511961723 1.00208768267223  32.9569377990431 2.33820459290188  32.9569377990431 2.33820459290188  C 32.622009569378 2.73903966597079  32.1531100478469 3.0062630480167  31.6172248803828 3.0062630480167  C 31.6172248803828 3.0062630480167  31.4832535885167 3.0062630480167  31.4832535885167 3.0062630480167  L 30.8133971291866 2.60542797494783  L 30.1435406698565 2.67223382045929  C 30.1435406698565 2.67223382045929  28.8038277511962 3.67432150313152  28.8038277511962 3.67432150313152  C 28.4688995215311 3.80793319415448  28.066985645933 3.47390396659707  27.4641148325359 2.67223382045929  C 27.4641148325359 2.67223382045929  27.0622009569378 3.54070981210856  27.0622009569378 3.54070981210856  L 26.9952153110048 3.54070981210856  L 26.9282296650718 3.60751565762006  L 26.4593301435407 4.07515657620043  L 25.5885167464115 4.07515657620043  L 24.7177033492823 4.34237995824634  L 23.6459330143541 5.14405010438412  L 23.311004784689 5.14405010438412  C 23.311004784689 5.14405010438412  22.9090909090909 5.41127348643007  22.9090909090909 5.41127348643007  C 22.5741626794258 5.74530271398748  22.4401913875598 6.01252609603339  22.6411483253588 6.27974947807935  C 22.6411483253588 6.27974947807935  23.11004784689 6.94780793319417  23.11004784689 6.94780793319417  L 21.2344497607655 6.74739039665972  L 20.2296650717703 7.54906054279749  L 20.0956937799043 7.88308977035491  L 20.0956937799043 7.9498956158664  L 19.8947368421053 8.48434237995823  L 19.8277511961722 8.55114822546973  L 19.7607655502392 8.61795407098123  L 18.822966507177 8.61795407098123  L 17.6172248803828 8.15031315240082  L 17.2153110047847 8.08350730688936  C 17.2153110047847 8.08350730688936  16.2775119617225 8.21711899791232  16.2775119617225 8.21711899791232  C 15.8755980861244 8.21711899791232  15.4066985645933 7.74947807933195  15.0047846889952 7.01461377870563  C 15.0047846889952 7.01461377870563  14.200956937799 6.68058455114822  14.200956937799 6.68058455114822  L 13.5311004784689 7.68267223382045  L 13.4641148325359 7.68267223382045  L 12.5263157894737 8.48434237995823  L 12.4593301435407 8.48434237995823  L 12.4593301435407 8.55114822546973  L 12.3253588516746 8.55114822546973  L 11.5885167464115 8.75156576200418  L 10.5167464114832 9.68684759916492  L 9.37799043062201 10.2212943632568  L 8.57416267942583 11.2901878914405  L 5.89473684210525 11.2901878914405  L 3.81818181818181 10.4885177453027  L 2.67942583732057 10.3549060542797  L 1.67464114832536 10.8893528183716  L 1.60765550239233 10.8893528183716  C 1.60765550239233 10.8893528183716  0.937799043062186 11.1565762004175  0.937799043062186 11.1565762004175  C 0.602870813397114 11.2901878914405  0.334928229665072 11.4906054279749  0.133971291866021 11.5574112734864  C 0.133971291866021 11.5574112734864  0 11.8914405010438  0 11.8914405010438  L 0 12.6931106471816  L 0.334928229665072 13.2275574112735  C 0.334928229665072 13.2275574112735  1.9425837320574 12.6931106471816  1.9425837320574 12.6931106471816  C 2.27751196172247 12.6931106471816  2.74641148325358 12.8935281837161  3.34928229665072 13.2275574112735  C 3.34928229665072 13.2275574112735  3.48325358851674 13.294363256785  3.48325358851674 13.294363256785  L 3.55023923444975 13.3611691022964  L 3.61722488038276 15.6325678496869  L 3.95215311004783 15.6993736951983  L 5.35885167464115 15.6993736951983  L 6.22966507177032 15.4989561586639  C 6.22966507177032 15.4989561586639  6.36363636363636 15.3653444676409  6.36363636363636 15.3653444676409  C 6.89952153110047 15.098121085595  7.36842105263158 14.8977035490605  7.9712918660287 14.830897703549  C 7.9712918660287 14.830897703549  8.23923444976075 14.7640918580376  8.23923444976075 14.7640918580376  L 8.3732057416268 14.964509394572  L 8.77511961722488 15.7661795407098  L 8.77511961722488 15.8329853862213  L 8.97607655502391 18.0375782881002  L 8.97607655502391 18.2379958246346  L 7.77033492822966 19.5073068893528  L 7.70334928229665 19.5073068893528  L 7.70334928229665 19.5741127348643  L 6.29665071770333 20.2421711899791  L 5.82775119617224 20.776617954071  L 6.0287081339713 21.1774530271398  L 8.9090909090909 21.4446764091858  L 8.97607655502391 21.5114822546973  L 9.04306220095694 21.5782881002088  L 10.1818181818182 22.2463465553236  L 12.7272727272727 22.1795407098121  L 12.7272727272727 22.5135699373695  L 12.8612440191388 23.7828810020877  L 12.8612440191388 23.9164926931106  L 12.9282296650718 23.9164926931106  C 12.9282296650718 23.9164926931106  11.7894736842105 25.0521920668058  11.7894736842105 25.0521920668058  C 11.6555023923445 26.5219206680584  11.9234449760765 27.3903966597077  12.5263157894737 27.5908141962422  C 12.5263157894737 27.5908141962422  14.6698564593301 28.7265135699373  14.6698564593301 28.7265135699373  L 16.3444976076555 29.8622129436325  L 17.7511961722488 29.1941544885177  L 17.8851674641148 29.1273486430063  L 18.0191387559809 29.0605427974948  L 18.0861244019139 29.1273486430063  L 20.2296650717703 30.7306889352818  L 20.5645933014354 30.8643006263048  L 21.1004784688995 30.1962421711899  L 21.2344497607655 30.062630480167  L 21.3014354066986 29.9958246346555  L 21.3684210526316 29.9958246346555  L 21.4354066985646 29.9958246346555  L 22.7081339712919 30.1962421711899  L 22.9760765550239 27.9916492693111  L 24.5837320574163 30.8643006263048  L 25.9234449760765 30.9311064718163  L 26.1244019138756 30.9979123173278  L 26.2583732057416 30.9979123173278  L 26.2583732057416 31.1315240083507  L 26.2583732057416 32  L 26.7942583732057 31.866388308977  L 29.0047846889952 28.9269311064718  L 29.9425837320574 30.3298538622129  L 29.9425837320574 29.8622129436325  L 29.9425837320574 29.7954070981211  L 29.9425837320574 29.7286012526096  L 30.6124401913876 28.3924843423799  L 31.2153110047847 27.3903966597077  L 32.88995215311 27.3903966597077  L 33.1578947368421 25.5198329853862  L 33.3588516746412 25.5198329853862  L 33.4928229665072 25.5866388308977  L 34.7655502392344 25.7870563674321  L 34.8995215311005 25.1189979123173  L 34.4306220095694 24.0501043841336  L 34.4306220095694 23.9164926931106  L 34.6985645933014 23.1816283924843  L 34.6985645933014 23.0480167014614  L 34.7655502392344 22.9812108559499  L 34.8325358851675 22.9812108559499  L 34.8325358851675 22.9144050104384  L 38.3157894736842 21.0438413361169  L 38.1818181818182 19.2400835073069  L 38.1818181818182 19.1732776617954  L 38.8516746411483 17.8371607515657  L 38.9856459330144 17.5699373695198  L 40.0574162679426 15.098121085595  L 40.1244019138756 15.0313152400835  L 40.9952153110048 14.1628392484342  L 41.5311004784689 13.160751565762  L 41.5311004784689 13.027139874739  L 42 12.2254697286012  L 41.5980861244019 11.223382045929  L 41.5980861244019 11.1565762004175  L 41.5311004784689 11.1565762004175  L 41.5311004784689 10.0876826722338  L 40.9952153110048 10.0876826722338  C 40.9952153110048 10.0876826722338  39.9904306220096 10.5553235908142  39.9904306220096 10.5553235908142  C 39.5215311004785 10.8893528183716  38.8516746411483 10.7557411273486  37.9808612440191 10.2212943632568  C 37.6459330143541 9.95407098121087  37.6459330143541 9.28601252609605  37.8468899521531 8.28392484342382  C 37.8468899521531 8.28392484342382  37.311004784689 8.21711899791232  37.311004784689 8.21711899791232  C 37.311004784689 8.21711899791232  37.043062200957 8.55114822546973  37.043062200957 8.55114822546973  C 36.4401913875598 9.21920668058455  35.9712918660287 9.62004175365346  35.8373205741627 9.62004175365346  C 35.7033492822967 9.62004175365346  35.6363636363636 9.62004175365346  35.5023923444976 9.55323590814196  C 35.4354066985646 9.35281837160751  35.3014354066986 9.0187891440501  35.3014354066986 8.48434237995823  C 35.3014354066986 7.88308977035491  35.3014354066986 7.482254697286  35.5023923444976 7.34864300626304  C 35.6363636363636 7.14822546972859  35.7703349282297 7.08141962421713  35.9043062200957 7.21503131524008  C 35.9043062200957 7.21503131524008  37.177033492823 4.87682672233821  37.177033492823 4.87682672233821  L 37.511961722488 4.00835073068893  L 37.7129186602871 3.0062630480167  C 37.7129186602871 3.0062630480167  36.9760765550239 2.40501043841337  36.9760765550239 2.40501043841337  C 36.7751196172249 2.20459290187892  36.7081339712919 1.73695198329855  36.8421052631579 1.06889352818373  C 36.8421052631579 1.06889352818373  36.8421052631579 0.668058455114822  36.8421052631579 0.668058455114822  C 36.8421052631579 0.467640918580368  36.7081339712919 0.200417536534454  36.4401913875598 0  C 36.4401913875598 0  36.3062200956938 0  36.3062200956938 0  C 36.3062200956938 0  36.2392344497608 0.200417536534454  36.2392344497608 0.200417536534454  C 36.0382775119617 0.734864300626319  35.5693779904306 1.00208768267223  34.8325358851675 0.801670146137779  C 34.4976076555024 0.668058455114822  34.0956937799043 0.668058455114822  33.6267942583732 0.801670146137779  Z " fill-rule="evenodd" />
    </mask>
  </defs>
  <g transform="matrix(1 0 0 1 -1976 -1947 )">
    <path d="M 33.6267942583732 0.801670146137779  L 33.6937799043062 0.868475991649276  L 33.8277511961723 1.00208768267223  C 33.8277511961723 1.00208768267223  32.9569377990431 2.33820459290188  32.9569377990431 2.33820459290188  C 32.622009569378 2.73903966597079  32.1531100478469 3.0062630480167  31.6172248803828 3.0062630480167  C 31.6172248803828 3.0062630480167  31.4832535885167 3.0062630480167  31.4832535885167 3.0062630480167  L 30.8133971291866 2.60542797494783  L 30.1435406698565 2.67223382045929  C 30.1435406698565 2.67223382045929  28.8038277511962 3.67432150313152  28.8038277511962 3.67432150313152  C 28.4688995215311 3.80793319415448  28.066985645933 3.47390396659707  27.4641148325359 2.67223382045929  C 27.4641148325359 2.67223382045929  27.0622009569378 3.54070981210856  27.0622009569378 3.54070981210856  L 26.9952153110048 3.54070981210856  L 26.9282296650718 3.60751565762006  L 26.4593301435407 4.07515657620043  L 25.5885167464115 4.07515657620043  L 24.7177033492823 4.34237995824634  L 23.6459330143541 5.14405010438412  L 23.311004784689 5.14405010438412  C 23.311004784689 5.14405010438412  22.9090909090909 5.41127348643007  22.9090909090909 5.41127348643007  C 22.5741626794258 5.74530271398748  22.4401913875598 6.01252609603339  22.6411483253588 6.27974947807935  C 22.6411483253588 6.27974947807935  23.11004784689 6.94780793319417  23.11004784689 6.94780793319417  L 21.2344497607655 6.74739039665972  L 20.2296650717703 7.54906054279749  L 20.0956937799043 7.88308977035491  L 20.0956937799043 7.9498956158664  L 19.8947368421053 8.48434237995823  L 19.8277511961722 8.55114822546973  L 19.7607655502392 8.61795407098123  L 18.822966507177 8.61795407098123  L 17.6172248803828 8.15031315240082  L 17.2153110047847 8.08350730688936  C 17.2153110047847 8.08350730688936  16.2775119617225 8.21711899791232  16.2775119617225 8.21711899791232  C 15.8755980861244 8.21711899791232  15.4066985645933 7.74947807933195  15.0047846889952 7.01461377870563  C 15.0047846889952 7.01461377870563  14.200956937799 6.68058455114822  14.200956937799 6.68058455114822  L 13.5311004784689 7.68267223382045  L 13.4641148325359 7.68267223382045  L 12.5263157894737 8.48434237995823  L 12.4593301435407 8.48434237995823  L 12.4593301435407 8.55114822546973  L 12.3253588516746 8.55114822546973  L 11.5885167464115 8.75156576200418  L 10.5167464114832 9.68684759916492  L 9.37799043062201 10.2212943632568  L 8.57416267942583 11.2901878914405  L 5.89473684210525 11.2901878914405  L 3.81818181818181 10.4885177453027  L 2.67942583732057 10.3549060542797  L 1.67464114832536 10.8893528183716  L 1.60765550239233 10.8893528183716  C 1.60765550239233 10.8893528183716  0.937799043062186 11.1565762004175  0.937799043062186 11.1565762004175  C 0.602870813397114 11.2901878914405  0.334928229665072 11.4906054279749  0.133971291866021 11.5574112734864  C 0.133971291866021 11.5574112734864  0 11.8914405010438  0 11.8914405010438  L 0 12.6931106471816  L 0.334928229665072 13.2275574112735  C 0.334928229665072 13.2275574112735  1.9425837320574 12.6931106471816  1.9425837320574 12.6931106471816  C 2.27751196172247 12.6931106471816  2.74641148325358 12.8935281837161  3.34928229665072 13.2275574112735  C 3.34928229665072 13.2275574112735  3.48325358851674 13.294363256785  3.48325358851674 13.294363256785  L 3.55023923444975 13.3611691022964  L 3.61722488038276 15.6325678496869  L 3.95215311004783 15.6993736951983  L 5.35885167464115 15.6993736951983  L 6.22966507177032 15.4989561586639  C 6.22966507177032 15.4989561586639  6.36363636363636 15.3653444676409  6.36363636363636 15.3653444676409  C 6.89952153110047 15.098121085595  7.36842105263158 14.8977035490605  7.9712918660287 14.830897703549  C 7.9712918660287 14.830897703549  8.23923444976075 14.7640918580376  8.23923444976075 14.7640918580376  L 8.3732057416268 14.964509394572  L 8.77511961722488 15.7661795407098  L 8.77511961722488 15.8329853862213  L 8.97607655502391 18.0375782881002  L 8.97607655502391 18.2379958246346  L 7.77033492822966 19.5073068893528  L 7.70334928229665 19.5073068893528  L 7.70334928229665 19.5741127348643  L 6.29665071770333 20.2421711899791  L 5.82775119617224 20.776617954071  L 6.0287081339713 21.1774530271398  L 8.9090909090909 21.4446764091858  L 8.97607655502391 21.5114822546973  L 9.04306220095694 21.5782881002088  L 10.1818181818182 22.2463465553236  L 12.7272727272727 22.1795407098121  L 12.7272727272727 22.5135699373695  L 12.8612440191388 23.7828810020877  L 12.8612440191388 23.9164926931106  L 12.9282296650718 23.9164926931106  C 12.9282296650718 23.9164926931106  11.7894736842105 25.0521920668058  11.7894736842105 25.0521920668058  C 11.6555023923445 26.5219206680584  11.9234449760765 27.3903966597077  12.5263157894737 27.5908141962422  C 12.5263157894737 27.5908141962422  14.6698564593301 28.7265135699373  14.6698564593301 28.7265135699373  L 16.3444976076555 29.8622129436325  L 17.7511961722488 29.1941544885177  L 17.8851674641148 29.1273486430063  L 18.0191387559809 29.0605427974948  L 18.0861244019139 29.1273486430063  L 20.2296650717703 30.7306889352818  L 20.5645933014354 30.8643006263048  L 21.1004784688995 30.1962421711899  L 21.2344497607655 30.062630480167  L 21.3014354066986 29.9958246346555  L 21.3684210526316 29.9958246346555  L 21.4354066985646 29.9958246346555  L 22.7081339712919 30.1962421711899  L 22.9760765550239 27.9916492693111  L 24.5837320574163 30.8643006263048  L 25.9234449760765 30.9311064718163  L 26.1244019138756 30.9979123173278  L 26.2583732057416 30.9979123173278  L 26.2583732057416 31.1315240083507  L 26.2583732057416 32  L 26.7942583732057 31.866388308977  L 29.0047846889952 28.9269311064718  L 29.9425837320574 30.3298538622129  L 29.9425837320574 29.8622129436325  L 29.9425837320574 29.7954070981211  L 29.9425837320574 29.7286012526096  L 30.6124401913876 28.3924843423799  L 31.2153110047847 27.3903966597077  L 32.88995215311 27.3903966597077  L 33.1578947368421 25.5198329853862  L 33.3588516746412 25.5198329853862  L 33.4928229665072 25.5866388308977  L 34.7655502392344 25.7870563674321  L 34.8995215311005 25.1189979123173  L 34.4306220095694 24.0501043841336  L 34.4306220095694 23.9164926931106  L 34.6985645933014 23.1816283924843  L 34.6985645933014 23.0480167014614  L 34.7655502392344 22.9812108559499  L 34.8325358851675 22.9812108559499  L 34.8325358851675 22.9144050104384  L 38.3157894736842 21.0438413361169  L 38.1818181818182 19.2400835073069  L 38.1818181818182 19.1732776617954  L 38.8516746411483 17.8371607515657  L 38.9856459330144 17.5699373695198  L 40.0574162679426 15.098121085595  L 40.1244019138756 15.0313152400835  L 40.9952153110048 14.1628392484342  L 41.5311004784689 13.160751565762  L 41.5311004784689 13.027139874739  L 42 12.2254697286012  L 41.5980861244019 11.223382045929  L 41.5980861244019 11.1565762004175  L 41.5311004784689 11.1565762004175  L 41.5311004784689 10.0876826722338  L 40.9952153110048 10.0876826722338  C 40.9952153110048 10.0876826722338  39.9904306220096 10.5553235908142  39.9904306220096 10.5553235908142  C 39.5215311004785 10.8893528183716  38.8516746411483 10.7557411273486  37.9808612440191 10.2212943632568  C 37.6459330143541 9.95407098121087  37.6459330143541 9.28601252609605  37.8468899521531 8.28392484342382  C 37.8468899521531 8.28392484342382  37.311004784689 8.21711899791232  37.311004784689 8.21711899791232  C 37.311004784689 8.21711899791232  37.043062200957 8.55114822546973  37.043062200957 8.55114822546973  C 36.4401913875598 9.21920668058455  35.9712918660287 9.62004175365346  35.8373205741627 9.62004175365346  C 35.7033492822967 9.62004175365346  35.6363636363636 9.62004175365346  35.5023923444976 9.55323590814196  C 35.4354066985646 9.35281837160751  35.3014354066986 9.0187891440501  35.3014354066986 8.48434237995823  C 35.3014354066986 7.88308977035491  35.3014354066986 7.482254697286  35.5023923444976 7.34864300626304  C 35.6363636363636 7.14822546972859  35.7703349282297 7.08141962421713  35.9043062200957 7.21503131524008  C 35.9043062200957 7.21503131524008  37.177033492823 4.87682672233821  37.177033492823 4.87682672233821  L 37.511961722488 4.00835073068893  L 37.7129186602871 3.0062630480167  C 37.7129186602871 3.0062630480167  36.9760765550239 2.40501043841337  36.9760765550239 2.40501043841337  C 36.7751196172249 2.20459290187892  36.7081339712919 1.73695198329855  36.8421052631579 1.06889352818373  C 36.8421052631579 1.06889352818373  36.8421052631579 0.668058455114822  36.8421052631579 0.668058455114822  C 36.8421052631579 0.467640918580368  36.7081339712919 0.200417536534454  36.4401913875598 0  C 36.4401913875598 0  36.3062200956938 0  36.3062200956938 0  C 36.3062200956938 0  36.2392344497608 0.200417536534454  36.2392344497608 0.200417536534454  C 36.0382775119617 0.734864300626319  35.5693779904306 1.00208768267223  34.8325358851675 0.801670146137779  C 34.4976076555024 0.668058455114822  34.0956937799043 0.668058455114822  33.6267942583732 0.801670146137779  Z " fill-rule="nonzero" fill="#4a9eff" stroke="none" transform="matrix(1 0 0 1 1976 1947 )" />
    <path d="M 33.6267942583732 0.801670146137779  L 33.6937799043062 0.868475991649276  L 33.8277511961723 1.00208768267223  C 33.8277511961723 1.00208768267223  32.9569377990431 2.33820459290188  32.9569377990431 2.33820459290188  C 32.622009569378 2.73903966597079  32.1531100478469 3.0062630480167  31.6172248803828 3.0062630480167  C 31.6172248803828 3.0062630480167  31.4832535885167 3.0062630480167  31.4832535885167 3.0062630480167  L 30.8133971291866 2.60542797494783  L 30.1435406698565 2.67223382045929  C 30.1435406698565 2.67223382045929  28.8038277511962 3.67432150313152  28.8038277511962 3.67432150313152  C 28.4688995215311 3.80793319415448  28.066985645933 3.47390396659707  27.4641148325359 2.67223382045929  C 27.4641148325359 2.67223382045929  27.0622009569378 3.54070981210856  27.0622009569378 3.54070981210856  L 26.9952153110048 3.54070981210856  L 26.9282296650718 3.60751565762006  L 26.4593301435407 4.07515657620043  L 25.5885167464115 4.07515657620043  L 24.7177033492823 4.34237995824634  L 23.6459330143541 5.14405010438412  L 23.311004784689 5.14405010438412  C 23.311004784689 5.14405010438412  22.9090909090909 5.41127348643007  22.9090909090909 5.41127348643007  C 22.5741626794258 5.74530271398748  22.4401913875598 6.01252609603339  22.6411483253588 6.27974947807935  C 22.6411483253588 6.27974947807935  23.11004784689 6.94780793319417  23.11004784689 6.94780793319417  L 21.2344497607655 6.74739039665972  L 20.2296650717703 7.54906054279749  L 20.0956937799043 7.88308977035491  L 20.0956937799043 7.9498956158664  L 19.8947368421053 8.48434237995823  L 19.8277511961722 8.55114822546973  L 19.7607655502392 8.61795407098123  L 18.822966507177 8.61795407098123  L 17.6172248803828 8.15031315240082  L 17.2153110047847 8.08350730688936  C 17.2153110047847 8.08350730688936  16.2775119617225 8.21711899791232  16.2775119617225 8.21711899791232  C 15.8755980861244 8.21711899791232  15.4066985645933 7.74947807933195  15.0047846889952 7.01461377870563  C 15.0047846889952 7.01461377870563  14.200956937799 6.68058455114822  14.200956937799 6.68058455114822  L 13.5311004784689 7.68267223382045  L 13.4641148325359 7.68267223382045  L 12.5263157894737 8.48434237995823  L 12.4593301435407 8.48434237995823  L 12.4593301435407 8.55114822546973  L 12.3253588516746 8.55114822546973  L 11.5885167464115 8.75156576200418  L 10.5167464114832 9.68684759916492  L 9.37799043062201 10.2212943632568  L 8.57416267942583 11.2901878914405  L 5.89473684210525 11.2901878914405  L 3.81818181818181 10.4885177453027  L 2.67942583732057 10.3549060542797  L 1.67464114832536 10.8893528183716  L 1.60765550239233 10.8893528183716  C 1.60765550239233 10.8893528183716  0.937799043062186 11.1565762004175  0.937799043062186 11.1565762004175  C 0.602870813397114 11.2901878914405  0.334928229665072 11.4906054279749  0.133971291866021 11.5574112734864  C 0.133971291866021 11.5574112734864  0 11.8914405010438  0 11.8914405010438  L 0 12.6931106471816  L 0.334928229665072 13.2275574112735  C 0.334928229665072 13.2275574112735  1.9425837320574 12.6931106471816  1.9425837320574 12.6931106471816  C 2.27751196172247 12.6931106471816  2.74641148325358 12.8935281837161  3.34928229665072 13.2275574112735  C 3.34928229665072 13.2275574112735  3.48325358851674 13.294363256785  3.48325358851674 13.294363256785  L 3.55023923444975 13.3611691022964  L 3.61722488038276 15.6325678496869  L 3.95215311004783 15.6993736951983  L 5.35885167464115 15.6993736951983  L 6.22966507177032 15.4989561586639  C 6.22966507177032 15.4989561586639  6.36363636363636 15.3653444676409  6.36363636363636 15.3653444676409  C 6.89952153110047 15.098121085595  7.36842105263158 14.8977035490605  7.9712918660287 14.830897703549  C 7.9712918660287 14.830897703549  8.23923444976075 14.7640918580376  8.23923444976075 14.7640918580376  L 8.3732057416268 14.964509394572  L 8.77511961722488 15.7661795407098  L 8.77511961722488 15.8329853862213  L 8.97607655502391 18.0375782881002  L 8.97607655502391 18.2379958246346  L 7.77033492822966 19.5073068893528  L 7.70334928229665 19.5073068893528  L 7.70334928229665 19.5741127348643  L 6.29665071770333 20.2421711899791  L 5.82775119617224 20.776617954071  L 6.0287081339713 21.1774530271398  L 8.9090909090909 21.4446764091858  L 8.97607655502391 21.5114822546973  L 9.04306220095694 21.5782881002088  L 10.1818181818182 22.2463465553236  L 12.7272727272727 22.1795407098121  L 12.7272727272727 22.5135699373695  L 12.8612440191388 23.7828810020877  L 12.8612440191388 23.9164926931106  L 12.9282296650718 23.9164926931106  C 12.9282296650718 23.9164926931106  11.7894736842105 25.0521920668058  11.7894736842105 25.0521920668058  C 11.6555023923445 26.5219206680584  11.9234449760765 27.3903966597077  12.5263157894737 27.5908141962422  C 12.5263157894737 27.5908141962422  14.6698564593301 28.7265135699373  14.6698564593301 28.7265135699373  L 16.3444976076555 29.8622129436325  L 17.7511961722488 29.1941544885177  L 17.8851674641148 29.1273486430063  L 18.0191387559809 29.0605427974948  L 18.0861244019139 29.1273486430063  L 20.2296650717703 30.7306889352818  L 20.5645933014354 30.8643006263048  L 21.1004784688995 30.1962421711899  L 21.2344497607655 30.062630480167  L 21.3014354066986 29.9958246346555  L 21.3684210526316 29.9958246346555  L 21.4354066985646 29.9958246346555  L 22.7081339712919 30.1962421711899  L 22.9760765550239 27.9916492693111  L 24.5837320574163 30.8643006263048  L 25.9234449760765 30.9311064718163  L 26.1244019138756 30.9979123173278  L 26.2583732057416 30.9979123173278  L 26.2583732057416 31.1315240083507  L 26.2583732057416 32  L 26.7942583732057 31.866388308977  L 29.0047846889952 28.9269311064718  L 29.9425837320574 30.3298538622129  L 29.9425837320574 29.8622129436325  L 29.9425837320574 29.7954070981211  L 29.9425837320574 29.7286012526096  L 30.6124401913876 28.3924843423799  L 31.2153110047847 27.3903966597077  L 32.88995215311 27.3903966597077  L 33.1578947368421 25.5198329853862  L 33.3588516746412 25.5198329853862  L 33.4928229665072 25.5866388308977  L 34.7655502392344 25.7870563674321  L 34.8995215311005 25.1189979123173  L 34.4306220095694 24.0501043841336  L 34.4306220095694 23.9164926931106  L 34.6985645933014 23.1816283924843  L 34.6985645933014 23.0480167014614  L 34.7655502392344 22.9812108559499  L 34.8325358851675 22.9812108559499  L 34.8325358851675 22.9144050104384  L 38.3157894736842 21.0438413361169  L 38.1818181818182 19.2400835073069  L 38.1818181818182 19.1732776617954  L 38.8516746411483 17.8371607515657  L 38.9856459330144 17.5699373695198  L 40.0574162679426 15.098121085595  L 40.1244019138756 15.0313152400835  L 40.9952153110048 14.1628392484342  L 41.5311004784689 13.160751565762  L 41.5311004784689 13.027139874739  L 42 12.2254697286012  L 41.5980861244019 11.223382045929  L 41.5980861244019 11.1565762004175  L 41.5311004784689 11.1565762004175  L 41.5311004784689 10.0876826722338  L 40.9952153110048 10.0876826722338  C 40.9952153110048 10.0876826722338  39.9904306220096 10.5553235908142  39.9904306220096 10.5553235908142  C 39.5215311004785 10.8893528183716  38.8516746411483 10.7557411273486  37.9808612440191 10.2212943632568  C 37.6459330143541 9.95407098121087  37.6459330143541 9.28601252609605  37.8468899521531 8.28392484342382  C 37.8468899521531 8.28392484342382  37.311004784689 8.21711899791232  37.311004784689 8.21711899791232  C 37.311004784689 8.21711899791232  37.043062200957 8.55114822546973  37.043062200957 8.55114822546973  C 36.4401913875598 9.21920668058455  35.9712918660287 9.62004175365346  35.8373205741627 9.62004175365346  C 35.7033492822967 9.62004175365346  35.6363636363636 9.62004175365346  35.5023923444976 9.55323590814196  C 35.4354066985646 9.35281837160751  35.3014354066986 9.0187891440501  35.3014354066986 8.48434237995823  C 35.3014354066986 7.88308977035491  35.3014354066986 7.482254697286  35.5023923444976 7.34864300626304  C 35.6363636363636 7.14822546972859  35.7703349282297 7.08141962421713  35.9043062200957 7.21503131524008  C 35.9043062200957 7.21503131524008  37.177033492823 4.87682672233821  37.177033492823 4.87682672233821  L 37.511961722488 4.00835073068893  L 37.7129186602871 3.0062630480167  C 37.7129186602871 3.0062630480167  36.9760765550239 2.40501043841337  36.9760765550239 2.40501043841337  C 36.7751196172249 2.20459290187892  36.7081339712919 1.73695198329855  36.8421052631579 1.06889352818373  C 36.8421052631579 1.06889352818373  36.8421052631579 0.668058455114822  36.8421052631579 0.668058455114822  C 36.8421052631579 0.467640918580368  36.7081339712919 0.200417536534454  36.4401913875598 0  C 36.4401913875598 0  36.3062200956938 0  36.3062200956938 0  C 36.3062200956938 0  36.2392344497608 0.200417536534454  36.2392344497608 0.200417536534454  C 36.0382775119617 0.734864300626319  35.5693779904306 1.00208768267223  34.8325358851675 0.801670146137779  C 34.4976076555024 0.668058455114822  34.0956937799043 0.668058455114822  33.6267942583732 0.801670146137779  Z " stroke-width="2" stroke="#ffffff" fill="none" transform="matrix(1 0 0 1 1976 1947 )" mask="url(#clip859)" />
  </g>
</svg>