<?xml version="1.0" encoding="utf-8"?>
<svg version="1.1" xmlns:xlink="http://www.w3.org/1999/xlink" width="31px" height="30px" xmlns="http://www.w3.org/2000/svg">
  <defs>
    <mask fill="white" id="clip491">
      <path d="M 15.4340425531915 4.28571428571429  L 14.1808510638298 3.95089285714286  C 14.1808510638298 3.95089285714286  13.3893617021277 5.02232142857143  13.3893617021277 5.02232142857143  C 13.2574468085107 5.22321428571428  13.1914893617021 5.625  13.3234042553191 6.29464285714286  C 13.3234042553191 6.29464285714286  13.3234042553191 6.69642857142857  13.3234042553191 6.69642857142857  L 11.7404255319149 6.69642857142857  L 10.5531914893617 6.36160714285714  L 9.69574468085106 7.70089285714286  L 9.56382978723404 7.83482142857143  L 8.50851063829786 8.50446428571428  L 7.58510638297872 9.50892857142857  L 7.45319148936171 9.70982142857143  L 5.80425531914894 11.6517857142857  L 5.73829787234042 11.71875  L 4.48510638297873 12.3883928571429  L 3.49574468085107 11.71875  L 2.5723404255319 10.6473214285714  L 1.97872340425532 10.3125  L 2.44042553191489 13.0580357142857  L 2.83617021276596 14.53125  L 1.84680851063831 15.46875  L 0.461702127659567 17.5446428571429  L 0.461702127659567 18.4151785714286  L 0.395744680851079 18.4821428571429  L 0 19.0178571428571  L 0.263829787234028 19.4866071428571  L 0.79148936170212 19.4866071428571  L 2.70425531914895 20.0223214285714  L 2.83617021276596 20.0223214285714  L 2.90212765957445 20.0892857142857  L 3.29787234042553 20.4910714285714  L 3.82553191489363 20.7589285714286  C 3.82553191489363 20.7589285714286  3.95744680851064 20.7589285714286  3.95744680851064 20.7589285714286  C 4.15531914893618 21.09375  4.28723404255319 21.3616071428571  4.28723404255319 21.6294642857143  C 4.28723404255319 21.6294642857143  4.48510638297873 22.2321428571429  4.48510638297873 22.2321428571429  L 6.52978723404254 22.8348214285714  L 7.12340425531916 22.7008928571429  L 7.71702127659574 21.8973214285714  L 9.30000000000001 18.8169642857143  L 9.3659574468085 18.75  L 10.0914893617021 17.7455357142857  L 10.1574468085106 17.6785714285714  L 11.4106382978723 17.0758928571429  C 11.4106382978723 17.0758928571429  12.268085106383 17.0089285714286  12.268085106383 17.0089285714286  C 12.5978723404255 16.4732142857143  12.8617021276596 16.2053571428571  13.1914893617021 16.2053571428571  C 13.3893617021277 16.2053571428571  13.7191489361702 16.3392857142857  14.2468085106383 16.6071428571429  C 14.2468085106383 16.6071428571429  14.3787234042553 16.6741071428571  14.3787234042553 16.6741071428571  L 15.5 18.4821428571429  L 15.5659574468085 18.5491071428571  L 15.5659574468085 18.6830357142857  L 15.6978723404255 19.9553571428571  L 15.631914893617 21.3616071428571  L 15.3021276595745 22.5669642857143  L 15.3021276595745 22.7008928571429  L 14.3787234042553 23.7723214285714  L 13.9829787234042 24.6428571428571  L 14.0489361702128 26.1160714285714  L 14.1808510638298 26.1160714285714  L 14.6425531914894 25.9151785714286  L 15.1702127659574 25.4464285714286  L 15.3021276595745 25.3125  L 15.368085106383 25.1785714285714  L 16.0276595744681 25.78125  L 16.0276595744681 26.9196428571428  L 15.368085106383 27.1875  L 15.1702127659574 27.4553571428571  L 15.1702127659574 28.0580357142857  L 15.1042553191489 28.125  L 14.7085106382979 28.8616071428571  L 14.5106382978723 28.9285714285714  L 13.9829787234042 28.9955357142857  L 13.4553191489362 29.1294642857143  L 13.0595744680851 29.8660714285714  L 13.1255319148936 30  L 15.3021276595745 29.7321428571429  L 15.6978723404255 29.3973214285714  L 16.4234042553191 27.4553571428571  L 21.3042553191489 22.3660714285714  L 21.436170212766 22.3660714285714  L 22.4914893617021 21.8303571428571  L 22.5574468085106 21.7633928571429  L 23.4148936170213 21.8303571428571  L 24.2723404255319 21.6294642857143  L 25.1957446808511 21.2276785714286  L 25.8553191489362 20.4910714285714  L 26.9106382978724 17.5446428571429  L 31 13.125  C 31 13.125  30.736170212766 10.7142857142857  30.736170212766 10.7142857142857  C 30.5382978723404 10.6473214285714  30.2744680851064 10.5133928571429  30.1425531914894 10.3125  C 30.1425531914894 10.3125  30.0106382978723 10.1785714285714  30.0106382978723 10.1785714285714  C 30.0106382978723 10.1785714285714  29.3510638297872 10.3125  29.3510638297872 10.3125  C 29.0212765957447 10.1785714285714  28.8234042553191 10.0446428571429  28.5595744680851 9.70982142857143  C 28.5595744680851 9.70982142857143  28.3617021276596 9.30803571428572  28.3617021276596 9.30803571428572  L 28.295744680851 9.17410714285714  C 28.295744680851 9.17410714285714  28.295744680851 5.55803571428571  28.295744680851 5.55803571428571  C 27.9 5.42410714285715  27.5042553191489 5.15625  27.0425531914894 4.6875  C 27.0425531914894 4.6875  26.1851063829787 3.75000000000001  26.1851063829787 3.75000000000001  C 26.1851063829787 3.75000000000001  25.3936170212766 2.61160714285715  25.3936170212766 2.61160714285715  C 25.2617021276596 2.34375  25.2617021276596 1.94196428571429  25.3276595744681 1.33928571428571  C 25.3276595744681 1.33928571428571  25.3936170212766 1.00446428571429  25.3936170212766 1.00446428571429  L 24.931914893617 0.40178571428572  L 24.8659574468085 0.937500000000004  L 24.2723404255319 2.07589285714286  C 24.2723404255319 2.07589285714286  24.0744680851064 2.07589285714286  24.0744680851064 2.07589285714286  C 23.6127659574468 2.07589285714286  23.0851063829787 2.00892857142857  22.6893617021276 1.80803571428572  C 22.2936170212766 1.67410714285714  22.0957446808511 1.33928571428571  22.0957446808511 0.937500000000004  C 22.0957446808511 0.937500000000004  22.0957446808511 0.669642857142857  22.0957446808511 0.669642857142857  L 21.7659574468085 0.669642857142857  L 20.5127659574468 1.00446428571429  L 19.5893617021277 0.0669642857142914  L 19.2595744680851 0  L 18.9297872340425 0.334821428571428  L 19.3255319148936 1.00446428571429  L 19.4574468085106 1.20535714285714  L 18.7978723404255 2.61160714285715  L 18.731914893617 2.67857142857143  L 17.4787234042553 4.01785714285714  L 17.4127659574468 4.08482142857143  L 17.2808510638298 4.08482142857143  L 15.4340425531915 4.28571428571429  Z " fill-rule="evenodd" />
    </mask>
  </defs>
  <g transform="matrix(1 0 0 1 -2044 -1832 )">
    <path d="M 15.4340425531915 4.28571428571429  L 14.1808510638298 3.95089285714286  C 14.1808510638298 3.95089285714286  13.3893617021277 5.02232142857143  13.3893617021277 5.02232142857143  C 13.2574468085107 5.22321428571428  13.1914893617021 5.625  13.3234042553191 6.29464285714286  C 13.3234042553191 6.29464285714286  13.3234042553191 6.69642857142857  13.3234042553191 6.69642857142857  L 11.7404255319149 6.69642857142857  L 10.5531914893617 6.36160714285714  L 9.69574468085106 7.70089285714286  L 9.56382978723404 7.83482142857143  L 8.50851063829786 8.50446428571428  L 7.58510638297872 9.50892857142857  L 7.45319148936171 9.70982142857143  L 5.80425531914894 11.6517857142857  L 5.73829787234042 11.71875  L 4.48510638297873 12.3883928571429  L 3.49574468085107 11.71875  L 2.5723404255319 10.6473214285714  L 1.97872340425532 10.3125  L 2.44042553191489 13.0580357142857  L 2.83617021276596 14.53125  L 1.84680851063831 15.46875  L 0.461702127659567 17.5446428571429  L 0.461702127659567 18.4151785714286  L 0.395744680851079 18.4821428571429  L 0 19.0178571428571  L 0.263829787234028 19.4866071428571  L 0.79148936170212 19.4866071428571  L 2.70425531914895 20.0223214285714  L 2.83617021276596 20.0223214285714  L 2.90212765957445 20.0892857142857  L 3.29787234042553 20.4910714285714  L 3.82553191489363 20.7589285714286  C 3.82553191489363 20.7589285714286  3.95744680851064 20.7589285714286  3.95744680851064 20.7589285714286  C 4.15531914893618 21.09375  4.28723404255319 21.3616071428571  4.28723404255319 21.6294642857143  C 4.28723404255319 21.6294642857143  4.48510638297873 22.2321428571429  4.48510638297873 22.2321428571429  L 6.52978723404254 22.8348214285714  L 7.12340425531916 22.7008928571429  L 7.71702127659574 21.8973214285714  L 9.30000000000001 18.8169642857143  L 9.3659574468085 18.75  L 10.0914893617021 17.7455357142857  L 10.1574468085106 17.6785714285714  L 11.4106382978723 17.0758928571429  C 11.4106382978723 17.0758928571429  12.268085106383 17.0089285714286  12.268085106383 17.0089285714286  C 12.5978723404255 16.4732142857143  12.8617021276596 16.2053571428571  13.1914893617021 16.2053571428571  C 13.3893617021277 16.2053571428571  13.7191489361702 16.3392857142857  14.2468085106383 16.6071428571429  C 14.2468085106383 16.6071428571429  14.3787234042553 16.6741071428571  14.3787234042553 16.6741071428571  L 15.5 18.4821428571429  L 15.5659574468085 18.5491071428571  L 15.5659574468085 18.6830357142857  L 15.6978723404255 19.9553571428571  L 15.631914893617 21.3616071428571  L 15.3021276595745 22.5669642857143  L 15.3021276595745 22.7008928571429  L 14.3787234042553 23.7723214285714  L 13.9829787234042 24.6428571428571  L 14.0489361702128 26.1160714285714  L 14.1808510638298 26.1160714285714  L 14.6425531914894 25.9151785714286  L 15.1702127659574 25.4464285714286  L 15.3021276595745 25.3125  L 15.368085106383 25.1785714285714  L 16.0276595744681 25.78125  L 16.0276595744681 26.9196428571428  L 15.368085106383 27.1875  L 15.1702127659574 27.4553571428571  L 15.1702127659574 28.0580357142857  L 15.1042553191489 28.125  L 14.7085106382979 28.8616071428571  L 14.5106382978723 28.9285714285714  L 13.9829787234042 28.9955357142857  L 13.4553191489362 29.1294642857143  L 13.0595744680851 29.8660714285714  L 13.1255319148936 30  L 15.3021276595745 29.7321428571429  L 15.6978723404255 29.3973214285714  L 16.4234042553191 27.4553571428571  L 21.3042553191489 22.3660714285714  L 21.436170212766 22.3660714285714  L 22.4914893617021 21.8303571428571  L 22.5574468085106 21.7633928571429  L 23.4148936170213 21.8303571428571  L 24.2723404255319 21.6294642857143  L 25.1957446808511 21.2276785714286  L 25.8553191489362 20.4910714285714  L 26.9106382978724 17.5446428571429  L 31 13.125  C 31 13.125  30.736170212766 10.7142857142857  30.736170212766 10.7142857142857  C 30.5382978723404 10.6473214285714  30.2744680851064 10.5133928571429  30.1425531914894 10.3125  C 30.1425531914894 10.3125  30.0106382978723 10.1785714285714  30.0106382978723 10.1785714285714  C 30.0106382978723 10.1785714285714  29.3510638297872 10.3125  29.3510638297872 10.3125  C 29.0212765957447 10.1785714285714  28.8234042553191 10.0446428571429  28.5595744680851 9.70982142857143  C 28.5595744680851 9.70982142857143  28.3617021276596 9.30803571428572  28.3617021276596 9.30803571428572  L 28.295744680851 9.17410714285714  C 28.295744680851 9.17410714285714  28.295744680851 5.55803571428571  28.295744680851 5.55803571428571  C 27.9 5.42410714285715  27.5042553191489 5.15625  27.0425531914894 4.6875  C 27.0425531914894 4.6875  26.1851063829787 3.75000000000001  26.1851063829787 3.75000000000001  C 26.1851063829787 3.75000000000001  25.3936170212766 2.61160714285715  25.3936170212766 2.61160714285715  C 25.2617021276596 2.34375  25.2617021276596 1.94196428571429  25.3276595744681 1.33928571428571  C 25.3276595744681 1.33928571428571  25.3936170212766 1.00446428571429  25.3936170212766 1.00446428571429  L 24.931914893617 0.40178571428572  L 24.8659574468085 0.937500000000004  L 24.2723404255319 2.07589285714286  C 24.2723404255319 2.07589285714286  24.0744680851064 2.07589285714286  24.0744680851064 2.07589285714286  C 23.6127659574468 2.07589285714286  23.0851063829787 2.00892857142857  22.6893617021276 1.80803571428572  C 22.2936170212766 1.67410714285714  22.0957446808511 1.33928571428571  22.0957446808511 0.937500000000004  C 22.0957446808511 0.937500000000004  22.0957446808511 0.669642857142857  22.0957446808511 0.669642857142857  L 21.7659574468085 0.669642857142857  L 20.5127659574468 1.00446428571429  L 19.5893617021277 0.0669642857142914  L 19.2595744680851 0  L 18.9297872340425 0.334821428571428  L 19.3255319148936 1.00446428571429  L 19.4574468085106 1.20535714285714  L 18.7978723404255 2.61160714285715  L 18.731914893617 2.67857142857143  L 17.4787234042553 4.01785714285714  L 17.4127659574468 4.08482142857143  L 17.2808510638298 4.08482142857143  L 15.4340425531915 4.28571428571429  Z " fill-rule="nonzero" fill="#4a9eff" stroke="none" transform="matrix(1 0 0 1 2044 1832 )" />
    <path d="M 15.4340425531915 4.28571428571429  L 14.1808510638298 3.95089285714286  C 14.1808510638298 3.95089285714286  13.3893617021277 5.02232142857143  13.3893617021277 5.02232142857143  C 13.2574468085107 5.22321428571428  13.1914893617021 5.625  13.3234042553191 6.29464285714286  C 13.3234042553191 6.29464285714286  13.3234042553191 6.69642857142857  13.3234042553191 6.69642857142857  L 11.7404255319149 6.69642857142857  L 10.5531914893617 6.36160714285714  L 9.69574468085106 7.70089285714286  L 9.56382978723404 7.83482142857143  L 8.50851063829786 8.50446428571428  L 7.58510638297872 9.50892857142857  L 7.45319148936171 9.70982142857143  L 5.80425531914894 11.6517857142857  L 5.73829787234042 11.71875  L 4.48510638297873 12.3883928571429  L 3.49574468085107 11.71875  L 2.5723404255319 10.6473214285714  L 1.97872340425532 10.3125  L 2.44042553191489 13.0580357142857  L 2.83617021276596 14.53125  L 1.84680851063831 15.46875  L 0.461702127659567 17.5446428571429  L 0.461702127659567 18.4151785714286  L 0.395744680851079 18.4821428571429  L 0 19.0178571428571  L 0.263829787234028 19.4866071428571  L 0.79148936170212 19.4866071428571  L 2.70425531914895 20.0223214285714  L 2.83617021276596 20.0223214285714  L 2.90212765957445 20.0892857142857  L 3.29787234042553 20.4910714285714  L 3.82553191489363 20.7589285714286  C 3.82553191489363 20.7589285714286  3.95744680851064 20.7589285714286  3.95744680851064 20.7589285714286  C 4.15531914893618 21.09375  4.28723404255319 21.3616071428571  4.28723404255319 21.6294642857143  C 4.28723404255319 21.6294642857143  4.48510638297873 22.2321428571429  4.48510638297873 22.2321428571429  L 6.52978723404254 22.8348214285714  L 7.12340425531916 22.7008928571429  L 7.71702127659574 21.8973214285714  L 9.30000000000001 18.8169642857143  L 9.3659574468085 18.75  L 10.0914893617021 17.7455357142857  L 10.1574468085106 17.6785714285714  L 11.4106382978723 17.0758928571429  C 11.4106382978723 17.0758928571429  12.268085106383 17.0089285714286  12.268085106383 17.0089285714286  C 12.5978723404255 16.4732142857143  12.8617021276596 16.2053571428571  13.1914893617021 16.2053571428571  C 13.3893617021277 16.2053571428571  13.7191489361702 16.3392857142857  14.2468085106383 16.6071428571429  C 14.2468085106383 16.6071428571429  14.3787234042553 16.6741071428571  14.3787234042553 16.6741071428571  L 15.5 18.4821428571429  L 15.5659574468085 18.5491071428571  L 15.5659574468085 18.6830357142857  L 15.6978723404255 19.9553571428571  L 15.631914893617 21.3616071428571  L 15.3021276595745 22.5669642857143  L 15.3021276595745 22.7008928571429  L 14.3787234042553 23.7723214285714  L 13.9829787234042 24.6428571428571  L 14.0489361702128 26.1160714285714  L 14.1808510638298 26.1160714285714  L 14.6425531914894 25.9151785714286  L 15.1702127659574 25.4464285714286  L 15.3021276595745 25.3125  L 15.368085106383 25.1785714285714  L 16.0276595744681 25.78125  L 16.0276595744681 26.9196428571428  L 15.368085106383 27.1875  L 15.1702127659574 27.4553571428571  L 15.1702127659574 28.0580357142857  L 15.1042553191489 28.125  L 14.7085106382979 28.8616071428571  L 14.5106382978723 28.9285714285714  L 13.9829787234042 28.9955357142857  L 13.4553191489362 29.1294642857143  L 13.0595744680851 29.8660714285714  L 13.1255319148936 30  L 15.3021276595745 29.7321428571429  L 15.6978723404255 29.3973214285714  L 16.4234042553191 27.4553571428571  L 21.3042553191489 22.3660714285714  L 21.436170212766 22.3660714285714  L 22.4914893617021 21.8303571428571  L 22.5574468085106 21.7633928571429  L 23.4148936170213 21.8303571428571  L 24.2723404255319 21.6294642857143  L 25.1957446808511 21.2276785714286  L 25.8553191489362 20.4910714285714  L 26.9106382978724 17.5446428571429  L 31 13.125  C 31 13.125  30.736170212766 10.7142857142857  30.736170212766 10.7142857142857  C 30.5382978723404 10.6473214285714  30.2744680851064 10.5133928571429  30.1425531914894 10.3125  C 30.1425531914894 10.3125  30.0106382978723 10.1785714285714  30.0106382978723 10.1785714285714  C 30.0106382978723 10.1785714285714  29.3510638297872 10.3125  29.3510638297872 10.3125  C 29.0212765957447 10.1785714285714  28.8234042553191 10.0446428571429  28.5595744680851 9.70982142857143  C 28.5595744680851 9.70982142857143  28.3617021276596 9.30803571428572  28.3617021276596 9.30803571428572  L 28.295744680851 9.17410714285714  C 28.295744680851 9.17410714285714  28.295744680851 5.55803571428571  28.295744680851 5.55803571428571  C 27.9 5.42410714285715  27.5042553191489 5.15625  27.0425531914894 4.6875  C 27.0425531914894 4.6875  26.1851063829787 3.75000000000001  26.1851063829787 3.75000000000001  C 26.1851063829787 3.75000000000001  25.3936170212766 2.61160714285715  25.3936170212766 2.61160714285715  C 25.2617021276596 2.34375  25.2617021276596 1.94196428571429  25.3276595744681 1.33928571428571  C 25.3276595744681 1.33928571428571  25.3936170212766 1.00446428571429  25.3936170212766 1.00446428571429  L 24.931914893617 0.40178571428572  L 24.8659574468085 0.937500000000004  L 24.2723404255319 2.07589285714286  C 24.2723404255319 2.07589285714286  24.0744680851064 2.07589285714286  24.0744680851064 2.07589285714286  C 23.6127659574468 2.07589285714286  23.0851063829787 2.00892857142857  22.6893617021276 1.80803571428572  C 22.2936170212766 1.67410714285714  22.0957446808511 1.33928571428571  22.0957446808511 0.937500000000004  C 22.0957446808511 0.937500000000004  22.0957446808511 0.669642857142857  22.0957446808511 0.669642857142857  L 21.7659574468085 0.669642857142857  L 20.5127659574468 1.00446428571429  L 19.5893617021277 0.0669642857142914  L 19.2595744680851 0  L 18.9297872340425 0.334821428571428  L 19.3255319148936 1.00446428571429  L 19.4574468085106 1.20535714285714  L 18.7978723404255 2.61160714285715  L 18.731914893617 2.67857142857143  L 17.4787234042553 4.01785714285714  L 17.4127659574468 4.08482142857143  L 17.2808510638298 4.08482142857143  L 15.4340425531915 4.28571428571429  Z " stroke-width="2" stroke="#ffffff" fill="none" transform="matrix(1 0 0 1 2044 1832 )" mask="url(#clip491)" />
  </g>
</svg>