<?xml version="1.0" encoding="utf-8"?>
<svg version="1.1" xmlns:xlink="http://www.w3.org/1999/xlink" width="13px" height="11px" xmlns="http://www.w3.org/2000/svg">
  <defs>
    <linearGradient gradientUnits="userSpaceOnUse" x1="14.404859620511" y1="0" x2="0" y2="11" id="LinearGradient744">
      <stop id="Stop745" stop-color="#fdd811" offset="0" />
      <stop id="Stop746" stop-color="#fab007" offset="1" />
    </linearGradient>
  </defs>
  <g transform="matrix(1 0 0 1 -470 -2309 )">
    <path d="M 8.7244625 1.70166981761878  C 8.7244625 1.70166981761878  7.25894 0.300558756374367  7.25894 0.300558756374367  C 6.83977125 -0.100186252124789  6.1602125 -0.100186252124789  5.74107625 0.300558756374367  C 5.74107625 0.300558756374367  4.27558625 1.70166981761878  4.27558625 1.70166981761878  C 3.99776 1.96723898055012  3.5904375 2.06648415454438  3.2135675 1.96045087600209  C 3.2135675 1.96045087600209  1.37639125 1.44335158454556  1.37639125 1.44335158454556  C 0.68891875 1.2498443223957  0 1.74256814752066  0 2.42773473658227  C 0 2.42773473658227  0 9.97390086001358  0 9.97390086001358  C 0 10.5406150247121  0.4805125 11  1.07329625 11  C 1.07329625 11  11.92676875 11  11.92676875 11  C 12.5194875 11  13 10.5406150247121  13 9.97390086001358  C 13 9.97390086001358  13 2.42771930907194  13 2.42771930907194  C 13 1.74255272001032  12.31114625 1.24982889488536  11.62360875 1.44333615703522  C 11.62360875 1.44333615703522  9.78648125 1.96043544849175  9.78648125 1.96043544849175  C 9.4096275 2.06648415454438  9.00224 1.96723898055012  8.7244625 1.70166981761878  Z " fill-rule="nonzero" fill="url(#LinearGradient744)" stroke="none" transform="matrix(1 0 0 1 470 2309 )" />
  </g>
</svg>