<?xml version="1.0" encoding="utf-8"?>
<svg version="1.1" xmlns:xlink="http://www.w3.org/1999/xlink" width="26px" height="35px" xmlns="http://www.w3.org/2000/svg">
  <defs>
    <mask fill="white" id="clip1076">
      <path d="M 22.5968586387435 1.55705996131527  L 20.4188481675393 1.35396518375242  L 20.3507853403141 1.2862669245648  L 18.8534031413613 0  C 18.8534031413613 0  18.0366492146597 0.406189555125721  18.0366492146597 0.406189555125721  C 17.4921465968586 1.6247582205029  16.7434554973822 2.36943907156673  15.7905759162304 2.70793036750483  C 15.5183246073299 2.84332688588007  15.1780104712042 2.77562862669245  14.9738219895288 2.57253384912958  C 14.7015706806283 2.23404255319148  14.8376963350785 1.48936170212765  15.3141361256545 0.338491295938104  C 15.3141361256545 0.338491295938104  13.0680628272251 1.76015473887814  13.0680628272251 1.76015473887814  L 13 1.89555125725337  L 12.9319371727749 1.89555125725337  L 10.9581151832461 1.89555125725337  L 9.18848167539267 2.77562862669245  L 9.18848167539267 2.91102514506769  L 7.282722513089 2.97872340425532  L 6.26178010471204 3.52030947775628  L 5.78534031413613 4.46808510638297  L 5.64921465968587 4.6034816247582  C 5.64921465968587 4.6034816247582  3.40314136125655 4.6034816247582  3.40314136125655 4.6034816247582  C 2.99476439790575 4.6034816247582  2.10994764397907 5.28046421663441  0.680628272251309 6.70212765957447  C 1.36125654450262 6.97292069632494  1.70157068062827 7.24371373307542  1.83769633507853 7.44680851063829  C 1.83769633507853 7.44680851063829  1.90575916230367 7.85299806576402  1.90575916230367 7.85299806576402  L 1.90575916230367 7.7852998065764  L 2.92670157068064 11.5764023210832  L 2.99476439790575 11.779497098646  L 2.99476439790575 12.0502901353965  L 2.92670157068064 12.0502901353965  L 2.79057591623038 12.1179883945841  L 2.72251308900524 12.1179883945841  L 0 15.8413926499033  C 0 15.8413926499033  0.136125654450254 16.78916827853  0.136125654450254 16.78916827853  C 0.544502617801055 16.4506769825919  0.88481675392671 16.3829787234042  1.15706806282722 16.5183752417795  C 1.49738219895287 16.6537717601547  1.63350785340313 17.1953578336557  1.49738219895287 18.0077369439071  C 1.36125654450262 19.2940038684719  1.56544502617802 20.715667311412  2.17801047120418 22.0696324951644  C 2.17801047120418 22.0696324951644  3.13089005235604 23.0851063829787  3.13089005235604 23.0851063829787  C 3.47120418848169 23.4235976789168  3.60732984293195 23.7620889748549  3.5392670157068 24.100580270793  C 3.5392670157068 24.100580270793  3.06282722513089 24.7775628626692  3.06282722513089 24.7775628626692  C 3.06282722513089 24.7775628626692  3.67539267015705 25.5899419729207  3.67539267015705 25.5899419729207  C 4.01570680628271 26.2669245647969  3.7434554973822 27.4177949709864  2.92670157068064 29.0425531914894  C 2.92670157068064 29.0425531914894  3.81151832460735 30.531914893617  3.81151832460735 30.531914893617  L 3.9476439790576 30.8704061895551  C 3.9476439790576 30.8704061895551  4.49214659685866 30.531914893617  4.49214659685866 30.531914893617  C 5.37696335078533 29.7195357833656  6.12565445026178 29.5164410058027  6.73821989528794 29.7195357833656  C 7.14659685863875 29.8549323017408  7.35078534031415 30.1934235976789  7.41884816753926 30.531914893617  C 7.4869109947644 31.0058027079303  6.94240837696335 31.8181818181818  5.71727748691098 33.036750483559  C 5.71727748691098 33.036750483559  4.76439790575916 34.2553191489361  4.76439790575916 34.2553191489361  C 4.76439790575916 34.2553191489361  5.24083769633507 35  5.24083769633507 35  C 5.92146596858638 34.3907156673114  6.46596858638744 34.1876208897485  6.80628272251309 34.3230174081238  C 7.21465968586389 34.3230174081238  8.37172774869111 33.916827852998  10.3455497382199 32.9013539651837  C 10.9581151832461 32.5628626692456  11.7748691099477 32.9013539651837  12.7958115183246 33.916827852998  C 12.7958115183246 33.916827852998  13.2041884816754 33.7137330754352  13.2041884816754 33.7137330754352  L 13.1361256544503 32.9013539651837  C 13.1361256544503 32.9013539651837  12.9319371727749 32.7659574468085  12.9319371727749 32.7659574468085  C 12.7958115183246 32.5628626692456  12.9319371727749 32.3597678916828  13.1361256544503 32.1566731141199  C 13.1361256544503 32.1566731141199  12.7958115183246 30.8704061895551  12.7958115183246 30.8704061895551  C 12.7277486910995 30.6673114119922  12.7277486910995 30.3965183752418  12.7958115183246 30.1934235976789  C 13 29.990328820116  13.2722513089005 29.8549323017408  13.544502617801 29.7195357833656  C 13.544502617801 29.7195357833656  14.1570680628272 29.1779497098646  14.1570680628272 29.1779497098646  L 13.8167539267016 28.3655705996131  L 13.8167539267016 28.2978723404255  L 13.8848167539267 28.2978723404255  C 13.8848167539267 28.2978723404255  13.8848167539267 28.2301740812379  13.8848167539267 28.2301740812379  C 14.1570680628272 27.8239845261122  14.1570680628272 27.4854932301741  14.0890052356021 27.2823984526112  C 13.8167539267016 26.8085106382979  14.020942408377 26.4700193423597  14.565445026178 25.9961315280464  C 14.565445026178 25.9961315280464  15.3141361256545 25.3191489361702  15.3141361256545 25.3191489361702  L 15.1780104712042 25.183752417795  L 14.9738219895288 24.9806576402321  L 15.8586387434555 24.5744680851064  C 15.8586387434555 24.5744680851064  15.8586387434555 23.4912959381045  15.8586387434555 23.4912959381045  C 15.8586387434555 23.0851063829787  16.1989528795812 22.5435203094777  17.151832460733 21.8665377176015  C 17.151832460733 21.8665377176015  17.5602094240838 21.5280464216634  17.5602094240838 21.5280464216634  C 17.5602094240838 21.5280464216634  16.5392670157068 20.3771760154739  16.5392670157068 20.3771760154739  C 16.1989528795812 19.9032882011605  16.3350785340314 19.2940038684719  16.9476439790576 18.6847195357834  C 16.9476439790576 18.6847195357834  16.9476439790576 18.5493230174081  16.9476439790576 18.5493230174081  L 19.0575916230367 16.78916827853  C 19.0575916230367 16.78916827853  19.1256544502618 16.3152804642166  19.1256544502618 16.3152804642166  C 18.717277486911 16.1798839458414  18.5811518324607 15.4352030947775  18.7853403141361 14.284332688588  C 19.0575916230367 12.4564796905222  19.8743455497382 11.5764023210832  21.303664921466 11.3733075435203  C 21.303664921466 11.3733075435203  21.4397905759162 11.3733075435203  21.4397905759162 11.3733075435203  L 22.3246073298429 11.8471953578337  L 23.2774869109948 11.8471953578337  L 24.1623036649215 10.7640232108317  L 24.2303664921466 10.6963249516441  L 25.3193717277487 10.0193423597679  L 25.1832460732984 9.0715667311412  L 25.1832460732984 8.86847195357833  L 25.3193717277487 8.73307543520309  L 25.5916230366492 8.59767891682784  L 25.9319371727749 8.19148936170212  L 26 8.1237911025145  C 26 8.1237911025145  25.3193717277487 6.97292069632494  25.3193717277487 6.97292069632494  C 24.6387434554974 6.09284332688588  24.0261780104712 5.28046421663441  23.6178010471204 4.33268858800774  C 23.2774869109948 3.72340425531915  23.3455497382199 3.04642166344294  23.8219895287958 2.30174081237911  C 23.8219895287958 2.30174081237911  22.5968586387435 1.55705996131527  22.5968586387435 1.55705996131527  Z " fill-rule="evenodd" />
    </mask>
  </defs>
  <g transform="matrix(1 0 0 1 -2026 -1922 )">
    <path d="M 22.5968586387435 1.55705996131527  L 20.4188481675393 1.35396518375242  L 20.3507853403141 1.2862669245648  L 18.8534031413613 0  C 18.8534031413613 0  18.0366492146597 0.406189555125721  18.0366492146597 0.406189555125721  C 17.4921465968586 1.6247582205029  16.7434554973822 2.36943907156673  15.7905759162304 2.70793036750483  C 15.5183246073299 2.84332688588007  15.1780104712042 2.77562862669245  14.9738219895288 2.57253384912958  C 14.7015706806283 2.23404255319148  14.8376963350785 1.48936170212765  15.3141361256545 0.338491295938104  C 15.3141361256545 0.338491295938104  13.0680628272251 1.76015473887814  13.0680628272251 1.76015473887814  L 13 1.89555125725337  L 12.9319371727749 1.89555125725337  L 10.9581151832461 1.89555125725337  L 9.18848167539267 2.77562862669245  L 9.18848167539267 2.91102514506769  L 7.282722513089 2.97872340425532  L 6.26178010471204 3.52030947775628  L 5.78534031413613 4.46808510638297  L 5.64921465968587 4.6034816247582  C 5.64921465968587 4.6034816247582  3.40314136125655 4.6034816247582  3.40314136125655 4.6034816247582  C 2.99476439790575 4.6034816247582  2.10994764397907 5.28046421663441  0.680628272251309 6.70212765957447  C 1.36125654450262 6.97292069632494  1.70157068062827 7.24371373307542  1.83769633507853 7.44680851063829  C 1.83769633507853 7.44680851063829  1.90575916230367 7.85299806576402  1.90575916230367 7.85299806576402  L 1.90575916230367 7.7852998065764  L 2.92670157068064 11.5764023210832  L 2.99476439790575 11.779497098646  L 2.99476439790575 12.0502901353965  L 2.92670157068064 12.0502901353965  L 2.79057591623038 12.1179883945841  L 2.72251308900524 12.1179883945841  L 0 15.8413926499033  C 0 15.8413926499033  0.136125654450254 16.78916827853  0.136125654450254 16.78916827853  C 0.544502617801055 16.4506769825919  0.88481675392671 16.3829787234042  1.15706806282722 16.5183752417795  C 1.49738219895287 16.6537717601547  1.63350785340313 17.1953578336557  1.49738219895287 18.0077369439071  C 1.36125654450262 19.2940038684719  1.56544502617802 20.715667311412  2.17801047120418 22.0696324951644  C 2.17801047120418 22.0696324951644  3.13089005235604 23.0851063829787  3.13089005235604 23.0851063829787  C 3.47120418848169 23.4235976789168  3.60732984293195 23.7620889748549  3.5392670157068 24.100580270793  C 3.5392670157068 24.100580270793  3.06282722513089 24.7775628626692  3.06282722513089 24.7775628626692  C 3.06282722513089 24.7775628626692  3.67539267015705 25.5899419729207  3.67539267015705 25.5899419729207  C 4.01570680628271 26.2669245647969  3.7434554973822 27.4177949709864  2.92670157068064 29.0425531914894  C 2.92670157068064 29.0425531914894  3.81151832460735 30.531914893617  3.81151832460735 30.531914893617  L 3.9476439790576 30.8704061895551  C 3.9476439790576 30.8704061895551  4.49214659685866 30.531914893617  4.49214659685866 30.531914893617  C 5.37696335078533 29.7195357833656  6.12565445026178 29.5164410058027  6.73821989528794 29.7195357833656  C 7.14659685863875 29.8549323017408  7.35078534031415 30.1934235976789  7.41884816753926 30.531914893617  C 7.4869109947644 31.0058027079303  6.94240837696335 31.8181818181818  5.71727748691098 33.036750483559  C 5.71727748691098 33.036750483559  4.76439790575916 34.2553191489361  4.76439790575916 34.2553191489361  C 4.76439790575916 34.2553191489361  5.24083769633507 35  5.24083769633507 35  C 5.92146596858638 34.3907156673114  6.46596858638744 34.1876208897485  6.80628272251309 34.3230174081238  C 7.21465968586389 34.3230174081238  8.37172774869111 33.916827852998  10.3455497382199 32.9013539651837  C 10.9581151832461 32.5628626692456  11.7748691099477 32.9013539651837  12.7958115183246 33.916827852998  C 12.7958115183246 33.916827852998  13.2041884816754 33.7137330754352  13.2041884816754 33.7137330754352  L 13.1361256544503 32.9013539651837  C 13.1361256544503 32.9013539651837  12.9319371727749 32.7659574468085  12.9319371727749 32.7659574468085  C 12.7958115183246 32.5628626692456  12.9319371727749 32.3597678916828  13.1361256544503 32.1566731141199  C 13.1361256544503 32.1566731141199  12.7958115183246 30.8704061895551  12.7958115183246 30.8704061895551  C 12.7277486910995 30.6673114119922  12.7277486910995 30.3965183752418  12.7958115183246 30.1934235976789  C 13 29.990328820116  13.2722513089005 29.8549323017408  13.544502617801 29.7195357833656  C 13.544502617801 29.7195357833656  14.1570680628272 29.1779497098646  14.1570680628272 29.1779497098646  L 13.8167539267016 28.3655705996131  L 13.8167539267016 28.2978723404255  L 13.8848167539267 28.2978723404255  C 13.8848167539267 28.2978723404255  13.8848167539267 28.2301740812379  13.8848167539267 28.2301740812379  C 14.1570680628272 27.8239845261122  14.1570680628272 27.4854932301741  14.0890052356021 27.2823984526112  C 13.8167539267016 26.8085106382979  14.020942408377 26.4700193423597  14.565445026178 25.9961315280464  C 14.565445026178 25.9961315280464  15.3141361256545 25.3191489361702  15.3141361256545 25.3191489361702  L 15.1780104712042 25.183752417795  L 14.9738219895288 24.9806576402321  L 15.8586387434555 24.5744680851064  C 15.8586387434555 24.5744680851064  15.8586387434555 23.4912959381045  15.8586387434555 23.4912959381045  C 15.8586387434555 23.0851063829787  16.1989528795812 22.5435203094777  17.151832460733 21.8665377176015  C 17.151832460733 21.8665377176015  17.5602094240838 21.5280464216634  17.5602094240838 21.5280464216634  C 17.5602094240838 21.5280464216634  16.5392670157068 20.3771760154739  16.5392670157068 20.3771760154739  C 16.1989528795812 19.9032882011605  16.3350785340314 19.2940038684719  16.9476439790576 18.6847195357834  C 16.9476439790576 18.6847195357834  16.9476439790576 18.5493230174081  16.9476439790576 18.5493230174081  L 19.0575916230367 16.78916827853  C 19.0575916230367 16.78916827853  19.1256544502618 16.3152804642166  19.1256544502618 16.3152804642166  C 18.717277486911 16.1798839458414  18.5811518324607 15.4352030947775  18.7853403141361 14.284332688588  C 19.0575916230367 12.4564796905222  19.8743455497382 11.5764023210832  21.303664921466 11.3733075435203  C 21.303664921466 11.3733075435203  21.4397905759162 11.3733075435203  21.4397905759162 11.3733075435203  L 22.3246073298429 11.8471953578337  L 23.2774869109948 11.8471953578337  L 24.1623036649215 10.7640232108317  L 24.2303664921466 10.6963249516441  L 25.3193717277487 10.0193423597679  L 25.1832460732984 9.0715667311412  L 25.1832460732984 8.86847195357833  L 25.3193717277487 8.73307543520309  L 25.5916230366492 8.59767891682784  L 25.9319371727749 8.19148936170212  L 26 8.1237911025145  C 26 8.1237911025145  25.3193717277487 6.97292069632494  25.3193717277487 6.97292069632494  C 24.6387434554974 6.09284332688588  24.0261780104712 5.28046421663441  23.6178010471204 4.33268858800774  C 23.2774869109948 3.72340425531915  23.3455497382199 3.04642166344294  23.8219895287958 2.30174081237911  C 23.8219895287958 2.30174081237911  22.5968586387435 1.55705996131527  22.5968586387435 1.55705996131527  Z " fill-rule="nonzero" fill="#4a9eff" stroke="none" transform="matrix(1 0 0 1 2026 1922 )" />
    <path d="M 22.5968586387435 1.55705996131527  L 20.4188481675393 1.35396518375242  L 20.3507853403141 1.2862669245648  L 18.8534031413613 0  C 18.8534031413613 0  18.0366492146597 0.406189555125721  18.0366492146597 0.406189555125721  C 17.4921465968586 1.6247582205029  16.7434554973822 2.36943907156673  15.7905759162304 2.70793036750483  C 15.5183246073299 2.84332688588007  15.1780104712042 2.77562862669245  14.9738219895288 2.57253384912958  C 14.7015706806283 2.23404255319148  14.8376963350785 1.48936170212765  15.3141361256545 0.338491295938104  C 15.3141361256545 0.338491295938104  13.0680628272251 1.76015473887814  13.0680628272251 1.76015473887814  L 13 1.89555125725337  L 12.9319371727749 1.89555125725337  L 10.9581151832461 1.89555125725337  L 9.18848167539267 2.77562862669245  L 9.18848167539267 2.91102514506769  L 7.282722513089 2.97872340425532  L 6.26178010471204 3.52030947775628  L 5.78534031413613 4.46808510638297  L 5.64921465968587 4.6034816247582  C 5.64921465968587 4.6034816247582  3.40314136125655 4.6034816247582  3.40314136125655 4.6034816247582  C 2.99476439790575 4.6034816247582  2.10994764397907 5.28046421663441  0.680628272251309 6.70212765957447  C 1.36125654450262 6.97292069632494  1.70157068062827 7.24371373307542  1.83769633507853 7.44680851063829  C 1.83769633507853 7.44680851063829  1.90575916230367 7.85299806576402  1.90575916230367 7.85299806576402  L 1.90575916230367 7.7852998065764  L 2.92670157068064 11.5764023210832  L 2.99476439790575 11.779497098646  L 2.99476439790575 12.0502901353965  L 2.92670157068064 12.0502901353965  L 2.79057591623038 12.1179883945841  L 2.72251308900524 12.1179883945841  L 0 15.8413926499033  C 0 15.8413926499033  0.136125654450254 16.78916827853  0.136125654450254 16.78916827853  C 0.544502617801055 16.4506769825919  0.88481675392671 16.3829787234042  1.15706806282722 16.5183752417795  C 1.49738219895287 16.6537717601547  1.63350785340313 17.1953578336557  1.49738219895287 18.0077369439071  C 1.36125654450262 19.2940038684719  1.56544502617802 20.715667311412  2.17801047120418 22.0696324951644  C 2.17801047120418 22.0696324951644  3.13089005235604 23.0851063829787  3.13089005235604 23.0851063829787  C 3.47120418848169 23.4235976789168  3.60732984293195 23.7620889748549  3.5392670157068 24.100580270793  C 3.5392670157068 24.100580270793  3.06282722513089 24.7775628626692  3.06282722513089 24.7775628626692  C 3.06282722513089 24.7775628626692  3.67539267015705 25.5899419729207  3.67539267015705 25.5899419729207  C 4.01570680628271 26.2669245647969  3.7434554973822 27.4177949709864  2.92670157068064 29.0425531914894  C 2.92670157068064 29.0425531914894  3.81151832460735 30.531914893617  3.81151832460735 30.531914893617  L 3.9476439790576 30.8704061895551  C 3.9476439790576 30.8704061895551  4.49214659685866 30.531914893617  4.49214659685866 30.531914893617  C 5.37696335078533 29.7195357833656  6.12565445026178 29.5164410058027  6.73821989528794 29.7195357833656  C 7.14659685863875 29.8549323017408  7.35078534031415 30.1934235976789  7.41884816753926 30.531914893617  C 7.4869109947644 31.0058027079303  6.94240837696335 31.8181818181818  5.71727748691098 33.036750483559  C 5.71727748691098 33.036750483559  4.76439790575916 34.2553191489361  4.76439790575916 34.2553191489361  C 4.76439790575916 34.2553191489361  5.24083769633507 35  5.24083769633507 35  C 5.92146596858638 34.3907156673114  6.46596858638744 34.1876208897485  6.80628272251309 34.3230174081238  C 7.21465968586389 34.3230174081238  8.37172774869111 33.916827852998  10.3455497382199 32.9013539651837  C 10.9581151832461 32.5628626692456  11.7748691099477 32.9013539651837  12.7958115183246 33.916827852998  C 12.7958115183246 33.916827852998  13.2041884816754 33.7137330754352  13.2041884816754 33.7137330754352  L 13.1361256544503 32.9013539651837  C 13.1361256544503 32.9013539651837  12.9319371727749 32.7659574468085  12.9319371727749 32.7659574468085  C 12.7958115183246 32.5628626692456  12.9319371727749 32.3597678916828  13.1361256544503 32.1566731141199  C 13.1361256544503 32.1566731141199  12.7958115183246 30.8704061895551  12.7958115183246 30.8704061895551  C 12.7277486910995 30.6673114119922  12.7277486910995 30.3965183752418  12.7958115183246 30.1934235976789  C 13 29.990328820116  13.2722513089005 29.8549323017408  13.544502617801 29.7195357833656  C 13.544502617801 29.7195357833656  14.1570680628272 29.1779497098646  14.1570680628272 29.1779497098646  L 13.8167539267016 28.3655705996131  L 13.8167539267016 28.2978723404255  L 13.8848167539267 28.2978723404255  C 13.8848167539267 28.2978723404255  13.8848167539267 28.2301740812379  13.8848167539267 28.2301740812379  C 14.1570680628272 27.8239845261122  14.1570680628272 27.4854932301741  14.0890052356021 27.2823984526112  C 13.8167539267016 26.8085106382979  14.020942408377 26.4700193423597  14.565445026178 25.9961315280464  C 14.565445026178 25.9961315280464  15.3141361256545 25.3191489361702  15.3141361256545 25.3191489361702  L 15.1780104712042 25.183752417795  L 14.9738219895288 24.9806576402321  L 15.8586387434555 24.5744680851064  C 15.8586387434555 24.5744680851064  15.8586387434555 23.4912959381045  15.8586387434555 23.4912959381045  C 15.8586387434555 23.0851063829787  16.1989528795812 22.5435203094777  17.151832460733 21.8665377176015  C 17.151832460733 21.8665377176015  17.5602094240838 21.5280464216634  17.5602094240838 21.5280464216634  C 17.5602094240838 21.5280464216634  16.5392670157068 20.3771760154739  16.5392670157068 20.3771760154739  C 16.1989528795812 19.9032882011605  16.3350785340314 19.2940038684719  16.9476439790576 18.6847195357834  C 16.9476439790576 18.6847195357834  16.9476439790576 18.5493230174081  16.9476439790576 18.5493230174081  L 19.0575916230367 16.78916827853  C 19.0575916230367 16.78916827853  19.1256544502618 16.3152804642166  19.1256544502618 16.3152804642166  C 18.717277486911 16.1798839458414  18.5811518324607 15.4352030947775  18.7853403141361 14.284332688588  C 19.0575916230367 12.4564796905222  19.8743455497382 11.5764023210832  21.303664921466 11.3733075435203  C 21.303664921466 11.3733075435203  21.4397905759162 11.3733075435203  21.4397905759162 11.3733075435203  L 22.3246073298429 11.8471953578337  L 23.2774869109948 11.8471953578337  L 24.1623036649215 10.7640232108317  L 24.2303664921466 10.6963249516441  L 25.3193717277487 10.0193423597679  L 25.1832460732984 9.0715667311412  L 25.1832460732984 8.86847195357833  L 25.3193717277487 8.73307543520309  L 25.5916230366492 8.59767891682784  L 25.9319371727749 8.19148936170212  L 26 8.1237911025145  C 26 8.1237911025145  25.3193717277487 6.97292069632494  25.3193717277487 6.97292069632494  C 24.6387434554974 6.09284332688588  24.0261780104712 5.28046421663441  23.6178010471204 4.33268858800774  C 23.2774869109948 3.72340425531915  23.3455497382199 3.04642166344294  23.8219895287958 2.30174081237911  C 23.8219895287958 2.30174081237911  22.5968586387435 1.55705996131527  22.5968586387435 1.55705996131527  Z " stroke-width="2" stroke="#ffffff" fill="none" transform="matrix(1 0 0 1 2026 1922 )" mask="url(#clip1076)" />
  </g>
</svg>