<?xml version="1.0" encoding="utf-8"?>
<svg version="1.1" xmlns:xlink="http://www.w3.org/1999/xlink" width="60px" height="53px" xmlns="http://www.w3.org/2000/svg">
  <defs>
    <mask fill="white" id="clip544">
      <path d="M 5.6655290102389 1.30715560603603  L 5.59726962457337 1.30715560603603  L 4.0273037542662 0.825571961706953  L 2.38907849829352 0.619178971280225  L 1.84300341296928 1.23835794256045  L 1.70648464163823 2.4079182216453  L 1.77474402730375 2.47671588512088  L 2.25255972696245 4.26545513548596  L 2.32081911262797 5.64140840499755  L 2.32081911262797 6.05419438585106  L 1.50170648464163 6.05419438585106  L 1.84300341296928 7.70533830926496  L 0.546075085324221 8.18692195359403  L 0 9.21888690572773  L 0.68259385665529 9.76926821353236  L 0.819112627986341 9.83806587700795  L 3.20819112627986 11.7644004543242  L 3.27645051194538 11.8331981177998  L 3.34470989761091 11.8331981177998  L 3.34470989761091 11.9019957812754  L 3.34470989761091 11.9707934447509  L 3.68600682593855 13.6907350316404  C 3.68600682593855 13.6907350316404  4.77815699658703 15.2730812915788  4.77815699658703 15.2730812915788  C 5.05119453924913 15.6858672724323  5.39249146757678 16.0986532532857  6.00682593856654 16.6490345610904  C 6.00682593856654 16.6490345610904  6.07508532423207 16.6490345610904  6.07508532423207 16.6490345610904  L 6.14334470989761 16.717832224566  L 6.14334470989761 16.7866298880415  L 6.07508532423207 16.9242252149927  C 6.07508532423207 16.9242252149927  6.07508532423207 18.4377738114555  6.07508532423207 18.4377738114555  C 6.27986348122866 18.8505597923089  6.34812286689419 19.7449294174915  6.34812286689419 21.0520850235275  C 6.96245733788395 21.94645464871  7.23549488054608 22.5656336199903  7.23549488054608 22.9784196008438  C 7.23549488054608 23.2536102547461  7.44027303754265 23.8039915625507  7.7815699658703 24.5607658607821  C 7.7815699658703 24.5607658607821  7.7815699658703 24.6295635242577  7.7815699658703 24.6295635242577  C 7.91808873720136 25.5927308129158  7.84982935153584 26.4183027746227  7.64505119453924 27.1062794093785  C 7.44027303754265 27.5878630537076  7.71331058020477 28.4822326788901  8.46416382252558 29.7205906214506  C 8.46416382252558 29.7205906214506  8.53242320819113 29.7893882849262  8.53242320819113 29.7893882849262  L 8.60068259385665 29.9269836118773  L 8.53242320819113 30.0645789388285  C 8.53242320819113 30.0645789388285  7.44027303754265 32.4724971604738  7.44027303754265 32.4724971604738  C 7.64505119453924 33.0228784682784  7.71331058020477 33.4356644491319  7.71331058020477 33.7108551030342  C 7.71331058020477 33.7108551030342  7.44027303754265 35.9811779977284  7.44027303754265 35.9811779977284  C 7.3037542662116 36.7379522959598  7.3037542662116 37.1507382768132  7.64505119453924 37.2883336037644  C 7.64505119453924 37.2883336037644  8.05460750853241 37.5635242576667  8.05460750853241 37.5635242576667  C 8.66894197952218 37.838714911569  8.87372013651877 38.1827032289469  8.87372013651877 38.5266915463248  C 8.87372013651877 38.5266915463248  8.80546075085323 39.6962518254097  8.80546075085323 39.6962518254097  L 9.14675767918087 39.8338471523609  L 9.21501706484642 39.9026448158364  C 9.21501706484642 39.9026448158364  9.419795221843 39.6962518254097  9.419795221843 39.6962518254097  C 9.62457337883959 39.489858834983  9.82935153583616 39.2146681810806  9.89761092150171 38.8706798637027  C 9.89761092150171 38.8706798637027  10.0341296928328 38.664286873276  10.0341296928328 38.664286873276  C 10.0341296928328 38.664286873276  10.1023890784983 38.5266915463248  10.1023890784983 38.5266915463248  C 10.3754266211604 38.3890962193737  10.5119453924915 38.1827032289469  10.7167235494881 37.9075125750446  C 10.7849829351536 37.4947265941911  10.7849829351536 37.0819406133377  10.6484641638225 36.6003569690086  C 10.6484641638225 36.6003569690086  10.5119453924915 36.2563686516307  10.5119453924915 36.2563686516307  C 10.5119453924915 36.2563686516307  10.8532423208191 36.1875709881551  10.8532423208191 36.1875709881551  C 11.9453924914676 35.9123803342528  12.5597269624573 35.9811779977284  12.7645051194539 36.4627616420574  C 12.7645051194539 36.4627616420574  13.3105802047782 37.838714911569  13.3105802047782 37.838714911569  L 13.3105802047782 37.9075125750446  L 13.3105802047782 37.9763102385202  L 13.5836177474403 40.2466331332143  L 14.4709897610921 40.7282167775434  L 14.5392491467577 40.7282167775434  L 14.6075085324232 40.7282167775434  L 15.1535836177474 41.2098004218725  L 15.6996587030717 40.5906214505922  L 16.3139931740614 40.1090378062632  C 16.3139931740614 40.1090378062632  16.518771331058 40.1090378062632  16.518771331058 40.1090378062632  C 16.9965870307167 40.2466331332143  17.2696245733788 40.5906214505922  17.4061433447099 41.0722050949213  C 17.4061433447099 41.0722050949213  17.679180887372 42.8609443452864  17.679180887372 42.8609443452864  L 17.7474402730376 43.1361349991887  L 19.5904436860068 47.1263994807723  L 20.3412969283276 47.8831737790037  L 20.4095563139932 47.9519714424793  L 20.4095563139932 48.0207691059549  L 20.7508532423208 49.6719130293688  L 20.8873720136519 51.2542592893072  C 20.8873720136519 51.2542592893072  20.9556313993174 51.3918546162583  20.9556313993174 51.3918546162583  C 21.4334470989761 50.7038779815025  21.8430034129693 50.3598896641246  22.1160409556314 50.4974849910758  C 22.3890784982935 50.5662826545514  22.457337883959 50.7038779815025  22.457337883959 50.9790686354049  C 22.457337883959 50.9790686354049  22.457337883959 51.3918546162583  22.457337883959 51.3918546162583  L 22.457337883959 52.6302125588187  C 22.457337883959 52.6302125588187  22.457337883959 52.9742008761966  22.457337883959 52.9742008761966  C 22.7986348122867 53.0429985396722  23.0716723549488 52.9742008761966  23.1399317406143 52.7678078857699  C 23.1399317406143 52.7678078857699  23.8225255972696 51.8046405971118  23.8225255972696 51.8046405971118  C 23.8225255972696 51.8046405971118  24.5733788395905 51.0478662988804  24.5733788395905 51.0478662988804  C 25.0511945392491 50.7038779815025  25.5290102389078 50.4286873276002  26.0750853242321 50.4286873276002  C 26.0750853242321 50.4286873276002  26.1433447098976 50.4286873276002  26.1433447098976 50.4286873276002  L 27.5767918088737 50.7726756449781  L 27.9863481228669 50.5662826545514  L 28.7372013651877 49.6031153658932  C 28.7372013651877 49.6031153658932  28.6006825938566 48.0895667694305  28.6006825938566 48.0895667694305  C 28.122866894198 47.2639948077235  27.9180887372014 46.5760181729677  28.0546075085324 46.0944345286386  C 28.0546075085324 46.0944345286386  28.259385665529 44.8560765860782  28.259385665529 44.8560765860782  L 28.259385665529 44.718481259127  L 28.3276450511945 44.5808859321759  L 29.6245733788396 43.8241116339445  L 29.6928327645051 43.8241116339445  L 30.6484641638225 43.2049326626643  L 31.740614334471 41.6225864027259  L 31.877133105802 40.4530261236411  L 30.6484641638225 37.5635242576667  L 33.3788395904437 38.8018822002272  L 33.3788395904437 37.6323219211423  L 33.3788395904437 37.5635242576667  L 34.4027303754266 36.6691546324842  L 36.382252559727 36.1187733246795  L 36.518771331058 36.1187733246795  L 37.679180887372 38.664286873276  L 37.679180887372 38.8018822002272  L 37.542662116041 39.7650494888853  C 37.542662116041 39.7650494888853  37.679180887372 40.6594191140678  37.679180887372 40.6594191140678  C 37.8156996587031 41.0722050949213  38.0887372013652 41.278598085348  38.2935153583618 41.278598085348  C 38.5665529010239 41.278598085348  38.839590443686 41.0722050949213  39.1126279863481 40.7282167775434  C 39.1126279863481 40.7282167775434  39.1808873720136 40.5906214505922  39.1808873720136 40.5906214505922  L 39.2491467576792 40.5906214505922  L 40.8873720136519 40.0402401427876  C 40.8873720136519 40.0402401427876  40.9556313993174 40.0402401427876  40.9556313993174 40.0402401427876  C 41.8430034129693 40.0402401427876  42.2525597269625 40.2466331332143  42.457337883959 40.6594191140678  C 42.457337883959 40.6594191140678  42.5938566552901 42.5169560279085  42.5938566552901 42.5169560279085  L 42.5938566552901 42.5857536913841  L 42.9351535836177 42.6545513548596  L 43.617747440273 42.8609443452864  L 44.641638225256 42.7921466818108  L 46.3481228668942 42.3105630374817  L 47.3720136518771 41.4161934122992  L 47.4402730375427 40.6594191140678  L 46.962457337884 40.1090378062632  L 45.1877133105802 39.489858834983  L 45.0511945392492 39.4210611715074  L 45.0511945392492 39.3522635080318  L 43.0034129692833 37.2883336037644  L 43.2081911262799 37.1507382768132  L 44.2320819112628 36.2563686516307  L 44.3003412969283 36.1875709881551  L 45.3242320819113 35.7747850073016  L 45.5290102389079 35.7747850073016  L 46.8941979522184 36.049975661204  L 46.962457337884 36.049975661204  L 47.0307167235495 36.1187733246795  L 47.0307167235495 35.5683920168749  L 46.4163822525597 34.5364270647412  L 45.4607508532423 34.0548434204121  L 44.1638225255973 32.1285088430959  L 44.0955631399317 32.0597111796203  L 44.0955631399317 31.9909135161447  L 43.481228668942 29.7205906214506  L 43.481228668942 28.0006490345611  L 44.5733788395904 26.9686840824274  L 46.2116040955631 26.9686840824274  L 50.0341296928328 27.3126723998053  L 51.8088737201365 24.7671588512088  L 51.8088737201365 24.6295635242577  L 51.9453924914676 24.6295635242577  L 53.3788395904437 23.8727892260263  L 54.1296928327645 22.3592406295635  L 54.19795221843 22.2904429660879  L 55.9044368600683 20.8456920331008  L 56.7235494880546 19.332143436638  L 56.7235494880546 19.2633457731624  L 56.7918088737201 19.2633457731624  L 56.7918088737201 19.1945481096868  L 57.4744027303754 18.506571474931  L 58.2935153583618 17.1306182054194  L 58.5665529010239 14.9978906376765  L 58.5665529010239 14.7914976472497  L 58.6348122866894 14.7226999837741  L 59.7269624573379 13.9659256855428  L 60 13.6907350316404  L 58.3617747440273 13.4155443777381  L 55.6313993174062 13.5531397046893  L 55.5631399317406 13.4843420412137  L 54.5392491467577 12.6587700795067  L 54.4027303754266 12.6587700795067  L 54.4027303754266 12.5899724160312  L 53.8566552901024 11.7644004543242  L 53.7201365187713 11.8331981177998  C 53.7201365187713 11.8331981177998  53.6518771331058 11.9707934447509  53.6518771331058 11.9707934447509  C 53.5153583617747 12.1771864351777  53.1740614334471 12.2459840986533  52.7645051194539 12.2459840986533  C 52.7645051194539 12.2459840986533  52.3549488054608 12.45237708908  52.3549488054608 12.45237708908  C 52.2184300341297 12.5211747525556  52.1501706484642 12.5899724160312  51.9453924914676 12.5211747525556  C 51.8088737201365 12.5211747525556  51.740614334471 12.3147817621288  51.6040955631399 11.9707934447509  C 51.5358361774744 11.626805127373  51.3993174061433 11.2828168099951  50.9897610921502 10.9388284926172  C 50.9897610921502 10.9388284926172  50.9215017064846 10.8700308291417  50.9215017064846 10.8700308291417  L 50.9215017064846 10.8012331656661  L 50.8532423208191 10.8012331656661  L 50.5119453924915 9.90686354048353  L 50.2389078498294 9.90686354048353  L 49.2150170648464 10.5948401752393  L 49.1467576791809 10.6636378387149  L 49.0784982935154 10.6636378387149  L 46.6894197952218 11.145221483044  L 46.5529010238908 11.145221483044  L 46.4163822525597 11.0764238195684  L 44.8464163822526 9.97566120395911  L 44.778156996587 9.90686354048353  L 44.778156996587 9.83806587700795  L 44.7098976109215 9.83806587700795  L 44.3003412969283 9.01249391530099  C 44.3003412969283 9.01249391530099  43.1399317406143 10.2508518578614  43.1399317406143 10.2508518578614  C 42.320819112628 11.2140191465196  41.7064846416382 11.4892098004219  41.2969283276451 11.2140191465196  C 41.2969283276451 11.2140191465196  39.7269624573379 10.3884471848126  39.7269624573379 10.3884471848126  L 38.6348122866894 10.2508518578614  L 38.4982935153584 10.319649521337  L 37.4744027303754 9.56287522310564  L 37.4061433447099 9.49407755963006  L 37.2013651877133 9.42527989615446  L 37.679180887372 7.56774298231381  L 37.679180887372 6.94856401103358  L 37.0648464163823 6.67337335713126  L 36.9965870307167 6.67337335713126  L 35.5631399317406 5.09102709719293  L 35.6313993174061 3.92146681810806  L 32.0819112627986 3.57747850073016  C 32.0819112627986 3.57747850073016  30.7167235494881 2.82070420249878  30.7167235494881 2.82070420249878  C 30.3754266211604 2.61431121207205  30.1023890784983 2.20152523121855  29.8976109215017 1.51354859646275  C 29.8976109215017 1.51354859646275  29.6928327645051 1.0319649521337  29.6928327645051 1.0319649521337  L 29.419795221843 0  L 28.9419795221843 0.0687976634755761  L 27.8498293515358 0.963167288658125  L 26.5529010238908 2.54551354859646  L 26.8259385665529 3.71507382768133  L 27.2354948805461 5.22862242414408  L 27.2354948805461 5.29742008761966  L 27.3037542662116 5.29742008761966  L 27.2354948805461 5.36621775109525  C 27.2354948805461 5.36621775109525  27.2354948805461 5.43501541457083  27.2354948805461 5.43501541457083  C 27.098976109215 5.84780139542431  26.6894197952218 6.05419438585106  26.0750853242321 6.05419438585106  C 26.0750853242321 6.05419438585106  24.7098976109215 6.05419438585106  24.7098976109215 6.05419438585106  L 23.8907849829352 5.64140840499755  L 22.8668941979522 6.05419438585106  L 22.6621160409556 6.12299204932663  L 22.5255972696246 6.05419438585106  L 22.3890784982935 7.01736167450916  L 22.320819112628 7.15495700146033  L 22.320819112628 7.36134999188706  L 22.1160409556314 7.36134999188706  C 22.1160409556314 7.36134999188706  20.4095563139932 6.81096868408243  20.4095563139932 6.81096868408243  C 20.4095563139932 7.36134999188706  20.4778156996587 7.77413597274056  20.7508532423208 8.25571961706961  C 20.9556313993174 8.73730326139866  21.0238907849829 9.08129157877656  20.8191126279864 9.49407755963006  C 20.8191126279864 9.49407755963006  20.6143344709898 10.0444588674347  20.6143344709898 10.0444588674347  C 20.4095563139932 10.2508518578614  19.7952218430034 10.319649521337  18.9078498293515 10.2508518578614  C 18.9078498293515 10.2508518578614  17.7474402730376 10.2508518578614  17.7474402730376 10.2508518578614  L 17.679180887372 12.1771864351777  L 16.1774744027304 11.626805127373  L 16.1092150170648 11.626805127373  L 16.0409556313993 11.5580074638975  L 15.2901023890785 10.1132565309103  L 13.6518771331058 9.56287522310564  L 13.2423208191126 8.66850559792309  L 12.6279863481229 9.15008924225216  L 12.5597269624573 9.15008924225216  L 11.5358361774744 9.35648223267888  L 11.2627986348123 9.35648223267888  L 10.7167235494881 8.11812429011845  L 10.1706484641638 7.36134999188706  C 10.1706484641638 7.36134999188706  10.1023890784983 7.29255232841149  10.1023890784983 7.29255232841149  C 9.55631399317407 6.60457569365568  9.28327645051194 5.98539672237546  9.14675767918087 5.64140840499755  C 9.14675767918087 5.57261074152198  9.01023890784982 5.43501541457083  8.66894197952218 5.36621775109525  C 8.66894197952218 5.36621775109525  8.39590443686006 5.29742008761966  8.39590443686006 5.29742008761966  C 7.91808873720136 5.09102709719293  7.57679180887372 4.67824111633945  7.37201365187713 4.05906214505923  C 7.37201365187713 4.05906214505923  7.098976109215 2.88950186597436  7.098976109215 2.88950186597436  L 7.098976109215 1.92633457731625  L 6.62116040955631 1.0319649521337  L 5.80204778156997 1.30715560603603  L 5.73378839590442 1.30715560603603  L 5.6655290102389 1.30715560603603  Z " fill-rule="evenodd" />
    </mask>
  </defs>
  <g transform="matrix(1 0 0 1 -1938 -1897 )">
    <path d="M 5.6655290102389 1.30715560603603  L 5.59726962457337 1.30715560603603  L 4.0273037542662 0.825571961706953  L 2.38907849829352 0.619178971280225  L 1.84300341296928 1.23835794256045  L 1.70648464163823 2.4079182216453  L 1.77474402730375 2.47671588512088  L 2.25255972696245 4.26545513548596  L 2.32081911262797 5.64140840499755  L 2.32081911262797 6.05419438585106  L 1.50170648464163 6.05419438585106  L 1.84300341296928 7.70533830926496  L 0.546075085324221 8.18692195359403  L 0 9.21888690572773  L 0.68259385665529 9.76926821353236  L 0.819112627986341 9.83806587700795  L 3.20819112627986 11.7644004543242  L 3.27645051194538 11.8331981177998  L 3.34470989761091 11.8331981177998  L 3.34470989761091 11.9019957812754  L 3.34470989761091 11.9707934447509  L 3.68600682593855 13.6907350316404  C 3.68600682593855 13.6907350316404  4.77815699658703 15.2730812915788  4.77815699658703 15.2730812915788  C 5.05119453924913 15.6858672724323  5.39249146757678 16.0986532532857  6.00682593856654 16.6490345610904  C 6.00682593856654 16.6490345610904  6.07508532423207 16.6490345610904  6.07508532423207 16.6490345610904  L 6.14334470989761 16.717832224566  L 6.14334470989761 16.7866298880415  L 6.07508532423207 16.9242252149927  C 6.07508532423207 16.9242252149927  6.07508532423207 18.4377738114555  6.07508532423207 18.4377738114555  C 6.27986348122866 18.8505597923089  6.34812286689419 19.7449294174915  6.34812286689419 21.0520850235275  C 6.96245733788395 21.94645464871  7.23549488054608 22.5656336199903  7.23549488054608 22.9784196008438  C 7.23549488054608 23.2536102547461  7.44027303754265 23.8039915625507  7.7815699658703 24.5607658607821  C 7.7815699658703 24.5607658607821  7.7815699658703 24.6295635242577  7.7815699658703 24.6295635242577  C 7.91808873720136 25.5927308129158  7.84982935153584 26.4183027746227  7.64505119453924 27.1062794093785  C 7.44027303754265 27.5878630537076  7.71331058020477 28.4822326788901  8.46416382252558 29.7205906214506  C 8.46416382252558 29.7205906214506  8.53242320819113 29.7893882849262  8.53242320819113 29.7893882849262  L 8.60068259385665 29.9269836118773  L 8.53242320819113 30.0645789388285  C 8.53242320819113 30.0645789388285  7.44027303754265 32.4724971604738  7.44027303754265 32.4724971604738  C 7.64505119453924 33.0228784682784  7.71331058020477 33.4356644491319  7.71331058020477 33.7108551030342  C 7.71331058020477 33.7108551030342  7.44027303754265 35.9811779977284  7.44027303754265 35.9811779977284  C 7.3037542662116 36.7379522959598  7.3037542662116 37.1507382768132  7.64505119453924 37.2883336037644  C 7.64505119453924 37.2883336037644  8.05460750853241 37.5635242576667  8.05460750853241 37.5635242576667  C 8.66894197952218 37.838714911569  8.87372013651877 38.1827032289469  8.87372013651877 38.5266915463248  C 8.87372013651877 38.5266915463248  8.80546075085323 39.6962518254097  8.80546075085323 39.6962518254097  L 9.14675767918087 39.8338471523609  L 9.21501706484642 39.9026448158364  C 9.21501706484642 39.9026448158364  9.419795221843 39.6962518254097  9.419795221843 39.6962518254097  C 9.62457337883959 39.489858834983  9.82935153583616 39.2146681810806  9.89761092150171 38.8706798637027  C 9.89761092150171 38.8706798637027  10.0341296928328 38.664286873276  10.0341296928328 38.664286873276  C 10.0341296928328 38.664286873276  10.1023890784983 38.5266915463248  10.1023890784983 38.5266915463248  C 10.3754266211604 38.3890962193737  10.5119453924915 38.1827032289469  10.7167235494881 37.9075125750446  C 10.7849829351536 37.4947265941911  10.7849829351536 37.0819406133377  10.6484641638225 36.6003569690086  C 10.6484641638225 36.6003569690086  10.5119453924915 36.2563686516307  10.5119453924915 36.2563686516307  C 10.5119453924915 36.2563686516307  10.8532423208191 36.1875709881551  10.8532423208191 36.1875709881551  C 11.9453924914676 35.9123803342528  12.5597269624573 35.9811779977284  12.7645051194539 36.4627616420574  C 12.7645051194539 36.4627616420574  13.3105802047782 37.838714911569  13.3105802047782 37.838714911569  L 13.3105802047782 37.9075125750446  L 13.3105802047782 37.9763102385202  L 13.5836177474403 40.2466331332143  L 14.4709897610921 40.7282167775434  L 14.5392491467577 40.7282167775434  L 14.6075085324232 40.7282167775434  L 15.1535836177474 41.2098004218725  L 15.6996587030717 40.5906214505922  L 16.3139931740614 40.1090378062632  C 16.3139931740614 40.1090378062632  16.518771331058 40.1090378062632  16.518771331058 40.1090378062632  C 16.9965870307167 40.2466331332143  17.2696245733788 40.5906214505922  17.4061433447099 41.0722050949213  C 17.4061433447099 41.0722050949213  17.679180887372 42.8609443452864  17.679180887372 42.8609443452864  L 17.7474402730376 43.1361349991887  L 19.5904436860068 47.1263994807723  L 20.3412969283276 47.8831737790037  L 20.4095563139932 47.9519714424793  L 20.4095563139932 48.0207691059549  L 20.7508532423208 49.6719130293688  L 20.8873720136519 51.2542592893072  C 20.8873720136519 51.2542592893072  20.9556313993174 51.3918546162583  20.9556313993174 51.3918546162583  C 21.4334470989761 50.7038779815025  21.8430034129693 50.3598896641246  22.1160409556314 50.4974849910758  C 22.3890784982935 50.5662826545514  22.457337883959 50.7038779815025  22.457337883959 50.9790686354049  C 22.457337883959 50.9790686354049  22.457337883959 51.3918546162583  22.457337883959 51.3918546162583  L 22.457337883959 52.6302125588187  C 22.457337883959 52.6302125588187  22.457337883959 52.9742008761966  22.457337883959 52.9742008761966  C 22.7986348122867 53.0429985396722  23.0716723549488 52.9742008761966  23.1399317406143 52.7678078857699  C 23.1399317406143 52.7678078857699  23.8225255972696 51.8046405971118  23.8225255972696 51.8046405971118  C 23.8225255972696 51.8046405971118  24.5733788395905 51.0478662988804  24.5733788395905 51.0478662988804  C 25.0511945392491 50.7038779815025  25.5290102389078 50.4286873276002  26.0750853242321 50.4286873276002  C 26.0750853242321 50.4286873276002  26.1433447098976 50.4286873276002  26.1433447098976 50.4286873276002  L 27.5767918088737 50.7726756449781  L 27.9863481228669 50.5662826545514  L 28.7372013651877 49.6031153658932  C 28.7372013651877 49.6031153658932  28.6006825938566 48.0895667694305  28.6006825938566 48.0895667694305  C 28.122866894198 47.2639948077235  27.9180887372014 46.5760181729677  28.0546075085324 46.0944345286386  C 28.0546075085324 46.0944345286386  28.259385665529 44.8560765860782  28.259385665529 44.8560765860782  L 28.259385665529 44.718481259127  L 28.3276450511945 44.5808859321759  L 29.6245733788396 43.8241116339445  L 29.6928327645051 43.8241116339445  L 30.6484641638225 43.2049326626643  L 31.740614334471 41.6225864027259  L 31.877133105802 40.4530261236411  L 30.6484641638225 37.5635242576667  L 33.3788395904437 38.8018822002272  L 33.3788395904437 37.6323219211423  L 33.3788395904437 37.5635242576667  L 34.4027303754266 36.6691546324842  L 36.382252559727 36.1187733246795  L 36.518771331058 36.1187733246795  L 37.679180887372 38.664286873276  L 37.679180887372 38.8018822002272  L 37.542662116041 39.7650494888853  C 37.542662116041 39.7650494888853  37.679180887372 40.6594191140678  37.679180887372 40.6594191140678  C 37.8156996587031 41.0722050949213  38.0887372013652 41.278598085348  38.2935153583618 41.278598085348  C 38.5665529010239 41.278598085348  38.839590443686 41.0722050949213  39.1126279863481 40.7282167775434  C 39.1126279863481 40.7282167775434  39.1808873720136 40.5906214505922  39.1808873720136 40.5906214505922  L 39.2491467576792 40.5906214505922  L 40.8873720136519 40.0402401427876  C 40.8873720136519 40.0402401427876  40.9556313993174 40.0402401427876  40.9556313993174 40.0402401427876  C 41.8430034129693 40.0402401427876  42.2525597269625 40.2466331332143  42.457337883959 40.6594191140678  C 42.457337883959 40.6594191140678  42.5938566552901 42.5169560279085  42.5938566552901 42.5169560279085  L 42.5938566552901 42.5857536913841  L 42.9351535836177 42.6545513548596  L 43.617747440273 42.8609443452864  L 44.641638225256 42.7921466818108  L 46.3481228668942 42.3105630374817  L 47.3720136518771 41.4161934122992  L 47.4402730375427 40.6594191140678  L 46.962457337884 40.1090378062632  L 45.1877133105802 39.489858834983  L 45.0511945392492 39.4210611715074  L 45.0511945392492 39.3522635080318  L 43.0034129692833 37.2883336037644  L 43.2081911262799 37.1507382768132  L 44.2320819112628 36.2563686516307  L 44.3003412969283 36.1875709881551  L 45.3242320819113 35.7747850073016  L 45.5290102389079 35.7747850073016  L 46.8941979522184 36.049975661204  L 46.962457337884 36.049975661204  L 47.0307167235495 36.1187733246795  L 47.0307167235495 35.5683920168749  L 46.4163822525597 34.5364270647412  L 45.4607508532423 34.0548434204121  L 44.1638225255973 32.1285088430959  L 44.0955631399317 32.0597111796203  L 44.0955631399317 31.9909135161447  L 43.481228668942 29.7205906214506  L 43.481228668942 28.0006490345611  L 44.5733788395904 26.9686840824274  L 46.2116040955631 26.9686840824274  L 50.0341296928328 27.3126723998053  L 51.8088737201365 24.7671588512088  L 51.8088737201365 24.6295635242577  L 51.9453924914676 24.6295635242577  L 53.3788395904437 23.8727892260263  L 54.1296928327645 22.3592406295635  L 54.19795221843 22.2904429660879  L 55.9044368600683 20.8456920331008  L 56.7235494880546 19.332143436638  L 56.7235494880546 19.2633457731624  L 56.7918088737201 19.2633457731624  L 56.7918088737201 19.1945481096868  L 57.4744027303754 18.506571474931  L 58.2935153583618 17.1306182054194  L 58.5665529010239 14.9978906376765  L 58.5665529010239 14.7914976472497  L 58.6348122866894 14.7226999837741  L 59.7269624573379 13.9659256855428  L 60 13.6907350316404  L 58.3617747440273 13.4155443777381  L 55.6313993174062 13.5531397046893  L 55.5631399317406 13.4843420412137  L 54.5392491467577 12.6587700795067  L 54.4027303754266 12.6587700795067  L 54.4027303754266 12.5899724160312  L 53.8566552901024 11.7644004543242  L 53.7201365187713 11.8331981177998  C 53.7201365187713 11.8331981177998  53.6518771331058 11.9707934447509  53.6518771331058 11.9707934447509  C 53.5153583617747 12.1771864351777  53.1740614334471 12.2459840986533  52.7645051194539 12.2459840986533  C 52.7645051194539 12.2459840986533  52.3549488054608 12.45237708908  52.3549488054608 12.45237708908  C 52.2184300341297 12.5211747525556  52.1501706484642 12.5899724160312  51.9453924914676 12.5211747525556  C 51.8088737201365 12.5211747525556  51.740614334471 12.3147817621288  51.6040955631399 11.9707934447509  C 51.5358361774744 11.626805127373  51.3993174061433 11.2828168099951  50.9897610921502 10.9388284926172  C 50.9897610921502 10.9388284926172  50.9215017064846 10.8700308291417  50.9215017064846 10.8700308291417  L 50.9215017064846 10.8012331656661  L 50.8532423208191 10.8012331656661  L 50.5119453924915 9.90686354048353  L 50.2389078498294 9.90686354048353  L 49.2150170648464 10.5948401752393  L 49.1467576791809 10.6636378387149  L 49.0784982935154 10.6636378387149  L 46.6894197952218 11.145221483044  L 46.5529010238908 11.145221483044  L 46.4163822525597 11.0764238195684  L 44.8464163822526 9.97566120395911  L 44.778156996587 9.90686354048353  L 44.778156996587 9.83806587700795  L 44.7098976109215 9.83806587700795  L 44.3003412969283 9.01249391530099  C 44.3003412969283 9.01249391530099  43.1399317406143 10.2508518578614  43.1399317406143 10.2508518578614  C 42.320819112628 11.2140191465196  41.7064846416382 11.4892098004219  41.2969283276451 11.2140191465196  C 41.2969283276451 11.2140191465196  39.7269624573379 10.3884471848126  39.7269624573379 10.3884471848126  L 38.6348122866894 10.2508518578614  L 38.4982935153584 10.319649521337  L 37.4744027303754 9.56287522310564  L 37.4061433447099 9.49407755963006  L 37.2013651877133 9.42527989615446  L 37.679180887372 7.56774298231381  L 37.679180887372 6.94856401103358  L 37.0648464163823 6.67337335713126  L 36.9965870307167 6.67337335713126  L 35.5631399317406 5.09102709719293  L 35.6313993174061 3.92146681810806  L 32.0819112627986 3.57747850073016  C 32.0819112627986 3.57747850073016  30.7167235494881 2.82070420249878  30.7167235494881 2.82070420249878  C 30.3754266211604 2.61431121207205  30.1023890784983 2.20152523121855  29.8976109215017 1.51354859646275  C 29.8976109215017 1.51354859646275  29.6928327645051 1.0319649521337  29.6928327645051 1.0319649521337  L 29.419795221843 0  L 28.9419795221843 0.0687976634755761  L 27.8498293515358 0.963167288658125  L 26.5529010238908 2.54551354859646  L 26.8259385665529 3.71507382768133  L 27.2354948805461 5.22862242414408  L 27.2354948805461 5.29742008761966  L 27.3037542662116 5.29742008761966  L 27.2354948805461 5.36621775109525  C 27.2354948805461 5.36621775109525  27.2354948805461 5.43501541457083  27.2354948805461 5.43501541457083  C 27.098976109215 5.84780139542431  26.6894197952218 6.05419438585106  26.0750853242321 6.05419438585106  C 26.0750853242321 6.05419438585106  24.7098976109215 6.05419438585106  24.7098976109215 6.05419438585106  L 23.8907849829352 5.64140840499755  L 22.8668941979522 6.05419438585106  L 22.6621160409556 6.12299204932663  L 22.5255972696246 6.05419438585106  L 22.3890784982935 7.01736167450916  L 22.320819112628 7.15495700146033  L 22.320819112628 7.36134999188706  L 22.1160409556314 7.36134999188706  C 22.1160409556314 7.36134999188706  20.4095563139932 6.81096868408243  20.4095563139932 6.81096868408243  C 20.4095563139932 7.36134999188706  20.4778156996587 7.77413597274056  20.7508532423208 8.25571961706961  C 20.9556313993174 8.73730326139866  21.0238907849829 9.08129157877656  20.8191126279864 9.49407755963006  C 20.8191126279864 9.49407755963006  20.6143344709898 10.0444588674347  20.6143344709898 10.0444588674347  C 20.4095563139932 10.2508518578614  19.7952218430034 10.319649521337  18.9078498293515 10.2508518578614  C 18.9078498293515 10.2508518578614  17.7474402730376 10.2508518578614  17.7474402730376 10.2508518578614  L 17.679180887372 12.1771864351777  L 16.1774744027304 11.626805127373  L 16.1092150170648 11.626805127373  L 16.0409556313993 11.5580074638975  L 15.2901023890785 10.1132565309103  L 13.6518771331058 9.56287522310564  L 13.2423208191126 8.66850559792309  L 12.6279863481229 9.15008924225216  L 12.5597269624573 9.15008924225216  L 11.5358361774744 9.35648223267888  L 11.2627986348123 9.35648223267888  L 10.7167235494881 8.11812429011845  L 10.1706484641638 7.36134999188706  C 10.1706484641638 7.36134999188706  10.1023890784983 7.29255232841149  10.1023890784983 7.29255232841149  C 9.55631399317407 6.60457569365568  9.28327645051194 5.98539672237546  9.14675767918087 5.64140840499755  C 9.14675767918087 5.57261074152198  9.01023890784982 5.43501541457083  8.66894197952218 5.36621775109525  C 8.66894197952218 5.36621775109525  8.39590443686006 5.29742008761966  8.39590443686006 5.29742008761966  C 7.91808873720136 5.09102709719293  7.57679180887372 4.67824111633945  7.37201365187713 4.05906214505923  C 7.37201365187713 4.05906214505923  7.098976109215 2.88950186597436  7.098976109215 2.88950186597436  L 7.098976109215 1.92633457731625  L 6.62116040955631 1.0319649521337  L 5.80204778156997 1.30715560603603  L 5.73378839590442 1.30715560603603  L 5.6655290102389 1.30715560603603  Z " fill-rule="nonzero" fill="#4a9eff" stroke="none" transform="matrix(1 0 0 1 1938 1897 )" />
    <path d="M 5.6655290102389 1.30715560603603  L 5.59726962457337 1.30715560603603  L 4.0273037542662 0.825571961706953  L 2.38907849829352 0.619178971280225  L 1.84300341296928 1.23835794256045  L 1.70648464163823 2.4079182216453  L 1.77474402730375 2.47671588512088  L 2.25255972696245 4.26545513548596  L 2.32081911262797 5.64140840499755  L 2.32081911262797 6.05419438585106  L 1.50170648464163 6.05419438585106  L 1.84300341296928 7.70533830926496  L 0.546075085324221 8.18692195359403  L 0 9.21888690572773  L 0.68259385665529 9.76926821353236  L 0.819112627986341 9.83806587700795  L 3.20819112627986 11.7644004543242  L 3.27645051194538 11.8331981177998  L 3.34470989761091 11.8331981177998  L 3.34470989761091 11.9019957812754  L 3.34470989761091 11.9707934447509  L 3.68600682593855 13.6907350316404  C 3.68600682593855 13.6907350316404  4.77815699658703 15.2730812915788  4.77815699658703 15.2730812915788  C 5.05119453924913 15.6858672724323  5.39249146757678 16.0986532532857  6.00682593856654 16.6490345610904  C 6.00682593856654 16.6490345610904  6.07508532423207 16.6490345610904  6.07508532423207 16.6490345610904  L 6.14334470989761 16.717832224566  L 6.14334470989761 16.7866298880415  L 6.07508532423207 16.9242252149927  C 6.07508532423207 16.9242252149927  6.07508532423207 18.4377738114555  6.07508532423207 18.4377738114555  C 6.27986348122866 18.8505597923089  6.34812286689419 19.7449294174915  6.34812286689419 21.0520850235275  C 6.96245733788395 21.94645464871  7.23549488054608 22.5656336199903  7.23549488054608 22.9784196008438  C 7.23549488054608 23.2536102547461  7.44027303754265 23.8039915625507  7.7815699658703 24.5607658607821  C 7.7815699658703 24.5607658607821  7.7815699658703 24.6295635242577  7.7815699658703 24.6295635242577  C 7.91808873720136 25.5927308129158  7.84982935153584 26.4183027746227  7.64505119453924 27.1062794093785  C 7.44027303754265 27.5878630537076  7.71331058020477 28.4822326788901  8.46416382252558 29.7205906214506  C 8.46416382252558 29.7205906214506  8.53242320819113 29.7893882849262  8.53242320819113 29.7893882849262  L 8.60068259385665 29.9269836118773  L 8.53242320819113 30.0645789388285  C 8.53242320819113 30.0645789388285  7.44027303754265 32.4724971604738  7.44027303754265 32.4724971604738  C 7.64505119453924 33.0228784682784  7.71331058020477 33.4356644491319  7.71331058020477 33.7108551030342  C 7.71331058020477 33.7108551030342  7.44027303754265 35.9811779977284  7.44027303754265 35.9811779977284  C 7.3037542662116 36.7379522959598  7.3037542662116 37.1507382768132  7.64505119453924 37.2883336037644  C 7.64505119453924 37.2883336037644  8.05460750853241 37.5635242576667  8.05460750853241 37.5635242576667  C 8.66894197952218 37.838714911569  8.87372013651877 38.1827032289469  8.87372013651877 38.5266915463248  C 8.87372013651877 38.5266915463248  8.80546075085323 39.6962518254097  8.80546075085323 39.6962518254097  L 9.14675767918087 39.8338471523609  L 9.21501706484642 39.9026448158364  C 9.21501706484642 39.9026448158364  9.419795221843 39.6962518254097  9.419795221843 39.6962518254097  C 9.62457337883959 39.489858834983  9.82935153583616 39.2146681810806  9.89761092150171 38.8706798637027  C 9.89761092150171 38.8706798637027  10.0341296928328 38.664286873276  10.0341296928328 38.664286873276  C 10.0341296928328 38.664286873276  10.1023890784983 38.5266915463248  10.1023890784983 38.5266915463248  C 10.3754266211604 38.3890962193737  10.5119453924915 38.1827032289469  10.7167235494881 37.9075125750446  C 10.7849829351536 37.4947265941911  10.7849829351536 37.0819406133377  10.6484641638225 36.6003569690086  C 10.6484641638225 36.6003569690086  10.5119453924915 36.2563686516307  10.5119453924915 36.2563686516307  C 10.5119453924915 36.2563686516307  10.8532423208191 36.1875709881551  10.8532423208191 36.1875709881551  C 11.9453924914676 35.9123803342528  12.5597269624573 35.9811779977284  12.7645051194539 36.4627616420574  C 12.7645051194539 36.4627616420574  13.3105802047782 37.838714911569  13.3105802047782 37.838714911569  L 13.3105802047782 37.9075125750446  L 13.3105802047782 37.9763102385202  L 13.5836177474403 40.2466331332143  L 14.4709897610921 40.7282167775434  L 14.5392491467577 40.7282167775434  L 14.6075085324232 40.7282167775434  L 15.1535836177474 41.2098004218725  L 15.6996587030717 40.5906214505922  L 16.3139931740614 40.1090378062632  C 16.3139931740614 40.1090378062632  16.518771331058 40.1090378062632  16.518771331058 40.1090378062632  C 16.9965870307167 40.2466331332143  17.2696245733788 40.5906214505922  17.4061433447099 41.0722050949213  C 17.4061433447099 41.0722050949213  17.679180887372 42.8609443452864  17.679180887372 42.8609443452864  L 17.7474402730376 43.1361349991887  L 19.5904436860068 47.1263994807723  L 20.3412969283276 47.8831737790037  L 20.4095563139932 47.9519714424793  L 20.4095563139932 48.0207691059549  L 20.7508532423208 49.6719130293688  L 20.8873720136519 51.2542592893072  C 20.8873720136519 51.2542592893072  20.9556313993174 51.3918546162583  20.9556313993174 51.3918546162583  C 21.4334470989761 50.7038779815025  21.8430034129693 50.3598896641246  22.1160409556314 50.4974849910758  C 22.3890784982935 50.5662826545514  22.457337883959 50.7038779815025  22.457337883959 50.9790686354049  C 22.457337883959 50.9790686354049  22.457337883959 51.3918546162583  22.457337883959 51.3918546162583  L 22.457337883959 52.6302125588187  C 22.457337883959 52.6302125588187  22.457337883959 52.9742008761966  22.457337883959 52.9742008761966  C 22.7986348122867 53.0429985396722  23.0716723549488 52.9742008761966  23.1399317406143 52.7678078857699  C 23.1399317406143 52.7678078857699  23.8225255972696 51.8046405971118  23.8225255972696 51.8046405971118  C 23.8225255972696 51.8046405971118  24.5733788395905 51.0478662988804  24.5733788395905 51.0478662988804  C 25.0511945392491 50.7038779815025  25.5290102389078 50.4286873276002  26.0750853242321 50.4286873276002  C 26.0750853242321 50.4286873276002  26.1433447098976 50.4286873276002  26.1433447098976 50.4286873276002  L 27.5767918088737 50.7726756449781  L 27.9863481228669 50.5662826545514  L 28.7372013651877 49.6031153658932  C 28.7372013651877 49.6031153658932  28.6006825938566 48.0895667694305  28.6006825938566 48.0895667694305  C 28.122866894198 47.2639948077235  27.9180887372014 46.5760181729677  28.0546075085324 46.0944345286386  C 28.0546075085324 46.0944345286386  28.259385665529 44.8560765860782  28.259385665529 44.8560765860782  L 28.259385665529 44.718481259127  L 28.3276450511945 44.5808859321759  L 29.6245733788396 43.8241116339445  L 29.6928327645051 43.8241116339445  L 30.6484641638225 43.2049326626643  L 31.740614334471 41.6225864027259  L 31.877133105802 40.4530261236411  L 30.6484641638225 37.5635242576667  L 33.3788395904437 38.8018822002272  L 33.3788395904437 37.6323219211423  L 33.3788395904437 37.5635242576667  L 34.4027303754266 36.6691546324842  L 36.382252559727 36.1187733246795  L 36.518771331058 36.1187733246795  L 37.679180887372 38.664286873276  L 37.679180887372 38.8018822002272  L 37.542662116041 39.7650494888853  C 37.542662116041 39.7650494888853  37.679180887372 40.6594191140678  37.679180887372 40.6594191140678  C 37.8156996587031 41.0722050949213  38.0887372013652 41.278598085348  38.2935153583618 41.278598085348  C 38.5665529010239 41.278598085348  38.839590443686 41.0722050949213  39.1126279863481 40.7282167775434  C 39.1126279863481 40.7282167775434  39.1808873720136 40.5906214505922  39.1808873720136 40.5906214505922  L 39.2491467576792 40.5906214505922  L 40.8873720136519 40.0402401427876  C 40.8873720136519 40.0402401427876  40.9556313993174 40.0402401427876  40.9556313993174 40.0402401427876  C 41.8430034129693 40.0402401427876  42.2525597269625 40.2466331332143  42.457337883959 40.6594191140678  C 42.457337883959 40.6594191140678  42.5938566552901 42.5169560279085  42.5938566552901 42.5169560279085  L 42.5938566552901 42.5857536913841  L 42.9351535836177 42.6545513548596  L 43.617747440273 42.8609443452864  L 44.641638225256 42.7921466818108  L 46.3481228668942 42.3105630374817  L 47.3720136518771 41.4161934122992  L 47.4402730375427 40.6594191140678  L 46.962457337884 40.1090378062632  L 45.1877133105802 39.489858834983  L 45.0511945392492 39.4210611715074  L 45.0511945392492 39.3522635080318  L 43.0034129692833 37.2883336037644  L 43.2081911262799 37.1507382768132  L 44.2320819112628 36.2563686516307  L 44.3003412969283 36.1875709881551  L 45.3242320819113 35.7747850073016  L 45.5290102389079 35.7747850073016  L 46.8941979522184 36.049975661204  L 46.962457337884 36.049975661204  L 47.0307167235495 36.1187733246795  L 47.0307167235495 35.5683920168749  L 46.4163822525597 34.5364270647412  L 45.4607508532423 34.0548434204121  L 44.1638225255973 32.1285088430959  L 44.0955631399317 32.0597111796203  L 44.0955631399317 31.9909135161447  L 43.481228668942 29.7205906214506  L 43.481228668942 28.0006490345611  L 44.5733788395904 26.9686840824274  L 46.2116040955631 26.9686840824274  L 50.0341296928328 27.3126723998053  L 51.8088737201365 24.7671588512088  L 51.8088737201365 24.6295635242577  L 51.9453924914676 24.6295635242577  L 53.3788395904437 23.8727892260263  L 54.1296928327645 22.3592406295635  L 54.19795221843 22.2904429660879  L 55.9044368600683 20.8456920331008  L 56.7235494880546 19.332143436638  L 56.7235494880546 19.2633457731624  L 56.7918088737201 19.2633457731624  L 56.7918088737201 19.1945481096868  L 57.4744027303754 18.506571474931  L 58.2935153583618 17.1306182054194  L 58.5665529010239 14.9978906376765  L 58.5665529010239 14.7914976472497  L 58.6348122866894 14.7226999837741  L 59.7269624573379 13.9659256855428  L 60 13.6907350316404  L 58.3617747440273 13.4155443777381  L 55.6313993174062 13.5531397046893  L 55.5631399317406 13.4843420412137  L 54.5392491467577 12.6587700795067  L 54.4027303754266 12.6587700795067  L 54.4027303754266 12.5899724160312  L 53.8566552901024 11.7644004543242  L 53.7201365187713 11.8331981177998  C 53.7201365187713 11.8331981177998  53.6518771331058 11.9707934447509  53.6518771331058 11.9707934447509  C 53.5153583617747 12.1771864351777  53.1740614334471 12.2459840986533  52.7645051194539 12.2459840986533  C 52.7645051194539 12.2459840986533  52.3549488054608 12.45237708908  52.3549488054608 12.45237708908  C 52.2184300341297 12.5211747525556  52.1501706484642 12.5899724160312  51.9453924914676 12.5211747525556  C 51.8088737201365 12.5211747525556  51.740614334471 12.3147817621288  51.6040955631399 11.9707934447509  C 51.5358361774744 11.626805127373  51.3993174061433 11.2828168099951  50.9897610921502 10.9388284926172  C 50.9897610921502 10.9388284926172  50.9215017064846 10.8700308291417  50.9215017064846 10.8700308291417  L 50.9215017064846 10.8012331656661  L 50.8532423208191 10.8012331656661  L 50.5119453924915 9.90686354048353  L 50.2389078498294 9.90686354048353  L 49.2150170648464 10.5948401752393  L 49.1467576791809 10.6636378387149  L 49.0784982935154 10.6636378387149  L 46.6894197952218 11.145221483044  L 46.5529010238908 11.145221483044  L 46.4163822525597 11.0764238195684  L 44.8464163822526 9.97566120395911  L 44.778156996587 9.90686354048353  L 44.778156996587 9.83806587700795  L 44.7098976109215 9.83806587700795  L 44.3003412969283 9.01249391530099  C 44.3003412969283 9.01249391530099  43.1399317406143 10.2508518578614  43.1399317406143 10.2508518578614  C 42.320819112628 11.2140191465196  41.7064846416382 11.4892098004219  41.2969283276451 11.2140191465196  C 41.2969283276451 11.2140191465196  39.7269624573379 10.3884471848126  39.7269624573379 10.3884471848126  L 38.6348122866894 10.2508518578614  L 38.4982935153584 10.319649521337  L 37.4744027303754 9.56287522310564  L 37.4061433447099 9.49407755963006  L 37.2013651877133 9.42527989615446  L 37.679180887372 7.56774298231381  L 37.679180887372 6.94856401103358  L 37.0648464163823 6.67337335713126  L 36.9965870307167 6.67337335713126  L 35.5631399317406 5.09102709719293  L 35.6313993174061 3.92146681810806  L 32.0819112627986 3.57747850073016  C 32.0819112627986 3.57747850073016  30.7167235494881 2.82070420249878  30.7167235494881 2.82070420249878  C 30.3754266211604 2.61431121207205  30.1023890784983 2.20152523121855  29.8976109215017 1.51354859646275  C 29.8976109215017 1.51354859646275  29.6928327645051 1.0319649521337  29.6928327645051 1.0319649521337  L 29.419795221843 0  L 28.9419795221843 0.0687976634755761  L 27.8498293515358 0.963167288658125  L 26.5529010238908 2.54551354859646  L 26.8259385665529 3.71507382768133  L 27.2354948805461 5.22862242414408  L 27.2354948805461 5.29742008761966  L 27.3037542662116 5.29742008761966  L 27.2354948805461 5.36621775109525  C 27.2354948805461 5.36621775109525  27.2354948805461 5.43501541457083  27.2354948805461 5.43501541457083  C 27.098976109215 5.84780139542431  26.6894197952218 6.05419438585106  26.0750853242321 6.05419438585106  C 26.0750853242321 6.05419438585106  24.7098976109215 6.05419438585106  24.7098976109215 6.05419438585106  L 23.8907849829352 5.64140840499755  L 22.8668941979522 6.05419438585106  L 22.6621160409556 6.12299204932663  L 22.5255972696246 6.05419438585106  L 22.3890784982935 7.01736167450916  L 22.320819112628 7.15495700146033  L 22.320819112628 7.36134999188706  L 22.1160409556314 7.36134999188706  C 22.1160409556314 7.36134999188706  20.4095563139932 6.81096868408243  20.4095563139932 6.81096868408243  C 20.4095563139932 7.36134999188706  20.4778156996587 7.77413597274056  20.7508532423208 8.25571961706961  C 20.9556313993174 8.73730326139866  21.0238907849829 9.08129157877656  20.8191126279864 9.49407755963006  C 20.8191126279864 9.49407755963006  20.6143344709898 10.0444588674347  20.6143344709898 10.0444588674347  C 20.4095563139932 10.2508518578614  19.7952218430034 10.319649521337  18.9078498293515 10.2508518578614  C 18.9078498293515 10.2508518578614  17.7474402730376 10.2508518578614  17.7474402730376 10.2508518578614  L 17.679180887372 12.1771864351777  L 16.1774744027304 11.626805127373  L 16.1092150170648 11.626805127373  L 16.0409556313993 11.5580074638975  L 15.2901023890785 10.1132565309103  L 13.6518771331058 9.56287522310564  L 13.2423208191126 8.66850559792309  L 12.6279863481229 9.15008924225216  L 12.5597269624573 9.15008924225216  L 11.5358361774744 9.35648223267888  L 11.2627986348123 9.35648223267888  L 10.7167235494881 8.11812429011845  L 10.1706484641638 7.36134999188706  C 10.1706484641638 7.36134999188706  10.1023890784983 7.29255232841149  10.1023890784983 7.29255232841149  C 9.55631399317407 6.60457569365568  9.28327645051194 5.98539672237546  9.14675767918087 5.64140840499755  C 9.14675767918087 5.57261074152198  9.01023890784982 5.43501541457083  8.66894197952218 5.36621775109525  C 8.66894197952218 5.36621775109525  8.39590443686006 5.29742008761966  8.39590443686006 5.29742008761966  C 7.91808873720136 5.09102709719293  7.57679180887372 4.67824111633945  7.37201365187713 4.05906214505923  C 7.37201365187713 4.05906214505923  7.098976109215 2.88950186597436  7.098976109215 2.88950186597436  L 7.098976109215 1.92633457731625  L 6.62116040955631 1.0319649521337  L 5.80204778156997 1.30715560603603  L 5.73378839590442 1.30715560603603  L 5.6655290102389 1.30715560603603  Z " stroke-width="2" stroke="#ffffff" fill="none" transform="matrix(1 0 0 1 1938 1897 )" mask="url(#clip544)" />
  </g>
</svg>