<?xml version="1.0" encoding="utf-8"?>
<svg version="1.1" xmlns:xlink="http://www.w3.org/1999/xlink" width="41px" height="53px" xmlns="http://www.w3.org/2000/svg">
  <g transform="matrix(1 0 0 1 -2102 -1939 )">
    <path d="M 4.21375014472238 4.36269332031875  L 4.24885939493998 3.96299999999999  L 2.63847155752973 2.72984472396817  L 2.41748198787576 2.55776897548097  L 1.85643214879968 2.08790984851544  L 1.71141330087863 1.97116562241015  L 1.19836183038677 1.62267744191013  L 1.32946567014051 1.68950709256347  L 1.28079543669384 1.4499835121004  L 1.19993891985854 1.21125939952321  C 1.19993891985854 1.21125939952321  1.1182971397746 0.942571318268534  1.1182971397746 0.942571318268534  C 1.00169625775874 0.529213774747632  0.925987577217541 0.0967238323076458  1.0871121903761 0.0140834701022925  C 1.0871121903761 0.0140834701022925  29.8956385599985 0  29.8956385599985 0  C 30.221158690942 0  30.0266766034905 0.486573298142986  29.8956385599986 0.486573298142986  C 29.5680434512687 0.486573298142986  29.4370054077767 0.486573298142986  29.2404483425388 0.887551234322501  C 29.2404483425388 0.887551234322501  29.1911574118271 1.01092310912421  29.1911574118271 1.01092310912421  C 29.1911574118271 1.01092310912421  29.0341847555607 1.43208916587224  29.0341847555607 1.43208916587224  C 28.8837336685884 1.82316640843624  28.6944564946556 2.22414434147942  28.388701059841 2.35780364950682  C 28.388701059841 2.35780364950682  28.1066052717681 2.4725897732157  28.1066052717681 2.4725897732157  L 27.3567764673419 2.75042788111884  L 26.6506270107463 3.00598943544384  L 26.4231304074617 3.09292986718006  C 26.3669712459651 3.11202405452116  26.2920923639697 3.133845982911  26.2044153057149 3.15722662047156  C 26.2044153057149 3.15722662047156  25.7434660656252 3.26901529380788  25.7434660656252 3.26901529380788  L 25.2296527168819 3.37817364541866  L 24.7828865303334 3.46102877977384  C 24.7828865303334 3.46102877977384  24.5815062718037 3.489962318755  24.5815062718037 3.489962318755  C 24.3849492065658 3.489962318755  24.2610026898444 3.42707814060893  24.2610026898444 3.22658917856782  C 24.2610026898444 3.09292986381971  24.1736439941831 3.07807883034118  24.037752689821 3.10283055429886  C 24.037752689821 3.10283055429886  23.8871218524462 3.13784965948221  23.8871218524462 3.13784965948221  C 23.8871218524462 3.13784965948221  23.8023695376226 3.15975951783341  23.8023695376226 3.15975951783341  C 23.7649300966248 3.16930661222403  23.7194679182705 3.18294531808488  23.6696123361256 3.19989628083061  C 23.6696123361256 3.19989628083061  23.5104947118854 3.25990658513709  23.5104947118854 3.25990658513709  C 23.4829881838054 3.27130464610215  23.4552906381693 3.2833359326421  23.4278557416729 3.29590302543377  C 23.4278557416729 3.29590302543377  23.2700274859365 3.37695590261893  23.2700274859365 3.37695590261893  C 23.0980400538533 3.47720038615975  22.9833817657978 3.59415228236389  23.0816602984168 3.69439676338445  C 23.2782173636547 3.89488572542555  23.5402934506386 4.22903400893551  23.3437363854007 4.49635263171103  C 23.2126983419087 4.67456504689471  22.9069429070942 4.70426711385176  22.6594266027205 4.70426711235828  C 22.6594266027205 4.70426711235828  22.360951059211 4.69684159375214  22.360951059211 4.69684159375214  C 22.1807737494096 4.69684159375214  22.0005964396082 4.64068612341148  22.1736834386072 4.42542347157564  C 22.1736834386072 4.42542347157564  22.229913015719 4.36269332032327  22.229913015719 4.36269332032327  C 22.491989102703 4.09537469754775  22.491989102703 3.82805607477221  22.1643939939731 3.56073745199669  C 22.0661154613541 3.49390779630281  21.9924065618899 3.4229012874431  21.9330299484326 3.35607163222176  C 21.9330299484326 3.35607163222176  21.7876596189337 3.17646693427713  21.7876596189337 3.17646693427713  C 21.7057608417512 3.07622245199644  21.6402418200053 3.02610021148618  21.5092037765133 3.09292986718006  C 21.2471276895294 3.22658917856782  21.0505706242914 3.42707814060893  21.1816086677834 3.76122641403779  C 21.3126467112754 4.09537469754775  21.4436847547673 4.76367125448658  21.1816086677834 4.96416021652766  C 21.1816086677834 4.96416021652766  21.0505706242914 5.0619295294089  21.0505706242914 5.0619295294089  C 20.8540135590535 5.20115798045134  20.6574564938156 5.29026418594296  20.4608994285776 5.10369806642282  C 20.4608994285776 5.10369806642282  20.3953804068316 5.0309898772621  20.3953804068316 5.0309898772621  C 20.1333043198478 4.69684159375214  19.9367472546098 4.69684159375214  19.6746711676259 4.96416021652766  C 19.6746711676259 4.96416021652766  19.3842908632477 5.38973146253463  19.3842908632477 5.38973146253463  C 19.216038015404 5.62711039859153  19.0194809501661 5.85967759980136  18.8229238849282 5.89977539624201  C 18.8229238849282 5.89977539624201  18.5665783246275 5.95394053760205  18.5665783246275 5.95394053760205  C 18.3669649784919 5.99388245944002  18.1864533879672 6.01434051884851  17.9056575804844 5.96660504689535  C 17.7287562217703 5.93653170410136  17.5385872611526 6.01472240149002  17.3291802777748 6.12809891239738  C 17.3291802777748 6.12809891239738  16.9301810322086 6.35439241367138  16.9301810322086 6.35439241367138  C 16.8363242473292 6.40610894388368  16.738816218406 6.45643969449921  16.637274838504 6.50070765901151  C 16.637274838504 6.50070765901151  16.4642391020729 6.56807195318083  16.4642391020729 6.56807195318083  C 16.4642391020729 6.56807195318083  14.7607445366775 7.03587953799749  14.7607445366775 7.03587953799749  C 14.4986684496935 7.1027091987319  14.0400352974717 7.43685747216077  13.9745162757257 7.83783540632405  C 13.9614124713765 7.89129913087916  13.9561709496368 7.93674329654939  13.954074340941 7.97470254070123  C 13.9525018844191 8.04527465614621  13.9352048626781 8.14525181949159  13.7779592104878 8.10515402909959  C 13.6656408874947 8.10515402909959  13.6014589886415 8.06832952401592  13.5441537218082 8.02098373229452  C 13.5441537218082 8.02098373229452  13.4264869072441 7.92005731287432  13.4264869072441 7.92005731287432  C 13.3821708342264 7.88693474314383  13.3286859185154 7.85692959222501  13.25380703652 7.83783540632405  C 12.991730949536 7.83783540632405  12.7951738842981 8.10515402909959  12.860692906044 8.3056429911407  C 12.8934524169171 8.40588747720179  13.0081107049725 8.45600972023234  13.1309588707463 8.48942454807928  C 13.1309588707463 8.48942454807928  13.3900917204252 8.55051102811049  13.3900917204252 8.55051102811049  C 13.5211297639171 8.55051102811049  13.8434782322337 9.04076920881394  13.7779592104878 9.37491748224281  C 13.7124401887418 9.70906575567167  13.4503641017579 10.0432140391816  12.991730949536 10.0432140391816  C 12.5330977973142 10.0432140391816  12.1399836668383 9.64223610501833  11.9434266016004 9.04076920881394  C 11.7468695363625 8.37247265187511  11.6813505146164 7.70417609493629  11.8779075798544 7.37002782150742  C 11.9434266016004 7.25864506033744  12.0380651885668 7.16211333488621  12.1278505146631 7.07795747216059  C 12.1278505146631 7.07795747216059  12.2546419548938 6.96069617849218  12.2546419548938 6.96069617849218  C 12.3693002429492 6.8520979886197  12.4348192646952 6.76856092026247  12.3365407320762 6.70173126456859  C 12.1399836668383 6.56807195318083  11.7468695363625 6.70173126456859  11.6158314928705 6.30075333040531  C 11.5150329978767 5.94090133433016  11.4530031548036 5.89740274395447  11.3700978837732 5.95732737949731  C 11.2764992812789 6.05279831620288  11.2013233961102 6.22437658104087  11.2366616439907 6.34420234670171  C 11.2366616439907 6.34420234670171  11.2882363841406 6.50124229244642  11.2882363841406 6.50124229244642  C 11.3537554058865 6.63490160383418  11.3537554058865 6.76856091522194  10.9606412754107 6.83539057595635  C 10.9606412754107 6.83539057595635  10.7985811884373 6.85808295506376  10.7985811884373 6.85808295506376  C 10.7985811884373 6.85808295506376  10.6355892753767 6.87079543938683  10.6355892753767 6.87079543938683  C 10.3704071014359 6.88208222387465  10.1556988405439 6.83990528545024  10.2632471014248 6.68486048422551  C 10.481643840578 6.46209496524591  10.4237492916589 6.32859901873761  10.2326521448998 6.3069412611147  C 10.2326521448998 6.3069412611147  10.108893992713 6.30075333040531  10.108893992713 6.30075333040531  C 10.108893992713 6.30075333040531  9.74004616658743 6.30570367527153  9.74004616658743 6.30570367527153  C 9.43914399264298 6.31560436500396  9.06058964477728 6.34530643420123  8.7985135577934 6.43441264179307  C 8.4709184490635 6.50124229244642  8.27436138382558 6.56807195318083  8.01228529684164 6.56807195318083  C 8.01228529684164 6.56807195318083  7.78579978957157 6.54497034206275  7.78579978957157 6.54497034206275  C 7.78579978957157 6.54497034206275  7.63049544172929 6.5350696515836  7.63049544172929 6.5350696515836  C 7.53073396828887 6.53231945978382  7.50511953591905 6.5433202269829  7.55365214461978 6.56807195318083  C 7.3331972163017 6.4556395132351  7.06638134756076 6.29591873110681  6.75320453839691 6.08890961279639  C 6.75320453839691 6.08890961279639  6.44251542053559 6.16709401901304  6.44251542053559 6.16709401901304  C 6.44251542053559 6.16709401901304  5.78138408854039 5.97694803347804  5.78138408854039 5.97694803347804  C 5.70752857515754 5.97464252747639  5.63861021767519 5.96278768676768  5.57896122403764 5.93420284948664  C 5.57896122403764 5.93420284948664  5.44530858859929 5.85396377280222  5.44530858859929 5.85396377280222  C 5.44530858859929 5.85396377280222  5.15760583759021 5.71311913059424  5.15760583759021 5.71311913059424  C 5.05347265523346 5.65772447028169  4.94542196575594 5.58818786127253  4.84639804385631 5.4874227962068  C 4.84639804385631 5.4874227962068  4.21375014472238 5.16464918864534  4.21375014472238 5.16464918864534  L 4.21375014472238 4.36269332031875  Z M 22.7649434698731 34.1687197093603  C 22.7649434698731 34.4360382918115  22.5682877102425 34.6365272538526  22.3060800307351 34.6365272538526  C 22.0438723512277 34.6365272538526  21.847216591597 34.4360382918115  21.847216591597 34.1687197093603  C 21.847216591597 33.9014010260983  22.0438723512277 33.7009120640573  22.3060800307351 33.7009120640573  C 22.5682877102425 33.7009120640573  22.7649434698731 33.9014010260983  22.7649434698731 34.1687197093603  Z M 22.1749761909826 50.8761335824501  L 20.1428666747999 51.8117487722455  L 18.3729648381247 52.2795563167378  L 16.4064072418189 52.5468749999998  L 22.1749761909826 50.8761335824501  Z M 13.1288112479754 31.7628520640807  L 12.8666035684679 32.8321265955071  L 12.3421882094531 34.502867912246  L 13.3910189274828 29.4238141399975  L 13.2599150877291 30.6935776334651  L 13.1288112479754 31.7628520640807  Z M 18.3729648381229 49.4058811269173  C 18.6351725176304 49.4058811269173  18.831828277261 49.6063700889584  18.831828277261 49.8736887722205  C 18.831828277261 50.1410073546716  18.6351725176304 50.3414963167127  18.3729648381229 50.3414963167127  C 18.1107571586155 50.3414963167127  17.9141013989849 50.1410073546716  17.9141013989849 49.8736887722205  C 17.9141013989849 49.6063700889584  18.1107571586155 49.4058811269173  18.3729648381229 49.4058811269173  Z M 20.536178194059 46.2648873546684  C 20.536178194059 46.5322059371196  20.3395224344284 46.7326948991607  20.077314754921 46.7326948991607  C 19.8151070754136 46.7326948991607  19.6184513157829 46.5322059371196  19.6184513157829 46.2648873546684  C 19.6184513157829 45.9975686714064  19.8151070754136 45.7970797093653  20.077314754921 45.7970797093653  C 20.3395224344284 45.7970797093653  20.536178194059 45.9975686714064  20.536178194059 46.2648873546684  Z M 7.42579421868868 44.9282942408159  L 7.294690378935 42.5892563167328  L 7.75355381807299 41.052174240814  L 7.62244997831931 46.4653763167346  L 7.42579421868868 44.9282942408159  Z M 10.6378382926541 41.7873003677325  C 10.6378382926541 41.5199817852814  10.8344940522846 41.3194928232402  11.0967017317921 41.3194928232402  C 11.3589094112996 41.3194928232402  11.5555651709302 41.5199817852814  11.5555651709302 41.7873003677325  C 11.5555651709302 41.9877893297737  11.3589094112996 42.2551080130357  11.0967017317921 42.2551080130357  C 10.8344940522846 42.2551080130357  10.6378382926541 42.0546190509946  10.6378382926541 41.7873003677325  Z M 16.471959161694 41.0521742407897  C 16.7341668412015 41.0521742407897  16.9308226008321 41.2526632028308  16.9308226008321 41.519981785282  C 16.9308226008321 41.7204707473231  16.6686149213246 41.9877893297743  16.471959161694 41.9877893297743  C 16.2097514821866 41.9877893297743  16.013095722556 41.7873003677332  16.013095722556 41.519981785282  C 16.013095722556 41.2526632028308  16.2097514821866 41.0521742407897  16.471959161694 41.0521742407897  Z M 23.551566508395 41.2526632028305  C 23.551566508395 41.4531521648715  23.3549107487644 41.7204707473228  23.0927030692569 41.7204707473228  C 22.8304953897494 41.7204707473228  22.6338396301189 41.5199817852816  22.6338396301189 41.2526632028305  C 22.6338396301189 40.9853445195685  22.8304953897494 40.7848555575273  23.0927030692569 40.7848555575273  C 23.3549107487644 40.7848555575273  23.551566508395 40.9853445195685  23.551566508395 41.2526632028305  Z M 21.257249312705 39.8492403677307  C 20.9950416331976 39.8492403677307  20.7983858735669 39.6487514056896  20.7983858735669 39.3814328232385  C 20.7983858735669 39.1141142407872  20.9950416331976 38.9136251779353  21.257249312705 38.9136251779353  C 21.5194569922124 38.9136251779353  21.716112751843 39.1141142407872  21.716112751843 39.3814328232385  C 21.716112751843 39.6487514056896  21.5194569922124 39.8492403677307  21.257249312705 39.8492403677307  Z M 26.4358509829769 38.5794769750745  C 26.4358509829769 38.3121582918125  26.6325067426075 38.1116693297713  26.8947144221149 38.1116693297713  C 27.1569221016224 38.1116693297713  27.353577861253 38.3121582918125  27.353577861253 38.5794769750745  C 27.353577861253 38.8467955575256  27.1569221016224 39.0472845195668  26.8947144221149 39.0472845195668  C 26.6325067426075 39.0472845195668  26.4358509829769 38.8467955575256  26.4358509829769 38.5794769750745  Z M 25.059260665563 34.5028679122213  C 25.3214683450705 34.5028679122213  25.518124104701 34.7033569750732  25.518124104701 34.9706755575245  C 25.518124104701 35.2379941399756  25.3214683450705 35.4384831020168  25.059260665563 35.4384831020168  C 24.7970529860555 35.4384831020168  24.6003972264249 35.2379941399756  24.6003972264249 34.9706755575245  C 24.6003972264249 34.7033569750732  24.7970529860555 34.5028679122213  25.059260665563 34.5028679122213  Z M 37.1119484445377 0.319456718025322  C 37.1119484445377 0.319456718025322  37.1196019103496 0.211086845781722  37.1196019103496 0.211086845781722  L 37.1208139229054 0.0187657092931204  C 37.1208139229054 0.0187657092931204  40.2557246376808 0.0187657092931204  40.2557246376808 0.0187657092931204  C 40.2411575443748 0.0633188128650204  40.2271623739979 0.130973525961934  40.2127655759492 0.212929235377743  C 40.2127655759492 0.212929235377743  40.1419832646677 0.648559583330723  40.1419832646677 0.648559583330723  C 40.1063989248356 0.85867422064814  40.0633667707112 1.07318916400439  40.0050983974873 1.22169950775057  C 39.9322629309575 1.37020985373698  39.8626645962734 1.49561859009879  39.7970227560675 1.60745971452209  C 39.7970227560675 1.60745971452209  39.6126860815166 1.91181424966251  39.6126860815166 1.91181424966251  C 39.4701623599736 2.14741399524334  39.3568627453716 2.35780365174625  39.2840272788418 2.69195193301596  C 39.2436876358407 2.85645570087783  39.240584586379 3.03361360377465  39.2479841658645 3.20201095076627  C 39.2479841658645 3.20201095076627  39.2710780147423 3.55708722066697  39.2710780147423 3.55708722066697  C 39.2832515164764 3.77190334488694  39.2739423680915 3.93087092735868  39.1529234390881 3.9617153861592  C 38.9169365275314 4.02186207174719  38.7871437261752 3.91961269808189  38.7635450350195 3.60624844983704  C 38.7635450350195 3.60624844983704  38.7596119198269 3.49390780134254  38.7596119198269 3.49390780134254  C 38.7596119198269 3.1040681389278  38.6685675866646 2.99268538223828  38.3726735038871 2.81168839911746  C 38.3726735038871 2.81168839911746  38.1696446409352 2.69195193301596  38.1696446409352 2.69195193301596  C 38.0713167611199 2.63466937099264  38.0000792155395 2.60193647840788  37.9462568848242 2.58060164663388  C 37.9462568848242 2.58060164663388  37.8273604179047 2.53763972511641  37.8273604179047 2.53763972511641  C 37.789137724099 2.52205263340937  37.7646752000633 2.50334812336092  37.7310392295142 2.45035201155704  C 37.7310392295142 2.45035201155704  37.6708384867702 2.34124236960784  37.6708384867702 2.34124236960784  L 37.5796773620435 2.15731468746492  C 37.4860317622194 1.92818443937159  37.3870349852625 1.78088642315166  37.2964472009429 1.66865936344888  C 37.2964472009429 1.66865936344888  37.1126199329208 1.45560330519942  37.1126199329208 1.45560330519942  C 36.9897100831517 1.30523658114834  36.9241581632749 1.15486985709722  36.9897100831517 0.753891922933946  C 36.9897100831517 0.753891922933946  37.0917905023504 0.411022127735635  37.0917905023504 0.411022127735635  C 37.1012675376337 0.377463502605053  37.1076500307836 0.349860482192952  37.1119484445377 0.319456718025322  Z M 30.7622776948499 31.2950445195627  C 30.5000700153425 31.2950445195627  30.3034142557119 31.0945555575216  30.3034142557119 30.8272368742597  C 30.3034142557119 30.5599182918085  30.5000700153425 30.3594293297674  30.7622776948499 30.3594293297674  C 31.0244853743574 30.3594293297674  31.2211411339879 30.5599182918085  31.2211411339879 30.8272368742597  C 31.2211411339879 31.0945555575216  31.0244853743574 31.2950445195627  30.7622776948499 31.2950445195627  Z M 11.4900132510543 21.6715741399937  L 11.8833247703154 22.4735299881581  L 12.7354997287146 25.1467162159134  L 10.178974853517 20.201321684485  L 10.8344940522857 20.8027885706084  L 11.4900132510543 21.6715741399937  Z M 33.3188025700474 20.6691292289531  C 33.515458329678 20.8696181909942  33.515458329678 21.1369368742563  33.3188025700474 21.3374258362974  C 33.1221468104168 21.5379147983385  32.8599391309094 21.5379147983385  32.6632833712788 21.3374258362974  C 32.4666276116482 21.1369368742563  32.4666276116482 20.8696181909942  32.6632833712788 20.6691292289531  C 32.8599391309094 20.468640266912  33.1221468104168 20.468640266912  33.3188025700474 20.6691292289531  Z M 23.6826703481491 20.7359589501731  C 23.6826703481491 21.0032775326242  23.4860145885185 21.2037664946653  23.223806909011 21.2037664946653  C 22.9615992295036 21.2037664946653  22.764943469873 21.0032775326242  22.764943469873 20.7359589501731  C 22.764943469873 20.468640266911  22.9615992295036 20.2681513048699  23.223806909011 20.2681513048699  C 23.4860145885185 20.2681513048699  23.6826703481491 20.468640266911  23.6826703481491 20.7359589501731  Z M 15.8164399629261 20.8027885705833  C 15.5542322834186 20.8027885705833  15.3575765237881 20.6022996085422  15.3575765237881 20.334981026091  C 15.3575765237881 20.0676623428289  15.5542322834186 19.8671733807878  15.8164399629261 19.8671733807878  C 16.0786476424336 19.8671733807878  16.2753034020641 20.0676623428289  16.2753034020641 20.334981026091  C 16.2753034020641 20.6022996085422  16.0786476424336 20.8027885705833  15.8164399629261 20.8027885705833  Z M 18.569620597754 19.3993658362952  C 18.569620597754 19.1320471530332  18.7662763573846 18.9315581909921  19.028484036892 18.9315581909921  C 19.2906917163995 18.9315581909921  19.48734747603 19.1320471530332  19.48734747603 19.3993658362952  C 19.48734747603 19.6666844187464  19.2906917163995 19.8671733807875  19.028484036892 19.8671733807875  C 18.7662763573846 19.8671733807875  18.569620597754 19.6666844187464  18.569620597754 19.3993658362952  Z M 25.059260665563 18.3969210260909  C 25.3214683450705 18.3969210260909  25.518124104701 18.597409988132  25.518124104701 18.8647285705832  C 25.518124104701 19.1320471530344  25.3214683450705 19.3325361150755  25.059260665563 19.3325361150755  C 24.7970529860555 19.3325361150755  24.6003972264249 19.1320471530344  24.6003972264249 18.8647285705832  C 24.6003972264249 18.597409988132  24.7970529860555 18.3969210260909  25.059260665563 18.3969210260909  Z M 16.9308226008321 16.7261796085407  C 16.9308226008321 16.9934981909919  16.6686149213246 17.2608168742539  16.471959161694 17.193987153033  C 16.2097514821866 17.193987153033  16.013095722556 16.9934981909919  16.013095722556 16.7261796085407  C 16.013095722556 16.4588609252787  16.2097514821866 16.2583719632376  16.471959161694 16.2583719632376  C 16.7341668412015 16.2583719632376  16.9308226008321 16.4588609252787  16.9308226008321 16.7261796085407  Z M 10.7033902125318 10.6446809253037  C 11.2933574914236 10.3773623428525  11.4900132510542 10.3773623428525  11.8833247703153 10.5110215836727  C 11.8833247703153 10.5110215836727  12.2078067737058 10.6078577671578  12.2078067737058 10.6078577671578  C 12.4051180525351 10.6607200251292  12.5060680091455 10.6513638571015  12.7354997287145 10.5110215836727  C 13.0632593280988 10.3105326216316  13.6532266069905 10.1768733808114  13.9809862063748 10.1100436595905  C 14.2853344058032 10.0479875834954  14.6462044136966 10.1588020920174  14.9061426207594 10.710024940873  C 14.9061426207594 10.710024940873  14.9642650045278 10.8451698873448  14.9642650045278 10.8451698873448  C 15.2264726840352 11.4466367734681  15.1609207641583 11.6471257355092  14.7020573250203 11.9812740391814  C 14.2849087439857 12.2242909323188  13.9761104437394 12.522539000019  13.9234128071742 12.9764384081874  C 13.9234128071742 12.9764384081874  13.915434286498 13.1173781910179  13.915434286498 13.1173781910179  C 13.915434286498 13.6725783935933  13.6920147252609 14.0000041827191  13.4514090439286 13.9945288663888  C 13.2828469642453 13.9515669027468  12.8913527627075 14.1488052715971  12.5370283911282 14.4254274282618  C 12.5370283911282 14.4254274282618  12.2989010087184 14.6184150986642  12.2989010087184 14.6184150986642  C 12.2989010087184 14.6184150986642  12.0630669879368 14.8207550200349  12.0630669879368 14.8207550200349  C 12.024462067193 14.8546082322092  11.9863349301218 14.8883640247813  11.9488766901922 14.9217788493878  C 11.5959048139322 15.230223483921  11.3205091742128 15.222314647138  10.9436676867095 15.1109825830601  C 10.9436676867095 15.1109825830601  10.7039571157989 15.03347599929  10.7039571157989 15.03347599929  C 10.6614990447999 15.0190575847665  10.6176684711544 15.0040307984581  10.5722863727781 14.9886085706088  C 9.98231909388636 14.8549492289777  9.58900757462521 14.6544602669366  9.45790373487148 14.5208009253056  C 9.45790373487148 14.5208009253056  9.26137600633444 14.1657684290497  9.26137600633444 14.1657684290497  L 9.19569605536407 14.0529933808133  L 9.15502117987256 13.8589057932942  L 9.1172516526305 13.6478647716832  C 9.1172516526305 13.6478647716832  9.07948212538844 13.3888864539828  9.07948212538844 13.3888864539828  C 9.01556446390185 12.8830115756971  8.99559019468734 12.2415579406648  9.26124797524091 12.0481036595914  C 9.41420245495357 11.9367209253044  9.5453062947073 11.8698912824919  9.65698734338639 11.8179126664372  C 9.65698734338639 11.8179126664372  9.85517174861081 11.7249561915702  9.85517174861081 11.7249561915702  C 9.97098913242615 11.6644519719753  10.0551545604162 11.5951471306558  10.1134229336401 11.4466367734681  C 10.135273573599 11.4020836763929  10.1516615535683 11.3556741981727  10.1662286468742 11.3083365289133  C 10.1662286468742 11.3083365289133  10.2081090401289 11.164467138123  10.2081090401289 11.164467138123  C 10.2590938666998 10.9955366238106  10.3323845548954 10.8266060980636  10.5841221360892 10.6974717116681  C 10.5841221360892 10.6974717116681  10.7033902125318 10.6446809253037  10.7033902125318 10.6446809253037  Z M 33.9087698489391 31.8296817852766  C 34.1709775284465 31.8296817852766  34.3676332880771 32.0301707473178  34.3676332880771 32.297489329769  C 34.3676332880771 32.5648079122201  34.1709775284465 32.7652968742613  33.9087698489391 32.7652968742613  C 33.6465621694317 32.7652968742613  33.449906409801 32.5648079122201  33.449906409801 32.297489329769  C 33.449906409801 32.0301707473178  33.6465621694317 31.8296817852766  33.9087698489391 31.8296817852766  Z M 24.731501066179 30.9608962158914  C 24.731501066179 31.2282147983425  24.5348453065484 31.4287037603837  24.2726376270409 31.4287037603837  C 24.0104299475335 31.4287037603837  23.8137741879029 31.2282147983425  23.8137741879029 30.9608962158914  C 23.8137741879029 30.6935776334402  24.0104299475335 30.4930886713991  24.2726376270409 30.4930886713991  C 24.5348453065484 30.4930886713991  24.731501066179 30.6935776334402  24.731501066179 30.9608962158914  Z M 36.8586062433992 30.8272368742852  L 36.006431285 32.8989562159172  L 37.3174696825371 27.5525837604066  L 36.8586062433992 30.8272368742852  Z M 29.3856873774359 6.30075333037567  C 29.6043736176836 6.33888931957108  29.844550816574 6.53094436161408  29.844550816574 6.76856091519232  C 29.844550816574 7.03587953796784  29.5823431370665 7.23636851009005  29.3856873774359 7.23636851009005  C 29.1234796979285 7.23636851009005  28.9268239382979 7.03587953796784  28.9268239382979 6.76856091519232  C 28.9268239382979 6.50124229241678  29.1234796979285 6.30075333037567  29.3856873774359 6.30075333037567  Z M 4.27930206459922 3.62756711272658  L 4.24885939493998 3.96299999999999  C 4.24885939493998 3.96299999999999  4.46273856301752 4.12894240322697  4.46273856301752 4.12894240322697  C 4.47032142638733 3.81128468675431  4.51355847592328 3.42857260502046  4.60408751928111 2.96544419369818  C 4.60408751928111 2.96544419369818  4.27930206459922 3.62756711272658  4.27930206459922 3.62756711272658  Z M 2.31274446829343 2.5582926216245  L 1.59167334964798 2.15731468746122  L 1.69185939493997 2.00100000000003  L 2.39585939493998 2.54100000000003  L 2.31274446829343 2.5582926216245  Z " fill-rule="nonzero" fill="#4284f5" stroke="none" transform="matrix(1 0 0 1 2102 1939 )" />
  </g>
</svg>