<?xml version="1.0" encoding="utf-8"?>
<svg version="1.1" xmlns:xlink="http://www.w3.org/1999/xlink" width="307px" height="86px" xmlns="http://www.w3.org/2000/svg">
  <g transform="matrix(1 0 0 1 -489 -632 )">
    <path d="M 0 47  L 11.2815324016041 47  L 20.8327043530576 20.9073784969566  L 28.6332762940129 35.0764647319771  L 36.9620831286418 41.2563038177054  L 42.1310918384855 35.2510951643643  L 48.6383177555576 13.0531607998802  L 51.1674350362448 12.5296508557353  L 56.3477455096963 21.7003543150623  L 61.0608322546387 22.8568317050271  L 65.1010894007142 37.196398714994  L 70.2383578183576 46.2909048243515  L 76.5016911722773 38.6924238655197  L 84.7604351749169 71.9993378869896  L 91.0533084789386 55.4410426383875  L 99.1602813569443 81.3757193247318  L 105.103506471907 67.8136179891912  L 110.627347132719 63.0215941757631  L 116.512912594621 72.478224769912  L 122.859261388174 58.4945246486437  L 129.715973085418 62.0478965503952  L 135.756159694138 44.8550757476608  L 142.25653104273 43.3096128254936  L 148.31272165991 48.093913606516  L 153.526963643379 30.8130410286072  L 159.232689858823 41.7356140648643  L 164.770243420536 25.5336759986278  L 169.649241017287 0  L 174.297586822325 7.78272861568133  L 179.599492575804 28.4127357792887  L 183.969464447077 18.7868223316868  L 188.097314343947 29.6359318332365  L 192.771057199158 28.4127357792888  L 197.723021310506 44.8791697974122  L 202.532344395741 52.4951980527419  L 206.950939234484 79.6163501103405  L 212.087577896855 67.6268344683059  L 216.402294327384 74.4596052483621  L 223.687938729676 80.8271656997327  L 229.478850327872 70.408727245467  L 234.786894426658 64.4521322664249  L 239.321372850373 81.7338935308459  L 244.514492382359 82.9999999999998  L 250.211703214996 63.9860684280715  L 254.521825823662 58.3386112841596  L 259.526872488344 61.1003992731929  L 264.883823451954 53.8796781854397  L 268.626031017069 48.8354959138957  L 273.521401010407 55.1737271552166  L 277.496993207447 36.8781821001513  L 281.551589521867 31.4129259668135  L 287.077546829798 3.83662109581249  L 293.791616259732 13.0531607998803  L 297.374799121976 10.6790520897296  L 299.683961815704 6.97200726464308  L 304.000000000001 1.15434939459543  " stroke-width="2" stroke="#4a9eff" fill="none" transform="matrix(1 0 0 1 490 633 )" />
  </g>
</svg>