<?xml version="1.0" encoding="utf-8"?>
<svg version="1.1" xmlns:xlink="http://www.w3.org/1999/xlink" width="7px" height="7px" xmlns="http://www.w3.org/2000/svg">
  <g transform="matrix(1 0 0 1 -2064 -1908 )">
    <path d="M 5.50000000000001 3.20684383533203  L 6 2.56840814055077  L 6 2.48860367870312  C 6 2.48860367870312  4.21428571428571 0.89251444175  4.21428571428571 0.89251444175  C 3.28571428571427 0.174274285121091  2.50000000000001 -0.0651391004218642  1.92857142857143 0.0146653614257874  C 1.92857142857143 0.0146653614257874  1.14285714285712 0.333883208816417  1.14285714285712 0.333883208816417  C 1.14285714285712 0.333883208816417  1.14285714285712 2.00977690761719  1.14285714285712 2.00977690761719  C 0.999999999999986 2.56840814055077  0.785714285714264 3.20684383533203  0.28571428571427 3.68567060641797  C 0.28571428571427 3.68567060641797  0 4.00488845380859  0 4.00488845380859  L 0.714285714285716 4.96254199598046  L 0.785714285714264 4.96254199598046  L 0.999999999999986 5.60097769076172  C 0.999999999999986 5.60097769076172  1.85714285714284 6  1.85714285714284 6  C 2.35714285714287 5.60097769076172  2.71428571428573 5.44136876706641  3.07142857142859 5.52117322891407  C 3.07142857142859 5.52117322891407  4.57142857142857 5.84039107630469  4.57142857142857 5.84039107630469  C 4.57142857142857 5.84039107630469  4.64285714285716 5.28175984337109  4.64285714285716 5.28175984337109  C 4.7142857142857 4.1644973775039  5.07142857142856 3.52606168272266  5.50000000000001 3.20684383533203  Z " fill-rule="nonzero" fill="#4284f5" stroke="none" transform="matrix(1 0 0 1 2064 1908 )" />
  </g>
</svg>