<?xml version="1.0" encoding="utf-8"?>
<svg version="1.1" xmlns:xlink="http://www.w3.org/1999/xlink" width="30px" height="42px" xmlns="http://www.w3.org/2000/svg">
  <defs>
    <mask fill="white" id="clip1592">
      <path d="M 27.744874715262 12.9952153110048  L 27.6082004555809 12.6602870813397  L 27.0615034168565 12.3923444976076  L 26.993166287016 12.3923444976076  L 26.5831435079727 11.9904306220096  L 24.6697038724373 11.4545454545455  L 24.1913439635535 11.4545454545455  L 23.8496583143508 11.5885167464115  L 23.0979498861048 10.1818181818182  L 23.1662870159453 10.1148325358852  L 23.7129840546697 9.44497607655503  L 23.7129840546697 8.64114832535885  L 23.7813211845102 8.50717703349282  L 24.123006833713 7.97129186602871  L 23.8496583143508 7.83732057416268  L 22.8246013667426 7.63636363636364  L 21.0478359908884 7.36842105263158  L 20.9111617312073 7.36842105263158  L 19.8861047835991 6.36363636363636  L 19.8861047835991 6.29665071770335  L 19.5444191343963 5.62679425837321  L 19.4760820045558 5.42583732057417  L 20.0227790432802 4.01913875598086  L 20.0227790432802 3.01435406698565  L 19.9544419134396 2.74641148325359  L 19.4077448747153 3.28229665071771  L 19.3394077448747 3.34928229665072  L 19.2027334851936 3.55023923444977  L 19.0660592255125 3.34928229665072  L 18.8610478359909 3.28229665071771  L 17.8359908883827 2.47846889952153  L 17.6993166287016 2.3444976076555  L 17.6993166287016 2.21052631578948  L 17.4943052391799 0.736842105263164  L 17.0159453302961 0  L 15.9908883826879 0.0669856459330201  L 15.375854214123 1.13875598086125  L 15.3075170842825 1.27272727272728  L 15.2391799544419 1.33971291866029  L 13.5990888382688 1.00478468899522  L 13.3257403189066 2.47846889952153  L 13.3257403189066 3.95215311004785  L 13.2574031890661 4.01913875598086  L 12.3690205011389 5.35885167464115  L 12.3690205011389 5.49282296650718  L 12.2323462414579 5.5598086124402  L 12.1640091116173 5.5598086124402  L 11.1389521640091 5.62679425837321  L 10.1138952164009 6.43062200956938  L 9.9772209567198 6.56459330143541  L 9.84054669703871 6.56459330143541  L 9.77220956719815 6.49760765550239  L 7.85876993166287 5.89473684210527  L 7.58542141230066 6.56459330143541  L 7.58542141230066 6.63157894736842  C 7.58542141230066 6.63157894736842  6.76537585421411 7.97129186602871  6.76537585421411 7.97129186602871  C 6.62870159453303 8.23923444976077  6.42369020501138 8.37320574162679  6.21867881548973 8.44019138755981  C 6.21867881548973 8.44019138755981  5.39863325740318 8.30622009569378  5.39863325740318 8.30622009569378  L 4.30523917995441 7.83732057416268  L 4.1002277904328 7.70334928229665  L 4.03189066059224 7.63636363636364  L 4.03189066059224 7.56937799043063  L 3.82687927107059 5.96172248803828  L 3.48519362186786 4.75598086124402  L 3.28018223234621 4.42105263157895  L 2.80182232346239 5.35885167464115  L 1.98177676537584 6.43062200956938  L 1.29840546697037 7.97129186602871  L 1.29840546697037 8.03827751196172  L 1.29840546697037 8.10526315789474  L 1.23006833712981 8.10526315789474  C 1.23006833712981 8.10526315789474  0.615034168564905 8.97607655502393  0.615034168564905 8.97607655502393  C 0.615034168564905 9.24401913875598  0.410022779043257 9.64593301435407  0 10.2488038277512  C 0 10.2488038277512  0.410022779043257 11.7894736842105  0.410022779043257 11.7894736842105  L 2.46013667425966 14  L 3.14350797266512 15.4066985645933  L 3.14350797266512 15.5406698564593  L 3.0751708428246 15.6746411483254  L 3.00683371298404 15.6746411483254  L 2.46013667425966 16.3444976076555  L 2.32346241457857 16.4784688995215  L 0.956719817767639 16.7464114832536  L 1.09339407744872 17.8181818181818  L 2.11845102505693 18.3540669856459  L 3.62186788154895 18.688995215311  L 4.03189066059224 20.0287081339713  L 4.03189066059224 20.0956937799043  L 4.03189066059224 20.1626794258373  L 3.69020501138951 22.4401913875598  L 3.69020501138951 22.5071770334928  L 3.14350797266512 23.511961722488  L 3.14350797266512 23.7129186602871  L 3.00683371298404 23.7129186602871  L 1.29840546697037 23.9808612440191  L 1.29840546697037 24.6507177033493  L 0.820045558086553 26.1244019138756  L 0.615034168564905 27.799043062201  L 0.956719817767639 28.7368421052632  L 3.0751708428246 30.0095693779904  L 3.14350797266512 30.0765550239234  L 4.03189066059224 31.5502392344497  L 4.03189066059224 31.6172248803828  L 4.1002277904328 31.6842105263158  L 4.03189066059224 31.7511961722488  L 2.93849658314348 34.0956937799043  L 2.66514806378131 34.7655502392344  L 1.98177676537584 36.3062200956938  L 1.70842824601367 37.511961722488  L 1.64009111617311 37.6459330143541  C 1.64009111617311 37.6459330143541  1.64009111617311 37.7129186602871  1.64009111617311 37.7129186602871  C 1.29840546697037 37.9808612440191  1.09339407744872 38.2488038277512  0.956719817767639 38.6507177033493  C 0.888382687927076 38.7846889952153  0.888382687927076 38.9186602870813  1.0250569476082 39.0526315789474  C 1.0250569476082 39.0526315789474  1.09339407744872 39.1196172248804  1.09339407744872 39.1196172248804  L 1.77676537585419 39.8564593301435  L 2.11845102505693 40.3923444976077  L 2.25512528473801 40.3253588516746  L 2.32346241457857 40.5263157894737  L 2.32346241457857 40.5933014354067  L 2.32346241457857 40.7942583732057  L 2.32346241457857 40.8612440191387  L 2.46013667425966 41.2631578947368  L 3.0751708428246 41.4641148325359  C 3.0751708428246 41.4641148325359  5.53530751708426 42  5.53530751708426 42  C 6.35535307517081 42  7.10706150341684 41.799043062201  7.9271070615034 41.4641148325359  C 8.74715261958995 41.1291866028708  9.49886104783598 41.0622009569378  10.3189066059225 41.1961722488038  C 10.3189066059225 41.1961722488038  10.4555808656036 40.7272727272727  10.4555808656036 40.7272727272727  L 9.63553530751707 38.9186602870813  L 9.56719817767654 38.7846889952153  L 9.63553530751707 38.7846889952153  L 13.5307517084282 33.4928229665072  L 17.6993166287016 29.5406698564593  L 17.7676537585421 29.5406698564593  L 19.0660592255125 29.0717703349282  L 19.749430523918 28.3349282296651  C 19.749430523918 28.3349282296651  19.749430523918 28.2679425837321  19.749430523918 28.2679425837321  C 20.2961275626424 27.866028708134  20.7744874715262 27.5980861244019  21.3211845102506 27.3971291866029  C 21.3211845102506 27.3971291866029  20.9111617312073 27.0622009569378  20.9111617312073 27.0622009569378  L 20.0227790432802 26.1913875598086  L 20.0227790432802 26.1244019138756  L 19.9544419134396 26.1244019138756  L 19.2710706150342 25.3205741626794  L 19.2027334851936 25.1866028708134  L 19.2027334851936 25.0526315789474  L 19.5444191343963 24.6507177033493  L 18.6560364464692 24.8516746411483  C 18.6560364464692 24.8516746411483  16.742596810934 24.3827751196172  16.742596810934 24.3827751196172  C 15.9908883826879 24.0478468899522  15.5125284738041 23.6459330143541  15.375854214123 23.177033492823  C 14.9658314350797 21.9712918660287  14.8291571753986 20.8995215311005  14.8974943052392 19.9617224880383  C 14.624145785877 20.2966507177033  14.2824601366743 20.3636363636364  13.9407744874715 20.3636363636364  C 13.9407744874715 20.3636363636364  12.50569476082 20.0287081339713  12.50569476082 20.0287081339713  L 11.5489749430524 19.3588516746411  L 10.3872437357631 19.0909090909091  C 10.3872437357631 19.0909090909091  9.84054669703871 19.0909090909091  9.84054669703871 19.0909090909091  C 9.49886104783598 19.0909090909091  9.08883826879268 18.9569377990431  8.81548974943051 18.688995215311  C 8.40546697038722 18.4210526315789  8.20045558086561 18.1531100478469  8.13211845102505 17.8851674641148  C 7.99544419134396 17.3492822966507  8.13211845102505 17.0143540669856  8.61047835990887 16.6794258373206  C 9.08883826879268 16.3444976076555  9.63553530751707 15.8086124401914  10.1138952164009 15.1387559808612  C 9.63553530751707 14.5358851674641  9.43052391799542 13.933014354067  9.63553530751707 13.3301435406699  C 9.63553530751707 13.3301435406699  9.70387243735763 13.2631578947368  9.70387243735763 13.2631578947368  C 9.77220956719815 12.9282296650718  10.3189066059225 12.6602870813397  11.3439635535307 12.3253588516746  C 11.4123006833713 11.9904306220096  11.5489749430524 11.7894736842105  11.6856492027335 11.7224880382775  C 11.6856492027335 11.7224880382775  12.7107061503417 11.7894736842105  12.7107061503417 11.7894736842105  C 12.7107061503417 11.7894736842105  12.5740318906606 11.6555023923445  12.5740318906606 11.6555023923445  C 11.8906605922551 11.2535885167464  11.6856492027335 10.7846889952153  12.0273348519362 10.2488038277512  C 12.0273348519362 10.2488038277512  12.5740318906606 9.84688995215311  12.5740318906606 9.84688995215311  C 13.1890660592255 9.64593301435407  13.9407744874715 9.71291866028708  14.6924829157175 10.1148325358852  C 14.6924829157175 10.1148325358852  16.2642369020501 11.1866028708134  16.2642369020501 11.1866028708134  L 17.6993166287016 11.1866028708134  L 18.1776765375854 11.5885167464115  C 18.1776765375854 11.5885167464115  18.3143507972665 12.1244019138756  18.3143507972665 12.1244019138756  C 18.3143507972665 12.4593301435407  18.1093394077449 12.6602870813397  17.8359908883827 12.6602870813397  C 17.4943052391799 12.6602870813397  17.3576309794989 12.9952153110048  17.2892938496583 13.3971291866029  C 17.2892938496583 13.3971291866029  17.9726651480638 15.0047846889952  17.9726651480638 15.0047846889952  C 18.3826879271071 14.4019138755981  18.7927107061504 14.066985645933  19.2027334851936 14  C 19.4077448747153 14  19.6810933940774 14.133971291866  19.8861047835991 14.4019138755981  C 20.0911161731207 14.7368421052632  20.2961275626424 15.3397129186603  20.4328018223235 15.9425837320574  C 20.501138952164 16.6794258373206  20.7061503416856 17.2822966507177  20.9111617312073 17.6172248803828  C 20.9111617312073 17.6172248803828  21.4578587699317 18.3540669856459  21.4578587699317 18.3540669856459  C 22.2779043280182 19.3588516746411  22.756264236902 20.0956937799043  22.8929384965832 20.6985645933014  C 22.8929384965832 20.6985645933014  25.5580865603645 20.3636363636364  25.5580865603645 20.3636363636364  L 26.7198177676537 19.7607655502392  L 27.8132118451025 18.4210526315789  L 28.2915717539863 17.1483253588517  L 28.2915717539863 17.0813397129187  L 28.2915717539863 17.0143540669856  L 28.6332574031891 15.6746411483254  L 28.6332574031891 15.6076555023923  L 28.7015945330296 15.4736842105263  L 28.7699316628702 15.4736842105263  L 29.7949886104784 14.8038277511962  L 30 14.6698564593301  L 29.9316628701594 14.6028708133971  L 28.2232346241458 14.066985645933  L 28.0865603644647 14.066985645933  L 28.0865603644647 14  L 27.744874715262 12.9952153110048  Z " fill-rule="evenodd" />
    </mask>
  </defs>
  <g transform="matrix(1 0 0 1 -2021 -1841 )">
    <path d="M 27.744874715262 12.9952153110048  L 27.6082004555809 12.6602870813397  L 27.0615034168565 12.3923444976076  L 26.993166287016 12.3923444976076  L 26.5831435079727 11.9904306220096  L 24.6697038724373 11.4545454545455  L 24.1913439635535 11.4545454545455  L 23.8496583143508 11.5885167464115  L 23.0979498861048 10.1818181818182  L 23.1662870159453 10.1148325358852  L 23.7129840546697 9.44497607655503  L 23.7129840546697 8.64114832535885  L 23.7813211845102 8.50717703349282  L 24.123006833713 7.97129186602871  L 23.8496583143508 7.83732057416268  L 22.8246013667426 7.63636363636364  L 21.0478359908884 7.36842105263158  L 20.9111617312073 7.36842105263158  L 19.8861047835991 6.36363636363636  L 19.8861047835991 6.29665071770335  L 19.5444191343963 5.62679425837321  L 19.4760820045558 5.42583732057417  L 20.0227790432802 4.01913875598086  L 20.0227790432802 3.01435406698565  L 19.9544419134396 2.74641148325359  L 19.4077448747153 3.28229665071771  L 19.3394077448747 3.34928229665072  L 19.2027334851936 3.55023923444977  L 19.0660592255125 3.34928229665072  L 18.8610478359909 3.28229665071771  L 17.8359908883827 2.47846889952153  L 17.6993166287016 2.3444976076555  L 17.6993166287016 2.21052631578948  L 17.4943052391799 0.736842105263164  L 17.0159453302961 0  L 15.9908883826879 0.0669856459330201  L 15.375854214123 1.13875598086125  L 15.3075170842825 1.27272727272728  L 15.2391799544419 1.33971291866029  L 13.5990888382688 1.00478468899522  L 13.3257403189066 2.47846889952153  L 13.3257403189066 3.95215311004785  L 13.2574031890661 4.01913875598086  L 12.3690205011389 5.35885167464115  L 12.3690205011389 5.49282296650718  L 12.2323462414579 5.5598086124402  L 12.1640091116173 5.5598086124402  L 11.1389521640091 5.62679425837321  L 10.1138952164009 6.43062200956938  L 9.9772209567198 6.56459330143541  L 9.84054669703871 6.56459330143541  L 9.77220956719815 6.49760765550239  L 7.85876993166287 5.89473684210527  L 7.58542141230066 6.56459330143541  L 7.58542141230066 6.63157894736842  C 7.58542141230066 6.63157894736842  6.76537585421411 7.97129186602871  6.76537585421411 7.97129186602871  C 6.62870159453303 8.23923444976077  6.42369020501138 8.37320574162679  6.21867881548973 8.44019138755981  C 6.21867881548973 8.44019138755981  5.39863325740318 8.30622009569378  5.39863325740318 8.30622009569378  L 4.30523917995441 7.83732057416268  L 4.1002277904328 7.70334928229665  L 4.03189066059224 7.63636363636364  L 4.03189066059224 7.56937799043063  L 3.82687927107059 5.96172248803828  L 3.48519362186786 4.75598086124402  L 3.28018223234621 4.42105263157895  L 2.80182232346239 5.35885167464115  L 1.98177676537584 6.43062200956938  L 1.29840546697037 7.97129186602871  L 1.29840546697037 8.03827751196172  L 1.29840546697037 8.10526315789474  L 1.23006833712981 8.10526315789474  C 1.23006833712981 8.10526315789474  0.615034168564905 8.97607655502393  0.615034168564905 8.97607655502393  C 0.615034168564905 9.24401913875598  0.410022779043257 9.64593301435407  0 10.2488038277512  C 0 10.2488038277512  0.410022779043257 11.7894736842105  0.410022779043257 11.7894736842105  L 2.46013667425966 14  L 3.14350797266512 15.4066985645933  L 3.14350797266512 15.5406698564593  L 3.0751708428246 15.6746411483254  L 3.00683371298404 15.6746411483254  L 2.46013667425966 16.3444976076555  L 2.32346241457857 16.4784688995215  L 0.956719817767639 16.7464114832536  L 1.09339407744872 17.8181818181818  L 2.11845102505693 18.3540669856459  L 3.62186788154895 18.688995215311  L 4.03189066059224 20.0287081339713  L 4.03189066059224 20.0956937799043  L 4.03189066059224 20.1626794258373  L 3.69020501138951 22.4401913875598  L 3.69020501138951 22.5071770334928  L 3.14350797266512 23.511961722488  L 3.14350797266512 23.7129186602871  L 3.00683371298404 23.7129186602871  L 1.29840546697037 23.9808612440191  L 1.29840546697037 24.6507177033493  L 0.820045558086553 26.1244019138756  L 0.615034168564905 27.799043062201  L 0.956719817767639 28.7368421052632  L 3.0751708428246 30.0095693779904  L 3.14350797266512 30.0765550239234  L 4.03189066059224 31.5502392344497  L 4.03189066059224 31.6172248803828  L 4.1002277904328 31.6842105263158  L 4.03189066059224 31.7511961722488  L 2.93849658314348 34.0956937799043  L 2.66514806378131 34.7655502392344  L 1.98177676537584 36.3062200956938  L 1.70842824601367 37.511961722488  L 1.64009111617311 37.6459330143541  C 1.64009111617311 37.6459330143541  1.64009111617311 37.7129186602871  1.64009111617311 37.7129186602871  C 1.29840546697037 37.9808612440191  1.09339407744872 38.2488038277512  0.956719817767639 38.6507177033493  C 0.888382687927076 38.7846889952153  0.888382687927076 38.9186602870813  1.0250569476082 39.0526315789474  C 1.0250569476082 39.0526315789474  1.09339407744872 39.1196172248804  1.09339407744872 39.1196172248804  L 1.77676537585419 39.8564593301435  L 2.11845102505693 40.3923444976077  L 2.25512528473801 40.3253588516746  L 2.32346241457857 40.5263157894737  L 2.32346241457857 40.5933014354067  L 2.32346241457857 40.7942583732057  L 2.32346241457857 40.8612440191387  L 2.46013667425966 41.2631578947368  L 3.0751708428246 41.4641148325359  C 3.0751708428246 41.4641148325359  5.53530751708426 42  5.53530751708426 42  C 6.35535307517081 42  7.10706150341684 41.799043062201  7.9271070615034 41.4641148325359  C 8.74715261958995 41.1291866028708  9.49886104783598 41.0622009569378  10.3189066059225 41.1961722488038  C 10.3189066059225 41.1961722488038  10.4555808656036 40.7272727272727  10.4555808656036 40.7272727272727  L 9.63553530751707 38.9186602870813  L 9.56719817767654 38.7846889952153  L 9.63553530751707 38.7846889952153  L 13.5307517084282 33.4928229665072  L 17.6993166287016 29.5406698564593  L 17.7676537585421 29.5406698564593  L 19.0660592255125 29.0717703349282  L 19.749430523918 28.3349282296651  C 19.749430523918 28.3349282296651  19.749430523918 28.2679425837321  19.749430523918 28.2679425837321  C 20.2961275626424 27.866028708134  20.7744874715262 27.5980861244019  21.3211845102506 27.3971291866029  C 21.3211845102506 27.3971291866029  20.9111617312073 27.0622009569378  20.9111617312073 27.0622009569378  L 20.0227790432802 26.1913875598086  L 20.0227790432802 26.1244019138756  L 19.9544419134396 26.1244019138756  L 19.2710706150342 25.3205741626794  L 19.2027334851936 25.1866028708134  L 19.2027334851936 25.0526315789474  L 19.5444191343963 24.6507177033493  L 18.6560364464692 24.8516746411483  C 18.6560364464692 24.8516746411483  16.742596810934 24.3827751196172  16.742596810934 24.3827751196172  C 15.9908883826879 24.0478468899522  15.5125284738041 23.6459330143541  15.375854214123 23.177033492823  C 14.9658314350797 21.9712918660287  14.8291571753986 20.8995215311005  14.8974943052392 19.9617224880383  C 14.624145785877 20.2966507177033  14.2824601366743 20.3636363636364  13.9407744874715 20.3636363636364  C 13.9407744874715 20.3636363636364  12.50569476082 20.0287081339713  12.50569476082 20.0287081339713  L 11.5489749430524 19.3588516746411  L 10.3872437357631 19.0909090909091  C 10.3872437357631 19.0909090909091  9.84054669703871 19.0909090909091  9.84054669703871 19.0909090909091  C 9.49886104783598 19.0909090909091  9.08883826879268 18.9569377990431  8.81548974943051 18.688995215311  C 8.40546697038722 18.4210526315789  8.20045558086561 18.1531100478469  8.13211845102505 17.8851674641148  C 7.99544419134396 17.3492822966507  8.13211845102505 17.0143540669856  8.61047835990887 16.6794258373206  C 9.08883826879268 16.3444976076555  9.63553530751707 15.8086124401914  10.1138952164009 15.1387559808612  C 9.63553530751707 14.5358851674641  9.43052391799542 13.933014354067  9.63553530751707 13.3301435406699  C 9.63553530751707 13.3301435406699  9.70387243735763 13.2631578947368  9.70387243735763 13.2631578947368  C 9.77220956719815 12.9282296650718  10.3189066059225 12.6602870813397  11.3439635535307 12.3253588516746  C 11.4123006833713 11.9904306220096  11.5489749430524 11.7894736842105  11.6856492027335 11.7224880382775  C 11.6856492027335 11.7224880382775  12.7107061503417 11.7894736842105  12.7107061503417 11.7894736842105  C 12.7107061503417 11.7894736842105  12.5740318906606 11.6555023923445  12.5740318906606 11.6555023923445  C 11.8906605922551 11.2535885167464  11.6856492027335 10.7846889952153  12.0273348519362 10.2488038277512  C 12.0273348519362 10.2488038277512  12.5740318906606 9.84688995215311  12.5740318906606 9.84688995215311  C 13.1890660592255 9.64593301435407  13.9407744874715 9.71291866028708  14.6924829157175 10.1148325358852  C 14.6924829157175 10.1148325358852  16.2642369020501 11.1866028708134  16.2642369020501 11.1866028708134  L 17.6993166287016 11.1866028708134  L 18.1776765375854 11.5885167464115  C 18.1776765375854 11.5885167464115  18.3143507972665 12.1244019138756  18.3143507972665 12.1244019138756  C 18.3143507972665 12.4593301435407  18.1093394077449 12.6602870813397  17.8359908883827 12.6602870813397  C 17.4943052391799 12.6602870813397  17.3576309794989 12.9952153110048  17.2892938496583 13.3971291866029  C 17.2892938496583 13.3971291866029  17.9726651480638 15.0047846889952  17.9726651480638 15.0047846889952  C 18.3826879271071 14.4019138755981  18.7927107061504 14.066985645933  19.2027334851936 14  C 19.4077448747153 14  19.6810933940774 14.133971291866  19.8861047835991 14.4019138755981  C 20.0911161731207 14.7368421052632  20.2961275626424 15.3397129186603  20.4328018223235 15.9425837320574  C 20.501138952164 16.6794258373206  20.7061503416856 17.2822966507177  20.9111617312073 17.6172248803828  C 20.9111617312073 17.6172248803828  21.4578587699317 18.3540669856459  21.4578587699317 18.3540669856459  C 22.2779043280182 19.3588516746411  22.756264236902 20.0956937799043  22.8929384965832 20.6985645933014  C 22.8929384965832 20.6985645933014  25.5580865603645 20.3636363636364  25.5580865603645 20.3636363636364  L 26.7198177676537 19.7607655502392  L 27.8132118451025 18.4210526315789  L 28.2915717539863 17.1483253588517  L 28.2915717539863 17.0813397129187  L 28.2915717539863 17.0143540669856  L 28.6332574031891 15.6746411483254  L 28.6332574031891 15.6076555023923  L 28.7015945330296 15.4736842105263  L 28.7699316628702 15.4736842105263  L 29.7949886104784 14.8038277511962  L 30 14.6698564593301  L 29.9316628701594 14.6028708133971  L 28.2232346241458 14.066985645933  L 28.0865603644647 14.066985645933  L 28.0865603644647 14  L 27.744874715262 12.9952153110048  Z " fill-rule="nonzero" fill="#4a9eff" stroke="none" transform="matrix(1 0 0 1 2021 1841 )" />
    <path d="M 27.744874715262 12.9952153110048  L 27.6082004555809 12.6602870813397  L 27.0615034168565 12.3923444976076  L 26.993166287016 12.3923444976076  L 26.5831435079727 11.9904306220096  L 24.6697038724373 11.4545454545455  L 24.1913439635535 11.4545454545455  L 23.8496583143508 11.5885167464115  L 23.0979498861048 10.1818181818182  L 23.1662870159453 10.1148325358852  L 23.7129840546697 9.44497607655503  L 23.7129840546697 8.64114832535885  L 23.7813211845102 8.50717703349282  L 24.123006833713 7.97129186602871  L 23.8496583143508 7.83732057416268  L 22.8246013667426 7.63636363636364  L 21.0478359908884 7.36842105263158  L 20.9111617312073 7.36842105263158  L 19.8861047835991 6.36363636363636  L 19.8861047835991 6.29665071770335  L 19.5444191343963 5.62679425837321  L 19.4760820045558 5.42583732057417  L 20.0227790432802 4.01913875598086  L 20.0227790432802 3.01435406698565  L 19.9544419134396 2.74641148325359  L 19.4077448747153 3.28229665071771  L 19.3394077448747 3.34928229665072  L 19.2027334851936 3.55023923444977  L 19.0660592255125 3.34928229665072  L 18.8610478359909 3.28229665071771  L 17.8359908883827 2.47846889952153  L 17.6993166287016 2.3444976076555  L 17.6993166287016 2.21052631578948  L 17.4943052391799 0.736842105263164  L 17.0159453302961 0  L 15.9908883826879 0.0669856459330201  L 15.375854214123 1.13875598086125  L 15.3075170842825 1.27272727272728  L 15.2391799544419 1.33971291866029  L 13.5990888382688 1.00478468899522  L 13.3257403189066 2.47846889952153  L 13.3257403189066 3.95215311004785  L 13.2574031890661 4.01913875598086  L 12.3690205011389 5.35885167464115  L 12.3690205011389 5.49282296650718  L 12.2323462414579 5.5598086124402  L 12.1640091116173 5.5598086124402  L 11.1389521640091 5.62679425837321  L 10.1138952164009 6.43062200956938  L 9.9772209567198 6.56459330143541  L 9.84054669703871 6.56459330143541  L 9.77220956719815 6.49760765550239  L 7.85876993166287 5.89473684210527  L 7.58542141230066 6.56459330143541  L 7.58542141230066 6.63157894736842  C 7.58542141230066 6.63157894736842  6.76537585421411 7.97129186602871  6.76537585421411 7.97129186602871  C 6.62870159453303 8.23923444976077  6.42369020501138 8.37320574162679  6.21867881548973 8.44019138755981  C 6.21867881548973 8.44019138755981  5.39863325740318 8.30622009569378  5.39863325740318 8.30622009569378  L 4.30523917995441 7.83732057416268  L 4.1002277904328 7.70334928229665  L 4.03189066059224 7.63636363636364  L 4.03189066059224 7.56937799043063  L 3.82687927107059 5.96172248803828  L 3.48519362186786 4.75598086124402  L 3.28018223234621 4.42105263157895  L 2.80182232346239 5.35885167464115  L 1.98177676537584 6.43062200956938  L 1.29840546697037 7.97129186602871  L 1.29840546697037 8.03827751196172  L 1.29840546697037 8.10526315789474  L 1.23006833712981 8.10526315789474  C 1.23006833712981 8.10526315789474  0.615034168564905 8.97607655502393  0.615034168564905 8.97607655502393  C 0.615034168564905 9.24401913875598  0.410022779043257 9.64593301435407  0 10.2488038277512  C 0 10.2488038277512  0.410022779043257 11.7894736842105  0.410022779043257 11.7894736842105  L 2.46013667425966 14  L 3.14350797266512 15.4066985645933  L 3.14350797266512 15.5406698564593  L 3.0751708428246 15.6746411483254  L 3.00683371298404 15.6746411483254  L 2.46013667425966 16.3444976076555  L 2.32346241457857 16.4784688995215  L 0.956719817767639 16.7464114832536  L 1.09339407744872 17.8181818181818  L 2.11845102505693 18.3540669856459  L 3.62186788154895 18.688995215311  L 4.03189066059224 20.0287081339713  L 4.03189066059224 20.0956937799043  L 4.03189066059224 20.1626794258373  L 3.69020501138951 22.4401913875598  L 3.69020501138951 22.5071770334928  L 3.14350797266512 23.511961722488  L 3.14350797266512 23.7129186602871  L 3.00683371298404 23.7129186602871  L 1.29840546697037 23.9808612440191  L 1.29840546697037 24.6507177033493  L 0.820045558086553 26.1244019138756  L 0.615034168564905 27.799043062201  L 0.956719817767639 28.7368421052632  L 3.0751708428246 30.0095693779904  L 3.14350797266512 30.0765550239234  L 4.03189066059224 31.5502392344497  L 4.03189066059224 31.6172248803828  L 4.1002277904328 31.6842105263158  L 4.03189066059224 31.7511961722488  L 2.93849658314348 34.0956937799043  L 2.66514806378131 34.7655502392344  L 1.98177676537584 36.3062200956938  L 1.70842824601367 37.511961722488  L 1.64009111617311 37.6459330143541  C 1.64009111617311 37.6459330143541  1.64009111617311 37.7129186602871  1.64009111617311 37.7129186602871  C 1.29840546697037 37.9808612440191  1.09339407744872 38.2488038277512  0.956719817767639 38.6507177033493  C 0.888382687927076 38.7846889952153  0.888382687927076 38.9186602870813  1.0250569476082 39.0526315789474  C 1.0250569476082 39.0526315789474  1.09339407744872 39.1196172248804  1.09339407744872 39.1196172248804  L 1.77676537585419 39.8564593301435  L 2.11845102505693 40.3923444976077  L 2.25512528473801 40.3253588516746  L 2.32346241457857 40.5263157894737  L 2.32346241457857 40.5933014354067  L 2.32346241457857 40.7942583732057  L 2.32346241457857 40.8612440191387  L 2.46013667425966 41.2631578947368  L 3.0751708428246 41.4641148325359  C 3.0751708428246 41.4641148325359  5.53530751708426 42  5.53530751708426 42  C 6.35535307517081 42  7.10706150341684 41.799043062201  7.9271070615034 41.4641148325359  C 8.74715261958995 41.1291866028708  9.49886104783598 41.0622009569378  10.3189066059225 41.1961722488038  C 10.3189066059225 41.1961722488038  10.4555808656036 40.7272727272727  10.4555808656036 40.7272727272727  L 9.63553530751707 38.9186602870813  L 9.56719817767654 38.7846889952153  L 9.63553530751707 38.7846889952153  L 13.5307517084282 33.4928229665072  L 17.6993166287016 29.5406698564593  L 17.7676537585421 29.5406698564593  L 19.0660592255125 29.0717703349282  L 19.749430523918 28.3349282296651  C 19.749430523918 28.3349282296651  19.749430523918 28.2679425837321  19.749430523918 28.2679425837321  C 20.2961275626424 27.866028708134  20.7744874715262 27.5980861244019  21.3211845102506 27.3971291866029  C 21.3211845102506 27.3971291866029  20.9111617312073 27.0622009569378  20.9111617312073 27.0622009569378  L 20.0227790432802 26.1913875598086  L 20.0227790432802 26.1244019138756  L 19.9544419134396 26.1244019138756  L 19.2710706150342 25.3205741626794  L 19.2027334851936 25.1866028708134  L 19.2027334851936 25.0526315789474  L 19.5444191343963 24.6507177033493  L 18.6560364464692 24.8516746411483  C 18.6560364464692 24.8516746411483  16.742596810934 24.3827751196172  16.742596810934 24.3827751196172  C 15.9908883826879 24.0478468899522  15.5125284738041 23.6459330143541  15.375854214123 23.177033492823  C 14.9658314350797 21.9712918660287  14.8291571753986 20.8995215311005  14.8974943052392 19.9617224880383  C 14.624145785877 20.2966507177033  14.2824601366743 20.3636363636364  13.9407744874715 20.3636363636364  C 13.9407744874715 20.3636363636364  12.50569476082 20.0287081339713  12.50569476082 20.0287081339713  L 11.5489749430524 19.3588516746411  L 10.3872437357631 19.0909090909091  C 10.3872437357631 19.0909090909091  9.84054669703871 19.0909090909091  9.84054669703871 19.0909090909091  C 9.49886104783598 19.0909090909091  9.08883826879268 18.9569377990431  8.81548974943051 18.688995215311  C 8.40546697038722 18.4210526315789  8.20045558086561 18.1531100478469  8.13211845102505 17.8851674641148  C 7.99544419134396 17.3492822966507  8.13211845102505 17.0143540669856  8.61047835990887 16.6794258373206  C 9.08883826879268 16.3444976076555  9.63553530751707 15.8086124401914  10.1138952164009 15.1387559808612  C 9.63553530751707 14.5358851674641  9.43052391799542 13.933014354067  9.63553530751707 13.3301435406699  C 9.63553530751707 13.3301435406699  9.70387243735763 13.2631578947368  9.70387243735763 13.2631578947368  C 9.77220956719815 12.9282296650718  10.3189066059225 12.6602870813397  11.3439635535307 12.3253588516746  C 11.4123006833713 11.9904306220096  11.5489749430524 11.7894736842105  11.6856492027335 11.7224880382775  C 11.6856492027335 11.7224880382775  12.7107061503417 11.7894736842105  12.7107061503417 11.7894736842105  C 12.7107061503417 11.7894736842105  12.5740318906606 11.6555023923445  12.5740318906606 11.6555023923445  C 11.8906605922551 11.2535885167464  11.6856492027335 10.7846889952153  12.0273348519362 10.2488038277512  C 12.0273348519362 10.2488038277512  12.5740318906606 9.84688995215311  12.5740318906606 9.84688995215311  C 13.1890660592255 9.64593301435407  13.9407744874715 9.71291866028708  14.6924829157175 10.1148325358852  C 14.6924829157175 10.1148325358852  16.2642369020501 11.1866028708134  16.2642369020501 11.1866028708134  L 17.6993166287016 11.1866028708134  L 18.1776765375854 11.5885167464115  C 18.1776765375854 11.5885167464115  18.3143507972665 12.1244019138756  18.3143507972665 12.1244019138756  C 18.3143507972665 12.4593301435407  18.1093394077449 12.6602870813397  17.8359908883827 12.6602870813397  C 17.4943052391799 12.6602870813397  17.3576309794989 12.9952153110048  17.2892938496583 13.3971291866029  C 17.2892938496583 13.3971291866029  17.9726651480638 15.0047846889952  17.9726651480638 15.0047846889952  C 18.3826879271071 14.4019138755981  18.7927107061504 14.066985645933  19.2027334851936 14  C 19.4077448747153 14  19.6810933940774 14.133971291866  19.8861047835991 14.4019138755981  C 20.0911161731207 14.7368421052632  20.2961275626424 15.3397129186603  20.4328018223235 15.9425837320574  C 20.501138952164 16.6794258373206  20.7061503416856 17.2822966507177  20.9111617312073 17.6172248803828  C 20.9111617312073 17.6172248803828  21.4578587699317 18.3540669856459  21.4578587699317 18.3540669856459  C 22.2779043280182 19.3588516746411  22.756264236902 20.0956937799043  22.8929384965832 20.6985645933014  C 22.8929384965832 20.6985645933014  25.5580865603645 20.3636363636364  25.5580865603645 20.3636363636364  L 26.7198177676537 19.7607655502392  L 27.8132118451025 18.4210526315789  L 28.2915717539863 17.1483253588517  L 28.2915717539863 17.0813397129187  L 28.2915717539863 17.0143540669856  L 28.6332574031891 15.6746411483254  L 28.6332574031891 15.6076555023923  L 28.7015945330296 15.4736842105263  L 28.7699316628702 15.4736842105263  L 29.7949886104784 14.8038277511962  L 30 14.6698564593301  L 29.9316628701594 14.6028708133971  L 28.2232346241458 14.066985645933  L 28.0865603644647 14.066985645933  L 28.0865603644647 14  L 27.744874715262 12.9952153110048  Z " stroke-width="2" stroke="#ffffff" fill="none" transform="matrix(1 0 0 1 2021 1841 )" mask="url(#clip1592)" />
  </g>
</svg>