<?xml version="1.0" encoding="utf-8"?>
<svg version="1.1" xmlns:xlink="http://www.w3.org/1999/xlink" width="3px" height="7px" xmlns="http://www.w3.org/2000/svg">
  <g transform="matrix(1 0 0 1 -225 -2118 )">
    <path d="M 1.49988980657435 0.95141735016864  C 1.1242892829155 0.95141735016864  0.829174585754981 1.19734626446905  0.829174585754981 1.51034670085141  L 0.829174585754981 3.74606410358274  C 0.829174585754981 4.05906453996511  1.1242892829155 4.30499345426551  1.49988980657435 4.30499345426551  C 1.8754903302332 4.30499345426551  2.17060502739372 4.05906453996511  2.17060502739372 3.74606410358274  L 2.17060502739372 1.51034670085141  C 2.17060502739372 1.19734626446905  1.8754903302332 0.95141735016864  1.49988980657435 0.95141735016864  Z M 2.17060502739372 5.98178150631315  C 2.17060502739372 5.60618098265434  1.8754903302332 5.31106628549378  1.49988980657435 5.31106628549378  C 1.1242892829155 5.31106628549378  0.829174585754981 5.60618098265434  0.829174585754981 5.98178150631315  C 0.829174585754981 6.35738202997197  1.1242892829155 6.65249672713253  1.49988980657435 6.65249672713253  C 1.8754903302332 6.65249672713253  2.17060502739372 6.35738202997197  2.17060502739372 5.98178150631315  Z " fill-rule="nonzero" fill="#ffffff" stroke="none" transform="matrix(1 0 0 1 225 2118 )" />
  </g>
</svg>