<?xml version="1.0" encoding="utf-8"?>
<svg version="1.1" xmlns:xlink="http://www.w3.org/1999/xlink" width="14px" height="13px" xmlns="http://www.w3.org/2000/svg">
  <g transform="matrix(1 0 0 1 -220 -1850 )">
    <path d="M 4 10.6190476190477  C 4 10.6190476190477  4 10.047619047619  4 10.047619047619  C 4 9.23177698859899  3.43009199065692 8.54904407734102  2.66666666666666 8.37581311645351  L 2.66666666666666 8.66666666666663  L 1.33333333333333 8.66666666666663  C 1.33333333333333 8.66666666666663  1.33333333333333 8.54882603569308  1.33333120726163 8.37581313461283  C 0.569908009343074 8.54904407734102  0 9.23177698859899  0 10.047619047619  C 0 10.047619047619  0 10.6190476190477  0 10.6190476190477  C 0 11.5658214759004  0.767511857432927 12.3333333333334  1.71428571428571 12.3333333333334  C 1.71428571428571 12.3333333333334  2.28571428571428 12.3333333333334  2.28571428571428 12.3333333333334  C 3.23248814256707 12.3333333333334  4 11.5658214759004  4 10.6190476190477  Z M 14 10.6190476190477  C 14 10.6190476190477  14 10.047619047619  14 10.047619047619  C 14 9.23167866934637  13.4299546201813 8.5488795234296  12.6663927777444 8.37575052563056  L 12.6666666666667 8.66666666666663  L 11.3333333333333 8.66666666666663  L 11.3333312072616 8.37581313461283  C 10.5699080093431 8.54904407734102  10 9.23177698859899  10 10.047619047619  C 10 10.047619047619  10 10.6190476190477  10 10.6190476190477  C 10 11.5658214759004  10.7675118574329 12.3333333333334  11.7142857142857 12.3333333333334  C 11.7142857142857 12.3333333333334  12.2857142857143 12.3333333333334  12.2857142857143 12.3333333333334  C 13.2324881425671 12.3333333333334  14 11.5658214759004  14 10.6190476190477  Z M 4.66666666666666 2.66666666666663  C 4.66666666666666 3.65766320130251  5.38742564517927 4.48031745648473  6.33333333333333 4.6390128074695  L 6.33333333333333 4  L 7.66666666666666 4  L 7.66667304718706 4.63901278282162  C 8.61257435482072 4.48031745648473  9.33333333333333 3.65766320130251  9.33333333333333 2.66666666666663  C 9.33333333333333 2.66666666666663  9.33333333333333 2  9.33333333333333 2  C 9.33333333333333 0.895430500338421  8.43790283299492 0  7.33333333333333 0  C 7.33333333333333 0  6.66666666666666 0  6.66666666666666 0  C 5.56209716700507 0  4.66666666666666 0.895430500338421  4.66666666666666 2  C 4.66666666666666 2  4.66666666666666 2.66666666666663  4.66666666666666 2.66666666666663  Z M 9 10.047619047619  C 9 9.23177698859899  8.43009199065692 8.54904407734102  7.66666666666666 8.37581313437784  L 7.66666666666666 8.66666666666663  L 6.33333333333333 8.66666666666663  L 6.3333312072616 8.37581313461283  C 5.56990800934306 8.54904407734102  5 9.23177698859899  5 10.047619047619  C 5 10.047619047619  5 10.6190476190477  5 10.6190476190477  C 5 11.5658214759004  5.76751185743293 12.3333333333334  6.71428571428572 12.3333333333334  C 6.71428571428572 12.3333333333334  7.28571428571428 12.3333333333334  7.28571428571428 12.3333333333334  C 8.23248814256707 12.3333333333334  9 11.5658214759004  9 10.6190476190477  C 9 10.6190476190477  9 10.047619047619  9 10.047619047619  Z M 11.3333333333333 7  L 7.66666666666666 6.99999999313343  L 7.66666639653739 5.66735177000953  C 9.59332850051146 5.66699178022293  11.3333333333333 5.66666666666663  11.3333333333333 5.66666666666663  C 12.0473984644277 5.66666666666663  12.6303596253311 6.22798949026412  12.6650348975887 6.93345321900438  L 12.6663927161958 8.37575051327315  C 12.543957990376 8.34798983123142  12.4165477422974 8.33333333333337  12.2857142857143 8.33333333333337  C 12.2857142857143 8.33333333333337  11.7142857142857 8.33333333333337  11.7142857142857 8.33333333333337  C 11.5833546278686 8.33333333333337  11.4558518607585 8.3480117131777  11.3333333333333 8.37581323070083  L 11.3333333333333 7  Z M 6.33333333333333 5.66760090512435  L 6.33333337297471 7  L 2.66666666666666 7  L 2.66666679561917 8.37581268144095  C 2.54414813924152 8.3480117131777  2.41664537213137 8.33333333333337  2.28571428571428 8.33333333333337  C 2.28571428571428 8.33333333333337  1.71428571428571 8.33333333333337  1.71428571428571 8.33333333333337  C 1.58335462786862 8.33333333333337  1.45585186075848 8.3480117131777  1.33333333333333 8.37581323070071  C 1.33333333333333 7.89816427566313  1.33333333333333 7  1.33333333333333 7  C 1.33333333333333 6.28593486890566  1.89465615693084 5.70297370800222  2.60011988567102 5.66829843574465  C 2.60011988567102 5.66829843574465  4.38037791953336 5.66796580102459  6.33333333333333 5.66760090512435  Z M 6.33333333333333 8.37581592660069  L 6.33333333331356 7  L 7.66666666666666 6.99999526427712  L 7.66666737331613 8.37581281252744  C 7.54414854004014 8.34801175931852  7.41664557791907 8.33333333333337  7.28571428571428 8.33333333333337  C 7.28571428571428 8.33333333333337  6.71428571428572 8.33333333333337  6.71428571428572 8.33333333333337  C 6.58335442208092 8.33333333333337  6.45585145995983 8.34801175931852  6.33333333333333 8.37581592660069  Z M 7.66666666603368 5.66735176995917  C 7.22579197761292 5.66743414578661  6.77514346979505 5.66751834781655  6.33333333333333 5.66760335524157  L 6.33333321902132 4.63901383410291  C 6.44173607954693 4.65720039461905  6.55309588995506 4.66666666666663  6.66666666666666 4.66666666666663  C 6.66666666666666 4.66666666666663  7.33333333333333 4.66666666666663  7.33333333333333 4.66666666666663  C 7.44690411004493 4.66666666666663  7.55826392045305 4.65720039461905  7.66666666666666 4.63901318912156  L 7.66666666603368 5.66735176995917  Z " fill-rule="nonzero" fill="#c9ced6" stroke="none" transform="matrix(1 0 0 1 220 1850 )" />
  </g>
</svg>