<?xml version="1.0" encoding="utf-8"?>
<svg version="1.1" xmlns:xlink="http://www.w3.org/1999/xlink" width="16px" height="16px" xmlns="http://www.w3.org/2000/svg">
  <g transform="matrix(1 0 0 1 -1497 -1104 )">
    <path d="M 4.78793706574288 1.66666666666666  C 4.78793706574288 0.746192083615345  5.53412914935825 0  6.45460373240962 0  C 6.45460373240962 0  8.95460373240962 0  8.95460373240962 0  C 9.875078315461 0  10.6212703990764 0.746192083615345  10.6212703990764 1.66666666666666  C 10.6212703990764 1.66666666666666  10.6215121249322 1.92031188884922  10.6215121249322 1.92031188884922  C 10.9056453623241 2.05878552549162  11.1784703337455 2.21685939918536  11.4382275093619 2.39277398009589  C 11.4382275093619 2.39277398009589  11.6589291727291 2.26575923896205  11.6589291727291 2.26575923896205  C 12.4560835451894 1.80552194743639  13.4754008875107 2.07864720614245  13.9356381790365 2.87580157860279  C 13.9356381790365 2.87580157860279  15.1856381790365 5.04086508806388  15.1856381790365 5.04086508806388  C 15.645875470562 5.83801946052422  15.3727502118561 6.85733680284562  14.5755958393956 7.31757409437127  C 14.5755958393956 7.31757409437127  14.3548585223039 7.44521716298992  14.3548585223039 7.44521716298992  C 14.3657389375753 7.60095338367184  14.3712703990761 7.75816405414086  14.3712703990761 7.91666666666666  C 14.3712703990761 8.07502788524731  14.3657488019719 8.23209946572444  14.3548876275054 8.38769938835608  C 14.3548876275054 8.38769938835608  14.5755958393956 8.51575923896205  14.5755958393956 8.51575923896205  C 15.3727502118561 8.97599653048771  15.645875470562 9.99531387280911  15.1856381790365 10.7924682452694  C 15.1856381790365 10.7924682452694  13.9356381790365 12.9575317547305  13.9356381790365 12.9575317547305  C 13.4754008875107 13.7546861271909  12.4560835451894 14.0278113858969  11.6589291727291 13.5675740943713  C 11.6589291727291 13.5675740943713  11.4382275093619 13.4405593532374  11.4382275093619 13.4405593532374  C 11.1784703337455 13.616473934148  10.9056453623241 13.7745478078417  10.6215121249322 13.9130214444841  C 10.6215121249322 13.9130214444841  10.6212703990764 14.1666666666667  10.6212703990764 14.1666666666667  C 10.6212703990764 15.087141249718  9.875078315461 15.8333333333333  8.95460373240962 15.8333333333333  C 8.95460373240962 15.8333333333333  6.45460373240962 15.8333333333333  6.45460373240962 15.8333333333333  C 5.53412914935825 15.8333333333333  4.78793706574288 15.087141249718  4.78793706574288 14.1666666666667  C 4.78793706574288 14.1666666666667  4.78811015834071 13.9132235903199  4.78811015834071 13.9132235903199  C 4.50374233352704 13.7746600861818  4.23069972012922 13.6164646299653  3.97074600476185 13.4404009082855  C 3.97074600476185 13.4404009082855  3.75027829209012 13.5675740943713  3.75027829209012 13.5675740943713  C 2.95312391962989 14.0278113858969  1.93380657730859 13.7546861271909  1.47356928578279 12.9575317547305  C 1.47356928578279 12.9575317547305  0.223569285782787 10.7924682452694  0.223569285782787 10.7924682452694  C -0.236668005742786 9.99531387280911  0.0364572529631459 8.97599653048771  0.8336116254236 8.51575923896205  C 0.8336116254236 8.51575923896205  1.05431983731364 8.38769938835608  1.05431983731364 8.38769938835608  C 1.04345866284712 8.23209946572444  1.03793706574288 8.07502788524731  1.03793706574288 7.91666666666666  C 1.03793706574288 7.75816405414086  1.0434685272437 7.60095338367184  1.05434894251516 7.44521716298992  C 1.05434894251516 7.44521716298992  0.8336116254236 7.31757409437128  0.8336116254236 7.31757409437128  C 0.0364572529631459 6.85733680284562  -0.236668005742786 5.83801946052422  0.223569285782787 5.04086508806388  C 0.223569285782787 5.04086508806388  1.47356928578279 2.87580157860279  1.47356928578279 2.87580157860279  C 1.93380657730859 2.07864720614245  2.95312391962989 1.80552194743639  3.75027829209012 2.26575923896205  C 3.75027829209012 2.26575923896205  3.97074600476185 2.39293242504782  3.97074600476185 2.39293242504782  C 4.23069972012922 2.21686870336806  4.50374233352704 2.05867324715156  4.78811015834071 1.9201097430134  C 4.78811015834071 1.9201097430134  4.78793706574288 1.66666666666666  4.78793706574288 1.66666666666666  Z M 8.95460373240985 1.66666666666667  L 6.45460368382237 1.66652438245049  L 6.4554885461182 2.96164633493283  C 6.4554885461182 2.96164633493283  5.51816706641216 3.41837363457432  5.51816706641216 3.41837363457432  C 5.35892215692274 3.49596867434187  5.20392991576318 3.5820226597308  5.05382358877318 3.67611896081199  C 5.05382358877318 3.67611896081199  4.90536935338946 3.77288060305249  4.90536935338946 3.77288060305249  L 4.04162230236216 4.35788674608411  L 2.91694495875709 3.70913491193612  L 1.66694495875709 5.87419842139721  L 2.78948622938924 6.52331618709494  C 2.78948622938924 6.52331618709494  2.71696291226749 7.56137466538584  2.71696291226749 7.56137466538584  C 2.70873888306255 7.6790888513989  2.70460373240985 7.7975578143768  2.70460373240985 7.91666666666666  C 2.70460373240985 7.91666666666666  2.70769382361232 8.09467797161729  2.70769382361232 8.09467797161729  L 2.71694102358583 8.27164522540764  L 2.78927622959986 9.3079376166235  L 1.66694495875709 9.95913491193611  L 2.91750444891181 12.1238755441554  L 4.04162230236216 11.4754465872492  C 4.04162230236216 11.4754465872492  4.90536935338946 12.0604527302808  4.90536935338946 12.0604527302808  C 5.05214804361754 12.1598642829425  5.20402372996159 12.251372396555  5.36036316658237 12.3345604411891  C 5.36036316658237 12.3345604411891  5.51816706641216 12.414959698759  5.51816706641216 12.414959698759  L 6.4554885461182 12.8716869984005  L 6.45460373240985 14.1666666666667  L 8.95460373240985 14.1666666666667  L 8.95583800855252 12.8707348868539  C 8.95583800855252 12.8707348868539  9.89135107697098 12.4148083014975  9.89135107697098 12.4148083014975  C 10.0504651869223 12.3372633101114  10.205332891381 12.2512729526825  10.3553224363759 12.1572528859913  C 10.3553224363759 12.1572528859913  10.503662529921 12.0605716442415  10.503662529921 12.0605716442415  L 11.3664355777428 11.4762784143499  L 12.4922625060626 12.1241984213972  L 13.7418745828347 9.95891038761791  L 12.6199312352196 9.30793761662375  C 12.6199312352196 9.30793761662375  12.6922664412339 8.27164522540764  12.6922664412339 8.27164522540764  C 12.700475919595 8.15403416945879  12.7046037324099 8.0356697908292  12.7046037324099 7.91666666666666  C 12.7046037324099 7.91666666666666  12.7015081534328 7.73849766617245  12.7015081534328 7.73849766617245  L 12.692244552552 7.56137466538583  L 12.6197212354305 6.52331618709471  L 13.7422625060626 5.87419842139721  L 12.4920124071421 3.70927907567703  L 11.3664355777428 4.35705491898343  C 11.3664355777428 4.35705491898343  10.503662529921 3.77276168909182  10.503662529921 3.77276168909182  C 10.356995286121 3.67343466697905  10.2052392982 3.58199880186852  10.0490263201295 3.4988697505406  C 10.0490263201295 3.4988697505406  9.89135107697098 3.41852503183577  9.89135107697098 3.41852503183577  L 8.95583800855275 2.96259844647938  L 8.95460373240985 1.66666666666667  Z " fill-rule="nonzero" fill="#5f6a7a" stroke="none" transform="matrix(1 0 0 1 1497 1104 )" />
  </g>
</svg>