<?xml version="1.0" encoding="utf-8"?>
<svg version="1.1" xmlns:xlink="http://www.w3.org/1999/xlink" width="15px" height="15px" xmlns="http://www.w3.org/2000/svg">
  <g transform="matrix(1 0 0 1 -1401 -1104 )">
    <path d="M 7.08333333333348 14.1666666666667  C 3.17131635558326 14.1666666666667  0 10.9953503110833  0 7.08333333333333  C 0 3.17131635558333  3.17131635558326 0  7.08333333333348 0  C 10.9953503110835 0  14.1666666666667 3.17131635558333  14.1666666666667 7.08333333333333  C 14.1666666666667 10.9953503110833  10.9953503110835 14.1666666666667  7.08333333333348 14.1666666666667  Z M 7.08333333333348 12.5  C 10.0748757280323 12.5  12.5000000000002 10.074875728032  12.5000000000002 7.08333333333334  C 12.5000000000002 4.09179093863466  10.0748757280323 1.66666666666667  7.08333333333348 1.66666666666667  C 4.09179093863486 1.66666666666667  1.66666666666697 4.09179093863466  1.66666666666697 7.08333333333334  C 1.66666666666697 10.074875728032  4.09179093863486 12.5  7.08333333333348 12.5  Z " fill-rule="nonzero" fill="#5f6a7a" stroke="none" transform="matrix(1 0 0 1 1401 1104 )" />
  </g>
</svg>