<?xml version="1.0" encoding="utf-8"?>
<svg version="1.1" xmlns:xlink="http://www.w3.org/1999/xlink" width="8px" height="8px" xmlns="http://www.w3.org/2000/svg">
  <g transform="matrix(1 0 0 1 -1501 -1108 )">
    <path d="M 3.7046037324094 7.24999999999999  C 1.8636545664092 7.24999999999999  0.371270399075911 5.75761583266666  0.371270399075911 3.91666666666666  C 0.371270399075911 2.07571750066666  1.8636545664092 0.583333333333329  3.7046037324094 0.583333333333329  C 5.54555289840937 0.583333333333329  7.03793706574265 2.07571750066666  7.03793706574265 3.91666666666666  C 7.03793706574265 5.75761583266666  5.54555289840937 7.24999999999999  3.7046037324094 7.24999999999999  Z M 3.70460373240985 5.58333333333333  C 4.62507831535845 5.58333333333333  5.37127039907637 4.83714124961534  5.37127039907637 3.91666666666666  C 5.37127039907637 2.99619208371799  4.62507831535845 2.25  3.70460373240985 2.25  C 2.78412914946102 2.25  2.03793706574311 2.99619208371799  2.03793706574311 3.91666666666666  C 2.03793706574311 4.83714124961534  2.78412914946102 5.58333333333333  3.70460373240985 5.58333333333333  Z " fill-rule="nonzero" fill="#5f6a7a" stroke="none" transform="matrix(1 0 0 1 1501 1108 )" />
  </g>
</svg>