<?xml version="1.0" encoding="utf-8"?>
<svg version="1.1" xmlns:xlink="http://www.w3.org/1999/xlink" width="6px" height="12px" xmlns="http://www.w3.org/2000/svg">
  <g transform="matrix(1 0 0 1 -487 -1161 )">
    <path d="M 0.0668335279915365 11.0347528975506  C 0.0668335279915365 11.0347528975506  4.80306588457442 0.368781869170239  4.80306588457442 0.368781869170239  C 4.95910021462808 0.0393632170261722  5.3385726650426 -0.0941600735406353  5.65064132514991 0.070549252531401  C 5.94784957287116 0.227415277361912  6.07673324616843 0.598213769883585  5.95354561915372 0.917736424136417  C 5.95354561915372 0.917736424136417  5.93316647200841 0.965247102449317  5.93316647200841 0.965247102449317  C 5.93316647200841 0.965247102449317  1.19693411542551 11.6312181308297  1.19693411542551 11.6312181308297  C 1.04089978537186 11.9606367829738  0.661427334957331 12.0941600735406  0.34935867485002 11.9294507474686  C 0.0521504271287719 11.7725847226381  -0.0767332461684148 11.4017862301163  0.0464543808462964 11.0822635758635  C 0.0464543808462964 11.0822635758635  0.0668335279915365 11.0347528975506  0.0668335279915365 11.0347528975506  Z " fill-rule="nonzero" fill="#5f6a7a" stroke="none" transform="matrix(1 0 0 1 487 1161 )" />
  </g>
</svg>