<?xml version="1.0" encoding="utf-8"?>
<svg version="1.1" xmlns:xlink="http://www.w3.org/1999/xlink" width="10px" height="10px" xmlns="http://www.w3.org/2000/svg">
  <g transform="matrix(1 0 0 1 -829 -1244 )">
    <path d="M 834 1245  C 836.24 1245  838 1246.76  838 1249  C 838 1251.24  836.24 1253  834 1253  C 831.76 1253  830 1251.24  830 1249  C 830 1246.76  831.76 1245  834 1245  Z " fill-rule="nonzero" fill="#ffffff" stroke="none" />
    <path d="M 834 1245  C 836.24 1245  838 1246.76  838 1249  C 838 1251.24  836.24 1253  834 1253  C 831.76 1253  830 1251.24  830 1249  C 830 1246.76  831.76 1245  834 1245  Z " stroke-width="2" stroke="#409eff" fill="none" />
  </g>
</svg>