<?xml version="1.0" encoding="utf-8"?>
<svg version="1.1" xmlns:xlink="http://www.w3.org/1999/xlink" width="10px" height="10px" xmlns="http://www.w3.org/2000/svg">
  <g transform="matrix(1 0 0 1 -1030 -437 )">
    <path d="M 1035 438  C 1037.24 438  1039 439.76  1039 442  C 1039 444.24  1037.24 446  1035 446  C 1032.76 446  1031 444.24  1031 442  C 1031 439.76  1032.76 438  1035 438  Z " fill-rule="nonzero" fill="#ffffff" stroke="none" />
    <path d="M 1035 438  C 1037.24 438  1039 439.76  1039 442  C 1039 444.24  1037.24 446  1035 446  C 1032.76 446  1031 444.24  1031 442  C 1031 439.76  1032.76 438  1035 438  Z " stroke-width="2" stroke="#409eff" fill="none" />
  </g>
</svg>