<?xml version="1.0" encoding="utf-8"?>
<svg version="1.1" xmlns:xlink="http://www.w3.org/1999/xlink" width="200px" height="134px" xmlns="http://www.w3.org/2000/svg">
  <g transform="matrix(1 0 0 1 -1183 -112 )">
    <path d="M 1184 116  A 3 3 0 0 1 1187 113 L 1379 113  A 3 3 0 0 1 1382 116 L 1382 242  A 3 3 0 0 1 1379 245 L 1187 245  A 3 3 0 0 1 1184 242 L 1184 116  Z " fill-rule="nonzero" fill="#ff3399" stroke="none" fill-opacity="0.0980392156862745" />
    <path d="M 1183.5 116  A 3.5 3.5 0 0 1 1187 112.5 L 1379 112.5  A 3.5 3.5 0 0 1 1382.5 116 L 1382.5 242  A 3.5 3.5 0 0 1 1379 245.5 L 1187 245.5  A 3.5 3.5 0 0 1 1183.5 242 L 1183.5 116  Z " stroke-width="1" stroke-dasharray="9,4" stroke="#ff3399" fill="none" stroke-dashoffset="0.5" />
  </g>
</svg>