<?xml version="1.0" encoding="utf-8"?>
<svg version="1.1" xmlns:xlink="http://www.w3.org/1999/xlink" width="12px" height="12px" xmlns="http://www.w3.org/2000/svg">
  <g transform="matrix(1 0 0 1 -469 -75 )">
    <path d="M 6.68045789339328 0.862361701932514  L 6.68045981600062 5.34721018678101  L 11.1653063782418 5.34721018678101  C 11.4537912267266 5.34721018678101  11.6804578933933 5.64054352011431  11.6804578933933 6.01387685344753  C 11.6804578933933 6.38721018678098  11.4537912267266 6.68054352011427  11.1653063782418 6.68054352011427  L 6.68045789339328 6.68054352030117  L 6.68045789339328 11.165392004963  C 6.68045789339328 11.4538768534478  6.38712456005987 11.6805435201145  6.01379122672654 11.6805435201145  C 5.6404578933932 11.6805435201145  5.3471245600598 11.4538768534478  5.3471245600598 11.165392004963  L 5.34712263745246 6.68054352011427  L 0.862276075211412 6.68054352011427  C 0.573791226726598 6.68054352011427  0.34712456005991 6.38721018678098  0.34712456005991 6.01387685344753  C 0.34712456005991 5.64054352011431  0.573791226726598 5.34721018678101  0.862276075211412 5.34721018678101  L 5.3471245600598 5.34721018659411  L 5.3471245600598 0.862361701932514  C 5.3471245600598 0.5738768534477  5.6404578933932 0.347210186781012  6.01379122672654 0.347210186781012  C 6.38712456005987 0.347210186781012  6.68045789339328 0.5738768534477  6.68045789339328 0.862361701932514  Z " fill-rule="nonzero" fill="#929aa6" stroke="none" transform="matrix(1 0 0 1 469 75 )" />
  </g>
</svg>