<?xml version="1.0" encoding="utf-8"?>
<svg version="1.1" xmlns:xlink="http://www.w3.org/1999/xlink" width="1419px" height="346px" xmlns="http://www.w3.org/2000/svg">
  <g transform="matrix(1 0 0 1 -10 -193 )">
    <path d="M 11 199  A 5 5 0 0 1 16 194 L 1423 194  A 5 5 0 0 1 1428 199 L 1428 533  A 5 5 0 0 1 1423 538 L 16 538  A 5 5 0 0 1 11 533 L 11 199  Z " fill-rule="nonzero" fill="#ffffff" stroke="none" />
    <path d="M 10.5 199  A 5.5 5.5 0 0 1 16 193.5 L 1423 193.5  A 5.5 5.5 0 0 1 1428.5 199 L 1428.5 533  A 5.5 5.5 0 0 1 1423 538.5 L 16 538.5  A 5.5 5.5 0 0 1 10.5 533 L 10.5 199  Z " stroke-width="1" stroke="#797979" fill="none" stroke-opacity="0.133333333333333" />
  </g>
</svg>