<?xml version="1.0" encoding="utf-8"?>
<svg version="1.1" xmlns:xlink="http://www.w3.org/1999/xlink" width="14px" height="14px" xmlns="http://www.w3.org/2000/svg">
  <g transform="matrix(1 0 0 1 -1361 -214 )">
    <path d="M 0.666666666666629 11.3333333333332  C 0.666666666666629 11.3333333333332  0.666666666666629 2.66666666666652  0.666666666666629 2.66666666666652  C 0.666666666666629 1.56209716700493  1.56209716700505 0.666666666666515  2.66666666666663 0.666666666666515  C 2.66666666666663 0.666666666666515  11.3333333333333 0.666666666666515  11.3333333333333 0.666666666666515  C 12.4379028329948 0.666666666666515  13.3333333333333 1.56209716700493  13.3333333333333 2.66666666666652  C 13.3333333333333 2.66666666666652  13.3333333333333 11.3333333333332  13.3333333333333 11.3333333333332  C 13.3333333333333 12.4379028329948  12.4379028329948 13.3333333333332  11.3333333333333 13.3333333333332  C 11.3333333333333 13.3333333333332  2.66666666666663 13.3333333333332  2.66666666666663 13.3333333333332  C 1.56209716700505 13.3333333333332  0.666666666666629 12.4379028329948  0.666666666666629 11.3333333333332  Z M 4.33333333333326 4.33266666666648  L 4.33333333333326 1.99966666666648  C 4.33333333333326 1.99966666666648  2.66666666666663 1.99999999999982  2.66666666666663 1.99999999999982  C 2.31521273495616 1.99999999999982  2.02727829270953 2.27195926353235  2.00182857881043 2.61691255171368  C 2.00182857881043 2.61691255171368  2.00033333333329 4.33266666666648  2.00033333333329 4.33266666666648  L 4.33333333333326 4.33266666666648  Z M 2 11.3333333333332  C 2 11.6847872650437  2.27195926353249 11.9727217072903  2.61691255171388 11.9981714211894  C 2.61691255171388 11.9981714211894  11.3333333333333 11.9999999999999  11.3333333333333 11.9999999999999  C 11.6847872650438 11.9999999999999  11.9727217072905 11.7280407364673  11.9981714211895 11.383087448286  L 12.0003333333333 5.66666666666652  L 2.00033333333329 5.66666666666652  C 2.00033333333329 5.66666666666652  2 11.3333333333332  2 11.3333333333332  Z M 8.33333333333337 4.33266666666648  L 8.33333333333337 1.99966666666648  L 5.66733333333332 1.99966666666648  L 5.66733333333332 4.33266666666648  L 8.33333333333337 4.33266666666648  Z M 11.3830874482861 2.00182857881028  C 11.3830874482861 2.00182857881028  9.66733333333332 1.99966666666648  9.66733333333332 1.99966666666648  L 9.66733333333332 4.33266666666648  L 12.0003333333333 4.33266666666648  C 12.0003333333333 4.33266666666648  12 2.66666666666648  12 2.66666666666648  C 12 2.31521273495598  11.7280407364674 2.02727829270933  11.3830874482861 2.00182857881028  Z " fill-rule="nonzero" fill="#5f6a7a" stroke="none" transform="matrix(1 0 0 1 1361 214 )" />
  </g>
</svg>