<?xml version="1.0" encoding="utf-8"?>
<svg version="1.1" xmlns:xlink="http://www.w3.org/1999/xlink" width="14px" height="3px" xmlns="http://www.w3.org/2000/svg">
  <g transform="matrix(1 0 0 1 -672 -355 )">
    <path d="M 2 0.500000000000227  C 2.7466666666669 0.500000000000227  3.33333333333394 0.940000000000509  3.33333333333394 1.5  C 3.33333333333394 2.06000000000017  2.7466666666669 2.50000000000045  2 2.50000000000045  C 1.25333333333401 2.50000000000045  0.66666666666697 2.06000000000017  0.66666666666697 1.5  C 0.66666666666697 0.940000000000509  1.25333333333401 0.500000000000227  2 0.500000000000227  Z M 7 0.500000000000227  C 7.7466666666669 0.500000000000227  8.33333333333394 0.940000000000509  8.33333333333394 1.5  C 8.33333333333394 2.06000000000017  7.7466666666669 2.50000000000045  7 2.50000000000045  C 6.25333333333401 2.50000000000045  5.66666666666697 2.06000000000017  5.66666666666697 1.5  C 5.66666666666697 0.940000000000509  6.25333333333401 0.500000000000227  7 0.500000000000227  Z M 13.3333333333339 1.5  C 13.3333333333339 2.06000000000017  12.7466666666669 2.50000000000045  12 2.50000000000045  C 11.253333333334 2.50000000000045  10.666666666667 2.06000000000017  10.666666666667 1.5  C 10.666666666667 0.940000000000509  11.253333333334 0.500000000000227  12 0.500000000000227  C 12.7466666666669 0.500000000000227  13.3333333333339 0.940000000000509  13.3333333333339 1.5  Z " fill-rule="nonzero" fill="#929aa6" stroke="none" transform="matrix(1 0 0 1 672 355 )" />
  </g>
</svg>