<?xml version="1.0" encoding="utf-8"?>
<svg version="1.1" xmlns:xlink="http://www.w3.org/1999/xlink" width="14px" height="4px" xmlns="http://www.w3.org/2000/svg">
  <g transform="matrix(1 0 0 1 -1397 -219 )">
    <path d="M 3.33333333333326 1.99999999999985  C 3.33333333333326 2.7363796664409  2.73637966644094 3.33333333333318  2 3.33333333333318  C 1.26362033355895 3.33333333333318  0.666666666666629 2.7363796664409  0.666666666666629 1.99999999999985  C 0.666666666666629 1.26362033355879  1.26362033355895 0.666666666666515  1.99999999999989 0.666666666666515  C 2.73637966644094 0.666666666666515  3.33333333333326 1.26362033355879  3.33333333333326 1.99999999999985  Z M 8.33333333333326 1.99999999999985  C 8.33333333333326 2.7363796664409  7.73637966644094 3.33333333333318  7 3.33333333333318  C 6.26362033355895 3.33333333333318  5.66666666666663 2.7363796664409  5.66666666666663 1.99999999999985  C 5.66666666666663 1.26362033355879  6.26362033355895 0.666666666666515  7 0.666666666666515  C 7.73637966644094 0.666666666666515  8.33333333333326 1.26362033355879  8.33333333333326 1.99999999999985  Z M 12 3.33333333333318  C 11.2636203335589 3.33333333333318  10.6666666666666 2.7363796664409  10.6666666666666 1.99999999999985  C 10.6666666666666 1.26362033355879  11.2636203335589 0.666666666666515  12 0.666666666666515  C 12.7363796664409 0.666666666666515  13.3333333333333 1.26362033355879  13.3333333333333 1.99999999999985  C 13.3333333333333 2.7363796664409  12.7363796664409 3.33333333333318  12 3.33333333333318  Z " fill-rule="nonzero" fill="#5f6a7a" stroke="none" transform="matrix(1 0 0 1 1397 219 )" />
  </g>
</svg>