<?xml version="1.0" encoding="utf-8"?>
<svg version="1.1" xmlns:xlink="http://www.w3.org/1999/xlink" width="15px" height="4px" xmlns="http://www.w3.org/2000/svg">
  <g transform="matrix(1 0 0 1 -328 -72 )">
    <path d="M 0.535714285714286 1.5  C 0.535714285714286 0.987164160871401  0.949328775210988 0.564492839308159  1.48219165133114 0.506727731325299  C 1.48219165133114 0.506727731325299  1.60714285714286 0.5  1.60714285714286 0.5  C 1.60714285714286 0.5  2.67857142857143 0.5  2.67857142857143 0.5  C 3.22803839906633 0.5  3.68090052931267 0.886040190196908  3.74279171643721 1.38337887457573  C 3.74279171643721 1.38337887457573  3.75 1.5  3.75 1.5  C 3.75 1.5  3.75 2.5  3.75 2.5  C 3.75 3.0128358391286  3.3363855105033 3.43550716069183  2.80352263438315 3.4932722686747  C 2.80352263438315 3.4932722686747  2.67857142857143 3.5  2.67857142857143 3.5  C 2.67857142857143 3.5  1.60714285714286 3.5  1.60714285714286 3.5  C 1.05767588664796 3.5  0.604813756401614 3.11395980980308  0.542922569277075 2.61662112542427  C 0.542922569277075 2.61662112542427  0.535714285714286 2.5  0.535714285714286 2.5  C 0.535714285714286 2.5  0.535714285714286 1.5  0.535714285714286 1.5  Z M 5.89285714285714 1.5  C 5.89285714285714 0.987164160871401  6.30647163235385 0.564492839308159  6.83933450847399 0.506727731325299  C 6.83933450847399 0.506727731325299  6.96428571428571 0.5  6.96428571428571 0.5  C 6.96428571428571 0.5  8.03571428571428 0.5  8.03571428571428 0.5  C 8.58518125620918 0.5  9.03804338645553 0.886040190196923  9.09993457358007 1.38337887457573  C 9.09993457358007 1.38337887457573  9.10714285714286 1.5  9.10714285714286 1.5  C 9.10714285714286 1.5  9.10714285714286 2.5  9.10714285714286 2.5  C 9.10714285714286 3.0128358391286  8.69352836764615 3.43550716069183  8.16066549152601 3.4932722686747  C 8.16066549152601 3.4932722686747  8.03571428571428 3.5  8.03571428571428 3.5  C 8.03571428571428 3.5  6.96428571428571 3.5  6.96428571428571 3.5  C 6.41481874379082 3.5  5.96195661354447 3.11395980980308  5.90006542641993 2.61662112542427  C 5.90006542641993 2.61662112542427  5.89285714285714 2.5  5.89285714285714 2.5  C 5.89285714285714 2.5  5.89285714285714 1.5  5.89285714285714 1.5  Z M 12.1964773656169 0.506727731325299  C 12.1964773656169 0.506727731325299  12.3214285714286 0.5  12.3214285714286 0.5  C 12.3214285714286 0.5  13.3928571428571 0.5  13.3928571428571 0.5  C 13.942324113352 0.5  14.3951862435984 0.886040190196923  14.4570774307229 1.38337887457573  C 14.4570774307229 1.38337887457573  14.4642857142857 1.5  14.4642857142857 1.5  C 14.4642857142857 1.5  14.4642857142857 2.5  14.4642857142857 2.5  C 14.4642857142857 3.0128358391286  14.050671224789 3.43550716069183  13.5178083486689 3.4932722686747  C 13.5178083486689 3.4932722686747  13.3928571428571 3.5  13.3928571428571 3.5  C 13.3928571428571 3.5  12.3214285714286 3.5  12.3214285714286 3.5  C 11.7719616009337 3.5  11.3190994706873 3.11395980980308  11.2572082835628 2.61662112542427  C 11.2572082835628 2.61662112542427  11.25 2.5  11.25 2.5  C 11.25 2.5  11.25 1.5  11.25 1.5  C 11.25 0.987164160871401  11.6636144894967 0.564492839308159  12.1964773656169 0.506727731325299  Z " fill-rule="nonzero" fill="#ffffff" stroke="none" fill-opacity="0" transform="matrix(1 0 0 1 328 72 )" />
  </g>
</svg>