<?xml version="1.0" encoding="utf-8"?>
<svg version="1.1" xmlns:xlink="http://www.w3.org/1999/xlink" width="14px" height="14px" xmlns="http://www.w3.org/2000/svg">
  <g transform="matrix(1 0 0 1 -1328 -306 )">
    <path d="M 2.00000000000006 11.0570000000006  L 5.02859547920906 8.02859547920957  C 5.29052462466785 7.80791139190415  5.72475759968506 7.78194855810351  5.97140452079111 8.02859547920957  C 6.20571909584186 8.26291005426033  6.22915055334693 8.62825060035551  6.04169889330632 8.88877036961516  C 6.04169889330632 8.88877036961516  5.97140452079111 8.97140452079164  5.97140452079111 8.97140452079164  L 2.9430000000001 12.0000000000006  L 4.33333333333354 12.0000000000006  C 4.67828662151487 12.0254497138996  5.00000000000023 12.3152127349568  5.00000000000023 12.6666666666673  C 5.00000000000023 13.0013846968677  4.75332493103645 13.2784886776679  4.43184844725749 13.3261049549192  C 4.43184844725749 13.3261049549192  4.33333333333354 13.3333333333339  4.33333333333354 13.3333333333339  L 1.33333333333343 13.3333333333339  C 1.02287537397024 13.3104285908248  0.721788459619745 13.0730826395436  0.674626479333824 12.7699982962576  C 0.674626479333824 12.7699982962576  0.666666666666742 12.6666666666673  0.666666666666742 12.6666666666673  C 0.666666666666742 12.6666666666673  0.668495245477061 9.61691255171428  0.668495245477061 9.61691255171428  C 0.691399987986188 9.30645459235108  0.926917360457026 9.05512179295346  1.23000170374308 9.00795981266758  C 1.23000170374308 9.00795981266758  1.33333333333343 9.00000000000048  1.33333333333343 9.00000000000048  C 1.64379129269668 9.02290474250963  1.94487820704711 9.26025069379084  1.99204018733303 9.56333503707682  C 1.99204018733303 9.56333503707682  2.00000000000011 9.66666666666717  2.00000000000011 9.66666666666717  L 2.00000000000006 11.0570000000006  Z M 8.99999999999989 1.33333333333366  C 8.99999999999989 0.998615303133175  9.24667506896367 0.721511322333001  9.56815155274262 0.673895045081736  C 9.56815155274262 0.673895045081736  9.66666666666663 0.66666666666697  9.66666666666663 0.66666666666697  C 9.66666666666663 0.66666666666697  12.7164207816195 0.66849524547743  12.7164207816195 0.66849524547743  C 13.0268787409827 0.691399987986578  13.2782115403804 0.926917360457278  13.3253735206663 1.23000170374328  C 13.3253735206663 1.23000170374328  13.3333333333334 1.33333333333364  13.3333333333334 1.33333333333364  L 13.3333333333334 4.33333333333374  C 13.3104285908242 4.64379129269694  13.0730826395431 4.94487820704745  12.769998296257 4.99204018733334  C 12.769998296257 4.99204018733334  12.6666666666667 5.00000000000043  12.6666666666667 5.00000000000043  C 12.3562087073035 4.97709525749128  12.055121792953 4.73974930621007  12.0079598126671 4.43666496292409  C 12.0079598126671 4.43666496292409  12 4.33333333333374  12 4.33333333333374  L 12.0000000000001 2.9430000000003  L 8.97140452079105 5.97140452079134  C 8.70947537533226 6.19208860809676  8.27524240031505 6.2180514418974  8.028595479209 5.97140452079134  C 7.79428090415826 5.73708994574057  7.77084944665319 5.3717493996454  7.9583011066938 5.11122963038575  C 7.9583011066938 5.11122963038575  8.028595479209 5.02859547920927  8.028595479209 5.02859547920927  L 11.057 2.0000000000003  L 9.66666666666663 2.00000000000034  C 9.3217133784853 1.97455028610129  8.99999999999989 1.68478726504416  8.99999999999989 1.33333333333366  Z " fill-rule="nonzero" fill="#5f6a7a" stroke="none" transform="matrix(1 0 0 1 1328 306 )" />
  </g>
</svg>