<?xml version="1.0" encoding="utf-8"?>
<svg version="1.1" xmlns:xlink="http://www.w3.org/1999/xlink" width="14px" height="4px" xmlns="http://www.w3.org/2000/svg">
  <g transform="matrix(1 0 0 1 -1400 -311 )">
    <path d="M 3.33333333333337 2.0000000000003  C 3.33333333333337 2.73637966644136  2.73637966644105 3.33333333333363  2.00000000000011 3.33333333333363  C 1.26362033355906 3.33333333333363  0.666666666666742 2.73637966644136  0.666666666666742 2.0000000000003  C 0.666666666666742 1.26362033355925  1.26362033355906 0.66666666666697  2 0.66666666666697  C 2.73637966644105 0.66666666666697  3.33333333333337 1.26362033355925  3.33333333333337 2.0000000000003  Z M 8.33333333333337 2.0000000000003  C 8.33333333333337 2.73637966644136  7.73637966644105 3.33333333333363  7 3.33333333333363  C 6.26362033355906 3.33333333333363  5.66666666666674 2.73637966644136  5.66666666666674 2.0000000000003  C 5.66666666666674 1.26362033355925  6.26362033355906 0.66666666666697  7 0.66666666666697  C 7.73637966644105 0.66666666666697  8.33333333333337 1.26362033355925  8.33333333333337 2.0000000000003  Z M 12 3.33333333333363  C 11.2636203335591 3.33333333333363  10.6666666666667 2.73637966644136  10.6666666666667 2.0000000000003  C 10.6666666666667 1.26362033355925  11.2636203335591 0.66666666666697  12 0.66666666666697  C 12.7363796664411 0.66666666666697  13.3333333333334 1.26362033355925  13.3333333333334 2.0000000000003  C 13.3333333333334 2.73637966644136  12.7363796664411 3.33333333333363  12 3.33333333333363  Z " fill-rule="nonzero" fill="#5f6a7a" stroke="none" transform="matrix(1 0 0 1 1400 311 )" />
  </g>
</svg>