<?xml version="1.0" encoding="utf-8"?>
<svg version="1.1" xmlns:xlink="http://www.w3.org/1999/xlink" width="384px" height="346px" xmlns="http://www.w3.org/2000/svg">
  <g transform="matrix(1 0 0 1 -244 -267 )">
    <path d="M 245 273  A 5 5 0 0 1 250 268 L 622 268  A 5 5 0 0 1 627 273 L 627 607  A 5 5 0 0 1 622 612 L 250 612  A 5 5 0 0 1 245 607 L 245 273  Z " fill-rule="nonzero" fill="#ffffff" stroke="none" />
    <path d="M 244.5 273  A 5.5 5.5 0 0 1 250 267.5 L 622 267.5  A 5.5 5.5 0 0 1 627.5 273 L 627.5 607  A 5.5 5.5 0 0 1 622 612.5 L 250 612.5  A 5.5 5.5 0 0 1 244.5 607 L 244.5 273  Z " stroke-width="1" stroke="#797979" fill="none" stroke-opacity="0.117647058823529" />
  </g>
</svg>