<?xml version="1.0" encoding="utf-8"?>
<svg version="1.1" xmlns:xlink="http://www.w3.org/1999/xlink" width="784px" height="346px" xmlns="http://www.w3.org/2000/svg">
  <g transform="matrix(1 0 0 1 -644 -267 )">
    <path d="M 645 273  A 5 5 0 0 1 650 268 L 1422 268  A 5 5 0 0 1 1427 273 L 1427 607  A 5 5 0 0 1 1422 612 L 650 612  A 5 5 0 0 1 645 607 L 645 273  Z " fill-rule="nonzero" fill="#ffffff" stroke="none" />
    <path d="M 644.5 273  A 5.5 5.5 0 0 1 650 267.5 L 1422 267.5  A 5.5 5.5 0 0 1 1427.5 273 L 1427.5 607  A 5.5 5.5 0 0 1 1422 612.5 L 650 612.5  A 5.5 5.5 0 0 1 644.5 607 L 644.5 273  Z " stroke-width="1" stroke="#797979" fill="none" stroke-opacity="0.313725490196078" />
  </g>
</svg>