<?xml version="1.0" encoding="utf-8"?>
<svg version="1.1" xmlns:xlink="http://www.w3.org/1999/xlink" width="384px" height="346px" xmlns="http://www.w3.org/2000/svg">
  <g transform="matrix(1 0 0 1 -436 -267 )">
    <path d="M 437 273  A 5 5 0 0 1 442 268 L 814 268  A 5 5 0 0 1 819 273 L 819 607  A 5 5 0 0 1 814 612 L 442 612  A 5 5 0 0 1 437 607 L 437 273  Z " fill-rule="nonzero" fill="#ffffff" stroke="none" />
    <path d="M 436.5 273  A 5.5 5.5 0 0 1 442 267.5 L 814 267.5  A 5.5 5.5 0 0 1 819.5 273 L 819.5 607  A 5.5 5.5 0 0 1 814 612.5 L 442 612.5  A 5.5 5.5 0 0 1 436.5 607 L 436.5 273  Z " stroke-width="1" stroke="#797979" fill="none" stroke-opacity="0.333333333333333" />
  </g>
</svg>