<?xml version="1.0" encoding="utf-8"?>
<svg version="1.1" xmlns:xlink="http://www.w3.org/1999/xlink" width="14px" height="14px" xmlns="http://www.w3.org/2000/svg">
  <g transform="matrix(1 0 0 1 -1364 -306 )">
    <path d="M 0.666666666666742 11.3333333333336  C 0.666666666666742 11.3333333333336  0.666666666666742 2.66666666666697  0.666666666666742 2.66666666666697  C 0.666666666666742 1.56209716700538  1.56209716700516 0.66666666666697  2.66666666666674 0.66666666666697  C 2.66666666666674 0.66666666666697  11.3333333333334 0.66666666666697  11.3333333333334 0.66666666666697  C 12.437902832995 0.66666666666697  13.3333333333334 1.56209716700538  13.3333333333334 2.66666666666697  C 13.3333333333334 2.66666666666697  13.3333333333334 11.3333333333336  13.3333333333334 11.3333333333336  C 13.3333333333334 12.4379028329952  12.437902832995 13.3333333333336  11.3333333333334 13.3333333333336  C 11.3333333333334 13.3333333333336  2.66666666666674 13.3333333333336  2.66666666666674 13.3333333333336  C 1.56209716700516 13.3333333333336  0.666666666666742 12.4379028329952  0.666666666666742 11.3333333333336  Z M 4.33333333333348 4.33266666666706  L 4.33333333333348 1.99966666666705  C 4.33333333333348 1.99966666666705  2.66666666666674 2.00000000000039  2.66666666666674 2.00000000000039  C 2.31521273495628 2.00000000000039  2.02727829270964 2.27195926353292  2.00182857881055 2.61691255171425  L 2.0003333333334 4.33266666666706  L 4.33333333333348 4.33266666666706  Z M 2.00000000000011 11.3333333333336  C 2.00000000000011 11.6847872650441  2.27195926353261 11.9727217072908  2.61691255171399 11.9981714211898  C 2.61691255171399 11.9981714211898  11.3333333333334 12.0000000000003  11.3333333333334 12.0000000000003  C 11.684787265044 12.0000000000003  11.9727217072906 11.7280407364678  11.9981714211896 11.3830874482864  L 12.0003333333334 5.66666666666697  L 2.0003333333334 5.66666666666697  C 2.0003333333334 5.66666666666697  2.00000000000011 11.3333333333336  2.00000000000011 11.3333333333336  Z M 8.33333333333348 4.33266666666705  L 8.33333333333348 1.99966666666705  L 5.66733333333343 1.99966666666705  L 5.66733333333343 4.33266666666705  L 8.33333333333348 4.33266666666705  Z M 11.3830874482862 2.00182857881084  L 9.66733333333343 1.99966666666705  L 9.66733333333343 4.33266666666705  L 12.0003333333334 4.33266666666705  C 12.0003333333334 4.33266666666705  12.0000000000001 2.66666666666705  12.0000000000001 2.66666666666705  C 12.0000000000001 2.31521273495655  11.7280407364675 2.0272782927099  11.3830874482862 2.00182857881084  Z " fill-rule="nonzero" fill="#5f6a7a" stroke="none" transform="matrix(1 0 0 1 1364 306 )" />
  </g>
</svg>