<?xml version="1.0" encoding="utf-8"?>
<svg version="1.1" xmlns:xlink="http://www.w3.org/1999/xlink" width="384px" height="346px" xmlns="http://www.w3.org/2000/svg">
  <g transform="matrix(1 0 0 1 -844 -267 )">
    <path d="M 845 273  A 5 5 0 0 1 850 268 L 1222 268  A 5 5 0 0 1 1227 273 L 1227 607  A 5 5 0 0 1 1222 612 L 850 612  A 5 5 0 0 1 845 607 L 845 273  Z " fill-rule="nonzero" fill="#ffffff" stroke="none" />
    <path d="M 844.5 273  A 5.5 5.5 0 0 1 850 267.5 L 1222 267.5  A 5.5 5.5 0 0 1 1227.5 273 L 1227.5 607  A 5.5 5.5 0 0 1 1222 612.5 L 850 612.5  A 5.5 5.5 0 0 1 844.5 607 L 844.5 273  Z " stroke-width="1" stroke="#797979" fill="none" stroke-opacity="0.423529411764706" />
  </g>
</svg>