<?xml version="1.0" encoding="utf-8"?>
<svg version="1.1" xmlns:xlink="http://www.w3.org/1999/xlink" width="12px" height="12px" xmlns="http://www.w3.org/2000/svg">
  <g transform="matrix(1 0 0 1 -165 -450 )">
    <path d="M 6.75 6.74999999995862  C 6.75 6.25336711940895  6.75 5.74663288487153  6.74998319356553 5.25  C 8.97650473705858 5.25  11 5.25  11 5.25  C 11.4142135623731 5.25  11.75 5.58578643762689  11.75 6  C 11.75 6.3796957655087  11.4678461183829 6.6934909609181  11.1017705573735 6.74315338400368  C 11.1017705573735 6.74315338400368  11 6.75  11 6.75  C 11 6.75  8.97650473453439 6.75  6.75 6.74999999995862  Z M 1 5.25  C 1 5.25  3.02349526546561 5.25  5.25 5.25000000004133  C 5.25 5.74663288059099  5.25 6.25336711512841  5.25001680643447 6.75  C 3.02349526294142 6.75  1 6.75  1 6.75  C 0.585786437626894 6.75  0.25 6.41421356237311  0.25 6  C 0.25 5.62030423449136  0.532153881617091 5.3065090390819  0.89822944262653 5.25684661599632  C 0.89822944262653 5.25684661599632  1 5.25  1 5.25  Z M 6.75 1  C 6.75 1  6.75 3.02349526546561  6.74999999995862 5.25  C 6.25336711940895 5.25  5.74663288487159 5.25  5.25 5.25001680643453  C 5.25 3.02349526294159  5.25 1  5.25 1  C 5.25 0.585786437626894  5.58578643762689 0.25  6 0.25  C 6.3796957655087 0.25  6.6934909609181 0.532153881617035  6.74315338400368 0.898229442626473  C 6.74315338400368 0.898229442626473  6.75 1  6.75 1  Z M 5.25000000004138 6.75  C 5.74663288059105 6.75  6.25336711512841 6.75  6.75 6.74998319356553  C 6.75 8.97650473705858  6.75 11  6.75 11  C 6.75 11.4142135623731  6.41421356237311 11.75  6 11.75  C 5.6203042344913 11.75  5.3065090390819 11.4678461183829  5.25684661599632 11.1017705573735  C 5.25684661599632 11.1017705573735  5.25 11  5.25 11  C 5.25 11  5.25 8.97650473453439  5.25000000004138 6.75  Z " fill-rule="nonzero" fill="#5f6a7a" stroke="none" transform="matrix(1 0 0 1 165 450 )" />
  </g>
</svg>