<?xml version="1.0" encoding="utf-8"?>
<svg version="1.1" xmlns:xlink="http://www.w3.org/1999/xlink" width="258px" height="118px" xmlns="http://www.w3.org/2000/svg">
  <g transform="matrix(1 0 0 1 -22 -1118 )">
    <path d="M 23 1122  A 3 3 0 0 1 26 1119 L 276 1119  A 3 3 0 0 1 279 1122 L 279 1232  A 3 3 0 0 1 276 1235 L 26 1235  A 3 3 0 0 1 23 1232 L 23 1122  Z " fill-rule="nonzero" fill="#ff3399" stroke="none" fill-opacity="0.0980392156862745" />
    <path d="M 22.5 1122  A 3.5 3.5 0 0 1 26 1118.5 L 276 1118.5  A 3.5 3.5 0 0 1 279.5 1122 L 279.5 1232  A 3.5 3.5 0 0 1 276 1235.5 L 26 1235.5  A 3.5 3.5 0 0 1 22.5 1232 L 22.5 1122  Z " stroke-width="1" stroke-dasharray="9,4" stroke="#ff3399" fill="none" stroke-dashoffset="0.5" />
  </g>
</svg>