<?xml version="1.0" encoding="utf-8"?>
<svg version="1.1" xmlns:xlink="http://www.w3.org/1999/xlink" width="13px" height="15px" xmlns="http://www.w3.org/2000/svg">
  <g transform="matrix(1 0 0 1 -1079 -396 )">
    <path d="M 2.29411764705882 0  C 2.29411764705882 0  8.41176470588235 0  8.41176470588235 0  L 13 4.5  C 13 4.5  13 12.75  13 12.75  C 13 13.9926406871193  11.9728885437295 15  10.7058823529412 15  C 10.7058823529412 15  2.29411764705882 15  2.29411764705882 15  C 1.02711145627053 15  0 13.9926406871193  0 12.75  C 0 12.75  0 2.25  0 2.25  C 0 1.00735931288072  1.02711145627053 0  2.29411764705882 0  Z " fill-rule="nonzero" fill="#ff5959" stroke="none" transform="matrix(1 0 0 1 1079 396 )" />
  </g>
</svg>