<?xml version="1.0" encoding="utf-8"?>
<svg version="1.1" xmlns:xlink="http://www.w3.org/1999/xlink" width="8px" height="5px" xmlns="http://www.w3.org/2000/svg">
  <g transform="matrix(1 0 0 1 -1083 -404 )">
    <path d="M 0.982142857144026 1.20849609375  C 0.904761904763031 1.27522786458258  0.831845238096451 1.36637369791742  0.763392857144026 1.48193359375  L 0.763392857144026 1.0888671875  L 0.154017857144026 1.0888671875  L 0.154017857144026 4.79736328125  L 0.783482142858312 4.79736328125  C 0.783482142858312 4.79736328125  0.783482142858312 3.41064453125  0.783482142858312 3.41064453125  C 0.850446428572598 3.52294921875  0.918898809525022 3.6083984375  0.988839285715455 3.6669921875  C 1.1168154761916 3.77278645833258  1.27752976190589 3.82568359375  1.47098214285831 3.82568359375  C 1.77455357142974 3.82568359375  2.02269345238216 3.70279947916742  2.21540178571545 3.45703125  C 2.40811011904875 3.21126302083258  2.50446428571545 2.85400390625  2.50446428571545 2.38525390625  C 2.50446428571545 1.94091796875  2.4058779761916 1.60400390625  2.20870535714403 1.37451171875  C 2.01153273809645 1.14501953125  1.77083333333446 1.0302734375  1.48660714285831 1.0302734375  C 1.29166666666788 1.0302734375  1.12351190476303 1.08968098958258  0.982142857144026 1.20849609375  Z M 3.86160714285831 1.025390625  C 3.54166666666788 1.025390625  3.28608630952502 1.15559895833258  3.09486607142974 1.416015625  C 2.90364583333446 1.67643229166742  2.80803571428688 2.03369140625  2.80803571428688 2.48779296875  C 2.80803571428688 2.88167317708258  2.9051339285726 3.204345703125  3.09933035714403 3.455810546875  C 3.29352678571545 3.707275390625  3.53273809523931 3.8330078125  3.81696428571545 3.8330078125  C 3.98958333333446 3.8330078125  4.13392857142974 3.79720052083258  4.25000000000117 3.7255859375  C 4.3660714285726 3.65397135416742  4.46949404762017 3.53922526041742  4.56026785714403 3.38134765625  L 4.56026785714403 3.75  L 5.1785714285726 3.75  L 5.1785714285726 0.15625  L 4.53348214285831 0.15625  C 4.53348214285831 0.15625  4.53348214285831 1.42578125  4.53348214285831 1.42578125  C 4.46205357142974 1.30045572916742  4.36904761904874 1.202392578125  4.25446428571546 1.131591796875  C 4.13988095238216 1.060791015625  4.00892857142974 1.025390625  3.86160714285831 1.025390625  Z M 0.828125000001169 1.9970703125  C 0.914434523810736 1.7578125  1.07291666666788 1.63818359375  1.3035714285726 1.63818359375  C 1.49553571428688 1.63818359375  1.63430059523931 1.71712239583258  1.71986607142974 1.875  C 1.80543154762017 2.03287760416742  1.84821428571546 2.21435546875  1.84821428571546 2.41943359375  C 1.84821428571546 2.66845703125  1.80171130952502 2.86783854166742  1.70870535714403 3.017578125  C 1.61569940476303 3.16731770833258  1.48065476190589 3.2421875  1.3035714285726 3.2421875  C 1.18154761904875 3.2421875  1.07589285714403 3.20556640625  0.986607142858312 3.13232421875  C 0.836309523810736 3.00699869791742  0.761160714286884 2.78971354166742  0.761160714286884 2.48046875  C 0.761160714286884 2.28515625  0.783482142858312 2.1240234375  0.828125000001169 1.9970703125  Z M 4.32589285714403 1.76025390625  C 4.4761904761916 1.90022786458258  4.55133928571546 2.13297526041742  4.55133928571546 2.45849609375  C 4.55133928571546 2.69124348958258  4.50446428571546 2.880859375  4.41071428571546 3.02734375  C 4.31696428571546 3.173828125  4.18005952381074 3.2470703125  4.00000000000117 3.2470703125  C 3.8199404761916 3.2470703125  3.68563988095359 3.17342122395758  3.59709821428688 3.026123046875  C 3.50855654762017 2.87882486979242  3.46428571428688 2.68229166666742  3.46428571428688 2.4365234375  C 3.46428571428688 2.20865885416742  3.50781250000117 2.017822265625  3.59486607142974 1.864013671875  C 3.68191964285831 1.710205078125  3.81845238095359 1.63330078125  4.00446428571546 1.63330078125  C 4.12648809523931 1.63330078125  4.23363095238216 1.67561848958258  4.32589285714403 1.76025390625  Z M 5.86160714285831 1.60400390625  L 5.86160714285831 3.75  L 6.49553571428688 3.75  L 6.49553571428688 1.60400390625  L 6.9129464285726 1.60400390625  L 6.9129464285726 1.11328125  L 6.49553571428688 1.11328125  C 6.49553571428688 1.11328125  6.49553571428688 0.888671875  6.49553571428688 0.888671875  C 6.49553571428688 0.836588541667425  6.51153273809645 0.788981119792425  6.54352678571546 0.745849609375  C 6.57552083333446 0.702718098957575  6.63355654762017 0.682373046875  6.7176339285726 0.684814453125  C 6.80171130952502 0.687255859375  6.86160714285831 0.69091796875  6.8973214285726 0.69580078125  C 6.8973214285726 0.69580078125  6.8973214285726 0.12939453125  6.8973214285726 0.12939453125  C 6.84077380952502 0.12451171875  6.79613095238216 0.120849609375  6.76339285714403 0.118408203125  C 6.41071428571546 0.118408203125  6.07886904762017 0.194498697917425  5.98660714285831 0.35400390625  C 5.89880952381074 0.46142578125  5.85491071428688 0.657552083332575  5.85491071428688 0.9423828125  L 5.85491071428688 1.11328125  L 5.5066964285726 1.11328125  L 5.5066964285726 1.60400390625  L 5.86160714285831 1.60400390625  Z " fill-rule="nonzero" fill="#ffffff" stroke="none" transform="matrix(1 0 0 1 1083 404 )" />
  </g>
</svg>