<?xml version="1.0" encoding="utf-8"?>
<svg version="1.1" xmlns:xlink="http://www.w3.org/1999/xlink" width="93px" height="32px" xmlns="http://www.w3.org/2000/svg">
  <defs>
    <mask fill="white" id="clip1688">
      <path d="M 0 28  L 0 4  C 0 1.75999999999999  1.75999999999999 0  4 0  L 89 0  C 91.24 0  93 1.75999999999999  93 4  L 93 28  C 93 30.24  91.24 32  89 32  L 63.2622950819672 32  L 4 32  C 1.75999999999999 32  0 30.24  0 28  Z " fill-rule="evenodd" />
    </mask>
  </defs>
  <g transform="matrix(1 0 0 1 -483 -212 )">
    <path d="M 0 28  L 0 4  C 0 1.75999999999999  1.75999999999999 0  4 0  L 89 0  C 91.24 0  93 1.75999999999999  93 4  L 93 28  C 93 30.24  91.24 32  89 32  L 63.2622950819672 32  L 4 32  C 1.75999999999999 32  0 30.24  0 28  Z " fill-rule="nonzero" fill="#409eff" stroke="none" transform="matrix(1 0 0 1 483 212 )" />
    <path d="M 0 28  L 0 4  C 0 1.75999999999999  1.75999999999999 0  4 0  L 89 0  C 91.24 0  93 1.75999999999999  93 4  L 93 28  C 93 30.24  91.24 32  89 32  L 63.2622950819672 32  L 4 32  C 1.75999999999999 32  0 30.24  0 28  Z " stroke-width="2" stroke="#409eff" fill="none" transform="matrix(1 0 0 1 483 212 )" mask="url(#clip1688)" />
  </g>
</svg>