<?xml version="1.0" encoding="utf-8"?>
<svg version="1.1" xmlns:xlink="http://www.w3.org/1999/xlink" width="18px" height="18px" xmlns="http://www.w3.org/2000/svg">
  <g transform="matrix(1 0 0 1 -133 -105 )">
    <path d="M 8.99999999999986 17.3333333333334  C 4.39762708499985 17.3333333333334  0.666666666666522 13.602372915  0.666666666666522 9.00000000000006  C 0.666666666666522 4.39762708500004  4.39762708499985 0.666666666666714  8.99999999999986 0.666666666666714  C 13.6023729149998 0.666666666666714  17.3333333333332 4.39762708500004  17.3333333333332 9.00000000000006  C 17.3333333333332 13.602372915  13.6023729149998 17.3333333333334  8.99999999999986 17.3333333333334  Z M 13.3392556510046 7.08925565102257  C 13.6646925607973 6.76381874122984  13.6646925607973 6.2361812588365  13.3392556510046 5.91074434904377  C 13.030946999622 5.60243569766121  12.5411619340474 5.58620892653553  12.2137505022238 5.86206403566732  C 12.2137505022238 5.86206403566732  12.160744349025 5.91074434904377  12.160744349025 5.91074434904377  L 7.75000000000767 10.3212500000275  C 7.75000000000767 10.3212500000275  5.83925565100174 8.4107443490434  5.83925565100174 8.4107443490434  C 5.53094699961915 8.10243569766084  5.04116193404673 8.08620892653516  4.7137505022232 8.36206403566695  C 4.7137505022232 8.36206403566695  4.66074434902241 8.4107443490434  4.66074434902241 8.4107443490434  C 4.35243569763982 8.71905300042599  4.33620892651444 9.20883806599417  4.61206403564623 9.53624949781769  C 4.61206403564623 9.53624949781769  4.66074434902241 9.58925565101842  4.66074434902241 9.58925565101842  C 4.66074434902241 9.58925565101842  7.16074434901888 12.0892556510163  7.16074434901888 12.0892556510163  C 7.46905300040146 12.3975643023989  7.95883806597298 12.4137910735243  8.2862494977965 12.1379359643925  C 8.2862494977965 12.1379359643925  8.33925565099646 12.0892556510163  8.33925565099646 12.0892556510163  C 8.33925565099646 12.0892556510163  13.3392556510046 7.08925565102257  13.3392556510046 7.08925565102257  Z " fill-rule="nonzero" fill="#38d677" stroke="none" transform="matrix(1 0 0 1 133 105 )" />
  </g>
</svg>