<?xml version="1.0" encoding="utf-8"?>
<svg version="1.1" xmlns:xlink="http://www.w3.org/1999/xlink" width="12px" height="12px" xmlns="http://www.w3.org/2000/svg">
  <g transform="matrix(1 0 0 1 -858 -104 )">
    <path d="M 6.68054352011393 0.862361701932343  L 6.68054544272127 5.3472101867809  L 11.1653920049624 5.3472101867809  C 11.4538768534472 5.3472101867809  11.6805435201139 5.64054352011425  11.6805435201139 6.01387685344753  C 11.6805435201139 6.38721018678086  11.4538768534472 6.68054352011421  11.1653920049624 6.68054352011421  L 6.68054352011393 6.68054352030117  L 6.68054352011393 11.1653920049627  C 6.68054352011393 11.4538768534475  6.38721018678052 11.6805435201142  6.01387685344719 11.6805435201142  C 5.64054352011385 11.6805435201142  5.34721018678044 11.4538768534475  5.34721018678044 11.1653920049627  L 5.3472082641731 6.68054352011421  L 0.862361701932059 6.68054352011421  C 0.573876853447246 6.68054352011421  0.347210186780558 6.38721018678086  0.347210186780558 6.01387685344753  C 0.347210186780558 5.64054352011425  0.573876853447246 5.3472101867809  0.862361701932059 5.3472101867809  L 5.34721018678044 5.34721018659394  L 5.34721018678044 0.862361701932343  C 5.34721018678044 0.57387685344753  5.64054352011385 0.347210186780842  6.01387685344719 0.347210186780842  C 6.38721018678052 0.347210186780842  6.68054352011393 0.57387685344753  6.68054352011393 0.862361701932343  Z " fill-rule="nonzero" fill="#5f6a7a" stroke="none" transform="matrix(1 0 0 1 858 104 )" />
  </g>
</svg>