<?xml version="1.0" encoding="utf-8"?>
<svg version="1.1" xmlns:xlink="http://www.w3.org/1999/xlink" width="270px" height="100px" xmlns="http://www.w3.org/2000/svg">
  <g transform="matrix(1 0 0 1 -1423 -90 )">
    <path d="M 1424 94  A 3 3 0 0 1 1427 91 L 1689 91  A 3 3 0 0 1 1692 94 L 1692 186  A 3 3 0 0 1 1689 189 L 1427 189  A 3 3 0 0 1 1424 186 L 1424 94  Z " fill-rule="nonzero" fill="#ff3399" stroke="none" fill-opacity="0.0980392156862745" />
    <path d="M 1423.5 94  A 3.5 3.5 0 0 1 1427 90.5 L 1689 90.5  A 3.5 3.5 0 0 1 1692.5 94 L 1692.5 186  A 3.5 3.5 0 0 1 1689 189.5 L 1427 189.5  A 3.5 3.5 0 0 1 1423.5 186 L 1423.5 94  Z " stroke-width="1" stroke-dasharray="9,4" stroke="#ff3399" fill="none" stroke-dashoffset="0.5" />
  </g>
</svg>