<?xml version="1.0" encoding="utf-8"?>
<svg version="1.1" xmlns:xlink="http://www.w3.org/1999/xlink" width="409px" height="100px" xmlns="http://www.w3.org/2000/svg">
  <g transform="matrix(1 0 0 1 -1901 -215 )">
    <path d="M 1902 219  A 3 3 0 0 1 1905 216 L 2306 216  A 3 3 0 0 1 2309 219 L 2309 311  A 3 3 0 0 1 2306 314 L 1905 314  A 3 3 0 0 1 1902 311 L 1902 219  Z " fill-rule="nonzero" fill="#ff3399" stroke="none" fill-opacity="0.0980392156862745" />
    <path d="M 1901.5 219  A 3.5 3.5 0 0 1 1905 215.5 L 2306 215.5  A 3.5 3.5 0 0 1 2309.5 219 L 2309.5 311  A 3.5 3.5 0 0 1 2306 314.5 L 1905 314.5  A 3.5 3.5 0 0 1 1901.5 311 L 1901.5 219  Z " stroke-width="1" stroke-dasharray="9,4" stroke="#ff3399" fill="none" stroke-dashoffset="0.5" />
  </g>
</svg>