<?xml version="1.0" encoding="utf-8"?>
<svg version="1.1" xmlns:xlink="http://www.w3.org/1999/xlink" width="66px" height="22px" xmlns="http://www.w3.org/2000/svg">
  <g transform="matrix(1 0 0 1 -246 -639 )">
    <path d="M 246.5 643  A 3.5 3.5 0 0 1 250 639.5 L 308 639.5  A 3.5 3.5 0 0 1 311.5 643 L 311.5 657  A 3.5 3.5 0 0 1 308 660.5 L 250 660.5  A 3.5 3.5 0 0 1 246.5 657 L 246.5 643  Z " fill-rule="nonzero" fill="#0099ff" stroke="none" fill-opacity="0.0980392156862745" />
    <path d="M 246.5 643  A 3.5 3.5 0 0 1 250 639.5 L 308 639.5  A 3.5 3.5 0 0 1 311.5 643 L 311.5 657  A 3.5 3.5 0 0 1 308 660.5 L 250 660.5  A 3.5 3.5 0 0 1 246.5 657 L 246.5 643  Z " stroke-width="1" stroke="#a7d2f9" fill="none" />
  </g>
</svg>