<?xml version="1.0" encoding="utf-8"?>
<svg version="1.1" xmlns:xlink="http://www.w3.org/1999/xlink" width="258px" height="71px" xmlns="http://www.w3.org/2000/svg">
  <g transform="matrix(1 0 0 1 -30 -1000 )">
    <path d="M 31 1004  A 3 3 0 0 1 34 1001 L 284 1001  A 3 3 0 0 1 287 1004 L 287 1067  A 3 3 0 0 1 284 1070 L 34 1070  A 3 3 0 0 1 31 1067 L 31 1004  Z " fill-rule="nonzero" fill="#ff3399" stroke="none" fill-opacity="0.0980392156862745" />
    <path d="M 30.5 1004  A 3.5 3.5 0 0 1 34 1000.5 L 284 1000.5  A 3.5 3.5 0 0 1 287.5 1004 L 287.5 1067  A 3.5 3.5 0 0 1 284 1070.5 L 34 1070.5  A 3.5 3.5 0 0 1 30.5 1067 L 30.5 1004  Z " stroke-width="1" stroke-dasharray="9,4" stroke="#ff3399" fill="none" stroke-dashoffset="0.5" />
  </g>
</svg>