<?xml version="1.0" encoding="utf-8"?>
<svg version="1.1" xmlns:xlink="http://www.w3.org/1999/xlink" width="4px" height="7px" xmlns="http://www.w3.org/2000/svg">
  <defs>
    <mask fill="white" id="clip40">
      <path d="M 0.0662027780991139 3.08092904582313  C 0.0772609231129991 3.06487787798113  0.0895001239341582 3.05007329529673  0.102769897950839 3.03669732209509  C 0.102769897950839 3.03669732209509  2.79823273143743 0.319662459137472  2.79823273143743 0.319662459137472  C 2.91940550727345 0.197519926768752  3.09949373660957 0.217323144023094  3.20047104980627 0.363894182865543  C 3.24324297088983 0.425978672024968  3.26666666666665 0.504236907949839  3.26666666666665 0.585052801505899  C 3.26666666666665 0.585052801505899  3.26666666666665 6.0191225274211  3.26666666666665 6.0191225274211  C 3.26666666666665 6.20991526219051  3.13879993622963 6.36458333333306  2.98106833069601 6.36458333333306  C 2.91425645413979 6.36458333333306  2.84955903673772 6.33624994408905  2.79823273143743 6.28451286978953  C 2.79823273143743 6.28451286978953  0.102769897950839 3.56747800683192  0.102769897950839 3.56747800683192  C -0.0184028778851825 3.44533547446322  -0.0347745350975856 3.22750008466561  0.0662027780991139 3.08092904582313  Z " fill-rule="evenodd" />
    </mask>
  </defs>
  <g transform="matrix(1 0 0 1 -542 -1206 )">
    <path d="M 0.0662027780991139 3.08092904582313  C 0.0772609231129991 3.06487787798113  0.0895001239341582 3.05007329529673  0.102769897950839 3.03669732209509  C 0.102769897950839 3.03669732209509  2.79823273143743 0.319662459137472  2.79823273143743 0.319662459137472  C 2.91940550727345 0.197519926768752  3.09949373660957 0.217323144023094  3.20047104980627 0.363894182865543  C 3.24324297088983 0.425978672024968  3.26666666666665 0.504236907949839  3.26666666666665 0.585052801505899  C 3.26666666666665 0.585052801505899  3.26666666666665 6.0191225274211  3.26666666666665 6.0191225274211  C 3.26666666666665 6.20991526219051  3.13879993622963 6.36458333333306  2.98106833069601 6.36458333333306  C 2.91425645413979 6.36458333333306  2.84955903673772 6.33624994408905  2.79823273143743 6.28451286978953  C 2.79823273143743 6.28451286978953  0.102769897950839 3.56747800683192  0.102769897950839 3.56747800683192  C -0.0184028778851825 3.44533547446322  -0.0347745350975856 3.22750008466561  0.0662027780991139 3.08092904582313  Z " fill-rule="nonzero" fill="#ffffff" stroke="none" fill-opacity="0" transform="matrix(1 0 0 1 542 1206 )" />
    <path d="M 0.0662027780991139 3.08092904582313  C 0.0772609231129991 3.06487787798113  0.0895001239341582 3.05007329529673  0.102769897950839 3.03669732209509  C 0.102769897950839 3.03669732209509  2.79823273143743 0.319662459137472  2.79823273143743 0.319662459137472  C 2.91940550727345 0.197519926768752  3.09949373660957 0.217323144023094  3.20047104980627 0.363894182865543  C 3.24324297088983 0.425978672024968  3.26666666666665 0.504236907949839  3.26666666666665 0.585052801505899  C 3.26666666666665 0.585052801505899  3.26666666666665 6.0191225274211  3.26666666666665 6.0191225274211  C 3.26666666666665 6.20991526219051  3.13879993622963 6.36458333333306  2.98106833069601 6.36458333333306  C 2.91425645413979 6.36458333333306  2.84955903673772 6.33624994408905  2.79823273143743 6.28451286978953  C 2.79823273143743 6.28451286978953  0.102769897950839 3.56747800683192  0.102769897950839 3.56747800683192  C -0.0184028778851825 3.44533547446322  -0.0347745350975856 3.22750008466561  0.0662027780991139 3.08092904582313  Z " stroke-width="2" stroke="#797979" fill="none" transform="matrix(1 0 0 1 542 1206 )" mask="url(#clip40)" />
  </g>
</svg>