<?xml version="1.0" encoding="utf-8"?>
<svg version="1.1" xmlns:xlink="http://www.w3.org/1999/xlink" width="204px" height="12px" xmlns="http://www.w3.org/2000/svg">
  <g transform="matrix(1 0 0 1 -1120 -880 )">
    <path d="M 1121 884  A 3 3 0 0 1 1124 881 L 1320 881  A 3 3 0 0 1 1323 884 L 1323 888  A 3 3 0 0 1 1320 891 L 1124 891  A 3 3 0 0 1 1121 888 L 1121 884  Z " fill-rule="nonzero" fill="#4a9eff" stroke="none" />
    <path d="M 1120.5 884  A 3.5 3.5 0 0 1 1124 880.5 L 1320 880.5  A 3.5 3.5 0 0 1 1323.5 884 L 1323.5 888  A 3.5 3.5 0 0 1 1320 891.5 L 1124 891.5  A 3.5 3.5 0 0 1 1120.5 888 L 1120.5 884  Z " stroke-width="1" stroke="#797979" fill="none" stroke-opacity="0.117647058823529" />
  </g>
</svg>