<?xml version="1.0" encoding="utf-8"?>
<svg version="1.1" xmlns:xlink="http://www.w3.org/1999/xlink" width="784px" height="346px" xmlns="http://www.w3.org/2000/svg">
  <g transform="matrix(1 0 0 1 -243 -333 )">
    <path d="M 244 339  A 5 5 0 0 1 249 334 L 1021 334  A 5 5 0 0 1 1026 339 L 1026 673  A 5 5 0 0 1 1021 678 L 249 678  A 5 5 0 0 1 244 673 L 244 339  Z " fill-rule="nonzero" fill="#ffffff" stroke="none" />
    <path d="M 243.5 339  A 5.5 5.5 0 0 1 249 333.5 L 1021 333.5  A 5.5 5.5 0 0 1 1026.5 339 L 1026.5 673  A 5.5 5.5 0 0 1 1021 678.5 L 249 678.5  A 5.5 5.5 0 0 1 243.5 673 L 243.5 339  Z " stroke-width="1" stroke="#797979" fill="none" stroke-opacity="0.133333333333333" />
  </g>
</svg>