<?xml version="1.0" encoding="utf-8"?>
<svg version="1.1" xmlns:xlink="http://www.w3.org/1999/xlink" width="14px" height="4px" xmlns="http://www.w3.org/2000/svg">
  <g transform="matrix(1 0 0 1 -995 -718 )">
    <path d="M 2 0.666666666666629  C 2.74666666666667 0.666666666666629  3.33333333333331 1.25333333333329  3.33333333333331 1.99999999999996  C 3.33333333333331 2.74666666666663  2.74666666666667 3.33333333333329  2 3.33333333333329  C 1.25333333333327 3.33333333333329  0.666666666666629 2.74666666666663  0.666666666666629 1.99999999999996  C 0.666666666666629 1.25333333333329  1.25333333333327 0.666666666666629  2 0.666666666666629  Z M 7 0.666666666666629  C 7.74666666666667 0.666666666666629  8.33333333333331 1.25333333333329  8.33333333333331 1.99999999999996  C 8.33333333333331 2.74666666666663  7.74666666666667 3.33333333333329  7 3.33333333333329  C 6.25333333333327 3.33333333333329  5.66666666666663 2.74666666666663  5.66666666666663 1.99999999999996  C 5.66666666666663 1.25333333333329  6.25333333333327 0.666666666666629  7 0.666666666666629  Z M 13.3333333333333 1.99999999999996  C 13.3333333333333 2.74666666666663  12.7466666666667 3.33333333333329  12 3.33333333333329  C 11.2533333333333 3.33333333333329  10.6666666666666 2.74666666666663  10.6666666666666 1.99999999999996  C 10.6666666666666 1.25333333333329  11.2533333333333 0.666666666666629  12 0.666666666666629  C 12.7466666666667 0.666666666666629  13.3333333333333 1.25333333333329  13.3333333333333 1.99999999999996  Z " fill-rule="nonzero" fill="#5f6a7a" stroke="none" transform="matrix(1 0 0 1 995 718 )" />
  </g>
</svg>