<?xml version="1.0" encoding="utf-8"?>
<svg version="1.1" xmlns:xlink="http://www.w3.org/1999/xlink" width="7px" height="7px" xmlns="http://www.w3.org/2000/svg">
  <g transform="matrix(1 0 0 1 -398 -535 )">
    <path d="M 401.5 535  C 403.46 535  405 536.54  405 538.5  C 405 540.46  403.46 542  401.5 542  C 399.54 542  398 540.46  398 538.5  C 398 536.54  399.54 535  401.5 535  Z " fill-rule="nonzero" fill="#d9001b" stroke="none" />
    <path d="M 401.5 535.5  C 403.18 535.5  404.5 536.82  404.5 538.5  C 404.5 540.18  403.18 541.5  401.5 541.5  C 399.82 541.5  398.5 540.18  398.5 538.5  C 398.5 536.82  399.82 535.5  401.5 535.5  Z " stroke-width="1" stroke="#d9001b" fill="none" />
  </g>
</svg>