<?xml version="1.0" encoding="utf-8"?>
<svg version="1.1" xmlns:xlink="http://www.w3.org/1999/xlink" width="5px" height="9px" xmlns="http://www.w3.org/2000/svg">
  <g transform="matrix(1 0 0 1 -30 -613 )">
    <path d="M 4.40365038062721 4.75257139350651  C 4.38982208750531 4.77580292595121  4.37451687525481 4.79723022310191  4.35792292350828 4.81658983347279  C 4.35792292350828 4.81658983347279  0.987226471787445 8.74906902714793  0.987226471787445 8.74906902714793  C 0.835699008495599 8.92585106765455  0.610497329556178 8.89718903578978  0.484224443479531 8.68505058718074  C 0.430737835970701 8.59519308656581  0.401446329050097 8.4819266398581  0.401446329050097 8.36495838734845  C 0.401446329050097 8.36495838734845  0.401446329050097 0.5  0.401446329050097 0.5  C 0.401446329050097 0.223857625084747  0.561344632681896 0  0.758589186192954 0  C 0.842137937985399 0  0.923042542776622 0.0410081096888462  0.987226471787445 0.115889360201436  C 0.987226471787445 0.115889360201436  4.35792292350828 4.04836855387566  4.35792292350828 4.04836855387566  C 4.50945038680012 4.22515059438319  4.52992326670385 4.54043294489838  4.40365038062721 4.75257139350651  Z " fill-rule="nonzero" fill="#929aa6" stroke="none" transform="matrix(1 0 0 1 30 613 )" />
  </g>
</svg>