<?xml version="1.0" encoding="utf-8"?>
<svg version="1.1" xmlns:xlink="http://www.w3.org/1999/xlink" width="11px" height="12px" xmlns="http://www.w3.org/2000/svg">
  <g transform="matrix(1 0 0 1 -26 -302 )">
    <path d="M 5.80555555555549 12  C 2.93674310520557 12  0.611111111111076 9.46294691553339  0.611111111111076 6.33333333333394  C 0.611111111111076 3.20371975113358  2.93674310520557 0.66666666666697  5.80555555555549 0.66666666666697  C 8.67436800590551 0.66666666666697  11 3.20371975113358  11 6.33333333333394  C 11 9.46294691553339  8.67436800590551 12  5.80555555555549 12  Z M 5.80555555555549 10.666666666667  C 7.99935331166787 10.666666666667  9.77777777777774 8.72656724909211  9.77777777777774 6.33333333333394  C 9.77777777777774 3.94009941757486  7.99935331166787 2  5.80555555555549 2  C 3.6117577994432 2  1.83333333333333 3.94009941757486  1.83333333333333 6.33333333333394  C 1.83333333333333 8.72656724909211  3.6117577994432 10.666666666667  5.80555555555549 10.666666666667  Z " fill-rule="nonzero" fill="#929aa6" stroke="none" transform="matrix(1 0 0 1 26 302 )" />
  </g>
</svg>