<?xml version="1.0" encoding="utf-8"?>
<svg version="1.1" xmlns:xlink="http://www.w3.org/1999/xlink" width="36px" height="112px" xmlns="http://www.w3.org/2000/svg">
  <g transform="matrix(1 0 0 1 -293 -886 )">
    <path d="M 294 890  A 3 3 0 0 1 297 887 L 325 887  A 3 3 0 0 1 328 890 L 328 994  A 3 3 0 0 1 325 997 L 297 997  A 3 3 0 0 1 294 994 L 294 890  Z " fill-rule="nonzero" fill="#4a9eff" stroke="none" />
    <path d="M 293.5 890  A 3.5 3.5 0 0 1 297 886.5 L 325 886.5  A 3.5 3.5 0 0 1 328.5 890 L 328.5 994  A 3.5 3.5 0 0 1 325 997.5 L 297 997.5  A 3.5 3.5 0 0 1 293.5 994 L 293.5 890  Z " stroke-width="1" stroke="#797979" fill="none" stroke-opacity="0.117647058823529" />
  </g>
</svg>