<?xml version="1.0" encoding="utf-8"?>
<svg version="1.1" xmlns:xlink="http://www.w3.org/1999/xlink" width="88px" height="12px" xmlns="http://www.w3.org/2000/svg">
  <g transform="matrix(1 0 0 1 -1120 -964 )">
    <path d="M 1121 968  A 3 3 0 0 1 1124 965 L 1204 965  A 3 3 0 0 1 1207 968 L 1207 972  A 3 3 0 0 1 1204 975 L 1124 975  A 3 3 0 0 1 1121 972 L 1121 968  Z " fill-rule="nonzero" fill="#4a9eff" stroke="none" />
    <path d="M 1120.5 968  A 3.5 3.5 0 0 1 1124 964.5 L 1204 964.5  A 3.5 3.5 0 0 1 1207.5 968 L 1207.5 972  A 3.5 3.5 0 0 1 1204 975.5 L 1124 975.5  A 3.5 3.5 0 0 1 1120.5 972 L 1120.5 968  Z " stroke-width="1" stroke="#797979" fill="none" stroke-opacity="0.117647058823529" />
  </g>
</svg>