<?xml version="1.0" encoding="utf-8"?>
<svg version="1.1" xmlns:xlink="http://www.w3.org/1999/xlink" width="225px" height="12px" xmlns="http://www.w3.org/2000/svg">
  <g transform="matrix(1 0 0 1 -1120 -838 )">
    <path d="M 1121 842  A 3 3 0 0 1 1124 839 L 1341 839  A 3 3 0 0 1 1344 842 L 1344 846  A 3 3 0 0 1 1341 849 L 1124 849  A 3 3 0 0 1 1121 846 L 1121 842  Z " fill-rule="nonzero" fill="#4a9eff" stroke="none" />
    <path d="M 1120.5 842  A 3.5 3.5 0 0 1 1124 838.5 L 1341 838.5  A 3.5 3.5 0 0 1 1344.5 842 L 1344.5 846  A 3.5 3.5 0 0 1 1341 849.5 L 1124 849.5  A 3.5 3.5 0 0 1 1120.5 846 L 1120.5 842  Z " stroke-width="1" stroke="#797979" fill="none" stroke-opacity="0.117647058823529" />
  </g>
</svg>