<?xml version="1.0" encoding="utf-8"?>
<svg version="1.1" xmlns:xlink="http://www.w3.org/1999/xlink" width="6px" height="8px" xmlns="http://www.w3.org/2000/svg">
  <g transform="matrix(1 0 0 1 -30 -349 )">
    <path d="M 5.28438045675265 4.22450790533912  C 5.26778650500637 4.24515815640108  5.24942025030578 4.26420464275725  5.22950750820993 4.28141318530915  C 5.22950750820993 4.28141318530915  1.18467176614493 7.77695024635371  1.18467176614493 7.77695024635371  C 1.00283881019472 7.93408983791515  0.732596795467414 7.90861247625758  0.581069332175438 7.72004496638288  C 0.516885403164841 7.64017163250295  0.481735594860116 7.53949034654054  0.481735594860116 7.43551856653196  C 0.481735594860116 7.43551856653196  0.481735594860116 0.444444444444444  0.481735594860116 0.444444444444444  C 0.481735594860116 0.198984555630886  0.673613559218276 0  0.910307023431544 0  C 1.01056552558248 0  1.10765105133195 0.0364516530567521  1.18467176614493 0.103012764623499  C 1.18467176614493 0.103012764623499  5.22950750820993 3.59854982566725  5.22950750820993 3.59854982566725  C 5.41134046416015 3.75568941722951  5.43590792004462 4.03594039546523  5.28438045675265 4.22450790533912  Z " fill-rule="nonzero" fill="#5f6a7a" stroke="none" transform="matrix(1 0 0 1 30 349 )" />
  </g>
</svg>