<?xml version="1.0" encoding="utf-8"?>
<svg version="1.1" xmlns:xlink="http://www.w3.org/1999/xlink" width="15px" height="16px" xmlns="http://www.w3.org/2000/svg">
  <g transform="matrix(1 0 0 1 -80 -510 )">
    <path d="M 1.875 16  C 0.824999999999996 16  0 15.1199999999999  0 14  L 0 2  C 0 0.880000000000109  0.824999999999996 0  1.875 0  L 13.125 0  C 14.175 0  15 0.880000000000109  15 2  L 15 14  C 15 15.1199999999999  14.175 16  13.125 16  L 1.875 16  Z M 11.053125 4.29289321881333  L 6.09103760736236 9.58578643762667  L 3.94145021472475 7.29289321881333  L 2.61562499999997 8.70710678118667  L 6.09103760736236 12.4142135623733  L 12.3789502147248 5.70710678118667  L 11.053125 4.29289321881333  Z " fill-rule="nonzero" fill="#237ffa" stroke="none" transform="matrix(1 0 0 1 80 510 )" />
  </g>
</svg>