<?xml version="1.0" encoding="utf-8"?>
<svg version="1.1" xmlns:xlink="http://www.w3.org/1999/xlink" width="4px" height="4px" xmlns="http://www.w3.org/2000/svg">
  <g transform="matrix(1 0 0 1 -35 -311 )">
    <path d="M 0.195262145875635 1.1380711874577  C -0.0650873819585449 0.877721659623518  -0.0650873819585449 0.455611673709815  0.195262145875635 0.195262145875635  C 0.4419090669817 -0.0513847752304302  0.833737119438918 -0.0643661921307494  1.09566626489773 0.156317895174677  C 1.09566626489773 0.156317895174677  1.1380711874577 0.195262145875635  1.1380711874577 0.195262145875635  C 1.1380711874577 0.195262145875635  3.80473785412437 2.8619288125423  3.80473785412437 2.8619288125423  C 4.06508738195854 3.12227834037648  4.06508738195854 3.54438832629019  3.80473785412437 3.80473785412437  C 3.5580909330183 4.05138477523043  3.16626288056108 4.06436619213075  2.90433373510227 3.84368210482532  C 2.90433373510227 3.84368210482532  2.8619288125423 3.80473785412437  2.8619288125423 3.80473785412437  C 2.8619288125423 3.80473785412437  0.195262145875635 1.1380711874577  0.195262145875635 1.1380711874577  Z " fill-rule="nonzero" fill="#929aa6" stroke="none" transform="matrix(1 0 0 1 35 311 )" />
  </g>
</svg>