<?xml version="1.0" encoding="utf-8"?>
<svg version="1.1" xmlns:xlink="http://www.w3.org/1999/xlink" width="384px" height="346px" xmlns="http://www.w3.org/2000/svg">
  <g transform="matrix(1 0 0 1 -1041 -692 )">
    <path d="M 1042 698  A 5 5 0 0 1 1047 693 L 1419 693  A 5 5 0 0 1 1424 698 L 1424 1032  A 5 5 0 0 1 1419 1037 L 1047 1037  A 5 5 0 0 1 1042 1032 L 1042 698  Z " fill-rule="nonzero" fill="#ffffff" stroke="none" />
    <path d="M 1041.5 698  A 5.5 5.5 0 0 1 1047 692.5 L 1419 692.5  A 5.5 5.5 0 0 1 1424.5 698 L 1424.5 1032  A 5.5 5.5 0 0 1 1419 1037.5 L 1047 1037.5  A 5.5 5.5 0 0 1 1041.5 1032 L 1041.5 698  Z " stroke-width="1" stroke="#797979" fill="none" stroke-opacity="0.117647058823529" />
  </g>
</svg>