<?xml version="1.0" encoding="utf-8"?>
<svg version="1.1" xmlns:xlink="http://www.w3.org/1999/xlink" width="257px" height="12px" xmlns="http://www.w3.org/2000/svg">
  <g transform="matrix(1 0 0 1 -1120 -796 )">
    <path d="M 1121 800  A 3 3 0 0 1 1124 797 L 1373 797  A 3 3 0 0 1 1376 800 L 1376 804  A 3 3 0 0 1 1373 807 L 1124 807  A 3 3 0 0 1 1121 804 L 1121 800  Z " fill-rule="nonzero" fill="#4a9eff" stroke="none" />
    <path d="M 1120.5 800  A 3.5 3.5 0 0 1 1124 796.5 L 1373 796.5  A 3.5 3.5 0 0 1 1376.5 800 L 1376.5 804  A 3.5 3.5 0 0 1 1373 807.5 L 1124 807.5  A 3.5 3.5 0 0 1 1120.5 804 L 1120.5 800  Z " stroke-width="1" stroke="#797979" fill="none" stroke-opacity="0.117647058823529" />
  </g>
</svg>