<?xml version="1.0" encoding="utf-8"?>
<svg version="1.1" xmlns:xlink="http://www.w3.org/1999/xlink" width="141px" height="12px" xmlns="http://www.w3.org/2000/svg">
  <g transform="matrix(1 0 0 1 -1120 -922 )">
    <path d="M 1121 926  A 3 3 0 0 1 1124 923 L 1257 923  A 3 3 0 0 1 1260 926 L 1260 930  A 3 3 0 0 1 1257 933 L 1124 933  A 3 3 0 0 1 1121 930 L 1121 926  Z " fill-rule="nonzero" fill="#4a9eff" stroke="none" />
    <path d="M 1120.5 926  A 3.5 3.5 0 0 1 1124 922.5 L 1257 922.5  A 3.5 3.5 0 0 1 1260.5 926 L 1260.5 930  A 3.5 3.5 0 0 1 1257 933.5 L 1124 933.5  A 3.5 3.5 0 0 1 1120.5 930 L 1120.5 926  Z " stroke-width="1" stroke="#797979" fill="none" stroke-opacity="0.117647058823529" />
  </g>
</svg>