<?xml version="1.0" encoding="utf-8"?>
<svg version="1.1" xmlns:xlink="http://www.w3.org/1999/xlink" width="36px" height="105px" xmlns="http://www.w3.org/2000/svg">
  <g transform="matrix(1 0 0 1 -539 -893 )">
    <path d="M 540 897  A 3 3 0 0 1 543 894 L 571 894  A 3 3 0 0 1 574 897 L 574 994  A 3 3 0 0 1 571 997 L 543 997  A 3 3 0 0 1 540 994 L 540 897  Z " fill-rule="nonzero" fill="#4a9eff" stroke="none" />
    <path d="M 539.5 897  A 3.5 3.5 0 0 1 543 893.5 L 571 893.5  A 3.5 3.5 0 0 1 574.5 897 L 574.5 994  A 3.5 3.5 0 0 1 571 997.5 L 543 997.5  A 3.5 3.5 0 0 1 539.5 994 L 539.5 897  Z " stroke-width="1" stroke="#797979" fill="none" stroke-opacity="0.117647058823529" />
  </g>
</svg>