<?xml version="1.0" encoding="utf-8"?>
<svg version="1.1" xmlns:xlink="http://www.w3.org/1999/xlink" width="36px" height="34px" xmlns="http://www.w3.org/2000/svg">
  <g transform="matrix(1 0 0 1 -457 -964 )">
    <path d="M 458 968  A 3 3 0 0 1 461 965 L 489 965  A 3 3 0 0 1 492 968 L 492 994  A 3 3 0 0 1 489 997 L 461 997  A 3 3 0 0 1 458 994 L 458 968  Z " fill-rule="nonzero" fill="#4a9eff" stroke="none" />
    <path d="M 457.5 968  A 3.5 3.5 0 0 1 461 964.5 L 489 964.5  A 3.5 3.5 0 0 1 492.5 968 L 492.5 994  A 3.5 3.5 0 0 1 489 997.5 L 461 997.5  A 3.5 3.5 0 0 1 457.5 994 L 457.5 968  Z " stroke-width="1" stroke="#797979" fill="none" stroke-opacity="0.117647058823529" />
  </g>
</svg>