<?xml version="1.0" encoding="utf-8"?>
<svg version="1.1" xmlns:xlink="http://www.w3.org/1999/xlink" width="4px" height="7px" xmlns="http://www.w3.org/2000/svg">
  <defs>
    <mask fill="white" id="clip119">
      <path d="M 0.0810646262438057 3.75274775715419  C 0.0946052119750886 3.77109194897363  0.109591988490812 3.7880114720415  0.125840691368352 3.8032982985577  C 0.125840691368352 3.8032982985577  3.4264074262499 6.90848099908067  3.4264074262499 6.90848099908067  C 3.57478225380421 7.04807246464491  3.79529845299133 7.02544021635424  3.91894414261991 6.85793045767716  C 3.97131792353859 6.78697675578066  4 6.69753877186653  4 6.60517775065961  C 4 6.60517775065961  4 0.39481234961367  4 0.39481234961367  C 4 0.176763509877178  3.84342849334242 0  3.65028775187264 0  C 3.56847729078342 0  3.48925596335231 0.0323810162788614  3.4264074262499 0.0915091011926092  C 3.4264074262499 0.0915091011926092  0.125840691368352 3.19669180171558  0.125840691368352 3.19669180171558  C -0.0225341361859526 3.33628326727982  -0.0425810633847821 3.5852379984771  0.0810646262438057 3.75274775715419  Z " fill-rule="evenodd" />
    </mask>
  </defs>
  <g transform="matrix(1 0 0 1 -542 -1200 )">
    <path d="M 0.0810646262438057 3.75274775715419  C 0.0946052119750886 3.77109194897363  0.109591988490812 3.7880114720415  0.125840691368352 3.8032982985577  C 0.125840691368352 3.8032982985577  3.4264074262499 6.90848099908067  3.4264074262499 6.90848099908067  C 3.57478225380421 7.04807246464491  3.79529845299133 7.02544021635424  3.91894414261991 6.85793045767716  C 3.97131792353859 6.78697675578066  4 6.69753877186653  4 6.60517775065961  C 4 6.60517775065961  4 0.39481234961367  4 0.39481234961367  C 4 0.176763509877178  3.84342849334242 0  3.65028775187264 0  C 3.56847729078342 0  3.48925596335231 0.0323810162788614  3.4264074262499 0.0915091011926092  C 3.4264074262499 0.0915091011926092  0.125840691368352 3.19669180171558  0.125840691368352 3.19669180171558  C -0.0225341361859526 3.33628326727982  -0.0425810633847821 3.5852379984771  0.0810646262438057 3.75274775715419  Z " fill-rule="nonzero" fill="#ffffff" stroke="none" fill-opacity="0" transform="matrix(1 0 0 1 542 1200 )" />
    <path d="M 0.0810646262438057 3.75274775715419  C 0.0946052119750886 3.77109194897363  0.109591988490812 3.7880114720415  0.125840691368352 3.8032982985577  C 0.125840691368352 3.8032982985577  3.4264074262499 6.90848099908067  3.4264074262499 6.90848099908067  C 3.57478225380421 7.04807246464491  3.79529845299133 7.02544021635424  3.91894414261991 6.85793045767716  C 3.97131792353859 6.78697675578066  4 6.69753877186653  4 6.60517775065961  C 4 6.60517775065961  4 0.39481234961367  4 0.39481234961367  C 4 0.176763509877178  3.84342849334242 0  3.65028775187264 0  C 3.56847729078342 0  3.48925596335231 0.0323810162788614  3.4264074262499 0.0915091011926092  C 3.4264074262499 0.0915091011926092  0.125840691368352 3.19669180171558  0.125840691368352 3.19669180171558  C -0.0225341361859526 3.33628326727982  -0.0425810633847821 3.5852379984771  0.0810646262438057 3.75274775715419  Z " stroke-width="2" stroke="#797979" fill="none" transform="matrix(1 0 0 1 542 1200 )" mask="url(#clip119)" />
  </g>
</svg>