<?xml version="1.0" encoding="utf-8"?>
<svg version="1.1" xmlns:xlink="http://www.w3.org/1999/xlink" width="36px" height="177px" xmlns="http://www.w3.org/2000/svg">
  <g transform="matrix(1 0 0 1 -375 -821 )">
    <path d="M 376 825  A 3 3 0 0 1 379 822 L 407 822  A 3 3 0 0 1 410 825 L 410 994  A 3 3 0 0 1 407 997 L 379 997  A 3 3 0 0 1 376 994 L 376 825  Z " fill-rule="nonzero" fill="#4a9eff" stroke="none" />
    <path d="M 375.5 825  A 3.5 3.5 0 0 1 379 821.5 L 407 821.5  A 3.5 3.5 0 0 1 410.5 825 L 410.5 994  A 3.5 3.5 0 0 1 407 997.5 L 379 997.5  A 3.5 3.5 0 0 1 375.5 994 L 375.5 825  Z " stroke-width="1" stroke="#797979" fill="none" stroke-opacity="0.117647058823529" />
  </g>
</svg>