<?xml version="1.0" encoding="utf-8"?>
<svg version="1.1" xmlns:xlink="http://www.w3.org/1999/xlink" width="13px" height="8px" xmlns="http://www.w3.org/2000/svg">
  <g transform="matrix(1 0 0 1 -1256 -2007 )">
    <path d="M 1.71875000000205 1.93359375000409  C 1.5833333333353 2.04036458333735  1.45572916666879 2.18619791667084  1.33593750000205 2.37109375000409  L 1.33593750000205 1.74218750000409  L 0.269531250002046 1.74218750000409  L 0.269531250002046 7.67578125000409  L 1.37109375000205 7.67578125000409  C 1.37109375000205 7.67578125000409  1.37109375000205 5.45703125000409  1.37109375000205 5.45703125000409  C 1.48828125000205 5.63671875000409  1.60807291666879 5.77343750000409  1.73046875000205 5.86718750000409  C 1.9544270833353 6.03645833333735  2.2356770833353 6.12109375000409  2.57421875000205 6.12109375000409  C 3.10546875000205 6.12109375000409  3.53971354166879 5.92447916667084  3.87695312500205 5.53125000000409  C 4.2141927083353 5.13802083333735  4.38281250000205 4.56640625000409  4.38281250000205 3.81640625000409  C 4.38281250000205 3.10546875000409  4.2102864583353 2.56640625000409  3.86523437500205 2.19921875000409  C 3.52018229166879 1.83203125000409  3.0989583333353 1.64843750000409  2.60156250000205 1.64843750000409  C 2.26041666666879 1.64843750000409  1.9661458333353 1.74348958333735  1.71875000000205 1.93359375000409  Z M 6.75781250000205 1.64062500000409  C 6.19791666666879 1.64062500000409  5.75065104166879 1.84895833333735  5.41601562500205 2.26562500000409  C 5.0813802083353 2.68229166667084  4.91406250000205 3.25390625000409  4.91406250000205 3.98046875000409  C 4.91406250000205 4.61067708333735  5.08398437500205 5.12695312500409  5.42382812500205 5.52929687500409  C 5.76367187500205 5.93164062500409  6.18229166666879 6.13281250000409  6.67968750000205 6.13281250000409  C 6.9817708333353 6.13281250000409  7.23437500000205 6.07552083333735  7.43750000000205 5.96093750000409  C 7.64062500000205 5.84635416667084  7.8216145833353 5.66276041667084  7.98046875000205 5.41015625000409  L 7.98046875000205 6.00000000000409  L 9.06250000000205 6.00000000000409  L 9.06250000000205 0.250000000004093  L 7.93359375000205 0.250000000004093  C 7.93359375000205 0.250000000004093  7.93359375000205 2.28125000000409  7.93359375000205 2.28125000000409  C 7.80859375000205 2.08072916667084  7.6458333333353 1.92382812500409  7.44531250000205 1.81054687500409  C 7.24479166666879 1.69726562500409  7.01562500000205 1.64062500000409  6.75781250000205 1.64062500000409  Z M 1.44921875000205 3.19531250000409  C 1.60026041666879 2.81250000000409  1.87760416666879 2.62109375000409  2.28125000000205 2.62109375000409  C 2.61718750000205 2.62109375000409  2.86002604166879 2.74739583333735  3.00976562500205 3.00000000000409  C 3.1595052083353 3.25260416667084  3.23437500000205 3.54296875000409  3.23437500000205 3.87109375000409  C 3.23437500000205 4.26953125000409  3.15299479166879 4.58854166667084  2.99023437500205 4.82812500000409  C 2.8274739583353 5.06770833333735  2.5911458333353 5.18750000000409  2.28125000000205 5.18750000000409  C 2.0677083333353 5.18750000000409  1.88281250000205 5.12890625000409  1.72656250000205 5.01171875000409  C 1.46354166666879 4.81119791667084  1.33203125000205 4.46354166667084  1.33203125000205 3.96875000000409  C 1.33203125000205 3.65625000000409  1.37109375000205 3.39843750000409  1.44921875000205 3.19531250000409  Z M 7.57031250000205 2.81640625000409  C 7.8333333333353 3.04036458333735  7.96484375000205 3.41276041667084  7.96484375000205 3.93359375000409  C 7.96484375000205 4.30598958333735  7.88281250000205 4.60937500000409  7.71875000000205 4.84375000000409  C 7.55468750000205 5.07812500000409  7.31510416666879 5.19531250000409  7.00000000000205 5.19531250000409  C 6.6848958333353 5.19531250000409  6.44986979166879 5.07747395833735  6.29492187500205 4.84179687500409  C 6.1399739583353 4.60611979167084  6.06250000000205 4.29166666667084  6.06250000000205 3.89843750000409  C 6.06250000000205 3.53385416667084  6.13867187500205 3.22851562500409  6.29101562500205 2.98242187500409  C 6.44335937500205 2.73632812500409  6.68229166666879 2.61328125000409  7.00781250000205 2.61328125000409  C 7.22135416666879 2.61328125000409  7.40885416666879 2.68098958333735  7.57031250000205 2.81640625000409  Z M 10.257812500002 2.56640625000409  L 10.257812500002 6.00000000000409  L 11.367187500002 6.00000000000409  L 11.367187500002 2.56640625000409  L 12.097656250002 2.56640625000409  L 12.097656250002 1.78125000000409  L 11.367187500002 1.78125000000409  C 11.367187500002 1.78125000000409  11.367187500002 1.42187500000409  11.367187500002 1.42187500000409  C 11.367187500002 1.33854166667084  11.3951822916688 1.26236979167084  11.451171875002 1.19335937500409  C 11.5071614583353 1.12434895833735  11.6087239583353 1.09179687500409  11.755859375002 1.09570312500409  C 11.9029947916688 1.09960937500409  12.007812500002 1.10546875000409  12.070312500002 1.11328125000409  C 12.070312500002 1.11328125000409  12.070312500002 0.207031250004093  12.070312500002 0.207031250004093  C 11.9713541666688 0.199218750004093  11.8932291666688 0.193359375004093  11.835937500002 0.189453125004093  C 11.7786458333353 0.185546875004093  11.714843750002 0.183593750004093  11.644531250002 0.183593750004093  C 11.027343750002 0.183593750004093  10.6380208333353 0.311197916670835  10.476562500002 0.566406250004093  C 10.3229166666688 0.738281250004093  10.246093750002 1.05208333333735  10.246093750002 1.50781250000409  L 10.246093750002 1.78125000000409  L 9.63671875000205 1.78125000000409  L 9.63671875000205 2.56640625000409  L 10.257812500002 2.56640625000409  Z " fill-rule="nonzero" fill="#ffffff" stroke="none" transform="matrix(1 0 0 1 1256 2007 )" />
  </g>
</svg>