<?xml version="1.0" encoding="utf-8"?>
<svg version="1.1" xmlns:xlink="http://www.w3.org/1999/xlink" width="5px" height="9px" xmlns="http://www.w3.org/2000/svg">
  <g transform="matrix(1 0 0 1 -724 -1270 )">
    <path d="M 4.28172598954793 3.77573593128899  C 4.28172598954793 3.77573593128899  0.948392656214973 0.175735931288071  0.948392656214973 0.175735931288071  C 0.731434716353192 -0.0585786437626904  0.37967639475814 -0.0585786437626904  0.162718454896359 0.175735931288071  C -0.0428206460253477 0.397718160283531  -0.0536384934422548 0.750363407496382  0.130264912645544 0.986099638409319  C 0.130264912645544 0.986099638409319  0.162718454896359 1.02426406871273  0.162718454896359 1.02426406871273  L 3.10305555555544 4.20000000000091  C 3.10305555555544 4.20000000000091  0.162718454896738 7.37573593128893  0.162718454896738 7.37573593128893  C -0.0428206460249688 7.59771816028439  -0.0536384934417811 7.95036340749623  0.130264912646017 8.18609963840917  C 0.130264912646017 8.18609963840917  0.162718454896738 8.224264068713  0.162718454896738 8.224264068713  C 0.368257555818445 8.44624629770846  0.694780932865531 8.45792957291898  0.91305522074786 8.25931389434409  C 0.91305522074786 8.25931389434409  0.948392656214783 8.224264068713  0.948392656214783 8.224264068713  C 0.948392656214783 8.224264068713  4.28172598954793 4.62426406871284  4.28172598954793 4.62426406871284  C 4.48726509046963 4.40228183971738  4.49808293788654 4.04963659250589  4.31417953179874 3.81390036159295  C 4.31417953179874 3.81390036159295  4.28172598954793 3.77573593128899  4.28172598954793 3.77573593128899  Z " fill-rule="nonzero" fill="#929aa6" stroke="none" transform="matrix(1 0 0 1 724 1270 )" />
  </g>
</svg>