<?xml version="1.0" encoding="utf-8"?>
<svg version="1.1" xmlns:xlink="http://www.w3.org/1999/xlink" width="16px" height="16px" xmlns="http://www.w3.org/2000/svg">
  <g transform="matrix(1 0 0 1 -1424 -979 )">
    <path d="M 5.08333333333201 1.75000000000003  C 5.08333333333201 0.829525416948712  5.82952541694735 0.0833333333333712  6.74999999999866 0.0833333333333712  C 6.74999999999866 0.0833333333333712  9.24999999999866 0.0833333333333712  9.24999999999866 0.0833333333333712  C 10.17047458305 0.0833333333333712  10.9166666666653 0.829525416948712  10.9166666666653 1.75000000000003  C 10.9166666666653 1.75000000000003  10.9169083925212 2.0036452221826  10.9169083925212 2.0036452221826  C 11.2010416299131 2.142118858825  11.4738666013346 2.30019273251872  11.7336237769511 2.47610731342925  C 11.7336237769511 2.47610731342925  11.9543254403181 2.34909257229543  11.9543254403181 2.34909257229543  C 12.7514798127784 1.88885528076977  13.7707971550998 2.16198053947582  14.2310344466255 2.95913491193616  C 14.2310344466255 2.95913491193616  15.4810344466255 5.12419842139727  15.4810344466255 5.12419842139727  C 15.9412717381511 5.92135279385758  15.6681464794451 6.94067013617899  14.8709921069847 7.40090742770465  C 14.8709921069847 7.40090742770465  14.650254789893 7.52855049632331  14.650254789893 7.52855049632331  C 14.6611352051644 7.68428671700522  14.6666666666653 7.84149738747425  14.6666666666653 8.00000000000006  C 14.6666666666653 8.15836121858069  14.661145069561 8.31543279905782  14.6502838950945 8.47103272168945  C 14.6502838950945 8.47103272168945  14.8709921069847 8.59909257229543  14.8709921069847 8.59909257229543  C 15.6681464794451 9.05932986382109  15.9412717381511 10.0786472061425  15.4810344466255 10.8758015786028  C 15.4810344466255 10.8758015786028  14.2310344466255 13.0408650880639  14.2310344466255 13.0408650880639  C 13.7707971550998 13.8380194605243  12.7514798127784 14.1111447192303  11.9543254403181 13.6509074277047  C 11.9543254403181 13.6509074277047  11.7336237769511 13.5238926865708  11.7336237769511 13.5238926865708  C 11.4738666013346 13.6998072674814  11.2010416299131 13.8578811411751  10.9169083925212 13.9963547778175  C 10.9169083925212 13.9963547778175  10.9166666666653 14.2500000000001  10.9166666666653 14.2500000000001  C 10.9166666666653 15.1704745830514  10.17047458305 15.9166666666667  9.24999999999866 15.9166666666667  C 9.24999999999866 15.9166666666667  6.74999999999866 15.9166666666667  6.74999999999866 15.9166666666667  C 5.82952541694735 15.9166666666667  5.08333333333201 15.1704745830514  5.08333333333201 14.2500000000001  C 5.08333333333201 14.2500000000001  5.08350642592978 13.9965569236533  5.08350642592978 13.9965569236533  C 4.79913860111617 13.8579934195152  4.52609598771818 13.6997979632987  4.26614227235089 13.5237342416189  C 4.26614227235089 13.5237342416189  4.04567455967924 13.6509074277047  4.04567455967924 13.6509074277047  C 3.24852018721893 14.1111447192303  2.22920284489751 13.8380194605243  1.76896555337186 13.0408650880639  C 1.76896555337186 13.0408650880639  0.518965553371856 10.8758015786028  0.518965553371856 10.8758015786028  C 0.0587282618461984 10.0786472061425  0.331853520552244 9.05932986382109  1.12900789301258 8.59909257229543  C 1.12900789301258 8.59909257229543  1.34971610490271 8.47103272168945  1.34971610490271 8.47103272168945  C 1.33885493043618 8.31543279905782  1.33333333333195 8.15836121858069  1.33333333333195 8.00000000000006  C 1.33333333333195 7.84149738747425  1.3388647948328 7.68428671700522  1.34974521010423 7.52855049632331  C 1.34974521010423 7.52855049632331  1.12900789301258 7.40090742770465  1.12900789301258 7.40090742770465  C 0.331853520552244 6.94067013617899  0.0587282618461984 5.92135279385758  0.518965553371856 5.12419842139727  C 0.518965553371856 5.12419842139727  1.76896555337186 2.95913491193616  1.76896555337186 2.95913491193616  C 2.22920284489751 2.16198053947582  3.24852018721893 1.88885528076977  4.04567455967924 2.34909257229543  C 4.04567455967924 2.34909257229543  4.26614227235089 2.4762657583812  4.26614227235089 2.4762657583812  C 4.52609598771818 2.30020203670145  4.79913860111617 2.14200658048492  5.08350642592978 2.00344307634677  C 5.08350642592978 2.00344307634677  5.08333333333201 1.75000000000003  5.08333333333201 1.75000000000003  Z M 9.24999999999883 1.75  L 6.74999995141133 1.74985771578383  L 6.75088481370727 3.04497966826617  C 6.75088481370727 3.04497966826617  5.81356333400117 3.50170696790767  5.81356333400117 3.50170696790767  C 5.65431842451173 3.57930200767521  5.4993261833522 3.66535599306414  5.34921985636223 3.75945229414532  C 5.34921985636223 3.75945229414532  5.20076562097839 3.85621393638584  5.20076562097839 3.85621393638584  L 4.33701856995117 4.44122007941746  L 3.2123412263461 3.79246824526945  L 1.9623412263461 5.95753175473055  L 3.08488249697817 6.60664952042828  C 3.08488249697817 6.60664952042828  3.01235917985653 7.64470799871918  3.01235917985653 7.64470799871918  C 3.00413515065156 7.76242218473223  2.99999999999878 7.88089114771014  2.99999999999878 8  C 2.99999999999878 8  3.00309009120133 8.17801130495064  3.00309009120133 8.17801130495064  L 3.01233729117479 8.35497855874098  L 3.08467249718888 9.39127094995683  L 1.9623412263461 10.0424682452694  L 3.21290071650083 12.2072088774888  L 4.33701856995114 11.5587799205825  C 4.33701856995114 11.5587799205825  5.20076562097839 12.1437860636142  5.20076562097839 12.1437860636142  C 5.34754431120646 12.2431976162759  5.49941999755066 12.3347057298883  5.65575943417133 12.4178937745225  C 5.65575943417133 12.4178937745225  5.81356333400117 12.4982930320924  5.81356333400117 12.4982930320924  L 6.75088481370727 12.9550203317338  L 6.74999999999883 14.25  L 9.24999999999883 14.25  L 9.25123427614159 12.9540682201873  C 9.25123427614159 12.9540682201873  10.1867473445599 12.4981416348309  10.1867473445599 12.4981416348309  C 10.3458614545112 12.4205966434448  10.5007291589699 12.3346062860159  10.6507187039649 12.2405862193246  C 10.6507187039649 12.2405862193246  10.79905879751 12.1439049775748  10.79905879751 12.1439049775748  L 11.6618318453318 11.5596117476832  L 12.7876587736516 12.2075317547306  L 14.0372708504238 10.0422437209513  L 12.9153275028087 9.39127094995709  C 12.9153275028087 9.39127094995709  12.9876627088228 8.35497855874098  12.9876627088228 8.35497855874098  C 12.995872187184 8.23736750279213  12.9999999999988 8.11900312416253  12.9999999999988 8  C 12.9999999999988 8  12.9969044210218 7.82183099950581  12.9969044210218 7.82183099950581  L 12.987640820141 7.64470799871918  L 12.9151175030194 6.60664952042805  L 14.0376587736516 5.95753175473055  L 12.787408674731 3.79261240901036  L 11.6618318453318 4.44038825231678  C 11.6618318453318 4.44038825231678  10.79905879751 3.85609502242517  10.79905879751 3.85609502242517  C 10.6523915537099 3.75676800031241  10.500635565789 3.66533213520185  10.3444225877185 3.58220308387394  C 10.3444225877185 3.58220308387394  10.1867473445599 3.50185836516911  10.1867473445599 3.50185836516911  L 9.25123427614162 3.04593177981272  L 9.24999999999883 1.75  Z " fill-rule="nonzero" fill="#5f6a7a" stroke="none" transform="matrix(1 0 0 1 1424 979 )" />
  </g>
</svg>