<?xml version="1.0" encoding="utf-8"?>
<svg version="1.1" xmlns:xlink="http://www.w3.org/1999/xlink" width="128px" height="128px" xmlns="http://www.w3.org/2000/svg">
  <defs>
    <linearGradient gradientUnits="userSpaceOnUse" x1="-75.4929596628072" y1="107.863487567289" x2="109.369415054476" y2="13.0774307472093" id="LinearGradient898">
      <stop id="Stop899" stop-color="#4b40ff" offset="0" />
      <stop id="Stop900" stop-color="#4989f4" stop-opacity="0" offset="1" />
    </linearGradient>
    <mask fill="white" id="clip901">
      <path d="M 0 64  C 0 99.3462239872  28.6537760128 128  64 128  C 99.3462239872 128  128 99.3462239872  128 64  C 128 28.6537760128  99.3462239872 0  64 0  C 28.6537760128 0  0 28.6537760128  0 64  Z " fill-rule="evenodd" />
    </mask>
  </defs>
  <g transform="matrix(1 0 0 1 25 98 )">
    <path d="M 0 64  C 0 99.3462239872  28.6537760128 128  64 128  C 99.3462239872 128  128 99.3462239872  128 64  C 128 28.6537760128  99.3462239872 0  64 0  C 28.6537760128 0  0 28.6537760128  0 64  Z " fill-rule="nonzero" fill="#ffffff" stroke="none" fill-opacity="0" transform="matrix(1 0 0 1 -25 -98 )" />
    <path d="M 0 64  C 0 99.3462239872  28.6537760128 128  64 128  C 99.3462239872 128  128 99.3462239872  128 64  C 128 28.6537760128  99.3462239872 0  64 0  C 28.6537760128 0  0 28.6537760128  0 64  Z " stroke-width="40" stroke="url(#LinearGradient898)" fill="none" transform="matrix(1 0 0 1 -25 -98 )" mask="url(#clip901)" />
  </g>
</svg>