<?xml version="1.0" encoding="utf-8"?>
<svg version="1.1" xmlns:xlink="http://www.w3.org/1999/xlink" width="13px" height="8px" xmlns="http://www.w3.org/2000/svg">
  <g transform="matrix(1 0 0 1 -486 -732 )">
    <path d="M 9.37854674502264 0.19526214587562  C 9.11134591382441 -0.0650873819585399  8.67812777038632 -0.0650873819585399  8.41092693918808 0.19526214587562  C 8.15778930963186 0.441909066981665  8.14446627649741 0.833737119439382  8.37095783978456 1.09566626489818  C 8.37095783978456 1.09566626489818  8.41092693918808 1.13807118745797  8.41092693918808 1.13807118745797  L 10.6651315789474 3.33300000000005  C 10.6651315789474 3.33300000000005  0.684210526315789 3.3333333333346  0.684210526315789 3.3333333333346  C 0.306331486957878 3.3333333333346  0 3.63181016678071  0 4.00000000000121  C 0 4.36818983322171  0.306331486957878 4.66666666666783  0.684210526315789 4.66666666666783  C 0.684210526315789 4.66666666666783  10.6641052631579 4.66599999999995  10.6641052631579 4.66599999999995  C 10.6641052631579 4.66599999999995  8.41092693918808 6.86192881254215  8.41092693918808 6.86192881254215  C 8.15778930963186 7.10857573364819  8.14446627649742 7.50040378610549  8.37095783978456 7.76233293156429  C 8.37095783978456 7.76233293156429  8.41092693918808 7.80473785412437  8.41092693918808 7.80473785412437  C 8.66406456874431 8.05138477523042  9.06620388574015 8.06436619213075  9.33502590344789 7.84368210482535  C 9.33502590344789 7.84368210482535  9.37854674502265 7.80473785412437  9.37854674502265 7.80473785412437  C 9.37854674502265 7.80473785412437  12.7995993766013 4.47140452079122  12.7995993766013 4.47140452079122  C 12.8309485969283 4.44085912662646  12.8586197837301 4.40808709123009  12.8826129370067 4.3736108940139  C 12.9212489165227 4.31795705543278  12.9515139708315 4.25640650550264  12.9716295753584 4.19059537960454  C 12.9716295753584 4.19059537960454  12.9933109848605 4.09358873689999  12.9933109848605 4.09358873689999  L 13 4.00000000000121  L 12.9973886736292 3.94135008608557  L 12.9793114845905 3.83688404935278  L 12.9474740336235 3.7433817018871  L 12.9003868914804 3.65330549068358  L 12.8630111561151 3.59973141073581  L 12.7995993766013 3.52859547920923  C 12.7995993766013 3.52859547920923  9.37854674502264 0.19526214587562  9.37854674502264 0.19526214587562  Z " fill-rule="nonzero" fill="#237ffa" stroke="none" transform="matrix(1 0 0 1 486 732 )" />
  </g>
</svg>