<?xml version="1.0" encoding="utf-8"?>
<svg version="1.1" xmlns:xlink="http://www.w3.org/1999/xlink" width="128px" height="128px" xmlns="http://www.w3.org/2000/svg">
  <defs>
    <linearGradient gradientUnits="userSpaceOnUse" x1="-48.7769490615428" y1="146.700853667706" x2="64" y2="75.0220902623006" id="LinearGradient1634">
      <stop id="Stop1635" stop-color="#40ff81" offset="0" />
      <stop id="Stop1636" stop-color="#38d677" offset="1" />
    </linearGradient>
    <mask fill="white" id="clip1637">
      <path d="M 0 64  C 0 99.3462239872  28.6537760128 128  64 128  C 99.3462239872 128  128 99.3462239872  128 64  C 128 28.6537760128  99.3462239872 0  64 0  C 28.6537760128 0  0 28.6537760128  0 64  Z " fill-rule="evenodd" />
    </mask>
  </defs>
  <g transform="matrix(1 0 0 1 25 98 )">
    <path d="M 0 64  C 0 99.3462239872  28.6537760128 128  64 128  C 99.3462239872 128  128 99.3462239872  128 64  C 128 28.6537760128  99.3462239872 0  64 0  C 28.6537760128 0  0 28.6537760128  0 64  Z " fill-rule="nonzero" fill="#ffffff" stroke="none" fill-opacity="0" transform="matrix(1 0 0 1 -25 -98 )" />
    <path d="M 0 64  C 0 99.3462239872  28.6537760128 128  64 128  C 99.3462239872 128  128 99.3462239872  128 64  C 128 28.6537760128  99.3462239872 0  64 0  C 28.6537760128 0  0 28.6537760128  0 64  Z " stroke-width="80" stroke="url(#LinearGradient1634)" fill="none" transform="matrix(1 0 0 1 -25 -98 )" mask="url(#clip1637)" />
  </g>
</svg>