<?xml version="1.0" encoding="utf-8"?>
<svg version="1.1" xmlns:xlink="http://www.w3.org/1999/xlink" width="8px" height="8px" xmlns="http://www.w3.org/2000/svg">
  <g transform="matrix(1 0 0 1 -1428 -983 )">
    <path d="M 3.99999999999824 7.3333333333334  C 2.15905083399826 7.3333333333334  0.666666666664923 5.84094916600006  0.666666666664923 4.00000000000006  C 0.666666666664923 2.15905083400008  2.15905083399826 0.666666666666742  3.99999999999824 0.666666666666742  C 5.84094916599824 0.666666666666742  7.33333333333158 2.15905083400008  7.33333333333158 4.00000000000006  C 7.33333333333158 5.84094916600006  5.84094916599824 7.3333333333334  3.99999999999824 7.3333333333334  Z M 3.99999999999858 5.66666666666671  C 4.92047458294724 5.66666666666671  5.66666666666524 4.92047458294871  5.66666666666524 4.00000000000006  C 5.66666666666524 3.07952541705137  4.92047458294724 2.33333333333337  3.99999999999858 2.33333333333337  C 3.07952541704989 2.33333333333337  2.33333333333189 3.07952541705137  2.33333333333189 4.00000000000006  C 2.33333333333189 4.92047458294871  3.07952541704989 5.66666666666671  3.99999999999858 5.66666666666671  Z " fill-rule="nonzero" fill="#5f6a7a" stroke="none" transform="matrix(1 0 0 1 1428 983 )" />
  </g>
</svg>