<?xml version="1.0" encoding="utf-8"?>
<svg version="1.1" xmlns:xlink="http://www.w3.org/1999/xlink" width="2px" height="8px" xmlns="http://www.w3.org/2000/svg">
  <g transform="matrix(1 0 0 1 -493 -322 )">
    <path d="M 1 7.66666666666606  C 0.626666666666551 7.66666666666606  0.333333333333258 7.44666666666581  0.333333333333258 7.16666666666606  L 0.333333333333258 3.16666666666606  C 0.333333333333258 2.88666666666632  0.626666666666551 2.66666666666606  1 2.66666666666606  C 1.37333333333333 2.66666666666606  1.66666666666663 2.88666666666632  1.66666666666663 3.16666666666606  L 1.66666666666663 7.16666666666606  C 1.66666666666663 7.44666666666581  1.37333333333333 7.66666666666606  1 7.66666666666606  Z M 1.66666666666663 1  C 1.66666666666663 1.37333333333299  1.37333333333333 1.66666666666606  1 1.66666666666606  C 0.626666666666551 1.66666666666606  0.333333333333258 1.37333333333299  0.333333333333258 1  C 0.333333333333258 0.626666666666097  0.626666666666551 0.33333333333303  1 0.33333333333303  C 1.37333333333333 0.33333333333303  1.66666666666663 0.626666666666097  1.66666666666663 1  Z " fill-rule="nonzero" fill="#929aa6" stroke="none" transform="matrix(1 0 0 1 493 322 )" />
  </g>
</svg>