<?xml version="1.0" encoding="utf-8"?>
<svg version="1.1" xmlns:xlink="http://www.w3.org/1999/xlink" width="4px" height="9px" xmlns="http://www.w3.org/2000/svg">
  <g transform="matrix(1 0 0 1 -503 -976 )">
    <path d="M 0.889087296526668 8.88908729652758  C 0.609087296526695 8.88908729652758  0.389087296526668 8.66908729652732  0.389087296526668 8.38908729652758  L 0.389087296526668 1.38908729652758  C 0.389087296526668 1.10908729652783  0.609087296526695 0.889087296527578  0.889087296526668 0.889087296527578  C 1.16908729652664 0.889087296527578  1.38908729652667 1.10908729652783  1.38908729652667 1.38908729652758  L 1.38908729652667 8.38908729652758  C 1.38908729652667 8.66908729652732  1.16908729652664 8.88908729652758  0.889087296526668 8.88908729652758  Z M 2.88908729652667 6.88908729652758  C 2.6090872965267 6.88908729652758  2.38908729652667 6.66908729652732  2.38908729652667 6.38908729652758  L 2.38908729652667 3.38908729652758  C 2.38908729652667 3.10908729652783  2.6090872965267 2.88908729652758  2.88908729652667 2.88908729652758  C 3.16908729652664 2.88908729652758  3.38908729652667 3.10908729652783  3.38908729652667 3.38908729652758  L 3.38908729652667 6.38908729652758  C 3.38908729652667 6.66908729652732  3.16908729652664 6.88908729652758  2.88908729652667 6.88908729652758  Z " fill-rule="nonzero" fill="#5f6a7a" stroke="none" transform="matrix(1 0 0 1 503 976 )" />
  </g>
</svg>