<?xml version="1.0" encoding="utf-8"?>
<svg version="1.1" xmlns:xlink="http://www.w3.org/1999/xlink" width="14px" height="14px" xmlns="http://www.w3.org/2000/svg">
  <g transform="matrix(1 0 0 1 -487 -319 )">
    <path d="M 7 13.6666666666661  C 3.31810166799994 13.6666666666661  0.333333333333258 10.681898331999  0.333333333333258 7  C 0.333333333333258 3.31810166800005  3.31810166799994 0.33333333333303  7 0.33333333333303  C 10.6818983319999 0.33333333333303  13.6666666666666 3.31810166800005  13.6666666666666 7  C 13.6666666666666 10.681898331999  10.6818983319999 13.6666666666661  7 13.6666666666661  Z M 7 12.333333333333  C 9.94551866555889 12.333333333333  12.3333333333333 9.94551866555867  12.3333333333333 7  C 12.3333333333333 4.05448133444042  9.94551866555889 1.66666666666606  7 1.66666666666606  C 4.05448133444099 1.66666666666606  1.66666666666663 4.05448133444042  1.66666666666663 7  C 1.66666666666663 9.94551866555867  4.05448133444099 12.333333333333  7 12.333333333333  Z " fill-rule="nonzero" fill="#929aa6" stroke="none" transform="matrix(1 0 0 1 487 319 )" />
  </g>
</svg>