<?xml version="1.0" encoding="utf-8"?>
<svg version="1.1" xmlns:xlink="http://www.w3.org/1999/xlink" width="14px" height="18px" xmlns="http://www.w3.org/2000/svg">
  <g transform="matrix(1 0 0 1 -1425 -784 )">
    <path d="M 13.6666666666664 12.4722222222217  C 13.6666666666664 13.7762278815444  12.5473785412433 14.8333333333328  11.1666666667959 14.8333333333329  L 8.44369592320231 14.8333333333329  L 5.55630532744183 14.8333333333328  C 4.05148237058907 14.8333333333328  2.83333333333303 14.8333333333328  2.83333333333303 14.8333333333328  C 1.45262145875606 14.8333333333328  0.33333333333303 13.7762278815444  0.33333333333303 12.4722222222217  C 0.33333333333303 12.4722222222217  0.33333333333303 6.96296296296247  0.33333333333303 6.96296296296247  C 0.33333333333303 3.48561453810192  3.31810166779439 0.666666666666174  6.99999999999972 0.666666666666174  C 10.681898332205 0.666666666666174  13.6666666666664 3.48561453810192  13.6666666666664 6.96296296296247  C 13.6666666666664 6.96296296296247  13.6666666666664 12.4722222222217  13.6666666666664 12.4722222222217  Z M 5.33333331323237 15.6666666666662  L 8.66666666666637 15.6666666666662  C 8.66666666666637 16.5871412496662  7.9204745829997 17.3333333333328  6.99999999999972 17.3333333333328  C 6.0795254169997 17.3333333333328  5.33333333333303 16.5871412496662  5.33333331323237 15.6666666666662  Z " fill-rule="nonzero" fill="#ff5959" stroke="none" transform="matrix(1 0 0 1 1425 784 )" />
  </g>
</svg>