<?xml version="1.0" encoding="utf-8"?>
<svg version="1.1" xmlns:xlink="http://www.w3.org/1999/xlink" width="12px" height="12px" xmlns="http://www.w3.org/2000/svg">
  <g transform="matrix(1 0 0 1 -802 -1561 )">
    <path d="M 7.88295453579182 0.966603533742784  C 8.56637204635654 0.283186023178075  9.67441075938002 0.283186023178075  10.3578282699447 0.966603533742784  C 10.3578282699447 0.966603533742784  10.976546703483 1.58532196728106  10.976546703483 1.58532196728106  C 11.6599642140477 2.26873947784577  11.6599642140477 3.37677819086923  10.976546703483 4.06019570143394  C 10.976546703483 4.06019570143394  5.85290929584429 9.18383310907268  5.85290929584429 9.18383310907268  C 5.63411685432158 9.40262555059536  5.33737062260612 9.52554186435503  5.02795138445998 9.52554186435503  C 5.02795138445998 9.52554186435503  3.00094170620412 9.52554186435503  3.00094170620412 9.52554186435503  C 2.67877560213616 9.52554186435503  2.41760837287079 9.26437463508961  2.41760837287079 8.94220853102166  C 2.41760837287079 8.94220853102166  2.4176083728708 6.91519885276574  2.4176083728708 6.91519885276574  C 2.4176083728708 6.60577961461962  2.54052468663045 6.30903338290415  2.75931712815316 6.09024094138147  C 2.75931712815316 6.09024094138147  7.88295453579182 0.966603533742784  7.88295453579182 0.966603533742784  Z M 11.0378787878785 11.5416666666667  L 0.962121212120909 11.5416666666667  C 0.679999999999698 11.5416666666667  0.45833333333303 11.285  0.45833333333303 10.9583333333334  C 0.45833333333303 10.6316666666667  0.679999999999698 10.375  0.962121212120909 10.375  L 11.0378787878785 10.375  C 11.3199999999997 10.375  11.5416666666664 10.6316666666667  11.5416666666664 10.9583333333334  C 11.5416666666664 11.285  11.3199999999997 11.5416666666667  11.0378787878785 11.5416666666667  Z " fill-rule="nonzero" fill="#0daeff" stroke="none" transform="matrix(1 0 0 1 802 1561 )" />
  </g>
</svg>