<?xml version="1.0" encoding="utf-8"?>
<svg version="1.1" xmlns:xlink="http://www.w3.org/1999/xlink" width="4px" height="5px" xmlns="http://www.w3.org/2000/svg">
  <g transform="matrix(1 0 0 1 -1140 -2912 )">
    <path d="M 1.66483808785597 1.28357921838084  C 1.66483808785597 1.28357921838084  1.66561509354028 2.29620852530871  1.66615610497183 3.00127925014051  C 1.2652238185201 3.00158689150884  0.950245885046911 3.00182857881046  0.950245885046911 3.00182857881046  C 0.621374271231389 3.02609183058362  0.358849385539202 3.28893629488718  0.335086351547034 3.61794676016113  C 0.334741450890419 3.16845646695895  0.33333333333303 1.33333333333364  0.33333333333303 1.33333333333364  C 0.33333333333303 0.965143500113108  0.631810166779132 0.66666666666697  0.999999999999773 0.66666666666697  C 1.35145393171024 0.66666666666697  1.63938837395688 0.938625930199507  1.66483808785597 1.28357921838084  Z M 3.38308744828578 4.33150475452287  C 3.38308744828578 4.33150475452287  0.999999999999659 4.33333333333333  0.999999999999773 4.33333333333364  C 1.3681898332203 4.33333333333364  1.6666666666664 4.0348564998875  1.6666666666664 3.66666666666697  C 1.6666666666664 3.66666666666697  1.6664450420119 3.37783529144789  1.66615610497195 3.00127925014051  C 2.36803447912109 3.00074068831668  3.33333333333303 3  3.33333333333303 3  C 3.70152316655356 3  3.99999999999966 3.29847683344614  3.99999999999966 3.66666666666666  C 3.99999999999966 4.01812059837717  3.72804073646716 4.30605504062382  3.38308744828578 4.33150475452287  Z M 0.335086351740415 3.61794701228581  C 0.335134486126321 3.68067794307724  0.335161912143462 3.71642078161977  0.33333333333303 3.66666666666666  C 0.33333333333303 3.65028201731239  0.333924406640449 3.63403542052611  0.335086351740415 3.61794701228581  Z " fill-rule="nonzero" fill="#5f6a7a" stroke="none" transform="matrix(1 0 0 1 1140 2912 )" />
  </g>
</svg>