<?xml version="1.0" encoding="utf-8"?>
<svg version="1.1" xmlns:xlink="http://www.w3.org/1999/xlink" width="5px" height="9px" xmlns="http://www.w3.org/2000/svg">
  <g transform="matrix(1 0 0 1 -1174 -827 )">
    <path d="M 4.28172598954764 3.775735931289  C 4.28172598954764 3.775735931289  0.948392656215068 0.175735931288081  0.948392656215068 0.175735931288081  C 0.731434716353003 -0.0585786437626935  0.379676394757856 -0.0585786437626935  0.16271845489617 0.175735931288081  C -0.0428206460257267 0.397718160283524  -0.0536384934423495 0.750363407496372  0.130264912645544 0.986099638409337  C 0.130264912645544 0.986099638409337  0.16271845489617 1.02426406871274  0.16271845489617 1.02426406871274  L 3.10305555555525 4.20000000000095  C 3.10305555555525 4.20000000000095  0.162718454896549 7.37573593128894  0.162718454896549 7.37573593128894  C -0.0428206460249688 7.59771816028438  -0.0536384934419705 7.95036340749621  0.130264912645922 8.18609963840917  C 0.130264912645922 8.18609963840917  0.162718454896549 8.22426406871299  0.162718454896549 8.22426406871299  C 0.368257555818445 8.44624629770849  0.694780932865342 8.457929572919  0.913055220747765 8.25931389434408  C 0.913055220747765 8.25931389434408  0.948392656214689 8.22426406871299  0.948392656214689 8.22426406871299  C 0.948392656214689 8.22426406871299  4.28172598954764 4.62426406871284  4.28172598954764 4.62426406871284  C 4.48726509046954 4.4022818397174  4.49808293788654 4.04963659250588  4.31417953179865 3.81390036159297  C 4.31417953179865 3.81390036159297  4.28172598954764 3.775735931289  4.28172598954764 3.775735931289  Z " fill-rule="nonzero" fill="#5f6a7a" stroke="none" transform="matrix(1 0 0 1 1174 827 )" />
  </g>
</svg>