<?xml version="1.0" encoding="utf-8"?>
<svg version="1.1" xmlns:xlink="http://www.w3.org/1999/xlink" width="6px" height="8px" xmlns="http://www.w3.org/2000/svg">
  <g transform="matrix(1 0 0 1 -995 -543 )">
    <path d="M 3.39907051838122 7.00000000000011  C 3.39907051838122 7.37333333333345  3.10573718504793 7.6666666666668  2.73240385171448 7.6666666666668  C 2.35907051838126 7.6666666666668  2.06573718504796 7.37333333333345  2.06573718504796 7.00000000000011  C 2.06573718504796 6.62666666666684  2.35907051838126 6.33333333333348  2.73240385171448 6.33333333333348  C 3.10573718504793 6.33333333333348  3.39907051838122 6.62666666666684  3.39907051838122 7.00000000000011  Z M 2.2150974044805 3.71831417624531  L 2.23494908060638 5.68000000000012  L 3.4856046765326 5.68000000000012  C 3.4856046765326 5.68000000000012  3.50545635265848 4.38242656449563  3.50545635265848 4.38242656449563  C 4.49804015894915 4.07591315453396  5.25240385173015 3.36071519795672  5.25240385173015 2.26748403576005  C 5.25240385173015 1.23555555555572  4.56752102538962 0.346666666666806  3.08857115401634 0.346666666666806  C 2.09935973359961 0.346666666666806  1.19806601465484 0.836862341865356  0.812713817386793 1.83669123316571  C 0.749533539508093 2.00061781158291  0.66666666666697 2.3696551724139  0.66666666666697 2.3696551724139  L 1.98680312903366 2.56378033205635  C 1.98680312903366 2.56378033205635  2.16123648192024 2.12796729653223  2.29675663761759 1.9843195139116  C 2.50785125294146 1.76056480186628  2.78460384372511 1.65445721583666  3.06871947789045 1.65445721583666  C 3.50545635265848 1.65445721583666  3.88263819904887 1.9098850574714  3.88263819904887 2.35943805874854  C 3.88263819904887 2.99127670892216  3.41406925549882 3.3732391531808  2.82179272972644 3.5754451709717  C 2.62872438961153 3.64135961889826  2.2150974044805 3.71831417624531  2.2150974044805 3.71831417624531  Z " fill-rule="nonzero" fill="#237ffa" stroke="none" transform="matrix(1 0 0 1 995 543 )" />
  </g>
</svg>