<?xml version="1.0" encoding="utf-8"?>
<svg version="1.1" xmlns:xlink="http://www.w3.org/1999/xlink" width="8px" height="11px" xmlns="http://www.w3.org/2000/svg">
  <g transform="matrix(1 0 0 1 -630 -3142 )">
    <path d="M 0.195262145875631 4.13807118745352  C 0.195262145875631 4.13807118745352  6.52859547920536 10.4714045207869  6.52859547920536 10.4714045207869  C 6.78894500703962 10.7317540486212  7.21105499295334 10.7317540486212  7.47140452078759 10.4714045207869  C 7.71805144189364 10.2247575996813  7.73103285879392 9.83292954722205  7.51034877148845 9.57100040176287  C 7.51034877148845 9.57100040176287  7.47140452078759 9.52859547920441  7.47140452078759 9.52859547920441  L 1.60966666666661 3.66666666666273  C 1.60966666666661 3.66666666666273  4.13807118745535 1.13807118745824  4.13807118745535 1.13807118745824  C 4.3847181085614 0.89142426635258  4.39769952546169 0.499596213894289  4.17701543815633 0.237667068436919  C 4.17701543815633 0.237667068436919  4.13807118745535 0.195262145876639  4.13807118745535 0.195262145876639  C 3.8914242663493 -0.0513847752299285  3.49959621389405 -0.0643661921303221  3.23766706843514 0.156317895174549  C 3.23766706843514 0.156317895174549  3.19526214587506 0.195262145876639  3.19526214587506 0.195262145876639  C 3.19526214587506 0.195262145876639  0.195262145875631 3.19526214587284  0.195262145875631 3.19526214587284  C -0.0513847752304173 3.44190906697758  -0.0643661921307057 3.83373711943497  0.156317895174652 4.09566626489415  C 0.156317895174652 4.09566626489415  0.195262145875631 4.13807118745352  0.195262145875631 4.13807118745352  Z " fill-rule="nonzero" fill="#5f6a7a" stroke="none" transform="matrix(1 0 0 1 630 3142 )" />
  </g>
</svg>