<?xml version="1.0" encoding="utf-8"?>
<svg version="1.1" xmlns:xlink="http://www.w3.org/1999/xlink" width="12px" height="12px" xmlns="http://www.w3.org/2000/svg">
  <g transform="matrix(1 0 0 1 -802 -1441 )">
    <path d="M 0.45833333333303 2.20833333333337  C 0.45833333333303 1.24183502112948  1.24183502112914 0.458333333333371  2.20833333333303 0.458333333333371  C 2.20833333333303 0.458333333333371  9.79166666666636 0.458333333333371  9.79166666666636 0.458333333333371  C 10.7581649788702 0.458333333333371  11.5416666666664 1.24183502112948  11.5416666666664 2.20833333333337  C 11.5416666666664 2.20833333333337  11.5416666666664 7.45833333333343  11.5416666666664 7.45833333333343  C 11.5416666666664 8.42483164553732  10.7581649788702 9.20833333333337  9.79166666666631 9.20833333333337  C 9.79166666666631 9.20833333333337  2.20833333333308 9.20833333333337  2.20833333333308 9.20833333333337  C 1.24183502112919 9.20833333333337  0.45833333333303 8.42483164553732  0.45833333333303 7.45833333333343  C 0.45833333333303 7.45833333333343  0.45833333333303 2.20833333333337  0.45833333333303 2.20833333333337  Z M 8.43055555555524 11.5416666666667  L 3.56944444444414 11.5416666666667  C 3.29722222222192 11.5416666666667  3.08333333333303 11.285  3.08333333333303 10.9583333333333  C 3.08333333333303 10.6316666666667  3.29722222222192 10.375  3.56944444444414 10.375  L 8.43055555555524 10.375  C 8.70277777777747 10.375  8.91666666666636 10.6316666666667  8.91666666666636 10.9583333333333  C 8.91666666666636 11.285  8.70277777777747 11.5416666666667  8.43055555555524 11.5416666666667  Z " fill-rule="nonzero" fill="#237ffa" stroke="none" transform="matrix(1 0 0 1 802 1441 )" />
  </g>
</svg>