<?xml version="1.0" encoding="utf-8"?>
<svg version="1.1" xmlns:xlink="http://www.w3.org/1999/xlink" width="7px" height="14px" xmlns="http://www.w3.org/2000/svg">
  <g transform="matrix(1 0 0 1 -1255 -2308 )">
    <path d="M 3.66666666666849 3.00000000000568  L 0.333333333336744 3.00000000000568  L 0.333333333336744 0.333333333338942  L 3.66666666666849 0.333333333338942  L 3.66666666666849 3.00000000000568  Z M 3.66666666666826 3.00000000000591  L 7 3.00000000000591  L 7 5.66666666667265  L 3.66666666666826 5.66666666667265  L 3.66666666666826 3.00000000000591  Z M 3.66666666666849 8.33333333333985  L 0.333333333336744 8.33333333333985  L 0.333333333336744 5.66666666667311  L 3.66666666666849 5.66666666667311  L 3.66666666666849 8.33333333333985  Z M 7 8.33333333333894  L 7 11.0000000000057  L 3.66666666666826 11.0000000000057  L 3.66666666666826 8.33333333333894  L 7 8.33333333333894  Z M 3.66666666666849 13.6666666666727  L 0.333333333336744 13.6666666666727  L 0.333333333336744 11.0000000000059  L 3.66666666666849 11.0000000000059  L 3.66666666666849 13.6666666666727  Z " fill-rule="nonzero" fill="#ffffff" stroke="none" transform="matrix(1 0 0 1 1255 2308 )" />
  </g>
</svg>