<?xml version="1.0" encoding="utf-8"?>
<svg version="1.1" xmlns:xlink="http://www.w3.org/1999/xlink" width="11px" height="13px" xmlns="http://www.w3.org/2000/svg">
  <g transform="matrix(1 0 0 1 -1019 -2044 )">
    <path d="M 1.26434723071236 4.240657567549  C 1.26434723071236 4.240657567549  2.96081898050124 1.30275030499135  2.96081898050124 1.30275030499135  C 3.51310373033198 0.346165058038872  4.7362845411177 0.0184147475915776  5.69286978807008 0.570699497422528  C 5.69286978807008 0.570699497422528  5.98154492266485 0.73736616408904  5.98154492266485 0.73736616408904  C 7.01318352665498 1.33298298980933  7.41792297437382 2.59743061697277  6.96427019862631 3.6667651572074  C 6.96427019862631 3.6667651572074  8.6939806251811 3.66666666666668  8.6939806251811 3.66666666666668  C 9.79855012484268 3.66666666666668  10.6939806251811 4.5620971670052  10.6939806251811 5.66666666666664  C 10.6939806251811 5.76130440451438  10.687263409741 5.8558227984778  10.6738796125035 5.94950937914144  C 10.6738796125035 5.94950937914144  9.91197485059865 11.2828427124746  9.91197485059865 11.2828427124746  C 9.77121806821617 12.2681401891523  8.92737661648312 13  7.9320758632764 13  C 7.9320758632764 13  2.66666666666652 13  2.66666666666652 13  C 1.56209716700494 13  0.666666666666515 12.1045694996617  0.666666666666515 11  C 0.666666666666515 11  0.666666666666515 5.66666666666664  0.666666666666515 5.66666666666664  C 0.666666666666515 5.10835699229247  0.895435099024098 4.60347904824417  1.26434723071236 4.240657567549  Z M 5.73682604742487 3.14603621288137  C 5.92392630982613 2.70500998364032  5.7674311561741 2.19003658301491  5.36830576608361 1.92516956754727  C 5.36830576608361 1.92516956754727  5.02620312140346 1.72540003580181  5.02620312140346 1.72540003580181  C 4.72252526522811 1.55007154379197  4.33824406397844 1.64081563236525  4.14326663099496 1.92536906383131  L 2.32842192957241 5.0642677983466  C 2.32842192957241 5.0642677983466  2.19927632945735 5.1912812355155  2.19927632945735 5.1912812355155  C 2.08591385059822 5.30277212698265  2.01663176520128 5.44759982120822  2.00263528300025 5.60646985417556  C 2.00263528300025 5.60646985417556  1.99999999999989 11  1.99999999999989 11  C 1.99999999999989 11.3514539317105  2.27195926353238 11.6393883739572  2.61691255171377 11.6648380878562  C 2.61691255171377 11.6648380878562  7.9320758632764 11.6666666666668  7.9320758632764 11.6666666666668  C 8.24638136428905 11.6666666666668  8.51537494131514 11.447716917161  8.58271314557896 11.145413372358  C 8.58271314557896 11.145413372358  9.35394695428863 5.76094757082514  9.35394695428863 5.76094757082514  C 9.35840822003456 5.72971871060385  9.36064729184784 5.69821257928278  9.36064729184784 5.66666666666687  C 9.36064729184784 5.31521273495641  9.08868802831535 5.02727829270966  8.74380077141086 5.00182857693076  L 4.95021297777419 5.00021317408564  C 4.95021297777419 5.00021317408564  5.73682604742487 3.14603621288137  5.73682604742487 3.14603621288137  Z " fill-rule="nonzero" fill="#929aa6" stroke="none" transform="matrix(1 0 0 1 1019 2044 )" />
  </g>
</svg>