<?xml version="1.0" encoding="utf-8"?>
<svg version="1.1" xmlns:xlink="http://www.w3.org/1999/xlink" width="14px" height="14px" xmlns="http://www.w3.org/2000/svg">
  <g transform="matrix(1 0 0 1 -1080 -3141 )">
    <path d="M 7.66666666666663 1.15384615384573  L 7.66667333392081 6.33333333333303  L 12.8461538461538 6.33333333333303  C 13.1189743589742 6.33333333333303  13.3333333333333 6.62666666666655  13.3333333333333 7  C 13.3333333333333 7.37333333333299  13.1189743589742 7.66666666666652  12.8461538461538 7.66666666666652  L 7.66666666666663 7.66666667195977  L 7.66666666666663 12.8461538461534  C 7.66666666666663 13.1189743589739  7.37333333333333 13.333333333333  7 13.333333333333  C 6.62666666666667 13.333333333333  6.33333333333337 13.1189743589739  6.33333333333337 12.8461538461534  L 6.33332666607919 7.66666666666652  L 1.15384615384608 7.66666666666652  C 0.881025641025644 7.66666666666652  0.666666666666629 7.37333333333299  0.666666666666629 7  C 0.666666666666629 6.62666666666655  0.881025641025644 6.33333333333303  1.15384615384608 6.33333333333303  L 6.33333333333337 6.33333332803977  L 6.33333333333337 1.15384615384573  C 6.33333333333337 0.88102564102519  6.62666666666667 0.66666666666606  7 0.66666666666606  C 7.37333333333333 0.66666666666606  7.66666666666663 0.88102564102519  7.66666666666663 1.15384615384573  Z " fill-rule="nonzero" fill="#ffffff" stroke="none" transform="matrix(1 0 0 1 1080 3141 )" />
  </g>
</svg>