<?xml version="1.0" encoding="utf-8"?>
<svg version="1.1" xmlns:xlink="http://www.w3.org/1999/xlink" width="5px" height="5px" xmlns="http://www.w3.org/2000/svg">
  <g transform="matrix(1 0 0 1 -429 -2597 )">
    <path d="M 0.999999999999886 4.66666666666652  C 0.626666666666551 4.66666666666652  0.333333333333201 4.46133333333319  0.333333333333201 4.19999999999982  L 0.333333333333201 0.466666666666697  C 0.333333333333201 0.205333333333328  0.626666666666551 0  0.999999999999886 0  C 1.37333333333316 0  1.66666666666652 0.205333333333328  1.66666666666652 0.466666666666697  L 1.66666666666652 4.19999999999982  C 1.66666666666652 4.46133333333319  1.37333333333316 4.66666666666652  0.999999999999886 4.66666666666652  Z M 4.53333333333319 4.66666666666652  L 0.799999999999841 4.66666666666652  C 0.538666666666529 4.66666666666652  0.333333333333201 4.37333333333299  0.333333333333201 4  C 0.333333333333201 3.62666666666655  0.538666666666529 3.33333333333303  0.799999999999841 3.33333333333303  L 4.53333333333319 3.33333333333303  C 4.79466666666656 3.33333333333303  4.99999999999989 3.62666666666655  4.99999999999989 4  C 4.99999999999989 4.37333333333299  4.79466666666656 4.66666666666652  4.53333333333319 4.66666666666652  Z " fill-rule="nonzero" fill="#929aa6" stroke="none" transform="matrix(1 0 0 1 429 2597 )" />
  </g>
</svg>