<?xml version="1.0" encoding="utf-8"?>
<svg version="1.1" xmlns:xlink="http://www.w3.org/1999/xlink" width="16px" height="16px" xmlns="http://www.w3.org/2000/svg">
  <g transform="matrix(1 0 0 1 -1424 -881 )">
    <path d="M 0.0833333333330302 2.58333333333292  C 0.0833333333330302 1.20262145875594  1.20262145875606 0.0833333333329165  2.58333333333303 0.0833333333329165  C 2.58333333333303 0.0833333333329165  13.4166666666664 0.0833333333329165  13.4166666666664 0.0833333333329165  C 14.7973785412433 0.0833333333329165  15.9166666666664 1.20262145875594  15.9166666666664 2.58333333333292  C 15.9166666666664 2.58333333333292  15.9166666666664 10.083333333333  15.9166666666664 10.083333333333  C 15.9166666666664 11.46404520791  14.7973785412433 12.5833333333329  13.4166666666663 12.5833333333329  C 13.4166666666663 12.5833333333329  2.58333333333312 12.5833333333329  2.58333333333312 12.5833333333329  C 1.20262145875611 12.5833333333329  0.0833333333330302 11.46404520791  0.0833333333330302 10.083333333333  C 0.0833333333330302 10.083333333333  0.0833333333330302 2.58333333333292  0.0833333333330302 2.58333333333292  Z M 11.1249999999997 15.9166666666661  L 4.87499999999969 15.9166666666661  C 4.29166666666637 15.9166666666661  3.83333333333303 15.5499999999995  3.83333333333303 15.0833333333328  C 3.83333333333303 14.6166666666662  4.29166666666637 14.2499999999995  4.87499999999969 14.2499999999995  L 11.1249999999997 14.2499999999995  C 11.708333333333 14.2499999999995  12.1666666666664 14.6166666666662  12.1666666666664 15.0833333333328  C 12.1666666666664 15.5499999999995  11.708333333333 15.9166666666661  11.1249999999997 15.9166666666661  Z " fill-rule="nonzero" fill="#237ffa" stroke="none" transform="matrix(1 0 0 1 1424 881 )" />
  </g>
</svg>