<?xml version="1.0" encoding="utf-8"?>
<svg version="1.1" xmlns:xlink="http://www.w3.org/1999/xlink" width="6px" height="4px" xmlns="http://www.w3.org/2000/svg">
  <g transform="matrix(1 0 0 1 -805 -1687 )">
    <path d="M 4.5312499999997 1.45833333333366  L 1.4687499999997 1.45833333333366  C 1.18291666666637 1.45833333333366  0.95833333333303 1.20166666666699  0.95833333333303 0.875000000000341  C 0.95833333333303 0.54833333333363  1.18291666666637 0.29166666666697  1.4687499999997 0.29166666666697  L 4.5312499999997 0.29166666666697  C 4.81708333333303 0.29166666666697  5.04166666666637 0.54833333333363  5.04166666666637 0.875000000000341  C 5.04166666666637 1.20166666666699  4.81708333333303 1.45833333333366  4.5312499999997 1.45833333333366  Z M 4.5312499999997 3.20833333333366  L 1.4687499999997 3.20833333333366  C 1.18291666666637 3.20833333333366  0.95833333333303 2.95166666666699  0.95833333333303 2.62500000000034  C 0.95833333333303 2.29833333333363  1.18291666666637 2.04166666666697  1.4687499999997 2.04166666666697  L 4.5312499999997 2.04166666666697  C 4.81708333333303 2.04166666666697  5.04166666666637 2.29833333333363  5.04166666666637 2.62500000000034  C 5.04166666666637 2.95166666666699  4.81708333333303 3.20833333333366  4.5312499999997 3.20833333333366  Z " fill-rule="nonzero" fill="#38d677" stroke="none" transform="matrix(1 0 0 1 805 1687 )" />
  </g>
</svg>