<?xml version="1.0" encoding="utf-8"?>
<svg version="1.1" xmlns:xlink="http://www.w3.org/1999/xlink" width="16px" height="17px" xmlns="http://www.w3.org/2000/svg">
  <g transform="matrix(1 0 0 1 -1296 -880 )">
    <path d="M 0.916666666666359 8.58333333333292  C 0.916666666666359 8.58333333333292  15.083333333333 8.58333333333292  15.083333333333 8.58333333333292  C 15.5435706248587 8.58333333333292  15.9166666666664 8.9564293751406  15.9166666666664 9.41666666666626  C 15.9166666666664 9.41666666666626  15.9166666666664 14.4166666666663  15.9166666666664 14.4166666666663  C 15.9166666666664 15.7973785412432  14.7973785412433 16.9166666666663  13.4166666666664 16.9166666666663  C 13.4166666666664 16.9166666666663  2.58333333333303 16.9166666666663  2.58333333333303 16.9166666666663  C 1.20262145875604 16.9166666666663  0.0833333333330302 15.7973785412432  0.0833333333330302 14.4166666666663  C 0.0833333333330302 14.4166666666663  0.0833333333330302 9.41666666666626  0.0833333333330302 9.41666666666626  C 0.0833333333330302 8.9564293751406  0.456429375140701 8.58333333333292  0.916666666666359 8.58333333333292  Z M 0.916666666666359 6.91666666666615  C 0.456429375140701 6.91666666666615  0.0833333333330302 6.54357062485846  0.0833333333330302 6.0833333333328  C 0.0833333333330302 6.0833333333328  0.0833333333330302 4.41666666666615  0.0833333333330302 4.41666666666615  C 0.0833333333330302 3.03595479208923  1.20262145875611 1.91666666666615  2.58333333333303 1.91666666666615  C 2.58333333333303 1.91666666666615  4.2499999999997 1.91666666666615  4.2499999999997 1.91666666666615  C 4.2499999999997 1.91666666666615  4.2499999999997 1.08333333333283  4.2499999999997 1.08333333333283  C 4.2499999999997 0.623096041807173  4.62309604180737 0.249999999999488  5.08333333333303 0.249999999999488  C 5.54357062485869 0.249999999999488  5.91666666666636 0.623096041807173  5.91666666666636 1.08333333333283  C 5.91666666666636 1.08333333333283  5.91666666666636 1.91666666666615  5.91666666666636 1.91666666666615  L 10.083333333333 1.91666666666615  C 10.083333333333 1.91666666666615  10.083333333333 1.08333333333283  10.083333333333 1.08333333333283  C 10.083333333333 0.623096041807173  10.4564293751407 0.249999999999488  10.9166666666664 0.249999999999488  C 11.376903958192 0.249999999999488  11.7499999999997 0.623096041807173  11.7499999999997 1.08333333333283  C 11.7499999999997 1.08333333333283  11.7499999999997 1.91666666666615  11.7499999999997 1.91666666666615  C 11.7499999999997 1.91666666666615  13.4166666666664 1.91666666666615  13.4166666666664 1.91666666666615  C 14.7973785412433 1.91666666666615  15.9166666666664 3.03595479208923  15.9166666666664 4.41666666666615  C 15.9166666666664 4.41666666666615  15.9166666666664 6.0833333333328  15.9166666666664 6.0833333333328  C 15.9166666666664 6.54357062485846  15.5435706248587 6.91666666666615  15.083333333333 6.91666666666615  C 15.083333333333 6.91666666666615  0.916666666666359 6.91666666666615  0.916666666666359 6.91666666666615  Z " fill-rule="nonzero" fill="#38d677" stroke="none" transform="matrix(1 0 0 1 1296 880 )" />
  </g>
</svg>