<?xml version="1.0" encoding="utf-8"?>
<svg version="1.1" xmlns:xlink="http://www.w3.org/1999/xlink" width="18px" height="15px" xmlns="http://www.w3.org/2000/svg">
  <g transform="matrix(1 0 0 1 -1295 -978 )">
    <path d="M 8.37209302325581 0  C 8.37209302325581 0  8.24067886793538 0.00147969761322018  8.24067886793538 0.00147969761322018  C 5.26979695147552 0.068442977981488  2.83976745292664 2.40029062490418  2.54260465116279 5.38371428571429  C 2.54260465116279 5.38371428571429  2.43328530902182 5.44952529460925  2.43328530902182 5.44952529460925  C 0.94737125995643 6.36519309022481  0 8.022341024424  0 9.85714285714286  C 0 12.6974644275692  2.24898823353702 15  5.02325581395349 15  C 5.02325581395349 15  13.5185353880252 14.9982659310295  13.5185353880252 14.9982659310295  C 16.0166567585855 14.9242991738383  18 12.8376338525437  18 10.2857142857143  C 18 10.2857142857143  17.9984480631842 10.1621110801186  17.9984480631842 10.1621110801186  C 17.9416595630336 7.9031208138673  16.3327449141119 6.03942165766973  14.2220930232558 5.64728571428572  C 14.2220930232558 5.64728571428572  14.2197551102413 5.60021212740792  14.2197551102413 5.60021212740792  C 14.01880880825 2.47289909740981  11.4775231752044 0  8.37209302325581 0  Z " fill-rule="nonzero" fill="#237ffa" stroke="none" transform="matrix(1 0 0 1 1295 978 )" />
  </g>
</svg>