<?xml version="1.0" encoding="utf-8"?>
<svg version="1.1" xmlns:xlink="http://www.w3.org/1999/xlink" width="13px" height="13px" xmlns="http://www.w3.org/2000/svg">
  <g transform="matrix(1 0 0 1 -1474 -523 )">
    <path d="M 3.83034965259438 1.33333333333333  C 3.83034965259438 0.596953666892276  4.42730331948667 0  5.16368298592772 0  C 5.16368298592772 0  7.16368298592772 0  7.16368298592772 0  C 7.90006265236877 0  8.49701631926104 0.596953666892276  8.49701631926104 1.33333333333333  C 8.49701631926104 1.33333333333333  8.49720969994576 1.53624951107938  8.49720969994576 1.53624951107938  C 8.72451628985931 1.64702842039329  8.94277626699648 1.77348751934829  9.15058200748967 1.91421918407671  C 9.15058200748967 1.91421918407671  9.32714333818325 1.81260739116964  9.32714333818325 1.81260739116964  C 9.96486683615154 1.44441755794912  10.7803207100087 1.66291776491396  11.1485105432292 2.30064126288223  C 11.1485105432292 2.30064126288223  12.1485105432292 4.03269207045111  12.1485105432292 4.03269207045111  C 12.5167003764497 4.67041556841937  12.2982001694849 5.4858694422765  11.6604766715166 5.85405927549703  C 11.6604766715166 5.85405927549703  11.4838868178432 5.95617373039194  11.4838868178432 5.95617373039194  C 11.4925911500603 6.08076270693748  11.497016319261 6.20653124331269  11.497016319261 6.33333333333334  C 11.497016319261 6.46002230819785  11.4925990415776 6.58567957257955  11.4839101020044 6.71015951068487  C 11.4839101020044 6.71015951068487  11.6604766715166 6.81260739116965  11.6604766715166 6.81260739116965  C 12.2982001694849 7.18079722439018  12.5167003764497 7.99625109824729  12.1485105432292 8.63397459621557  C 12.1485105432292 8.63397459621557  11.1485105432292 10.3660254037844  11.1485105432292 10.3660254037844  C 10.7803207100087 11.0037489017527  9.96486683615154 11.2222491087176  9.32714333818325 10.854059275497  C 9.32714333818325 10.854059275497  9.15058200748967 10.75244748259  9.15058200748967 10.75244748259  C 8.94277626699648 10.8931791473184  8.72451628985931 11.0196382462734  8.49720969994576 11.1304171555873  C 8.49720969994576 11.1304171555873  8.49701631926104 11.3333333333333  8.49701631926104 11.3333333333333  C 8.49701631926104 12.0697129997744  7.90006265236877 12.6666666666667  7.16368298592772 12.6666666666667  C 7.16368298592772 12.6666666666667  5.16368298592772 12.6666666666667  5.16368298592772 12.6666666666667  C 4.42730331948667 12.6666666666667  3.83034965259438 12.0697129997744  3.83034965259438 11.3333333333333  C 3.83034965259438 11.3333333333333  3.83048812667263 11.130578872256  3.83048812667263 11.130578872256  C 3.60299386682172 11.0197280689454  3.38455977610335 10.8931717039722  3.1765968038095 10.7523207266284  C 3.1765968038095 10.7523207266284  3.00022263367219 10.854059275497  3.00022263367219 10.854059275497  C 2.36249913570393 11.2222491087176  1.54704526184679 11.0037489017527  1.17885542862626 10.3660254037844  C 1.17885542862626 10.3660254037844  0.178855428626264 8.63397459621557  0.178855428626264 8.63397459621557  C -0.189334404594263 7.9962510982473  0.029165802370585 7.18079722439018  0.666889300338852 6.81260739116965  C 0.666889300338852 6.81260739116965  0.84345586985097 6.71015951068487  0.84345586985097 6.71015951068487  C 0.834766930277738 6.58567957257955  0.83034965259435 6.46002230819785  0.83034965259435 6.33333333333334  C 0.83034965259435 6.20653124331269  0.834774821795037 6.08076270693748  0.843479154012186 5.95617373039194  C 0.843479154012186 5.95617373039194  0.666889300338852 5.85405927549703  0.666889300338852 5.85405927549703  C 0.029165802370585 5.4858694422765  -0.189334404594263 4.67041556841938  0.178855428626264 4.03269207045111  C 0.178855428626264 4.03269207045111  1.17885542862626 2.30064126288223  1.17885542862626 2.30064126288223  C 1.54704526184679 1.66291776491396  2.36249913570393 1.44441755794912  3.00022263367219 1.81260739116965  C 3.00022263367219 1.81260739116965  3.1765968038095 1.91434594003825  3.1765968038095 1.91434594003825  C 3.38455977610335 1.77349496269445  3.60299386682172 1.64693859772125  3.83048812667263 1.53608779441072  C 3.83048812667263 1.53608779441072  3.83034965259438 1.33333333333333  3.83034965259438 1.33333333333333  Z M 7.16368298592712 1.33333333333336  L 5.16368294705711 1.33321950596041  L 5.16439083689389 2.36931706794629  C 5.16439083689389 2.36931706794629  4.41453365312901 2.73469890765948  4.41453365312901 2.73469890765948  C 4.28713772553743 2.79677493947352  4.16314393260981 2.86561812778466  4.04305887101785 2.94089516864962  C 4.04305887101785 2.94089516864962  3.92429548271076 3.01830448244202  3.92429548271076 3.01830448244202  L 3.233297841889 3.48630939686731  L 2.33355596700494 2.96730792954892  L 1.33355596700494 4.6993587371178  L 2.23158898351059 5.21865294967598  C 2.23158898351059 5.21865294967598  2.17357032981329 6.0490997323087  2.17357032981329 6.0490997323087  C 2.1669911064493 6.14327108111915  2.1636829859271 6.23804625150147  2.1636829859271 6.33333333333336  C 2.1636829859271 6.33333333333336  2.16615505888913 6.47574237729386  2.16615505888913 6.47574237729386  L 2.1735528188679 6.61731618032614  L 2.23142098367919 7.44635009329883  L 1.33355596700494 7.96730792954892  L 2.33400355912872 9.69910043532438  L 3.23329784188897 9.18035726979939  C 3.23329784188897 9.18035726979939  3.92429548271076 9.6483621842247  3.92429548271076 9.6483621842247  C 4.04171843489323 9.72789142635404  4.16321898396859 9.80109791724402  4.2882905332651 9.86764835295132  C 4.2882905332651 9.86764835295132  4.41453365312898 9.93196775900724  4.41453365312898 9.93196775900724  L 5.16439083689389 10.2973495987204  L 5.16368298592712 11.3333333333334  L 7.16368298592712 11.3333333333334  L 7.16467040684134 10.2965879094832  C 7.16467040684134 10.2965879094832  7.91308086157599 9.93184664119807  7.91308086157599 9.93184664119807  C 8.04037214953701 9.86981064808916  8.16426631310395 9.80101836214605  8.28425794909998 9.72580230879306  C 8.28425794909998 9.72580230879306  8.40293002393611 9.64845731539322  8.40293002393611 9.64845731539322  L 9.09314846219348 9.18102273147995  L 9.99381000484931 9.69935873711779  L 10.9934996662671 7.96712831009435  L 10.095944988175 7.44635009329903  C 10.095944988175 7.44635009329903  10.1538131529863 6.61731618032614  10.1538131529863 6.61731618032614  C 10.1603807356752 6.52322733556706  10.1636829859271 6.42853583266339  10.1636829859271 6.33333333333336  C 10.1636829859271 6.33333333333336  10.1612065227455 6.19079813293799  10.1612065227455 6.19079813293799  L 10.1537956420408 6.04909973230869  L 10.0957769883436 5.21865294967579  L 10.9938100048493 4.69935873711779  L 9.9936099257128 2.96742326054165  L 9.09314846219348 3.48564393518677  C 9.09314846219348 3.48564393518677  8.40293002393611 3.01820935127348  8.40293002393611 3.01820935127348  C 8.28559622889594 2.93874773358326  8.16419143855927 2.86559904149484  8.0392210561028 2.7990958004325  C 8.0392210561028 2.7990958004325  7.91308086157599 2.73482002546864  7.91308086157599 2.73482002546864  L 7.16467040684134 2.37007875718353  L 7.16368298592712 1.33333333333336  Z " fill-rule="nonzero" fill="#5f6a7a" stroke="none" transform="matrix(1 0 0 1 1474 523 )" />
  </g>
</svg>