<?xml version="1.0" encoding="utf-8"?>
<svg version="1.1" xmlns:xlink="http://www.w3.org/1999/xlink" width="12px" height="11px" xmlns="http://www.w3.org/2000/svg">
  <g transform="matrix(1 0 0 1 -802 -1322 )">
    <path d="M 1.91666666666671 8.49999999999984  C 0.950168354462818 8.49999999999984  0.16666666666697 7.71649831220364  0.16666666666697 6.74999999999974  C 0.16666666666697 6.74999999999974  0.16666666666697 1.79166666666663  0.16666666666697 1.79166666666663  C 0.16666666666697 0.825168354462747  0.950168354463081 0.0416666666666288  1.91666666666697 0.0416666666666288  C 1.91666666666697 0.0416666666666288  10.0833333333336 0.0416666666666288  10.0833333333336 0.0416666666666288  C 11.0498316455375 0.0416666666666288  11.8333333333336 0.825168354462733  11.8333333333336 1.79166666666663  C 11.8333333333336 1.79166666666663  11.8333333333336 6.74999999999974  11.8333333333336 6.74999999999974  C 11.8333333333336 7.71649831220364  11.0498316455375 8.49999999999984  10.0833333333336 8.49999999999984  C 10.0833333333336 8.49999999999984  7.55545833333347 8.49999999999984  7.55545833333347 8.49999999999984  C 7.55545833333347 8.49999999999984  6.29121760301884 10.3965069288059  6.29121760301884 10.3965069288059  C 6.27199345275182 10.4253431542064  6.24862939636955 10.4511102293718  6.22192850078243 10.4730050873922  C 6.07181579582179 10.5730802240326  5.84472868598139 10.5624670427469  5.7316454663873 10.4270990782132  L 4.44454166666682 8.49999999999984  C 4.44454166666682 8.49999999999984  1.91666666666671 8.49999999999984  1.91666666666671 8.49999999999984  Z M 3.95833333333364 4.4166666666666  C 3.95833333333364 4.08999999999992  3.70166666666697 3.83333333333326  3.37500000000031 3.83333333333326  C 3.04833333333364 3.83333333333326  2.79166666666697 4.08999999999992  2.79166666666697 4.4166666666666  C 2.79166666666697 4.74333333333325  3.04833333333364 4.99999999999993  3.37500000000031 4.99999999999993  C 3.70166666666697 4.99999999999993  3.95833333333364 4.74333333333325  3.95833333333364 4.4166666666666  Z M 6.0000000000003 3.83333333333326  C 5.67333333333364 3.83333333333326  5.41666666666697 4.08999999999992  5.41666666666697 4.4166666666666  C 5.41666666666697 4.74333333333325  5.67333333333364 4.99999999999993  6.0000000000003 4.99999999999993  C 6.32666666666697 4.99999999999993  6.58333333333363 4.74333333333325  6.58333333333363 4.4166666666666  C 6.58333333333363 4.08999999999992  6.32666666666697 3.83333333333326  6.0000000000003 3.83333333333326  Z M 8.04166666666697 4.4166666666666  C 8.04166666666697 4.74333333333325  8.29833333333364 4.99999999999993  8.6250000000003 4.99999999999993  C 8.95166666666697 4.99999999999993  9.20833333333363 4.74333333333325  9.20833333333363 4.4166666666666  C 9.20833333333363 4.08999999999992  8.95166666666697 3.83333333333326  8.6250000000003 3.83333333333326  C 8.29833333333364 3.83333333333326  8.04166666666697 4.08999999999992  8.04166666666697 4.4166666666666  Z " fill-rule="nonzero" fill="#fab007" stroke="none" transform="matrix(1 0 0 1 802 1322 )" />
  </g>
</svg>