<?xml version="1.0" encoding="utf-8"?>
<svg version="1.1" xmlns:xlink="http://www.w3.org/1999/xlink" width="14px" height="18px" xmlns="http://www.w3.org/2000/svg">
  <g transform="matrix(1 0 0 1 -1297 -784 )">
    <path d="M 13.6666666666664 6.91666666666615  C 13.6666666666664 10.5985649986661  10.6818983319997 13.5833333333328  6.99999999999969 13.5833333333328  C 3.3181016679997 13.5833333333328  0.33333333333303 10.5985649986661  0.33333333333303 6.91666666666615  C 0.33333333333303 3.23476833466616  3.3181016679997 0.249999999999488  6.99999999999969 0.249999999999488  C 10.6818983319997 0.249999999999488  13.6666666666664 3.23476833466616  13.6666666666664 6.91666666666615  Z M 3.66666666666697 16.6720166269804  C 3.66666666666697 16.6720166269804  3.6668778214881 13.6371718894986  3.6668778214881 13.6371718894986  C 4.67095781278132 14.1361175816961  5.80271603153291 14.4166666666661  7.0000000000003 14.4166666666661  C 8.19744771113406 14.4166666666661  9.32935174849231 14.1360408396738  10.3335341305976 13.6369671671667  C 10.3335341305976 13.6369671671667  10.3333333333336 16.6720166269804  10.3333333333336 16.6720166269804  C 10.3333333333336 16.9021352727432  10.1467853124298 17.0886832936471  9.91666666666697 17.0886832936471  C 9.85441607989858 17.0886832936471  9.79295652768722 17.0747349505985  9.73680450685374 17.0478632906325  C 9.73680450685374 17.0478632906325  7.0000000000003 15.7381601132623  7.0000000000003 15.7381601132623  C 7.0000000000003 15.7381601132623  4.26319549314685 17.0478632906325  4.26319549314685 17.0478632906325  C 4.055621112537 17.147198418569  3.80682179761797 17.0594531674035  3.7074866696815 16.8518787867936  C 3.68061500971558 16.7957267659601  3.66666666666697 16.7342672137488  3.66666666666697 16.6720166269804  Z M 7.09220118985751 4.28391987192795  C 7.01195175424878 4.24431440775859  6.91854841794694 4.26113976484117  6.85703989808607 4.3191194815878  L 6.02035791284527 5.98497167604134  C 6.02035791284527 5.98497167604134  4.24755386761238 6.24257518257767  4.24755386761238 6.24257518257767  C 4.20221281945719 6.24916362252748  4.16030815053472 6.27051511779612  4.12832719121978 6.30332420845833  C 4.05693807788121 6.37656190807688  4.05033802108474 6.48891560539965  4.10761951326485 6.56938513757076  L 5.41490580617413 7.84836165729116  C 5.41490580617413 7.84836165729116  5.11207472201238 9.61400235795462  5.11207472201238 9.61400235795462  C 5.10432954633615 9.65916019716917  5.11168677020332 9.70561188050441  5.13300740974661 9.74616614684285  C 5.18060015197233 9.8366929220871  5.28541533822704 9.8776891509649  5.37964736570841 9.84807766753417  L 6.99999999999939 8.99999999999958  C 6.99999999999939 8.99999999999958  8.58564414237034 9.83362245839345  8.58564414237034 9.83362245839345  C 8.62619840870877 9.85494309793673  8.67265009204401 9.86230032180391  8.71780793125858 9.85455514612769  C 8.81861097691045 9.837266070502  8.88999038134949 9.75024943603628  8.89094748498168 9.65147900064767  L 8.58509419382465 7.84836165729116  C 8.58509419382465 7.84836165729116  9.86790725203383 6.59792796970036  9.86790725203383 6.59792796970036  C 9.90071634269603 6.56594701038544  9.92206783796468 6.52404234146296  9.92865627791448 6.47870129330777  C 9.94336324407114 6.37748928169278  9.88266295585647 6.28271381512854  9.78902245095055 6.25128181240549  L 7.97964208715351 5.98497167604134  C 7.97964208715351 5.98497167604134  7.18682001596804 4.37853869803849  7.18682001596804 4.37853869803849  C 7.16654288279882 4.33745273864576  7.13328714925024 4.30419700509717  7.09220118985751 4.28391987192795  Z " fill-rule="nonzero" fill="#237ffa" stroke="none" transform="matrix(1 0 0 1 1297 784 )" />
  </g>
</svg>