<?xml version="1.0" encoding="utf-8"?>
<svg version="1.1" xmlns:xlink="http://www.w3.org/1999/xlink" width="14px" height="13px" xmlns="http://www.w3.org/2000/svg">
  <g transform="matrix(1 0 0 1 -1087 -2045 )">
    <path d="M 0.333333333333371 2.33333333333303  C 0.333333333333371 1.22876383367134  1.22876383367179 0.33333333333303  2.33333333333337 0.33333333333303  C 2.33333333333337 0.33333333333303  11.6666666666667 0.33333333333303  11.6666666666667 0.33333333333303  C 12.7712361663283 0.33333333333303  13.6666666666667 1.22876383367134  13.6666666666667 2.33333333333303  C 13.6666666666667 2.33333333333303  13.6666666666667 7.99999999999932  13.6666666666667 7.99999999999932  C 13.6666666666667 9.10456949966101  12.7712361663282 9.99999999999955  11.6666666666666 9.99999999999955  C 11.6666666666666 9.99999999999955  8.77766666666651 9.99999999999955  8.77766666666651 9.99999999999955  C 8.77766666666651 9.99999999999955  7.33282011773554 12.1674364900637  7.33282011773554 12.1674364900637  C 7.31084966028754 12.2003921762357  7.28414788156488 12.2298402621389  7.25363257232254 12.2548629570194  C 7.08207519522466 12.3692345417514  6.82254706969275 12.3571051917106  6.69330910444239 12.2023989465292  L 5.22233333333315 9.99999999999955  C 5.22233333333315 9.99999999999955  2.33333333333303 9.99999999999955  2.33333333333303 9.99999999999955  C 1.22876383367145 9.99999999999955  0.333333333333371 9.10456949966101  0.333333333333371 7.99999999999932  C 0.333333333333371 7.99999999999932  0.333333333333371 2.33333333333303  0.333333333333371 2.33333333333303  Z M 12.3333333333334 2.33333333333371  C 12.3333333333334 1.98187940162302  12.0613740698009 1.69394495937649  11.7164207816195 1.66849524547752  C 11.7164207816195 1.66849524547752  2.33333333333337 1.66666666666697  2.33333333333337 1.66666666666697  C 1.9818794016229 1.66666666666697  1.69394495937627 1.93862593019958  1.66849524547717 2.28357921838074  C 1.66849524547717 2.28357921838074  1.66666666666674 8  1.66666666666674 8  C 1.66666666666674 8.35145393171047  1.93862593019924 8.63938837395744  2.28357921838062 8.66483808785642  L 5.93594211602863 8.66666666666652  L 7 10.2626666666667  L 8.06405788397149 8.66666666666652  C 8.06405788397149 8.66666666666652  11.6666666666667 8.66666666666652  11.6666666666667 8.66666666666652  C 12.0181205983772 8.66666666666652  12.306055040624 8.39470740313459  12.3315047545229 8.0497541149532  C 12.3315047545229 8.0497541149532  12.3333333333334 2.33333333333371  12.3333333333334 2.33333333333371  Z " fill-rule="nonzero" fill="#929aa6" stroke="none" transform="matrix(1 0 0 1 1087 2045 )" />
  </g>
</svg>