<?xml version="1.0" encoding="utf-8"?>
<svg version="1.1" xmlns:xlink="http://www.w3.org/1999/xlink" width="5px" height="9px" xmlns="http://www.w3.org/2000/svg">
  <g transform="matrix(1 0 0 1 -1171 -692 )">
    <path d="M 4.83728154510364 3.77573593128899  C 4.83728154510364 3.77573593128899  1.50394821177069 0.175735931288068  1.50394821177069 0.175735931288068  C 1.28699027190881 -0.0585786437626553  0.935231950313854 -0.0585786437626553  0.718274010451978 0.175735931288068  C 0.512734909530271 0.397718160283512  0.501917062113459 0.750363407496411  0.685820468201352 0.986099638409326  C 0.685820468201352 0.986099638409326  0.718274010451978 1.02426406871268  0.718274010451978 1.02426406871268  L 3.65861111111106 4.20000000000089  C 3.65861111111106 4.20000000000089  0.718274010452546 7.37573593128889  0.718274010452546 7.37573593128889  C 0.512734909530839 7.59771816028443  0.501917062113838 7.95036340749621  0.685820468201731 8.18609963840912  C 0.685820468201731 8.18609963840912  0.718274010452546 8.22426406871299  0.718274010452546 8.22426406871299  C 0.923813111374254 8.44624629770843  1.25033648842115 8.457929572919  1.46861077630357 8.25931389434407  C 1.46861077630357 8.25931389434407  1.5039482117705 8.22426406871299  1.5039482117705 8.22426406871299  C 1.5039482117705 8.22426406871299  4.83728154510364 4.62426406871289  4.83728154510364 4.62426406871289  C 5.04282064602535 4.40228183971734  5.05363849344235 4.04963659250587  4.86973508735446 3.81390036159296  C 4.86973508735446 3.81390036159296  4.83728154510364 3.77573593128899  4.83728154510364 3.77573593128899  Z " fill-rule="nonzero" fill="#ffffff" stroke="none" transform="matrix(1 0 0 1 1171 692 )" />
  </g>
</svg>