<?xml version="1.0" encoding="utf-8"?>
<svg version="1.1" xmlns:xlink="http://www.w3.org/1999/xlink" width="14px" height="13px" xmlns="http://www.w3.org/2000/svg">
  <g transform="matrix(1 0 0 1 -1142 -2044 )">
    <path d="M 7.89673607664963 1.31061810931647  C 7.79940583743724 1.11340550423142  7.63977831640409 0.953777983198279  7.44256571131905 0.856447743985882  C 6.94731205156245 0.612025450826422  6.34768621651006 0.815364449559866  6.1032639233506 1.31061810931647  C 6.1032639233506 1.31061810931647  4.69566666666674 4.16200000000026  4.69566666666674 4.16200000000026  C 4.69566666666674 4.16200000000026  1.54916412756234 4.61936528773708  1.54916412756234 4.61936528773708  C 1.33152709641763 4.6509897994963  1.13038468558966 4.75347697678581  0.976876080877901 4.91096061196436  C 0.637013372899673 5.30812947536629  0.615286518432185 5.95497750237882  0.994950753254898 6.32505866592601  C 0.994950753254898 6.32505866592601  3.27166666666676 8.5443333333335  3.27166666666676 8.5443333333335  C 3.27166666666676 8.5443333333335  2.73446208708697 11.678724060791  2.73446208708697 11.678724060791  C 2.69728524384095 11.8954816890207  2.73259991840337 12.1184497690299  2.83493898821121 12.3131102474545  C 3.10660550628336 12.7621959619955  3.71467230677399 12.980382802471  4.18541153804404 12.7329005428974  C 4.18541153804404 12.7329005428974  7 11.2530000000004  7 11.2530000000004  C 7 11.2530000000004  9.81458846195596 12.7329005428974  9.81458846195596 12.7329005428974  C 10.0092489403805 12.835239612705  10.2322170203897 12.8705542872676  10.4489746486195 12.8333774440216  C 10.961214106535 12.7146619030466  11.3555645995641 12.2036199199354  11.2655379129133 11.678724060791  C 11.2655379129133 11.678724060791  10.7280000000001 8.5443333333335  10.7280000000001 8.5443333333335  C 10.7280000000001 8.5443333333335  13.0050492467453 6.32505866592601  13.0050492467453 6.32505866592601  C 13.1625328819239 6.17155006121448  13.2650200592134 5.97040765038651  13.2966445709724 5.75277061924157  C 13.342030079828 5.22891682522982  12.9778612757757 4.69594656151003  12.4508358724377 4.61936528773708  C 12.4508358724377 4.61936528773708  9.30400000000009 4.16200000000026  9.30400000000009 4.16200000000026  C 9.30400000000009 4.16200000000026  7.89673607664963 1.31061810931647  7.89673607664963 1.31061810931647  Z M 5.23454557873038 5.43118419449206  C 5.45168568581357 5.39963189002583  5.63939607749103 5.26325230752354  5.73650408550702 5.06648999202503  C 5.73650408550702 5.06648999202503  7 2.50633333333303  7 2.50633333333303  L 8.26349591449321 5.06648999202503  C 8.36596420999854 5.23734738568419  8.56640932311029 5.40226124873129  8.76545442126962 5.43118419449206  C 8.76545442126962 5.43118419449206  11.5906666666667 5.84166666666624  11.5906666666667 5.84166666666624  L 9.54633784107295 7.83449624007426  C 9.41550724817171 7.98474721848356  9.32060579048448 8.22634303575751  9.35460675242666 8.42458385516602  C 9.35460675242666 8.42458385516602  9.83699999999999 11.238333333333  9.83699999999999 11.238333333333  L 7.31022741813013 9.90991238490778  C 7.12798644365148 9.83396621805673  6.86633259644441 9.8170892920898  6.6897725818701 9.90991238490778  C 6.6897725818701 9.90991238490778  4.16266666666684 11.238333333333  4.16266666666684 11.238333333333  L 4.64539324757357 8.42458385516602  C 4.66292211136329 8.22612796715566  4.59769254501407 7.97489116796123  4.45366215892705 7.83449624007426  C 4.45366215892705 7.83449624007426  2.40900000000011 5.84166666666624  2.40900000000011 5.84166666666624  C 2.40900000000011 5.84166666666624  5.23454557873038 5.43118419449206  5.23454557873038 5.43118419449206  Z " fill-rule="nonzero" fill="#929aa6" stroke="none" transform="matrix(1 0 0 1 1142 2044 )" />
  </g>
</svg>