<?xml version="1.0" encoding="utf-8"?>
<svg version="1.1" xmlns:xlink="http://www.w3.org/1999/xlink" width="14px" height="14px" xmlns="http://www.w3.org/2000/svg">
  <g transform="matrix(1 0 0 1 -423 -2594 )">
    <path d="M 6.99999999999989 13.6666666666665  C 3.31810166799988 13.6666666666665  0.333333333333201 10.6818983319999  0.333333333333201 7  C 0.333333333333201 3.3181016679996  3.31810166799988 0.33333333333303  6.99999999999989 0.33333333333303  C 10.6818983319998 0.33333333333303  13.6666666666665 3.3181016679996  13.6666666666665 7  C 13.6666666666665 10.6818983319999  10.6818983319998 13.6666666666665  6.99999999999989 13.6666666666665  Z M 6.99999999999989 12.3333333333335  C 9.94551866555878 12.3333333333335  12.3333333333332 9.94551866555912  12.3333333333332 7  C 12.3333333333332 4.05448133444133  9.94551866555878 1.66666666666697  6.99999999999989 1.66666666666697  C 4.05448133444094 1.66666666666697  1.66666666666652 4.05448133444133  1.66666666666652 7  C 1.66666666666652 9.94551866555912  4.05448133444094 12.3333333333335  6.99999999999989 12.3333333333335  Z " fill-rule="nonzero" fill="#929aa6" stroke="none" transform="matrix(1 0 0 1 423 2594 )" />
  </g>
</svg>