<?xml version="1.0" encoding="utf-8"?>
<svg version="1.1" xmlns:xlink="http://www.w3.org/1999/xlink" width="6px" height="6px" xmlns="http://www.w3.org/2000/svg">
  <g transform="matrix(1 0 0 1 -1477 -526 )">
    <path d="M 3.16368298592775 5.99999999999996  C 1.69092365312775 5.99999999999996  0.497016319261093 4.8060926661333  0.497016319261093 3.3333333333333  C 0.497016319261093 1.8605740005333  1.69092365312775 0.666666666666629  3.16368298592775 0.666666666666629  C 4.63644231872775 0.666666666666629  5.83034965259441 1.8605740005333  5.83034965259441 3.3333333333333  C 5.83034965259441 4.8060926661333  4.63644231872775 5.99999999999996  3.16368298592775 5.99999999999996  Z M 3.16368298592721 4.66666666666667  C 3.90006265228615 4.66666666666667  4.49701631926055 4.06971299969227  4.49701631926055 3.33333333333334  C 4.49701631926055 2.59695366697439  3.90006265228615 2  3.16368298592721 2  C 2.4273033195683 2  1.8303496525939 2.59695366697439  1.8303496525939 3.33333333333334  C 1.8303496525939 4.06971299969227  2.4273033195683 4.66666666666667  3.16368298592721 4.66666666666667  Z " fill-rule="nonzero" fill="#5f6a7a" stroke="none" transform="matrix(1 0 0 1 1477 526 )" />
  </g>
</svg>