<?xml version="1.0" encoding="utf-8"?>
<svg version="1.1" xmlns:xlink="http://www.w3.org/1999/xlink" width="6px" height="6px" xmlns="http://www.w3.org/2000/svg">
  <g transform="matrix(1 0 0 1 -351 -2680 )">
    <path d="M 2.99999999999989 5.33333333333348  C 4.28866441622046 5.33333333333348  5.33333333333326 4.28866441622085  5.33333333333326 3  C 5.33333333333326 1.7113355837796  4.28866441622046 0.66666666666697  2.99999999999989 0.66666666666697  C 1.71133558377937 0.66666666666697  0.666666666666572 1.7113355837796  0.666666666666572 3  C 0.666666666666572 4.28866441622085  1.71133558377937 5.33333333333348  2.99999999999989 5.33333333333348  Z M 2.99999999999989 4  C 2.44771525022043 4  1.99999999999989 3.55228474977957  1.99999999999989 3  C 1.99999999999989 2.44771525022043  2.44771525022043 2  2.99999999999989 2  C 3.55228474977935 2  3.99999999999989 2.44771525022043  3.99999999999989 3  C 3.99999999999989 3.55228474977957  3.55228474977935 4  2.99999999999989 4  Z " fill-rule="nonzero" fill="#929aa6" stroke="none" transform="matrix(1 0 0 1 351 2680 )" />
  </g>
</svg>