<?xml version="1.0" encoding="utf-8"?>
<svg version="1.1" xmlns:xlink="http://www.w3.org/1999/xlink" width="14px" height="14px" xmlns="http://www.w3.org/2000/svg">
  <g transform="matrix(1 0 0 1 -991 -540 )">
    <path d="M 6.99999999999955 13.6666666666666  C 3.3181016679996 13.6666666666666  0.33333333333303 10.6818983319999  0.33333333333303 7  C 0.33333333333303 3.318101668  3.3181016679996 0.333333333333314  6.99999999999955 0.333333333333314  C 10.6818983319997 0.333333333333314  13.6666666666663 3.318101668  13.6666666666663 7  C 13.6666666666663 10.6818983319999  10.6818983319997 13.6666666666666  6.99999999999955 13.6666666666666  Z M 7.00000000000046 12.3333333333333  C 9.94551866555935 12.3333333333333  12.3333333333337 9.94551866555884  12.3333333333337 6.99999999999989  C 12.3333333333337 4.05448133444099  9.94551866555935 1.66666666666657  7.00000000000046 1.66666666666657  C 4.05448133444133 1.66666666666657  1.66666666666697 4.05448133444099  1.66666666666697 6.99999999999989  C 1.66666666666697 9.94551866555884  4.05448133444133 12.3333333333333  7.00000000000046 12.3333333333333  Z " fill-rule="nonzero" fill="#237ffa" stroke="none" transform="matrix(1 0 0 1 991 540 )" />
  </g>
</svg>