<?xml version="1.0" encoding="utf-8"?>
<svg version="1.1" xmlns:xlink="http://www.w3.org/1999/xlink" width="14px" height="14px" xmlns="http://www.w3.org/2000/svg">
  <g transform="matrix(1 0 0 1 -1139 -2912 )">
    <path d="M 6.99999999999977 13.6666666666664  C 3.31810166799971 13.6666666666664  0.33333333333303 10.6818983319997  0.33333333333303 6.99999999999969  C 0.33333333333303 3.3181016679997  3.31810166799971 0.33333333333303  6.99999999999977 0.33333333333303  C 10.6818983319997 0.33333333333303  13.6666666666664 3.3181016679997  13.6666666666664 6.99999999999969  C 13.6666666666664 10.6818983319997  10.6818983319997 13.6666666666664  6.99999999999977 13.6666666666664  Z M 7.00000000000023 12.3333333333336  C 9.94551866555923 12.3333333333336  12.3333333333336 9.94551866555925  12.3333333333336 7.00000000000031  C 12.3333333333336 4.05448133444137  9.94551866555923 1.66666666666697  7.00000000000023 1.66666666666697  C 4.05448133444133 1.66666666666697  1.66666666666697 4.05448133444136  1.66666666666697 7.00000000000031  C 1.66666666666697 9.94551866555925  4.05448133444133 12.3333333333336  7.00000000000023 12.3333333333336  Z " fill-rule="nonzero" fill="#5f6a7a" stroke="none" transform="matrix(1 0 0 1 1139 2912 )" />
  </g>
</svg>