<?xml version="1.0" encoding="utf-8"?>
<svg version="1.1" xmlns:xlink="http://www.w3.org/1999/xlink" width="14px" height="10px" xmlns="http://www.w3.org/2000/svg">
  <g transform="matrix(1 0 0 1 -347 -2678 )">
    <path d="M 7 9.33333333333348  C 4.54540111199998 9.33333333333348  2.32317888977775 7.88888888888914  0.333333333333314 5  C 2.32317888977775 2.11111111111131  4.54540111199998 0.66666666666697  7 0.66666666666697  C 9.45459888799996 0.66666666666697  11.6768211102222 2.11111111111131  13.6666666666666 5  C 11.6768211102222 7.88888888888914  9.45459888799996 9.33333333333348  7 9.33333333333348  Z M 12.0139999999999 5  C 10.4643754372719 3.03509842696303  8.81335001866501 2.03992774196831  7.10891497355374 2.00123438682249  C 7.10891497355374 2.00123438682249  6.99999999999989 2  6.99999999999989 2  C 5.25541685848845 2  3.60429801992109 2.94722957373733  2.02170272181598 4.9539375632221  C 3.57132728454388 6.91883913625907  5.18664998133477 7.96007225803169  6.89108502644609 7.99876561317751  C 6.89108502644609 7.99876561317751  6.99999999999989 8  6.99999999999989 8  C 8.70665742104376 8  10.3238700342134 7.09350666974569  11.87498713454 5.17543375411924  C 11.87498713454 5.17543375411924  12.0139999999999 5  12.0139999999999 5  Z " fill-rule="nonzero" fill="#929aa6" stroke="none" transform="matrix(1 0 0 1 347 2678 )" />
  </g>
</svg>