<?xml version="1.0" encoding="utf-8"?>
<svg version="1.1" xmlns:xlink="http://www.w3.org/1999/xlink" width="10px" height="12px" xmlns="http://www.w3.org/2000/svg">
  <g transform="matrix(1 0 0 1 -803 -1681 )">
    <path d="M 1.76470588235294 0  C 1.76470588235294 0  8.23529411764705 0  8.23529411764705 0  C 9.20991426440727 0  10 0.805887450304554  10 1.79999999999998  C 10 1.79999999999998  10 10.2  10 10.2  C 10 11.1941125496954  9.20991426440727 12  8.23529411764705 12  C 8.23529411764705 12  1.76470588235294 12  1.76470588235294 12  C 0.790085735592718 12  0 11.1941125496954  0 10.2  C 0 10.2  0 1.79999999999998  0 1.79999999999998  C 0 0.805887450304555  0.790085735592717 0  1.76470588235294 0  Z " fill-rule="nonzero" fill="#38d677" stroke="none" transform="matrix(1 0 0 1 803 1681 )" />
  </g>
</svg>