<?xml version="1.0" encoding="utf-8"?>
<svg version="1.1" xmlns:xlink="http://www.w3.org/1999/xlink" width="5px" height="9px" xmlns="http://www.w3.org/2000/svg">
  <g transform="matrix(1 0 0 1 -1016 -2048 )">
    <path d="M 0.333333333333258 2.33333333333303  C 0.333333333333258 1.22876383367156  1.22876383367168 0.33333333333303  2.33333333333326 0.33333333333303  C 2.33333333333326 0.33333333333303  2.99999999999989 0.33333333333303  2.99999999999989 0.33333333333303  C 4.10456949966147 0.33333333333303  4.99999999999989 1.22876383367156  4.99999999999989 2.33333333333303  C 4.99999999999989 2.33333333333303  4.99999999999989 6.99999999999977  4.99999999999989 6.99999999999977  C 4.99999999999989 8.10456949966124  4.10456949966147 8.99999999999977  2.99999999999989 8.99999999999977  C 2.99999999999989 8.99999999999977  2.33333333333326 8.99999999999977  2.33333333333326 8.99999999999977  C 1.22876383367168 8.99999999999977  0.333333333333258 8.10456949966124  0.333333333333258 6.99999999999977  C 0.333333333333258 6.99999999999977  0.333333333333258 2.33333333333303  0.333333333333258 2.33333333333303  Z M 3.66666666666663 2.33333333333371  C 3.66666666666663 1.98187940162325  3.39470740313413 1.69394495937649  3.04975411495275 1.66849524547752  C 3.04975411495275 1.66849524547752  2.33333333333326 1.66666666666697  2.33333333333326 1.66666666666697  C 1.98187940162279 1.66666666666697  1.69394495937615 1.93862593019958  1.66849524547706 2.28357921838074  C 1.66849524547706 2.28357921838074  1.66666666666663 7.00000000000023  1.66666666666663 7.00000000000023  C 1.66666666666663 7.35145393171069  1.93862593019912 7.63938837395744  2.28357921838051 7.66483808785642  C 2.28357921838051 7.66483808785642  3 7.66666666666697  3 7.66666666666697  C 3.35145393171047 7.66666666666697  3.6393883739571 7.39470740313436  3.6648380878562 7.0497541149532  C 3.6648380878562 7.0497541149532  3.66666666666663 2.33333333333371  3.66666666666663 2.33333333333371  Z " fill-rule="nonzero" fill="#929aa6" stroke="none" transform="matrix(1 0 0 1 1016 2048 )" />
  </g>
</svg>