<?xml version="1.0" encoding="utf-8"?>
<svg version="1.1" xmlns:xlink="http://www.w3.org/1999/xlink" width="6px" height="14px" xmlns="http://www.w3.org/2000/svg">
  <g transform="matrix(1 0 0 1 -1108 -539 )">
    <path d="M 0.217514421271972 2.68891894206303  C 0.217514421271972 1.58434944240145  1.11294492161051 0.688918942063026  2.21751442127197 0.688918942063026  C 2.21751442127197 0.688918942063026  3.21751442127197 0.688918942063026  3.21751442127197 0.688918942063026  C 4.32208392093344 0.688918942063026  5.21751442127197 1.58434944240145  5.21751442127197 2.68891894206303  C 5.21751442127197 2.68891894206303  5.21751442127197 10.9699675255656  5.21751442127197 10.9699675255656  C 5.21751442127197 11.3235895120183  5.07703863411825 11.6627280625502  4.82699012952071 11.9127765671477  C 4.82699012952071 11.9127765671477  3.18891894206308 13.5508477546053  3.18891894206308 13.5508477546053  C 2.9285694142286 13.8111972824395  2.50645942831534 13.8111972824395  2.24610990048086 13.5508477546053  C 2.24610990048086 13.5508477546053  0.608038713023234 11.9127765671477  0.608038713023234 11.9127765671477  C 0.35799020842569 11.6627280625502  0.217514421271972 11.3235895120183  0.217514421271972 10.9699675255656  C 0.217514421271972 10.9699675255656  0.217514421271972 2.68891894206303  0.217514421271972 2.68891894206303  Z M 3.88418108793849 2.68891894206297  C 3.88418108793849 2.33746501035245  3.61222182440588 2.04953056810581  3.26726853622449 2.02408085420672  C 3.26726853622449 2.02408085420672  2.21751442127152 2.02225227539628  2.21751442127152 2.02225227539628  C 1.86606048956128 2.02225227539628  1.57812604731453 2.29421153892883  1.55267633341555 2.63916482711016  L 1.550847754605 10.9699675255655  L 2.71751130197708 12.1364401145196  L 3.88418108793849 10.9699675255655  C 3.88418108793849 10.9699675255655  3.88418108793849 2.68891894206297  3.88418108793849 2.68891894206297  Z " fill-rule="nonzero" fill="#ffffff" stroke="none" transform="matrix(1 0 0 1 1108 539 )" />
  </g>
</svg>