<?xml version="1.0" encoding="utf-8"?>
<svg version="1.1" xmlns:xlink="http://www.w3.org/1999/xlink" width="4px" height="3px" xmlns="http://www.w3.org/2000/svg">
  <g transform="matrix(1 0 0 1 -806 -1684 )">
    <path d="M 1.51733352204855 1.69911019087813  C 1.51733352204855 1.69911019087813  3.09778503443466 0.15151129673388  3.09778503443466 0.15151129673388  C 3.31051934658327 -0.0568462802583001  3.64812825613106 -0.0493787763057614  3.8518556394011 0.16819043364002  C 4.04486052881481 0.374308632536023  4.04846548155997 0.695049839275094  3.86742876695615 0.905401245384582  C 3.86742876695615 0.905401245384582  3.83554715201061 0.939399102842736  3.83554715201061 0.939399102842736  C 3.83554715201061 0.939399102842736  1.88635461977173 2.84848950300738  1.88635461977173 2.84848950300738  C 1.69155588996587 3.03928049922031  1.39062130208078 3.04987999900991  1.184029699155 2.8802880023762  C 1.184029699155 2.8802880023762  1.14859250219578 2.84848950300738  1.14859250219578 2.84848950300738  C 1.14859250219578 2.84848950300738  0.164452847989386 1.88459725778683  0.164452847989386 1.88459725778683  C -0.0482814641592205 1.67623968079464  -0.0555830226711289 1.33095779852989  0.148144360598911 1.11338858858411  C 0.341149250012633 0.907270389688112  0.654313736418024 0.889719926919015  0.867625323345639 1.06560361268635  C 0.867625323345639 1.06560361268635  0.902214965565353 1.09670945167799  0.902214965565353 1.09670945167799  L 1.51733352204855 1.69911019087813  Z " fill-rule="nonzero" fill="#38d677" stroke="none" transform="matrix(1 0 0 1 806 1684 )" />
  </g>
</svg>