<?xml version="1.0" encoding="utf-8"?>
<svg version="1.1" xmlns:xlink="http://www.w3.org/1999/xlink" width="23px" height="27px" xmlns="http://www.w3.org/2000/svg">
  <g transform="matrix(1 0 0 1 -1251 -2202 )">
    <path d="M 4.05882352941176 0  C 4.05882352941176 0  14.8823529411765 0  14.8823529411765 0  L 23 8.1  C 23 8.1  23 22.95  23 22.95  C 23 25.1867532368147  21.1828028081367 27  18.9411764705882 27  C 18.9411764705882 27  4.05882352941177 27  4.05882352941177 27  C 1.81719719186325 27  0 25.1867532368147  0 22.95  C 0 22.95  0 4.05  0 4.05  C 0 1.81324676318529  1.81719719186325 0  4.05882352941176 0  Z " fill-rule="nonzero" fill="#38d677" stroke="none" transform="matrix(1 0 0 1 1251 2202 )" />
  </g>
</svg>