<?xml version="1.0" encoding="utf-8"?>
<svg version="1.1" xmlns:xlink="http://www.w3.org/1999/xlink" width="12px" height="4px" xmlns="http://www.w3.org/2000/svg">
  <g transform="matrix(1 0 0 1 -172 -613 )">
    <path d="M 11.7613636363636 0.291666666666667  C 11.9204545454545 0.486111111111109  12 0.722222222222221  12 1  L 12 3  C 12 3.27777777777778  11.9204545454545 3.51388888888889  11.7613636363636 3.70833333333333  C 11.6022727272727 3.90277777777778  11.4090909090909 4  11.1818181818182 4  L 0.818181818181818 4  C 0.590909090909091 4  0.397727272727273 3.90277777777778  0.238636363636364 3.70833333333333  C 0.0795454545454545 3.51388888888889  0 3.27777777777778  0 3  L 0 1  C 0 0.722222222222221  0.0795454545454545 0.486111111111109  0.238636363636364 0.291666666666667  C 0.397727272727273 0.0972222222222214  0.590909090909091 0  0.818181818181818 0  L 11.1818181818182 0  C 11.4090909090909 0  11.6022727272727 0.0972222222222214  11.7613636363636 0.291666666666667  Z " fill-rule="nonzero" fill="#000000" stroke="none" transform="matrix(1 0 0 1 172 613 )" />
  </g>
</svg>