<?xml version="1.0" encoding="utf-8"?>
<svg version="1.1" xmlns:xlink="http://www.w3.org/1999/xlink" width="30px" height="30px" xmlns="http://www.w3.org/2000/svg">
  <defs>
    <filter x="562px" y="1265px" width="30px" height="30px" filterUnits="userSpaceOnUse" id="filter564">
      <feOffset dx="0" dy="-4" in="SourceAlpha" result="shadowOffsetInner" />
      <feGaussianBlur stdDeviation="4" in="shadowOffsetInner" result="shadowGaussian" />
      <feComposite in2="shadowGaussian" operator="atop" in="SourceAlpha" result="shadowComposite" />
      <feColorMatrix type="matrix" values="0 0 0 0 0.12156862745098  0 0 0 0 0.152941176470588  0 0 0 0 0.2  0 0 0 0.101960784313725 0  " in="shadowComposite" />
    </filter>
    <g id="widget565">
      <path d="M 7.66666666666697 1.15384615384659  L 7.66667333392115 6.33333333333371  L 12.8461538461543 6.33333333333371  C 13.1189743589748 6.33333333333371  13.3333333333337 6.62666666666706  13.3333333333337 7.00000000000034  C 13.3333333333337 7.37333333333368  13.1189743589748 7.66666666666703  12.8461538461543 7.66666666666703  L 7.66666666666697 7.66666667196023  L 7.66666666666697 12.8461538461542  C 7.66666666666697 13.1189743589748  7.37333333333368 13.3333333333337  7.00000000000023 13.3333333333337  C 6.62666666666678 13.3333333333337  6.33333333333348 13.1189743589748  6.33333333333348 12.8461538461542  L 6.3333266660793 7.66666666666703  L 1.15384615384642 7.66666666666703  C 0.881025641025872 7.66666666666703  0.66666666666697 7.37333333333368  0.66666666666697 7.00000000000034  C 0.66666666666697 6.62666666666706  0.881025641025872 6.33333333333371  1.15384615384642 6.33333333333371  L 6.33333333333348 6.33333332804051  L 6.33333333333348 1.15384615384659  C 6.33333333333348 0.881025641026042  6.62666666666678 0.666666666667084  7.00000000000023 0.666666666667084  C 7.37333333333368 0.666666666667084  7.66666666666697 0.881025641026042  7.66666666666697 1.15384615384659  Z " fill-rule="nonzero" fill="#237ffa" stroke="none" transform="matrix(1 0 0 1 570 1277 )" />
    </g>
  </defs>
  <g transform="matrix(1 0 0 1 -562 -1265 )">
    <use xlink:href="#widget565" filter="url(#filter564)" />
    <use xlink:href="#widget565" />
  </g>
</svg>