<?xml version="1.0" encoding="utf-8"?>
<svg version="1.1" xmlns:xlink="http://www.w3.org/1999/xlink" width="13px" height="13px" xmlns="http://www.w3.org/2000/svg">
  <g transform="matrix(1 0 0 1 -1497 -1363 )">
    <path d="M 2.27459926627577 1.56061240463146  C 3.41087087588638 0.587672636376098  4.88680628862673 0  6.5 0  C 10.0898508737 0  13 2.9101491263  13 6.5  C 13 10.0898508737  10.0898508737 13  6.5 13  C 2.9101491263 13  0 10.0898508737  0 6.5  C 0 6.5  0.00704766895484597 6.40394776392862  0.00704766895484597 6.40394776392862  C 0.0534735392776859 6.0905081922562  0.323649920572727 5.85  0.65 5.85  C 0.976350079427273 5.85  1.24652646072231 6.0905081922562  1.29295233104515 6.40394776392862  C 1.29295233104515 6.40394776392862  1.3 6.5  1.3 6.5  C 1.3 9.37188069891997  3.62811930108003 11.7  6.5 11.7  C 9.37188069891997 11.7  11.7 9.37188069891997  11.7 6.5  C 11.7 3.62811930108004  9.37188069891996 1.3  6.5 1.3  C 5.18211112085276 1.3  3.97872954056568 1.79026402692407  3.062287774656 2.59835956525497  C 3.062287774656 2.59835956525497  3.9 2.6  3.9 2.6  C 4.25898508739002 2.6  4.55 2.89101491260998  4.55 3.25  C 4.55 3.59266758341774  4.28483971805578 3.87340366460822  3.94851026207898 3.8982171356598  C 3.94851026207898 3.8982171356598  3.9 3.9  3.9 3.9  L 1.625 3.9  L 1.51422600600609 3.89059857511799  L 1.47522579574576 3.88265829520786  L 1.40065015262128 3.86024330941588  L 1.31416720244562 3.82100184865533  L 1.24952608574584 3.78064654610805  L 1.17459398295733 3.71865677899364  L 1.12333077349277 3.66334203463274  L 1.08510083021589 3.61206738280864  L 1.05397354552019 3.56078768786878  L 1.01434247197108 3.47322025794011  L 0.986648915516194 3.37314256614436  L 0.976782864340198 3.29851026207898  C 0.976782864340198 3.29851026207898  0.975 0.975  0.975 0.975  C 0.975 0.616014912609984  1.26601491260998 0.325  1.625 0.325  C 1.96766758341774 0.325  2.24840366460822 0.590160281944222  2.2732171356598 0.926489737921019  C 2.2732171356598 0.926489737921019  2.275 0.975  2.275 0.975  C 2.275 0.975  2.27459926627577 1.56061240463146  2.27459926627577 1.56061240463146  Z " fill-rule="nonzero" fill="#5f6a7a" stroke="none" transform="matrix(1 0 0 1 1497 1363 )" />
  </g>
</svg>