<?xml version="1.0" encoding="utf-8"?>
<svg version="1.1" xmlns:xlink="http://www.w3.org/1999/xlink" width="16px" height="16px" xmlns="http://www.w3.org/2000/svg">
  <g transform="matrix(1 0 0 1 -236 -153 )">
    <path d="M 2 16  C 0.880000000000003 16  0 15.12  0 14  L 0 2  C 0 0.879999999999995  0.880000000000003 0  2 0  L 14 0  C 15.12 0  16 0.879999999999995  16 2  L 16 14  C 16 15.12  15.12 16  14 16  L 2 16  Z M 11.7900000000001 4.29289321881259  L 6.49710678118663 9.58578643762604  L 4.20421356237318 7.29289321881259  L 2.79000000000008 8.70710678118569  L 6.49710678118663 12.4142135623722  L 13.2042135623732 5.70710678118569  L 11.7900000000001 4.29289321881259  Z " fill-rule="nonzero" fill="#237ffa" stroke="none" transform="matrix(1 0 0 1 236 153 )" />
  </g>
</svg>