<?xml version="1.0" encoding="utf-8"?>
<svg version="1.1" xmlns:xlink="http://www.w3.org/1999/xlink" width="12px" height="12px" xmlns="http://www.w3.org/2000/svg">
  <g transform="matrix(1 0 0 1 -945 -466 )">
    <path d="M 951 466.5  C 954.08 466.5  956.5 468.92  956.5 472  C 956.5 475.08  954.08 477.5  951 477.5  C 947.92 477.5  945.5 475.08  945.5 472  C 945.5 468.92  947.92 466.5  951 466.5  Z " fill-rule="nonzero" fill="#96ee07" stroke="none" fill-opacity="0.996078431372549" />
    <path d="M 951 466.5  C 954.08 466.5  956.5 468.92  956.5 472  C 956.5 475.08  954.08 477.5  951 477.5  C 947.92 477.5  945.5 475.08  945.5 472  C 945.5 468.92  947.92 466.5  951 466.5  Z " stroke-width="1" stroke="#96ee07" fill="none" stroke-opacity="0.996078431372549" />
  </g>
</svg>