<?xml version="1.0" encoding="utf-8"?>
<svg version="1.1" xmlns:xlink="http://www.w3.org/1999/xlink" width="12px" height="12px" xmlns="http://www.w3.org/2000/svg">
  <g transform="matrix(1 0 0 1 -945 -382 )">
    <path d="M 951 382  C 954.36 382  957 384.64  957 388  C 957 391.36  954.36 394  951 394  C 947.64 394  945 391.36  945 388  C 945 384.64  947.64 382  951 382  Z " fill-rule="nonzero" fill="#f90421" stroke="none" fill-opacity="0.996078431372549" />
    <path d="M 951 382.5  C 954.08 382.5  956.5 384.92  956.5 388  C 956.5 391.08  954.08 393.5  951 393.5  C 947.92 393.5  945.5 391.08  945.5 388  C 945.5 384.92  947.92 382.5  951 382.5  Z " stroke-width="1" stroke="#d9001b" fill="none" />
  </g>
</svg>