<?xml version="1.0" encoding="utf-8"?>
<svg version="1.1" xmlns:xlink="http://www.w3.org/1999/xlink" width="19px" height="16px" xmlns="http://www.w3.org/2000/svg">
  <g transform="matrix(1 0 0 1 -840 -204 )">
    <path d="M 14.40625 6.40708333333714  C 14.2062340049622 3.36664010972709  11.6743864938378 0.916666666669698  8.58333333333326 0.916666666669698  C 8.58333333333326 0.916666666669698  8.45252757688013 0.918105261571327  8.45252757688013 0.918105261571327  C 5.49539974336676 0.983208450817983  3.07662038138528 3.25028255199322  2.78083333333325 6.15083333333678  C 2.78083333333325 6.15083333333678  2.67202009925791 6.2148162586509  2.67202009925791 6.2148162586509  C 1.19298528190097 7.10504883772228  0.25 8.71616488485961  0.25 10.5000000000036  C 0.25 13.2614237490288  2.48857625097435 15.5000000000036  5.25 15.5000000000036  C 5.25 15.5000000000036  13.5833333333335 15.5000000000036  13.5833333333335 15.5000000000036  C 13.5833333333335 15.5000000000036  13.7059495760436 15.4983140996155  13.7059495760436 15.4983140996155  C 16.1925055698885 15.4264019745679  18.1666666666667 13.3976995788653  18.1666666666667 10.9166666666697  C 18.1666666666667 10.9166666666697  18.1651219147436 10.7964968834513  18.1651219147436 10.7964968834513  C 18.1085963243158 8.60025634681915  16.5071303543243 6.78832661162596  14.40625 6.40708333333714  Z M 4.41036262590865 7.2282615425338  C 4.41036262590865 7.2282615425338  4.41767215576647 6.69089802573399  4.41767215576647 6.69089802573399  C 4.44863133811532 4.41491921074885  6.30402819024721 2.5833333333303  8.58333333333371 2.5833333333303  C 10.8845197908079 2.5833333333303  12.7500000000002 4.44881354252357  12.7500000000002 6.74999999999636  C 12.7500000000002 6.86683962667848  12.7452115008989 6.98300125886453  12.7356939601718 7.09831314979056  C 12.7356939601718 7.09831314979056  12.6604015736982 8.01053487865101  12.6604015736982 8.01053487865101  C 12.6604015736982 8.01053487865101  13.5927963554545 7.99994626899206  13.5927963554545 7.99994626899206  C 15.1941638535579 7.99999999999636  16.5000000000002 9.30583614643911  16.5000000000002 10.9166666666642  C 16.5000000000002 12.4953825795783  15.2435809878459 13.7865134118729  13.6697814115375 13.8320836633629  C 13.6697814115375 13.8320836633629  5.25000000000023 13.8333333333303  5.25000000000023 13.8333333333303  C 3.40905083402595 13.8333333333303  1.91666666666697 12.3409491659713  1.91666666666697 10.4999999999964  C 1.91666666666697 9.1617436792003  2.71231386182808 7.96959401672211  3.91784113391395 7.44328609540571  C 3.91784113391395 7.44328609540571  4.41036262590865 7.2282615425338  4.41036262590865 7.2282615425338  Z " fill-rule="nonzero" fill="#5f6a7a" stroke="none" transform="matrix(1 0 0 1 840 204 )" />
  </g>
</svg>