<?xml version="1.0" encoding="utf-8"?>
<svg version="1.1" xmlns:xlink="http://www.w3.org/1999/xlink" width="923px" height="98px" xmlns="http://www.w3.org/2000/svg">
  <g transform="matrix(1 0 0 1 -465 -175 )">
    <path d="M 466 179  A 3 3 0 0 1 469 176 L 1384 176  A 3 3 0 0 1 1387 179 L 1387 269  A 3 3 0 0 1 1384 272 L 469 272  A 3 3 0 0 1 466 269 L 466 179  Z " fill-rule="nonzero" fill="#f2f4f7" stroke="none" />
    <path d="M 465.5 179  A 3.5 3.5 0 0 1 469 175.5 L 1384 175.5  A 3.5 3.5 0 0 1 1387.5 179 L 1387.5 269  A 3.5 3.5 0 0 1 1384 272.5 L 469 272.5  A 3.5 3.5 0 0 1 465.5 269 L 465.5 179  Z " stroke-width="1" stroke-dasharray="3,1" stroke="#dfe2e8" fill="none" stroke-dashoffset="0.5" />
  </g>
</svg>