<?xml version="1.0" encoding="utf-8"?>
<svg version="1.1" xmlns:xlink="http://www.w3.org/1999/xlink" width="12px" height="12px" xmlns="http://www.w3.org/2000/svg">
  <g transform="matrix(1 0 0 1 -1369 -295 )">
    <path d="M 6.6805435201145 0.86236170193115  L 6.68054544272195 5.34721018677919  L 11.1653920049628 5.34721018677919  C 11.4538768534476 5.34721018677919  11.6805435201143 5.64054352011226  11.6805435201143 6.01387685344525  C 11.6805435201143 6.38721018678007  11.4538768534476 6.68054352011313  11.1653920049628 6.68054352011313  L 6.6805435201145 6.68054352029867  L 6.6805435201145 11.1653920049594  C 6.6805435201145 11.4538768534439  6.3872101867812 11.6805435201113  6.01387685344775 11.6805435201113  C 5.64054352011431 11.6805435201113  5.34721018678101 11.4538768534439  5.34721018678101 11.1653920049594  L 5.34720826417356 6.68054352011313  L 0.862361701932514 6.68054352011313  C 0.5738768534477 6.68054352011313  0.347210186781012 6.38721018678007  0.347210186781012 6.01387685344525  C 0.347210186781012 5.64054352011226  0.5738768534477 5.34721018677919  0.862361701932514 5.34721018677919  L 5.34721018678101 5.34721018659184  L 5.34721018678101 0.86236170193115  C 5.34721018678101 0.573876853446563  5.64054352011431 0.347210186779193  6.01387685344775 0.347210186779193  C 6.3872101867812 0.347210186779193  6.6805435201145 0.573876853446563  6.6805435201145 0.86236170193115  Z " fill-rule="nonzero" fill="#5f6a7a" stroke="none" transform="matrix(1 0 0 1 1369 295 )" />
  </g>
</svg>