<?xml version="1.0" encoding="utf-8"?>
<svg version="1.1" xmlns:xlink="http://www.w3.org/1999/xlink" width="5px" height="9px" xmlns="http://www.w3.org/2000/svg">
  <g transform="matrix(1 0 0 1 -1163 -903 )">
    <path d="M 4.6388688466908 3.77573593128899  C 4.6388688466908 3.77573593128899  1.30553551335784 0.175735931288068  1.30553551335784 0.175735931288068  C 1.08857757349597 -0.0585786437626553  0.736819251901011 -0.0585786437626553  0.519861312039135 0.175735931288068  C 0.314322211117428 0.397718160283512  0.303504363700616 0.750363407496411  0.487407769788509 0.986099638409326  C 0.487407769788509 0.986099638409326  0.519861312039135 1.02426406871268  0.519861312039135 1.02426406871268  L 3.46019841269822 4.20000000000089  C 3.46019841269822 4.20000000000089  0.519861312039704 7.37573593128889  0.519861312039704 7.37573593128889  C 0.314322211117997 7.59771816028443  0.303504363700995 7.95036340749621  0.487407769788888 8.18609963840912  C 0.487407769788888 8.18609963840912  0.519861312039704 8.22426406871299  0.519861312039704 8.22426406871299  C 0.725400412961411 8.44624629770843  1.05192379000831 8.457929572919  1.27019807789073 8.25931389434407  C 1.27019807789073 8.25931389434407  1.30553551335765 8.22426406871299  1.30553551335765 8.22426406871299  C 1.30553551335765 8.22426406871299  4.6388688466908 4.62426406871289  4.6388688466908 4.62426406871289  C 4.84440794761251 4.40228183971734  4.85522579502951 4.04963659250587  4.67132238894161 3.81390036159296  C 4.67132238894161 3.81390036159296  4.6388688466908 3.77573593128899  4.6388688466908 3.77573593128899  Z " fill-rule="nonzero" fill="#5f6a7a" stroke="none" transform="matrix(1 0 0 1 1163 903 )" />
  </g>
</svg>