<?xml version="1.0" encoding="utf-8"?>
<svg version="1.1" xmlns:xlink="http://www.w3.org/1999/xlink" width="14px" height="4px" xmlns="http://www.w3.org/2000/svg">
  <g transform="matrix(1 0 0 1 -1473 -1924 )">
    <path d="M 0.5 1.03571428571445  C 0.5 0.522878446585878  0.886040190196809 0.100207125022621  1.38337887457578 0.0424420170397752  C 1.38337887457578 0.0424420170397752  1.5 0.0357142857144481  1.5 0.0357142857144481  C 1.5 0.0357142857144481  2.5 0.0357142857144481  2.5 0.0357142857144481  C 3.01283583912868 0.0357142857144481  3.43550716069194 0.421754475911371  3.49327226867467 0.919093160290117  C 3.49327226867467 0.919093160290117  3.5 1.03571428571445  3.5 1.03571428571445  C 3.5 1.03571428571445  3.5 2.03571428571445  3.5 2.03571428571445  C 3.5 2.54855012484302  3.11395980980319 2.97122144640628  2.61662112542422 3.02898655438912  C 2.61662112542422 3.02898655438912  2.5 3.03571428571445  2.5 3.03571428571445  C 2.5 3.03571428571445  1.5 3.03571428571445  1.5 3.03571428571445  C 0.987164160871316 3.03571428571445  0.564492839308059 2.64967409551753  0.506727731325327 2.15233541113878  C 0.506727731325327 2.15233541113878  0.5 2.03571428571445  0.5 2.03571428571445  C 0.5 2.03571428571445  0.5 1.03571428571445  0.5 1.03571428571445  Z M 5.5 1.03571428571445  C 5.5 0.522878446585878  5.88604019019681 0.100207125022621  6.38337887457578 0.0424420170397752  C 6.38337887457578 0.0424420170397752  6.5 0.0357142857144481  6.5 0.0357142857144481  C 6.5 0.0357142857144481  7.5 0.0357142857144481  7.5 0.0357142857144481  C 8.01283583912868 0.0357142857144481  8.43550716069194 0.421754475911371  8.49327226867467 0.919093160290117  C 8.49327226867467 0.919093160290117  8.5 1.03571428571445  8.5 1.03571428571445  C 8.5 1.03571428571445  8.5 2.03571428571445  8.5 2.03571428571445  C 8.5 2.54855012484302  8.11395980980296 2.97122144640628  7.61662112542422 3.02898655438912  C 7.61662112542422 3.02898655438912  7.5 3.03571428571445  7.5 3.03571428571445  C 7.5 3.03571428571445  6.5 3.03571428571445  6.5 3.03571428571445  C 5.98716416087132 3.03571428571445  5.56449283930806 2.64967409551753  5.50672773132533 2.15233541113878  C 5.50672773132533 2.15233541113878  5.5 2.03571428571445  5.5 2.03571428571445  C 5.5 2.03571428571445  5.5 1.03571428571445  5.5 1.03571428571445  Z M 11.3833788745758 0.0424420170397752  C 11.3833788745758 0.0424420170397752  11.5 0.0357142857144481  11.5 0.0357142857144481  C 11.5 0.0357142857144481  12.5 0.0357142857144481  12.5 0.0357142857144481  C 13.0128358391287 0.0357142857144481  13.4355071606919 0.421754475911371  13.4932722686747 0.919093160290117  C 13.4932722686747 0.919093160290117  13.5 1.03571428571445  13.5 1.03571428571445  C 13.5 1.03571428571445  13.5 2.03571428571445  13.5 2.03571428571445  C 13.5 2.54855012484302  13.113959809803 2.97122144640628  12.6166211254242 3.02898655438912  C 12.6166211254242 3.02898655438912  12.5 3.03571428571445  12.5 3.03571428571445  C 12.5 3.03571428571445  11.5 3.03571428571445  11.5 3.03571428571445  C 10.9871641608713 3.03571428571445  10.5644928393081 2.64967409551753  10.5067277313253 2.15233541113878  C 10.5067277313253 2.15233541113878  10.5 2.03571428571445  10.5 2.03571428571445  C 10.5 2.03571428571445  10.5 1.03571428571445  10.5 1.03571428571445  C 10.5 0.522878446585878  10.8860401901968 0.100207125022621  11.3833788745758 0.0424420170397752  Z " fill-rule="nonzero" fill="#ffffff" stroke="none" fill-opacity="0" transform="matrix(1 0 0 1 1473 1924 )" />
  </g>
</svg>