<?xml version="1.0" encoding="utf-8"?>
<svg version="1.1" xmlns:xlink="http://www.w3.org/1999/xlink" width="14px" height="4px" xmlns="http://www.w3.org/2000/svg">
  <g transform="matrix(1 0 0 1 -1467 -1716 )">
    <path d="M 0.5 1.39285714285711  C 0.5 0.88002130372854  0.886040190196809 0.457349982165283  1.38337887457578 0.399584874182381  C 1.38337887457578 0.399584874182381  1.5 0.39285714285711  1.5 0.39285714285711  C 1.5 0.39285714285711  2.5 0.39285714285711  2.5 0.39285714285711  C 3.01283583912868 0.39285714285711  3.43550716069194 0.778897333054033  3.49327226867467 1.27623601743284  C 3.49327226867467 1.27623601743284  3.5 1.39285714285711  3.5 1.39285714285711  C 3.5 1.39285714285711  3.5 2.39285714285711  3.5 2.39285714285711  C 3.5 2.90569298198568  3.11395980980319 3.32836430354894  2.61662112542422 3.38612941153184  C 2.61662112542422 3.38612941153184  2.5 3.39285714285711  2.5 3.39285714285711  C 2.5 3.39285714285711  1.5 3.39285714285711  1.5 3.39285714285711  C 0.987164160871316 3.39285714285711  0.564492839308059 3.00681695266019  0.506727731325327 2.50947826828138  C 0.506727731325327 2.50947826828138  0.5 2.39285714285711  0.5 2.39285714285711  C 0.5 2.39285714285711  0.5 1.39285714285711  0.5 1.39285714285711  Z M 5.5 1.39285714285711  C 5.5 0.88002130372854  5.88604019019681 0.457349982165283  6.38337887457578 0.399584874182381  C 6.38337887457578 0.399584874182381  6.5 0.39285714285711  6.5 0.39285714285711  C 6.5 0.39285714285711  7.5 0.39285714285711  7.5 0.39285714285711  C 8.01283583912868 0.39285714285711  8.43550716069194 0.778897333054033  8.49327226867467 1.27623601743284  C 8.49327226867467 1.27623601743284  8.5 1.39285714285711  8.5 1.39285714285711  C 8.5 1.39285714285711  8.5 2.39285714285711  8.5 2.39285714285711  C 8.5 2.90569298198568  8.11395980980296 3.32836430354894  7.61662112542422 3.38612941153184  C 7.61662112542422 3.38612941153184  7.5 3.39285714285711  7.5 3.39285714285711  C 7.5 3.39285714285711  6.5 3.39285714285711  6.5 3.39285714285711  C 5.98716416087132 3.39285714285711  5.56449283930806 3.00681695266019  5.50672773132533 2.50947826828138  C 5.50672773132533 2.50947826828138  5.5 2.39285714285711  5.5 2.39285714285711  C 5.5 2.39285714285711  5.5 1.39285714285711  5.5 1.39285714285711  Z M 11.3833788745758 0.399584874182381  C 11.3833788745758 0.399584874182381  11.5 0.39285714285711  11.5 0.39285714285711  C 11.5 0.39285714285711  12.5 0.39285714285711  12.5 0.39285714285711  C 13.0128358391287 0.39285714285711  13.4355071606919 0.778897333054033  13.4932722686747 1.27623601743284  C 13.4932722686747 1.27623601743284  13.5 1.39285714285711  13.5 1.39285714285711  C 13.5 1.39285714285711  13.5 2.39285714285711  13.5 2.39285714285711  C 13.5 2.90569298198568  13.113959809803 3.32836430354894  12.6166211254242 3.38612941153184  C 12.6166211254242 3.38612941153184  12.5 3.39285714285711  12.5 3.39285714285711  C 12.5 3.39285714285711  11.5 3.39285714285711  11.5 3.39285714285711  C 10.9871641608713 3.39285714285711  10.5644928393081 3.00681695266019  10.5067277313253 2.50947826828138  C 10.5067277313253 2.50947826828138  10.5 2.39285714285711  10.5 2.39285714285711  C 10.5 2.39285714285711  10.5 1.39285714285711  10.5 1.39285714285711  C 10.5 0.88002130372854  10.8860401901968 0.457349982165283  11.3833788745758 0.399584874182381  Z " fill-rule="nonzero" fill="#ffffff" stroke="none" fill-opacity="0" transform="matrix(1 0 0 1 1467 1716 )" />
  </g>
</svg>