<?xml version="1.0" encoding="utf-8"?>
<svg version="1.1" xmlns:xlink="http://www.w3.org/1999/xlink" width="14px" height="14px" xmlns="http://www.w3.org/2000/svg">
  <g transform="matrix(1 0 0 1 -311 -1713 )">
    <path d="M 9.15194804090515 1.24754689570705  C 9.93299662440768 0.466498312204521  11.1993265821488 0.466498312204521  11.9803751656514 1.24754689570705  C 11.9803751656514 1.24754689570705  12.687481946838 1.95465367689371  12.687481946838 1.95465367689371  C 13.4685305303406 2.73570226039624  13.4685305303406 4.0020322181374  12.687481946838 4.78308080163993  C 12.687481946838 4.78308080163993  6.83189633810844 10.6386664103698  6.83189633810844 10.6386664103698  C 6.58184783351089 10.8887149149673  6.24270928297892 11.029190702121  5.88908729652621 11.029190702121  C 5.88908729652621 11.029190702121  3.57250480709081 11.029190702121  3.57250480709081 11.029190702121  C 3.20431497387017 11.029190702121  2.90583814042384 10.7307138686747  2.90583814042384 10.3625240354545  C 2.90583814042384 10.3625240354545  2.90583814042384 8.04594154601909  2.90583814042384 8.04594154601909  C 2.90583814042384 7.69231955956639  3.04631392757756 7.35318100903442  3.2963624321751 7.10313250443687  C 3.2963624321751 7.10313250443687  9.15194804090515 1.24754689570705  9.15194804090515 1.24754689570705  Z M 12.8461538461534 13.3333333333333  L 1.15384615384619 13.3333333333333  C 0.881025641025644 13.3333333333333  0.666666666666515 13.04  0.666666666666515 12.6666666666665  C 0.666666666666515 12.2933333333333  0.881025641025644 12  1.15384615384619 12  L 12.8461538461534 12  C 13.1189743589739 12  13.333333333333 12.2933333333333  13.333333333333 12.6666666666665  C 13.333333333333 13.04  13.1189743589739 13.3333333333333  12.8461538461534 13.3333333333333  Z " fill-rule="nonzero" fill="#c9ced6" stroke="none" transform="matrix(1 0 0 1 311 1713 )" />
  </g>
</svg>