<?xml version="1.0" encoding="utf-8"?>
<svg version="1.1" xmlns:xlink="http://www.w3.org/1999/xlink" width="12px" height="14px" xmlns="http://www.w3.org/2000/svg">
  <g transform="matrix(1 0 0 1 -312 -1885 )">
    <path d="M 0.333333333333485 11.6666666666667  C 0.333333333333485 11.6666666666667  0.333333333333485 2.33333333333348  0.333333333333485 2.33333333333348  C 0.333333333333485 1.22876383367179  1.22876383367202 0.333333333333485  2.33333333333348 0.333333333333485  C 2.33333333333348 0.333333333333485  9.66666666666697 0.333333333333485  9.66666666666697 0.333333333333485  C 10.7712361663284 0.333333333333485  11.666666666667 1.22876383367179  11.666666666667 2.33333333333348  C 11.666666666667 2.33333333333348  11.666666666667 11.6666666666667  11.666666666667 11.6666666666667  C 11.666666666667 12.7712361663284  10.7712361663284 13.6666666666667  9.66666666666697 13.6666666666667  C 9.66666666666697 13.6666666666667  2.33333333333348 13.6666666666667  2.33333333333348 13.6666666666667  C 1.22876383367202 13.6666666666667  0.333333333333485 12.7712361663284  0.333333333333485 11.6666666666667  Z M 7.66666666666652 8.99999999999977  C 8.0348564998867 8.99999999999977  8.33333333333303 8.70152316655367  8.33333333333303 8.33333333333303  C 8.33333333333303 7.99861530313274  8.08665826436936 7.72151132233262  7.76518178059041 7.67389504508128  C 7.76518178059041 7.67389504508128  7.66666666666652 7.66666666666652  7.66666666666652 7.66666666666652  C 7.66666666666652 7.66666666666652  4.33333333333303 7.66666666666652  4.33333333333303 7.66666666666652  C 3.96514350011284 7.66666666666652  3.66666666666652 7.96514350011262  3.66666666666652 8.33333333333303  C 3.66666666666652 8.66805136353355  3.91334173563018 8.94515534433367  4.23481821940914 8.99277162158501  C 4.23481821940914 8.99277162158501  4.33333333333303 8.99999999999977  4.33333333333303 8.99999999999977  C 4.33333333333303 8.99999999999977  7.66666666666652 8.99999999999977  7.66666666666652 8.99999999999977  Z M 8.33333333333303 5.66666666666652  C 8.33333333333303 5.331948636466  8.08665826436936 5.05484465566587  7.76518178059041 5.00722837841454  C 7.76518178059041 5.00722837841454  7.66666666666652 4.99999999999977  7.66666666666652 4.99999999999977  C 7.66666666666652 4.99999999999977  4.33333333333303 4.99999999999977  4.33333333333303 4.99999999999977  C 3.96514350011284 4.99999999999977  3.66666666666652 5.29847683344587  3.66666666666652 5.66666666666652  C 3.66666666666652 6.00138469686681  3.91334173563018 6.27848867766693  4.23481821940914 6.32610495491826  C 4.23481821940914 6.32610495491826  4.33333333333303 6.33333333333303  4.33333333333303 6.33333333333303  C 4.33333333333303 6.33333333333303  7.66666666666652 6.33333333333303  7.66666666666652 6.33333333333303  C 8.0348564998867 6.33333333333303  8.33333333333303 6.03485649988693  8.33333333333303 5.66666666666652  Z " fill-rule="nonzero" fill="#c9ced6" stroke="none" transform="matrix(1 0 0 1 312 1885 )" />
  </g>
</svg>