<?xml version="1.0" encoding="utf-8"?>
<svg version="1.1" xmlns:xlink="http://www.w3.org/1999/xlink" width="14px" height="13px" xmlns="http://www.w3.org/2000/svg">
  <g transform="matrix(1 0 0 1 -311 -2017 )">
    <path d="M 4 11.2857142857143  C 4 11.2857142857143  4 10.7142857142857  4 10.7142857142857  C 4 9.89844365526574  3.43009199065727 9.21571074400788  2.66666666666697 9.04247978312014  L 2.66666666666697 9.33333333333326  L 1.33333333333348 9.33333333333326  C 1.33333333333348 9.33333333333326  1.33333333333348 9.21549270235971  1.33333120726184 9.04247980127934  C 0.56990800934318 9.21571074400754  0 9.89844365526562  0 10.7142857142857  C 0 10.7142857142857  0 11.2857142857143  0 11.2857142857143  C 0 12.232488142567  0.767511857432964 13  1.71428571428578 13  C 1.71428571428578 13  2.28571428571422 13  2.28571428571422 13  C 3.23248814256704 13  4 12.232488142567  4 11.2857142857143  Z M 14 11.2857142857143  C 14 11.2857142857143  14 10.7142857142857  14 10.7142857142857  C 14 9.89834533601322  13.4299546201814 9.21554619009646  12.6663927777449 9.04241719229742  L 12.666666666667 9.33333333333326  L 11.3333333333335 9.33333333333326  L 11.3333312072618 9.04247980127934  C 10.5699080093432 9.21571074400754  10 9.89844365526562  10 10.7142857142857  C 10 10.7142857142857  10 11.2857142857143  10 11.2857142857143  C 10 12.232488142567  10.767511857433 13  11.7142857142858 13  C 11.7142857142858 13  12.2857142857142 13  12.2857142857142 13  C 13.232488142567 13  14 12.232488142567  14 11.2857142857143  Z M 4.66666666666652 3.33333333333326  C 4.66666666666652 4.32432986796925  5.38742564517952 5.14698412315158  6.33333333333348 5.30567947413613  L 6.33333333333348 4.66666666666663  L 7.66666666666697 4.66666666666663  L 7.66667304718749 5.30567944948825  C 8.61257435482048 5.14698412315101  9.33333333333303 4.32432986796891  9.33333333333303 3.33333333333326  C 9.33333333333303 3.33333333333326  9.33333333333303 2.66666666666663  9.33333333333303 2.66666666666663  C 9.33333333333303 1.56209716700505  8.4379028329945 0.666666666666629  7.33333333333303 0.666666666666629  C 7.33333333333303 0.666666666666629  6.66666666666652 0.666666666666629  6.66666666666652 0.666666666666629  C 5.56209716700505 0.666666666666629  4.66666666666652 1.56209716700505  4.66666666666652 2.66666666666663  C 4.66666666666652 2.66666666666663  4.66666666666652 3.33333333333326  4.66666666666652 3.33333333333326  Z M 9 10.7142857142857  C 9 9.89844365526574  8.43009199065727 9.21571074400788  7.66666666666697 9.04247980104458  L 7.66666666666697 9.33333333333326  L 6.33333333333348 9.33333333333326  L 6.33333120726184 9.04247980127934  C 5.56990800934318 9.21571074400754  5 9.89844365526562  5 10.7142857142857  C 5 10.7142857142857  5 11.2857142857143  5 11.2857142857143  C 5 12.232488142567  5.76751185743296 13  6.71428571428578 13  C 6.71428571428578 13  7.28571428571422 13  7.28571428571422 13  C 8.23248814256704 13  9 12.232488142567  9 11.2857142857143  C 9 11.2857142857143  9 10.7142857142857  9 10.7142857142857  Z M 11.3333333333335 7.66666666666663  L 7.66666666666697 7.66666665980006  L 7.66666639653749 6.33401843667616  C 9.59332850051169 6.33365844688956  11.3333333333335 6.33333333333326  11.3333333333335 6.33333333333326  C 12.0473984644282 6.33333333333326  12.6303596253315 6.89465615693075  12.6650348975891 7.60011988567101  L 12.6663927161962 9.04241717993989  C 12.5439579903764 9.01465649789805  12.4165477422976 9  12.2857142857142 9  C 12.2857142857142 9  11.7142857142858 9  11.7142857142858 9  C 11.5833546278686 9  11.4558518607587 9.01467837984433  11.3333333333335 9.04247989736734  L 11.3333333333335 7.66666666666663  Z M 6.33333333333348 6.33426757179097  L 6.33333337297518 7.66666666666663  L 2.66666666666697 7.66666666666663  L 2.66666679561968 9.04247934810769  C 2.54414813924177 9.01467837984444  2.41664537213137 9  2.28571428571422 9  C 2.28571428571422 9  1.71428571428578 9  1.71428571428578 9  C 1.58335462786863 9  1.45585186075868 9.01467837984433  1.33333333333348 9.04247989736734  C 1.33333333333348 8.56483094232976  1.33333333333348 7.66666666666663  1.33333333333348 7.66666666666663  C 1.33333333333348 6.95260153557228  1.89465615693098 6.36964037466885  2.60011988567112 6.33496510241127  C 2.60011988567112 6.33496510241127  4.38037791953366 6.33463246769122  6.33333333333348 6.33426757179097  Z M 6.33333333333348 9.0424825932671  L 6.33333333331393 7.66666666666663  L 7.66666666666697 7.66666193094375  L 7.66666737331616 9.04247947919418  C 7.54414854004017 9.01467842598515  7.4166455779191 9  7.28571428571422 9  C 7.28571428571422 9  6.71428571428578 9  6.71428571428578 9  C 6.5833544220809 9  6.45585145995983 9.01467842598515  6.33333333333348 9.0424825932671  Z M 7.66666666603396 6.3340184366258  C 7.22579197761297 6.33410081245324  6.77514346979524 6.33418501448318  6.33333333333348 6.3342700219082  L 6.33333321902137 5.30568050076954  C 6.4417360795469 5.32386706128568  6.55309588995488 5.33333333333326  6.66666666666652 5.33333333333326  C 6.66666666666652 5.33333333333326  7.33333333333303 5.33333333333326  7.33333333333303 5.33333333333326  C 7.44690411004467 5.33333333333326  7.5582639204531 5.32386706128568  7.66666666666697 5.30567985578807  L 7.66666666603396 6.3340184366258  Z " fill-rule="nonzero" fill="#c9ced6" stroke="none" transform="matrix(1 0 0 1 311 2017 )" />
  </g>
</svg>