<?xml version="1.0" encoding="utf-8"?>
<svg version="1.1" xmlns:xlink="http://www.w3.org/1999/xlink" width="14px" height="14px" xmlns="http://www.w3.org/2000/svg">
  <g transform="matrix(1 0 0 1 -1623 -1363 )">
    <path d="M 7.66666666666697 1.15384615384642  L 7.66667333392115 6.33333333333348  L 12.8461538461538 6.33333333333348  C 13.1189743589744 6.33333333333348  13.3333333333335 6.62666666666678  13.3333333333335 7  C 13.3333333333335 7.37333333333345  13.1189743589744 7.66666666666674  12.8461538461538 7.66666666666674  L 7.66666666666697 7.66666667196  L 7.66666666666697 12.846153846154  C 7.66666666666697 13.1189743589746  7.3733333333339 13.3333333333335  7.00000000000046 13.3333333333335  C 6.62666666666701 13.3333333333335  6.33333333333394 13.1189743589746  6.33333333333394 12.846153846154  L 6.33332666607976 7.66666666666674  L 1.15384615384664 7.66666666666674  C 0.881025641026099 7.66666666666674  0.66666666666697 7.37333333333345  0.66666666666697 7  C 0.66666666666697 6.62666666666678  0.881025641026099 6.33333333333348  1.15384615384664 6.33333333333348  L 6.33333333333394 6.33333332804023  L 6.33333333333394 1.15384615384642  C 6.33333333333394 0.881025641025872  6.62666666666701 0.66666666666697  7.00000000000046 0.66666666666697  C 7.3733333333339 0.66666666666697  7.66666666666697 0.881025641025872  7.66666666666697 1.15384615384642  Z " fill-rule="nonzero" fill="#ffffff" stroke="none" transform="matrix(1 0 0 1 1623 1363 )" />
  </g>
</svg>