<?xml version="1.0" encoding="utf-8"?>
<svg version="1.1" xmlns:xlink="http://www.w3.org/1999/xlink" width="14px" height="4px" xmlns="http://www.w3.org/2000/svg">
  <g transform="matrix(1 0 0 1 -1458 -1577 )">
    <path d="M 0.5 1.96428571428581  C 0.5 1.45144987515721  0.886040190196809 1.02877855359398  1.38337887457578 0.971013445611106  C 1.38337887457578 0.971013445611106  1.5 0.964285714285808  1.5 0.964285714285808  C 1.5 0.964285714285808  2.5 0.964285714285808  2.5 0.964285714285808  C 3.01283583912868 0.964285714285808  3.43550716069194 1.35032590448273  3.49327226867467 1.84766458886153  C 3.49327226867467 1.84766458886153  3.5 1.96428571428581  3.5 1.96428571428581  C 3.5 1.96428571428581  3.5 2.96428571428581  3.5 2.96428571428581  C 3.5 3.47712155341441  3.11395980980319 3.89979287497763  2.61662112542422 3.95755798296051  C 2.61662112542422 3.95755798296051  2.5 3.96428571428581  2.5 3.96428571428581  C 2.5 3.96428571428581  1.5 3.96428571428581  1.5 3.96428571428581  C 0.987164160871316 3.96428571428581  0.564492839308059 3.57824552408889  0.506727731325327 3.08090683971008  C 0.506727731325327 3.08090683971008  0.5 2.96428571428581  0.5 2.96428571428581  C 0.5 2.96428571428581  0.5 1.96428571428581  0.5 1.96428571428581  Z M 5.5 1.96428571428581  C 5.5 1.45144987515721  5.88604019019681 1.02877855359398  6.38337887457578 0.971013445611106  C 6.38337887457578 0.971013445611106  6.5 0.964285714285808  6.5 0.964285714285808  C 6.5 0.964285714285808  7.5 0.964285714285808  7.5 0.964285714285808  C 8.01283583912868 0.964285714285808  8.43550716069194 1.35032590448273  8.49327226867467 1.84766458886153  C 8.49327226867467 1.84766458886153  8.5 1.96428571428581  8.5 1.96428571428581  C 8.5 1.96428571428581  8.5 2.96428571428581  8.5 2.96428571428581  C 8.5 3.47712155341441  8.11395980980296 3.89979287497763  7.61662112542422 3.95755798296051  C 7.61662112542422 3.95755798296051  7.5 3.96428571428581  7.5 3.96428571428581  C 7.5 3.96428571428581  6.5 3.96428571428581  6.5 3.96428571428581  C 5.98716416087132 3.96428571428581  5.56449283930806 3.57824552408889  5.50672773132533 3.08090683971008  C 5.50672773132533 3.08090683971008  5.5 2.96428571428581  5.5 2.96428571428581  C 5.5 2.96428571428581  5.5 1.96428571428581  5.5 1.96428571428581  Z M 11.3833788745758 0.971013445611106  C 11.3833788745758 0.971013445611106  11.5 0.964285714285808  11.5 0.964285714285808  C 11.5 0.964285714285808  12.5 0.964285714285808  12.5 0.964285714285808  C 13.0128358391287 0.964285714285808  13.4355071606919 1.35032590448273  13.4932722686747 1.84766458886153  C 13.4932722686747 1.84766458886153  13.5 1.96428571428581  13.5 1.96428571428581  C 13.5 1.96428571428581  13.5 2.96428571428581  13.5 2.96428571428581  C 13.5 3.47712155341441  13.113959809803 3.89979287497763  12.6166211254242 3.95755798296051  C 12.6166211254242 3.95755798296051  12.5 3.96428571428581  12.5 3.96428571428581  C 12.5 3.96428571428581  11.5 3.96428571428581  11.5 3.96428571428581  C 10.9871641608713 3.96428571428581  10.5644928393081 3.57824552408889  10.5067277313253 3.08090683971008  C 10.5067277313253 3.08090683971008  10.5 2.96428571428581  10.5 2.96428571428581  C 10.5 2.96428571428581  10.5 1.96428571428581  10.5 1.96428571428581  C 10.5 1.45144987515721  10.8860401901968 1.02877855359398  11.3833788745758 0.971013445611106  Z " fill-rule="nonzero" fill="#ffffff" stroke="none" fill-opacity="0" transform="matrix(1 0 0 1 1458 1577 )" />
  </g>
</svg>