<?xml version="1.0" encoding="utf-8"?>
<svg version="1.1" xmlns:xlink="http://www.w3.org/1999/xlink" width="14px" height="4px" xmlns="http://www.w3.org/2000/svg">
  <g transform="matrix(1 0 0 1 -1451 -1854 )">
    <path d="M 0.5 1.82142857142873  C 0.5 1.30859273230016  0.886040190196809 0.885921410736898  1.38337887457578 0.828156302753996  C 1.38337887457578 0.828156302753996  1.5 0.821428571428726  1.5 0.821428571428726  C 1.5 0.821428571428726  2.5 0.821428571428726  2.5 0.821428571428726  C 3.01283583912868 0.821428571428726  3.43550716069194 1.20746876162565  3.49327226867467 1.70480744600445  C 3.49327226867467 1.70480744600445  3.5 1.82142857142873  3.5 1.82142857142873  C 3.5 1.82142857142873  3.5 2.82142857142873  3.5 2.82142857142873  C 3.5 3.3342644105573  3.11395980980319 3.75693573212055  2.61662112542422 3.81470084010346  C 2.61662112542422 3.81470084010346  2.5 3.82142857142873  2.5 3.82142857142873  C 2.5 3.82142857142873  1.5 3.82142857142873  1.5 3.82142857142873  C 0.987164160871316 3.82142857142873  0.564492839308059 3.4353883812318  0.506727731325327 2.938049696853  C 0.506727731325327 2.938049696853  0.5 2.82142857142873  0.5 2.82142857142873  C 0.5 2.82142857142873  0.5 1.82142857142873  0.5 1.82142857142873  Z M 5.5 1.82142857142873  C 5.5 1.30859273230016  5.88604019019681 0.885921410736898  6.38337887457578 0.828156302753996  C 6.38337887457578 0.828156302753996  6.5 0.821428571428726  6.5 0.821428571428726  C 6.5 0.821428571428726  7.5 0.821428571428726  7.5 0.821428571428726  C 8.01283583912868 0.821428571428726  8.43550716069194 1.20746876162565  8.49327226867467 1.70480744600445  C 8.49327226867467 1.70480744600445  8.5 1.82142857142873  8.5 1.82142857142873  C 8.5 1.82142857142873  8.5 2.82142857142873  8.5 2.82142857142873  C 8.5 3.3342644105573  8.11395980980296 3.75693573212055  7.61662112542422 3.81470084010346  C 7.61662112542422 3.81470084010346  7.5 3.82142857142873  7.5 3.82142857142873  C 7.5 3.82142857142873  6.5 3.82142857142873  6.5 3.82142857142873  C 5.98716416087132 3.82142857142873  5.56449283930806 3.4353883812318  5.50672773132533 2.938049696853  C 5.50672773132533 2.938049696853  5.5 2.82142857142873  5.5 2.82142857142873  C 5.5 2.82142857142873  5.5 1.82142857142873  5.5 1.82142857142873  Z M 11.3833788745758 0.828156302753996  C 11.3833788745758 0.828156302753996  11.5 0.821428571428726  11.5 0.821428571428726  C 11.5 0.821428571428726  12.5 0.821428571428726  12.5 0.821428571428726  C 13.0128358391287 0.821428571428726  13.4355071606919 1.20746876162565  13.4932722686747 1.70480744600445  C 13.4932722686747 1.70480744600445  13.5 1.82142857142873  13.5 1.82142857142873  C 13.5 1.82142857142873  13.5 2.82142857142873  13.5 2.82142857142873  C 13.5 3.3342644105573  13.113959809803 3.75693573212055  12.6166211254242 3.81470084010346  C 12.6166211254242 3.81470084010346  12.5 3.82142857142873  12.5 3.82142857142873  C 12.5 3.82142857142873  11.5 3.82142857142873  11.5 3.82142857142873  C 10.9871641608713 3.82142857142873  10.5644928393081 3.4353883812318  10.5067277313253 2.938049696853  C 10.5067277313253 2.938049696853  10.5 2.82142857142873  10.5 2.82142857142873  C 10.5 2.82142857142873  10.5 1.82142857142873  10.5 1.82142857142873  C 10.5 1.30859273230016  10.8860401901968 0.885921410736898  11.3833788745758 0.828156302753996  Z " fill-rule="nonzero" fill="#ffffff" stroke="none" fill-opacity="0" transform="matrix(1 0 0 1 1451 1854 )" />
  </g>
</svg>