<?xml version="1.0" encoding="utf-8"?>
<svg version="1.1" xmlns:xlink="http://www.w3.org/1999/xlink" width="14px" height="4px" xmlns="http://www.w3.org/2000/svg">
  <g transform="matrix(1 0 0 1 -1659 -2062 )">
    <path d="M 2.00000000000045 0.630952380952749  C 2.74666666666712 0.630952380952749  3.33333333333371 1.21761904761945  3.33333333333371 1.96428571428601  C 3.33333333333371 2.71095238095268  2.74666666666712 3.29761904761938  2.00000000000045 3.29761904761938  C 1.25333333333356 3.29761904761938  0.66666666666697 2.71095238095268  0.66666666666697 1.96428571428601  C 0.66666666666697 1.21761904761945  1.25333333333356 0.630952380952749  2.00000000000045 0.630952380952749  Z M 7.00000000000046 0.630952380952749  C 7.74666666666712 0.630952380952749  8.33333333333371 1.21761904761945  8.33333333333371 1.96428571428601  C 8.33333333333371 2.71095238095268  7.74666666666712 3.29761904761938  7.00000000000046 3.29761904761938  C 6.25333333333356 3.29761904761938  5.66666666666697 2.71095238095268  5.66666666666697 1.96428571428601  C 5.66666666666697 1.21761904761945  6.25333333333356 0.630952380952749  7.00000000000046 0.630952380952749  Z M 13.3333333333337 1.96428571428601  C 13.3333333333337 2.71095238095268  12.7466666666671 3.29761904761938  12.0000000000005 3.29761904761938  C 11.2533333333336 3.29761904761938  10.666666666667 2.71095238095268  10.666666666667 1.96428571428601  C 10.666666666667 1.21761904761945  11.2533333333336 0.630952380952749  12.0000000000005 0.630952380952749  C 12.7466666666671 0.630952380952749  13.3333333333337 1.21761904761945  13.3333333333337 1.96428571428601  Z " fill-rule="nonzero" fill="#237ffa" stroke="none" transform="matrix(1 0 0 1 1659 2062 )" />
  </g>
</svg>