<?xml version="1.0" encoding="utf-8"?>
<svg version="1.1" xmlns:xlink="http://www.w3.org/1999/xlink" width="14px" height="3px" xmlns="http://www.w3.org/2000/svg">
  <g transform="matrix(1 0 0 1 -1659 -1578 )">
    <path d="M 2.00000000000045 0.130952380952493  C 2.74666666666712 0.130952380952493  3.33333333333371 0.717619047619166  3.33333333333371 1.46428571428584  C 3.33333333333371 2.21095238095248  2.74666666666712 2.79761904761915  2.00000000000045 2.79761904761915  C 1.25333333333356 2.79761904761915  0.66666666666697 2.21095238095248  0.66666666666697 1.46428571428584  C 0.66666666666697 0.717619047619166  1.25333333333356 0.130952380952493  2.00000000000045 0.130952380952493  Z M 7.00000000000046 0.130952380952493  C 7.74666666666712 0.130952380952493  8.33333333333371 0.717619047619166  8.33333333333371 1.46428571428584  C 8.33333333333371 2.21095238095248  7.74666666666712 2.79761904761915  7.00000000000046 2.79761904761915  C 6.25333333333356 2.79761904761915  5.66666666666697 2.21095238095248  5.66666666666697 1.46428571428584  C 5.66666666666697 0.717619047619166  6.25333333333356 0.130952380952493  7.00000000000046 0.130952380952493  Z M 13.3333333333337 1.46428571428584  C 13.3333333333337 2.21095238095248  12.7466666666671 2.79761904761915  12.0000000000005 2.79761904761915  C 11.2533333333336 2.79761904761915  10.666666666667 2.21095238095248  10.666666666667 1.46428571428584  C 10.666666666667 0.717619047619166  11.2533333333336 0.130952380952493  12.0000000000005 0.130952380952493  C 12.7466666666671 0.130952380952493  13.3333333333337 0.717619047619166  13.3333333333337 1.46428571428584  Z " fill-rule="nonzero" fill="#237ffa" stroke="none" transform="matrix(1 0 0 1 1659 1578 )" />
  </g>
</svg>