<?xml version="1.0" encoding="utf-8"?>
<svg version="1.1" xmlns:xlink="http://www.w3.org/1999/xlink" width="14px" height="4px" xmlns="http://www.w3.org/2000/svg">
  <g transform="matrix(1 0 0 1 -1659 -1785 )">
    <path d="M 2.00000000000045 0.773809523809575  C 2.74666666666712 0.773809523809575  3.33333333333371 1.36047619047622  3.33333333333371 2.10714285714289  C 3.33333333333371 2.85380952380962  2.74666666666712 3.44047619047626  2.00000000000045 3.44047619047626  C 1.25333333333356 3.44047619047626  0.66666666666697 2.85380952380962  0.66666666666697 2.10714285714289  C 0.66666666666697 1.36047619047622  1.25333333333356 0.773809523809575  2.00000000000045 0.773809523809575  Z M 7.00000000000046 0.773809523809575  C 7.74666666666712 0.773809523809575  8.33333333333371 1.36047619047622  8.33333333333371 2.10714285714289  C 8.33333333333371 2.85380952380962  7.74666666666712 3.44047619047626  7.00000000000046 3.44047619047626  C 6.25333333333356 3.44047619047626  5.66666666666697 2.85380952380962  5.66666666666697 2.10714285714289  C 5.66666666666697 1.36047619047622  6.25333333333356 0.773809523809575  7.00000000000046 0.773809523809575  Z M 13.3333333333337 2.10714285714289  C 13.3333333333337 2.85380952380962  12.7466666666671 3.44047619047626  12.0000000000005 3.44047619047626  C 11.2533333333336 3.44047619047626  10.666666666667 2.85380952380962  10.666666666667 2.10714285714289  C 10.666666666667 1.36047619047622  11.2533333333336 0.773809523809575  12.0000000000005 0.773809523809575  C 12.7466666666671 0.773809523809575  13.3333333333337 1.36047619047622  13.3333333333337 2.10714285714289  Z " fill-rule="nonzero" fill="#237ffa" stroke="none" transform="matrix(1 0 0 1 1659 1785 )" />
  </g>
</svg>