<?xml version="1.0" encoding="utf-8"?>
<svg version="1.1" xmlns:xlink="http://www.w3.org/1999/xlink" width="16px" height="4px" xmlns="http://www.w3.org/2000/svg">
  <g transform="matrix(1 0 0 1 -1540 -1276 )">
    <path d="M 1.66666666666652 0  C 2.59999999999991 0  3.33333333333326 0.733333333333334  3.33333333333326 1.66666666666667  C 3.33333333333326 2.6  2.59999999999991 3.33333333333334  1.66666666666652 3.33333333333334  C 0.733333333333348 3.33333333333334  0 2.6  0 1.66666666666667  C 0 0.733333333333334  0.733333333333348 0  1.66666666666652 0  Z M 7.91666666666652 0  C 8.84999999999991 0  9.58333333333326 0.733333333333334  9.58333333333326 1.66666666666667  C 9.58333333333326 2.6  8.84999999999991 3.33333333333334  7.91666666666652 3.33333333333334  C 6.98333333333335 3.33333333333334  6.25 2.6  6.25 1.66666666666667  C 6.25 0.733333333333334  6.98333333333335 0  7.91666666666652 0  Z M 15.8333333333333 1.66666666666667  C 15.8333333333333 2.6  15.0999999999999 3.33333333333334  14.1666666666665 3.33333333333334  C 13.2333333333333 3.33333333333334  12.5 2.6  12.5 1.66666666666667  C 12.5 0.733333333333334  13.2333333333333 0  14.1666666666665 0  C 15.0999999999999 0  15.8333333333333 0.733333333333334  15.8333333333333 1.66666666666667  Z " fill-rule="nonzero" fill="#5f6a7a" stroke="none" transform="matrix(1 0 0 1 1540 1276 )" />
  </g>
</svg>