<?xml version="1.0" encoding="utf-8"?>
<svg version="1.1" xmlns:xlink="http://www.w3.org/1999/xlink" width="24px" height="24px" xmlns="http://www.w3.org/2000/svg">
  <defs>
    <linearGradient gradientUnits="userSpaceOnUse" x1="12" y1="12" x2="12" y2="0" id="LinearGradient548">
      <stop id="Stop549" stop-color="#121491" offset="0" />
      <stop id="Stop550" stop-color="#237ffa" offset="0.06" />
      <stop id="Stop551" stop-color="#237ffa" offset="0.19" />
      <stop id="Stop552" stop-color="#121491" offset="1" />
    </linearGradient>
  </defs>
  <g transform="matrix(1 0 0 1 -306 -1268 )">
    <path d="M 12 24  C 18.6274169976924 24  24 18.6274169976924  24 12  C 24 5.37258300230762  18.6274169976924 0  12 0  C 5.37258300230762 0  0 5.37258300230762  0 12  C 0 18.6274169976924  5.37258300230762 24  12 24  Z M 12 18  C 8.68629150129238 18  6 15.3137084987076  6 12  C 6 8.68629150129238  8.68629150129238 6  12 6  C 15.3137084987076 6  18 8.68629150129238  18 12  C 18 15.3137084987076  15.3137084987076 18  12 18  Z " fill-rule="nonzero" fill="url(#LinearGradient548)" stroke="none" transform="matrix(1 0 0 1 306 1268 )" />
  </g>
</svg>