<?xml version="1.0" encoding="utf-8"?>
<svg version="1.1" xmlns:xlink="http://www.w3.org/1999/xlink" width="14px" height="4px" xmlns="http://www.w3.org/2000/svg">
  <g transform="matrix(1 0 0 1 -1506 -2131 )">
    <path d="M 0.5 1.67857142857156  C 0.5 1.16573558944299  0.886040190196809 0.743064267879731  1.38337887457578 0.685299159896886  C 1.38337887457578 0.685299159896886  1.5 0.678571428571559  1.5 0.678571428571559  C 1.5 0.678571428571559  2.5 0.678571428571559  2.5 0.678571428571559  C 3.01283583912868 0.678571428571559  3.43550716069194 1.06461161876848  3.49327226867467 1.56195030314723  C 3.49327226867467 1.56195030314723  3.5 1.67857142857156  3.5 1.67857142857156  C 3.5 1.67857142857156  3.5 2.67857142857156  3.5 2.67857142857156  C 3.5 3.19140726770013  3.11395980980319 3.61407858926339  2.61662112542422 3.67184369724623  C 2.61662112542422 3.67184369724623  2.5 3.67857142857156  2.5 3.67857142857156  C 2.5 3.67857142857156  1.5 3.67857142857156  1.5 3.67857142857156  C 0.987164160871316 3.67857142857156  0.564492839308059 3.29253123837464  0.506727731325327 2.79519255399589  C 0.506727731325327 2.79519255399589  0.5 2.67857142857156  0.5 2.67857142857156  C 0.5 2.67857142857156  0.5 1.67857142857156  0.5 1.67857142857156  Z M 5.5 1.67857142857156  C 5.5 1.16573558944299  5.88604019019681 0.743064267879731  6.38337887457578 0.685299159896886  C 6.38337887457578 0.685299159896886  6.5 0.678571428571559  6.5 0.678571428571559  C 6.5 0.678571428571559  7.5 0.678571428571559  7.5 0.678571428571559  C 8.01283583912868 0.678571428571559  8.43550716069194 1.06461161876848  8.49327226867467 1.56195030314723  C 8.49327226867467 1.56195030314723  8.5 1.67857142857156  8.5 1.67857142857156  C 8.5 1.67857142857156  8.5 2.67857142857156  8.5 2.67857142857156  C 8.5 3.19140726770013  8.11395980980296 3.61407858926339  7.61662112542422 3.67184369724623  C 7.61662112542422 3.67184369724623  7.5 3.67857142857156  7.5 3.67857142857156  C 7.5 3.67857142857156  6.5 3.67857142857156  6.5 3.67857142857156  C 5.98716416087132 3.67857142857156  5.56449283930806 3.29253123837464  5.50672773132533 2.79519255399589  C 5.50672773132533 2.79519255399589  5.5 2.67857142857156  5.5 2.67857142857156  C 5.5 2.67857142857156  5.5 1.67857142857156  5.5 1.67857142857156  Z M 11.3833788745758 0.685299159896886  C 11.3833788745758 0.685299159896886  11.5 0.678571428571559  11.5 0.678571428571559  C 11.5 0.678571428571559  12.5 0.678571428571559  12.5 0.678571428571559  C 13.0128358391287 0.678571428571559  13.4355071606919 1.06461161876848  13.4932722686747 1.56195030314723  C 13.4932722686747 1.56195030314723  13.5 1.67857142857156  13.5 1.67857142857156  C 13.5 1.67857142857156  13.5 2.67857142857156  13.5 2.67857142857156  C 13.5 3.19140726770013  13.113959809803 3.61407858926339  12.6166211254242 3.67184369724623  C 12.6166211254242 3.67184369724623  12.5 3.67857142857156  12.5 3.67857142857156  C 12.5 3.67857142857156  11.5 3.67857142857156  11.5 3.67857142857156  C 10.9871641608713 3.67857142857156  10.5644928393081 3.29253123837464  10.5067277313253 2.79519255399589  C 10.5067277313253 2.79519255399589  10.5 2.67857142857156  10.5 2.67857142857156  C 10.5 2.67857142857156  10.5 1.67857142857156  10.5 1.67857142857156  C 10.5 1.16573558944299  10.8860401901968 0.743064267879731  11.3833788745758 0.685299159896886  Z " fill-rule="nonzero" fill="#ffffff" stroke="none" fill-opacity="0" transform="matrix(1 0 0 1 1506 2131 )" />
  </g>
</svg>