<?xml version="1.0" encoding="utf-8"?>
<svg version="1.1" xmlns:xlink="http://www.w3.org/1999/xlink" width="14px" height="4px" xmlns="http://www.w3.org/2000/svg">
  <g transform="matrix(1 0 0 1 -1532 -2062 )">
    <path d="M 0.5 1.46428571428601  C 0.5 0.951449875157437  0.886040190196809 0.528778553594179  1.38337887457578 0.471013445611334  C 1.38337887457578 0.471013445611334  1.5 0.464285714286007  1.5 0.464285714286007  C 1.5 0.464285714286007  2.5 0.464285714286007  2.5 0.464285714286007  C 3.01283583912868 0.464285714286007  3.43550716069194 0.850325904482929  3.49327226867467 1.34766458886168  C 3.49327226867467 1.34766458886168  3.5 1.46428571428601  3.5 1.46428571428601  C 3.5 1.46428571428601  3.5 2.46428571428601  3.5 2.46428571428601  C 3.5 2.97712155341458  3.11395980980319 3.39979287497783  2.61662112542422 3.45755798296068  C 2.61662112542422 3.45755798296068  2.5 3.46428571428601  2.5 3.46428571428601  C 2.5 3.46428571428601  1.5 3.46428571428601  1.5 3.46428571428601  C 0.987164160871316 3.46428571428601  0.564492839308059 3.07824552408908  0.506727731325327 2.58090683971034  C 0.506727731325327 2.58090683971034  0.5 2.46428571428601  0.5 2.46428571428601  C 0.5 2.46428571428601  0.5 1.46428571428601  0.5 1.46428571428601  Z M 5.5 1.46428571428601  C 5.5 0.951449875157437  5.88604019019681 0.528778553594179  6.38337887457578 0.471013445611334  C 6.38337887457578 0.471013445611334  6.5 0.464285714286007  6.5 0.464285714286007  C 6.5 0.464285714286007  7.5 0.464285714286007  7.5 0.464285714286007  C 8.01283583912868 0.464285714286007  8.43550716069194 0.850325904482929  8.49327226867467 1.34766458886168  C 8.49327226867467 1.34766458886168  8.5 1.46428571428601  8.5 1.46428571428601  C 8.5 1.46428571428601  8.5 2.46428571428601  8.5 2.46428571428601  C 8.5 2.97712155341458  8.11395980980296 3.39979287497783  7.61662112542422 3.45755798296068  C 7.61662112542422 3.45755798296068  7.5 3.46428571428601  7.5 3.46428571428601  C 7.5 3.46428571428601  6.5 3.46428571428601  6.5 3.46428571428601  C 5.98716416087132 3.46428571428601  5.56449283930806 3.07824552408908  5.50672773132533 2.58090683971034  C 5.50672773132533 2.58090683971034  5.5 2.46428571428601  5.5 2.46428571428601  C 5.5 2.46428571428601  5.5 1.46428571428601  5.5 1.46428571428601  Z M 11.3833788745758 0.471013445611334  C 11.3833788745758 0.471013445611334  11.5 0.464285714286007  11.5 0.464285714286007  C 11.5 0.464285714286007  12.5 0.464285714286007  12.5 0.464285714286007  C 13.0128358391287 0.464285714286007  13.4355071606919 0.850325904482929  13.4932722686747 1.34766458886168  C 13.4932722686747 1.34766458886168  13.5 1.46428571428601  13.5 1.46428571428601  C 13.5 1.46428571428601  13.5 2.46428571428601  13.5 2.46428571428601  C 13.5 2.97712155341458  13.113959809803 3.39979287497783  12.6166211254242 3.45755798296068  C 12.6166211254242 3.45755798296068  12.5 3.46428571428601  12.5 3.46428571428601  C 12.5 3.46428571428601  11.5 3.46428571428601  11.5 3.46428571428601  C 10.9871641608713 3.46428571428601  10.5644928393081 3.07824552408908  10.5067277313253 2.58090683971034  C 10.5067277313253 2.58090683971034  10.5 2.46428571428601  10.5 2.46428571428601  C 10.5 2.46428571428601  10.5 1.46428571428601  10.5 1.46428571428601  C 10.5 0.951449875157437  10.8860401901968 0.528778553594179  11.3833788745758 0.471013445611334  Z " fill-rule="nonzero" fill="#ffffff" stroke="none" fill-opacity="0" transform="matrix(1 0 0 1 1532 2062 )" />
  </g>
</svg>