<?xml version="1.0" encoding="utf-8"?>
<svg version="1.1" xmlns:xlink="http://www.w3.org/1999/xlink" width="14px" height="14px" xmlns="http://www.w3.org/2000/svg">
  <g transform="matrix(1 0 0 1 -311 -1329 )">
    <path d="M 1.66459412558288 3.75558585711792  C 1.66459412558288 3.75558585711792  5.99792745891637 1.24681392729326  5.99792745891637 1.24681392729326  C 6.61778214397282 0.887950688576211  7.38221785602673 0.887950688576211  8.00207254108318 1.24681392729326  C 8.00207254108318 1.24681392729326  12.3354058744167 3.75558585711792  12.3354058744167 3.75558585711792  C 12.9530398072357 4.11316339717109  13.333333333333 4.77276247071563  13.333333333333 5.48643842808019  C 13.333333333333 5.48643842808019  13.333333333333 11.3333333333328  13.333333333333 11.3333333333328  C 13.333333333333 12.4379028329945  12.4379028329945 13.3333333333328  11.333333333333 13.3333333333328  C 11.333333333333 13.3333333333328  2.66666666666652 13.3333333333328  2.66666666666652 13.3333333333328  C 1.56209716700505 13.3333333333328  0.666666666666515 12.4379028329945  0.666666666666515 11.3333333333328  C 0.666666666666515 11.3333333333328  0.666666666666515 5.48643842808019  0.666666666666515 5.48643842808019  C 0.666666666666515 4.77276247071563  1.04696019276389 4.11316339717109  1.66459412558288 3.75558585711792  Z M 6.33333333333303 8.79166666666652  L 6.33333333333303 12  L 7.66666666666652 12  L 7.66666666666652 8.79166666666652  C 7.66666666666652 8.53499999999985  7.37333333333299 8.33333333333326  7 8.33333333333326  C 6.62666666666655 8.33333333333326  6.33333333333303 8.53499999999985  6.33333333333303 8.79166666666652  Z " fill-rule="nonzero" fill="#929aa6" stroke="none" transform="matrix(1 0 0 1 311 1329 )" />
  </g>
</svg>