<?xml version="1.0" encoding="utf-8"?>
<svg version="1.1" xmlns:xlink="http://www.w3.org/1999/xlink" width="14px" height="14px" xmlns="http://www.w3.org/2000/svg">
  <g transform="matrix(1 0 0 1 -311 -1461 )">
    <path d="M 11.9999999999995 13.3333333333335  C 11.9999999999995 13.3333333333335  2 13.3333333333335  2 13.3333333333335  C 1.26362033355872 13.3333333333335  0.666666666666515 12.7363796664413  0.666666666666515 12.0000000000002  C 0.666666666666515 12.0000000000002  0.666666666666515 2  0.666666666666515 2  C 0.666666666666515 1.26362033355895  1.26362033355872 0.666666666666742  2 0.666666666666742  C 2 0.666666666666742  11.9999999999995 0.666666666666742  11.9999999999995 0.666666666666742  C 12.7363796664408 0.666666666666742  13.333333333333 1.26362033355895  13.333333333333 2  C 13.333333333333 2  13.333333333333 12.0000000000002  13.333333333333 12.0000000000002  C 13.333333333333 12.7363796664413  12.7363796664408 13.3333333333335  11.9999999999995 13.3333333333335  Z M 2.61691255171399 11.9981714211897  C 2.61691255171399 11.9981714211897  5.66666666666697 12.0000000000002  5.66666666666697 12.0000000000002  C 6.01812059837721 12.0000000000002  6.30605504062396 11.7280407364676  6.33150475452294 11.3830874482862  C 6.33150475452294 11.3830874482862  6.33333333333348 10.0000000000002  6.33333333333348 10.0000000000002  C 6.33333333333348 9.64854606828976  6.06137406980088 9.36061162604301  5.71642078161949 9.33516191214403  C 5.71642078161949 9.33516191214403  2.66666666666652 9.33333333333348  2.66666666666652 9.33333333333348  C 2.31521273495628 9.33333333333348  2.02727829270953 9.60529259686609  2.00182857881055 9.95024588504748  C 2.00182857881055 9.95024588504748  2 11.3333333333335  2 11.3333333333335  C 2 11.684787265044  2.27195926353261 11.9727217072907  2.61691255171399 11.9981714211897  Z M 11.3333333333335 12.0000000000002  C 11.6847872650437 12.0000000000002  11.9727217072905 11.7280407364676  11.9981714211895 11.3830874482862  C 11.9981714211895 11.3830874482862  12 10.0000000000002  12 10.0000000000002  C 12 9.64854606828976  11.7280407364674 9.36061162604301  11.383087448286 9.33516191214403  C 11.383087448286 9.33516191214403  8.33333333333303 9.33333333333348  8.33333333333303 9.33333333333348  C 7.98187940162279 9.33333333333348  7.69394495937604 9.60529259686609  7.66849524547706 9.95024588504748  C 7.66849524547706 9.95024588504748  7.66666666666652 11.3333333333335  7.66666666666652 11.3333333333335  C 7.66666666666652 11.684787265044  7.93862593019912 11.9727217072907  8.28357921838051 11.9981714211897  C 8.28357921838051 11.9981714211897  11.3333333333335 12.0000000000002  11.3333333333335 12.0000000000002  Z M 6.33150475452294 7.38308744828623  C 6.33150475452294 7.38308744828623  6.33333333333348 6.00000000000023  6.33333333333348 6.00000000000023  C 6.33333333333348 5.64854606828976  6.06137406980088 5.36061162604301  5.71642078161949 5.33516191214403  C 5.71642078161949 5.33516191214403  2.66666666666652 5.33333333333348  2.66666666666652 5.33333333333348  C 2.31521273495628 5.33333333333348  2.02727829270953 5.60529259686609  2.00182857881055 5.95024588504748  C 2.00182857881055 5.95024588504748  2 7.33333333333348  2 7.33333333333348  C 2 7.68478726504395  2.27195926353261 7.9727217072907  2.61691255171399 7.99817142118968  C 2.61691255171399 7.99817142118968  5.66666666666697 8.00000000000023  5.66666666666697 8.00000000000023  C 6.01812059837721 8.00000000000023  6.30605504062396 7.72804073646762  6.33150475452294 7.38308744828623  Z M 12 6.00000000000023  C 12 5.64854606828976  11.7280407364674 5.36061162604301  11.383087448286 5.33516191214403  C 11.383087448286 5.33516191214403  8.33333333333303 5.33333333333348  8.33333333333303 5.33333333333348  C 7.98187940162279 5.33333333333348  7.69394495937604 5.60529259686609  7.66849524547706 5.95024588504748  C 7.66849524547706 5.95024588504748  7.66666666666652 7.33333333333348  7.66666666666652 7.33333333333348  C 7.66666666666652 7.68478726504395  7.93862593019912 7.9727217072907  8.28357921838051 7.99817142118968  C 8.28357921838051 7.99817142118968  11.3333333333335 8.00000000000023  11.3333333333335 8.00000000000023  C 11.6847872650437 8.00000000000023  11.9727217072905 7.72804073646762  11.9981714211895 7.38308744828623  C 11.9981714211895 7.38308744828623  12 6.00000000000023  12 6.00000000000023  Z " fill-rule="nonzero" fill="#237ffa" stroke="none" transform="matrix(1 0 0 1 311 1461 )" />
  </g>
</svg>