<?xml version="1.0" encoding="utf-8"?>
<svg version="1.1" xmlns:xlink="http://www.w3.org/1999/xlink" width="14px" height="4px" xmlns="http://www.w3.org/2000/svg">
  <g transform="matrix(1 0 0 1 -1463 -1993 )">
    <path d="M 0.5 1.25000000000023  C 0.5 0.737164160871657  0.886040190196809 0.3144928393084  1.38337887457578 0.256727731325554  C 1.38337887457578 0.256727731325554  1.5 0.250000000000227  1.5 0.250000000000227  C 1.5 0.250000000000227  2.5 0.250000000000227  2.5 0.250000000000227  C 3.01283583912868 0.250000000000227  3.43550716069194 0.63604019019715  3.49327226867467 1.1333788745759  C 3.49327226867467 1.1333788745759  3.5 1.25000000000023  3.5 1.25000000000023  C 3.5 1.25000000000023  3.5 2.25000000000023  3.5 2.25000000000023  C 3.5 2.7628358391288  3.11395980980319 3.18550716069205  2.61662112542422 3.2432722686749  C 2.61662112542422 3.2432722686749  2.5 3.25000000000023  2.5 3.25000000000023  C 2.5 3.25000000000023  1.5 3.25000000000023  1.5 3.25000000000023  C 0.987164160871316 3.25000000000023  0.564492839308059 2.8639598098033  0.506727731325327 2.36662112542456  C 0.506727731325327 2.36662112542456  0.5 2.25000000000023  0.5 2.25000000000023  C 0.5 2.25000000000023  0.5 1.25000000000023  0.5 1.25000000000023  Z M 5.5 1.25000000000023  C 5.5 0.737164160871657  5.88604019019681 0.3144928393084  6.38337887457578 0.256727731325554  C 6.38337887457578 0.256727731325554  6.5 0.250000000000227  6.5 0.250000000000227  C 6.5 0.250000000000227  7.5 0.250000000000227  7.5 0.250000000000227  C 8.01283583912868 0.250000000000227  8.43550716069194 0.63604019019715  8.49327226867467 1.1333788745759  C 8.49327226867467 1.1333788745759  8.5 1.25000000000023  8.5 1.25000000000023  C 8.5 1.25000000000023  8.5 2.25000000000023  8.5 2.25000000000023  C 8.5 2.7628358391288  8.11395980980296 3.18550716069205  7.61662112542422 3.2432722686749  C 7.61662112542422 3.2432722686749  7.5 3.25000000000023  7.5 3.25000000000023  C 7.5 3.25000000000023  6.5 3.25000000000023  6.5 3.25000000000023  C 5.98716416087132 3.25000000000023  5.56449283930806 2.8639598098033  5.50672773132533 2.36662112542456  C 5.50672773132533 2.36662112542456  5.5 2.25000000000023  5.5 2.25000000000023  C 5.5 2.25000000000023  5.5 1.25000000000023  5.5 1.25000000000023  Z M 11.3833788745758 0.256727731325554  C 11.3833788745758 0.256727731325554  11.5 0.250000000000227  11.5 0.250000000000227  C 11.5 0.250000000000227  12.5 0.250000000000227  12.5 0.250000000000227  C 13.0128358391287 0.250000000000227  13.4355071606919 0.63604019019715  13.4932722686747 1.1333788745759  C 13.4932722686747 1.1333788745759  13.5 1.25000000000023  13.5 1.25000000000023  C 13.5 1.25000000000023  13.5 2.25000000000023  13.5 2.25000000000023  C 13.5 2.7628358391288  13.113959809803 3.18550716069205  12.6166211254242 3.2432722686749  C 12.6166211254242 3.2432722686749  12.5 3.25000000000023  12.5 3.25000000000023  C 12.5 3.25000000000023  11.5 3.25000000000023  11.5 3.25000000000023  C 10.9871641608713 3.25000000000023  10.5644928393081 2.8639598098033  10.5067277313253 2.36662112542456  C 10.5067277313253 2.36662112542456  10.5 2.25000000000023  10.5 2.25000000000023  C 10.5 2.25000000000023  10.5 1.25000000000023  10.5 1.25000000000023  C 10.5 0.737164160871657  10.8860401901968 0.3144928393084  11.3833788745758 0.256727731325554  Z " fill-rule="nonzero" fill="#ffffff" stroke="none" fill-opacity="0" transform="matrix(1 0 0 1 1463 1993 )" />
  </g>
</svg>