<?xml version="1.0" encoding="utf-8"?>
<svg version="1.1" xmlns:xlink="http://www.w3.org/1999/xlink" width="4px" height="7px" xmlns="http://www.w3.org/2000/svg">
  <g transform="matrix(1 0 0 1 -1405 -1520 )">
    <path d="M 0.0662027780990754 3.08092904582313  C 0.0772609231129606 3.06487787798113  0.0895001239341651 3.05007329529673  0.102769897950755 3.03669732209509  C 0.102769897950755 3.03669732209509  2.79823273143739 0.319662459137472  2.79823273143739 0.319662459137472  C 2.91940550727341 0.197519926768752  3.09949373660957 0.217323144023094  3.20047104980622 0.363894182865543  C 3.24324297088988 0.425978672024968  3.2666666666667 0.504236907949839  3.2666666666667 0.585052801505899  C 3.2666666666667 0.585052801505899  3.2666666666667 6.0191225274211  3.2666666666667 6.0191225274211  C 3.2666666666667 6.20991526219051  3.13879993622968 6.36458333333306  2.98106833069596 6.36458333333306  C 2.91425645413983 6.36458333333306  2.84955903673772 6.33624994408905  2.79823273143739 6.28451286978953  C 2.79823273143739 6.28451286978953  0.102769897950755 3.56747800683192  0.102769897950755 3.56747800683192  C -0.0184028778852663 3.44533547446322  -0.0347745350974875 3.22750008466561  0.0662027780990754 3.08092904582313  Z " fill-rule="nonzero" fill="#ffffff" stroke="none" fill-opacity="0" transform="matrix(1 0 0 1 1405 1520 )" />
  </g>
</svg>