<?xml version="1.0" encoding="utf-8"?>
<svg version="1.1" xmlns:xlink="http://www.w3.org/1999/xlink" width="14px" height="3px" xmlns="http://www.w3.org/2000/svg">
  <g transform="matrix(1 0 0 1 -1659 -1924 )">
    <path d="M 2.00000000000045 0.202380952381191  C 2.74666666666712 0.202380952381191  3.33333333333371 0.789047619047892  3.33333333333371 1.53571428571445  C 3.33333333333371 2.28238095238112  2.74666666666712 2.86904761904782  2.00000000000045 2.86904761904782  C 1.25333333333356 2.86904761904782  0.66666666666697 2.28238095238112  0.66666666666697 1.53571428571445  C 0.66666666666697 0.789047619047892  1.25333333333356 0.202380952381191  2.00000000000045 0.202380952381191  Z M 7.00000000000046 0.202380952381191  C 7.74666666666712 0.202380952381191  8.33333333333371 0.789047619047892  8.33333333333371 1.53571428571445  C 8.33333333333371 2.28238095238112  7.74666666666712 2.86904761904782  7.00000000000046 2.86904761904782  C 6.25333333333356 2.86904761904782  5.66666666666697 2.28238095238112  5.66666666666697 1.53571428571445  C 5.66666666666697 0.789047619047892  6.25333333333356 0.202380952381191  7.00000000000046 0.202380952381191  Z M 13.3333333333337 1.53571428571445  C 13.3333333333337 2.28238095238112  12.7466666666671 2.86904761904782  12.0000000000005 2.86904761904782  C 11.2533333333336 2.86904761904782  10.666666666667 2.28238095238112  10.666666666667 1.53571428571445  C 10.666666666667 0.789047619047892  11.2533333333336 0.202380952381191  12.0000000000005 0.202380952381191  C 12.7466666666671 0.202380952381191  13.3333333333337 0.789047619047892  13.3333333333337 1.53571428571445  Z " fill-rule="nonzero" fill="#237ffa" stroke="none" transform="matrix(1 0 0 1 1659 1924 )" />
  </g>
</svg>