<?xml version="1.0" encoding="utf-8"?>
<svg version="1.1" xmlns:xlink="http://www.w3.org/1999/xlink" width="14px" height="4px" xmlns="http://www.w3.org/2000/svg">
  <g transform="matrix(1 0 0 1 -1659 -1716 )">
    <path d="M 2.00000000000045 0.55952380952391  C 2.74666666666712 0.55952380952391  3.33333333333371 1.14619047619055  3.33333333333371 1.89285714285722  C 3.33333333333371 2.63952380952395  2.74666666666712 3.2261904761906  2.00000000000045 3.2261904761906  C 1.25333333333356 3.2261904761906  0.66666666666697 2.63952380952395  0.66666666666697 1.89285714285722  C 0.66666666666697 1.14619047619055  1.25333333333356 0.55952380952391  2.00000000000045 0.55952380952391  Z M 7.00000000000046 0.55952380952391  C 7.74666666666712 0.55952380952391  8.33333333333371 1.14619047619055  8.33333333333371 1.89285714285722  C 8.33333333333371 2.63952380952395  7.74666666666712 3.2261904761906  7.00000000000046 3.2261904761906  C 6.25333333333356 3.2261904761906  5.66666666666697 2.63952380952395  5.66666666666697 1.89285714285722  C 5.66666666666697 1.14619047619055  6.25333333333356 0.55952380952391  7.00000000000046 0.55952380952391  Z M 13.3333333333337 1.89285714285722  C 13.3333333333337 2.63952380952395  12.7466666666671 3.2261904761906  12.0000000000005 3.2261904761906  C 11.2533333333336 3.2261904761906  10.666666666667 2.63952380952395  10.666666666667 1.89285714285722  C 10.666666666667 1.14619047619055  11.2533333333336 0.55952380952391  12.0000000000005 0.55952380952391  C 12.7466666666671 0.55952380952391  13.3333333333337 1.14619047619055  13.3333333333337 1.89285714285722  Z " fill-rule="nonzero" fill="#237ffa" stroke="none" transform="matrix(1 0 0 1 1659 1716 )" />
  </g>
</svg>