<?xml version="1.0" encoding="utf-8"?>
<svg version="1.1" xmlns:xlink="http://www.w3.org/1999/xlink" width="14px" height="4px" xmlns="http://www.w3.org/2000/svg">
  <g transform="matrix(1 0 0 1 -729 -1889 )">
    <path d="M 1.99999999999989 0.666666666666686  C 2.74666666666656 0.666666666666686  3.3333333333332 1.25333333333333  3.3333333333332 2  C 3.3333333333332 2.74666666666673  2.74666666666656 3.33333333333337  1.99999999999989 3.33333333333337  C 1.25333333333316 3.33333333333337  0.666666666666515 2.74666666666673  0.666666666666515 2  C 0.666666666666515 1.25333333333333  1.25333333333316 0.666666666666686  1.99999999999989 0.666666666666686  Z M 6.99999999999989 0.666666666666686  C 7.74666666666656 0.666666666666686  8.3333333333332 1.25333333333333  8.3333333333332 2  C 8.3333333333332 2.74666666666673  7.74666666666656 3.33333333333337  6.99999999999989 3.33333333333337  C 6.25333333333316 3.33333333333337  5.66666666666652 2.74666666666673  5.66666666666652 2  C 5.66666666666652 1.25333333333333  6.25333333333316 0.666666666666686  6.99999999999989 0.666666666666686  Z M 13.3333333333332 2  C 13.3333333333332 2.74666666666673  12.7466666666666 3.33333333333337  11.9999999999999 3.33333333333337  C 11.2533333333332 3.33333333333337  10.6666666666665 2.74666666666673  10.6666666666665 2  C 10.6666666666665 1.25333333333333  11.2533333333332 0.666666666666686  11.9999999999999 0.666666666666686  C 12.7466666666666 0.666666666666686  13.3333333333332 1.25333333333333  13.3333333333332 2  Z " fill-rule="nonzero" fill="#ffffff" stroke="none" fill-opacity="0" transform="matrix(1 0 0 1 729 1889 )" />
  </g>
</svg>