<?xml version="1.0" encoding="utf-8"?>
<svg version="1.1" xmlns:xlink="http://www.w3.org/1999/xlink" width="14px" height="4px" xmlns="http://www.w3.org/2000/svg">
  <g transform="matrix(1 0 0 1 -1472 -1647 )">
    <path d="M 0.5 1.1785714285715  C 0.5 0.665735589442903  0.886040190196809 0.243064267879674  1.38337887457578 0.1852991598968  C 1.38337887457578 0.1852991598968  1.5 0.178571428571502  1.5 0.178571428571502  C 1.5 0.178571428571502  2.5 0.178571428571502  2.5 0.178571428571502  C 3.01283583912868 0.178571428571502  3.43550716069194 0.564611618768424  3.49327226867467 1.06195030314723  C 3.49327226867467 1.06195030314723  3.5 1.1785714285715  3.5 1.1785714285715  C 3.5 1.1785714285715  3.5 2.1785714285715  3.5 2.1785714285715  C 3.5 2.6914072677001  3.11395980980319 3.11407858926333  2.61662112542422 3.1718436972462  C 2.61662112542422 3.1718436972462  2.5 3.1785714285715  2.5 3.1785714285715  C 2.5 3.1785714285715  1.5 3.1785714285715  1.5 3.1785714285715  C 0.987164160871316 3.1785714285715  0.564492839308059 2.79253123837458  0.506727731325327 2.29519255399578  C 0.506727731325327 2.29519255399578  0.5 2.1785714285715  0.5 2.1785714285715  C 0.5 2.1785714285715  0.5 1.1785714285715  0.5 1.1785714285715  Z M 5.5 1.1785714285715  C 5.5 0.665735589442903  5.88604019019681 0.243064267879674  6.38337887457578 0.1852991598968  C 6.38337887457578 0.1852991598968  6.5 0.178571428571502  6.5 0.178571428571502  C 6.5 0.178571428571502  7.5 0.178571428571502  7.5 0.178571428571502  C 8.01283583912868 0.178571428571502  8.43550716069194 0.564611618768424  8.49327226867467 1.06195030314723  C 8.49327226867467 1.06195030314723  8.5 1.1785714285715  8.5 1.1785714285715  C 8.5 1.1785714285715  8.5 2.1785714285715  8.5 2.1785714285715  C 8.5 2.6914072677001  8.11395980980296 3.11407858926333  7.61662112542422 3.1718436972462  C 7.61662112542422 3.1718436972462  7.5 3.1785714285715  7.5 3.1785714285715  C 7.5 3.1785714285715  6.5 3.1785714285715  6.5 3.1785714285715  C 5.98716416087132 3.1785714285715  5.56449283930806 2.79253123837458  5.50672773132533 2.29519255399578  C 5.50672773132533 2.29519255399578  5.5 2.1785714285715  5.5 2.1785714285715  C 5.5 2.1785714285715  5.5 1.1785714285715  5.5 1.1785714285715  Z M 11.3833788745758 0.1852991598968  C 11.3833788745758 0.1852991598968  11.5 0.178571428571502  11.5 0.178571428571502  C 11.5 0.178571428571502  12.5 0.178571428571502  12.5 0.178571428571502  C 13.0128358391287 0.178571428571502  13.4355071606919 0.564611618768424  13.4932722686747 1.06195030314723  C 13.4932722686747 1.06195030314723  13.5 1.1785714285715  13.5 1.1785714285715  C 13.5 1.1785714285715  13.5 2.1785714285715  13.5 2.1785714285715  C 13.5 2.6914072677001  13.113959809803 3.11407858926333  12.6166211254242 3.1718436972462  C 12.6166211254242 3.1718436972462  12.5 3.1785714285715  12.5 3.1785714285715  C 12.5 3.1785714285715  11.5 3.1785714285715  11.5 3.1785714285715  C 10.9871641608713 3.1785714285715  10.5644928393081 2.79253123837458  10.5067277313253 2.29519255399578  C 10.5067277313253 2.29519255399578  10.5 2.1785714285715  10.5 2.1785714285715  C 10.5 2.1785714285715  10.5 1.1785714285715  10.5 1.1785714285715  C 10.5 0.665735589442903  10.8860401901968 0.243064267879674  11.3833788745758 0.1852991598968  Z " fill-rule="nonzero" fill="#ffffff" stroke="none" fill-opacity="0" transform="matrix(1 0 0 1 1472 1647 )" />
  </g>
</svg>