<?xml version="1.0" encoding="utf-8"?>
<svg version="1.1" xmlns:xlink="http://www.w3.org/1999/xlink" width="14px" height="4px" xmlns="http://www.w3.org/2000/svg">
  <g transform="matrix(1 0 0 1 -1513 -1785 )">
    <path d="M 0.5 1.60714285714289  C 0.5 1.09430701801432  0.886040190196809 0.671635696451062  1.38337887457578 0.61387058846816  C 1.38337887457578 0.61387058846816  1.5 0.60714285714289  1.5 0.60714285714289  C 1.5 0.60714285714289  2.5 0.60714285714289  2.5 0.60714285714289  C 3.01283583912868 0.60714285714289  3.43550716069194 0.993183047339812  3.49327226867467 1.49052173171862  C 3.49327226867467 1.49052173171862  3.5 1.60714285714289  3.5 1.60714285714289  C 3.5 1.60714285714289  3.5 2.60714285714289  3.5 2.60714285714289  C 3.5 3.11997869627146  3.11395980980319 3.54265001783472  2.61662112542422 3.60041512581762  C 2.61662112542422 3.60041512581762  2.5 3.60714285714289  2.5 3.60714285714289  C 2.5 3.60714285714289  1.5 3.60714285714289  1.5 3.60714285714289  C 0.987164160871316 3.60714285714289  0.564492839308059 3.22110266694597  0.506727731325327 2.72376398256716  C 0.506727731325327 2.72376398256716  0.5 2.60714285714289  0.5 2.60714285714289  C 0.5 2.60714285714289  0.5 1.60714285714289  0.5 1.60714285714289  Z M 5.5 1.60714285714289  C 5.5 1.09430701801432  5.88604019019681 0.671635696451062  6.38337887457578 0.61387058846816  C 6.38337887457578 0.61387058846816  6.5 0.60714285714289  6.5 0.60714285714289  C 6.5 0.60714285714289  7.5 0.60714285714289  7.5 0.60714285714289  C 8.01283583912868 0.60714285714289  8.43550716069194 0.993183047339812  8.49327226867467 1.49052173171862  C 8.49327226867467 1.49052173171862  8.5 1.60714285714289  8.5 1.60714285714289  C 8.5 1.60714285714289  8.5 2.60714285714289  8.5 2.60714285714289  C 8.5 3.11997869627146  8.11395980980296 3.54265001783472  7.61662112542422 3.60041512581762  C 7.61662112542422 3.60041512581762  7.5 3.60714285714289  7.5 3.60714285714289  C 7.5 3.60714285714289  6.5 3.60714285714289  6.5 3.60714285714289  C 5.98716416087132 3.60714285714289  5.56449283930806 3.22110266694597  5.50672773132533 2.72376398256716  C 5.50672773132533 2.72376398256716  5.5 2.60714285714289  5.5 2.60714285714289  C 5.5 2.60714285714289  5.5 1.60714285714289  5.5 1.60714285714289  Z M 11.3833788745758 0.61387058846816  C 11.3833788745758 0.61387058846816  11.5 0.60714285714289  11.5 0.60714285714289  C 11.5 0.60714285714289  12.5 0.60714285714289  12.5 0.60714285714289  C 13.0128358391287 0.60714285714289  13.4355071606919 0.993183047339812  13.4932722686747 1.49052173171862  C 13.4932722686747 1.49052173171862  13.5 1.60714285714289  13.5 1.60714285714289  C 13.5 1.60714285714289  13.5 2.60714285714289  13.5 2.60714285714289  C 13.5 3.11997869627146  13.113959809803 3.54265001783472  12.6166211254242 3.60041512581762  C 12.6166211254242 3.60041512581762  12.5 3.60714285714289  12.5 3.60714285714289  C 12.5 3.60714285714289  11.5 3.60714285714289  11.5 3.60714285714289  C 10.9871641608713 3.60714285714289  10.5644928393081 3.22110266694597  10.5067277313253 2.72376398256716  C 10.5067277313253 2.72376398256716  10.5 2.60714285714289  10.5 2.60714285714289  C 10.5 2.60714285714289  10.5 1.60714285714289  10.5 1.60714285714289  C 10.5 1.09430701801432  10.8860401901968 0.671635696451062  11.3833788745758 0.61387058846816  Z " fill-rule="nonzero" fill="#ffffff" stroke="none" fill-opacity="0" transform="matrix(1 0 0 1 1513 1785 )" />
  </g>
</svg>