<?xml version="1.0" encoding="utf-8"?>
<svg version="1.1" xmlns:xlink="http://www.w3.org/1999/xlink" width="14px" height="4px" xmlns="http://www.w3.org/2000/svg">
  <g transform="matrix(1 0 0 1 -1659 -2131 )">
    <path d="M 2.00000000000045 0.845238095238187  C 2.74666666666712 0.845238095238187  3.33333333333371 1.43190476190489  3.33333333333371 2.17857142857156  C 3.33333333333371 2.92523809523811  2.74666666666712 3.51190476190482  2.00000000000045 3.51190476190482  C 1.25333333333356 3.51190476190482  0.66666666666697 2.92523809523811  0.66666666666697 2.17857142857156  C 0.66666666666697 1.43190476190489  1.25333333333356 0.845238095238187  2.00000000000045 0.845238095238187  Z M 7.00000000000046 0.845238095238187  C 7.74666666666712 0.845238095238187  8.33333333333371 1.43190476190489  8.33333333333371 2.17857142857156  C 8.33333333333371 2.92523809523811  7.74666666666712 3.51190476190482  7.00000000000046 3.51190476190482  C 6.25333333333356 3.51190476190482  5.66666666666697 2.92523809523811  5.66666666666697 2.17857142857156  C 5.66666666666697 1.43190476190489  6.25333333333356 0.845238095238187  7.00000000000046 0.845238095238187  Z M 13.3333333333337 2.17857142857156  C 13.3333333333337 2.92523809523811  12.7466666666671 3.51190476190482  12.0000000000005 3.51190476190482  C 11.2533333333336 3.51190476190482  10.666666666667 2.92523809523811  10.666666666667 2.17857142857156  C 10.666666666667 1.43190476190489  11.2533333333336 0.845238095238187  12.0000000000005 0.845238095238187  C 12.7466666666671 0.845238095238187  13.3333333333337 1.43190476190489  13.3333333333337 2.17857142857156  Z " fill-rule="nonzero" fill="#237ffa" stroke="none" transform="matrix(1 0 0 1 1659 2131 )" />
  </g>
</svg>