<?xml version="1.0" encoding="utf-8"?>
<svg version="1.1" xmlns:xlink="http://www.w3.org/1999/xlink" width="6px" height="9px" xmlns="http://www.w3.org/2000/svg">
  <g transform="matrix(1 0 0 1 -551 -1608 )">
    <path d="M 5.28438045675274 4.75257139350668  C 5.26778650500637 4.77580292595164  5.24942025030578 4.79723022310233  5.22950750821008 4.81658983347313  C 5.22950750821008 4.81658983347313  1.18467176614493 8.74906902714758  1.18467176614493 8.74906902714758  C 1.00283881019472 8.92585106765472  0.732596795467414 8.89718903578969  0.581069332175584 8.68505058718114  C 0.516885403164841 8.59519308656604  0.481735594860165 8.48192663985833  0.481735594860165 8.36495838734891  C 0.481735594860165 8.36495838734891  0.481735594860165 0.5  0.481735594860165 0.5  C 0.481735594860165 0.223857625084605  0.673613559218373 0  0.910307023431593 0  C 1.01056552558258 0  1.10765105133204 0.0410081096887609  1.18467176614493 0.115889360201322  C 1.18467176614493 0.115889360201322  5.22950750821008 4.04836855387575  5.22950750821008 4.04836855387575  C 5.41134046416029 4.22515059438288  5.43590792004462 4.54043294489813  5.28438045675274 4.75257139350668  Z " fill-rule="nonzero" fill="#ffffff" stroke="none" fill-opacity="0" transform="matrix(1 0 0 1 551 1608 )" />
  </g>
</svg>