<?xml version="1.0" encoding="utf-8"?>
<svg version="1.1" xmlns:xlink="http://www.w3.org/1999/xlink" width="14px" height="15px" xmlns="http://www.w3.org/2000/svg">
  <g transform="matrix(1 0 0 1 -1636 -1270 )">
    <path d="M 0 12.5  C 0 12.5  0 6.66666666666666  0 6.66666666666666  C 0 2.98476833446138  2.98476833446125 0  6.66666666666652 0  C 10.348564998872 0  13.3333333333333 2.98476833446137  13.3333333333333 6.66666666666666  C 13.3333333333333 6.66666666666666  13.3333333333333 12.5  13.3333333333333 12.5  C 13.3333333333333 13.880711874577  12.2140452079102 15  10.8333333333333 15  C 10.8333333333333 15  2.5 15  2.5 15  C 1.11928812542305 15  0 13.880711874577  0 12.5  Z M 11.6643809431539 12.562192643691  C 11.6643809431539 12.562192643691  11.666666666667 6.66666666666667  11.666666666667 6.66666666666667  C 11.666666666667 3.9052429175127  9.42809041582086 1.66666666666667  6.66666666666697 1.66666666666667  C 3.94772635980758 1.66666666666667  1.73566968681098 3.83689348878865  1.66824994073227 6.53959383997717  C 1.66824994073227 6.53959383997717  1.66666666666697 6.66666666666667  1.66666666666697 6.66666666666667  C 1.66666666666697 6.66666666666667  1.66666666666697 12.5  1.66666666666697 12.5  C 1.66666666666697 12.9393174146381  2.00661574608262 13.2992354674464  2.43780735630935 13.3310476098203  C 2.43780735630935 13.3310476098203  10.8333333333337 13.3333333333333  10.8333333333337 13.3333333333333  C 11.2726507479717 13.3333333333333  11.6325688007801 12.9933842539177  11.6643809431539 12.562192643691  Z " fill-rule="nonzero" fill="#5f6a7a" stroke="none" transform="matrix(1 0 0 1 1636 1270 )" />
  </g>
</svg>