<?xml version="1.0" encoding="utf-8"?>
<svg version="1.1" xmlns:xlink="http://www.w3.org/1999/xlink" width="10px" height="10px" xmlns="http://www.w3.org/2000/svg">
  <g transform="matrix(1 0 0 1 -1341 -465 )">
    <path d="M 1346 466  C 1348.24 466  1350 467.76  1350 470  C 1350 472.24  1348.24 474  1346 474  C 1343.76 474  1342 472.24  1342 470  C 1342 467.76  1343.76 466  1346 466  Z " fill-rule="nonzero" fill="#ffffff" stroke="none" />
    <path d="M 1346 466  C 1348.24 466  1350 467.76  1350 470  C 1350 472.24  1348.24 474  1346 474  C 1343.76 474  1342 472.24  1342 470  C 1342 467.76  1343.76 466  1346 466  Z " stroke-width="2" stroke="#409eff" fill="none" />
  </g>
</svg>