<?xml version="1.0" encoding="utf-8"?>
<svg version="1.1" xmlns:xlink="http://www.w3.org/1999/xlink" width="80px" height="22px" xmlns="http://www.w3.org/2000/svg">
  <g transform="matrix(1 0 0 1 -1376 -683 )">
    <path d="M 1376.5 687  A 3.5 3.5 0 0 1 1380 683.5 L 1452 683.5  A 3.5 3.5 0 0 1 1455.5 687 L 1455.5 701  A 3.5 3.5 0 0 1 1452 704.5 L 1380 704.5  A 3.5 3.5 0 0 1 1376.5 701 L 1376.5 687  Z " fill-rule="nonzero" fill="#0099ff" stroke="none" fill-opacity="0.0980392156862745" />
    <path d="M 1376.5 687  A 3.5 3.5 0 0 1 1380 683.5 L 1452 683.5  A 3.5 3.5 0 0 1 1455.5 687 L 1455.5 701  A 3.5 3.5 0 0 1 1452 704.5 L 1380 704.5  A 3.5 3.5 0 0 1 1376.5 701 L 1376.5 687  Z " stroke-width="1" stroke="#a7d2f9" fill="none" />
  </g>
</svg>