<?xml version="1.0" encoding="utf-8"?>
<svg version="1.1" xmlns:xlink="http://www.w3.org/1999/xlink" width="60px" height="22px" xmlns="http://www.w3.org/2000/svg">
  <g transform="matrix(1 0 0 1 -1435 -641 )">
    <path d="M 1435.5 645  A 3.5 3.5 0 0 1 1439 641.5 L 1491 641.5  A 3.5 3.5 0 0 1 1494.5 645 L 1494.5 659  A 3.5 3.5 0 0 1 1491 662.5 L 1439 662.5  A 3.5 3.5 0 0 1 1435.5 659 L 1435.5 645  Z " fill-rule="nonzero" fill="#0099ff" stroke="none" fill-opacity="0.0980392156862745" />
    <path d="M 1435.5 645  A 3.5 3.5 0 0 1 1439 641.5 L 1491 641.5  A 3.5 3.5 0 0 1 1494.5 645 L 1494.5 659  A 3.5 3.5 0 0 1 1491 662.5 L 1439 662.5  A 3.5 3.5 0 0 1 1435.5 659 L 1435.5 645  Z " stroke-width="1" stroke="#a7d2f9" fill="none" />
  </g>
</svg>