<?xml version="1.0" encoding="utf-8"?>
<svg version="1.1" xmlns:xlink="http://www.w3.org/1999/xlink" width="392px" height="127px" xmlns="http://www.w3.org/2000/svg">
  <g transform="matrix(1 0 0 1 -1721 -846 )">
    <path d="M 1722 850  A 3 3 0 0 1 1725 847 L 2109 847  A 3 3 0 0 1 2112 850 L 2112 969  A 3 3 0 0 1 2109 972 L 1725 972  A 3 3 0 0 1 1722 969 L 1722 850  Z " fill-rule="nonzero" fill="#ff3399" stroke="none" fill-opacity="0.0980392156862745" />
    <path d="M 1721.5 850  A 3.5 3.5 0 0 1 1725 846.5 L 2109 846.5  A 3.5 3.5 0 0 1 2112.5 850 L 2112.5 969  A 3.5 3.5 0 0 1 2109 972.5 L 1725 972.5  A 3.5 3.5 0 0 1 1721.5 969 L 1721.5 850  Z " stroke-width="1" stroke-dasharray="9,4" stroke="#ff3399" fill="none" stroke-dashoffset="0.5" />
  </g>
</svg>