<?xml version="1.0" encoding="utf-8"?>
<svg version="1.1" xmlns:xlink="http://www.w3.org/1999/xlink" width="328px" height="127px" xmlns="http://www.w3.org/2000/svg">
  <g transform="matrix(1 0 0 1 -1618 -546 )">
    <path d="M 1619 550  A 3 3 0 0 1 1622 547 L 1942 547  A 3 3 0 0 1 1945 550 L 1945 669  A 3 3 0 0 1 1942 672 L 1622 672  A 3 3 0 0 1 1619 669 L 1619 550  Z " fill-rule="nonzero" fill="#ff3399" stroke="none" fill-opacity="0.0980392156862745" />
    <path d="M 1618.5 550  A 3.5 3.5 0 0 1 1622 546.5 L 1942 546.5  A 3.5 3.5 0 0 1 1945.5 550 L 1945.5 669  A 3.5 3.5 0 0 1 1942 672.5 L 1622 672.5  A 3.5 3.5 0 0 1 1618.5 669 L 1618.5 550  Z " stroke-width="1" stroke-dasharray="9,4" stroke="#ff3399" fill="none" stroke-dashoffset="0.5" />
  </g>
</svg>