<?xml version="1.0" encoding="utf-8"?>
<svg version="1.1" xmlns:xlink="http://www.w3.org/1999/xlink" width="316px" height="107px" xmlns="http://www.w3.org/2000/svg">
  <g transform="matrix(1 0 0 1 -1416 -264 )">
    <path d="M 1417 268  A 3 3 0 0 1 1420 265 L 1728 265  A 3 3 0 0 1 1731 268 L 1731 367  A 3 3 0 0 1 1728 370 L 1420 370  A 3 3 0 0 1 1417 367 L 1417 268  Z " fill-rule="nonzero" fill="#ff3399" stroke="none" fill-opacity="0.0980392156862745" />
    <path d="M 1416.5 268  A 3.5 3.5 0 0 1 1420 264.5 L 1728 264.5  A 3.5 3.5 0 0 1 1731.5 268 L 1731.5 367  A 3.5 3.5 0 0 1 1728 370.5 L 1420 370.5  A 3.5 3.5 0 0 1 1416.5 367 L 1416.5 268  Z " stroke-width="1" stroke-dasharray="9,4" stroke="#ff3399" fill="none" stroke-dashoffset="0.5" />
  </g>
</svg>