<?xml version="1.0" encoding="utf-8"?>
<svg version="1.1" xmlns:xlink="http://www.w3.org/1999/xlink" width="943px" height="42px" xmlns="http://www.w3.org/2000/svg">
  <g transform="matrix(1 0 0 1 -471 -486 )">
    <path d="M 472 492  A 5 5 0 0 1 477 487 L 1408 487  A 5 5 0 0 1 1413 492 L 1413 522  A 5 5 0 0 1 1408 527 L 477 527  A 5 5 0 0 1 472 522 L 472 492  Z " fill-rule="nonzero" fill="#ffffff" stroke="none" />
    <path d="M 471.5 492  A 5.5 5.5 0 0 1 477 486.5 L 1408 486.5  A 5.5 5.5 0 0 1 1413.5 492 L 1413.5 522  A 5.5 5.5 0 0 1 1408 527.5 L 477 527.5  A 5.5 5.5 0 0 1 471.5 522 L 471.5 492  Z " stroke-width="1" stroke="#d7d7d7" fill="none" stroke-opacity="0.780392156862745" />
  </g>
</svg>