<?xml version="1.0" encoding="utf-8"?>
<svg version="1.1" xmlns:xlink="http://www.w3.org/1999/xlink" width="12px" height="12px" xmlns="http://www.w3.org/2000/svg">
  <g transform="matrix(1 0 0 1 -559 -1441 )">
    <path d="M 6.33333333333314 12  C 3.20371975113315 12  0.666666666666487 9.46294691553335  0.666666666666487 6.33333333333337  C 0.666666666666487 3.20371975113339  3.20371975113315 0.666666666666735  6.33333333333314 0.666666666666735  C 9.46294691553317 0.666666666666735  11.9999999999998 3.20371975113339  11.9999999999998 6.33333333333337  C 11.9999999999998 9.46294691553335  9.46294691553317 12  6.33333333333314 12  Z M 6.3333333333332 10.6666666666667  C 8.72656724909214 10.6666666666667  10.6666666666665 8.7265672490923  10.6666666666665 6.33333333333338  C 10.6666666666665 3.94009941757445  8.72656724909214 2.00000000000007  6.3333333333332 2.00000000000007  C 3.94009941757429 2.00000000000007  1.99999999999989 3.94009941757444  1.99999999999989 6.33333333333338  C 1.99999999999989 8.7265672490923  3.94009941757426 10.6666666666667  6.3333333333332 10.6666666666667  Z " fill-rule="nonzero" fill="#929aa6" stroke="none" transform="matrix(1 0 0 1 559 1441 )" />
  </g>
</svg>