<?xml version="1.0" encoding="utf-8"?>
<svg version="1.1" xmlns:xlink="http://www.w3.org/1999/xlink" width="14px" height="4px" xmlns="http://www.w3.org/2000/svg">
  <g transform="matrix(1 0 0 1 -1659 -1993 )">
    <path d="M 2.00000000000045 0.41666666666697  C 2.74666666666712 0.41666666666697  3.33333333333371 1.00333333333367  3.33333333333371 1.75000000000023  C 3.33333333333371 2.4966666666669  2.74666666666712 3.0833333333336  2.00000000000045 3.0833333333336  C 1.25333333333356 3.0833333333336  0.66666666666697 2.4966666666669  0.66666666666697 1.75000000000023  C 0.66666666666697 1.00333333333367  1.25333333333356 0.41666666666697  2.00000000000045 0.41666666666697  Z M 7.00000000000046 0.41666666666697  C 7.74666666666712 0.41666666666697  8.33333333333371 1.00333333333367  8.33333333333371 1.75000000000023  C 8.33333333333371 2.4966666666669  7.74666666666712 3.0833333333336  7.00000000000046 3.0833333333336  C 6.25333333333356 3.0833333333336  5.66666666666697 2.4966666666669  5.66666666666697 1.75000000000023  C 5.66666666666697 1.00333333333367  6.25333333333356 0.41666666666697  7.00000000000046 0.41666666666697  Z M 13.3333333333337 1.75000000000023  C 13.3333333333337 2.4966666666669  12.7466666666671 3.0833333333336  12.0000000000005 3.0833333333336  C 11.2533333333336 3.0833333333336  10.666666666667 2.4966666666669  10.666666666667 1.75000000000023  C 10.666666666667 1.00333333333367  11.2533333333336 0.41666666666697  12.0000000000005 0.41666666666697  C 12.7466666666671 0.41666666666697  13.3333333333337 1.00333333333367  13.3333333333337 1.75000000000023  Z " fill-rule="nonzero" fill="#237ffa" stroke="none" transform="matrix(1 0 0 1 1659 1993 )" />
  </g>
</svg>