<?xml version="1.0" encoding="utf-8"?>
<svg version="1.1" xmlns:xlink="http://www.w3.org/1999/xlink" width="13px" height="17px" xmlns="http://www.w3.org/2000/svg">
  <defs>
    <filter x="1552px" y="2111px" width="13px" height="17px" filterUnits="userSpaceOnUse" id="filter70">
      <feOffset dx="0" dy="-2" in="SourceAlpha" result="shadowOffsetInner" />
      <feGaussianBlur stdDeviation="2" in="shadowOffsetInner" result="shadowGaussian" />
      <feComposite in2="shadowGaussian" operator="atop" in="SourceAlpha" result="shadowComposite" />
      <feColorMatrix type="matrix" values="0 0 0 0 0.12156862745098  0 0 0 0 0.152941176470588  0 0 0 0 0.2  0 0 0 0.101960784313725 0  " in="shadowComposite" />
    </filter>
    <g id="widget71">
      <path d="M 0.162718454896381 5.22426406870477  C 0.162718454896381 5.22426406870477  3.49605178822932 8.82426406870579  3.49605178822932 8.82426406870579  C 3.71300972809119 9.05857864375662  4.06476804968615 9.05857864375662  4.28172598954803 8.82426406870579  C 4.48726509046973 8.60228183971035  4.49808293788654 8.24963659249745  4.31417953179865 8.01390036158464  C 4.31417953179865 8.01390036158464  4.28172598954803 7.97573593128118  4.28172598954803 7.97573593128118  L 1.34138888888895 4.79999999999297  C 1.34138888888895 4.79999999999297  4.28172598954746 1.62426406870497  4.28172598954746 1.62426406870497  C 4.48726509046916 1.40228183970953  4.49808293788616 1.04963659249765  4.31417953179827 0.813900361584638  C 4.31417953179827 0.813900361584638  4.28172598954746 0.775735931280769  4.28172598954746 0.775735931280769  C 4.07618688862575 0.55375370228553  3.74966351157886 0.542070427074759  3.53138922369643 0.740686105649684  C 3.53138922369643 0.740686105649684  3.49605178822951 0.775735931280769  3.49605178822951 0.775735931280769  C 3.49605178822951 0.775735931280769  0.162718454896381 4.37573593128097  0.162718454896381 4.37573593128097  C -0.042820646025325 4.59771816027642  -0.0536384934423267 4.95036340748788  0.130264912645566 5.1860996384009  C 0.130264912645566 5.1860996384009  0.162718454896381 5.22426406870477  0.162718454896381 5.22426406870477  Z " fill-rule="nonzero" fill="#929aa6" stroke="none" transform="matrix(1 0 0 1 1556 2117 )" />
    </g>
  </defs>
  <g transform="matrix(1 0 0 1 -1552 -2111 )">
    <use xlink:href="#widget71" filter="url(#filter70)" />
    <use xlink:href="#widget71" />
  </g>
</svg>