<?xml version="1.0" encoding="utf-8"?>
<svg version="1.1" xmlns:xlink="http://www.w3.org/1999/xlink" width="14px" height="12px" xmlns="http://www.w3.org/2000/svg">
  <g transform="matrix(1 0 0 1 -311 -2146 )">
    <path d="M 1 11.6666666666665  C 1 11.6666666666665  13 11.6666666666665  13 11.6666666666665  C 13.3681898332202 11.6666666666665  13.6666666666665 11.3681898332203  13.6666666666665 10.9999999999998  C 13.6666666666665 10.6318101667792  13.3681898332202 10.3333333333331  13 10.3333333333331  C 13 10.3333333333331  1 10.3333333333331  1 10.3333333333331  C 0.63181016677936 10.3333333333331  0.33333333333303 10.6318101667792  0.33333333333303 10.9999999999998  C 0.33333333333303 11.3681898332203  0.63181016677936 11.6666666666665  1 11.6666666666665  Z M 3.54496588322536 7.28247752627772  C 3.54496588322536 7.28247752627772  3.47140452079066 7.195262145843  3.47140452079066 7.195262145843  L 2.27633333333279 5.9999999999676  L 3.47140452079066 4.80473785409174  C 3.69208860809613 4.54280870863295  3.71805144189693 4.10857573361523  3.47140452079066 3.86192881250906  C 3.23708994574008 3.62761423745837  2.87174939964507 3.60418277995325  2.61122963038542 3.79163443999391  C 2.61122963038542 3.79163443999391  2.52859547920889 3.86192881250906  2.52859547920889 3.86192881250906  L 0.861928812541919 5.52859547917649  C 0.665765179381197 5.76142138625096  0.615281891435188 6.13928838931633  0.788367450107216 6.38418914032388  C 0.788367450107216 6.38418914032388  0.861928812541919 6.4714045207586  0.861928812541919 6.4714045207586  L 2.52859547920798 8.13807118742568  C 2.76142138628256 8.33423482058595  3.13928838934862 8.38471810853173  3.38418914035583 8.21163254986084  C 3.38418914035583 8.21163254986084  3.47140452079066 8.13807118742568  3.47140452079066 8.13807118742568  C 3.66756815395092 7.90524528035121  3.71805144189693 7.52737827728515  3.54496588322536 7.28247752627772  Z M 13.333333333333 5.99999999997203  C 13.333333333333 5.66528196977151  13.0866582643698 5.38817798897139  12.7651817805904 5.34056171172017  C 12.7651817805904 5.34056171172017  12.6666666666665 5.3333333333054  12.6666666666665 5.3333333333054  C 12.6666666666665 5.3333333333054  7.66666666666652 5.3333333333054  7.66666666666652 5.3333333333054  C 7.29847683344587 5.3333333333054  7 5.63181016675151  7 5.99999999997203  C 7 6.33471803017255  7.24667506896367 6.61182201097267  7.56815155274262 6.6594382882239  C 7.56815155274262 6.6594382882239  7.66666666666652 6.66666666663866  7.66666666666652 6.66666666663866  C 7.66666666666652 6.66666666663866  12.6666666666665 6.66666666663866  12.6666666666665 6.66666666663866  C 13.0348564998872 6.66666666663866  13.333333333333 6.36818983319256  13.333333333333 5.99999999997203  Z M 13.6666666666665 0.999999999999773  C 13.6666666666665 0.631810166779246  13.3681898332202 0.333333333333144  13 0.333333333333144  C 13 0.333333333333144  1 0.333333333333144  1 0.333333333333144  C 0.63181016677936 0.333333333333144  0.33333333333303 0.631810166779246  0.33333333333303 0.999999999999773  C 0.33333333333303 1.3681898332203  0.63181016677936 1.66666666666652  1 1.66666666666652  C 1 1.66666666666652  13 1.66666666666652  13 1.66666666666652  C 13.3681898332202 1.66666666666652  13.6666666666665 1.3681898332203  13.6666666666665 0.999999999999773  Z " fill-rule="nonzero" fill="#5f6a7a" stroke="none" transform="matrix(1 0 0 1 311 2146 )" />
  </g>
</svg>