<?xml version="1.0" encoding="utf-8"?>
<svg version="1.1" xmlns:xlink="http://www.w3.org/1999/xlink" width="14px" height="4px" xmlns="http://www.w3.org/2000/svg">
  <g transform="matrix(1 0 0 1 -1659 -1854 )">
    <path d="M 2.00000000000045 0.988095238095411  C 2.74666666666712 0.988095238095411  3.33333333333371 1.57476190476206  3.33333333333371 2.32142857142878  C 3.33333333333371 3.06809523809545  2.74666666666712 3.6547619047621  2.00000000000045 3.6547619047621  C 1.25333333333356 3.6547619047621  0.66666666666697 3.06809523809545  0.66666666666697 2.32142857142878  C 0.66666666666697 1.57476190476206  1.25333333333356 0.988095238095411  2.00000000000045 0.988095238095411  Z M 7.00000000000046 0.988095238095411  C 7.74666666666712 0.988095238095411  8.33333333333371 1.57476190476206  8.33333333333371 2.32142857142878  C 8.33333333333371 3.06809523809545  7.74666666666712 3.6547619047621  7.00000000000046 3.6547619047621  C 6.25333333333356 3.6547619047621  5.66666666666697 3.06809523809545  5.66666666666697 2.32142857142878  C 5.66666666666697 1.57476190476206  6.25333333333356 0.988095238095411  7.00000000000046 0.988095238095411  Z M 13.3333333333337 2.32142857142878  C 13.3333333333337 3.06809523809545  12.7466666666671 3.6547619047621  12.0000000000005 3.6547619047621  C 11.2533333333336 3.6547619047621  10.666666666667 3.06809523809545  10.666666666667 2.32142857142878  C 10.666666666667 1.57476190476206  11.2533333333336 0.988095238095411  12.0000000000005 0.988095238095411  C 12.7466666666671 0.988095238095411  13.3333333333337 1.57476190476206  13.3333333333337 2.32142857142878  Z " fill-rule="nonzero" fill="#237ffa" stroke="none" transform="matrix(1 0 0 1 1659 1854 )" />
  </g>
</svg>