<?xml version="1.0" encoding="utf-8"?>
<svg version="1.1" xmlns:xlink="http://www.w3.org/1999/xlink" width="14px" height="4px" xmlns="http://www.w3.org/2000/svg">
  <g transform="matrix(1 0 0 1 -1659 -1647 )">
    <path d="M 2.00000000000045 0.345238095238301  C 2.74666666666712 0.345238095238301  3.33333333333371 0.931904761904974  3.33333333333371 1.67857142857162  C 3.33333333333371 2.42523809523829  2.74666666666712 3.01190476190496  2.00000000000045 3.01190476190496  C 1.25333333333356 3.01190476190496  0.66666666666697 2.42523809523829  0.66666666666697 1.67857142857162  C 0.66666666666697 0.931904761904974  1.25333333333356 0.345238095238301  2.00000000000045 0.345238095238301  Z M 7.00000000000046 0.345238095238301  C 7.74666666666712 0.345238095238301  8.33333333333371 0.931904761904974  8.33333333333371 1.67857142857162  C 8.33333333333371 2.42523809523829  7.74666666666712 3.01190476190496  7.00000000000046 3.01190476190496  C 6.25333333333356 3.01190476190496  5.66666666666697 2.42523809523829  5.66666666666697 1.67857142857162  C 5.66666666666697 0.931904761904974  6.25333333333356 0.345238095238301  7.00000000000046 0.345238095238301  Z M 13.3333333333337 1.67857142857162  C 13.3333333333337 2.42523809523829  12.7466666666671 3.01190476190496  12.0000000000005 3.01190476190496  C 11.2533333333336 3.01190476190496  10.666666666667 2.42523809523829  10.666666666667 1.67857142857162  C 10.666666666667 0.931904761904974  11.2533333333336 0.345238095238301  12.0000000000005 0.345238095238301  C 12.7466666666671 0.345238095238301  13.3333333333337 0.931904761904974  13.3333333333337 1.67857142857162  Z " fill-rule="nonzero" fill="#237ffa" stroke="none" transform="matrix(1 0 0 1 1659 1647 )" />
  </g>
</svg>