<?xml version="1.0" encoding="utf-8"?>
<svg version="1.1" xmlns:xlink="http://www.w3.org/1999/xlink" width="12px" height="12px" xmlns="http://www.w3.org/2000/svg">
  <g transform="matrix(1 0 0 1 -898 -1273 )">
    <path d="M 6.68045789339351 0.862361701932524  L 6.68045981600085 5.34721018678101  L 11.165306378242 5.34721018678101  C 11.4537912267268 5.34721018678101  11.6804578933935 5.64054352011434  11.6804578933935 6.01387685344768  C 11.6804578933935 6.38721018678101  11.4537912267268 6.68054352011434  11.165306378242 6.68054352011434  L 6.68045789339351 6.68054352030128  L 6.68045789339351 11.1653920049628  C 6.68045789339351 11.4538768534477  6.38712456006016 11.6805435201144  6.01379122672677 11.6805435201144  C 5.64045789339337 11.6805435201144  5.34712456006002 11.4538768534477  5.34712456006002 11.1653920049628  L 5.34712263745269 6.68054352011434  L 0.862276075211696 6.68054352011434  C 0.573791226726883 6.68054352011434  0.347124560060195 6.38721018678101  0.347124560060195 6.01387685344768  C 0.347124560060195 5.64054352011434  0.573791226726883 5.34721018678101  0.862276075211696 5.34721018678101  L 5.34712456006002 5.34721018659408  L 5.34712456006002 0.862361701932524  C 5.34712456006002 0.573876853447675  5.64045789339337 0.347210186781009  6.01379122672677 0.347210186781009  C 6.38712456006016 0.347210186781009  6.68045789339351 0.573876853447675  6.68045789339351 0.862361701932524  Z " fill-rule="nonzero" fill="#ffffff" stroke="none" fill-opacity="0" transform="matrix(1 0 0 1 898 1273 )" />
  </g>
</svg>