<?xml version="1.0" encoding="utf-8"?>
<svg version="1.1" xmlns:xlink="http://www.w3.org/1999/xlink" width="5px" height="5px" xmlns="http://www.w3.org/2000/svg">
  <g transform="matrix(1 0 0 1 -1503 -1281 )">
    <path d="M 0.244077682344544 1.42258898432212  C -0.0813592274481812 1.0971520745294  -0.0813592274481812 0.569514592137269  0.244077682344544 0.244077682344544  C 0.552386333727125 -0.0642309690380378  1.04217139929865 -0.0804577401634368  1.36958283112217 0.195397368968347  C 1.36958283112217 0.195397368968347  1.42258898432212 0.244077682344544  1.42258898432212 0.244077682344544  C 1.42258898432212 0.244077682344544  4.75592231765546 3.57741101567788  4.75592231765546 3.57741101567788  C 5.08135922744818 3.9028479254706  5.08135922744818 4.43048540786273  4.75592231765546 4.75592231765546  C 4.44761366627287 5.06423096903804  3.95782860070135 5.08045774016344  3.63041716887783 4.80460263103165  C 3.63041716887783 4.80460263103165  3.57741101567788 4.75592231765546  3.57741101567788 4.75592231765546  C 3.57741101567788 4.75592231765546  0.244077682344544 1.42258898432212  0.244077682344544 1.42258898432212  Z " fill-rule="nonzero" fill="#5f6a7a" stroke="none" transform="matrix(1 0 0 1 1503 1281 )" />
  </g>
</svg>