<?xml version="1.0" encoding="utf-8"?>
<svg version="1.1" xmlns:xlink="http://www.w3.org/1999/xlink" width="101px" height="22px" xmlns="http://www.w3.org/2000/svg">
  <g transform="matrix(1 0 0 1 -937 -727 )">
    <path d="M 938 731  A 3 3 0 0 1 941 728 L 1034 728  A 3 3 0 0 1 1037 731 L 1037 745  A 3 3 0 0 1 1034 748 L 941 748  A 3 3 0 0 1 938 745 L 938 731  Z " fill-rule="nonzero" fill="#f56c6c" stroke="none" fill-opacity="0.0980392156862745" />
    <path d="M 937.5 731  A 3.5 3.5 0 0 1 941 727.5 L 1034 727.5  A 3.5 3.5 0 0 1 1037.5 731 L 1037.5 745  A 3.5 3.5 0 0 1 1034 748.5 L 941 748.5  A 3.5 3.5 0 0 1 937.5 745 L 937.5 731  Z " stroke-width="1" stroke="#f56c6c" fill="none" stroke-opacity="0.2" />
  </g>
</svg>