<?xml version="1.0" encoding="utf-8"?>
<svg version="1.1" xmlns:xlink="http://www.w3.org/1999/xlink" width="12px" height="12px" xmlns="http://www.w3.org/2000/svg">
  <g transform="matrix(1 0 0 1 -948 -374 )">
    <path d="M 954 374.5  C 957.08 374.5  959.5 376.92  959.5 380  C 959.5 383.08  957.08 385.5  954 385.5  C 950.92 385.5  948.5 383.08  948.5 380  C 948.5 376.92  950.92 374.5  954 374.5  Z " fill-rule="nonzero" fill="#96ee07" stroke="none" fill-opacity="0.996078431372549" />
    <path d="M 954 374.5  C 957.08 374.5  959.5 376.92  959.5 380  C 959.5 383.08  957.08 385.5  954 385.5  C 950.92 385.5  948.5 383.08  948.5 380  C 948.5 376.92  950.92 374.5  954 374.5  Z " stroke-width="1" stroke="#96ee07" fill="none" stroke-opacity="0.996078431372549" />
  </g>
</svg>