<?xml version="1.0" encoding="utf-8"?>
<svg version="1.1" xmlns:xlink="http://www.w3.org/1999/xlink" width="12px" height="12px" xmlns="http://www.w3.org/2000/svg">
  <g transform="matrix(1 0 0 1 -948 -290 )">
    <path d="M 954 290  C 957.36 290  960 292.64  960 296  C 960 299.36  957.36 302  954 302  C 950.64 302  948 299.36  948 296  C 948 292.64  950.64 290  954 290  Z " fill-rule="nonzero" fill="#f90421" stroke="none" fill-opacity="0.996078431372549" />
    <path d="M 954 290.5  C 957.08 290.5  959.5 292.92  959.5 296  C 959.5 299.08  957.08 301.5  954 301.5  C 950.92 301.5  948.5 299.08  948.5 296  C 948.5 292.92  950.92 290.5  954 290.5  Z " stroke-width="1" stroke="#d9001b" fill="none" />
  </g>
</svg>