<?xml version="1.0" encoding="utf-8"?>
<svg version="1.1" xmlns:xlink="http://www.w3.org/1999/xlink" width="1419px" height="346px" xmlns="http://www.w3.org/2000/svg">
  <g transform="matrix(1 0 0 1 -10 -317 )">
    <path d="M 11 323  A 5 5 0 0 1 16 318 L 1423 318  A 5 5 0 0 1 1428 323 L 1428 657  A 5 5 0 0 1 1423 662 L 16 662  A 5 5 0 0 1 11 657 L 11 323  Z " fill-rule="nonzero" fill="#ffffff" stroke="none" />
    <path d="M 10.5 323  A 5.5 5.5 0 0 1 16 317.5 L 1423 317.5  A 5.5 5.5 0 0 1 1428.5 323 L 1428.5 657  A 5.5 5.5 0 0 1 1423 662.5 L 16 662.5  A 5.5 5.5 0 0 1 10.5 657 L 10.5 323  Z " stroke-width="1" stroke="#797979" fill="none" stroke-opacity="0.133333333333333" />
  </g>
</svg>