<?xml version="1.0" encoding="utf-8"?>
<svg version="1.1" xmlns:xlink="http://www.w3.org/1999/xlink" width="14px" height="14px" xmlns="http://www.w3.org/2000/svg">
  <g transform="matrix(1 0 0 1 -1325 -338 )">
    <path d="M 2.00000000000011 11.0569999999999  L 5.028595479209 8.02859547920884  C 5.29052462466791 7.80791139190341  5.72475759968506 7.78194855810277  5.97140452079111 8.02859547920884  C 6.20571909584191 8.2629100542596  6.22915055334693 8.62825060035478  6.04169889330637 8.88877036961442  C 6.04169889330637 8.88877036961442  5.97140452079111 8.9714045207909  5.97140452079111 8.9714045207909  L 2.9430000000001 11.9999999999999  L 4.33333333333348 11.9999999999998  C 4.67828662151476 12.0254497138989  5.00000000000023 12.315212734956  5.00000000000023 12.6666666666665  C 5.00000000000023 13.001384696867  4.75332493103645 13.2784886776672  4.43184844725749 13.3261049549184  C 4.43184844725749 13.3261049549184  4.33333333333348 13.3333333333332  4.33333333333348 13.3333333333332  L 1.33333333333337 13.3333333333332  C 1.02287537397012 13.3104285908241  0.721788459619688 13.0730826395429  0.674626479333824 12.7699982962569  C 0.674626479333824 12.7699982962569  0.666666666666742 12.6666666666665  0.666666666666742 12.6666666666665  C 0.666666666666742 12.6666666666665  0.668495245477061 9.61691255171354  0.668495245477061 9.61691255171354  C 0.691399987986188 9.30645459235035  0.926917360457082 9.05512179295273  1.23000170374303 9.00795981266684  C 1.23000170374303 9.00795981266684  1.33333333333348 8.99999999999974  1.33333333333348 8.99999999999974  C 1.64379129269662 9.02290474250889  1.94487820704717 9.2602506937901  1.99204018733303 9.56333503707608  C 1.99204018733303 9.56333503707608  2.00000000000011 9.66666666666643  2.00000000000011 9.66666666666643  L 2.00000000000011 11.0569999999999  Z M 8.99999999999989 1.3333333333332  C 8.99999999999989 0.99861530313272  9.24667506896367 0.721511322332546  9.56815155274262 0.673895045081281  C 9.56815155274262 0.673895045081281  9.66666666666663 0.666666666666515  9.66666666666663 0.666666666666515  C 9.66666666666663 0.666666666666515  12.7164207816195 0.668495245476976  12.7164207816195 0.668495245476976  C 13.0268787409827 0.691399987986124  13.2782115403804 0.926917360456823  13.3253735206663 1.23000170374283  C 13.3253735206663 1.23000170374283  13.3333333333334 1.33333333333318  13.3333333333334 1.33333333333318  L 13.3333333333334 4.33333333333329  C 13.3104285908242 4.64379129269648  13.073082639543 4.94487820704699  12.7699982962571 4.99204018733288  C 12.7699982962571 4.99204018733288  12.6666666666667 4.99999999999997  12.6666666666667 4.99999999999997  C 12.3562087073036 4.97709525749082  12.0551217929529 4.73974930620961  12.0079598126671 4.43666496292363  C 12.0079598126671 4.43666496292363  12 4.33333333333329  12 4.33333333333329  L 12 2.94299999999985  L 8.97140452079111 5.97140452079088  C 8.7094753753322 6.19208860809631  8.27524240031505 6.21805144189695  8.028595479209 5.97140452079088  C 7.7942809041582 5.73708994574012  7.77084944665319 5.37174939964494  7.95830110669374 5.1112296303853  C 7.95830110669374 5.1112296303853  8.028595479209 5.02859547920882  8.028595479209 5.02859547920882  L 11.057 1.99999999999985  L 9.66666666666663 1.99999999999989  C 9.32171337848524 1.97455028610083  8.99999999999989 1.68478726504371  8.99999999999989 1.3333333333332  Z " fill-rule="nonzero" fill="#5f6a7a" stroke="none" transform="matrix(1 0 0 1 1325 338 )" />
  </g>
</svg>