<?xml version="1.0" encoding="utf-8"?>
<svg version="1.1" xmlns:xlink="http://www.w3.org/1999/xlink" width="9px" height="9px" xmlns="http://www.w3.org/2000/svg">
  <g transform="matrix(1 0 0 1 -908 -140 )">
    <path d="M 5.01040764008485 0.646771276449385  L 5.01040908204027 4.01040764008576  L 8.37404400372225 4.01040764008576  C 8.59040764008603 4.01040764008576  8.76040764008587 4.23040764008573  8.76040764008587 4.51040764008565  C 8.76040764008587 4.79040764008573  8.59040764008603 5.0104076400857  8.37404400372225 5.0104076400857  L 5.01040764008485 5.01040764022588  L 5.01040764008485 8.37404400372225  C 5.01040764008485 8.59040764008586  4.79040764008505 8.76040764008587  4.51040764008496 8.76040764008587  C 4.23040764008488 8.76040764008587  4.01040764008508 8.59040764008586  4.01040764008508 8.37404400372225  L 4.01040619812966 5.0104076400857  L 0.646771276449385 5.0104076400857  C 0.430407640085605 5.0104076400857  0.260407640085759 4.79040764008573  0.260407640085759 4.51040764008565  C 0.260407640085759 4.23040764008573  0.430407640085605 4.01040764008576  0.646771276449385 4.01040764008576  L 4.01040764008508 4.01040763994558  L 4.01040764008508 0.646771276449385  C 4.01040764008508 0.430407640085775  4.23040764008488 0.260407640085759  4.51040764008496 0.260407640085759  C 4.79040764008505 0.260407640085759  5.01040764008485 0.430407640085775  5.01040764008485 0.646771276449385  Z " fill-rule="nonzero" fill="#ffffff" stroke="none" fill-opacity="0" transform="matrix(1 0 0 1 908 140 )" />
  </g>
</svg>