<?xml version="1.0" encoding="utf-8"?>
<svg version="1.1" xmlns:xlink="http://www.w3.org/1999/xlink" width="14px" height="14px" xmlns="http://www.w3.org/2000/svg">
  <g transform="matrix(1 0 0 1 -641 -143 )">
    <path d="M 13.6666666666665 6.99999999999955  C 13.6666666666665 10.6818983319997  10.6818983319999 13.6666666666663  6.99999999999955 13.6666666666663  C 3.3181016679996 13.6666666666663  0.33333333333303 10.6818983319997  0.33333333333303 6.99999999999955  C 0.33333333333303 3.3181016679996  3.3181016679996 0.33333333333303  6.99999999999955 0.33333333333303  C 10.6818983319999 0.33333333333303  13.6666666666665 3.3181016679996  13.6666666666665 6.99999999999955  Z M 6.33333333333303 9.99999999999955  C 6.33333333333303 10.3681898332202  6.63181016677936 10.6666666666663  6.99999999999955 10.6666666666663  C 7.36818983322019 10.6666666666663  7.66666666666652 10.3681898332202  7.66666666666652 9.99999999999955  C 7.66666666666652 9.63181016677913  7.36818983322019 9.33333333333303  6.99999999999955 9.33333333333303  C 6.63181016677936 9.33333333333303  6.33333333333303 9.63181016677913  6.33333333333303 9.99999999999955  Z M 7.66666666666652 7.66666666666629  C 7.66666666666652 7.66666666666629  7.66666666666652 3.99999999999977  7.66666666666652 3.99999999999977  C 7.66666666666652 3.63181016677913  7.36818983322019 3.33333333333303  6.99999999999955 3.33333333333303  C 6.63181016677936 3.33333333333303  6.33333333333303 3.63181016677913  6.33333333333303 3.99999999999977  C 6.33333333333303 3.99999999999977  6.33333333333303 7.66666666666629  6.33333333333303 7.66666666666629  C 6.33333333333303 8.03485649988693  6.63181016677936 8.33333333333303  6.99999999999955 8.33333333333303  C 7.36818983322019 8.33333333333303  7.66666666666652 8.03485649988693  7.66666666666652 7.66666666666629  Z " fill-rule="nonzero" fill="#237ffa" stroke="none" transform="matrix(1 0 0 1 641 143 )" />
  </g>
</svg>