<?xml version="1.0" encoding="utf-8"?>
<svg version="1.1" xmlns:xlink="http://www.w3.org/1999/xlink" width="12px" height="12px" xmlns="http://www.w3.org/2000/svg">
  <g transform="matrix(1 0 0 1 -241 -403 )">
    <path d="M 247 403.5  C 250.08 403.5  252.5 405.92  252.5 409  C 252.5 412.08  250.08 414.5  247 414.5  C 243.92 414.5  241.5 412.08  241.5 409  C 241.5 405.92  243.92 403.5  247 403.5  Z " fill-rule="nonzero" fill="#f0bc0a" stroke="none" fill-opacity="0.996078431372549" />
    <path d="M 247 403.5  C 250.08 403.5  252.5 405.92  252.5 409  C 252.5 412.08  250.08 414.5  247 414.5  C 243.92 414.5  241.5 412.08  241.5 409  C 241.5 405.92  243.92 403.5  247 403.5  Z " stroke-width="1" stroke="#f0bc0a" fill="none" stroke-opacity="0.996078431372549" />
  </g>
</svg>