<?xml version="1.0" encoding="utf-8"?>
<svg version="1.1" xmlns:xlink="http://www.w3.org/1999/xlink" width="12px" height="12px" xmlns="http://www.w3.org/2000/svg">
  <g transform="matrix(1 0 0 1 -35 -500 )">
    <path d="M 41 500.5  C 44.08 500.5  46.5 502.92  46.5 506  C 46.5 509.08  44.08 511.5  41 511.5  C 37.92 511.5  35.5 509.08  35.5 506  C 35.5 502.92  37.92 500.5  41 500.5  Z " fill-rule="nonzero" fill="#f0bc0a" stroke="none" fill-opacity="0.996078431372549" />
    <path d="M 41 500.5  C 44.08 500.5  46.5 502.92  46.5 506  C 46.5 509.08  44.08 511.5  41 511.5  C 37.92 511.5  35.5 509.08  35.5 506  C 35.5 502.92  37.92 500.5  41 500.5  Z " stroke-width="1" stroke="#f0bc0a" fill="none" stroke-opacity="0.996078431372549" />
  </g>
</svg>