<?xml version="1.0" encoding="utf-8"?>
<svg version="1.1" xmlns:xlink="http://www.w3.org/1999/xlink" width="257px" height="12px" xmlns="http://www.w3.org/2000/svg">
  <g transform="matrix(1 0 0 1 -1578 -391 )">
    <path d="M 1579 395  A 3 3 0 0 1 1582 392 L 1831 392  A 3 3 0 0 1 1834 395 L 1834 399  A 3 3 0 0 1 1831 402 L 1582 402  A 3 3 0 0 1 1579 399 L 1579 395  Z " fill-rule="nonzero" fill="#4a9eff" stroke="none" />
    <path d="M 1578.5 395  A 3.5 3.5 0 0 1 1582 391.5 L 1831 391.5  A 3.5 3.5 0 0 1 1834.5 395 L 1834.5 399  A 3.5 3.5 0 0 1 1831 402.5 L 1582 402.5  A 3.5 3.5 0 0 1 1578.5 399 L 1578.5 395  Z " stroke-width="1" stroke="#797979" fill="none" stroke-opacity="0.117647058823529" />
  </g>
</svg>