<?xml version="1.0" encoding="utf-8"?>
<svg version="1.1" xmlns:xlink="http://www.w3.org/1999/xlink" width="88px" height="12px" xmlns="http://www.w3.org/2000/svg">
  <g transform="matrix(1 0 0 1 -1578 -559 )">
    <path d="M 1579 563  A 3 3 0 0 1 1582 560 L 1662 560  A 3 3 0 0 1 1665 563 L 1665 567  A 3 3 0 0 1 1662 570 L 1582 570  A 3 3 0 0 1 1579 567 L 1579 563  Z " fill-rule="nonzero" fill="#4a9eff" stroke="none" />
    <path d="M 1578.5 563  A 3.5 3.5 0 0 1 1582 559.5 L 1662 559.5  A 3.5 3.5 0 0 1 1665.5 563 L 1665.5 567  A 3.5 3.5 0 0 1 1662 570.5 L 1582 570.5  A 3.5 3.5 0 0 1 1578.5 567 L 1578.5 563  Z " stroke-width="1" stroke="#797979" fill="none" stroke-opacity="0.117647058823529" />
  </g>
</svg>