<?xml version="1.0" encoding="utf-8"?>
<svg version="1.1" xmlns:xlink="http://www.w3.org/1999/xlink" width="204px" height="12px" xmlns="http://www.w3.org/2000/svg">
  <g transform="matrix(1 0 0 1 -1578 -475 )">
    <path d="M 1579 479  A 3 3 0 0 1 1582 476 L 1778 476  A 3 3 0 0 1 1781 479 L 1781 483  A 3 3 0 0 1 1778 486 L 1582 486  A 3 3 0 0 1 1579 483 L 1579 479  Z " fill-rule="nonzero" fill="#4a9eff" stroke="none" />
    <path d="M 1578.5 479  A 3.5 3.5 0 0 1 1582 475.5 L 1778 475.5  A 3.5 3.5 0 0 1 1781.5 479 L 1781.5 483  A 3.5 3.5 0 0 1 1778 486.5 L 1582 486.5  A 3.5 3.5 0 0 1 1578.5 483 L 1578.5 479  Z " stroke-width="1" stroke="#797979" fill="none" stroke-opacity="0.117647058823529" />
  </g>
</svg>