<?xml version="1.0" encoding="utf-8"?>
<svg version="1.1" xmlns:xlink="http://www.w3.org/1999/xlink" width="225px" height="12px" xmlns="http://www.w3.org/2000/svg">
  <g transform="matrix(1 0 0 1 -1578 -433 )">
    <path d="M 1579 437  A 3 3 0 0 1 1582 434 L 1799 434  A 3 3 0 0 1 1802 437 L 1802 441  A 3 3 0 0 1 1799 444 L 1582 444  A 3 3 0 0 1 1579 441 L 1579 437  Z " fill-rule="nonzero" fill="#4a9eff" stroke="none" />
    <path d="M 1578.5 437  A 3.5 3.5 0 0 1 1582 433.5 L 1799 433.5  A 3.5 3.5 0 0 1 1802.5 437 L 1802.5 441  A 3.5 3.5 0 0 1 1799 444.5 L 1582 444.5  A 3.5 3.5 0 0 1 1578.5 441 L 1578.5 437  Z " stroke-width="1" stroke="#797979" fill="none" stroke-opacity="0.117647058823529" />
  </g>
</svg>