<?xml version="1.0" encoding="utf-8"?>
<svg version="1.1" xmlns:xlink="http://www.w3.org/1999/xlink" width="14px" height="4px" xmlns="http://www.w3.org/2000/svg">
  <g transform="matrix(1 0 0 1 -1854 -687 )">
    <path d="M 3.33333333333343 1.99999999999985  C 3.33333333333343 2.7363796664409  2.73637966644117 3.33333333333318  2.00000000000011 3.33333333333318  C 1.263620333559 3.33333333333318  0.666666666666742 2.7363796664409  0.666666666666742 1.99999999999985  C 0.666666666666742 1.26362033355879  1.263620333559 0.666666666666515  2.00000000000006 0.666666666666515  C 2.73637966644117 0.666666666666515  3.33333333333343 1.26362033355879  3.33333333333343 1.99999999999985  Z M 8.33333333333343 1.99999999999985  C 8.33333333333343 2.7363796664409  7.73637966644117 3.33333333333318  7.00000000000011 3.33333333333318  C 6.263620333559 3.33333333333318  5.66666666666674 2.7363796664409  5.66666666666674 1.99999999999985  C 5.66666666666674 1.26362033355879  6.263620333559 0.666666666666515  7.00000000000011 0.666666666666515  C 7.73637966644117 0.666666666666515  8.33333333333343 1.26362033355879  8.33333333333343 1.99999999999985  Z M 12.0000000000001 3.33333333333318  C 11.263620333559 3.33333333333318  10.6666666666667 2.7363796664409  10.6666666666667 1.99999999999985  C 10.6666666666667 1.26362033355879  11.263620333559 0.666666666666515  12.0000000000001 0.666666666666515  C 12.7363796664412 0.666666666666515  13.3333333333334 1.26362033355879  13.3333333333334 1.99999999999985  C 13.3333333333334 2.7363796664409  12.7363796664412 3.33333333333318  12.0000000000001 3.33333333333318  Z " fill-rule="nonzero" fill="#5f6a7a" stroke="none" transform="matrix(1 0 0 1 1854 687 )" />
  </g>
</svg>