<?xml version="1.0" encoding="utf-8"?>
<svg version="1.1" xmlns:xlink="http://www.w3.org/1999/xlink" width="14px" height="14px" xmlns="http://www.w3.org/2000/svg">
  <g transform="matrix(1 0 0 1 -1782 -682 )">
    <path d="M 2.00000000000006 11.0569999999998  L 5.02859547920906 8.02859547920878  C 5.29052462466785 7.80791139190335  5.72475759968506 7.78194855810271  5.97140452079111 8.02859547920878  C 6.20571909584186 8.26291005425954  6.22915055334693 8.62825060035472  6.04169889330632 8.88877036961436  C 6.04169889330632 8.88877036961436  5.97140452079111 8.97140452079084  5.97140452079111 8.97140452079084  L 2.9430000000001 11.9999999999998  L 4.33333333333354 11.9999999999998  C 4.67828662151487 12.0254497138988  5.00000000000023 12.315212734956  5.00000000000023 12.6666666666665  C 5.00000000000023 13.0013846968669  4.75332493103645 13.2784886776671  4.43184844725749 13.3261049549184  C 4.43184844725749 13.3261049549184  4.33333333333354 13.3333333333331  4.33333333333354 13.3333333333331  L 1.33333333333343 13.3333333333331  C 1.02287537397024 13.310428590824  0.721788459619745 13.0730826395428  0.674626479333824 12.7699982962568  C 0.674626479333824 12.7699982962568  0.666666666666742 12.6666666666665  0.666666666666742 12.6666666666665  C 0.666666666666742 12.6666666666665  0.668495245477061 9.61691255171348  0.668495245477061 9.61691255171348  C 0.691399987986188 9.30645459235029  0.926917360457026 9.05512179295267  1.23000170374308 9.00795981266678  C 1.23000170374308 9.00795981266678  1.33333333333343 8.99999999999969  1.33333333333343 8.99999999999969  C 1.64379129269668 9.02290474250884  1.94487820704711 9.26025069379004  1.99204018733303 9.56333503707603  C 1.99204018733303 9.56333503707603  2.00000000000011 9.66666666666637  2.00000000000011 9.66666666666637  L 2.00000000000006 11.0569999999998  Z M 8.99999999999989 1.3333333333332  C 8.99999999999989 0.99861530313272  9.24667506896367 0.721511322332546  9.56815155274262 0.673895045081281  C 9.56815155274262 0.673895045081281  9.66666666666663 0.666666666666515  9.66666666666663 0.666666666666515  C 9.66666666666663 0.666666666666515  12.7164207816195 0.668495245476976  12.7164207816195 0.668495245476976  C 13.0268787409827 0.691399987986124  13.2782115403804 0.926917360456823  13.3253735206663 1.23000170374283  C 13.3253735206663 1.23000170374283  13.3333333333334 1.33333333333318  13.3333333333334 1.33333333333318  L 13.3333333333334 4.33333333333329  C 13.3104285908242 4.64379129269648  13.0730826395431 4.94487820704699  12.769998296257 4.99204018733288  C 12.769998296257 4.99204018733288  12.6666666666667 4.99999999999997  12.6666666666667 4.99999999999997  C 12.3562087073035 4.97709525749082  12.055121792953 4.73974930620961  12.0079598126671 4.43666496292363  C 12.0079598126671 4.43666496292363  12 4.33333333333329  12 4.33333333333329  L 12.0000000000001 2.94299999999985  L 8.97140452079105 5.97140452079088  C 8.70947537533226 6.19208860809631  8.27524240031505 6.21805144189695  8.028595479209 5.97140452079088  C 7.79428090415826 5.73708994574012  7.77084944665319 5.37174939964494  7.9583011066938 5.1112296303853  C 7.9583011066938 5.1112296303853  8.028595479209 5.02859547920882  8.028595479209 5.02859547920882  L 11.057 1.99999999999985  L 9.66666666666663 1.99999999999989  C 9.3217133784853 1.97455028610083  8.99999999999989 1.68478726504371  8.99999999999989 1.3333333333332  Z " fill-rule="nonzero" fill="#5f6a7a" stroke="none" transform="matrix(1 0 0 1 1782 682 )" />
  </g>
</svg>