<?xml version="1.0" encoding="utf-8"?>
<svg version="1.1" xmlns:xlink="http://www.w3.org/1999/xlink" width="14px" height="14px" xmlns="http://www.w3.org/2000/svg">
  <g transform="matrix(1 0 0 1 -1818 -682 )">
    <path d="M 0.666666666666742 11.3333333333332  C 0.666666666666742 11.3333333333332  0.666666666666742 2.66666666666652  0.666666666666742 2.66666666666652  C 0.666666666666742 1.56209716700493  1.56209716700516 0.666666666666515  2.66666666666674 0.666666666666515  C 2.66666666666674 0.666666666666515  11.3333333333334 0.666666666666515  11.3333333333334 0.666666666666515  C 12.437902832995 0.666666666666515  13.3333333333334 1.56209716700493  13.3333333333334 2.66666666666652  C 13.3333333333334 2.66666666666652  13.3333333333334 11.3333333333332  13.3333333333334 11.3333333333332  C 13.3333333333334 12.4379028329948  12.437902832995 13.3333333333332  11.3333333333334 13.3333333333332  C 11.3333333333334 13.3333333333332  2.66666666666674 13.3333333333332  2.66666666666674 13.3333333333332  C 1.56209716700516 13.3333333333332  0.666666666666742 12.4379028329948  0.666666666666742 11.3333333333332  Z M 4.33333333333343 4.33266666666649  L 4.33333333333343 1.99966666666648  C 4.33333333333343 1.99966666666648  2.6666666666668 1.99999999999982  2.6666666666668 1.99999999999982  C 2.31521273495628 1.99999999999982  2.02727829270964 2.27195926353235  2.00182857881055 2.61691255171369  L 2.00033333333346 4.33266666666649  L 4.33333333333343 4.33266666666649  Z M 2.00000000000011 11.3333333333332  C 2.00000000000011 11.6847872650437  2.27195926353266 11.9727217072903  2.61691255171399 11.9981714211894  C 2.61691255171399 11.9981714211894  11.3333333333335 11.9999999999998  11.3333333333335 11.9999999999998  C 11.684787265044 11.9999999999998  11.9727217072906 11.7280407364673  11.9981714211897 11.383087448286  L 12.0003333333335 5.66666666666652  L 2.00033333333346 5.66666666666652  C 2.00033333333346 5.66666666666652  2.00000000000011 11.3333333333332  2.00000000000011 11.3333333333332  Z M 8.33333333333343 4.33266666666648  L 8.33333333333343 1.99966666666648  L 5.66733333333343 1.99966666666648  L 5.66733333333343 4.33266666666648  L 8.33333333333343 4.33266666666648  Z M 11.3830874482862 2.00182857881028  L 9.66733333333343 1.99966666666648  L 9.66733333333343 4.33266666666648  L 12.0003333333335 4.33266666666648  C 12.0003333333335 4.33266666666648  12.0000000000001 2.66666666666648  12.0000000000001 2.66666666666648  C 12.0000000000001 2.31521273495598  11.7280407364676 2.02727829270933  11.3830874482862 2.00182857881028  Z " fill-rule="nonzero" fill="#5f6a7a" stroke="none" transform="matrix(1 0 0 1 1818 682 )" />
  </g>
</svg>