<?xml version="1.0" encoding="utf-8"?>
<svg version="1.1" xmlns:xlink="http://www.w3.org/1999/xlink" width="36px" height="112px" xmlns="http://www.w3.org/2000/svg">
  <g transform="matrix(1 0 0 1 -1555 -855 )">
    <path d="M 1556 859  A 3 3 0 0 1 1559 856 L 1587 856  A 3 3 0 0 1 1590 859 L 1590 963  A 3 3 0 0 1 1587 966 L 1559 966  A 3 3 0 0 1 1556 963 L 1556 859  Z " fill-rule="nonzero" fill="#4a9eff" stroke="none" />
    <path d="M 1555.5 859  A 3.5 3.5 0 0 1 1559 855.5 L 1587 855.5  A 3.5 3.5 0 0 1 1590.5 859 L 1590.5 963  A 3.5 3.5 0 0 1 1587 966.5 L 1559 966.5  A 3.5 3.5 0 0 1 1555.5 963 L 1555.5 859  Z " stroke-width="1" stroke="#797979" fill="none" stroke-opacity="0.117647058823529" />
  </g>
</svg>