<?xml version="1.0" encoding="utf-8"?>
<svg version="1.1" xmlns:xlink="http://www.w3.org/1999/xlink" width="36px" height="105px" xmlns="http://www.w3.org/2000/svg">
  <g transform="matrix(1 0 0 1 -1801 -862 )">
    <path d="M 1802 866  A 3 3 0 0 1 1805 863 L 1833 863  A 3 3 0 0 1 1836 866 L 1836 963  A 3 3 0 0 1 1833 966 L 1805 966  A 3 3 0 0 1 1802 963 L 1802 866  Z " fill-rule="nonzero" fill="#4a9eff" stroke="none" />
    <path d="M 1801.5 866  A 3.5 3.5 0 0 1 1805 862.5 L 1833 862.5  A 3.5 3.5 0 0 1 1836.5 866 L 1836.5 963  A 3.5 3.5 0 0 1 1833 966.5 L 1805 966.5  A 3.5 3.5 0 0 1 1801.5 963 L 1801.5 866  Z " stroke-width="1" stroke="#797979" fill="none" stroke-opacity="0.117647058823529" />
  </g>
</svg>