<?xml version="1.0" encoding="utf-8"?>
<svg version="1.1" xmlns:xlink="http://www.w3.org/1999/xlink" width="36px" height="177px" xmlns="http://www.w3.org/2000/svg">
  <g transform="matrix(1 0 0 1 -1637 -790 )">
    <path d="M 1638 794  A 3 3 0 0 1 1641 791 L 1669 791  A 3 3 0 0 1 1672 794 L 1672 963  A 3 3 0 0 1 1669 966 L 1641 966  A 3 3 0 0 1 1638 963 L 1638 794  Z " fill-rule="nonzero" fill="#4a9eff" stroke="none" />
    <path d="M 1637.5 794  A 3.5 3.5 0 0 1 1641 790.5 L 1669 790.5  A 3.5 3.5 0 0 1 1672.5 794 L 1672.5 963  A 3.5 3.5 0 0 1 1669 966.5 L 1641 966.5  A 3.5 3.5 0 0 1 1637.5 963 L 1637.5 794  Z " stroke-width="1" stroke="#797979" fill="none" stroke-opacity="0.117647058823529" />
  </g>
</svg>