<?xml version="1.0" encoding="utf-8"?>
<svg version="1.1" xmlns:xlink="http://www.w3.org/1999/xlink" width="36px" height="34px" xmlns="http://www.w3.org/2000/svg">
  <g transform="matrix(1 0 0 1 -1719 -933 )">
    <path d="M 1720 937  A 3 3 0 0 1 1723 934 L 1751 934  A 3 3 0 0 1 1754 937 L 1754 963  A 3 3 0 0 1 1751 966 L 1723 966  A 3 3 0 0 1 1720 963 L 1720 937  Z " fill-rule="nonzero" fill="#4a9eff" stroke="none" />
    <path d="M 1719.5 937  A 3.5 3.5 0 0 1 1723 933.5 L 1751 933.5  A 3.5 3.5 0 0 1 1754.5 937 L 1754.5 963  A 3.5 3.5 0 0 1 1751 966.5 L 1723 966.5  A 3.5 3.5 0 0 1 1719.5 963 L 1719.5 937  Z " stroke-width="1" stroke="#797979" fill="none" stroke-opacity="0.117647058823529" />
  </g>
</svg>