<?xml version="1.0" encoding="utf-8"?>
<svg version="1.1" xmlns:xlink="http://www.w3.org/1999/xlink" width="784px" height="346px" xmlns="http://www.w3.org/2000/svg">
  <g transform="matrix(1 0 0 1 -644 -279 )">
    <path d="M 645 285  A 5 5 0 0 1 650 280 L 1422 280  A 5 5 0 0 1 1427 285 L 1427 619  A 5 5 0 0 1 1422 624 L 650 624  A 5 5 0 0 1 645 619 L 645 285  Z " fill-rule="nonzero" fill="#ffffff" stroke="none" />
    <path d="M 644.5 285  A 5.5 5.5 0 0 1 650 279.5 L 1422 279.5  A 5.5 5.5 0 0 1 1427.5 285 L 1427.5 619  A 5.5 5.5 0 0 1 1422 624.5 L 650 624.5  A 5.5 5.5 0 0 1 644.5 619 L 644.5 285  Z " stroke-width="1" stroke="#797979" fill="none" stroke-opacity="0.133333333333333" />
  </g>
</svg>