<?xml version="1.0" encoding="utf-8"?>
<svg version="1.1" xmlns:xlink="http://www.w3.org/1999/xlink" width="200px" height="160px" xmlns="http://www.w3.org/2000/svg">
  <g transform="matrix(1 0 0 1 -1550 -208 )">
    <path d="M 1551 212  A 3 3 0 0 1 1554 209 L 1746 209  A 3 3 0 0 1 1749 212 L 1749 364  A 3 3 0 0 1 1746 367 L 1554 367  A 3 3 0 0 1 1551 364 L 1551 212  Z " fill-rule="nonzero" fill="#ff3399" stroke="none" fill-opacity="0.0980392156862745" />
    <path d="M 1550.5 212  A 3.5 3.5 0 0 1 1554 208.5 L 1746 208.5  A 3.5 3.5 0 0 1 1749.5 212 L 1749.5 364  A 3.5 3.5 0 0 1 1746 367.5 L 1554 367.5  A 3.5 3.5 0 0 1 1550.5 364 L 1550.5 212  Z " stroke-width="1" stroke-dasharray="9,4" stroke="#ff3399" fill="none" stroke-dashoffset="0.5" />
  </g>
</svg>