<?xml version="1.0" encoding="utf-8"?>
<svg version="1.1" xmlns:xlink="http://www.w3.org/1999/xlink" width="200px" height="160px" xmlns="http://www.w3.org/2000/svg">
  <g transform="matrix(1 0 0 1 -1646 -208 )">
    <path d="M 1647 212  A 3 3 0 0 1 1650 209 L 1842 209  A 3 3 0 0 1 1845 212 L 1845 364  A 3 3 0 0 1 1842 367 L 1650 367  A 3 3 0 0 1 1647 364 L 1647 212  Z " fill-rule="nonzero" fill="#ff3399" stroke="none" fill-opacity="0.0980392156862745" />
    <path d="M 1646.5 212  A 3.5 3.5 0 0 1 1650 208.5 L 1842 208.5  A 3.5 3.5 0 0 1 1845.5 212 L 1845.5 364  A 3.5 3.5 0 0 1 1842 367.5 L 1650 367.5  A 3.5 3.5 0 0 1 1646.5 364 L 1646.5 212  Z " stroke-width="1" stroke-dasharray="9,4" stroke="#ff3399" fill="none" stroke-dashoffset="0.5" />
  </g>
</svg>