<?xml version="1.0" encoding="utf-8"?>
<svg version="1.1" xmlns:xlink="http://www.w3.org/1999/xlink" width="83px" height="160px" xmlns="http://www.w3.org/2000/svg">
  <g transform="matrix(1 0 0 1 -1358 -198 )">
    <path d="M 1359 202  A 3 3 0 0 1 1362 199 L 1437 199  A 3 3 0 0 1 1440 202 L 1440 354  A 3 3 0 0 1 1437 357 L 1362 357  A 3 3 0 0 1 1359 354 L 1359 202  Z " fill-rule="nonzero" fill="#ff3399" stroke="none" fill-opacity="0.0980392156862745" />
    <path d="M 1358.5 202  A 3.5 3.5 0 0 1 1362 198.5 L 1437 198.5  A 3.5 3.5 0 0 1 1440.5 202 L 1440.5 354  A 3.5 3.5 0 0 1 1437 357.5 L 1362 357.5  A 3.5 3.5 0 0 1 1358.5 354 L 1358.5 202  Z " stroke-width="1" stroke-dasharray="9,4" stroke="#ff3399" fill="none" stroke-dashoffset="0.5" />
  </g>
</svg>