<?xml version="1.0" encoding="utf-8"?>
<svg version="1.1" xmlns:xlink="http://www.w3.org/1999/xlink" width="13px" height="5px" xmlns="http://www.w3.org/2000/svg">
  <g transform="matrix(1 0 0 1 -20 -885 )">
    <path d="M 12.4722222222222 3.33333333330529  L 7.19444444444444 3.33333333330529  C 6.89888888888888 3.33333333330529  6.66666666666666 3.03999999997177  6.66666666666666 2.66666666663878  C 6.66666666666666 2.29333333330533  6.89888888888888 1.99999999997181  7.19444444444444 1.99999999997181  L 12.4722222222222 1.99999999997181  C 12.7677777777778 1.99999999997181  13 2.29333333330533  13 2.66666666663878  C 13 3.03999999997177  12.7677777777778 3.33333333330529  12.4722222222222 3.33333333330529  Z M 0.52859547920896 3.13807118742488  C 0.281948558102897 2.89142426631861  0.26896714120258 2.49959621386142  0.489651228508009 2.23766706840297  C 0.489651228508009 2.23766706840297  2.19526214587603 0.528595479175237  2.19526214587603 0.528595479175237  C 2.45561167371021 0.268245951341214  2.87772165962386 0.268245951341214  3.13807118745804 0.528595479175237  C 3.3847181085641 0.775242400281513  3.39769952546452 1.16707045273961  3.1770154381591 1.42899959819806  L 1.94299999999999 2.66666666663377  C 1.94299999999999 2.66666666663377  3.13807118745798 3.86192881250918  3.13807118745798 3.86192881250918  C 3.38471810856404 4.108575733615  3.39769952546421 4.50040378607218  3.17701543815879 4.76233293153109  C 2.93036851705272 5.00897985263691  2.49959621389432 5.06436619209762  2.2376670684355 4.84368210479261  C 2.2376670684355 4.84368210479261  0.52859547920896 3.13807118742488  0.52859547920896 3.13807118742488  Z " fill-rule="nonzero" fill="#5f6a7a" stroke="none" transform="matrix(1 0 0 1 20 885 )" />
  </g>
</svg>