<?xml version="1.0" encoding="utf-8"?>
<svg version="1.1" xmlns:xlink="http://www.w3.org/1999/xlink" width="12px" height="12px" viewBox="165 1249.5  12 12" xmlns="http://www.w3.org/2000/svg">
  <path d="M 171 1249.5  C 174.36 1249.5  177 1252.14  177 1255.5  C 177 1258.86  174.36 1261.5  171 1261.5  C 167.64 1261.5  165 1258.86  165 1255.5  C 165 1252.14  167.64 1249.5  171 1249.5  Z " fill-rule="nonzero" fill="#ffffff" stroke="none" />
  <path d="M 171 1250  C 174.08 1250  176.5 1252.42  176.5 1255.5  C 176.5 1258.58  174.08 1261  171 1261  C 167.92 1261  165.5 1258.58  165.5 1255.5  C 165.5 1252.42  167.92 1250  171 1250  Z " stroke-width="1" stroke="#797979" fill="none" />
  <path d="M 171 1258.5  C 169.32 1258.5  168 1257.18  168 1255.5  C 168 1253.82  169.32 1252.5  171 1252.5  C 172.68 1252.5  174 1253.82  174 1255.5  C 174 1257.18  172.68 1258.5  171 1258.5  " fill-rule="nonzero" fill="#797979" stroke="none" />
</svg>