<?xml version="1.0" encoding="utf-8"?>
<svg version="1.1" xmlns:xlink="http://www.w3.org/1999/xlink" width="12px" height="12px" viewBox="265 1249.5  12 12" xmlns="http://www.w3.org/2000/svg">
  <path d="M 271 1249.5  C 274.36 1249.5  277 1252.14  277 1255.5  C 277 1258.86  274.36 1261.5  271 1261.5  C 267.64 1261.5  265 1258.86  265 1255.5  C 265 1252.14  267.64 1249.5  271 1249.5  Z " fill-rule="nonzero" fill="#ffffff" stroke="none" />
  <path d="M 271 1250  C 274.08 1250  276.5 1252.42  276.5 1255.5  C 276.5 1258.58  274.08 1261  271 1261  C 267.92 1261  265.5 1258.58  265.5 1255.5  C 265.5 1252.42  267.92 1250  271 1250  Z " stroke-width="1" stroke="#797979" fill="none" />
  <path d="M 271 1258.5  C 269.32 1258.5  268 1257.18  268 1255.5  C 268 1253.82  269.32 1252.5  271 1252.5  C 272.68 1252.5  274 1253.82  274 1255.5  C 274 1257.18  272.68 1258.5  271 1258.5  " fill-rule="nonzero" fill="#797979" stroke="none" />
</svg>