<?xml version="1.0" encoding="utf-8"?>
<svg version="1.1" xmlns:xlink="http://www.w3.org/1999/xlink" width="45px" height="40px" xmlns="http://www.w3.org/2000/svg">
  <defs>
    <filter x="1061px" y="145px" width="45px" height="40px" filterUnits="userSpaceOnUse" id="filter1516">
      <feOffset dx="0" dy="8" in="SourceAlpha" result="shadowOffsetInner" />
      <feGaussianBlur stdDeviation="8" in="shadowOffsetInner" result="shadowGaussian" />
      <feComposite in2="shadowGaussian" operator="atop" in="SourceAlpha" result="shadowComposite" />
      <feColorMatrix type="matrix" values="0 0 0 0 0.12156862745098  0 0 0 0 0.152941176470588  0 0 0 0 0.2  0 0 0 0.12156862745098 0  " in="shadowComposite" />
    </filter>
    <g id="widget1517">
      <path d="M 7.32326183198267 2.5899927658398  L 12.9999997291404 0  C 12.9999997291404 0  12.9999997291404 4.68843162516862  12.9999997291404 4.68843162516862  C 13.0001165706409 4.84063217903605  12.962433909716 4.9953032167642  12.8827061598794 5.1425964865959  C 12.7771544722505 5.33759826751891  12.6065661953308 5.50055403762644  12.3938192310167 5.6119564823342  C 12.3938192310167 5.6119564823342  7.56527603537816 7.80049732647045  7.56527603537816 7.80049732647045  C 6.88935141742552 8.06650089117651  6.1106482188508 8.06650089117651  5.43472360089816 7.80049732647045  C 5.43472360089816 7.80049732647045  0.73870460312025 5.6724554915942  0.73870460312025 5.6724554915942  C 0.271304488081968 5.48851471855238  -0.00295351506212299 5.0931892583821  2.3996917697733E-05 4.68110418200775  C 2.3996917697733E-05 4.68110418200775  0 0.0010462075080005  0 0.0010462075080005  C 0 0.0010462075080005  5.67673789715769 2.5899927658398  5.67673789715769 2.5899927658398  C 6.14170672200942 2.8021050882142  6.66771586366146 2.82567312403358  7.1462492033577 2.66069687329793  C 7.1462492033577 2.66069687329793  7.32326183198267 2.5899927658398  7.32326183198267 2.5899927658398  Z " fill-rule="nonzero" fill="#ffffff" stroke="none" transform="matrix(1 0 0 1 1077 153 )" />
    </g>
  </defs>
  <g transform="matrix(1 0 0 1 -1061 -145 )">
    <use xlink:href="#widget1517" filter="url(#filter1516)" />
    <use xlink:href="#widget1517" />
  </g>
</svg>