<?xml version="1.0" encoding="utf-8"?>
<svg version="1.1" xmlns:xlink="http://www.w3.org/1999/xlink" width="5px" height="5px" xmlns="http://www.w3.org/2000/svg">
  <g transform="matrix(1 0 0 1 -683 -148 )">
    <path d="M 2.91666666666652 4.16666666666666  C 1.76607343791659 4.16666666666666  0.833333333333258 3.23392656208333  0.833333333333258 2.08333333333331  C 0.833333333333258 0.932740104583331  1.76607343791659 0  2.91666666666652 0  C 4.06725989541656 0  4.99999999999989 0.932740104583331  4.99999999999989 2.08333333333331  C 4.99999999999989 3.23392656208333  4.06725989541656 4.16666666666666  2.91666666666652 4.16666666666666  Z M 2.91666666666652 2.50000000000006  C 3.1467853123653 2.50000000000006  3.33333333333326 2.31345197903207  3.33333333333326 2.08333333333337  C 3.33333333333326 1.8532146876347  3.1467853123653 1.66666666666671  2.91666666666652 1.66666666666671  C 2.68654802096785 1.66666666666671  2.49999999999989 1.8532146876347  2.49999999999989 2.08333333333337  C 2.49999999999989 2.31345197903207  2.68654802096785 2.50000000000006  2.91666666666652 2.50000000000006  Z " fill-rule="nonzero" fill="#5f6a7a" stroke="none" transform="matrix(1 0 0 1 683 148 )" />
  </g>
</svg>