<?xml version="1.0" encoding="utf-8"?>
<svg version="1.1" xmlns:xlink="http://www.w3.org/1999/xlink" width="19px" height="12px" xmlns="http://www.w3.org/2000/svg">
  <g transform="matrix(1 0 0 1 -675 -146 )">
    <path d="M 3.28200927144715 0.718504736252298  C 1.90129739687019 0.718504736252298  0.782009271447147 1.83779286167534  0.782009271447143 3.21850473625229  C 0.782009271447143 3.21850473625229  0.782009271447124 8.63517140291888  0.782009271447124 8.63517140291888  C 0.782009271447039 10.0158832774957  1.90129739687008 11.1351714029188  3.28200927144706 11.1351714029188  C 3.28200927144706 11.1351714029188  13.042191724216 11.1351714029188  13.042191724216 11.1351714029188  C 13.7052329488149 11.1351714029188  14.3411177310622 10.8717793020053  14.8099586771823 10.4029383558853  C 14.8099586771823 10.4029383558853  18.1075476615051 7.10534937156307  18.1075476615051 7.10534937156307  C 18.7584214810908 6.45447555197777  18.7584214810908 5.39920058719356  18.1075476615051 4.74832676760804  C 18.1075476615051 4.74832676760804  14.8099586771824 1.45073778328586  14.8099586771824 1.45073778328586  C 14.3411177310623 0.981896837165803  13.7052329488149 0.718504736252237  13.0421917242161 0.718504736252237  C 13.0421917242161 0.718504736252237  3.28200927144715 0.718504736252298  3.28200927144715 0.718504736252298  Z M 3.28200927144708 9.46850473625217  C 2.842691856809 9.46850473625225  2.48277380400061 9.12855565683651  2.45096166162687 8.69736404660987  C 2.45096166162687 8.69736404660987  2.44867593811381 3.21850473625225  2.44867593811381 3.21850473625225  C 2.44867593811379 2.7791873216141  2.78862501752951 2.41926926880582  3.21981662775611 2.38745712643191  C 3.21981662775611 2.38745712643191  13.0421917242161 2.38517140291886  13.0421917242161 2.38517140291886  C 13.2386483833565 2.38517140291888  13.427952728462 2.45454216200724  13.5773556303083 2.57971854670332  C 13.5773556303083 2.57971854670332  13.6314473752049 2.62924908526335  13.6314473752049 2.62924908526335  L 16.9290363595278 5.92683806958582  C 16.9290363595278 5.92683806958582  13.6314473752049 9.22442705390773  13.6314473752049 9.22442705390773  C 13.4925315393174 9.36334288979507  13.3096206190179 9.44814874175977  13.1154637435303 9.46527947632132  C 13.1154637435303 9.46527947632132  3.28200927144708 9.46850473625217  3.28200927144708 9.46850473625217  Z " fill-rule="nonzero" fill="#5f6a7a" stroke="none" transform="matrix(1 0 0 1 675 146 )" />
  </g>
</svg>