<?xml version="1.0" encoding="utf-8"?>
<svg version="1.1" xmlns:xlink="http://www.w3.org/1999/xlink" width="17px" height="17px" xmlns="http://www.w3.org/2000/svg">
  <g transform="matrix(1 0 0 1 -674 -145 )">
    <path d="M 11.0127007318594 0.111260745479655  C 11.0127007318594 0.111260745479655  14.0929007256644 0.245182484340773  14.0929007256644 0.245182484340773  C 15.536372230904 0.307942115003357  16.7574138222745 1.52898370637394  16.8201734529372 2.97245521161352  C 16.8201734529372 2.97245521161352  16.9540951917983 6.05265520541857  16.9540951917983 6.05265520541857  C 16.98423342928 6.7458346674992  16.7377728138816 7.3986509352618  16.2689318677616 7.86749188138188  C 16.2689318677616 7.86749188138188  8.75158580095206 15.3848379481913  8.75158580095206 15.3848379481913  C 7.7752750715739 16.3611486775695  6.12041205861681 16.2891981117888  5.05534580838605 15.224131861558  C 5.05534580838605 15.224131861558  1.84122407572011 12.0100101288918  1.84122407572011 12.0100101288918  C 0.776157825489349 10.9449438786611  0.704207259708596 9.29008086570397  1.68051798908675 8.31377013632579  C 1.68051798908675 8.31377013632579  9.19786405589605 0.796424069516348  9.19786405589605 0.796424069516348  C 9.6667050020161 0.327583123396266  10.3195212697788 0.0811225079979181  11.0127007318594 0.111260745479655  Z M 12.3333333333331 3.83333333333141  C 11.6429773960831 3.83333333333141  11.0833333333331 4.39297739608142  11.0833333333331 5.08333333333141  C 11.0833333333331 5.7736892705814  11.6429773960831 6.33333333333141  12.3333333333331 6.33333333333141  C 13.0236892705832 6.33333333333141  13.5833333333331 5.7736892705814  13.5833333333331 5.08333333333141  C 13.5833333333331 4.39297739608142  13.0236892705832 3.83333333333141  12.3333333333331 3.83333333333141  Z " fill-rule="nonzero" fill="#ffffff" stroke="none" transform="matrix(1 0 0 1 674 145 )" />
  </g>
</svg>