<?xml version="1.0" encoding="utf-8"?>
<svg version="1.1" xmlns:xlink="http://www.w3.org/1999/xlink" width="50px" height="41px" xmlns="http://www.w3.org/2000/svg">
  <defs>
    <filter x="1058px" y="137px" width="50px" height="41px" filterUnits="userSpaceOnUse" id="filter283">
      <feOffset dx="0" dy="8" in="SourceAlpha" result="shadowOffsetInner" />
      <feGaussianBlur stdDeviation="8" in="shadowOffsetInner" result="shadowGaussian" />
      <feComposite in2="shadowGaussian" operator="atop" in="SourceAlpha" result="shadowComposite" />
      <feColorMatrix type="matrix" values="0 0 0 0 0.12156862745098  0 0 0 0 0.152941176470588  0 0 0 0 0.2  0 0 0 0.12156862745098 0  " in="shadowComposite" />
    </filter>
    <g id="widget284">
      <path d="M 8.2227946299557 0.167954994401179  C 8.71662079600947 -0.0559849981337265  9.28337920399053 -0.0559849981337265  9.7772053700443 0.167954994401179  C 9.7772053700443 0.167954994401179  17.4492720433797 3.64707917140342  17.4492720433797 3.64707917140342  C 17.9214345840779 3.86119515615203  18.1302146020873 4.41663611927879  17.9155952654062 4.88769128572572  C 17.8216391249207 5.09391000804388  17.6559755524479 5.25918504572468  17.4492720433797 5.35292082859658  C 17.4492720433797 5.35292082859658  9.7772053700443 8.83204500559882  9.7772053700443 8.83204500559882  C 9.28337920399054 9.05598499813373  8.71662079600947 9.05598499813373  8.2227946299557 8.83204500559882  C 8.2227946299557 8.83204500559882  0.550727956620342 5.35292082859658  0.550727956620342 5.35292082859658  C 0.0785654159220689 5.13880484384797  -0.130214602087272 4.58336388072122  0.084404734593761 4.11230871427428  C 0.178360875079316 3.90608999195612  0.344024447552121 3.74081495427531  0.550727956620343 3.64707917140342  C 0.550727956620343 3.64707917140342  8.2227946299557 0.167954994401179  8.2227946299557 0.167954994401179  Z " fill-rule="nonzero" fill="#ffffff" stroke="none" transform="matrix(1 0 0 1 1074 145 )" />
    </g>
  </defs>
  <g transform="matrix(1 0 0 1 -1058 -137 )">
    <use xlink:href="#widget284" filter="url(#filter283)" />
    <use xlink:href="#widget284" />
  </g>
</svg>