<?xml version="1.0" encoding="utf-8"?>
<svg version="1.1" xmlns:xlink="http://www.w3.org/1999/xlink" width="16px" height="16px" xmlns="http://www.w3.org/2000/svg">
  <g transform="matrix(1 0 0 1 -275 -145 )">
    <path d="M 0.0833333333333144 10.0833333333335  C 0.0833333333333144 10.0833333333335  0.0833333333333144 2.58333333333351  0.0833333333333144 2.58333333333351  C 0.0833333333333144 1.20262145875654  1.20262145875631 0.0833333333335133  2.58333333333331 0.0833333333335133  C 2.58333333333331 0.0833333333335133  13.4166666666666 0.0833333333335133  13.4166666666666 0.0833333333335133  C 14.7973785412436 0.0833333333335133  15.9166666666666 1.20262145875654  15.9166666666666 2.58333333333351  C 15.9166666666666 2.58333333333351  15.9166666666666 10.0833333333335  15.9166666666666 10.0833333333335  C 15.9166666666666 11.4640452079106  14.7973785412435 12.5833333333335  13.4166666666666 12.5833333333335  C 13.4166666666666 12.5833333333335  8.83333333333331 12.5833333333335  8.83333333333331 12.5833333333335  L 8.83333333333331 14.2493333333335  C 8.83333333333331 14.2493333333335  11.3333333333333 14.2500000000002  11.3333333333333 14.2500000000002  C 11.7935706248589 14.2500000000002  12.1666666666666 14.6230960418079  12.1666666666666 15.0833333333335  C 12.1666666666666 15.5435706248592  11.7935706248589 15.9166666666669  11.3333333333333 15.9166666666669  C 11.3333333333333 15.9166666666669  4.66666666666663 15.9166666666669  4.66666666666663 15.9166666666669  C 4.206429375141 15.9166666666669  3.83333333333331 15.5435706248592  3.83333333333331 15.0833333333335  C 3.83333333333331 14.6230960418079  4.206429375141 14.2500000000002  4.66666666666663 14.2500000000002  C 4.66666666666663 14.2500000000002  7.16633333333328 14.2493333333335  7.16633333333328 14.2493333333335  L 7.16633333333328 12.5833333333335  C 7.16633333333328 12.5833333333335  2.58333333333331 12.5833333333335  2.58333333333331 12.5833333333335  C 1.20262145875643 12.5833333333335  0.0833333333333144 11.4640452079106  0.0833333333333144 10.0833333333335  Z M 10.0833333333333 8.83333333333346  C 10.5435706248589 8.83333333333346  10.9166666666666 8.46023729152577  10.9166666666666 8.00000000000011  C 10.9166666666666 7.57516557705335  10.5987623470198 7.22458168641069  10.1878648960426 7.17315951638841  C 10.1878648960426 7.17315951638841  10.0833333333333 7.1666666666668  10.0833333333333 7.1666666666668  C 10.0833333333333 7.1666666666668  5.91666666666663 7.1666666666668  5.91666666666663 7.1666666666668  C 5.456429375141 7.1666666666668  5.08333333333331 7.53976270847446  5.08333333333331 8.00000000000011  C 5.08333333333331 8.4248344229469  5.40123765298011 8.77541831358957  5.8121351039573 8.82684048361182  C 5.8121351039573 8.82684048361182  5.91666666666663 8.83333333333346  5.91666666666663 8.83333333333346  C 5.91666666666663 8.83333333333346  10.0833333333333 8.83333333333346  10.0833333333333 8.83333333333346  Z M 10.9166666666666 5.08333333333346  C 10.9166666666666 4.65849891038667  10.5987623470198 4.307915019744  10.1878648960426 4.25649284972175  C 10.1878648960426 4.25649284972175  10.0833333333333 4.25000000000011  10.0833333333333 4.25000000000011  C 10.0833333333333 4.25000000000011  5.91666666666663 4.25000000000011  5.91666666666663 4.25000000000011  C 5.456429375141 4.25000000000011  5.08333333333331 4.62309604180777  5.08333333333331 5.08333333333346  C 5.08333333333331 5.50816775628022  5.40123765298011 5.85875164692288  5.8121351039573 5.91017381694513  C 5.8121351039573 5.91017381694513  5.91666666666663 5.91666666666677  5.91666666666663 5.91666666666677  C 5.91666666666663 5.91666666666677  10.0833333333333 5.91666666666677  10.0833333333333 5.91666666666677  C 10.5435706248589 5.91666666666677  10.9166666666666 5.54357062485909  10.9166666666666 5.08333333333346  Z " fill-rule="nonzero" fill="#ffffff" stroke="none" transform="matrix(1 0 0 1 275 145 )" />
  </g>
</svg>