<?xml version="1.0" encoding="utf-8"?>
<svg version="1.1" xmlns:xlink="http://www.w3.org/1999/xlink" width="14px" height="4px" xmlns="http://www.w3.org/2000/svg">
  <g transform="matrix(1 0 0 1 -271 -454 )">
    <path d="M 0.5 1.5  C 0.5 0.98716416087143  0.886040190196923 0.564492839308173  1.38337887457567 0.50672773132527  C 1.38337887457567 0.50672773132527  1.5 0.5  1.5 0.5  C 1.5 0.5  2.5 0.5  2.5 0.5  C 3.01283583912857 0.5  3.43550716069183 0.886040190196923  3.49327226867467 1.38337887457573  C 3.49327226867467 1.38337887457573  3.5 1.5  3.5 1.5  C 3.5 1.5  3.5 2.5  3.5 2.5  C 3.5 3.01283583912857  3.11395980980308 3.43550716069183  2.61662112542433 3.49327226867467  C 2.61662112542433 3.49327226867467  2.5 3.5  2.5 3.5  C 2.5 3.5  1.5 3.5  1.5 3.5  C 0.98716416087143 3.5  0.564492839308173 3.11395980980308  0.506727731325327 2.61662112542433  C 0.506727731325327 2.61662112542433  0.5 2.5  0.5 2.5  C 0.5 2.5  0.5 1.5  0.5 1.5  Z M 5.5 1.5  C 5.5 0.98716416087143  5.88604019019692 0.564492839308173  6.38337887457567 0.50672773132527  C 6.38337887457567 0.50672773132527  6.5 0.5  6.5 0.5  C 6.5 0.5  7.5 0.5  7.5 0.5  C 8.01283583912857 0.5  8.43550716069183 0.886040190196923  8.49327226867467 1.38337887457573  C 8.49327226867467 1.38337887457573  8.5 1.5  8.5 1.5  C 8.5 1.5  8.5 2.5  8.5 2.5  C 8.5 3.01283583912857  8.11395980980308 3.43550716069183  7.61662112542433 3.49327226867467  C 7.61662112542433 3.49327226867467  7.5 3.5  7.5 3.5  C 7.5 3.5  6.5 3.5  6.5 3.5  C 5.98716416087143 3.5  5.56449283930817 3.11395980980308  5.50672773132533 2.61662112542433  C 5.50672773132533 2.61662112542433  5.5 2.5  5.5 2.5  C 5.5 2.5  5.5 1.5  5.5 1.5  Z M 11.3833788745757 0.50672773132527  C 11.3833788745757 0.50672773132527  11.5 0.5  11.5 0.5  C 11.5 0.5  12.5 0.5  12.5 0.5  C 13.0128358391286 0.5  13.4355071606918 0.886040190196923  13.4932722686747 1.38337887457573  C 13.4932722686747 1.38337887457573  13.5 1.5  13.5 1.5  C 13.5 1.5  13.5 2.5  13.5 2.5  C 13.5 3.01283583912857  13.1139598098031 3.43550716069183  12.6166211254243 3.49327226867467  C 12.6166211254243 3.49327226867467  12.5 3.5  12.5 3.5  C 12.5 3.5  11.5 3.5  11.5 3.5  C 10.9871641608714 3.5  10.5644928393082 3.11395980980308  10.5067277313253 2.61662112542433  C 10.5067277313253 2.61662112542433  10.5 2.5  10.5 2.5  C 10.5 2.5  10.5 1.5  10.5 1.5  C 10.5 0.98716416087143  10.8860401901969 0.564492839308173  11.3833788745757 0.50672773132527  Z " fill-rule="nonzero" fill="#ffffff" stroke="none" fill-opacity="0" transform="matrix(1 0 0 1 271 454 )" />
  </g>
</svg>