<?xml version="1.0" encoding="utf-8"?>
<svg version="1.1" xmlns:xlink="http://www.w3.org/1999/xlink" width="6px" height="9px" xmlns="http://www.w3.org/2000/svg">
  <g transform="matrix(1 0 0 1 -377 -275 )">
    <path d="M 0.115901897456979 3.82269702937433  C 0.135261507827749 3.8017886501739  0.156688804978444 3.78250408273827  0.179920337423425 3.76508043340458  C 0.179920337423425 3.76508043340458  4.89889536983276 0.225849159097572  4.89889536983276 0.225849159097572  C 5.11103381844129 0.0667453226410999  5.42631616895653 0.0925411513196991  5.60309820946367 0.283465755067323  C 5.67797945997626 0.364337505620961  5.71898756966499 0.466277307657901  5.71898756966499 0.571548734916382  C 5.71898756966499 0.571548734916382  5.71898756966499 7.6500112835304  5.71898756966499 7.6500112835304  C 5.71898756966499 7.89853942095433  5.49512994458036 8.1000112835304  5.21898756966499 8.1000112835304  C 5.10201931715551 8.1000112835304  4.9887528704478 8.06310398481054  4.89889536983276 7.99571085934921  C 4.89889536983276 7.99571085934921  0.179920337423425 4.4564795850422  0.179920337423425 4.4564795850422  C -0.0322181111851592 4.29737574858573  -0.0608801430501558 4.01362163312206  0.115901897456979 3.82269702937433  Z " fill-rule="nonzero" fill="#fe7840" stroke="none" transform="matrix(1 0 0 1 377 275 )" />
  </g>
</svg>