<?xml version="1.0" encoding="utf-8"?>
<svg version="1.1" xmlns:xlink="http://www.w3.org/1999/xlink" width="13px" height="12px" xmlns="http://www.w3.org/2000/svg">
  <g transform="matrix(1 0 0 1 -102 -68 )">
    <path d="M 7.3125 6.74999999995862  C 7.3125 6.25336711940898  7.3125 5.74663288487154  7.31248179302926 5.25  C 9.72454679847994 5.25  11.9166666666667 5.25  11.9166666666667 5.25  C 12.3653980259042 5.25  12.7291666666667 5.58578643762691  12.7291666666667 6  C 12.7291666666667 6.37969576550867  12.4234999615815 6.6934909609181  12.0269181038213 6.74315338400365  C 12.0269181038213 6.74315338400365  11.9166666666667 6.75  11.9166666666667 6.75  C 11.9166666666667 6.75  9.72454679574559 6.75  7.3125 6.74999999995862  Z M 1.08333333333333 5.25  C 1.08333333333333 5.25  3.27545320425441 5.25  5.6875 5.25000000004138  C 5.6875 5.74663288059104  5.6875 6.25336711512847  5.68751820697074 6.75  C 3.27545320152006 6.75  1.08333333333333 6.75  1.08333333333333 6.75  C 0.634601974095801 6.75  0.270833333333333 6.41421356237311  0.270833333333333 6  C 0.270833333333333 5.62030423449133  0.576500038418454 5.30650903908189  0.973081896178679 5.25684661599635  C 0.973081896178679 5.25684661599635  1.08333333333333 5.25  1.08333333333333 5.25  Z M 7.3125 1  C 7.3125 1  7.3125 3.02349526546564  7.31249999995517 5.25  C 6.77448104602636 5.25  6.22551895861082 5.25  5.6875 5.25001680643454  C 5.6875 3.02349526294157  5.6875 1  5.6875 1  C 5.6875 0.585786437626908  6.05126864076247 0.25  6.5 0.25  C 6.91133707930109 0.25  7.25128187432794 0.532153881617049  7.30508283267065 0.898229442626487  C 7.30508283267065 0.898229442626487  7.3125 1  7.3125 1  Z M 5.68750000004483 6.75  C 6.22551895397364 6.75  6.77448104138917 6.75  7.3125 6.74998319356547  C 7.3125 8.97650473705843  7.3125 11  7.3125 11  C 7.3125 11.4142135623731  6.94873135923753 11.75  6.5 11.75  C 6.08866292069897 11.75  5.74871812567206 11.4678461183829  5.69491716732935 11.1017705573735  C 5.69491716732935 11.1017705573735  5.6875 11  5.6875 11  C 5.6875 11  5.6875 8.97650473453436  5.68750000004483 6.75  Z " fill-rule="nonzero" fill="#5f6a7a" stroke="none" transform="matrix(1 0 0 1 102 68 )" />
  </g>
</svg>