<?xml version="1.0" encoding="utf-8"?>
<svg version="1.1" xmlns:xlink="http://www.w3.org/1999/xlink" width="4px" height="7px" xmlns="http://www.w3.org/2000/svg">
  <g transform="matrix(1 0 0 1 -74 -24 )">
    <path d="M 0.0662027780991139 3.20592904582288  C 0.0772609231129991 3.18987787798087  0.0895001239341582 3.1750732952965  0.102769897950839 3.16169732209481  C 0.102769897950839 3.16169732209481  2.79823273143743 0.44466245913722  2.79823273143743 0.44466245913722  C 2.91940550727345 0.3225199267685  3.09949373660957 0.342323144022842  3.20047104980627 0.488894182865291  C 3.24324297088983 0.55097867202474  3.26666666666665 0.629236907949586  3.26666666666665 0.710052801505647  C 3.26666666666665 0.710052801505647  3.26666666666665 6.14412252742083  3.26666666666665 6.14412252742083  C 3.26666666666665 6.33491526219029  3.13879993622963 6.4895833333328  2.98106833069601 6.4895833333328  C 2.91425645413979 6.4895833333328  2.84955903673772 6.4612499440888  2.79823273143743 6.40951286978925  C 2.79823273143743 6.40951286978925  0.102769897950839 3.69247800683166  0.102769897950839 3.69247800683166  C -0.0184028778851825 3.57033547446294  -0.0347745350975856 3.35250008466533  0.0662027780991139 3.20592904582288  Z " fill-rule="nonzero" fill="#ffffff" stroke="none" fill-opacity="0" transform="matrix(1 0 0 1 74 24 )" />
  </g>
</svg>