<?xml version="1.0" encoding="utf-8"?>
<svg version="1.1" xmlns:xlink="http://www.w3.org/1999/xlink" width="16px" height="17px" xmlns="http://www.w3.org/2000/svg">
  <g transform="matrix(1 0 0 1 -475 -144 )">
    <path d="M 0.0833333333333144 13.1666666666663  C 0.0833333333333144 11.3257175005637  1.575717500564 9.833333333333  3.41666666666663 9.833333333333  C 3.41666666666663 9.833333333333  12.5833333333333 9.833333333333  12.5833333333333 9.833333333333  C 14.4242824994359 9.833333333333  15.9166666666666 11.3257175005637  15.9166666666666 13.1666666666663  C 15.9166666666666 15.007615832769  14.4242824994359 16.4999999999997  12.5833333333333 16.4999999999997  C 12.5833333333333 16.4999999999997  3.41666666666663 16.4999999999997  3.41666666666663 16.4999999999997  C 1.575717500564 16.4999999999997  0.0833333333333144 15.007615832769  0.0833333333333144 13.1666666666663  Z M 8 8.99999999999974  C 5.69881354249998 8.99999999999974  3.83333333333331 7.13451979083308  3.83333333333331 4.83333333333306  C 3.83333333333331 2.53214687583306  5.69881354249998 0.666666666666401  8 0.666666666666401  C 10.3011864575 0.666666666666401  12.1666666666666 2.53214687583306  12.1666666666666 4.83333333333306  C 12.1666666666666 7.13451979083308  10.3011864575 8.99999999999974  8 8.99999999999974  Z " fill-rule="nonzero" fill="#ffffff" stroke="none" transform="matrix(1 0 0 1 475 144 )" />
  </g>
</svg>