<?xml version="1.0" encoding="utf-8"?>
<svg version="1.1" xmlns:xlink="http://www.w3.org/1999/xlink" width="13px" height="13px" xmlns="http://www.w3.org/2000/svg">
  <g transform="matrix(1 0 0 1 -1320 -340 )">
    <path d="M 8.01232363371929 4.97065696705256  C 7.77366989987127 5.20931070090056  7.77366989987127 5.59624485465479  8.01232363371929 5.83489858850279  C 8.23841664473315 6.06099159951668  8.59759235948559 6.0728912316753  8.8376940761562 5.87059748497866  L 11.6527777777777 3.058861111111  C 11.6527777777777 3.058861111111  11.6527777777777 4.33333333333332  11.6527777777777 4.33333333333332  C 11.6527777777777 4.65549943740129  11.902073769349 4.91943934279391  12.218280950182 4.94276824720137  C 12.54044705425 4.94276824720137  12.8499948983497 4.69514845287302  12.8733238027571 4.37894127204014  C 12.8733238027571 4.37894127204014  12.8749999999999 1.58333333333323  12.8749999999999 1.58333333333323  C 12.8749999999999 1.26116722926526  12.6257040084284 0.997227323872501  12.3094968275955 0.973898419465037  C 12.3094968275955 0.973898419465037  9.51388888888874 0.972222222222115  9.51388888888874 0.972222222222115  C 9.1763815417699 0.972222222222115  8.9027777777776 1.24582598621443  8.9027777777776 1.58333333333324  C 8.9027777777776 1.90549943740121  9.15207376934904 2.16943934279412  9.46828095018191 2.19276824720158  L 10.788361111111 2.19444444444433  C 10.788361111111 2.19444444444433  8.01232363371929 4.97065696705256  8.01232363371929 4.97065696705256  Z M 5.83489858850277 8.87656525516948  C 6.07355232235085 8.63791152132148  6.07355232235085 8.25097736756726  5.83489858850277 8.01232363371926  C 5.60880557748891 7.78623062270536  5.24962986273647 7.77433099054674  5.0095281460658 7.97662473724338  L 2.19444444444429 10.788361111111  C 2.19444444444429 10.788361111111  2.19444444444434 9.51388888888872  2.19444444444434 9.51388888888872  C 2.19444444444434 9.19172278482075  1.9451484528729 8.92778287942813  1.62894127204009 8.90445397502067  C 1.30677516797203 8.90445397502067  0.997227323872323 9.15207376934902  0.973898419464888 9.4682809501819  C 0.973898419464888 9.4682809501819  0.972222222222115 12.2638888888888  0.972222222222115 12.2638888888888  C 0.972222222222115 12.5860549929568  1.22151821379367 12.8499948983495  1.53772539462648 12.873323802757  C 1.53772539462648 12.873323802757  4.33333333333331 12.8749999999999  4.33333333333331 12.8749999999999  C 4.67084068045222 12.8749999999999  4.94444444444446 12.6013962360076  4.94444444444446 12.2638888888888  C 4.94444444444446 11.9417227848208  4.69514845287301 11.6777828794279  4.37894127204021 11.6544539750205  L 3.05886111111101 11.6527777777777  C 3.05886111111101 11.6527777777777  5.83489858850277 8.87656525516948  5.83489858850277 8.87656525516948  Z " fill-rule="nonzero" fill="#5f6a7a" stroke="none" transform="matrix(1 0 0 1 1320 340 )" />
  </g>
</svg>