<?xml version="1.0" encoding="utf-8"?>
<svg version="1.1" xmlns:xlink="http://www.w3.org/1999/xlink" width="38px" height="41px" xmlns="http://www.w3.org/2000/svg">
  <defs>
    <filter x="1161px" y="267px" width="38px" height="41px" filterUnits="userSpaceOnUse" id="filter743">
      <feOffset dx="0" dy="8" in="SourceAlpha" result="shadowOffsetInner" />
      <feGaussianBlur stdDeviation="8" in="shadowOffsetInner" result="shadowGaussian" />
      <feComposite in2="shadowGaussian" operator="atop" in="SourceAlpha" result="shadowComposite" />
      <feColorMatrix type="matrix" values="0 0 0 0 0.12156862745098  0 0 0 0 0.152941176470588  0 0 0 0 0.2  0 0 0 0.12156862745098 0  " in="shadowComposite" />
    </filter>
    <g id="widget744">
      <path d="M 0.115901897456979 3.82269702937454  C 0.135261507827863 3.801788650174  0.156688804978558 3.78250408273838  0.179920337423482 3.76508043340468  C 0.179920337423482 3.76508043340468  4.89889536983264 0.225849159097675  4.89889536983264 0.225849159097675  C 5.11103381844123 0.0667453226413045  5.42631616895665 0.0925411513198014  5.60309820946372 0.283465755067527  C 5.67797945997631 0.364337505621063  5.71898756966493 0.466277307658004  5.71898756966493 0.571548734916485  C 5.71898756966493 0.571548734916485  5.71898756966493 7.6500112835305  5.71898756966493 7.6500112835305  C 5.71898756966493 7.89853942095433  5.49512994458041 8.1000112835305  5.21898756966493 8.1000112835305  C 5.10201931715551 8.1000112835305  4.9887528704478 8.06310398481064  4.89889536983264 7.99571085934931  C 4.89889536983264 7.99571085934931  0.179920337423482 4.4564795850423  0.179920337423482 4.4564795850423  C -0.0322181111851023 4.29737574858593  -0.0608801430500989 4.01362163312226  0.115901897456979 3.82269702937454  Z " fill-rule="nonzero" fill="#fe7840" stroke="none" transform="matrix(1 0 0 1 1177 275 )" />
    </g>
  </defs>
  <g transform="matrix(1 0 0 1 -1161 -267 )">
    <use xlink:href="#widget744" filter="url(#filter743)" />
    <use xlink:href="#widget744" />
  </g>
</svg>