<?xml version="1.0" encoding="utf-8"?>
<svg version="1.1" xmlns:xlink="http://www.w3.org/1999/xlink" width="18px" height="18px" xmlns="http://www.w3.org/2000/svg">
  <g transform="matrix(1 0 0 1 -874 -144 )">
    <path d="M 17.3333333333333 9.00000000000006  C 17.3333333333333 13.602372915  13.6023729149999 17.3333333333334  9 17.3333333333334  C 4.39762708499995 17.3333333333334  0.666666666666629 13.602372915  0.666666666666629 9.00000000000006  C 0.666666666666629 4.39762708500004  4.39762708499995 0.666666666666714  9 0.666666666666714  C 13.6023729149999 0.666666666666714  17.3333333333333 4.39762708500004  17.3333333333333 9.00000000000006  Z M 7.83217148130802 12.7500000000005  C 7.83217148130802 13.2102372915261  8.20526752311571 13.5833333333338  8.66550481464128 13.5833333333338  C 9.12574210616697 13.5833333333338  9.49883814797465 13.2102372915261  9.49883814797465 12.7500000000005  C 9.49883814797465 12.2897627084748  9.12574210616697 11.9166666666671  8.66550481464128 11.9166666666671  C 8.20526752311571 11.9166666666671  7.83217148130802 12.2897627084748  7.83217148130802 12.7500000000005  Z M 9.77152544642001 9.41982759654994  C 10.9451229918997 9.00867730659755  11.8155048146624 8.13582071398181  11.8155048146624 6.83435504470003  C 11.8155048146624 5.54444444444462  10.9442926934503 4.43333333333351  9.06297956213712 4.43333333333351  C 7.94099541691651 4.43333333333351  6.90792399021473 4.92047964552461  6.34972809950045 5.91199576277558  C 6.34972809950045 5.91199576277558  6.25072554688234 6.1038198233675  6.25072554688234 6.1038198233675  L 6.1679522354699 6.29586404145712  C 6.1679522354699 6.29586404145712  6.14168187373798 6.38285968805903  6.14168187373798 6.38285968805903  C 6.08508740268758 6.64568002788138  6.2255150060447 6.9182951551559  6.48392345553395 7.01964812704105  L 6.94389285463069 7.10103691436888  C 6.94389285463069 7.10103691436888  7.07420445834998 7.11126728586279  7.07420445834998 7.11126728586279  C 7.42007574857598 7.11575735489717  7.74781875974895 6.94029269086511  7.93460817553375 6.64181665044899  C 7.97684078578834 6.57433197937013  8.01721936189404 6.52052622668364  8.0557439038505 6.48039939238953  C 8.32426894276171 6.20070600233285  8.67631487294784 6.06807151979584  9.03772703688458 6.06807151979584  C 9.59328259244012 6.06807151979584  10.0730805722382 6.38735632183926  10.0730805722382 6.94929757343567  C 10.0730805722382 7.63378944445708  9.62538240156027 8.08367532214723  9.01555334409159 8.35601193074521  C 9.01555334409159 8.35601193074521  8.87207547907678 8.41573304853711  8.87207547907678 8.41573304853711  L 8.72362137124617 8.46930646371467  C 8.72362137124617 8.46930646371467  8.61196938509238 8.51352818796445  8.61196938509238 8.51352818796445  C 8.25456274279099 8.67774710328413  8.00954886031855 9.01872553379587  7.96745722742389 9.40922822708859  C 7.96745722742389 9.40922822708859  7.9610665051124 9.54105548952043  7.9610665051124 9.54105548952043  L 7.96892958470585 10.3045876321127  C 7.96892958470585 10.3045876321127  7.97613587557805 10.4046217823548  7.97613587557805 10.4046217823548  C 8.02910288124428 10.7976856559032  8.36583435998216 11.1000000000002  8.77257552173307 11.1000000000002  C 9.1771063607647 11.1000000000002  9.51303263465638 10.8024532179129  9.57150267739485 10.4129850030527  C 9.57150267739485 10.4129850030527  9.58041305922802 10.3046418445806  9.58041305922802 10.3046418445806  L 9.59328259244012 9.47803320561957  C 9.59328259244012 9.47803320561957  9.77152544642001 9.41982759654994  9.77152544642001 9.41982759654994  Z " fill-rule="nonzero" fill="#ffffff" stroke="none" transform="matrix(1 0 0 1 874 144 )" />
  </g>
</svg>