<?xml version="1.0" encoding="utf-8"?>
<svg version="1.1" xmlns:xlink="http://www.w3.org/1999/xlink" width="16px" height="18px" xmlns="http://www.w3.org/2000/svg">
  <g transform="matrix(1 0 0 1 -1275 -144 )">
    <path d="M 3.41666666666697 17.3333333333346  C 2.03595479209002 17.3333333333346  0.91666666666697 16.2140452079115  0.91666666666697 14.8333333333346  C 0.91666666666697 14.8333333333346  0.91666666666697 3.16666666666791  0.91666666666697 3.16666666666791  C 0.91666666666697 1.78595479209093  2.03595479209002 0.666666666667908  3.41666666666697 0.666666666667908  C 3.41666666666697 0.666666666667908  8.42647908384129 0.666666666667908  8.42647908384129 0.666666666667908  C 8.56456004997995 0.666666666667908  8.70190491163544 0.673806191934887  8.83802013322406 0.687880813336676  C 8.83802013322406 0.687880813336676  8.83333333333348 5.97247460533393  8.83333333333348 5.97247460533393  C 8.83333333333348 6.49393748171957  9.25606251828117 6.91666666666714  9.77752539466678 6.91666666666714  C 9.77752539466678 6.91666666666714  14.9705817319993 6.91666666666714  14.9705817319993 6.91666666666714  C 14.9846563534013 7.05278188825585  15.0833333333337 7.18543995002159  15.0833333333337 7.32352091616028  C 15.0833333333337 7.32352091616028  15.0833333333337 14.8333333333346  15.0833333333337 14.8333333333346  C 15.0833333333337 16.2140452079115  13.9640452079107 17.3333333333346  12.5833333333337 17.3333333333346  C 12.5833333333337 17.3333333333346  3.41666666666697 17.3333333333346  3.41666666666697 17.3333333333346  Z M 5.81213510395696 12.326840483613  C 5.81213510395696 12.326840483613  5.91666666666629 12.3333333333346  5.91666666666629 12.3333333333346  C 5.91666666666629 12.3333333333346  10.083333333333 12.3333333333346  10.083333333333 12.3333333333346  C 10.5435706248586 12.3333333333346  10.9166666666663 11.9602372915269  10.9166666666663 11.5000000000013  C 10.9166666666663 11.0397627084756  10.5435706248586 10.6666666666679  10.083333333333 10.6666666666679  C 10.083333333333 10.6666666666679  5.91666666666629 10.6666666666679  5.91666666666629 10.6666666666679  C 5.45642937514071 10.6666666666679  5.08333333333303 11.0397627084756  5.08333333333303 11.5000000000013  C 5.08333333333303 11.924834422948  5.40123765297972 12.2754183135907  5.81213510395696 12.326840483613  Z M 5.91666666666629 9.41666666666796  C 5.91666666666629 9.41666666666796  10.083333333333 9.41666666666796  10.083333333333 9.41666666666796  C 10.5435706248586 9.41666666666796  10.9166666666663 9.04357062486031  10.9166666666663 8.58333333333462  C 10.9166666666663 8.12309604180896  10.5435706248586 7.75000000000131  10.083333333333 7.75000000000131  C 10.083333333333 7.75000000000131  5.91666666666629 7.75000000000131  5.91666666666629 7.75000000000131  C 5.45642937514071 7.75000000000131  5.08333333333303 8.12309604180896  5.08333333333303 8.58333333333462  C 5.08333333333303 9.00816775628141  5.40123765297972 9.35875164692408  5.81213510395696 9.41017381694633  C 5.81213510395696 9.41017381694633  5.91666666666629 9.41666666666796  5.91666666666629 9.41666666666796  Z M 10.083333333333 3.66666666666649  C 10.083333333333 3.66666666666649  10.083333333333 3.08088022903959  10.083333333333 3.08088022903959  C 10.083333333333 2.5285954792088  10.5310485835023 2.08088022903959  11.083333333333 2.08088022903959  C 11.3485498231726 2.08088022903959  11.6029037360715 2.18623706940502  11.7904401145195 2.37377344785304  C 11.7904401145195 2.37377344785304  13.3762265521464 3.95955988547993  13.3762265521464 3.95955988547993  C 13.7667508438976 4.35008417723122  13.7667508438976 4.98324915610178  13.3762265521464 5.37377344785304  C 13.1886901736984 5.56130982630106  12.9343362607995 5.66666666666649  12.6691197709599 5.66666666666649  C 12.6691197709599 5.66666666666649  12.083333333333 5.66666666666649  12.083333333333 5.66666666666649  C 10.9787638336713 5.66666666666649  10.083333333333 4.77123616632807  10.083333333333 3.66666666666649  Z " fill-rule="nonzero" fill="#ffffff" stroke="none" transform="matrix(1 0 0 1 1275 144 )" />
  </g>
</svg>