<?xml version="1.0" encoding="utf-8"?>
<svg version="1.1" xmlns:xlink="http://www.w3.org/1999/xlink" width="92px" height="110px" xmlns="http://www.w3.org/2000/svg">
  <g transform="matrix(1 0 0 1 -256 -174 )">
    <path d="M 257 178  A 3 3 0 0 1 260 175 L 344 175  A 3 3 0 0 1 347 178 L 347 280  A 3 3 0 0 1 344 283 L 260 283  A 3 3 0 0 1 257 280 L 257 178  Z " fill-rule="nonzero" fill="#ff3399" stroke="none" fill-opacity="0.0980392156862745" />
    <path d="M 256.5 178  A 3.5 3.5 0 0 1 260 174.5 L 344 174.5  A 3.5 3.5 0 0 1 347.5 178 L 347.5 280  A 3.5 3.5 0 0 1 344 283.5 L 260 283.5  A 3.5 3.5 0 0 1 256.5 280 L 256.5 178  Z " stroke-width="1" stroke-dasharray="9,4" stroke="#ff3399" fill="none" stroke-dashoffset="0.5" />
  </g>
</svg>