<?xml version="1.0" encoding="utf-8"?>
<svg version="1.1" xmlns:xlink="http://www.w3.org/1999/xlink" width="740px" height="196px" xmlns="http://www.w3.org/2000/svg">
  <g transform="matrix(1 0 0 1 -485 -104 )">
    <path d="M 486 108  A 3 3 0 0 1 489 105 L 1221 105  A 3 3 0 0 1 1224 108 L 1224 296  A 3 3 0 0 1 1221 299 L 489 299  A 3 3 0 0 1 486 296 L 486 108  Z " fill-rule="nonzero" fill="#ff3399" stroke="none" fill-opacity="0.0980392156862745" />
    <path d="M 485.5 108  A 3.5 3.5 0 0 1 489 104.5 L 1221 104.5  A 3.5 3.5 0 0 1 1224.5 108 L 1224.5 296  A 3.5 3.5 0 0 1 1221 299.5 L 489 299.5  A 3.5 3.5 0 0 1 485.5 296 L 485.5 108  Z " stroke-width="1" stroke-dasharray="9,4" stroke="#ff3399" fill="none" stroke-dashoffset="0.5" />
  </g>
</svg>