<?xml version="1.0" encoding="utf-8"?>
<svg version="1.1" xmlns:xlink="http://www.w3.org/1999/xlink" width="8px" height="10px" xmlns="http://www.w3.org/2000/svg">
  <g transform="matrix(1 0 0 1 -541 -743 )">
    <path d="M 3.3333333333333 2.33052370626865  L 3.94541509377743 2.33052273768044  L 3.99982471845287 2.27617528154587  C 3.99982471845287 2.27617528154587  4.01898725003475 2.29533641925445  4.05417638678659 2.33052370626865  L 4.66666666666663 2.33052370626865  L 4.66668109644388 2.94298315270134  C 5.51237400605932 3.78861454699108  6.8619288125423 5.13807118745717  6.8619288125423 5.13807118745717  C 7.10857573364837 5.38471810856208  7.50040378610558 5.39769952546339  7.7623329315644 5.17701543815747  C 8.00897985267046 4.93036851705074  8.06436619213075 4.4995962138928  7.84368210482532 4.23766706843526  C 7.84368210482532 4.23766706843526  4.47140452079103 0.861928812541009  4.47140452079103 0.861928812541009  C 4.22475759968496 0.615281891436098  3.83292954722775 0.602300474534786  3.57100040176893 0.822984561840713  C 3.57100040176893 0.822984561840713  0.195262145875631 4.19526214587495  0.195262145875631 4.19526214587495  C -0.0650873819585485 4.45561167370943  -0.0650873819585485 4.87772165962269  0.195262145875631 5.13807118745717  C 0.441909066981694 5.38471810856208  0.833737119438922 5.39769952546339  1.09566626489773 5.17701543815747  L 3.3333333333333 2.94192841814947  L 3.3333333333333 2.33052370626865  Z M 4.66666666666663 9.60150861488182  L 4.66666253596098 2.94296459356701  C 4.38156566651216 2.65788846193755  4.15373393276823 2.43007330057299  4.05417895031739 2.33052370626865  L 3.94541334964848 2.33052447981754  L 3.3333333333333 2.94190739090482  L 3.3333333333333 9.60150861488182  L 4.66666666666663 9.60150861488182  Z " fill-rule="nonzero" fill="#237ffa" stroke="none" transform="matrix(1 0 0 1 541 743 )" />
  </g>
</svg>