<?xml version="1.0" encoding="utf-8"?>
<svg version="1.1" xmlns:xlink="http://www.w3.org/1999/xlink" width="300px" height="195px" xmlns="http://www.w3.org/2000/svg">
  <g transform="matrix(1 0 0 1 -479 -589 )">
    <path d="M 480 593  A 3 3 0 0 1 483 590 L 775 590  A 3 3 0 0 1 778 593 L 778 780  A 3 3 0 0 1 775 783 L 483 783  A 3 3 0 0 1 480 780 L 480 593  Z " fill-rule="nonzero" fill="#ff3399" stroke="none" fill-opacity="0.0980392156862745" />
    <path d="M 479.5 593  A 3.5 3.5 0 0 1 483 589.5 L 775 589.5  A 3.5 3.5 0 0 1 778.5 593 L 778.5 780  A 3.5 3.5 0 0 1 775 783.5 L 483 783.5  A 3.5 3.5 0 0 1 479.5 780 L 479.5 593  Z " stroke-width="1" stroke-dasharray="9,4" stroke="#ff3399" fill="none" stroke-dashoffset="0.5" />
  </g>
</svg>