<?xml version="1.0" encoding="utf-8"?>
<svg version="1.1" xmlns:xlink="http://www.w3.org/1999/xlink" width="13px" height="5px" xmlns="http://www.w3.org/2000/svg">
  <g transform="matrix(1 0 0 1 -539 -752 )">
    <path d="M 11.6315789473684 0.71428571428573  C 11.6315789473684 0.319796607263734  11.9379104343264 0  12.3157894736843 0  C 12.6764921930714 0  12.9720038574824 0.29138492521344  12.9981233006946 0.660977733979153  C 12.9981233006946 0.660977733979153  13 0.71428571428573  13 0.71428571428573  C 13 0.71428571428573  13 2.85714285714286  13 2.85714285714286  C 13 4.01371319363916  12.1223033273991 4.95627562922681  11.0243209849052 4.99852197426566  C 11.0243209849052 4.99852197426566  10.9473684210526 5  10.9473684210526 5  C 10.9473684210526 5  2.05263157894737 5  2.05263157894737 5  C 0.944758940829857 5  0.0418833446353719 4.08372325387817  0.00141579307184046 2.93747795127467  C 0.00141579307184046 2.93747795127467  0 2.85714285714286  0 2.85714285714286  C 0 2.85714285714286  0 0.71428571428573  0 0.71428571428573  C 0 0.319796607263734  0.306331486957898 0  0.684210526315809 0  C 1.04491324570291 0  1.34042491011398 0.29138492521344  1.36654435332617 0.660977733979153  C 1.36654435332617 0.660977733979153  1.36842105263157 0.71428571428573  1.36842105263157 0.71428571428573  C 1.36842105263157 0.71428571428573  1.36842105263158 2.85714285714286  1.36842105263158 2.85714285714286  C 1.36842105263158 3.2337006411184  1.64753713888865 3.54220182923981  2.00156814518002 3.56946937984593  C 2.00156814518002 3.56946937984593  2.05263157894737 3.57142857142857  2.05263157894737 3.57142857142857  C 2.05263157894737 3.57142857142857  10.9473684210526 3.57142857142857  10.9473684210526 3.57142857142857  C 11.3080711404397 3.57142857142857  11.6035828048508 3.28004364621514  11.6297022480629 2.91045083744943  C 11.6297022480629 2.91045083744943  11.6315789473684 2.85714285714286  11.6315789473684 2.85714285714286  C 11.6315789473684 2.85714285714286  11.6315789473684 0.71428571428573  11.6315789473684 0.71428571428573  Z " fill-rule="nonzero" fill="#237ffa" stroke="none" transform="matrix(1 0 0 1 539 752 )" />
  </g>
</svg>