<?xml version="1.0" encoding="utf-8"?>
<svg version="1.1" xmlns:xlink="http://www.w3.org/1999/xlink" width="5px" height="9px" xmlns="http://www.w3.org/2000/svg">
  <g transform="matrix(1 0 0 1 -1275 -903 )">
    <path d="M 0.162718454896381 5.22426406870518  C 0.162718454896381 5.22426406870518  3.49605178822932 8.8242640687062  3.49605178822932 8.8242640687062  C 3.71300972809119 9.05857864375703  4.06476804968615 9.05857864375703  4.28172598954803 8.8242640687062  C 4.48726509046973 8.60228183971076  4.49808293788654 8.24963659249786  4.31417953179865 8.01390036158505  C 4.31417953179865 8.01390036158505  4.28172598954803 7.97573593128159  4.28172598954803 7.97573593128159  L 1.34138888888895 4.79999999999338  C 1.34138888888895 4.79999999999338  4.28172598954746 1.62426406870538  4.28172598954746 1.62426406870538  C 4.48726509046916 1.40228183970994  4.49808293788616 1.04963659249806  4.31417953179827 0.813900361585047  C 4.31417953179827 0.813900361585047  4.28172598954746 0.775735931281179  4.28172598954746 0.775735931281179  C 4.07618688862575 0.55375370228594  3.74966351157886 0.542070427075169  3.53138922369643 0.740686105650093  C 3.53138922369643 0.740686105650093  3.49605178822951 0.775735931281179  3.49605178822951 0.775735931281179  C 3.49605178822951 0.775735931281179  0.162718454896381 4.37573593128138  0.162718454896381 4.37573593128138  C -0.042820646025325 4.59771816027683  -0.0536384934423267 4.95036340748829  0.130264912645566 5.18609963840131  C 0.130264912645566 5.18609963840131  0.162718454896381 5.22426406870518  0.162718454896381 5.22426406870518  Z " fill-rule="nonzero" fill="#929aa6" stroke="none" transform="matrix(1 0 0 1 1275 903 )" />
  </g>
</svg>