<?xml version="1.0" encoding="utf-8"?>
<svg version="1.1" xmlns:xlink="http://www.w3.org/1999/xlink" width="108px" height="55px" xmlns="http://www.w3.org/2000/svg">
  <g transform="matrix(1 0 0 1 -1278 -1 )">
    <path d="M 1279 5  A 3 3 0 0 1 1282 2 L 1382 2  A 3 3 0 0 1 1385 5 L 1385 52  A 3 3 0 0 1 1382 55 L 1282 55  A 3 3 0 0 1 1279 52 L 1279 5  Z " fill-rule="nonzero" fill="#ff3399" stroke="none" fill-opacity="0.0980392156862745" />
    <path d="M 1278.5 5  A 3.5 3.5 0 0 1 1282 1.5 L 1382 1.5  A 3.5 3.5 0 0 1 1385.5 5 L 1385.5 52  A 3.5 3.5 0 0 1 1382 55.5 L 1282 55.5  A 3.5 3.5 0 0 1 1278.5 52 L 1278.5 5  Z " stroke-width="1" stroke-dasharray="9,4" stroke="#ff3399" fill="none" stroke-dashoffset="0.5" />
  </g>
</svg>