<?xml version="1.0" encoding="utf-8"?>
<svg version="1.1" xmlns:xlink="http://www.w3.org/1999/xlink" width="66px" height="22px" xmlns="http://www.w3.org/2000/svg">
  <g transform="matrix(1 0 0 1 -263 -534 )">
    <path d="M 263.5 538  A 3.5 3.5 0 0 1 267 534.5 L 325 534.5  A 3.5 3.5 0 0 1 328.5 538 L 328.5 552  A 3.5 3.5 0 0 1 325 555.5 L 267 555.5  A 3.5 3.5 0 0 1 263.5 552 L 263.5 538  Z " fill-rule="nonzero" fill="#0099ff" stroke="none" fill-opacity="0.0980392156862745" />
    <path d="M 263.5 538  A 3.5 3.5 0 0 1 267 534.5 L 325 534.5  A 3.5 3.5 0 0 1 328.5 538 L 328.5 552  A 3.5 3.5 0 0 1 325 555.5 L 267 555.5  A 3.5 3.5 0 0 1 263.5 552 L 263.5 538  Z " stroke-width="1" stroke="#a7d2f9" fill="none" />
  </g>
</svg>