<?xml version="1.0" encoding="utf-8"?>
<svg version="1.1" xmlns:xlink="http://www.w3.org/1999/xlink" width="66px" height="22px" xmlns="http://www.w3.org/2000/svg">
  <g transform="matrix(1 0 0 1 -263 -534 )">
    <path d="M 264 538  A 3 3 0 0 1 267 535 L 325 535  A 3 3 0 0 1 328 538 L 328 552  A 3 3 0 0 1 325 555 L 267 555  A 3 3 0 0 1 264 552 L 264 538  Z " fill-rule="nonzero" fill="#f56c6c" stroke="none" fill-opacity="0.0980392156862745" />
    <path d="M 263.5 538  A 3.5 3.5 0 0 1 267 534.5 L 325 534.5  A 3.5 3.5 0 0 1 328.5 538 L 328.5 552  A 3.5 3.5 0 0 1 325 555.5 L 267 555.5  A 3.5 3.5 0 0 1 263.5 552 L 263.5 538  Z " stroke-width="1" stroke="#f56c6c" fill="none" stroke-opacity="0.2" />
  </g>
</svg>