<?xml version="1.0" encoding="utf-8"?>
<svg version="1.1" xmlns:xlink="http://www.w3.org/1999/xlink" width="13px" height="13px" xmlns="http://www.w3.org/2000/svg">
  <g transform="matrix(1 0 0 1 -28 -25 )">
    <path d="M 0 1.33333333333334  C 0 0.596953666892261  0.596953666892276 0  1.33333333333333 0  C 1.33333333333333 0  11.3333333333333 0  11.3333333333333 0  C 12.0697129997744 0  12.6666666666667 0.596953666892261  12.6666666666667 1.33333333333334  C 12.6666666666667 1.33333333333334  12.6666666666667 11.3333333333333  12.6666666666667 11.3333333333333  C 12.6666666666667 12.0697129997744  12.0697129997744 12.6666666666667  11.3333333333333 12.6666666666667  C 11.3333333333333 12.6666666666667  1.33333333333333 12.6666666666667  1.33333333333333 12.6666666666667  C 0.596953666892276 12.6666666666667  0 12.0697129997744  0 11.3333333333333  C 0 11.3333333333333  0 1.33333333333334  0 1.33333333333334  Z M 4 10.0000000000001  C 4 9.82905472029051  3.87131993660102 9.68816427976944  3.70554037514142 9.66890924377515  C 3.70554037514142 9.66890924377515  1.66666666666666 9.66666666666671  1.66666666666666 9.66666666666671  C 1.49572138695713 9.66666666666671  1.35483094643605 9.79534673006569  1.33557591044176 9.96112629152529  C 1.33557591044176 9.96112629152529  1.33333333333333 11  1.33333333333333 11  C 1.33333333333333 11.1709452797096  1.4620133967323 11.3118357202306  1.6277929581919 11.3310907562249  C 1.6277929581919 11.3310907562249  3.66666666666666 11.3333333333334  3.66666666666666 11.3333333333334  C 3.83761194637619 11.3333333333334  3.97850238689728 11.2046532699344  3.99775742289157 11.0388737084748  C 3.99775742289157 11.0388737084748  4 10.0000000000001  4 10.0000000000001  Z M 7.37220704180809 9.66890924377515  C 7.37220704180809 9.66890924377515  5.33333333333333 9.66666666666671  5.33333333333333 9.66666666666671  C 5.1623880536238 9.66666666666671  5.02149761310272 9.79534673006569  5.00224257710843 9.96112629152529  C 5.00224257710843 9.96112629152529  5 11  5 11  C 5 11.1709452797096  5.12868006339897 11.3118357202306  5.29445962485858 11.3310907562249  C 5.29445962485858 11.3310907562249  7.33333333333333 11.3333333333334  7.33333333333333 11.3333333333334  C 7.50427861304286 11.3333333333334  7.64516905356394 11.2046532699344  7.66442408955824 11.0388737084748  C 7.66442408955824 11.0388737084748  7.66666666666666 10.0000000000001  7.66666666666666 10.0000000000001  C 7.66666666666666 9.82905472029051  7.53798660326769 9.68816427976944  7.37220704180809 9.66890924377515  Z M 8.99999999999999 9.66666666666671  C 8.82905472029046 9.66666666666671  8.68816427976938 9.79534673006569  8.66890924377509 9.96112629152529  C 8.66890924377509 9.96112629152529  8.66666666666666 11  8.66666666666666 11  C 8.66666666666666 11.1709452797096  8.79534673006563 11.3118357202306  8.96112629152524 11.3310907562249  C 8.96112629152524 11.3310907562249  11 11.3333333333334  11 11.3333333333334  C 11.1709452797095 11.3333333333334  11.3118357202306 11.2046532699344  11.3310907562249 11.0388737084748  C 11.3310907562249 11.0388737084748  11.3333333333333 10.0000000000001  11.3333333333333 10.0000000000001  C 11.3333333333333 9.82905472029051  11.2046532699344 9.68816427976944  11.0388737084748 9.66890924377515  C 11.0388737084748 9.66890924377515  8.99999999999999 9.66666666666671  8.99999999999999 9.66666666666671  Z M 1.33557591044176 6.96112629152529  C 1.33557591044176 6.96112629152529  1.33333333333333 8.00000000000003  1.33333333333333 8.00000000000003  C 1.33333333333333 8.17094527970957  1.4620133967323 8.31183572023065  1.6277929581919 8.33109075622494  C 1.6277929581919 8.33109075622494  3.66666666666666 8.33333333333337  3.66666666666666 8.33333333333337  C 3.83761194637619 8.33333333333337  3.97850238689728 8.2046532699344  3.99775742289157 8.0388737084748  C 3.99775742289157 8.0388737084748  4 7.00000000000006  4 7.00000000000006  C 4 6.82905472029051  3.87131993660102 6.68816427976944  3.70554037514142 6.66890924377515  C 3.70554037514142 6.66890924377515  1.66666666666666 6.66666666666671  1.66666666666666 6.66666666666671  C 1.49572138695713 6.66666666666671  1.35483094643605 6.79534673006569  1.33557591044176 6.96112629152529  Z M 5 8.00000000000003  C 5 8.17094527970957  5.12868006339897 8.31183572023065  5.29445962485858 8.33109075622494  C 5.29445962485858 8.33109075622494  7.33333333333333 8.33333333333337  7.33333333333333 8.33333333333337  C 7.50427861304286 8.33333333333337  7.64516905356394 8.2046532699344  7.66442408955824 8.0388737084748  C 7.66442408955824 8.0388737084748  7.66666666666666 7.00000000000006  7.66666666666666 7.00000000000006  C 7.66666666666666 6.82905472029051  7.53798660326769 6.68816427976944  7.37220704180809 6.66890924377515  C 7.37220704180809 6.66890924377515  5.33333333333333 6.66666666666671  5.33333333333333 6.66666666666671  C 5.1623880536238 6.66666666666671  5.02149761310272 6.79534673006569  5.00224257710843 6.96112629152529  C 5.00224257710843 6.96112629152529  5 8.00000000000003  5 8.00000000000003  Z M 8.96112629152524 8.33109075622494  C 8.96112629152524 8.33109075622494  11 8.33333333333337  11 8.33333333333337  C 11.1709452797095 8.33333333333337  11.3118357202306 8.2046532699344  11.3310907562249 8.0388737084748  C 11.3310907562249 8.0388737084748  11.3333333333333 7.00000000000006  11.3333333333333 7.00000000000006  C 11.3333333333333 6.82905472029051  11.2046532699344 6.68816427976944  11.0388737084748 6.66890924377515  C 11.0388737084748 6.66890924377515  8.99999999999999 6.66666666666671  8.99999999999999 6.66666666666671  C 8.82905472029046 6.66666666666671  8.68816427976938 6.79534673006569  8.66890924377509 6.96112629152529  C 8.66890924377509 6.96112629152529  8.66666666666666 8.00000000000003  8.66666666666666 8.00000000000003  C 8.66666666666666 8.17094527970957  8.79534673006563 8.31183572023065  8.96112629152524 8.33109075622494  Z M 2.5964912280701 4.00000000000006  C 2.63247970800895 4.00000000000006  2.66214085338195 3.871319936601  2.66619454517022 3.7055403751414  C 2.66619454517022 3.7055403751414  2.66666666666669 3.00000000000006  2.66666666666669 3.00000000000006  C 2.66666666666669 2.82905472029051  2.6395761270038 2.68816427976921  2.60467516669651 2.66890924377492  C 2.60467516669651 2.66890924377492  1.40350877192982 2.66666666666671  1.40350877192982 2.66666666666671  C 1.36752029199097 2.66666666666671  1.33785914661811 2.79534673006569  1.33380545482984 2.96112629152529  C 1.33380545482984 2.96112629152529  1.33333333333333 3.66666666666671  1.33333333333333 3.66666666666671  C 1.33333333333333 3.83761194637626  1.36042387299627 3.97850238689733  1.39532483330356 3.99775742289162  C 1.39532483330356 3.99775742289162  2.5964912280701 4.00000000000006  2.5964912280701 4.00000000000006  Z M 5.33286121183689 3.7055403751414  C 5.33286121183689 3.7055403751414  5.33333333333336 3.00000000000006  5.33333333333336 3.00000000000006  C 5.33333333333336 2.82905472029051  5.30624279367047 2.68816427976921  5.27134183336318 2.66890924377492  C 5.27134183336318 2.66890924377492  4.07017543859649 2.66666666666671  4.07017543859649 2.66666666666671  C 4.03418695865764 2.66666666666671  4.00452581328478 2.79534673006569  4.00047212149651 2.96112629152529  C 4.00047212149651 2.96112629152529  4 3.66666666666671  4 3.66666666666671  C 4 3.83761194637626  4.02709053966294 3.97850238689733  4.06199149997023 3.99775742289162  C 4.06199149997023 3.99775742289162  5.26315789473677 4.00000000000006  5.26315789473677 4.00000000000006  C 5.29914637467562 4.00000000000006  5.32880752004862 3.871319936601  5.33286121183689 3.7055403751414  Z M 8.00000000000002 3.00000000000006  C 8.00000000000002 2.82905472029051  7.97290946033713 2.68816427976921  7.93800850002984 2.66890924377492  C 7.93800850002984 2.66890924377492  6.73684210526315 2.66666666666671  6.73684210526315 2.66666666666671  C 6.7008536253243 2.66666666666671  6.67119247995144 2.79534673006569  6.66713878816317 2.96112629152529  C 6.66713878816317 2.96112629152529  6.66666666666666 3.66666666666671  6.66666666666666 3.66666666666671  C 6.66666666666666 3.83761194637626  6.6937572063296 3.97850238689733  6.72865816663689 3.99775742289162  C 6.72865816663689 3.99775742289162  7.92982456140343 4.00000000000006  7.92982456140343 4.00000000000006  C 7.96581304134228 4.00000000000006  7.99547418671528 3.871319936601  7.99952787850355 3.7055403751414  C 7.99952787850355 3.7055403751414  8.00000000000002 3.00000000000006  8.00000000000002 3.00000000000006  Z " fill-rule="nonzero" fill="#c9ced6" stroke="none" transform="matrix(1 0 0 1 28 25 )" />
  </g>
</svg>