<?xml version="1.0" encoding="utf-8"?>
<svg version="1.1" xmlns:xlink="http://www.w3.org/1999/xlink" width="18px" height="18px" xmlns="http://www.w3.org/2000/svg">
  <g transform="matrix(1 0 0 1 -67 -71 )">
    <path d="M 8.99999999999977 17.3333333333333  C 4.39762708499984 17.3333333333333  0.666666666666515 13.6023729149999  0.666666666666515 9  C 0.666666666666515 4.39762708499995  4.39762708499984 0.666666666666629  8.99999999999977 0.666666666666629  C 13.6023729149998 0.666666666666629  17.3333333333331 4.39762708499995  17.3333333333331 9  C 17.3333333333331 13.6023729149999  13.6023729149998 17.3333333333333  8.99999999999977 17.3333333333333  Z M 13.3392556510046 7.08925565102254  C 13.6646925607973 6.76381874122978  13.6646925607973 6.2361812588365  13.3392556510046 5.91074434904374  C 13.0309469996221 5.60243569766112  12.5411619340474 5.58620892653551  12.2137505022239 5.86206403566723  C 12.2137505022239 5.86206403566723  12.1607443490251 5.91074434904374  12.1607443490251 5.91074434904374  L 7.75000000000773 10.3212500000275  C 7.75000000000773 10.3212500000275  5.83925565100174 8.41074434904328  5.83925565100174 8.41074434904328  C 5.53094699961923 8.10243569766078  5.04116193404673 8.08620892653505  4.71375050222321 8.36206403566689  C 4.71375050222321 8.36206403566689  4.66074434902237 8.41074434904328  4.66074434902237 8.41074434904328  C 4.35243569763986 8.7190530004259  4.33620892651447 9.20883806599409  4.6120640356462 9.53624949781761  C 4.6120640356462 9.53624949781761  4.66074434902237 9.58925565101833  4.66074434902237 9.58925565101833  C 4.66074434902237 9.58925565101833  7.16074434901896 12.0892556510162  7.16074434901896 12.0892556510162  C 7.46905300040146 12.3975643023988  7.95883806597305 12.4137910735242  8.28624949779658 12.1379359643925  C 8.28624949779658 12.1379359643925  8.33925565099651 12.0892556510162  8.33925565099651 12.0892556510162  C 8.33925565099651 12.0892556510162  13.3392556510046 7.08925565102254  13.3392556510046 7.08925565102254  Z " fill-rule="nonzero" fill="#38d677" stroke="none" transform="matrix(1 0 0 1 67 71 )" />
  </g>
</svg>