<?xml version="1.0" encoding="utf-8"?>
<svg version="1.1" xmlns:xlink="http://www.w3.org/1999/xlink" width="7px" height="4px" xmlns="http://www.w3.org/2000/svg">
  <g transform="matrix(1 0 0 1 -1365 -404 )">
    <path d="M 0.859375000001137 0.966796875  C 0.791666666667808 1.02018229166606  0.727864583334465 1.09309895833394  0.667968750001137 1.185546875  L 0.667968750001137 0.87109375  L 0.134765625001137 0.87109375  L 0.134765625001137 3.837890625  L 0.685546875001137 3.837890625  C 0.685546875001137 3.837890625  0.685546875001137 2.728515625  0.685546875001137 2.728515625  C 0.744140625001137 2.818359375  0.804036458334465 2.88671875  0.865234375001137 2.93359375  C 0.977213541667808 3.01822916666606  1.11783854166781 3.060546875  1.28710937500114 3.060546875  C 1.55273437500114 3.060546875  1.76985677083447 2.96223958333394  1.93847656250114 2.765625  C 2.10709635416781 2.56901041666606  2.19140625000114 2.283203125  2.19140625000114 1.908203125  C 2.19140625000114 1.552734375  2.10514322916781 1.283203125  1.93261718750114 1.099609375  C 1.76009114583447 0.916015625  1.54947916666781 0.82421875  1.30078125000114 0.82421875  C 1.13020833333447 0.82421875  0.983072916667808 0.87174479166606  0.859375000001137 0.966796875  Z M 3.37890625000114 0.8203125  C 3.09895833333447 0.8203125  2.87532552083447 0.92447916666606  2.70800781250114 1.1328125  C 2.54069010416781 1.34114583333394  2.45703125000114 1.626953125  2.45703125000114 1.990234375  C 2.45703125000114 2.30533854166606  2.54199218750114 2.5634765625  2.71191406250114 2.7646484375  C 2.88183593750114 2.9658203125  3.09114583333447 3.06640625  3.33984375000114 3.06640625  C 3.49088541666781 3.06640625  3.61718750000114 3.03776041666606  3.71875000000114 2.98046875  C 3.82031250000114 2.92317708333394  3.91080729166781 2.83138020833394  3.99023437500114 2.705078125  L 3.99023437500114 3  L 4.53125000000114 3  L 4.53125000000114 0.125  L 3.96679687500114 0.125  C 3.96679687500114 0.125  3.96679687500114 1.140625  3.96679687500114 1.140625  C 3.90429687500114 1.04036458333394  3.82291666666781 0.9619140625  3.72265625000114 0.9052734375  C 3.62239583333447 0.8486328125  3.50781250000114 0.8203125  3.37890625000114 0.8203125  Z M 0.724609375001137 1.59765625  C 0.800130208334465 1.40625  0.938802083334465 1.310546875  1.14062500000114 1.310546875  C 1.30859375000114 1.310546875  1.43001302083447 1.37369791666606  1.50488281250114 1.5  C 1.57975260416781 1.62630208333394  1.61718750000114 1.771484375  1.61718750000114 1.935546875  C 1.61718750000114 2.134765625  1.57649739583447 2.29427083333394  1.49511718750114 2.4140625  C 1.41373697916781 2.53385416666606  1.29557291666781 2.59375  1.14062500000114 2.59375  C 1.03385416666781 2.59375  0.941406250001137 2.564453125  0.863281250001137 2.505859375  C 0.731770833334465 2.40559895833394  0.666015625001137 2.23177083333394  0.666015625001137 1.984375  C 0.666015625001137 1.828125  0.685546875001137 1.69921875  0.724609375001137 1.59765625  Z M 3.78515625000114 1.408203125  C 3.91666666666781 1.52018229166606  3.98242187500114 1.70638020833394  3.98242187500114 1.966796875  C 3.98242187500114 2.15299479166606  3.94140625000114 2.3046875  3.85937500000114 2.421875  C 3.77734375000114 2.5390625  3.65755208333447 2.59765625  3.50000000000114 2.59765625  C 3.34244791666781 2.59765625  3.22493489583447 2.53873697916606  3.14746093750114 2.4208984375  C 3.06998697916781 2.30305989583394  3.03125000000114 2.14583333333394  3.03125000000114 1.94921875  C 3.03125000000114 1.76692708333394  3.06933593750114 1.6142578125  3.14550781250114 1.4912109375  C 3.22167968750114 1.3681640625  3.34114583333447 1.306640625  3.50390625000114 1.306640625  C 3.61067708333447 1.306640625  3.70442708333447 1.34049479166606  3.78515625000114 1.408203125  Z M 5.12890625000114 1.283203125  L 5.12890625000114 3  L 5.68359375000114 3  L 5.68359375000114 1.283203125  L 6.04882812500114 1.283203125  L 6.04882812500114 0.890625  L 5.68359375000114 0.890625  C 5.68359375000114 0.890625  5.68359375000114 0.7109375  5.68359375000114 0.7109375  C 5.68359375000114 0.66927083333394  5.69759114583447 0.63118489583394  5.72558593750114 0.5966796875  C 5.75358072916781 0.56217447916606  5.80436197916781 0.5458984375  5.87792968750114 0.5478515625  C 5.95149739583447 0.5498046875  6.00390625000114 0.552734375  6.03515625000114 0.556640625  C 6.03515625000114 0.556640625  6.03515625000114 0.103515625  6.03515625000114 0.103515625  C 5.98567708333447 0.099609375  5.94661458333447 0.0966796875  5.91796875000114 0.0947265625  C 5.60937500000114 0.0947265625  5.31901041666781 0.15559895833394  5.23828125000114 0.283203125  C 5.16145833333447 0.369140625  5.12304687500114 0.52604166666606  5.12304687500114 0.75390625  L 5.12304687500114 0.890625  L 4.81835937500114 0.890625  L 4.81835937500114 1.283203125  L 5.12890625000114 1.283203125  Z " fill-rule="nonzero" fill="#ffffff" stroke="none" transform="matrix(1 0 0 1 1365 404 )" />
  </g>
</svg>