<?xml version="1.0" encoding="utf-8"?>
<svg version="1.1" xmlns:xlink="http://www.w3.org/1999/xlink" width="11px" height="13px" xmlns="http://www.w3.org/2000/svg">
  <g transform="matrix(1 0 0 1 -1362 -324 )">
    <path d="M 1.94117647058824 0  C 1.94117647058824 0  7.11764705882353 0  7.11764705882353 0  L 11 3.9  C 11 3.9  11 11.05  11 11.05  C 11 12.12695526217  10.130905690848 13  9.05882352941176 13  C 9.05882352941176 13  1.94117647058824 13  1.94117647058824 13  C 0.86909430915199 13  0 12.12695526217  0 11.05  C 0 11.05  0 1.95  0 1.95  C 0 0.873044737829953  0.869094309151989 0  1.94117647058824 0  Z " fill-rule="nonzero" fill="#ff5959" stroke="none" transform="matrix(1 0 0 1 1362 324 )" />
  </g>
</svg>