<?xml version="1.0" encoding="utf-8"?>
<svg version="1.1" xmlns:xlink="http://www.w3.org/1999/xlink" width="73px" height="22px" xmlns="http://www.w3.org/2000/svg">
  <g transform="matrix(1 0 0 1 -1168 -569 )">
    <path d="M 1168.5 573  A 3.5 3.5 0 0 1 1172 569.5 L 1237 569.5  A 3.5 3.5 0 0 1 1240.5 573 L 1240.5 587  A 3.5 3.5 0 0 1 1237 590.5 L 1172 590.5  A 3.5 3.5 0 0 1 1168.5 587 L 1168.5 573  Z " fill-rule="nonzero" fill="#0099ff" stroke="none" fill-opacity="0.0980392156862745" />
    <path d="M 1168.5 573  A 3.5 3.5 0 0 1 1172 569.5 L 1237 569.5  A 3.5 3.5 0 0 1 1240.5 573 L 1240.5 587  A 3.5 3.5 0 0 1 1237 590.5 L 1172 590.5  A 3.5 3.5 0 0 1 1168.5 587 L 1168.5 573  Z " stroke-width="1" stroke="#a7d2f9" fill="none" />
  </g>
</svg>