<?xml version="1.0" encoding="utf-8"?>
<svg version="1.1" xmlns:xlink="http://www.w3.org/1999/xlink" width="101px" height="22px" xmlns="http://www.w3.org/2000/svg">
  <g transform="matrix(1 0 0 1 -1058 -569 )">
    <path d="M 1059 573  A 3 3 0 0 1 1062 570 L 1155 570  A 3 3 0 0 1 1158 573 L 1158 587  A 3 3 0 0 1 1155 590 L 1062 590  A 3 3 0 0 1 1059 587 L 1059 573  Z " fill-rule="nonzero" fill="#f56c6c" stroke="none" fill-opacity="0.0980392156862745" />
    <path d="M 1058.5 573  A 3.5 3.5 0 0 1 1062 569.5 L 1155 569.5  A 3.5 3.5 0 0 1 1158.5 573 L 1158.5 587  A 3.5 3.5 0 0 1 1155 590.5 L 1062 590.5  A 3.5 3.5 0 0 1 1058.5 587 L 1058.5 573  Z " stroke-width="1" stroke="#f56c6c" fill="none" stroke-opacity="0.2" />
  </g>
</svg>