<?xml version="1.0" encoding="utf-8"?>
<svg version="1.1" xmlns:xlink="http://www.w3.org/1999/xlink" width="143px" height="50px" xmlns="http://www.w3.org/2000/svg">
  <g transform="matrix(1 0 0 1 -413 -429 )">
    <path d="M 414 433  A 3 3 0 0 1 417 430 L 552 430  A 3 3 0 0 1 555 433 L 555 475  A 3 3 0 0 1 552 478 L 417 478  A 3 3 0 0 1 414 475 L 414 433  Z " fill-rule="nonzero" fill="#ff3399" stroke="none" fill-opacity="0.0980392156862745" />
    <path d="M 413.5 433  A 3.5 3.5 0 0 1 417 429.5 L 552 429.5  A 3.5 3.5 0 0 1 555.5 433 L 555.5 475  A 3.5 3.5 0 0 1 552 478.5 L 417 478.5  A 3.5 3.5 0 0 1 413.5 475 L 413.5 433  Z " stroke-width="1" stroke-dasharray="9,4" stroke="#ff3399" fill="none" stroke-dashoffset="0.5" />
  </g>
</svg>