<?xml version="1.0" encoding="utf-8"?>
<svg version="1.1" xmlns:xlink="http://www.w3.org/1999/xlink" width="200px" height="100px" xmlns="http://www.w3.org/2000/svg">
  <g transform="matrix(1 0 0 1 -1012 -14 )">
    <path d="M 1013 18  A 3 3 0 0 1 1016 15 L 1208 15  A 3 3 0 0 1 1211 18 L 1211 110  A 3 3 0 0 1 1208 113 L 1016 113  A 3 3 0 0 1 1013 110 L 1013 18  Z " fill-rule="nonzero" fill="#ff3399" stroke="none" fill-opacity="0.0980392156862745" />
    <path d="M 1012.5 18  A 3.5 3.5 0 0 1 1016 14.5 L 1208 14.5  A 3.5 3.5 0 0 1 1211.5 18 L 1211.5 110  A 3.5 3.5 0 0 1 1208 113.5 L 1016 113.5  A 3.5 3.5 0 0 1 1012.5 110 L 1012.5 18  Z " stroke-width="1" stroke-dasharray="9,4" stroke="#ff3399" fill="none" stroke-dashoffset="0.5" />
  </g>
</svg>