<?xml version="1.0" encoding="utf-8"?>
<svg version="1.1" xmlns:xlink="http://www.w3.org/1999/xlink" width="14px" height="4px" xmlns="http://www.w3.org/2000/svg">
  <g transform="matrix(1 0 0 1 -2216 -385 )">
    <path d="M 2.00000000000045 0.666666666666714  C 2.74666666666712 0.666666666666714  3.33333333333371 1.25333333333339  3.33333333333371 2.00000000000006  C 3.33333333333371 2.7466666666667  2.74666666666712 3.33333333333337  2.00000000000045 3.33333333333337  C 1.25333333333356 3.33333333333337  0.66666666666697 2.7466666666667  0.66666666666697 2.00000000000006  C 0.66666666666697 1.25333333333339  1.25333333333356 0.666666666666714  2.00000000000045 0.666666666666714  Z M 7.00000000000046 0.666666666666714  C 7.74666666666712 0.666666666666714  8.33333333333371 1.25333333333339  8.33333333333371 2.00000000000006  C 8.33333333333371 2.7466666666667  7.74666666666712 3.33333333333337  7.00000000000046 3.33333333333337  C 6.25333333333356 3.33333333333337  5.66666666666697 2.7466666666667  5.66666666666697 2.00000000000006  C 5.66666666666697 1.25333333333339  6.25333333333356 0.666666666666714  7.00000000000046 0.666666666666714  Z M 13.3333333333337 2.00000000000006  C 13.3333333333337 2.7466666666667  12.7466666666671 3.33333333333337  12.0000000000005 3.33333333333337  C 11.2533333333336 3.33333333333337  10.666666666667 2.7466666666667  10.666666666667 2.00000000000006  C 10.666666666667 1.25333333333339  11.2533333333336 0.666666666666714  12.0000000000005 0.666666666666714  C 12.7466666666671 0.666666666666714  13.3333333333337 1.25333333333339  13.3333333333337 2.00000000000006  Z " fill-rule="nonzero" fill="#237ffa" stroke="none" transform="matrix(1 0 0 1 2216 385 )" />
  </g>
</svg>