<?xml version="1.0" encoding="utf-8"?>
<svg version="1.1" xmlns:xlink="http://www.w3.org/1999/xlink" width="13px" height="4px" xmlns="http://www.w3.org/2000/svg">
  <g transform="matrix(1 0 0 1 -1079 -906 )">
    <path d="M 1.38095238095229 0.666666666666742  C 2.12761904761885 0.666666666666742  2.71428571428555 1.25333333333344  2.71428571428555 2  C 2.71428571428555 2.74666666666667  2.12761904761885 3.33333333333337  1.38095238095229 3.33333333333337  C 0.634285714285625 3.33333333333337  0.0476190476189231 2.74666666666667  0.0476190476189231 2  C 0.0476190476189231 1.25333333333344  0.634285714285625 0.666666666666742  1.38095238095229 0.666666666666742  Z M 6.38095238095229 0.666666666666742  C 7.12761904761885 0.666666666666742  7.71428571428555 1.25333333333344  7.71428571428555 2  C 7.71428571428555 2.74666666666667  7.12761904761885 3.33333333333337  6.38095238095229 3.33333333333337  C 5.63428571428562 3.33333333333337  5.04761904761892 2.74666666666667  5.04761904761892 2  C 5.04761904761892 1.25333333333344  5.63428571428562 0.666666666666742  6.38095238095229 0.666666666666742  Z M 12.7142857142856 2  C 12.7142857142856 2.74666666666667  12.1276190476189 3.33333333333337  11.3809523809523 3.33333333333337  C 10.6342857142856 3.33333333333337  10.0476190476189 2.74666666666667  10.0476190476189 2  C 10.0476190476189 1.25333333333344  10.6342857142856 0.666666666666742  11.3809523809523 0.666666666666742  C 12.1276190476189 0.666666666666742  12.7142857142856 1.25333333333344  12.7142857142856 2  Z " fill-rule="nonzero" fill="#5f6a7a" stroke="none" transform="matrix(1 0 0 1 1079 906 )" />
  </g>
</svg>