<?xml version="1.0" encoding="utf-8"?>
<svg version="1.1" xmlns:xlink="http://www.w3.org/1999/xlink" width="12px" height="12px" xmlns="http://www.w3.org/2000/svg">
  <g transform="matrix(1 0 0 1 -397 -381 )">
    <path d="M 6.75 6.74999999995862  C 6.75 6.25336711940898  6.75 5.74663288487156  6.74998319356547 5.25  C 8.97650473705841 5.25  11 5.25  11 5.25  C 11.4142135623731 5.25  11.75 5.58578643762689  11.75 6  C 11.75 6.37969576550867  11.467846118383 6.6934909609181  11.1017705573735 6.74315338400365  C 11.1017705573735 6.74315338400365  11 6.75  11 6.75  C 11 6.75  8.97650473453439 6.75  6.75 6.74999999995862  Z M 1 5.25  C 1 5.25  3.02349526546561 5.25  5.25 5.25000000004135  C 5.25 5.74663288059102  5.25 6.25336711512847  5.25001680643453 6.75  C 3.02349526294159 6.75  1 6.75  1 6.75  C 0.585786437626894 6.75  0.25 6.41421356237311  0.25 6  C 0.25 5.62030423449133  0.532153881617035 5.3065090390819  0.898229442626473 5.25684661599635  C 0.898229442626473 5.25684661599635  1 5.25  1 5.25  Z M 6.75 0.999999999999602  C 6.75 0.999999999999602  6.75 3.02349526546547  6.74999999995862 5.25  C 6.25336711940895 5.25  5.74663288487153 5.25  5.25 5.25001680643453  C 5.25 3.0234952629414  5.25 0.999999999999602  5.25 0.999999999999602  C 5.25 0.585786437626496  5.58578643762689 0.249999999999602  6 0.249999999999602  C 6.3796957655087 0.249999999999602  6.6934909609181 0.532153881616665  6.74315338400368 0.898229442626075  C 6.74315338400368 0.898229442626075  6.75 0.999999999999602  6.75 0.999999999999602  Z M 5.25000000004138 6.75  C 5.74663288059105 6.75  6.25336711512847 6.75  6.75 6.74998319356547  C 6.75 8.97650473705829  6.75 10.9999999999996  6.75 10.9999999999996  C 6.75 11.4142135623727  6.41421356237311 11.7499999999996  6 11.7499999999996  C 5.62030423449136 11.7499999999996  5.3065090390819 11.4678461183825  5.25684661599632 11.1017705573731  C 5.25684661599632 11.1017705573731  5.25 10.9999999999996  5.25 10.9999999999996  C 5.25 10.9999999999996  5.25 8.97650473453419  5.25000000004138 6.75  Z " fill-rule="nonzero" fill="#5f6a7a" stroke="none" transform="matrix(1 0 0 1 397 381 )" />
  </g>
</svg>