<?xml version="1.0" encoding="utf-8"?>
<svg version="1.1" xmlns:xlink="http://www.w3.org/1999/xlink" width="20px" height="17px" xmlns="http://www.w3.org/2000/svg">
  <g transform="matrix(1 0 0 1 -1268 -194 )">
    <path d="M 4.1074434901121 14.5104076400851  C 4.1074434901121 14.5104076400851  4.06508290061666 14.4639026875839  4.06508290061666 14.4639026875839  C 3.78267897064698 14.1299617325546  3.79679916714546 13.6251833214943  4.1074434901121 13.3083261120682  C 4.41575214147747 12.9938512876753  4.90553720708069 12.9772999811284  5.23294863889215 13.2586721924272  C 5.23294863889215 13.2586721924272  5.28595479208969 13.3083261120682  5.28595479208969 13.3083261120682  C 7.88945007025002 15.9638912957916  12.11054992975 15.9638912957916  14.7140452079103 13.3083261120682  C 16.0620968013937 11.933313486715  16.7121470910387 10.1159448030782  16.6641960768452 8.31431099318945  C 16.6641960768452 8.31431099318945  16.1871843353823 8.80052038200395  16.1871843353823 8.80052038200395  C 15.8617474255895 9.13246602999252  15.3341099431974 9.13246602999252  15.0086730334047 8.80052038200395  C 14.6980287104207 8.48366317256005  14.6839085139213 7.97888476153259  14.9663124439068 7.64494380649012  C 14.9663124439068 7.64494380649012  15.0086730334047 7.59843885398661  15.0086730334047 7.59843885398661  L 16.7764399863711 5.795316561961  L 16.8220330770609 5.75210876067304  L 16.883189915005 5.70317543452111  L 16.9371392808639 5.66713756766512  L 16.9876442002836 5.63860186017032  L 17.0511058826289 5.60901387172798  L 17.1039179705915 5.58919099110076  L 17.1686967664742 5.57032306467461  L 17.2472135970248 5.55494163272099  L 17.288833963763 5.54995850586047  L 17.3707947144121 5.54637408322974  L 17.4870137401058 5.55536030261421  L 17.560363402398 5.56975067808087  C 17.6090661403758 5.58338668802664  17.6837590855071 5.60870700163212  17.7299706747942 5.63161135021212  C 17.7935574522419 5.66314704696433  17.8538639073966 5.703282923757  17.9093581976588 5.75210876067304  C 17.9093581976588 5.75210876067304  17.9549512883487 5.795316561961  17.9549512883487 5.795316561961  C 17.9549512883487 5.795316561961  19.722718241315 7.59843885398661  19.722718241315 7.59843885398661  C 20.0481551511078 7.93038450197519  20.0481551511077 8.46857473401537  19.722718241315 8.80052038200395  C 19.4120739183311 9.11737759144746  18.9171931232059 9.13178019187678  18.5898000300273 8.84372818329152  C 18.5898000300273 8.84372818329152  18.5442069393375 8.80052038200395  18.5442069393375 8.80052038200395  C 18.5442069393375 8.80052038200395  18.3329223126439 8.58468574192482  18.3329223126439 8.58468574192482  C 18.312080671906 10.7317107849173  17.4986254043206 12.8722173677639  15.8925565098879 14.5104076400851  C 12.6381874121421 17.8298641197861  7.36181258785791 17.8298641197861  4.1074434901121 14.5104076400851  Z M 14.7670513611078 3.74132780757277  C 14.7670513611078 3.74132780757277  14.7140452079103 3.69167388793182  14.7140452079103 3.69167388793182  C 12.11054992975 1.03610870420839  7.88945007025002 1.03610870420839  5.28595479208969 3.69167388793182  C 4.0903603594253 4.9111802092495  3.44381476099888 6.47864444523484  3.34631799681053 8.07448349614645  C 3.34631799681053 8.07448349614645  3.81281566461771 7.59843885398739  3.81281566461771 7.59843885398739  C 4.13825257441033 7.2664932059992  4.66589005680258 7.26649320599881  4.9913269665953 7.59843885398739  C 5.30197128957928 7.91529606343129  5.31609148607847 8.42007447445912  5.03368755609301 8.75401542950122  C 5.03368755609301 8.75401542950122  4.9913269665953 8.80052038200472  4.9913269665953 8.80052038200472  C 4.9913269665953 8.80052038200472  3.22356001362891 10.6036426740303  3.22356001362891 10.6036426740303  C 3.19397484001139 10.6338195511201  3.16271858728148 10.6612530757472  3.1300950880051 10.6859432479118  C 3.1300950880051 10.6859432479118  3.1050762241504 10.7041562908412  3.1050762241504 10.7041562908412  L 3.06286071913614 10.7318216683262  L 3.01235579971636 10.760357375821  L 2.9668162576787 10.7822529275491  L 2.92786004111145 10.7983394473637  L 2.8960820294085 10.8097682448906  L 2.8313032335258 10.8286361713167  L 2.77003403590143 10.8413170079307  L 2.71116603623696 10.8490007301309  L 2.65281500167542 10.852393493482  L 2.59517302830777 10.8516700769537  L 2.53007526076919 10.8459669124074  L 2.47262483071808 10.8365406122729  L 2.41280033678322 10.8221774806787  C 2.36409759880544 10.8085414707329  2.31624091449286 10.7902522343592  2.27002932520582 10.7673478857792  C 2.20644254775811 10.735812189027  2.14613609260335 10.6956763122343  2.09064180234118 10.6468504753179  C 2.09064180234118 10.6468504753179  2.04504871165132 10.6036426740303  2.04504871165132 10.6036426740303  C 2.04504871165132 10.6036426740303  0.277281758684988 8.80052038200472  0.277281758684988 8.80052038200472  C -0.0481551511074467 8.46857473401653  -0.0481551511077309 7.93038450197596  0.277281758684988 7.59843885398739  C 0.587926081668921 7.28158164454387  1.08280687679449 7.26717904411494  1.4101999699731 7.55523105269981  C 1.4101999699731 7.55523105269981  1.45579306066258 7.59843885398739  1.45579306066258 7.59843885398739  C 1.45579306066258 7.59843885398739  1.69173998555185 7.83909720795898  1.69173998555185 7.83909720795898  C 1.83994647555726 5.88899725388048  2.64518097707736 3.98110012321017  4.1074434901121 2.48959235991488  C 7.32791290975641 -0.795286448122602  12.5284823382992 -0.829503935706362  15.7902038414622 2.3869398971636  C 15.7902038414622 2.3869398971636  15.8925565098879 2.48959235991488  15.8925565098879 2.48959235991488  C 16.2179934196625 2.8215380078849  16.2179934196625 3.35972823996181  15.8925565098879 3.69167388793182  C 15.5842478585225 4.00614871232435  15.0944627929193 4.02270001887159  14.7670513611078 3.74132780757277  Z " fill-rule="nonzero" fill="#5f6a7a" stroke="none" transform="matrix(1 0 0 1 1268 194 )" />
  </g>
</svg>