<?xml version="1.0" encoding="utf-8"?>
<svg version="1.1" xmlns:xlink="http://www.w3.org/1999/xlink" width="20px" height="20px" xmlns="http://www.w3.org/2000/svg">
  <g transform="matrix(1 0 0 1 -1359 -192 )">
    <path d="M 1.05263157894737 20  C 0.471279210704372 20  0 19.5287207892956  0 18.9473684210526  C 0 18.3660160528096  0.471279210704372 17.8947368421053  1.05263157894737 17.8947368421053  C 1.05263157894737 17.8947368421053  18.9473684210526 17.8947368421053  18.9473684210526 17.8947368421053  C 19.5287207892956 17.8947368421053  20 18.3660160528096  20 18.9473684210526  C 20 19.5287207892956  19.5287207892956 20  18.9473684210526 20  C 18.9473684210526 20  1.05263157894737 20  1.05263157894737 20  Z M 6.5626072029016 5.63842168695266  C 6.5626072029016 5.63842168695266  6.62409812506104 5.57146654606844  6.62409812506104 5.57146654606844  L 9.25567707243066 2.93988759869942  C 9.25567707243066 2.93988759869942  9.32263221331476 2.87839667653998  9.32263221331476 2.87839667653998  C 9.71322830742003 2.54930637090913  10.2867716925709 2.54930637090913  10.6773677866761 2.87839667653998  C 10.6773677866761 2.87839667653998  10.7443229275602 2.93988759869942  10.7443229275602 2.93988759869942  L 13.3759018749294 5.57146654606748  C 13.3759018749294 5.57146654606748  13.4373927970882 5.63842168695182  13.4373927970882 5.63842168695182  C 13.7664831027191 6.02901778105709  13.7664831027196 6.60256116620842  13.4373927970887 6.99315726031369  C 13.4373927970887 6.99315726031369  13.3759018749294 7.0601124011979  13.3759018749294 7.0601124011979  C 13.3759018749294 7.0601124011979  13.3089467340437 7.12160332335699  13.3089467340437 7.12160332335699  C 12.9183506399385 7.45069362898795  12.3448072547881 7.45069362898819  11.9542111606829 7.12160332335722  C 11.9542111606829 7.12160332335722  11.8872560197987 7.0601124011979  11.8872560197987 7.0601124011979  L 11.0526315789417 6.22578947363261  L 11.0526315789417 13.7736842104748  L 11.8872560198016 12.9398875987  C 11.8872560198016 12.9398875987  11.9542111606858 12.8783966765406  11.9542111606858 12.8783966765406  C 12.3218310139612 12.5686646241821  12.8515079831795 12.5504450916906  13.2381933795072 12.8237380790657  C 13.2381933795072 12.8237380790657  13.3089467340462 12.8783966765408  13.3089467340462 12.8783966765408  L 13.3759018749314 12.9398875987  C 13.3759018749314 12.9398875987  13.4373927970907 13.0068427395842  13.4373927970907 13.0068427395842  C 13.7471248494492 13.3744625928598  13.7653443819398 13.9041395620794  13.4920513945646 14.2908249584071  C 13.4920513945646 14.2908249584071  13.4373927970895 14.3615783129462  13.4373927970895 14.3615783129462  L 13.3759018749314 14.4285334538302  L 10.7443229275629 17.0601124011985  C 10.7443229275629 17.0601124011985  10.6773677866787 17.1216033233578  10.6773677866787 17.1216033233578  C 10.3097479334031 17.4313353757164  9.78007096418423 17.4495549082079  9.39338556785646 17.1762619208327  C 9.39338556785646 17.1762619208327  9.32263221331739 17.1216033233577  9.32263221331739 17.1216033233577  L 9.25567707243389 17.0601124011985  L 6.62409812506284 14.4285334538291  C 6.62409812506284 14.4285334538291  6.56260720290352 14.361578312945  6.56260720290352 14.361578312945  C 6.21415864400014 13.94800597801  6.23465561805329 13.3293301057096  6.62409812506284 12.9398875987  C 6.99190493723862 12.5720807865244  7.56418225117099 12.5333642799787  7.97503548476913 12.8237380790647  C 7.97503548476913 12.8237380790647  8.0457888393082 12.8783966765397  8.0457888393082 12.8783966765397  L 8.1127439801935 12.9398875987  L 8.94736842104701 13.7742105262642  L 8.94736842104701 6.22526315784314  L 8.11274398019158 7.0601124011979  C 8.11274398019158 7.0601124011979  8.0457888393076 7.12160332335746  8.0457888393076 7.12160332335746  C 7.63221650437261 7.47005188226084  7.01354063207059 7.44955490820757  6.62409812506104 7.0601124011979  C 6.23465561805149 6.67066989418835  6.21415864399835 6.05199402188753  6.5626072029016 5.63842168695266  Z M 0 1.05263157894737  C 0 0.471279210704372  0.471279210704372 0  1.05263157894737 0  C 1.05263157894737 0  18.9473684210526 0  18.9473684210526 0  C 19.5287207892956 0  20 0.471279210704372  20 1.05263157894737  C 20 1.63398394719036  19.5287207892956 2.10526315789474  18.9473684210526 2.10526315789474  C 18.9473684210526 2.10526315789474  1.05263157894737 2.10526315789474  1.05263157894737 2.10526315789474  C 0.471279210704372 2.10526315789474  0 1.63398394719036  0 1.05263157894737  Z " fill-rule="nonzero" fill="#5f6a7a" stroke="none" transform="matrix(1 0 0 1 1359 192 )" />
  </g>
</svg>