<?xml version="1.0" encoding="utf-8"?>
<svg version="1.1" xmlns:xlink="http://www.w3.org/1999/xlink" width="20px" height="20px" xmlns="http://www.w3.org/2000/svg">
  <g transform="matrix(1 0 0 1 -1404 -192 )">
    <path d="M 5.28354813349558 3.02265148427092  C 5.61191072132793 2.80025520425433  5.95680665404123 2.6004293648231  6.31600811696366 2.42540178064844  C 6.31600811696366 2.42540178064844  6.31578947368224 2.10526315789474  6.31578947368224 2.10526315789474  C 6.31578947368224 0.942558421408744  7.2583478950911 0  8.42105263157697 0  C 8.42105263157697 0  11.5789473684191 0  11.5789473684191 0  C 12.741652104905 0  13.6842105263138 0.942558421408744  13.6842105263138 2.10526315789474  C 13.6842105263138 2.10526315789474  13.684515864237 2.42565712275695  13.684515864237 2.42565712275695  C 14.0434210062058 2.60057119009473  14.3880420227382 2.80024345160248  14.7161563498326 3.02245134327892  C 14.7161563498326 3.02245134327892  14.9949373982963 2.86201167026775  14.9949373982963 2.86201167026775  C 16.0018692371935 2.28065930202487  17.2894279853889 2.6256596288115  17.8707803536319 3.63259146770887  C 17.8707803536319 3.63259146770887  19.4497277220529 6.36740853229113  19.4497277220529 6.36740853229113  C 20.0310800902959 7.3743403711885  19.6860797635093 8.66189911938387  18.679147924612 9.24325148762699  C 18.679147924612 9.24325148762699  18.4003218398645 9.40448483746087  18.4003218398645 9.40448483746087  C 18.4140655223127 9.60120427411192  18.4210526315769 9.79978617365161  18.4210526315769 10  C 18.4210526315769 10.2000352234702  18.4140779826031 10.3984414303889  18.4003586043296 10.5949887010813  C 18.4003586043296 10.5949887010813  18.679147924612 10.756748512373  18.679147924612 10.756748512373  C 19.6860797635093 11.3381008806161  20.0310800902959 12.6256596288115  19.4497277220529 13.6325914677089  C 19.4497277220529 13.6325914677089  17.8707803536319 16.3674085322911  17.8707803536319 16.3674085322911  C 17.2894279853889 17.3743403711885  16.0018692371935 17.7193406979751  14.9949373982963 17.1379883297323  C 14.9949373982963 17.1379883297323  14.7161563498326 16.9775486567211  14.7161563498326 16.9775486567211  C 14.3880420227382 17.1997565483975  14.0434210062058 17.3994288099053  13.684515864237 17.574342877243  C 13.684515864237 17.574342877243  13.6842105263138 17.8947368421053  13.6842105263138 17.8947368421053  C 13.6842105263138 19.0574415785913  12.741652104905 20  11.5789473684191 20  C 11.5789473684191 20  8.42105263157697 20  8.42105263157697 20  C 7.2583478950911 20  6.31578947368224 19.0574415785913  6.31578947368224 17.8947368421053  C 6.31578947368224 17.8947368421053  6.31600811696366 17.5745982193516  6.31600811696366 17.5745982193516  C 5.95680665404123 17.3995706351769  5.61191072132793 17.1997447957457  5.28354813349558 16.9773485157291  C 5.28354813349558 16.9773485157291  5.0050626016998 17.1379883297323  5.0050626016998 17.1379883297323  C 3.99813076280255 17.7193406979751  2.71057201460711 17.3743403711885  2.12921964636418 16.3674085322911  C 2.12921964636418 16.3674085322911  0.550272277943122 13.6325914677089  0.550272277943122 13.6325914677089  C -0.0310800902998141 12.6256596288115  0.313920236486757 11.3381008806161  1.32085207538401 10.756748512373  C 1.32085207538401 10.756748512373  1.59964139566628 10.5949887010813  1.59964139566628 10.5949887010813  C 1.58592201739279 10.3984414303889  1.57894736841902 10.2000352234702  1.57894736841902 10  C 1.57894736841902 9.79978617365161  1.58593447768328 9.60120427411192  1.59967816013136 9.40448483746087  C 1.59967816013136 9.40448483746087  1.32085207538401 9.24325148762699  1.32085207538401 9.24325148762699  C 0.313920236486757 8.66189911938387  -0.0310800902998141 7.3743403711885  0.550272277943122 6.36740853229113  C 0.550272277943122 6.36740853229113  2.12921964636418 3.63259146770887  2.12921964636418 3.63259146770887  C 2.71057201460711 2.6256596288115  3.99813076280255 2.28065930202487  5.0050626016998 2.86201167026775  C 5.0050626016998 2.86201167026775  5.28354813349558 3.02265148427092  5.28354813349558 3.02265148427092  Z M 12.9613759002754 4.41962494805131  C 12.9613759002754 4.41962494805131  12.7622071720752 4.31813688231877  12.7622071720752 4.31813688231877  L 11.5805064540731 3.74222961660555  L 11.5789473684191 2.10526315789474  L 8.42105257020325 2.10508343046369  L 8.42217029099815 3.74102694938876  C 8.42217029099815 3.74102694938876  7.23818526400093 4.31794564367273  7.23818526400093 4.31794564367273  C 7.03703379938271 4.41596043074744  6.84125412633911 4.52466020176512  6.65164613435177 4.64351868734148  C 6.65164613435177 4.64351868734148  6.46412499491954 4.76574391964517  6.46412499491954 4.76574391964517  L 5.37307608835883 5.50469904768522  L 3.95243102275243 4.685223046656  L 2.37348365433137 7.4200401112385  L 3.79143052249818 8.23997834159352  C 3.79143052249818 8.23997834159352  3.6998221219235 9.55121010364517  3.6998221219235 9.55121010364517  C 3.68943387450671 9.69990170703017  3.6842105263137 9.84954671289703  3.6842105263137 10  C 3.6842105263137 10  3.68811379941169 10.2248563852007  3.68811379941169 10.2248563852007  L 3.69979447306234 10.448393968936  L 3.7911652596065 11.7573948841559  L 2.37348365433137 12.5799598887615  L 3.95313774715844 15.3143691084068  L 5.37307608835883 14.4953009523148  C 5.37307608835883 14.4953009523148  6.46412499491954 15.2342560803548  6.46412499491954 15.2342560803548  C 6.64952965626023 15.3598285679273  6.84137262848451 15.4754177640694  7.03885402211061 15.5804973993968  C 7.03885402211061 15.5804973993968  7.23818526400093 15.6820543563273  7.23818526400093 15.6820543563273  L 8.42217029099815 16.2589730506112  L 8.42105263157697 17.8947368421053  L 11.5789473684191 17.8947368421053  L 11.5805064540731 16.2577703833944  C 11.5805064540731 16.2577703833944  12.7622071720752 15.6818631176812  12.7622071720752 15.6818631176812  C 12.9631934162242 15.5839115496144  13.1588157797509 15.4752921507569  13.3482762576393 15.3565299612522  C 13.3482762576393 15.3565299612522  13.5356532179069 15.2344062874629  13.5356532179069 15.2344062874629  L 14.6254718046291 14.4963516812842  L 16.0475689772436 15.3147769533438  L 17.6260263373769 12.5796762790962  L 16.2088347403894 11.7573948841563  C 16.2088347403894 11.7573948841563  16.3002055269335 10.448393968936  16.3002055269335 10.448393968936  C 16.3105753943372 10.2998326351058  16.3157894736821 10.1503197357842  16.3157894736821 10  C 16.3157894736821 10  16.3118792686586 9.77494442042826  16.3118792686586 9.77494442042826  L 16.3001778780723 9.55121010364517  L 16.2085694774976 8.23997834159328  L 17.6265163456646 7.4200401112385  L 16.0472530628175 4.68540514822364  L 14.6254718046291 5.50364831871584  C 14.6254718046291 5.50364831871584  13.5356532179069 4.76559371253691  13.5356532179069 4.76559371253691  C 13.3503893310014 4.64012800039463  13.1586975567856 4.52463006551816  12.9613759002754 4.41962494805131  Z M 14.2105263157875 10  C 14.2105263157875 12.325409472842  12.3254094728401 14.2105263157895  9.99999999999802 14.2105263157895  C 7.67459052715594 14.2105263157895  5.78947368420855 12.325409472842  5.78947368420855 10  C 5.78947368420855 7.67459052715798  7.67459052715594 5.78947368421053  9.99999999999802 5.78947368421053  C 12.3254094728401 5.78947368421053  14.2105263157875 7.67459052715798  14.2105263157875 10  Z M 9.99999999999802 12.1052631578947  C 11.1627047363542 12.1052631578947  12.1052631578928 11.1627047363563  12.1052631578928 10  C 12.1052631578928 8.83729526364373  11.1627047363542 7.89473684210526  9.99999999999802 7.89473684210526  C 8.83729526364182 7.89473684210526  7.89473684210329 8.83729526364373  7.89473684210329 10  C 7.89473684210329 11.1627047363563  8.83729526364182 12.1052631578947  9.99999999999802 12.1052631578947  Z " fill-rule="nonzero" fill="#5f6a7a" stroke="none" transform="matrix(1 0 0 1 1404 192 )" />
  </g>
</svg>