<?xml version="1.0" encoding="utf-8"?>
<svg version="1.1" xmlns:xlink="http://www.w3.org/1999/xlink" width="20px" height="20px" xmlns="http://www.w3.org/2000/svg">
  <g transform="matrix(1 0 0 1 -1313 -192 )">
    <path d="M 10 20  C 4.47715250199997 20  0 15.5228474979999  0 10  C 0 4.47715250200008  4.47715250199997 0  10 0  C 15.522847498 0  20 4.47715250200008  20 10  C 20 15.5228474979999  15.522847498 20  10 20  Z M 10 18  C 14.4182779983385 18  18 14.4182779983385  18 10  C 18 5.58172200166155  14.4182779983385 2  10 2  C 5.58172200166155 2  2 5.58172200166155  2 10  C 2 14.4182779983385  5.58172200166155 18  10 18  Z " fill-rule="nonzero" fill="#5f6a7a" stroke="none" transform="matrix(1 0 0 1 1313 192 )" />
  </g>
</svg>