<?xml version="1.0" encoding="utf-8"?>
<svg version="1.1" xmlns:xlink="http://www.w3.org/1999/xlink" width="7px" height="11px" xmlns="http://www.w3.org/2000/svg">
  <g transform="matrix(1 0 0 1 -1320 -197 )">
    <path d="M 2.54029521485791 9.00336386566255  C 2.54029521485791 9.00336386566255  2.59860577757001 9  2.59860577757001 9  C 2.59860577757001 9  3.59860577757001 9  3.59860577757001 9  C 3.85502369713436 9  4.06635935791599 9.19302009509852  4.09524191190735 9.44168943728778  C 4.09524191190735 9.44168943728778  4.09860577757001 9.5  4.09860577757001 9.5  C 4.09860577757001 9.5  4.09860577757001 10.5  4.09860577757001 10.5  C 4.09860577757001 10.7564179195642  3.90558568247161 10.967753580346  3.65691634028212 10.9966361343375  C 3.65691634028212 10.9966361343375  3.59860577757001 11  3.59860577757001 11  C 3.59860577757001 11  2.59860577757001 11  2.59860577757001 11  C 2.34218785800567 11  2.13085219722404 10.8069799049015  2.10196964323268 10.5583105627122  C 2.10196964323268 10.5583105627122  2.09860577757001 10.5  2.09860577757001 10.5  C 2.09860577757001 10.5  2.09860577757001 9.5  2.09860577757001 9.5  C 2.09860577757001 9.24358208043577  2.29162587266842 9.03224641965403  2.54029521485791 9.00336386566255  Z M 0.0622124450892443 2.364353277487  C 0.0757144706095687 2.3239016738919  0.0888245497677644 2.2874628646457  0.101542682563831 2.25503684974842  C 0.689772071213156 0.755293512797834  2.06557181245523 0.0199999999999818  3.57557547456452 0.0199999999999818  C 5.83315123214038 0.0199999999999818  6.87860577759488 1.35333333333324  6.87860577759488 2.9012260536399  C 6.87860577759488 4.49422003284076  5.79195147951202 5.55210415200554  4.34090032658332 6.03273076192704  C 4.34090032658332 6.03273076192704  4.21193911092826 6.07363984674316  4.21193911092826 6.07363984674316  C 4.21193911092826 6.07363984674316  4.19649567107365 7.06557021349659  4.19649567107365 7.06557021349659  C 4.18825179094779 7.59507368640766  3.75665826990291 8.01999999999998  3.22709062607976 8.01999999999998  C 2.72350633057863 8.01999999999998  2.30935239357484 7.63382370255181  2.26634741622672 7.14030342584556  C 2.26634741622672 7.14030342584556  2.26271550164699 7.06550515853496  2.26271550164699 7.06550515853496  C 2.26271550164699 7.06550515853496  2.25063123763732 5.89208145331713  2.25063123763732 5.89208145331713  C 2.24593628919365 5.43618576995641  2.55019772584694 5.03483125749608  2.99041780477921 4.91621760415137  C 2.99041780477921 4.91621760415137  3.11419193938764 4.880597451016  3.11419193938764 4.880597451016  C 3.13310243711203 4.8747452881621  3.15115367248131 4.86893538997583  3.16834564549538 4.86316775645741  C 4.07243925424177 4.55985872977089  4.78769668668576 3.98691506338309  4.78769668668576 3.03915708812269  C 4.78769668668576 2.36482758620696  4.21193911092826 1.98168582375479  3.54527244426151 1.98168582375479  C 3.11157784753743 1.98168582375479  2.68912273131411 2.14084720279925  2.36689268462067 2.47647927086723  C 2.26817980429234 2.57929776501305  2.15932292575178 2.75695788156872  2.04032204899897 3.00945962053447  C 1.95513723922659 3.19020881489269  1.77172597772642 3.30111651204129  1.57564273413345 3.29616704556702  C 1.57564273413345 3.29616704556702  1.51652315606236 3.29116047504954  1.51652315606236 3.29116047504954  C 1.51652315606236 3.29116047504954  0.428629141112992 3.13396068306997  0.428629141112992 3.13396068306997  C 0.405017474689657 3.13054881665744  0.381680262831878 3.12545148037975  0.358796348137048 3.11870773720921  C 0.0939073903969074 3.04064665703527  -0.0575465289240355 2.76263072038796  0.0205305294417713 2.49774647131858  C 0.0205305294417713 2.49774647131858  0.0622124450892443 2.364353277487  0.0622124450892443 2.364353277487  Z " fill-rule="nonzero" fill="#5f6a7a" stroke="none" transform="matrix(1 0 0 1 1320 197 )" />
  </g>
</svg>