<?xml version="1.0" encoding="utf-8"?>
<svg version="1.1" xmlns:xlink="http://www.w3.org/1999/xlink" width="5px" height="9px" xmlns="http://www.w3.org/2000/svg">
  <g transform="matrix(1 0 0 1 -841 -903 )">
    <path d="M 0.183058261758414 4.04543135495191  C 0.183058261758414 4.04543135495191  3.93305826175814 0.188288497808621  3.93305826175814 0.188288497808621  C 4.17713594410269 -0.0627628326028738  4.57286405589708 -0.0627628326028738  4.81694173824163 0.188288497808621  C 5.04817322677858 0.426126600303721  5.06034330512254 0.803960793746008  4.85345197327369 1.05653532686698  C 4.85345197327369 1.05653532686698  4.81694173824163 1.09742578790634  4.81694173824163 1.09742578790634  L 1.50906250000005 4.50000000000034  C 1.50906250000005 4.50000000000034  4.8169417382411 7.90257421209416  4.8169417382411 7.90257421209416  C 5.04817322677804 8.14041231458926  5.06034330512204 8.51824650803045  4.8534519732732 8.77082104115142  C 4.8534519732732 8.77082104115142  4.8169417382411 8.81171150219124  4.8169417382411 8.81171150219124  C 4.58571024970415 9.04954960468634  4.21837145052627 9.06206739955475  3.97281287665862 8.84926488679598  C 3.97281287665862 8.84926488679598  3.93305826175833 8.81171150219124  3.93305826175833 8.81171150219124  C 3.93305826175833 8.81171150219124  0.183058261758414 4.95456864504877  0.183058261758414 4.95456864504877  C -0.0481732267785301 4.71673054255367  -0.0603433051225798 4.33889634911283  0.146548026726265 4.08632181599187  C 0.146548026726265 4.08632181599187  0.183058261758414 4.04543135495191  0.183058261758414 4.04543135495191  Z " fill-rule="nonzero" fill="#5f6a7a" stroke="none" transform="matrix(1 0 0 1 841 903 )" />
  </g>
</svg>