<?xml version="1.0" encoding="utf-8"?>
<svg version="1.1" xmlns:xlink="http://www.w3.org/1999/xlink" width="13px" height="7px" xmlns="http://www.w3.org/2000/svg">
  <g transform="matrix(1 0 0 1 -20 -884 )">
    <path d="M 12.5 4.33333333332166  L 5.5 4.33333333332166  C 5.22 4.33333333332166  5 4.03999999998814  5 3.66666666665515  C 5 3.2933333333217  5.22 2.99999999998818  5.5 2.99999999998818  L 12.5 2.99999999998818  C 12.78 2.99999999998818  13 3.2933333333217  13 3.66666666665515  C 13 4.03999999998814  12.78 4.33333333332166  12.5 4.33333333332166  Z M 0.52859547920896 4.13807118744307  C 0.281948558102897 3.8914242663368  0.26896714120258 3.49959621387961  0.489651228508009 3.23766706842071  C 0.489651228508009 3.23766706842071  2.86192881254238 0.861928812526912  2.86192881254238 0.861928812526912  C 3.12227834037656 0.601579284692434  3.54438832629071 0.601579284692434  3.80473785412489 0.861928812526912  C 4.05138477523095 1.10857573363273  4.06436619213084 1.50040378609083  3.84368210482541 1.76233293154928  L 1.94299999999999 3.66666666665196  C 1.94299999999999 3.66666666665196  3.80473785412466 5.52859547919388  3.80473785412466 5.52859547919388  C 4.05138477523073 5.77524240030016  4.06436619213107 6.16707045275734  3.84368210482564 6.42899959821625  C 3.59703518371958 6.67564651932253  3.16626288056105 6.73103285878233  2.90433373510223 6.51034877147731  C 2.90433373510223 6.51034877147731  0.52859547920896 4.13807118744307  0.52859547920896 4.13807118744307  Z " fill-rule="nonzero" fill="#5f6a7a" stroke="none" transform="matrix(1 0 0 1 20 884 )" />
  </g>
</svg>