<?xml version="1.0" encoding="utf-8"?>
<svg version="1.1" xmlns:xlink="http://www.w3.org/1999/xlink" width="20px" height="20px" xmlns="http://www.w3.org/2000/svg">
  <g transform="matrix(1 0 0 1 -30 -141 )">
    <path d="M 40 141  C 45.6 141  50 145.4  50 151  C 50 156.6  45.6 161  40 161  C 34.4 161  30 156.6  30 151  C 30 145.4  34.4 141  40 141  Z " fill-rule="nonzero" fill="#d9001b" stroke="none" fill-opacity="0.996078431372549" />
    <path d="M 40 141.5  C 45.32 141.5  49.5 145.68  49.5 151  C 49.5 156.32  45.32 160.5  40 160.5  C 34.68 160.5  30.5 156.32  30.5 151  C 30.5 145.68  34.68 141.5  40 141.5  Z " stroke-width="1" stroke="#d9001b" fill="none" />
  </g>
</svg>