<?xml version="1.0" encoding="utf-8"?>
<svg version="1.1" xmlns:xlink="http://www.w3.org/1999/xlink" width="496px" height="42px" xmlns="http://www.w3.org/2000/svg">
  <g transform="matrix(1 0 0 1 -932 -619 )">
    <path d="M 933 625  A 5 5 0 0 1 938 620 L 1422 620  A 5 5 0 0 1 1427 625 L 1427 655  A 5 5 0 0 1 1422 660 L 938 660  A 5 5 0 0 1 933 655 L 933 625  Z " fill-rule="nonzero" fill="#ffffff" stroke="none" />
    <path d="M 932.5 625  A 5.5 5.5 0 0 1 938 619.5 L 1422 619.5  A 5.5 5.5 0 0 1 1427.5 625 L 1427.5 655  A 5.5 5.5 0 0 1 1422 660.5 L 938 660.5  A 5.5 5.5 0 0 1 932.5 655 L 932.5 625  Z " stroke-width="1" stroke="#d7d7d7" fill="none" stroke-opacity="0.780392156862745" />
  </g>
</svg>