<?xml version="1.0" encoding="utf-8"?>
<svg version="1.1" xmlns:xlink="http://www.w3.org/1999/xlink" width="478px" height="42px" xmlns="http://www.w3.org/2000/svg">
  <g transform="matrix(1 0 0 1 -933 -595 )">
    <path d="M 934 601  A 5 5 0 0 1 939 596 L 1405 596  A 5 5 0 0 1 1410 601 L 1410 631  A 5 5 0 0 1 1405 636 L 939 636  A 5 5 0 0 1 934 631 L 934 601  Z " fill-rule="nonzero" fill="#ffffff" stroke="none" />
    <path d="M 933.5 601  A 5.5 5.5 0 0 1 939 595.5 L 1405 595.5  A 5.5 5.5 0 0 1 1410.5 601 L 1410.5 631  A 5.5 5.5 0 0 1 1405 636.5 L 939 636.5  A 5.5 5.5 0 0 1 933.5 631 L 933.5 601  Z " stroke-width="1" stroke="#d7d7d7" fill="none" stroke-opacity="0.780392156862745" />
  </g>
</svg>