<?xml version="1.0" encoding="utf-8"?>
<svg version="1.1" xmlns:xlink="http://www.w3.org/1999/xlink" width="84px" height="22px" xmlns="http://www.w3.org/2000/svg">
  <g transform="matrix(1 0 0 1 -1701 -729 )">
    <path d="M 1701.5 733  A 3.5 3.5 0 0 1 1705 729.5 L 1781 729.5  A 3.5 3.5 0 0 1 1784.5 733 L 1784.5 747  A 3.5 3.5 0 0 1 1781 750.5 L 1705 750.5  A 3.5 3.5 0 0 1 1701.5 747 L 1701.5 733  Z " fill-rule="nonzero" fill="#0099ff" stroke="none" fill-opacity="0.0980392156862745" />
    <path d="M 1701.5 733  A 3.5 3.5 0 0 1 1705 729.5 L 1781 729.5  A 3.5 3.5 0 0 1 1784.5 733 L 1784.5 747  A 3.5 3.5 0 0 1 1781 750.5 L 1705 750.5  A 3.5 3.5 0 0 1 1701.5 747 L 1701.5 733  Z " stroke-width="1" stroke="#a7d2f9" fill="none" />
  </g>
</svg>