<?xml version="1.0" encoding="utf-8"?>
<svg version="1.1" xmlns:xlink="http://www.w3.org/1999/xlink" width="70px" height="100px" xmlns="http://www.w3.org/2000/svg">
  <g transform="matrix(1 0 0 1 -1687 -90 )">
    <path d="M 1688 94  A 3 3 0 0 1 1691 91 L 1753 91  A 3 3 0 0 1 1756 94 L 1756 186  A 3 3 0 0 1 1753 189 L 1691 189  A 3 3 0 0 1 1688 186 L 1688 94  Z " fill-rule="nonzero" fill="#ff3399" stroke="none" fill-opacity="0.0980392156862745" />
    <path d="M 1687.5 94  A 3.5 3.5 0 0 1 1691 90.5 L 1753 90.5  A 3.5 3.5 0 0 1 1756.5 94 L 1756.5 186  A 3.5 3.5 0 0 1 1753 189.5 L 1691 189.5  A 3.5 3.5 0 0 1 1687.5 186 L 1687.5 94  Z " stroke-width="1" stroke-dasharray="9,4" stroke="#ff3399" fill="none" stroke-dashoffset="0.5" />
  </g>
</svg>