<?xml version="1.0" encoding="utf-8"?>
<svg version="1.1" xmlns:xlink="http://www.w3.org/1999/xlink" width="72px" height="100px" xmlns="http://www.w3.org/2000/svg">
  <g transform="matrix(1 0 0 1 -1057 -215 )">
    <path d="M 1058 219  A 3 3 0 0 1 1061 216 L 1125 216  A 3 3 0 0 1 1128 219 L 1128 311  A 3 3 0 0 1 1125 314 L 1061 314  A 3 3 0 0 1 1058 311 L 1058 219  Z " fill-rule="nonzero" fill="#ff3399" stroke="none" fill-opacity="0.0980392156862745" />
    <path d="M 1057.5 219  A 3.5 3.5 0 0 1 1061 215.5 L 1125 215.5  A 3.5 3.5 0 0 1 1128.5 219 L 1128.5 311  A 3.5 3.5 0 0 1 1125 314.5 L 1061 314.5  A 3.5 3.5 0 0 1 1057.5 311 L 1057.5 219  Z " stroke-width="1" stroke-dasharray="9,4" stroke="#ff3399" fill="none" stroke-dashoffset="0.5" />
  </g>
</svg>