<?xml version="1.0" encoding="utf-8"?>
<svg version="1.1" xmlns:xlink="http://www.w3.org/1999/xlink" width="2px" height="8px" xmlns="http://www.w3.org/2000/svg">
  <g transform="matrix(1 0 0 1 -1290 -218 )">
    <path d="M 0.999999999999943 0.333333333323026  C 0.626666666666608 0.333333333323026  0.333333333333286 0.553333333322371  0.333333333333286 0.833333333323026  L 0.333333333333286 4.83333333332303  C 0.333333333333286 5.11333333332368  0.626666666666608 5.33333333332303  0.999999999999943 5.33333333332303  C 1.37333333333331 5.33333333332303  1.66666666666663 5.11333333332368  1.66666666666663 4.83333333332303  L 1.66666666666663 0.833333333323026  C 1.66666666666663 0.553333333322371  1.37333333333331 0.333333333323026  0.999999999999943 0.333333333323026  Z M 1.66666666666663 6.99999999999636  C 1.66666666666663 6.62666666666155  1.37333333333331 6.33333333332848  0.999999999999943 6.33333333332848  C 0.626666666666608 6.33333333332848  0.333333333333286 6.62666666666155  0.333333333333286 6.99999999999636  C 0.333333333333286 7.37333333332936  0.626666666666608 7.66666666666242  0.999999999999943 7.66666666666242  C 1.37333333333331 7.66666666666242  1.66666666666663 7.37333333332936  1.66666666666663 6.99999999999636  Z " fill-rule="nonzero" fill="#237ffa" stroke="none" transform="matrix(1 0 0 1 1290 218 )" />
  </g>
</svg>