<?xml version="1.0" encoding="utf-8"?>
<svg version="1.1" xmlns:xlink="http://www.w3.org/1999/xlink" width="959px" height="42px" xmlns="http://www.w3.org/2000/svg">
  <g transform="matrix(1 0 0 1 -458 -654 )">
    <path d="M 459 660  A 5 5 0 0 1 464 655 L 1411 655  A 5 5 0 0 1 1416 660 L 1416 690  A 5 5 0 0 1 1411 695 L 464 695  A 5 5 0 0 1 459 690 L 459 660  Z " fill-rule="nonzero" fill="#ffffff" stroke="none" />
    <path d="M 458.5 660  A 5.5 5.5 0 0 1 464 654.5 L 1411 654.5  A 5.5 5.5 0 0 1 1416.5 660 L 1416.5 690  A 5.5 5.5 0 0 1 1411 695.5 L 464 695.5  A 5.5 5.5 0 0 1 458.5 690 L 458.5 660  Z " stroke-width="1" stroke="#d7d7d7" fill="none" stroke-opacity="0.780392156862745" />
  </g>
</svg>