<?xml version="1.0" encoding="utf-8"?>
<svg version="1.1" xmlns:xlink="http://www.w3.org/1999/xlink" width="569px" height="42px" xmlns="http://www.w3.org/2000/svg">
  <g transform="matrix(1 0 0 1 -483 -606 )">
    <path d="M 484 612  A 5 5 0 0 1 489 607 L 1046 607  A 5 5 0 0 1 1051 612 L 1051 642  A 5 5 0 0 1 1046 647 L 489 647  A 5 5 0 0 1 484 642 L 484 612  Z " fill-rule="nonzero" fill="#ffffff" stroke="none" />
    <path d="M 483.5 612  A 5.5 5.5 0 0 1 489 606.5 L 1046 606.5  A 5.5 5.5 0 0 1 1051.5 612 L 1051.5 642  A 5.5 5.5 0 0 1 1046 647.5 L 489 647.5  A 5.5 5.5 0 0 1 483.5 642 L 483.5 612  Z " stroke-width="1" stroke="#d7d7d7" fill="none" stroke-opacity="0.780392156862745" />
  </g>
</svg>