<?xml version="1.0" encoding="utf-8"?>
<svg version="1.1" xmlns:xlink="http://www.w3.org/1999/xlink" width="14px" height="14px" xmlns="http://www.w3.org/2000/svg">
  <g transform="matrix(1 0 0 1 -914 -211 )">
    <path d="M 6.99999999999994 13.6666666666642  C 3.31810166799997 13.6666666666642  0.333333333333286 10.6818983319972  0.333333333333286 6.99999999999636  C 0.333333333333286 3.31810166799733  3.31810166799997 0.333333333330302  6.99999999999994 0.333333333330302  C 10.6818983319999 0.333333333330302  13.6666666666666 3.31810166799733  13.6666666666666 6.99999999999636  C 13.6666666666666 10.6818983319972  10.6818983319999 13.6666666666642  6.99999999999994 13.6666666666642  Z M 7.00000000000006 12.3333333333358  C 9.94551866555898 12.3333333333358  12.3333333333334 9.94551866556139  12.3333333333334 7.00000000000364  C 12.3333333333334 4.05448133444406  9.94551866555898 1.6666666666697  7.00000000000006 1.6666666666697  C 4.05448133444111 1.6666666666697  1.66666666666671 4.05448133444406  1.66666666666671 7.00000000000364  C 1.66666666666671 9.94551866556139  4.05448133444111 12.3333333333358  7.00000000000006 12.3333333333358  Z " fill-rule="nonzero" fill="#237ffa" stroke="none" transform="matrix(1 0 0 1 914 211 )" />
  </g>
</svg>