<?xml version="1.0" encoding="utf-8"?>
<svg version="1.1" xmlns:xlink="http://www.w3.org/1999/xlink" width="58px" height="38px" xmlns="http://www.w3.org/2000/svg">
  <g transform="matrix(1 0 0 1 -1943 -771 )">
    <path d="M 1943 771  L 2001 771  L 2001 809  L 1943 809  L 1943 771  " fill-rule="nonzero" fill="#cccccc" stroke="none" />
    <path d="M 1946 774  L 1998 774  L 1998 806  L 1946 806  L 1946 774  " fill-rule="nonzero" fill="#ffffff" stroke="none" />
    <path d="M 1976.01 782.4  C 1974.414 782.4  1973.16 781.146  1973.16 779.55  C 1973.16 777.954  1974.414 776.7  1976.01 776.7  C 1977.606 776.7  1978.86 777.954  1978.86 779.55  C 1978.86 781.146  1977.606 782.4  1976.01 782.4  " fill-rule="nonzero" fill="#cccccc" stroke="none" />
    <path d="M 1947 805  L 1947 788.5  L 1959.5 781  L 1977 793.206896551724  L 1987 785.5  L 1997 793.206896551724  L 1997 805  L 1947 805  " fill-rule="nonzero" fill="#169bd5" stroke="none" />
  </g>
</svg>