<?xml version="1.0" encoding="utf-8"?>
<svg version="1.1" xmlns:xlink="http://www.w3.org/1999/xlink" width="6px" height="8px" xmlns="http://www.w3.org/2000/svg">
  <g transform="matrix(1 0 0 1 -864 -475 )">
    <path d="M 2.16666666666697 2.49648796617112  L 2.93185080955323 2.49649061653508  L 2.99978089806586 2.42855243527083  C 2.99978089806586 2.42855243527083  3.02455788387101 2.45332510610751  3.06773092606204 2.49648796617112  L 3.83333333333371 2.49648796617112  L 3.83333411137869 3.2619604833726  C 4.17599212521554 3.60455882252791  4.49407768234437 3.92258898432556  4.49407768234437 3.92258898432556  C 4.8023863337271 4.23089763570715  5.29217139929847 4.24712440683288  5.61958283112199 3.97126929770093  C 5.61958283112199 3.97126929770093  5.67258898432192 3.92258898432556  5.67258898432192 3.92258898432556  C 5.98089763570442 3.61428033294214  5.99712440682993 3.12449526737146  5.7212692976982 2.7970838355468  C 5.7212692976982 2.7970838355468  5.67258898432192 2.74407768234778  5.67258898432192 2.74407768234778  C 5.67258898432192 2.74407768234778  3.58925565098866 0.660744349013839  3.58925565098866 0.660744349013839  C 3.28094699960593 0.352435697632245  2.79116193403456 0.336208926506515  2.46375050221081 0.612064035638468  C 2.46375050221081 0.612064035638468  2.41074434901088 0.660744349013839  2.41074434901088 0.660744349013839  C 2.41074434901088 0.660744349013839  0.327411015677626 2.74407768234778  0.327411015677626 2.74407768234778  C 0.00197410588475577 3.06951459213997  0.00197410588475577 3.59715207453155  0.327411015677626 3.92258898432556  C 0.63571966706013 4.23089763570715  1.12550473263173 4.24712440683288  1.45291616445525 3.97126929770093  C 1.45291616445525 3.97126929770093  1.50592231765518 3.92258898432556  1.50592231765518 3.92258898432556  L 2.16666666666697 3.26176670879249  L 2.16666666666697 2.49648796617112  Z M 3.83333333333371 7.41855243526879  L 3.83344054729992 3.26206690075924  C 3.52901237982701 2.95769175015266  3.20516434964838 2.63390011885349  3.06773412945404 2.49648796617112  L 2.93185055694175 2.49649086917634  L 2.16666666666697 3.26199201570853  L 2.16666666666697 7.41855243526879  L 3.83333333333371 7.41855243526879  Z " fill-rule="nonzero" fill="#5f6a7a" stroke="none" transform="matrix(1 0 0 1 864 475 )" />
  </g>
</svg>