<?xml version="1.0" encoding="utf-8"?>
<svg version="1.1" xmlns:xlink="http://www.w3.org/1999/xlink" width="923px" height="98px" xmlns="http://www.w3.org/2000/svg">
  <g transform="matrix(1 0 0 1 -483 -438 )">
    <path d="M 484 442  A 3 3 0 0 1 487 439 L 1402 439  A 3 3 0 0 1 1405 442 L 1405 532  A 3 3 0 0 1 1402 535 L 487 535  A 3 3 0 0 1 484 532 L 484 442  Z " fill-rule="nonzero" fill="#f2f4f7" stroke="none" />
    <path d="M 483.5 442  A 3.5 3.5 0 0 1 487 438.5 L 1402 438.5  A 3.5 3.5 0 0 1 1405.5 442 L 1405.5 532  A 3.5 3.5 0 0 1 1402 535.5 L 487 535.5  A 3.5 3.5 0 0 1 483.5 532 L 483.5 442  Z " stroke-width="1" stroke-dasharray="3,1" stroke="#dfe2e8" fill="none" stroke-dashoffset="0.5" />
  </g>
</svg>