<?xml version="1.0" encoding="utf-8"?>
<svg version="1.1" xmlns:xlink="http://www.w3.org/1999/xlink" width="1030px" height="42px" xmlns="http://www.w3.org/2000/svg">
  <g transform="matrix(1 0 0 1 -394 -633 )">
    <path d="M 395 639  A 5 5 0 0 1 400 634 L 1418 634  A 5 5 0 0 1 1423 639 L 1423 669  A 5 5 0 0 1 1418 674 L 400 674  A 5 5 0 0 1 395 669 L 395 639  Z " fill-rule="nonzero" fill="#ffffff" stroke="none" />
    <path d="M 394.5 639  A 5.5 5.5 0 0 1 400 633.5 L 1418 633.5  A 5.5 5.5 0 0 1 1423.5 639 L 1423.5 669  A 5.5 5.5 0 0 1 1418 674.5 L 400 674.5  A 5.5 5.5 0 0 1 394.5 669 L 394.5 639  Z " stroke-width="1" stroke="#d7d7d7" fill="none" stroke-opacity="0.780392156862745" />
  </g>
</svg>