<?xml version="1.0" encoding="utf-8"?>
<svg version="1.1" xmlns:xlink="http://www.w3.org/1999/xlink" width="97px" height="32px" xmlns="http://www.w3.org/2000/svg">
  <defs>
    <mask fill="white" id="clip26">
      <path d="M 0 28  L 0 4  C 0 1.75999999999999  1.75999999999999 0  4 0  L 93 0  C 95.24 0  97 1.75999999999999  97 4  L 97 28  C 97 30.24  95.24 32  93 32  L 48.8888888888889 32  L 4 32  C 1.75999999999999 32  0 30.24  0 28  Z " fill-rule="evenodd" />
    </mask>
  </defs>
  <g transform="matrix(1 0 0 1 -1015 -223 )">
    <path d="M 0 28  L 0 4  C 0 1.75999999999999  1.75999999999999 0  4 0  L 93 0  C 95.24 0  97 1.75999999999999  97 4  L 97 28  C 97 30.24  95.24 32  93 32  L 48.8888888888889 32  L 4 32  C 1.75999999999999 32  0 30.24  0 28  Z " fill-rule="nonzero" fill="#409eff" stroke="none" transform="matrix(1 0 0 1 1015 223 )" />
    <path d="M 0 28  L 0 4  C 0 1.75999999999999  1.75999999999999 0  4 0  L 93 0  C 95.24 0  97 1.75999999999999  97 4  L 97 28  C 97 30.24  95.24 32  93 32  L 48.8888888888889 32  L 4 32  C 1.75999999999999 32  0 30.24  0 28  Z " stroke-width="2" stroke="#409eff" fill="none" transform="matrix(1 0 0 1 1015 223 )" mask="url(#clip26)" />
  </g>
</svg>