<?xml version="1.0" encoding="utf-8"?>
<svg version="1.1" xmlns:xlink="http://www.w3.org/1999/xlink" width="6px" height="9px" xmlns="http://www.w3.org/2000/svg">
  <g transform="matrix(1 0 0 1 -1001 -226 )">
    <path d="M 5.28438045675245 4.75257139350668  C 5.26778650500598 4.77580292595167  5.24942025030539 4.79723022310236  5.22950750820993 4.81658983347313  C 5.22950750820993 4.81658983347313  1.18467176614454 8.74906902714758  1.18467176614454 8.74906902714758  C 1.00283881019433 8.92585106765472  0.732596795467024 8.89718903578972  0.581069332175243 8.68505058718114  C 0.516885403164451 8.59519308656604  0.481735594859921 8.48192663985833  0.481735594859921 8.36495838734891  C 0.481735594859921 8.36495838734891  0.481735594859921 0.5  0.481735594859921 0.5  C 0.481735594859921 0.223857625084634  0.673613559218081 0  0.91030702343135 0  C 1.01056552558228 0  1.10765105133175 0.0410081096887325  1.18467176614454 0.115889360201322  C 1.18467176614454 0.115889360201322  5.22950750820993 4.04836855387578  5.22950750820993 4.04836855387578  C 5.41134046415995 4.22515059438291  5.43590792004423 4.5404329448981  5.28438045675245 4.75257139350668  Z " fill-rule="nonzero" fill="#38d677" stroke="none" transform="matrix(1 0 0 1 1001 226 )" />
  </g>
</svg>