<?xml version="1.0" encoding="utf-8"?>
<svg version="1.1" xmlns:xlink="http://www.w3.org/1999/xlink" width="110px" height="32px" xmlns="http://www.w3.org/2000/svg">
  <defs>
    <mask fill="white" id="clip197">
      <path d="M 0 28  L 0 4  C 0 1.75999999999999  1.75999999999999 0  4 0  L 106 0  C 108.24 0  110 1.75999999999999  110 4  L 110 28  C 110 30.24  108.24 32  106 32  L 39.1176470588235 32  L 4 32  C 1.75999999999999 32  0 30.24  0 28  Z " fill-rule="evenodd" />
    </mask>
  </defs>
  <g transform="matrix(1 0 0 1 -255 -213 )">
    <path d="M 0 28  L 0 4  C 0 1.75999999999999  1.75999999999999 0  4 0  L 106 0  C 108.24 0  110 1.75999999999999  110 4  L 110 28  C 110 30.24  108.24 32  106 32  L 39.1176470588235 32  L 4 32  C 1.75999999999999 32  0 30.24  0 28  Z " fill-rule="nonzero" fill="#0099ff" stroke="none" fill-opacity="0.0980392156862745" transform="matrix(1 0 0 1 255 213 )" />
    <path d="M 0 28  L 0 4  C 0 1.75999999999999  1.75999999999999 0  4 0  L 106 0  C 108.24 0  110 1.75999999999999  110 4  L 110 28  C 110 30.24  108.24 32  106 32  L 39.1176470588235 32  L 4 32  C 1.75999999999999 32  0 30.24  0 28  Z " stroke-width="2" stroke="#a7d2f9" fill="none" transform="matrix(1 0 0 1 255 213 )" mask="url(#clip197)" />
  </g>
</svg>