<?xml version="1.0" encoding="utf-8"?>
<svg version="1.1" xmlns:xlink="http://www.w3.org/1999/xlink" width="119px" height="58px" xmlns="http://www.w3.org/2000/svg">
  <g transform="matrix(1 0 0 1 -454 -189 )">
    <path d="M 455 193  A 3 3 0 0 1 458 190 L 569 190  A 3 3 0 0 1 572 193 L 572 243  A 3 3 0 0 1 569 246 L 458 246  A 3 3 0 0 1 455 243 L 455 193  Z " fill-rule="nonzero" fill="#ff3399" stroke="none" fill-opacity="0.0980392156862745" />
    <path d="M 454.5 193  A 3.5 3.5 0 0 1 458 189.5 L 569 189.5  A 3.5 3.5 0 0 1 572.5 193 L 572.5 243  A 3.5 3.5 0 0 1 569 246.5 L 458 246.5  A 3.5 3.5 0 0 1 454.5 243 L 454.5 193  Z " stroke-width="1" stroke-dasharray="9,4" stroke="#ff3399" fill="none" stroke-dashoffset="0.5" />
  </g>
</svg>