<?xml version="1.0" encoding="utf-8"?>
<svg version="1.1" xmlns:xlink="http://www.w3.org/1999/xlink" width="14px" height="14px" xmlns="http://www.w3.org/2000/svg">
  <g transform="matrix(1 0 0 1 -959 -713 )">
    <path d="M 0.666666666666629 2.66666666666663  C 0.666666666666629 1.56209716700504  1.56209716700505 0.666666666666629  2.66666666666663 0.666666666666629  C 2.66666666666663 0.666666666666629  11.3333333333333 0.666666666666629  11.3333333333333 0.666666666666629  C 12.4379028329949 0.666666666666629  13.3333333333333 1.56209716700504  13.3333333333333 2.66666666666663  C 13.3333333333333 2.66666666666663  13.3333333333333 11.3333333333333  13.3333333333333 11.3333333333333  C 13.3333333333333 12.4379028329949  12.4379028329949 13.3333333333333  11.3333333333333 13.3333333333333  C 11.3333333333333 13.3333333333333  2.66666666666663 13.3333333333333  2.66666666666663 13.3333333333333  C 1.56209716700505 13.3333333333333  0.666666666666629 12.4379028329949  0.666666666666629 11.3333333333333  C 0.666666666666629 11.3333333333333  0.666666666666629 2.66666666666663  0.666666666666629 2.66666666666663  Z M 12 2.66666666666667  C 12 2.31521273495616  11.7280407364674 2.02727829270951  11.3830874482861 2.00182857881046  C 11.3830874482861 2.00182857881046  2.66666666666669 2  2.66666666666669 2  C 2.31521273495616 2  2.02727829270953 2.27195926353253  2.00182857881043 2.61691255171387  C 2.00182857881043 2.61691255171387  2 11.3333333333333  2 11.3333333333333  C 2 11.6847872650438  2.27195926353255 11.9727217072905  2.61691255171388 11.9981714211895  C 2.61691255171388 11.9981714211895  11.3333333333333 12  11.3333333333333 12  C 11.6847872650438 12  11.9727217072905 11.7280407364675  11.9981714211896 11.3830874482861  C 11.9981714211896 11.3830874482861  12 2.66666666666667  12 2.66666666666667  Z " fill-rule="nonzero" fill="#5f6a7a" stroke="none" transform="matrix(1 0 0 1 959 713 )" />
  </g>
</svg>