<?xml version="1.0" encoding="utf-8"?>
<svg version="1.1" xmlns:xlink="http://www.w3.org/1999/xlink" width="10px" height="10px" xmlns="http://www.w3.org/2000/svg">
  <g transform="matrix(1 0 0 1 -727 -686 )">
    <path d="M 1.25 10  C 0.550000000000002 10  0 9.45  0 8.75  L 0 1.25  C 0 0.549999999999997  0.550000000000002 0  1.25 0  L 8.75 0  C 9.45 0  10 0.549999999999997  10 1.25  L 10 8.75  C 10 9.45  9.45 10  8.75 10  L 1.25 10  Z M 7.36875000000006 2.68305826175787  L 4.06069173824164 5.99111652351628  L 2.62763347648324 4.55805826175787  L 1.74375000000005 5.44194173824105  L 4.06069173824164 7.75888347648265  L 8.25263347648324 3.56694173824105  L 7.36875000000006 2.68305826175787  Z " fill-rule="nonzero" fill="#237ffa" stroke="none" transform="matrix(1 0 0 1 727 686 )" />
  </g>
</svg>