<?xml version="1.0" encoding="utf-8"?>
<svg version="1.1" xmlns:xlink="http://www.w3.org/1999/xlink" width="216px" height="31px" xmlns="http://www.w3.org/2000/svg">
  <g transform="matrix(1 0 0 1 -812 -467 )">
    <path d="M 813 471  A 3 3 0 0 1 816 468 L 1024 468  A 3 3 0 0 1 1027 471 L 1027 494  A 3 3 0 0 1 1024 497 L 816 497  A 3 3 0 0 1 813 494 L 813 471  Z " fill-rule="nonzero" fill="#ff3399" stroke="none" fill-opacity="0.0980392156862745" />
    <path d="M 812.5 471  A 3.5 3.5 0 0 1 816 467.5 L 1024 467.5  A 3.5 3.5 0 0 1 1027.5 471 L 1027.5 494  A 3.5 3.5 0 0 1 1024 497.5 L 816 497.5  A 3.5 3.5 0 0 1 812.5 494 L 812.5 471  Z " stroke-width="1" stroke-dasharray="9,4" stroke="#ff3399" fill="none" stroke-dashoffset="0.5" />
  </g>
</svg>