<?xml version="1.0" encoding="utf-8"?>
<svg version="1.1" xmlns:xlink="http://www.w3.org/1999/xlink" width="92px" height="20px" xmlns="http://www.w3.org/2000/svg">
  <defs>
    <mask fill="white" id="clip260">
      <path d="M 0 16  L 0 4  C 0 1.75999999999999  1.75999999999999 0  4 0  L 88 0  C 90.24 0  92 1.75999999999999  92 4  L 92 16  C 92 18.24  90.24 20  88 20  L 42 20  L 4 20  C 1.75999999999999 20  0 18.24  0 16  Z " fill-rule="evenodd" />
    </mask>
  </defs>
  <g transform="matrix(1 0 0 1 -635 -890 )">
    <path d="M 0 16  L 0 4  C 0 1.75999999999999  1.75999999999999 0  4 0  L 88 0  C 90.24 0  92 1.75999999999999  92 4  L 92 16  C 92 18.24  90.24 20  88 20  L 42 20  L 4 20  C 1.75999999999999 20  0 18.24  0 16  Z " fill-rule="nonzero" fill="#409eff" stroke="none" transform="matrix(1 0 0 1 635 890 )" />
    <path d="M 0 16  L 0 4  C 0 1.75999999999999  1.75999999999999 0  4 0  L 88 0  C 90.24 0  92 1.75999999999999  92 4  L 92 16  C 92 18.24  90.24 20  88 20  L 42 20  L 4 20  C 1.75999999999999 20  0 18.24  0 16  Z " stroke-width="2" stroke="#409eff" fill="none" transform="matrix(1 0 0 1 635 890 )" mask="url(#clip260)" />
  </g>
</svg>