<?xml version="1.0" encoding="utf-8"?>
<svg version="1.1" xmlns:xlink="http://www.w3.org/1999/xlink" width="135px" height="50px" xmlns="http://www.w3.org/2000/svg">
  <g transform="matrix(1 0 0 1 -478 -394 )">
    <path d="M 479 398  A 3 3 0 0 1 482 395 L 609 395  A 3 3 0 0 1 612 398 L 612 440  A 3 3 0 0 1 609 443 L 482 443  A 3 3 0 0 1 479 440 L 479 398  Z " fill-rule="nonzero" fill="#ff3399" stroke="none" fill-opacity="0.0980392156862745" />
    <path d="M 478.5 398  A 3.5 3.5 0 0 1 482 394.5 L 609 394.5  A 3.5 3.5 0 0 1 612.5 398 L 612.5 440  A 3.5 3.5 0 0 1 609 443.5 L 482 443.5  A 3.5 3.5 0 0 1 478.5 440 L 478.5 398  Z " stroke-width="1" stroke-dasharray="9,4" stroke="#ff3399" fill="none" stroke-dashoffset="0.5" />
  </g>
</svg>