<?xml version="1.0" encoding="utf-8"?>
<svg version="1.1" xmlns:xlink="http://www.w3.org/1999/xlink" width="207px" height="63px" xmlns="http://www.w3.org/2000/svg">
  <g transform="matrix(1 0 0 1 -1195 -273 )">
    <path d="M 1196 277  A 3 3 0 0 1 1199 274 L 1398 274  A 3 3 0 0 1 1401 277 L 1401 332  A 3 3 0 0 1 1398 335 L 1199 335  A 3 3 0 0 1 1196 332 L 1196 277  Z " fill-rule="nonzero" fill="#ff3399" stroke="none" fill-opacity="0.0980392156862745" />
    <path d="M 1195.5 277  A 3.5 3.5 0 0 1 1199 273.5 L 1398 273.5  A 3.5 3.5 0 0 1 1401.5 277 L 1401.5 332  A 3.5 3.5 0 0 1 1398 335.5 L 1199 335.5  A 3.5 3.5 0 0 1 1195.5 332 L 1195.5 277  Z " stroke-width="1" stroke-dasharray="9,4" stroke="#ff3399" fill="none" stroke-dashoffset="0.5" />
  </g>
</svg>