<?xml version="1.0" encoding="utf-8"?>
<svg version="1.1" xmlns:xlink="http://www.w3.org/1999/xlink" width="374px" height="31px" xmlns="http://www.w3.org/2000/svg">
  <g transform="matrix(1 0 0 1 -599 -767 )">
    <path d="M 600 771  A 3 3 0 0 1 603 768 L 969 768  A 3 3 0 0 1 972 771 L 972 794  A 3 3 0 0 1 969 797 L 603 797  A 3 3 0 0 1 600 794 L 600 771  Z " fill-rule="nonzero" fill="#ff3399" stroke="none" fill-opacity="0.0980392156862745" />
    <path d="M 599.5 771  A 3.5 3.5 0 0 1 603 767.5 L 969 767.5  A 3.5 3.5 0 0 1 972.5 771 L 972.5 794  A 3.5 3.5 0 0 1 969 797.5 L 603 797.5  A 3.5 3.5 0 0 1 599.5 794 L 599.5 771  Z " stroke-width="1" stroke-dasharray="9,4" stroke="#ff3399" fill="none" stroke-dashoffset="0.5" />
  </g>
</svg>