<?xml version="1.0" encoding="utf-8"?>
<svg version="1.1" xmlns:xlink="http://www.w3.org/1999/xlink" width="199px" height="50px" xmlns="http://www.w3.org/2000/svg">
  <g transform="matrix(1 0 0 1 -1211 -394 )">
    <path d="M 1212 398  A 3 3 0 0 1 1215 395 L 1406 395  A 3 3 0 0 1 1409 398 L 1409 440  A 3 3 0 0 1 1406 443 L 1215 443  A 3 3 0 0 1 1212 440 L 1212 398  Z " fill-rule="nonzero" fill="#ff3399" stroke="none" fill-opacity="0.0980392156862745" />
    <path d="M 1211.5 398  A 3.5 3.5 0 0 1 1215 394.5 L 1406 394.5  A 3.5 3.5 0 0 1 1409.5 398 L 1409.5 440  A 3.5 3.5 0 0 1 1406 443.5 L 1215 443.5  A 3.5 3.5 0 0 1 1211.5 440 L 1211.5 398  Z " stroke-width="1" stroke-dasharray="9,4" stroke="#ff3399" fill="none" stroke-dashoffset="0.5" />
  </g>
</svg>