<?xml version="1.0" encoding="utf-8"?>
<svg version="1.1" xmlns:xlink="http://www.w3.org/1999/xlink" width="244px" height="50px" xmlns="http://www.w3.org/2000/svg">
  <g transform="matrix(1 0 0 1 -743 -396 )">
    <path d="M 744 400  A 3 3 0 0 1 747 397 L 983 397  A 3 3 0 0 1 986 400 L 986 442  A 3 3 0 0 1 983 445 L 747 445  A 3 3 0 0 1 744 442 L 744 400  Z " fill-rule="nonzero" fill="#ff3399" stroke="none" fill-opacity="0.0980392156862745" />
    <path d="M 743.5 400  A 3.5 3.5 0 0 1 747 396.5 L 983 396.5  A 3.5 3.5 0 0 1 986.5 400 L 986.5 442  A 3.5 3.5 0 0 1 983 445.5 L 747 445.5  A 3.5 3.5 0 0 1 743.5 442 L 743.5 400  Z " stroke-width="1" stroke-dasharray="9,4" stroke="#ff3399" fill="none" stroke-dashoffset="0.5" />
  </g>
</svg>