<?xml version="1.0" encoding="utf-8"?>
<svg version="1.1" xmlns:xlink="http://www.w3.org/1999/xlink" width="21px" height="15px" xmlns="http://www.w3.org/2000/svg">
  <g transform="matrix(1 0 0 1 -1656 -125 )">
    <path d="M 10.4999999999999 0  C 14.3659932485999 0  17.8659932485999 2.50000000000009  20.9999999999999 7.5  C 17.8659932485999 12.4999999999999  14.3659932485999 15  10.4999999999999 15  C 6.63400675139996 15  3.13400675139999 12.4999999999999  0 7.5  C 3.13400675139999 2.50000000000009  6.63400675139996 0  10.4999999999999 0  Z M 18.1781047369006 7.80363534366765  C 18.1781047369006 7.80363534366765  18.3970499999999 7.5  18.3970499999999 7.5  C 18.3970499999999 7.5  18.3408182131396 7.42027655173055  18.3408182131396 7.42027655173055  C 15.9001595268431 4.01948536762785  13.3560262793975 2.37679801494489  10.6715410833472 2.30982874642328  C 10.6715410833472 2.30982874642328  10.4999999999999 2.30769230769231  10.4999999999999 2.30769230769231  C 7.7522815521194 2.30769230769231  5.15176938137582 3.94712810839154  2.65918178686024 7.42027655173055  C 2.65918178686024 7.42027655173055  2.60242499999998 7.5  2.60242499999998 7.5  C 2.60242499999998 7.5  2.65918178686025 7.57972344826945  2.65918178686025 7.57972344826945  C 5.09984047315674 10.9805146323722  7.6439737206024 12.6232019850551  10.3284589166526 12.6901712535767  C 10.3284589166526 12.6901712535767  10.4999999999999 12.6923076923077  10.4999999999999 12.6923076923077  C 13.187985438144 12.6923076923077  15.7350953038861 11.123376928406  18.1781047369006 7.80363534366765  Z M 14.1749999999999 7.5  C 14.1749999999999 9.73038072038172  12.5296464555473 11.5384615384615  10.4999999999999 11.5384615384615  C 8.47035354445262 11.5384615384615  6.82499999999997 9.73038072038172  6.82499999999997 7.5  C 6.82499999999997 5.26961927961828  8.47035354445262 3.46153846153846  10.4999999999999 3.46153846153846  C 12.5296464555473 3.46153846153846  14.1749999999999 5.26961927961828  14.1749999999999 7.5  Z M 10.4999999999999 9.23076923076923  C 11.3698484809026 9.23076923076923  12.0749999999999 8.45587745154131  12.0749999999999 7.5  C 12.0749999999999 6.54412254845869  11.3698484809026 5.76923076923077  10.4999999999999 5.76923076923077  C 9.63015151909729 5.76923076923077  8.92499999999996 6.54412254845869  8.92499999999996 7.5  C 8.92499999999996 8.45587745154131  9.63015151909729 9.23076923076923  10.4999999999999 9.23076923076923  Z " fill-rule="nonzero" fill="#5f6a7a" stroke="none" transform="matrix(1 0 0 1 1656 125 )" />
  </g>
</svg>