<?xml version="1.0" encoding="utf-8"?>
<svg version="1.1" xmlns:xlink="http://www.w3.org/1999/xlink" width="20px" height="17px" xmlns="http://www.w3.org/2000/svg">
  <g transform="matrix(1 0 0 1 -1992 -125 )">
    <path d="M 9.99999999999994 2  C 11.4234226508552 2  12.7947488750618 2.32382939051263  14.1139786726196 2.97148817153811  C 14.1139786726196 2.97148817153811  16.5428932188134 0.54289321881356  16.5428932188134 0.54289321881356  C 16.9334175105646 0.152368927062071  17.5665824894352 0.152368927062071  17.9571067811865 0.54289321881356  C 18.3270771628455 0.912863600472519  18.346549288196 1.5006056791583  18.0155231572379 1.89349939734666  C 18.0155231572379 1.89349939734666  17.9571067811865 1.95710678118644  17.9571067811865 1.95710678118644  C 17.9571067811865 1.95710678118644  15.868022368471 4.04604823463069  15.868022368471 4.04604823463069  C 17.3125088626195 5.11323100313052  18.6898347397958 6.59788159158711  19.9999999999999 8.5  C 17.0152316653332 12.8333333333333  13.6818983319999 15  9.99999999999994 15  C 8.57657734914467 15  7.2052511249381 14.6761706094874  5.88602132738031 14.0285118284619  C 5.88602132738031 14.0285118284619  3.45710678118653 16.4571067811864  3.45710678118653 16.4571067811864  C 3.06658248943527 16.8476310729379  2.43341751056472 16.8476310729379  2.04289321881344 16.4571067811864  C 1.67292283715434 16.0871363995275  1.65345071180388 15.4993943208417  1.984476842762 15.1065006026533  C 1.984476842762 15.1065006026533  2.04289321881344 15.0428932188136  2.04289321881344 15.0428932188136  C 2.04289321881344 15.0428932188136  4.13197763152889 12.9539517653693  4.13197763152889 12.9539517653693  C 2.68749113738035 11.8867689968695  1.31016526020405 10.4021184084129  0 8.5  C 2.98476833466664 4.16666666666674  6.31810166799996 2  9.99999999999994 2  Z M 17.3124807018101 8.76315063117886  C 17.3124807018101 8.76315063117886  17.5209999999999 8.50000000000023  17.5209999999999 8.50000000000023  C 17.5209999999999 8.50000000000023  17.4674459172759 8.43090634483337  17.4674459172759 8.43090634483337  C 16.4757503637785 7.17345070047372  15.4661171611561 6.19333846173959  14.4358188851873 5.47829453436702  C 14.4358188851873 5.47829453436702  12.7078458535679 7.20703776324012  12.7078458535679 7.20703776324012  C 12.8951287935011 7.59855821076121  12.9999999999999 8.03703211403604  12.9999999999999 8.50000000000023  C 12.9999999999999 10.1568542494267  11.6568542494263 11.5000000000002  9.99999999999994 11.5000000000002  C 9.53703211403581 11.5000000000002  9.0985582107609 11.3951287935013  8.70703776323973 11.2078458535682  C 8.70703776323973 11.2078458535682  7.40415752094766 12.5108100959442  7.40415752094766 12.5108100959442  C 8.20186983612852 12.8187548555845  9.0123007723972 12.9794349061872  9.8366275396692 12.9981484197667  C 9.8366275396692 12.9981484197667  9.99999999999994 13.0000000000002  9.99999999999994 13.0000000000002  C 12.5599861315657 13.0000000000002  14.9858050513201 11.6402600046188  17.3124807018101 8.76315063117886  Z M 12.5958424790523 4.48918990405605  C 11.7981301638714 4.1812451444157  10.9876992276027 4.02056509381305  10.1633724603307 4.00185158023351  C 10.1633724603307 4.00185158023351  9.99999999999997 4  9.99999999999997 4  C 7.38312528773277 4  4.90644702988175 5.420844360606  2.53255408272408 8.43090634483315  C 2.53255408272408 8.43090634483315  2.47850000000001 8.5  2.47850000000001 8.5  C 2.47850000000001 8.5  2.53255408272408 8.56909365516685  2.53255408272408 8.56909365516685  C 3.52424963622139 9.8265492995265  4.53388283884385 10.8066615382606  5.56418111481261 11.5217054656332  C 5.56418111481261 11.5217054656332  7.29215414643203 9.7929622367601  7.29215414643203 9.7929622367601  C 7.10487120649883 9.40144178923902  6.99999999999999 8.96296788596419  6.99999999999999 8.5  C 6.99999999999999 6.84314575057351  8.34314575057358 5.5  9.99999999999997 5.5  C 10.4629678859641 5.5  10.901441789239 5.60487120649896  11.2929622367602 5.79215414643204  C 11.2929622367602 5.79215414643204  12.5958424790523 4.48918990405605  12.5958424790523 4.48918990405605  Z " fill-rule="nonzero" fill="#5f6a7a" stroke="none" transform="matrix(1 0 0 1 1992 125 )" />
  </g>
</svg>