<?xml version="1.0" encoding="utf-8"?>
<svg version="1.1" xmlns:xlink="http://www.w3.org/1999/xlink" width="281px" height="63px" xmlns="http://www.w3.org/2000/svg">
  <g transform="matrix(1 0 0 1 -871 -270 )">
    <path d="M 872 274  A 3 3 0 0 1 875 271 L 1148 271  A 3 3 0 0 1 1151 274 L 1151 329  A 3 3 0 0 1 1148 332 L 875 332  A 3 3 0 0 1 872 329 L 872 274  Z " fill-rule="nonzero" fill="#ff3399" stroke="none" fill-opacity="0.0980392156862745" />
    <path d="M 871.5 274  A 3.5 3.5 0 0 1 875 270.5 L 1148 270.5  A 3.5 3.5 0 0 1 1151.5 274 L 1151.5 329  A 3.5 3.5 0 0 1 1148 332.5 L 875 332.5  A 3.5 3.5 0 0 1 871.5 329 L 871.5 274  Z " stroke-width="1" stroke-dasharray="9,4" stroke="#ff3399" fill="none" stroke-dashoffset="0.5" />
  </g>
</svg>