<?xml version="1.0" encoding="utf-8"?>
<svg version="1.1" xmlns:xlink="http://www.w3.org/1999/xlink" width="1030px" height="42px" xmlns="http://www.w3.org/2000/svg">
  <g transform="matrix(1 0 0 1 -367 -731 )">
    <path d="M 368 737  A 5 5 0 0 1 373 732 L 1391 732  A 5 5 0 0 1 1396 737 L 1396 767  A 5 5 0 0 1 1391 772 L 373 772  A 5 5 0 0 1 368 767 L 368 737  Z " fill-rule="nonzero" fill="#ffffff" stroke="none" />
    <path d="M 367.5 737  A 5.5 5.5 0 0 1 373 731.5 L 1391 731.5  A 5.5 5.5 0 0 1 1396.5 737 L 1396.5 767  A 5.5 5.5 0 0 1 1391 772.5 L 373 772.5  A 5.5 5.5 0 0 1 367.5 767 L 367.5 737  Z " stroke-width="1" stroke="#d7d7d7" fill="none" stroke-opacity="0.780392156862745" />
  </g>
</svg>