<?xml version="1.0" encoding="utf-8"?>
<svg version="1.1" xmlns:xlink="http://www.w3.org/1999/xlink" width="66px" height="22px" xmlns="http://www.w3.org/2000/svg">
  <g transform="matrix(1 0 0 1 -1701 -604 )">
    <path d="M 1702 608  A 3 3 0 0 1 1705 605 L 1763 605  A 3 3 0 0 1 1766 608 L 1766 622  A 3 3 0 0 1 1763 625 L 1705 625  A 3 3 0 0 1 1702 622 L 1702 608  Z " fill-rule="nonzero" fill="#f56c6c" stroke="none" fill-opacity="0.0980392156862745" />
    <path d="M 1701.5 608  A 3.5 3.5 0 0 1 1705 604.5 L 1763 604.5  A 3.5 3.5 0 0 1 1766.5 608 L 1766.5 622  A 3.5 3.5 0 0 1 1763 625.5 L 1705 625.5  A 3.5 3.5 0 0 1 1701.5 622 L 1701.5 608  Z " stroke-width="1" stroke="#f56c6c" fill="none" stroke-opacity="0.2" />
  </g>
</svg>