<?xml version="1.0" encoding="utf-8"?>
<svg version="1.1" xmlns:xlink="http://www.w3.org/1999/xlink" width="5px" height="9px" xmlns="http://www.w3.org/2000/svg">
  <g transform="matrix(1 0 0 1 -1401 -76 )">
    <path d="M 4.83728154510307 3.77573593128892  C 4.83728154510307 3.77573593128892  1.50394821177012 0.175735931288118  1.50394821177012 0.175735931288118  C 1.28699027190824 -0.0585786437627061  0.935231950313285 -0.0585786437627061  0.718274010451599 0.175735931288118  C 0.512734909529703 0.397718160283561  0.50191706211289 0.750363407496458  0.685820468200783 0.986099638409269  C 0.685820468200783 0.986099638409269  0.718274010451599 1.02426406871273  0.718274010451599 1.02426406871273  L 3.65861111111068 4.20000000000091  C 3.65861111111068 4.20000000000091  0.718274010451978 7.3757359312889  0.718274010451978 7.3757359312889  C 0.512734909530082 7.59771816028434  0.501917062113459 7.95036340749621  0.685820468201162 8.18609963840923  C 0.685820468201162 8.18609963840923  0.718274010451978 8.2242640687131  0.718274010451978 8.2242640687131  C 0.923813111373685 8.44624629770854  1.25033648842077 8.4579295729189  1.468610776303 8.25931389434418  C 1.468610776303 8.25931389434418  1.50394821176993 8.2242640687131  1.50394821176993 8.2242640687131  C 1.50394821176993 8.2242640687131  4.83728154510307 4.62426406871291  4.83728154510307 4.62426406871291  C 5.04282064602478 4.40228183971747  5.05363849344159 4.049636592506  4.86973508735389 3.81390036159299  C 4.86973508735389 3.81390036159299  4.83728154510307 3.77573593128892  4.83728154510307 3.77573593128892  Z " fill-rule="nonzero" fill="#5f6a7a" stroke="none" transform="matrix(1 0 0 1 1401 76 )" />
  </g>
</svg>