<?xml version="1.0" encoding="utf-8"?>
<svg version="1.1" xmlns:xlink="http://www.w3.org/1999/xlink" width="13px" height="13px" xmlns="http://www.w3.org/2000/svg">
  <g transform="matrix(1 0 0 1 -28 -25 )">
    <path d="M 11.3333333333333 12.6666666666667  C 11.3333333333333 12.6666666666667  1.33333333333333 12.6666666666667  1.33333333333333 12.6666666666667  C 0.596953666892276 12.6666666666667  0 12.0697129997744  0 11.3333333333333  C 0 11.3333333333333  0 1.33333333333334  0 1.33333333333334  C 0 0.596953666892261  0.596953666892276 0  1.33333333333333 0  C 1.33333333333333 0  11.3333333333333 0  11.3333333333333 0  C 12.0697129997744 0  12.6666666666667 0.596953666892261  12.6666666666667 1.33333333333334  C 12.6666666666667 1.33333333333334  12.6666666666667 11.3333333333333  12.6666666666667 11.3333333333333  C 12.6666666666667 12.0697129997744  12.0697129997744 12.6666666666667  11.3333333333333 12.6666666666667  Z M 1.9502458850472 11.3315047545229  C 1.9502458850472 11.3315047545229  5 11.3333333333334  5 11.3333333333334  C 5.3514539317105 11.3333333333334  5.63938837395715 11.0613740698008  5.6648380878562 10.7164207816195  C 5.6648380878562 10.7164207816195  5.66666666666666 9.33333333333337  5.66666666666666 9.33333333333337  C 5.66666666666666 8.98187940162288  5.39470740313413 8.69394495937624  5.0497541149528 8.66849524547717  C 5.0497541149528 8.66849524547717  2 8.66666666666671  2 8.66666666666671  C 1.64854606828949 8.66666666666671  1.36061162604284 8.93862593019924  1.33516191214379 9.28357921838057  C 1.33516191214379 9.28357921838057  1.33333333333333 10.6666666666667  1.33333333333333 10.6666666666667  C 1.33333333333333 11.0181205983772  1.60529259686586 11.3060550406238  1.9502458850472 11.3315047545229  Z M 10.6666666666667 11.3333333333334  C 11.0181205983772 11.3333333333334  11.3060550406238 11.0613740698008  11.3315047545229 10.7164207816195  C 11.3315047545229 10.7164207816195  11.3333333333333 9.33333333333337  11.3333333333333 9.33333333333337  C 11.3333333333333 8.98187940162288  11.0613740698008 8.69394495937624  10.7164207816195 8.66849524547717  C 10.7164207816195 8.66849524547717  7.66666666666667 8.66666666666671  7.66666666666667 8.66666666666671  C 7.31521273495616 8.66666666666671  7.02727829270951 8.93862593019924  7.00182857881046 9.28357921838057  C 7.00182857881046 9.28357921838057  7 10.6666666666667  7 10.6666666666667  C 7 11.0181205983772  7.27195926353253 11.3060550406238  7.61691255171386 11.3315047545229  C 7.61691255171386 11.3315047545229  10.6666666666667 11.3333333333334  10.6666666666667 11.3333333333334  Z M 5.6648380878562 6.71642078161952  C 5.6648380878562 6.71642078161952  5.66666666666666 5.33333333333337  5.66666666666666 5.33333333333337  C 5.66666666666666 4.98187940162288  5.39470740313413 4.69394495937624  5.0497541149528 4.66849524547717  C 5.0497541149528 4.66849524547717  2 4.66666666666671  2 4.66666666666671  C 1.64854606828949 4.66666666666671  1.36061162604284 4.93862593019924  1.33516191214379 5.28357921838057  C 1.33516191214379 5.28357921838057  1.33333333333333 6.66666666666671  1.33333333333333 6.66666666666671  C 1.33333333333333 7.01812059837721  1.60529259686586 7.30605504062385  1.9502458850472 7.33150475452291  C 1.9502458850472 7.33150475452291  5 7.33333333333337  5 7.33333333333337  C 5.3514539317105 7.33333333333337  5.63938837395715 7.06137406980085  5.6648380878562 6.71642078161952  Z M 11.3333333333333 5.33333333333337  C 11.3333333333333 4.98187940162288  11.0613740698008 4.69394495937624  10.7164207816195 4.66849524547717  C 10.7164207816195 4.66849524547717  7.66666666666667 4.66666666666671  7.66666666666667 4.66666666666671  C 7.31521273495616 4.66666666666671  7.02727829270951 4.93862593019924  7.00182857881046 5.28357921838057  C 7.00182857881046 5.28357921838057  7 6.66666666666671  7 6.66666666666671  C 7 7.01812059837721  7.27195926353253 7.30605504062385  7.61691255171386 7.33150475452291  C 7.61691255171386 7.33150475452291  10.6666666666667 7.33333333333337  10.6666666666667 7.33333333333337  C 11.0181205983772 7.33333333333337  11.3060550406238 7.06137406980085  11.3315047545229 6.71642078161952  C 11.3315047545229 6.71642078161952  11.3333333333333 5.33333333333337  11.3333333333333 5.33333333333337  Z " fill-rule="nonzero" fill="#c9ced6" stroke="none" transform="matrix(1 0 0 1 28 25 )" />
  </g>
</svg>