<?xml version="1.0" encoding="utf-8"?>
<svg version="1.1" xmlns:xlink="http://www.w3.org/1999/xlink" width="14px" height="12px" xmlns="http://www.w3.org/2000/svg">
  <g transform="matrix(1 0 0 1 -20 -882 )">
    <path d="M 0.512820512820511 1.33333333333348  L 12.8205128205128 1.33333333333348  C 13.1076923076923 1.33333333333348  13.3333333333333 1.03999999999996  13.3333333333333 0.66666666666697  C 13.3333333333333 0.293333333333521  13.1076923076923 0  12.8205128205128 0  L 0.512820512820511 0  C 0.225641025641025 0  0 0.293333333333521  0 0.66666666666697  C 0 1.03999999999996  0.225641025641025 1.33333333333348  0.512820512820511 1.33333333333348  Z M 0.512820512820511 11.3333333333335  L 12.8205128205128 11.3333333333335  C 13.1076923076923 11.3333333333335  13.3333333333333 11.04  13.3333333333333 10.666666666667  C 13.3333333333333 10.2933333333335  13.1076923076923 10  12.8205128205128 10  L 0.512820512820511 10  C 0.225641025641025 10  0 10.2933333333335  0 10.666666666667  C 0 11.04  0.225641025641025 11.3333333333335  0.512820512820511 11.3333333333335  Z " fill-rule="nonzero" fill="#5f6a7a" stroke="none" transform="matrix(1 0 0 1 20 882 )" />
  </g>
</svg>